<?xml version="1.0" encoding="UTF-8" standalone="no"?>
<!DOCTYPE svg PUBLIC "-//W3C//DTD SVG 1.1//EN"
 "http://www.w3.org/Graphics/SVG/1.1/DTD/svg11.dtd">
<!-- Generated by graphviz version 14.0.2 (20251019.1705)
 -->
<!-- Title: Games/4x4_Tic_Tac_Toe/4by4_XO.h Pages: 1 -->
<svg width="230pt" height="108pt"
 viewBox="0.00 0.00 230.00 108.00" xmlns="http://www.w3.org/2000/svg" xmlns:xlink="http://www.w3.org/1999/xlink">
<g id="graph0" class="graph" transform="scale(1 1) rotate(0) translate(4 104)">
<title>Games/4x4_Tic_Tac_Toe/4by4_XO.h</title>
<!-- Node1 -->
<g id="Node000001" class="node">
<title>Node1</title>
<g id="a_Node000001"><a xlink:title=" ">
<polygon fill="#999999" stroke="#666666" points="187,-100 60,-100 60,-68 187,-68 187,-100"/>
<text xml:space="preserve" text-anchor="start" x="68" y="-86.5" font-family="Helvetica,sans-Serif" font-size="10.00">Games/4x4_Tic_Tac_Toe</text>
<text xml:space="preserve" text-anchor="middle" x="123.5" y="-74.5" font-family="Helvetica,sans-Serif" font-size="10.00">/4by4_XO.h</text>
</a>
</g>
</g>
<!-- Node2 -->
<g id="Node000002" class="node">
<title>Node2</title>
<g id="a_Node000002"><a xlink:href="4by4___x_o_8cpp.html" target="_top" xlink:title=" ">
<polygon fill="white" stroke="#666666" points="127,-32 0,-32 0,0 127,0 127,-32"/>
<text xml:space="preserve" text-anchor="start" x="8" y="-18.5" font-family="Helvetica,sans-Serif" font-size="10.00">Games/4x4_Tic_Tac_Toe</text>
<text xml:space="preserve" text-anchor="middle" x="63.5" y="-6.5" font-family="Helvetica,sans-Serif" font-size="10.00">/4by4_XO.cpp</text>
</a>
</g>
</g>
<!-- Node1&#45;&gt;Node2 -->
<g id="edge1_Node000001_Node000002" class="edge">
<title>Node1&#45;&gt;Node2</title>
<g id="a_edge1_Node000001_Node000002"><a xlink:title=" ">
<path fill="none" stroke="#63b8ff" d="M102.07,-59.43C93.84,-50.38 84.67,-40.29 77.34,-32.22"/>
<polygon fill="#63b8ff" stroke="#63b8ff" points="99.25,-61.53 108.57,-66.57 104.43,-56.82 99.25,-61.53"/>
</a>
</g>
</g>
<!-- Node3 -->
<g id="Node000003" class="node">
<title>Node3</title>
<g id="a_Node000003"><a xlink:href="_the_game_8cpp.html" target="_top" xlink:title=" ">
<polygon fill="white" stroke="#666666" points="222.25,-26 144.75,-26 144.75,-6 222.25,-6 222.25,-26"/>
<text xml:space="preserve" text-anchor="middle" x="183.5" y="-12.5" font-family="Helvetica,sans-Serif" font-size="10.00">TheGame.cpp</text>
</a>
</g>
</g>
<!-- Node1&#45;&gt;Node3 -->
<g id="edge2_Node000001_Node000003" class="edge">
<title>Node1&#45;&gt;Node3</title>
<g id="a_edge2_Node000001_Node000003"><a xlink:title=" ">
<path fill="none" stroke="#63b8ff" d="M144.98,-59.37C155.37,-47.95 167.24,-34.88 175.03,-26.32"/>
<polygon fill="#63b8ff" stroke="#63b8ff" points="142.57,-56.82 138.43,-66.57 147.75,-61.53 142.57,-56.82"/>
</a>
</g>
</g>
</g>
</svg>
