<?xml version="1.0" encoding="UTF-8" standalone="no"?>
<!DOCTYPE svg PUBLIC "-//W3C//DTD SVG 1.1//EN"
 "http://www.w3.org/Graphics/SVG/1.1/DTD/svg11.dtd">
<!-- Generated by graphviz version 14.0.2 (20251019.1705)
 -->
<!-- Title: Games/4x4_Tic_Tac_Toe/4by4_XO.cpp Pages: 1 -->
<svg width="407pt" height="276pt"
 viewBox="0.00 0.00 407.00 276.00" xmlns="http://www.w3.org/2000/svg" xmlns:xlink="http://www.w3.org/1999/xlink">
<g id="graph0" class="graph" transform="scale(1 1) rotate(0) translate(4 272)">
<title>Games/4x4_Tic_Tac_Toe/4by4_XO.cpp</title>
<!-- Node1 -->
<g id="Node000001" class="node">
<title>Node1</title>
<g id="a_Node000001"><a xlink:title=" ">
<polygon fill="#999999" stroke="#666666" points="286.5,-268 159.5,-268 159.5,-236 286.5,-236 286.5,-268"/>
<text xml:space="preserve" text-anchor="start" x="167.5" y="-254.5" font-family="Helvetica,sans-Serif" font-size="10.00">Games/4x4_Tic_Tac_Toe</text>
<text xml:space="preserve" text-anchor="middle" x="223" y="-242.5" font-family="Helvetica,sans-Serif" font-size="10.00">/4by4_XO.cpp</text>
</a>
</g>
</g>
<!-- Node2 -->
<g id="Node000002" class="node">
<title>Node2</title>
<g id="a_Node000002"><a xlink:href="4by4___x_o_8h.html" target="_top" xlink:title=" ">
<polygon fill="white" stroke="#666666" points="185.38,-200 120.62,-200 120.62,-180 185.38,-180 185.38,-200"/>
<text xml:space="preserve" text-anchor="middle" x="153" y="-186.5" font-family="Helvetica,sans-Serif" font-size="10.00">4by4_XO.h</text>
</a>
</g>
</g>
<!-- Node1&#45;&gt;Node2 -->
<g id="edge1_Node000001_Node000002" class="edge">
<title>Node1&#45;&gt;Node2</title>
<g id="a_edge1_Node000001_Node000002"><a xlink:title=" ">
<path fill="none" stroke="#63b8ff" d="M204.97,-235.55C195.05,-227.04 182.72,-216.48 172.56,-207.77"/>
<polygon fill="#63b8ff" stroke="#63b8ff" points="175,-205.24 165.13,-201.39 170.44,-210.56 175,-205.24"/>
</a>
</g>
</g>
<!-- Node4 -->
<g id="Node000004" class="node">
<title>Node4</title>
<g id="a_Node000004"><a xlink:title=" ">
<polygon fill="#e0e0e0" stroke="#999999" points="40,-20 0,-20 0,0 40,0 40,-20"/>
<text xml:space="preserve" text-anchor="middle" x="20" y="-6.5" font-family="Helvetica,sans-Serif" font-size="10.00">string</text>
</a>
</g>
</g>
<!-- Node1&#45;&gt;Node4 -->
<g id="edge11_Node000001_Node000004" class="edge">
<title>Node1&#45;&gt;Node4</title>
<g id="a_edge11_Node000001_Node000004"><a xlink:title=" ">
<path fill="none" stroke="#63b8ff" d="M159.12,-237.44C135.61,-229.76 110.29,-217.95 92,-200 43.93,-152.81 27.47,-70.2 22.24,-31.77"/>
<polygon fill="#63b8ff" stroke="#63b8ff" points="25.72,-31.35 21.03,-21.84 18.77,-32.19 25.72,-31.35"/>
</a>
</g>
</g>
<!-- Node5 -->
<g id="Node000005" class="node">
<title>Node5</title>
<g id="a_Node000005"><a xlink:title=" ">
<polygon fill="#e0e0e0" stroke="#999999" points="102.5,-20 59.5,-20 59.5,0 102.5,0 102.5,-20"/>
<text xml:space="preserve" text-anchor="middle" x="81" y="-6.5" font-family="Helvetica,sans-Serif" font-size="10.00">vector</text>
</a>
</g>
</g>
<!-- Node1&#45;&gt;Node5 -->
<g id="edge10_Node000001_Node000005" class="edge">
<title>Node1&#45;&gt;Node5</title>
<g id="a_edge10_Node000001_Node000005"><a xlink:title=" ">
<path fill="none" stroke="#63b8ff" d="M169.08,-235.58C149.07,-227.64 127.49,-216.14 112,-200 74.74,-161.18 76.42,-140.79 66,-88 63.25,-74.05 63.72,-70.04 66,-56 67.35,-47.68 70.02,-38.82 72.74,-31.18"/>
<polygon fill="#63b8ff" stroke="#63b8ff" points="76,-32.43 76.32,-21.84 69.47,-29.92 76,-32.43"/>
</a>
</g>
</g>
<!-- Node6 -->
<g id="Node000006" class="node">
<title>Node6</title>
<g id="a_Node000006"><a xlink:title=" ">
<polygon fill="#e0e0e0" stroke="#999999" points="174.75,-20 121.25,-20 121.25,0 174.75,0 174.75,-20"/>
<text xml:space="preserve" text-anchor="middle" x="148" y="-6.5" font-family="Helvetica,sans-Serif" font-size="10.00">iostream</text>
</a>
</g>
</g>
<!-- Node1&#45;&gt;Node6 -->
<g id="edge9_Node000001_Node000006" class="edge">
<title>Node1&#45;&gt;Node6</title>
<g id="a_edge9_Node000001_Node000006"><a xlink:title=" ">
<path fill="none" stroke="#63b8ff" d="M225.04,-235.71C228.88,-201.28 234.15,-116.03 202,-56 195.71,-44.26 184.97,-34.35 174.72,-26.85"/>
<polygon fill="#63b8ff" stroke="#63b8ff" points="176.7,-23.96 166.45,-21.26 172.78,-29.76 176.7,-23.96"/>
</a>
</g>
</g>
<!-- Node7 -->
<g id="Node000007" class="node">
<title>Node7</title>
<g id="a_Node000007"><a xlink:title=" ">
<polygon fill="#e0e0e0" stroke="#999999" points="269.88,-20 220.12,-20 220.12,0 269.88,0 269.88,-20"/>
<text xml:space="preserve" text-anchor="middle" x="245" y="-6.5" font-family="Helvetica,sans-Serif" font-size="10.00">iomanip</text>
</a>
</g>
</g>
<!-- Node1&#45;&gt;Node7 -->
<g id="edge12_Node000001_Node000007" class="edge">
<title>Node1&#45;&gt;Node7</title>
<g id="a_edge12_Node000001_Node000007"><a xlink:title=" ">
<path fill="none" stroke="#63b8ff" d="M228.21,-235.57C231.35,-225.56 235.1,-212.16 237,-200 246.49,-139.29 246.38,-66.37 245.64,-31.51"/>
<polygon fill="#63b8ff" stroke="#63b8ff" points="249.14,-31.54 245.38,-21.63 242.14,-31.72 249.14,-31.54"/>
</a>
</g>
</g>
<!-- Node9 -->
<g id="Node000009" class="node">
<title>Node9</title>
<g id="a_Node000009"><a xlink:title=" ">
<polygon fill="#e0e0e0" stroke="#999999" points="332.5,-200 289.5,-200 289.5,-180 332.5,-180 332.5,-200"/>
<text xml:space="preserve" text-anchor="middle" x="311" y="-186.5" font-family="Helvetica,sans-Serif" font-size="10.00">cmath</text>
</a>
</g>
</g>
<!-- Node1&#45;&gt;Node9 -->
<g id="edge13_Node000001_Node000009" class="edge">
<title>Node1&#45;&gt;Node9</title>
<g id="a_edge13_Node000001_Node000009"><a xlink:title=" ">
<path fill="none" stroke="#63b8ff" d="M245.66,-235.55C258.65,-226.69 274.91,-215.61 287.96,-206.71"/>
<polygon fill="#63b8ff" stroke="#63b8ff" points="289.66,-209.79 295.95,-201.26 285.72,-204 289.66,-209.79"/>
</a>
</g>
</g>
<!-- Node10 -->
<g id="Node000010" class="node">
<title>Node10</title>
<g id="a_Node000010"><a xlink:title=" ">
<polygon fill="#e0e0e0" stroke="#999999" points="399.12,-200 350.88,-200 350.88,-180 399.12,-180 399.12,-200"/>
<text xml:space="preserve" text-anchor="middle" x="375" y="-186.5" font-family="Helvetica,sans-Serif" font-size="10.00">random</text>
</a>
</g>
</g>
<!-- Node1&#45;&gt;Node10 -->
<g id="edge14_Node000001_Node000010" class="edge">
<title>Node1&#45;&gt;Node10</title>
<g id="a_edge14_Node000001_Node000010"><a xlink:title=" ">
<path fill="none" stroke="#63b8ff" d="M262.14,-235.55C286.44,-225.96 317.38,-213.75 340.71,-204.54"/>
<polygon fill="#63b8ff" stroke="#63b8ff" points="341.74,-207.89 349.76,-200.96 339.17,-201.38 341.74,-207.89"/>
</a>
</g>
</g>
<!-- Node3 -->
<g id="Node000003" class="node">
<title>Node3</title>
<g id="a_Node000003"><a xlink:href="_board_game___classes_8h.html" target="_top" xlink:title=" ">
<polygon fill="white" stroke="#666666" points="193,-88 75,-88 75,-56 193,-56 193,-88"/>
<text xml:space="preserve" text-anchor="start" x="83" y="-74.5" font-family="Helvetica,sans-Serif" font-size="10.00">../../header/BoardGame</text>
<text xml:space="preserve" text-anchor="middle" x="134" y="-62.5" font-family="Helvetica,sans-Serif" font-size="10.00">_Classes.h</text>
</a>
</g>
</g>
<!-- Node2&#45;&gt;Node3 -->
<g id="edge2_Node000002_Node000003" class="edge">
<title>Node2&#45;&gt;Node3</title>
<g id="a_edge2_Node000002_Node000003"><a xlink:title=" ">
<path fill="none" stroke="#63b8ff" d="M136.27,-179.6C124.26,-171.8 108.99,-159.5 102,-144 94.95,-128.38 102.73,-110.82 112.38,-97.07"/>
<polygon fill="#63b8ff" stroke="#63b8ff" points="114.93,-99.49 118.27,-89.44 109.39,-95.21 114.93,-99.49"/>
</a>
</g>
</g>
<!-- Node8 -->
<g id="Node000008" class="node">
<title>Node8</title>
<g id="a_Node000008"><a xlink:href="_a_i_8h.html" target="_top" xlink:title=" ">
<polygon fill="white" stroke="#666666" points="195.12,-144 110.88,-144 110.88,-124 195.12,-124 195.12,-144"/>
<text xml:space="preserve" text-anchor="middle" x="153" y="-130.5" font-family="Helvetica,sans-Serif" font-size="10.00">../../header/AI.h</text>
</a>
</g>
</g>
<!-- Node2&#45;&gt;Node8 -->
<g id="edge7_Node000002_Node000008" class="edge">
<title>Node2&#45;&gt;Node8</title>
<g id="a_edge7_Node000002_Node000008"><a xlink:title=" ">
<path fill="none" stroke="#63b8ff" d="M153,-179.59C153,-173.01 153,-163.96 153,-155.73"/>
<polygon fill="#63b8ff" stroke="#63b8ff" points="156.5,-155.81 153,-145.81 149.5,-155.81 156.5,-155.81"/>
</a>
</g>
</g>
<!-- Node3&#45;&gt;Node4 -->
<g id="edge3_Node000003_Node000004" class="edge">
<title>Node3&#45;&gt;Node4</title>
<g id="a_edge3_Node000003_Node000004"><a xlink:title=" ">
<path fill="none" stroke="#63b8ff" d="M104.64,-55.55C87.16,-46.35 65.1,-34.74 47.88,-25.68"/>
<polygon fill="#63b8ff" stroke="#63b8ff" points="49.69,-22.67 39.21,-21.11 46.43,-28.87 49.69,-22.67"/>
</a>
</g>
</g>
<!-- Node3&#45;&gt;Node5 -->
<g id="edge4_Node000003_Node000005" class="edge">
<title>Node3&#45;&gt;Node5</title>
<g id="a_edge4_Node000003_Node000005"><a xlink:title=" ">
<path fill="none" stroke="#63b8ff" d="M120.35,-55.55C113.14,-47.39 104.26,-37.33 96.76,-28.84"/>
<polygon fill="#63b8ff" stroke="#63b8ff" points="99.56,-26.72 90.31,-21.54 94.31,-31.35 99.56,-26.72"/>
</a>
</g>
</g>
<!-- Node3&#45;&gt;Node6 -->
<g id="edge5_Node000003_Node000006" class="edge">
<title>Node3&#45;&gt;Node6</title>
<g id="a_edge5_Node000003_Node000006"><a xlink:title=" ">
<path fill="none" stroke="#63b8ff" d="M137.61,-55.55C139.31,-48.26 141.36,-39.45 143.19,-31.6"/>
<polygon fill="#63b8ff" stroke="#63b8ff" points="146.6,-32.42 145.46,-21.88 139.78,-30.83 146.6,-32.42"/>
</a>
</g>
</g>
<!-- Node3&#45;&gt;Node7 -->
<g id="edge6_Node000003_Node000007" class="edge">
<title>Node3&#45;&gt;Node7</title>
<g id="a_edge6_Node000003_Node000007"><a xlink:title=" ">
<path fill="none" stroke="#63b8ff" d="M162.59,-55.55C179.61,-46.35 201.09,-34.74 217.85,-25.68"/>
<polygon fill="#63b8ff" stroke="#63b8ff" points="219.13,-28.96 226.26,-21.13 215.8,-22.8 219.13,-28.96"/>
</a>
</g>
</g>
<!-- Node8&#45;&gt;Node3 -->
<g id="edge8_Node000008_Node000003" class="edge">
<title>Node8&#45;&gt;Node3</title>
<g id="a_edge8_Node000008_Node000003"><a xlink:title=" ">
<path fill="none" stroke="#63b8ff" d="M150.03,-123.62C147.94,-117.02 145.03,-107.84 142.27,-99.11"/>
<polygon fill="#63b8ff" stroke="#63b8ff" points="145.61,-98.06 139.25,-89.58 138.93,-100.17 145.61,-98.06"/>
</a>
</g>
</g>
</g>
</svg>
