<?xml version="1.0" encoding="UTF-8" standalone="no"?>
<!DOCTYPE svg PUBLIC "-//W3C//DTD SVG 1.1//EN"
 "http://www.w3.org/Graphics/SVG/1.1/DTD/svg11.dtd">
<!-- Generated by graphviz version 14.0.2 (20251019.1705)
 -->
<!-- Title: Games/4x4_Tic_Tac_Toe/4by4_XO.h Pages: 1 -->
<svg width="249pt" height="220pt"
 viewBox="0.00 0.00 249.00 220.00" xmlns="http://www.w3.org/2000/svg" xmlns:xlink="http://www.w3.org/1999/xlink">
<g id="graph0" class="graph" transform="scale(1 1) rotate(0) translate(4 216)">
<title>Games/4x4_Tic_Tac_Toe/4by4_XO.h</title>
<!-- Node1 -->
<g id="Node000001" class="node">
<title>Node1</title>
<g id="a_Node000001"><a xlink:title=" ">
<polygon fill="#999999" stroke="#666666" points="176.5,-212 49.5,-212 49.5,-180 176.5,-180 176.5,-212"/>
<text xml:space="preserve" text-anchor="start" x="57.5" y="-198.5" font-family="Helvetica,sans-Serif" font-size="10.00">Games/4x4_Tic_Tac_Toe</text>
<text xml:space="preserve" text-anchor="middle" x="113" y="-186.5" font-family="Helvetica,sans-Serif" font-size="10.00">/4by4_XO.h</text>
</a>
</g>
</g>
<!-- Node2 -->
<g id="Node000002" class="node">
<title>Node2</title>
<g id="a_Node000002"><a xlink:href="$_board_game___classes_8h.html" xlink:title=" ">
<polygon fill="white" stroke="#666666" points="172,-88 54,-88 54,-56 172,-56 172,-88"/>
<text xml:space="preserve" text-anchor="start" x="62" y="-74.5" font-family="Helvetica,sans-Serif" font-size="10.00">../../header/BoardGame</text>
<text xml:space="preserve" text-anchor="middle" x="113" y="-62.5" font-family="Helvetica,sans-Serif" font-size="10.00">_Classes.h</text>
</a>
</g>
</g>
<!-- Node1&#45;&gt;Node2 -->
<g id="edge1_Node000001_Node000002" class="edge">
<title>Node1&#45;&gt;Node2</title>
<g id="a_edge1_Node000001_Node000002"><a xlink:title=" ">
<path fill="none" stroke="#63b8ff" d="M106.84,-179.67C103.18,-169.69 98.88,-156.29 97,-144 94.71,-129.03 98.07,-112.51 102.29,-99.17"/>
<polygon fill="#63b8ff" stroke="#63b8ff" points="105.57,-100.42 105.6,-89.82 98.97,-98.08 105.57,-100.42"/>
</a>
</g>
</g>
<!-- Node7 -->
<g id="Node000007" class="node">
<title>Node7</title>
<g id="a_Node000007"><a xlink:href="$_a_i_8h.html" xlink:title=" ">
<polygon fill="white" stroke="#666666" points="190.12,-144 105.88,-144 105.88,-124 190.12,-124 190.12,-144"/>
<text xml:space="preserve" text-anchor="middle" x="148" y="-130.5" font-family="Helvetica,sans-Serif" font-size="10.00">../../header/AI.h</text>
</a>
</g>
</g>
<!-- Node1&#45;&gt;Node7 -->
<g id="edge6_Node000001_Node000007" class="edge">
<title>Node1&#45;&gt;Node7</title>
<g id="a_edge6_Node000001_Node000007"><a xlink:title=" ">
<path fill="none" stroke="#63b8ff" d="M122.01,-179.55C126.52,-171.82 132.02,-162.4 136.79,-154.21"/>
<polygon fill="#63b8ff" stroke="#63b8ff" points="139.73,-156.12 141.75,-145.72 133.69,-152.59 139.73,-156.12"/>
</a>
</g>
</g>
<!-- Node3 -->
<g id="Node000003" class="node">
<title>Node3</title>
<g id="a_Node000003"><a xlink:title=" ">
<polygon fill="#e0e0e0" stroke="#999999" points="40,-20 0,-20 0,0 40,0 40,-20"/>
<text xml:space="preserve" text-anchor="middle" x="20" y="-6.5" font-family="Helvetica,sans-Serif" font-size="10.00">string</text>
</a>
</g>
</g>
<!-- Node2&#45;&gt;Node3 -->
<g id="edge2_Node000002_Node000003" class="edge">
<title>Node2&#45;&gt;Node3</title>
<g id="a_edge2_Node000002_Node000003"><a xlink:title=" ">
<path fill="none" stroke="#63b8ff" d="M89.05,-55.55C75.19,-46.61 57.81,-35.39 43.95,-26.45"/>
<polygon fill="#63b8ff" stroke="#63b8ff" points="46.15,-23.71 35.85,-21.23 42.36,-29.59 46.15,-23.71"/>
</a>
</g>
</g>
<!-- Node4 -->
<g id="Node000004" class="node">
<title>Node4</title>
<g id="a_Node000004"><a xlink:title=" ">
<polygon fill="#e0e0e0" stroke="#999999" points="101.5,-20 58.5,-20 58.5,0 101.5,0 101.5,-20"/>
<text xml:space="preserve" text-anchor="middle" x="80" y="-6.5" font-family="Helvetica,sans-Serif" font-size="10.00">vector</text>
</a>
</g>
</g>
<!-- Node2&#45;&gt;Node4 -->
<g id="edge3_Node000002_Node000004" class="edge">
<title>Node2&#45;&gt;Node4</title>
<g id="a_edge3_Node000002_Node000004"><a xlink:title=" ">
<path fill="none" stroke="#63b8ff" d="M104.5,-55.55C100.3,-47.91 95.19,-38.61 90.72,-30.49"/>
<polygon fill="#63b8ff" stroke="#63b8ff" points="93.79,-28.81 85.9,-21.73 87.66,-32.18 93.79,-28.81"/>
</a>
</g>
</g>
<!-- Node5 -->
<g id="Node000005" class="node">
<title>Node5</title>
<g id="a_Node000005"><a xlink:title=" ">
<polygon fill="#e0e0e0" stroke="#999999" points="172.75,-20 119.25,-20 119.25,0 172.75,0 172.75,-20"/>
<text xml:space="preserve" text-anchor="middle" x="146" y="-6.5" font-family="Helvetica,sans-Serif" font-size="10.00">iostream</text>
</a>
</g>
</g>
<!-- Node2&#45;&gt;Node5 -->
<g id="edge4_Node000002_Node000005" class="edge">
<title>Node2&#45;&gt;Node5</title>
<g id="a_edge4_Node000002_Node000005"><a xlink:title=" ">
<path fill="none" stroke="#63b8ff" d="M121.5,-55.55C125.7,-47.91 130.81,-38.61 135.28,-30.49"/>
<polygon fill="#63b8ff" stroke="#63b8ff" points="138.34,-32.18 140.1,-21.73 132.21,-28.81 138.34,-32.18"/>
</a>
</g>
</g>
<!-- Node6 -->
<g id="Node000006" class="node">
<title>Node6</title>
<g id="a_Node000006"><a xlink:title=" ">
<polygon fill="#e0e0e0" stroke="#999999" points="240.88,-20 191.12,-20 191.12,0 240.88,0 240.88,-20"/>
<text xml:space="preserve" text-anchor="middle" x="216" y="-6.5" font-family="Helvetica,sans-Serif" font-size="10.00">iomanip</text>
</a>
</g>
</g>
<!-- Node2&#45;&gt;Node6 -->
<g id="edge5_Node000002_Node000006" class="edge">
<title>Node2&#45;&gt;Node6</title>
<g id="a_edge5_Node000002_Node000006"><a xlink:title=" ">
<path fill="none" stroke="#63b8ff" d="M139.53,-55.55C155.02,-46.52 174.5,-35.17 189.92,-26.19"/>
<polygon fill="#63b8ff" stroke="#63b8ff" points="191.66,-29.23 198.54,-21.17 188.14,-23.18 191.66,-29.23"/>
</a>
</g>
</g>
<!-- Node7&#45;&gt;Node2 -->
<g id="edge7_Node000007_Node000002" class="edge">
<title>Node7&#45;&gt;Node2</title>
<g id="a_edge7_Node000007_Node000002"><a xlink:title=" ">
<path fill="none" stroke="#63b8ff" d="M142.53,-123.62C138.51,-116.73 132.84,-107.01 127.55,-97.93"/>
<polygon fill="#63b8ff" stroke="#63b8ff" points="130.66,-96.32 122.59,-89.45 124.61,-99.85 130.66,-96.32"/>
</a>
</g>
</g>
</g>
</svg>
