<?xml version="1.0" encoding="UTF-8" standalone="no"?>
<!DOCTYPE svg PUBLIC "-//W3C//DTD SVG 1.1//EN"
 "http://www.w3.org/Graphics/SVG/1.1/DTD/svg11.dtd">
<!-- Generated by graphviz version 14.0.2 (20251019.1705)
 -->
<!-- Title: header/AI.h Pages: 1 -->
<svg width="2065pt" height="188pt"
 viewBox="0.00 0.00 2065.00 188.00" xmlns="http://www.w3.org/2000/svg" xmlns:xlink="http://www.w3.org/1999/xlink">
<g id="graph0" class="graph" transform="scale(1 1) rotate(0) translate(4 184)">
<title>header/AI.h</title>
<!-- Node1 -->
<g id="Node000001" class="node">
<title>Node1</title>
<g id="a_Node000001"><a xlink:title=" ">
<polygon fill="#999999" stroke="#666666" points="1084.62,-180 1018.38,-180 1018.38,-160 1084.62,-160 1084.62,-180"/>
<text xml:space="preserve" text-anchor="middle" x="1051.5" y="-166.5" font-family="Helvetica,sans-Serif" font-size="10.00">header/AI.h</text>
</a>
</g>
</g>
<!-- Node2 -->
<g id="Node000002" class="node">
<title>Node2</title>
<g id="a_Node000002"><a xlink:href="4by4___x_o_8h.html" target="_top" xlink:title=" ">
<polygon fill="white" stroke="#666666" points="150,-118 23,-118 23,-86 150,-86 150,-118"/>
<text xml:space="preserve" text-anchor="start" x="31" y="-104.5" font-family="Helvetica,sans-Serif" font-size="10.00">Games/4x4_Tic_Tac_Toe</text>
<text xml:space="preserve" text-anchor="middle" x="86.5" y="-92.5" font-family="Helvetica,sans-Serif" font-size="10.00">/4by4_XO.h</text>
</a>
</g>
</g>
<!-- Node1&#45;&gt;Node2 -->
<g id="edge1_Node000001_Node000002" class="edge">
<title>Node1&#45;&gt;Node2</title>
<g id="a_edge1_Node000001_Node000002"><a xlink:title=" ">
<path fill="none" stroke="#63b8ff" d="M1006.87,-168.1C850.13,-164.74 325.31,-151.65 159.5,-124 151.31,-122.63 142.72,-120.67 134.44,-118.48"/>
<polygon fill="#63b8ff" stroke="#63b8ff" points="1006.35,-171.59 1016.43,-168.31 1006.5,-164.6 1006.35,-171.59"/>
</a>
</g>
</g>
<!-- Node5 -->
<g id="Node000005" class="node">
<title>Node5</title>
<g id="a_Node000005"><a xlink:href="four_8h.html" target="_top" xlink:title=" ">
<polygon fill="white" stroke="#666666" points="282.62,-118 168.38,-118 168.38,-86 282.62,-86 282.62,-118"/>
<text xml:space="preserve" text-anchor="start" x="176.38" y="-104.5" font-family="Helvetica,sans-Serif" font-size="10.00">Games/Four_in_a_row</text>
<text xml:space="preserve" text-anchor="middle" x="225.5" y="-92.5" font-family="Helvetica,sans-Serif" font-size="10.00">/four.h</text>
</a>
</g>
</g>
<!-- Node1&#45;&gt;Node5 -->
<g id="edge4_Node000001_Node000005" class="edge">
<title>Node1&#45;&gt;Node5</title>
<g id="a_edge4_Node000001_Node000005"><a xlink:title=" ">
<path fill="none" stroke="#63b8ff" d="M1007.14,-167.79C866.42,-163.74 431.1,-149.43 292.5,-124 284.95,-122.61 277.05,-120.64 269.44,-118.45"/>
<polygon fill="#63b8ff" stroke="#63b8ff" points="1006.69,-171.28 1016.79,-168.07 1006.89,-164.29 1006.69,-171.28"/>
</a>
</g>
</g>
<!-- Node7 -->
<g id="Node000007" class="node">
<title>Node7</title>
<g id="a_Node000007"><a xlink:href="_large___tic___tac___toe_8h.html" target="_top" xlink:title=" ">
<polygon fill="white" stroke="#666666" points="434,-118 301,-118 301,-86 434,-86 434,-118"/>
<text xml:space="preserve" text-anchor="start" x="309" y="-104.5" font-family="Helvetica,sans-Serif" font-size="10.00">Games/Large_Tic_Tac</text>
<text xml:space="preserve" text-anchor="middle" x="367.5" y="-92.5" font-family="Helvetica,sans-Serif" font-size="10.00">_Toe/Large_Tic_Tac_Toe.h</text>
</a>
</g>
</g>
<!-- Node1&#45;&gt;Node7 -->
<g id="edge7_Node000001_Node000007" class="edge">
<title>Node1&#45;&gt;Node7</title>
<g id="a_edge7_Node000001_Node000007"><a xlink:title=" ">
<path fill="none" stroke="#63b8ff" d="M1006.64,-168.67C905.43,-167.28 651.91,-160.15 443.5,-124 435.14,-122.55 426.37,-120.57 417.88,-118.4"/>
<polygon fill="#63b8ff" stroke="#63b8ff" points="1006.38,-172.17 1016.42,-168.79 1006.47,-165.17 1006.38,-172.17"/>
</a>
</g>
</g>
<!-- Node9 -->
<g id="Node000009" class="node">
<title>Node9</title>
<g id="a_Node000009"><a xlink:href="_memory___tic___tac___toe_8h.html" target="_top" xlink:title=" ">
<polygon fill="white" stroke="#666666" points="596.62,-118 452.38,-118 452.38,-86 596.62,-86 596.62,-118"/>
<text xml:space="preserve" text-anchor="start" x="460.38" y="-104.5" font-family="Helvetica,sans-Serif" font-size="10.00">Games/Memory_Tic_Tac</text>
<text xml:space="preserve" text-anchor="middle" x="524.5" y="-92.5" font-family="Helvetica,sans-Serif" font-size="10.00">_Toe/Memory_Tic_Tac_Toe.h</text>
</a>
</g>
</g>
<!-- Node1&#45;&gt;Node9 -->
<g id="edge10_Node000001_Node000009" class="edge">
<title>Node1&#45;&gt;Node9</title>
<g id="a_edge10_Node000001_Node000009"><a xlink:title=" ">
<path fill="none" stroke="#63b8ff" d="M1006.76,-166.76C926.06,-162.21 750.98,-150.04 605.5,-124 597.06,-122.49 588.21,-120.56 579.59,-118.48"/>
<polygon fill="#63b8ff" stroke="#63b8ff" points="1006.28,-170.24 1016.46,-167.29 1006.66,-163.25 1006.28,-170.24"/>
</a>
</g>
</g>
<!-- Node11 -->
<g id="Node000011" class="node">
<title>Node11</title>
<g id="a_Node000011"><a xlink:href="_obstacles___tic___tac___toe_8h.html" target="_top" xlink:title=" ">
<polygon fill="white" stroke="#666666" points="738.5,-124 614.5,-124 614.5,-80 738.5,-80 738.5,-124"/>
<text xml:space="preserve" text-anchor="start" x="622.5" y="-110.5" font-family="Helvetica,sans-Serif" font-size="10.00">Games/Obstacles_Tic</text>
<text xml:space="preserve" text-anchor="start" x="622.5" y="-98.5" font-family="Helvetica,sans-Serif" font-size="10.00">_Tac_Toe/Obstacles_Tic</text>
<text xml:space="preserve" text-anchor="middle" x="676.5" y="-86.5" font-family="Helvetica,sans-Serif" font-size="10.00">_Tac_Toe.h</text>
</a>
</g>
</g>
<!-- Node1&#45;&gt;Node11 -->
<g id="edge13_Node000001_Node000011" class="edge">
<title>Node1&#45;&gt;Node11</title>
<g id="a_edge13_Node000001_Node000011"><a xlink:title=" ">
<path fill="none" stroke="#63b8ff" d="M1006.68,-164.36C947.06,-157.74 838.59,-144.11 747.5,-124 744.61,-123.36 741.67,-122.67 738.71,-121.94"/>
<polygon fill="#63b8ff" stroke="#63b8ff" points="1006.11,-167.82 1016.43,-165.43 1006.87,-160.86 1006.11,-167.82"/>
</a>
</g>
</g>
<!-- Node13 -->
<g id="Node000013" class="node">
<title>Node13</title>
<g id="a_Node000013"><a xlink:href="_pyramid_x_o_8h.html" target="_top" xlink:title=" ">
<polygon fill="white" stroke="#666666" points="918.62,-112 756.38,-112 756.38,-92 918.62,-92 918.62,-112"/>
<text xml:space="preserve" text-anchor="middle" x="837.5" y="-98.5" font-family="Helvetica,sans-Serif" font-size="10.00">Games/PyramidXO/PyramidXO.h</text>
</a>
</g>
</g>
<!-- Node1&#45;&gt;Node13 -->
<g id="edge16_Node000001_Node000013" class="edge">
<title>Node1&#45;&gt;Node13</title>
<g id="a_edge16_Node000001_Node000013"><a xlink:title=" ">
<path fill="none" stroke="#63b8ff" d="M1009.98,-156.19C968.38,-143.37 905.34,-123.92 868.1,-112.44"/>
<polygon fill="#63b8ff" stroke="#63b8ff" points="1008.81,-159.5 1019.39,-159.1 1010.87,-152.81 1008.81,-159.5"/>
</a>
</g>
</g>
<!-- Node15 -->
<g id="Node000015" class="node">
<title>Node15</title>
<g id="a_Node000015"><a xlink:href="_s_u_s_8h.html" target="_top" xlink:title=" ">
<polygon fill="white" stroke="#666666" points="1040.38,-112 936.62,-112 936.62,-92 1040.38,-92 1040.38,-112"/>
<text xml:space="preserve" text-anchor="middle" x="988.5" y="-98.5" font-family="Helvetica,sans-Serif" font-size="10.00">Games/SUS/SUS.h</text>
</a>
</g>
</g>
<!-- Node1&#45;&gt;Node15 -->
<g id="edge19_Node000001_Node000015" class="edge">
<title>Node1&#45;&gt;Node15</title>
<g id="a_edge19_Node000001_Node000015"><a xlink:title=" ">
<path fill="none" stroke="#63b8ff" d="M1034.56,-151.25C1022.63,-138.76 1007.14,-122.53 997.51,-112.44"/>
<polygon fill="#63b8ff" stroke="#63b8ff" points="1031.99,-153.63 1041.43,-158.45 1037.06,-148.8 1031.99,-153.63"/>
</a>
</g>
</g>
<!-- Node17 -->
<g id="Node000017" class="node">
<title>Node17</title>
<g id="a_Node000017"><a xlink:href="_ultimate_8h.html" target="_top" xlink:title=" ">
<polygon fill="white" stroke="#666666" points="1294.5,-118 1188.5,-118 1188.5,-86 1294.5,-86 1294.5,-118"/>
<text xml:space="preserve" text-anchor="start" x="1196.5" y="-104.5" font-family="Helvetica,sans-Serif" font-size="10.00">Games/Ultimate_Tic</text>
<text xml:space="preserve" text-anchor="middle" x="1241.5" y="-92.5" font-family="Helvetica,sans-Serif" font-size="10.00">_Tac_Toe/Ultimate.h</text>
</a>
</g>
</g>
<!-- Node1&#45;&gt;Node17 -->
<g id="edge22_Node000001_Node000017" class="edge">
<title>Node1&#45;&gt;Node17</title>
<g id="a_edge22_Node000001_Node000017"><a xlink:title=" ">
<path fill="none" stroke="#63b8ff" d="M1089.53,-155.79C1120.56,-145.01 1164.45,-129.77 1197.09,-118.43"/>
<polygon fill="#63b8ff" stroke="#63b8ff" points="1088.45,-152.46 1080.15,-159.05 1090.75,-159.07 1088.45,-152.46"/>
</a>
</g>
</g>
<!-- Node19 -->
<g id="Node000019" class="node">
<title>Node19</title>
<g id="a_Node000019"><a xlink:href="_word___tic___tac___toe_8h.html" target="_top" xlink:title="Header file for the Word&#45;based Tic&#45;Tac&#45;Toe board, AI, and UI modules.">
<polygon fill="white" stroke="#666666" points="1444.25,-118 1312.75,-118 1312.75,-86 1444.25,-86 1444.25,-118"/>
<text xml:space="preserve" text-anchor="start" x="1320.75" y="-104.5" font-family="Helvetica,sans-Serif" font-size="10.00">Games/Word_Tic_Tac</text>
<text xml:space="preserve" text-anchor="middle" x="1378.5" y="-92.5" font-family="Helvetica,sans-Serif" font-size="10.00">_Toe/Word_Tic_Tac_Toe.h</text>
</a>
</g>
</g>
<!-- Node1&#45;&gt;Node19 -->
<g id="edge25_Node000001_Node000019" class="edge">
<title>Node1&#45;&gt;Node19</title>
<g id="a_edge25_Node000001_Node000019"><a xlink:title=" ">
<path fill="none" stroke="#63b8ff" d="M1095.89,-162.4C1146.44,-154.58 1231.35,-140.5 1303.5,-124 1310.75,-122.34 1318.35,-120.43 1325.81,-118.44"/>
<polygon fill="#63b8ff" stroke="#63b8ff" points="1095.58,-158.91 1086.22,-163.88 1096.64,-165.83 1095.58,-158.91"/>
</a>
</g>
</g>
<!-- Node21 -->
<g id="Node000021" class="node">
<title>Node21</title>
<g id="a_Node000021"><a xlink:href="_x_o__inf_8h.html" target="_top" xlink:title=" ">
<polygon fill="white" stroke="#666666" points="1584.38,-112 1462.62,-112 1462.62,-92 1584.38,-92 1584.38,-112"/>
<text xml:space="preserve" text-anchor="middle" x="1523.5" y="-98.5" font-family="Helvetica,sans-Serif" font-size="10.00">Games/XO_inf/XO_inf.h</text>
</a>
</g>
</g>
<!-- Node1&#45;&gt;Node21 -->
<g id="edge28_Node000001_Node000021" class="edge">
<title>Node1&#45;&gt;Node21</title>
<g id="a_edge28_Node000001_Node000021"><a xlink:title=" ">
<path fill="none" stroke="#63b8ff" d="M1096.18,-166.63C1170.83,-162.09 1325.32,-150.18 1453.5,-124 1467.8,-121.08 1483.37,-116.55 1496.2,-112.44"/>
<polygon fill="#63b8ff" stroke="#63b8ff" points="1096.19,-163.12 1086.42,-167.21 1096.61,-170.11 1096.19,-163.12"/>
</a>
</g>
</g>
<!-- Node23 -->
<g id="Node000023" class="node">
<title>Node23</title>
<g id="a_Node000023"><a xlink:href="xo__num_8h.html" target="_top" xlink:title=" ">
<polygon fill="white" stroke="#666666" points="1736.75,-112 1602.25,-112 1602.25,-92 1736.75,-92 1736.75,-112"/>
<text xml:space="preserve" text-anchor="middle" x="1669.5" y="-98.5" font-family="Helvetica,sans-Serif" font-size="10.00">Games/XO_num/xo_num.h</text>
</a>
</g>
</g>
<!-- Node1&#45;&gt;Node23 -->
<g id="edge31_Node000001_Node000023" class="edge">
<title>Node1&#45;&gt;Node23</title>
<g id="a_edge31_Node000001_Node000023"><a xlink:title=" ">
<path fill="none" stroke="#63b8ff" d="M1096.33,-168.1C1189.59,-165.62 1410.97,-156.5 1593.5,-124 1609.13,-121.22 1626.2,-116.64 1640.2,-112.47"/>
<polygon fill="#63b8ff" stroke="#63b8ff" points="1096.51,-164.6 1086.6,-168.35 1096.68,-171.59 1096.51,-164.6"/>
</a>
</g>
</g>
<!-- Node25 -->
<g id="Node000025" class="node">
<title>Node25</title>
<g id="a_Node000025"><a xlink:href="_anti___x_o_8h.html" target="_top" xlink:title=" ">
<polygon fill="white" stroke="#666666" points="1888.38,-112 1754.62,-112 1754.62,-92 1888.38,-92 1888.38,-112"/>
<text xml:space="preserve" text-anchor="middle" x="1821.5" y="-98.5" font-family="Helvetica,sans-Serif" font-size="10.00">Games/anti_XO/Anti_XO.h</text>
</a>
</g>
</g>
<!-- Node1&#45;&gt;Node25 -->
<g id="edge34_Node000001_Node000025" class="edge">
<title>Node1&#45;&gt;Node25</title>
<g id="a_edge34_Node000001_Node000025"><a xlink:title=" ">
<path fill="none" stroke="#63b8ff" d="M1096.39,-169.26C1207.35,-169.21 1503.12,-164.9 1745.5,-124 1761.29,-121.34 1778.52,-116.72 1792.58,-112.49"/>
<polygon fill="#63b8ff" stroke="#63b8ff" points="1096.52,-165.76 1086.52,-169.25 1096.52,-172.76 1096.52,-165.76"/>
</a>
</g>
</g>
<!-- Node27 -->
<g id="Node000027" class="node">
<title>Node27</title>
<g id="a_Node000027"><a xlink:href="dia___x_o_8h.html" target="_top" xlink:title=" ">
<polygon fill="white" stroke="#666666" points="2056.62,-112 1906.38,-112 1906.38,-92 2056.62,-92 2056.62,-112"/>
<text xml:space="preserve" text-anchor="middle" x="1981.5" y="-98.5" font-family="Helvetica,sans-Serif" font-size="10.00">Games/diamond_XO/dia_XO.h</text>
</a>
</g>
</g>
<!-- Node1&#45;&gt;Node27 -->
<g id="edge37_Node000001_Node000027" class="edge">
<title>Node1&#45;&gt;Node27</title>
<g id="a_edge37_Node000001_Node000027"><a xlink:title=" ">
<path fill="none" stroke="#63b8ff" d="M1096.26,-169.63C1222.84,-170.75 1593.85,-169.6 1897.5,-124 1915.04,-121.37 1934.26,-116.7 1949.88,-112.43"/>
<polygon fill="#63b8ff" stroke="#63b8ff" points="1096.33,-166.13 1086.3,-169.53 1096.26,-173.13 1096.33,-166.13"/>
</a>
</g>
</g>
<!-- Node29 -->
<g id="Node000029" class="node">
<title>Node29</title>
<g id="a_Node000029"><a xlink:href="_x_o___classes_8h.html" target="_top" xlink:title=" ">
<polygon fill="white" stroke="#666666" points="1170.5,-112 1058.5,-112 1058.5,-92 1170.5,-92 1170.5,-112"/>
<text xml:space="preserve" text-anchor="middle" x="1114.5" y="-98.5" font-family="Helvetica,sans-Serif" font-size="10.00">header/XO_Classes.h</text>
</a>
</g>
</g>
<!-- Node1&#45;&gt;Node29 -->
<g id="edge40_Node000001_Node000029" class="edge">
<title>Node1&#45;&gt;Node29</title>
<g id="a_edge40_Node000001_Node000029"><a xlink:title=" ">
<path fill="none" stroke="#63b8ff" d="M1068.44,-151.25C1080.37,-138.76 1095.86,-122.53 1105.49,-112.44"/>
<polygon fill="#63b8ff" stroke="#63b8ff" points="1065.94,-148.8 1061.57,-158.45 1071.01,-153.63 1065.94,-148.8"/>
</a>
</g>
</g>
<!-- Node3 -->
<g id="Node000003" class="node">
<title>Node3</title>
<g id="a_Node000003"><a xlink:href="4by4___x_o_8cpp.html" target="_top" xlink:title=" ">
<polygon fill="white" stroke="#666666" points="127,-38 0,-38 0,-6 127,-6 127,-38"/>
<text xml:space="preserve" text-anchor="start" x="8" y="-24.5" font-family="Helvetica,sans-Serif" font-size="10.00">Games/4x4_Tic_Tac_Toe</text>
<text xml:space="preserve" text-anchor="middle" x="63.5" y="-12.5" font-family="Helvetica,sans-Serif" font-size="10.00">/4by4_XO.cpp</text>
</a>
</g>
</g>
<!-- Node2&#45;&gt;Node3 -->
<g id="edge2_Node000002_Node000003" class="edge">
<title>Node2&#45;&gt;Node3</title>
<g id="a_edge2_Node000002_Node000003"><a xlink:title=" ">
<path fill="none" stroke="#63b8ff" d="M78.76,-74.74C75.19,-62.65 71.09,-48.73 68.03,-38.38"/>
<polygon fill="#63b8ff" stroke="#63b8ff" points="75.34,-75.54 81.53,-84.14 82.06,-73.56 75.34,-75.54"/>
</a>
</g>
</g>
<!-- Node4 -->
<g id="Node000004" class="node">
<title>Node4</title>
<g id="a_Node000004"><a xlink:href="_the_game_8cpp.html" target="_top" xlink:title=" ">
<polygon fill="white" stroke="#666666" points="1154.25,-32 1076.75,-32 1076.75,-12 1154.25,-12 1154.25,-32"/>
<text xml:space="preserve" text-anchor="middle" x="1115.5" y="-18.5" font-family="Helvetica,sans-Serif" font-size="10.00">TheGame.cpp</text>
</a>
</g>
</g>
<!-- Node2&#45;&gt;Node4 -->
<g id="edge3_Node000002_Node000004" class="edge">
<title>Node2&#45;&gt;Node4</title>
<g id="a_edge3_Node000002_Node000004"><a xlink:title=" ">
<path fill="none" stroke="#63b8ff" d="M145.19,-82.8C150,-81.71 154.81,-80.76 159.5,-80 558.22,-15.71 673.9,-134.51 1067.5,-44 1078.14,-41.55 1089.35,-36.79 1098.26,-32.41"/>
<polygon fill="#63b8ff" stroke="#63b8ff" points="144.38,-79.4 135.5,-85.19 146.05,-86.2 144.38,-79.4"/>
</a>
</g>
</g>
<!-- Node5&#45;&gt;Node4 -->
<g id="edge6_Node000005_Node000004" class="edge">
<title>Node5&#45;&gt;Node4</title>
<g id="a_edge6_Node000005_Node000004"><a xlink:title=" ">
<path fill="none" stroke="#63b8ff" d="M280.06,-82.64C284.24,-81.62 288.42,-80.72 292.5,-80 632.04,-19.94 731.72,-122.41 1067.5,-44 1078.13,-41.52 1089.34,-36.75 1098.25,-32.38"/>
<polygon fill="#63b8ff" stroke="#63b8ff" points="279.29,-79.22 270.53,-85.18 281.09,-85.99 279.29,-79.22"/>
</a>
</g>
</g>
<!-- Node6 -->
<g id="Node000006" class="node">
<title>Node6</title>
<g id="a_Node000006"><a xlink:href="four_8cpp.html" target="_top" xlink:title=" ">
<polygon fill="white" stroke="#666666" points="259.62,-38 145.38,-38 145.38,-6 259.62,-6 259.62,-38"/>
<text xml:space="preserve" text-anchor="start" x="153.38" y="-24.5" font-family="Helvetica,sans-Serif" font-size="10.00">Games/Four_in_a_row</text>
<text xml:space="preserve" text-anchor="middle" x="202.5" y="-12.5" font-family="Helvetica,sans-Serif" font-size="10.00">/four.cpp</text>
</a>
</g>
</g>
<!-- Node5&#45;&gt;Node6 -->
<g id="edge5_Node000005_Node000006" class="edge">
<title>Node5&#45;&gt;Node6</title>
<g id="a_edge5_Node000005_Node000006"><a xlink:title=" ">
<path fill="none" stroke="#63b8ff" d="M217.76,-74.74C214.19,-62.65 210.09,-48.73 207.03,-38.38"/>
<polygon fill="#63b8ff" stroke="#63b8ff" points="214.34,-75.54 220.53,-84.14 221.06,-73.56 214.34,-75.54"/>
</a>
</g>
</g>
<!-- Node7&#45;&gt;Node4 -->
<g id="edge9_Node000007_Node000004" class="edge">
<title>Node7&#45;&gt;Node4</title>
<g id="a_edge9_Node000007_Node000004"><a xlink:title=" ">
<path fill="none" stroke="#63b8ff" d="M428.47,-82.95C433.52,-81.82 438.58,-80.81 443.5,-80 717.58,-34.75 797.34,-108.69 1067.5,-44 1078.12,-41.46 1089.33,-36.69 1098.24,-32.33"/>
<polygon fill="#63b8ff" stroke="#63b8ff" points="427.83,-79.5 418.92,-85.23 429.46,-86.31 427.83,-79.5"/>
</a>
</g>
</g>
<!-- Node8 -->
<g id="Node000008" class="node">
<title>Node8</title>
<g id="a_Node000008"><a xlink:href="_large___tic___tac___toe_8cpp.html" target="_top" xlink:title=" ">
<polygon fill="white" stroke="#666666" points="421.25,-38 277.75,-38 277.75,-6 421.25,-6 421.25,-38"/>
<text xml:space="preserve" text-anchor="start" x="285.75" y="-24.5" font-family="Helvetica,sans-Serif" font-size="10.00">Games/Large_Tic_Tac</text>
<text xml:space="preserve" text-anchor="middle" x="349.5" y="-12.5" font-family="Helvetica,sans-Serif" font-size="10.00">_Toe/Large_Tic_Tac_Toe.cpp</text>
</a>
</g>
</g>
<!-- Node7&#45;&gt;Node8 -->
<g id="edge8_Node000007_Node000008" class="edge">
<title>Node7&#45;&gt;Node8</title>
<g id="a_edge8_Node000007_Node000008"><a xlink:title=" ">
<path fill="none" stroke="#63b8ff" d="M361.44,-74.74C358.65,-62.65 355.44,-48.73 353.05,-38.38"/>
<polygon fill="#63b8ff" stroke="#63b8ff" points="357.94,-75.16 363.6,-84.11 364.77,-73.58 357.94,-75.16"/>
</a>
</g>
</g>
<!-- Node9&#45;&gt;Node4 -->
<g id="edge12_Node000009_Node000004" class="edge">
<title>Node9&#45;&gt;Node4</title>
<g id="a_edge12_Node000009_Node000004"><a xlink:title=" ">
<path fill="none" stroke="#63b8ff" d="M589.62,-83.06C594.97,-81.91 600.31,-80.87 605.5,-80 808.63,-46.03 867.7,-93.97 1067.5,-44 1077.91,-41.4 1088.92,-36.73 1097.77,-32.46"/>
<polygon fill="#63b8ff" stroke="#63b8ff" points="589.13,-79.58 580.16,-85.22 590.68,-86.41 589.13,-79.58"/>
</a>
</g>
</g>
<!-- Node10 -->
<g id="Node000010" class="node">
<title>Node10</title>
<g id="a_Node000010"><a xlink:href="_memory___tic___tac___toe_8cpp.html" target="_top" xlink:title=" ">
<polygon fill="white" stroke="#666666" points="593.88,-38 439.12,-38 439.12,-6 593.88,-6 593.88,-38"/>
<text xml:space="preserve" text-anchor="start" x="447.12" y="-24.5" font-family="Helvetica,sans-Serif" font-size="10.00">Games/Memory_Tic_Tac</text>
<text xml:space="preserve" text-anchor="middle" x="516.5" y="-12.5" font-family="Helvetica,sans-Serif" font-size="10.00">_Toe/Memory_Tic_Tac_Toe.cpp</text>
</a>
</g>
</g>
<!-- Node9&#45;&gt;Node10 -->
<g id="edge11_Node000009_Node000010" class="edge">
<title>Node9&#45;&gt;Node10</title>
<g id="a_edge11_Node000009_Node000010"><a xlink:title=" ">
<path fill="none" stroke="#63b8ff" d="M521.77,-74.37C520.54,-62.37 519.13,-48.63 518.08,-38.38"/>
<polygon fill="#63b8ff" stroke="#63b8ff" points="518.26,-74.49 522.77,-84.08 525.23,-73.78 518.26,-74.49"/>
</a>
</g>
</g>
<!-- Node11&#45;&gt;Node4 -->
<g id="edge15_Node000011_Node000004" class="edge">
<title>Node11&#45;&gt;Node4</title>
<g id="a_edge15_Node000011_Node000004"><a xlink:title=" ">
<path fill="none" stroke="#63b8ff" d="M749.83,-79.74C889.94,-53.05 932.78,-80.16 1067.5,-44 1077.87,-41.22 1088.87,-36.54 1097.73,-32.3"/>
<polygon fill="#63b8ff" stroke="#63b8ff" points="749.3,-76.28 740.17,-81.64 750.66,-83.14 749.3,-76.28"/>
</a>
</g>
</g>
<!-- Node12 -->
<g id="Node000012" class="node">
<title>Node12</title>
<g id="a_Node000012"><a xlink:href="_obstacles___tic___tac___toe_8cpp.html" target="_top" xlink:title=" ">
<polygon fill="white" stroke="#666666" points="735.5,-44 611.5,-44 611.5,0 735.5,0 735.5,-44"/>
<text xml:space="preserve" text-anchor="start" x="619.5" y="-30.5" font-family="Helvetica,sans-Serif" font-size="10.00">Games/Obstacles_Tic</text>
<text xml:space="preserve" text-anchor="start" x="619.5" y="-18.5" font-family="Helvetica,sans-Serif" font-size="10.00">_Tac_Toe/Obstacles_Tic</text>
<text xml:space="preserve" text-anchor="middle" x="673.5" y="-6.5" font-family="Helvetica,sans-Serif" font-size="10.00">_Tac_Toe.cpp</text>
</a>
</g>
</g>
<!-- Node11&#45;&gt;Node12 -->
<g id="edge14_Node000011_Node000012" class="edge">
<title>Node11&#45;&gt;Node12</title>
<g id="a_edge14_Node000011_Node000012"><a xlink:title=" ">
<path fill="none" stroke="#63b8ff" d="M675.24,-68.25C674.93,-60.15 674.6,-51.68 674.32,-44.29"/>
<polygon fill="#63b8ff" stroke="#63b8ff" points="671.74,-68.32 675.62,-78.17 678.74,-68.05 671.74,-68.32"/>
</a>
</g>
</g>
<!-- Node13&#45;&gt;Node4 -->
<g id="edge18_Node000013_Node000004" class="edge">
<title>Node13&#45;&gt;Node4</title>
<g id="a_edge18_Node000013_Node000004"><a xlink:title=" ">
<path fill="none" stroke="#63b8ff" d="M887.91,-88.99C950.33,-74.04 1050.55,-49.76 1067.5,-44 1077.15,-40.72 1087.54,-36.29 1096.18,-32.35"/>
<polygon fill="#63b8ff" stroke="#63b8ff" points="887.48,-85.49 878.57,-91.22 889.11,-92.3 887.48,-85.49"/>
</a>
</g>
</g>
<!-- Node14 -->
<g id="Node000014" class="node">
<title>Node14</title>
<g id="a_Node000014"><a xlink:href="_pyramid_x_o_8cpp.html" target="_top" xlink:title=" ">
<polygon fill="white" stroke="#666666" points="925.88,-32 753.12,-32 753.12,-12 925.88,-12 925.88,-32"/>
<text xml:space="preserve" text-anchor="middle" x="839.5" y="-18.5" font-family="Helvetica,sans-Serif" font-size="10.00">Games/PyramidXO/PyramidXO.cpp</text>
</a>
</g>
</g>
<!-- Node13&#45;&gt;Node14 -->
<g id="edge17_Node000013_Node000014" class="edge">
<title>Node13&#45;&gt;Node14</title>
<g id="a_edge17_Node000013_Node000014"><a xlink:title=" ">
<path fill="none" stroke="#63b8ff" d="M838.02,-80.59C838.42,-64.94 838.96,-44.08 839.26,-32.24"/>
<polygon fill="#63b8ff" stroke="#63b8ff" points="834.53,-80.15 837.78,-90.23 841.53,-80.33 834.53,-80.15"/>
</a>
</g>
</g>
<!-- Node15&#45;&gt;Node4 -->
<g id="edge21_Node000015_Node000004" class="edge">
<title>Node15&#45;&gt;Node4</title>
<g id="a_edge21_Node000015_Node000004"><a xlink:title=" ">
<path fill="none" stroke="#63b8ff" d="M1013.34,-85.74C1039.07,-69.94 1078.48,-45.74 1100.06,-32.49"/>
<polygon fill="#63b8ff" stroke="#63b8ff" points="1011.55,-82.74 1004.86,-90.95 1015.21,-88.7 1011.55,-82.74"/>
</a>
</g>
</g>
<!-- Node16 -->
<g id="Node000016" class="node">
<title>Node16</title>
<g id="a_Node000016"><a xlink:href="_s_u_s_8cpp.html" target="_top" xlink:title=" ">
<polygon fill="white" stroke="#666666" points="1058.62,-32 944.38,-32 944.38,-12 1058.62,-12 1058.62,-32"/>
<text xml:space="preserve" text-anchor="middle" x="1001.5" y="-18.5" font-family="Helvetica,sans-Serif" font-size="10.00">Games/SUS/SUS.cpp</text>
</a>
</g>
</g>
<!-- Node15&#45;&gt;Node16 -->
<g id="edge20_Node000015_Node000016" class="edge">
<title>Node15&#45;&gt;Node16</title>
<g id="a_edge20_Node000015_Node000016"><a xlink:title=" ">
<path fill="none" stroke="#63b8ff" d="M991.9,-80.59C994.51,-64.94 997.99,-44.08 999.96,-32.24"/>
<polygon fill="#63b8ff" stroke="#63b8ff" points="988.48,-79.81 990.29,-90.25 995.39,-80.96 988.48,-79.81"/>
</a>
</g>
</g>
<!-- Node17&#45;&gt;Node4 -->
<g id="edge24_Node000017_Node000004" class="edge">
<title>Node17&#45;&gt;Node4</title>
<g id="a_edge24_Node000017_Node000004"><a xlink:title=" ">
<path fill="none" stroke="#63b8ff" d="M1207.13,-79.72C1182.2,-64.29 1149.67,-44.15 1130.83,-32.49"/>
<polygon fill="#63b8ff" stroke="#63b8ff" points="1204.97,-82.51 1215.32,-84.79 1208.66,-76.55 1204.97,-82.51"/>
</a>
</g>
</g>
<!-- Node18 -->
<g id="Node000018" class="node">
<title>Node18</title>
<g id="a_Node000018"><a xlink:href="_ultimate_8cpp.html" target="_top" xlink:title=" ">
<polygon fill="white" stroke="#666666" points="1288.75,-38 1172.25,-38 1172.25,-6 1288.75,-6 1288.75,-38"/>
<text xml:space="preserve" text-anchor="start" x="1180.25" y="-24.5" font-family="Helvetica,sans-Serif" font-size="10.00">Games/Ultimate_Tic</text>
<text xml:space="preserve" text-anchor="middle" x="1230.5" y="-12.5" font-family="Helvetica,sans-Serif" font-size="10.00">_Tac_Toe/Ultimate.cpp</text>
</a>
</g>
</g>
<!-- Node17&#45;&gt;Node18 -->
<g id="edge23_Node000017_Node000018" class="edge">
<title>Node17&#45;&gt;Node18</title>
<g id="a_edge23_Node000017_Node000018"><a xlink:title=" ">
<path fill="none" stroke="#63b8ff" d="M1237.74,-74.37C1236.05,-62.37 1234.11,-48.63 1232.67,-38.38"/>
<polygon fill="#63b8ff" stroke="#63b8ff" points="1234.25,-74.68 1239.12,-84.09 1241.18,-73.7 1234.25,-74.68"/>
</a>
</g>
</g>
<!-- Node19&#45;&gt;Node4 -->
<g id="edge27_Node000019_Node000004" class="edge">
<title>Node19&#45;&gt;Node4</title>
<g id="a_edge27_Node000019_Node000004"><a xlink:title=" ">
<path fill="none" stroke="#63b8ff" d="M1313.04,-82.58C1309.81,-81.7 1306.62,-80.84 1303.5,-80 1241.45,-63.34 1224.24,-64.94 1163.5,-44 1153.87,-40.68 1143.48,-36.24 1134.83,-32.31"/>
<polygon fill="#63b8ff" stroke="#63b8ff" points="1312.03,-85.93 1322.6,-85.21 1313.88,-79.18 1312.03,-85.93"/>
</a>
</g>
</g>
<!-- Node20 -->
<g id="Node000020" class="node">
<title>Node20</title>
<g id="a_Node000020"><a xlink:href="_word___tic___tac___toe_8cpp.html" target="_top" xlink:title=" ">
<polygon fill="white" stroke="#666666" points="1448.5,-38 1306.5,-38 1306.5,-6 1448.5,-6 1448.5,-38"/>
<text xml:space="preserve" text-anchor="start" x="1314.5" y="-24.5" font-family="Helvetica,sans-Serif" font-size="10.00">Games/Word_Tic_Tac</text>
<text xml:space="preserve" text-anchor="middle" x="1377.5" y="-12.5" font-family="Helvetica,sans-Serif" font-size="10.00">_Toe/Word_Tic_Tac_Toe.cpp</text>
</a>
</g>
</g>
<!-- Node19&#45;&gt;Node20 -->
<g id="edge26_Node000019_Node000020" class="edge">
<title>Node19&#45;&gt;Node20</title>
<g id="a_edge26_Node000019_Node000020"><a xlink:title=" ">
<path fill="none" stroke="#63b8ff" d="M1378.16,-74.37C1378,-62.37 1377.83,-48.63 1377.7,-38.38"/>
<polygon fill="#63b8ff" stroke="#63b8ff" points="1374.66,-74.12 1378.28,-84.08 1381.65,-74.03 1374.66,-74.12"/>
</a>
</g>
</g>
<!-- Node21&#45;&gt;Node4 -->
<g id="edge30_Node000021_Node000004" class="edge">
<title>Node21&#45;&gt;Node4</title>
<g id="a_edge30_Node000021_Node000004"><a xlink:title=" ">
<path fill="none" stroke="#63b8ff" d="M1484.86,-88.14C1474.74,-85.13 1463.78,-82.16 1453.5,-80 1326.41,-53.25 1288.74,-78.39 1163.5,-44 1153.33,-41.21 1142.52,-36.63 1133.74,-32.47"/>
<polygon fill="#63b8ff" stroke="#63b8ff" points="1483.81,-91.48 1494.4,-91.09 1485.88,-84.8 1483.81,-91.48"/>
</a>
</g>
</g>
<!-- Node22 -->
<g id="Node000022" class="node">
<title>Node22</title>
<g id="a_Node000022"><a xlink:href="_x_o__inf_8cpp.html" target="_top" xlink:title=" ">
<polygon fill="white" stroke="#666666" points="1598.62,-32 1466.38,-32 1466.38,-12 1598.62,-12 1598.62,-32"/>
<text xml:space="preserve" text-anchor="middle" x="1532.5" y="-18.5" font-family="Helvetica,sans-Serif" font-size="10.00">Games/XO_inf/XO_inf.cpp</text>
</a>
</g>
</g>
<!-- Node21&#45;&gt;Node22 -->
<g id="edge29_Node000021_Node000022" class="edge">
<title>Node21&#45;&gt;Node22</title>
<g id="a_edge29_Node000021_Node000022"><a xlink:title=" ">
<path fill="none" stroke="#63b8ff" d="M1525.86,-80.59C1527.66,-64.94 1530.07,-44.08 1531.43,-32.24"/>
<polygon fill="#63b8ff" stroke="#63b8ff" points="1522.41,-79.91 1524.74,-90.24 1529.36,-80.71 1522.41,-79.91"/>
</a>
</g>
</g>
<!-- Node23&#45;&gt;Node4 -->
<g id="edge33_Node000023_Node000004" class="edge">
<title>Node23&#45;&gt;Node4</title>
<g id="a_edge33_Node000023_Node000004"><a xlink:title=" ">
<path fill="none" stroke="#63b8ff" d="M1629.2,-88.36C1617.76,-85.19 1605.22,-82.09 1593.5,-80 1404.7,-46.32 1349.41,-91.07 1163.5,-44 1153.1,-41.37 1142.08,-36.7 1133.24,-32.43"/>
<polygon fill="#63b8ff" stroke="#63b8ff" points="1628.16,-91.71 1638.74,-91.11 1630.1,-84.98 1628.16,-91.71"/>
</a>
</g>
</g>
<!-- Node24 -->
<g id="Node000024" class="node">
<title>Node24</title>
<g id="a_Node000024"><a xlink:href="xo__num_8cpp.html" target="_top" xlink:title=" ">
<polygon fill="white" stroke="#666666" points="1762,-32 1617,-32 1617,-12 1762,-12 1762,-32"/>
<text xml:space="preserve" text-anchor="middle" x="1689.5" y="-18.5" font-family="Helvetica,sans-Serif" font-size="10.00">Games/XO_num/xo_num.cpp</text>
</a>
</g>
</g>
<!-- Node23&#45;&gt;Node24 -->
<g id="edge32_Node000023_Node000024" class="edge">
<title>Node23&#45;&gt;Node24</title>
<g id="a_edge32_Node000023_Node000024"><a xlink:title=" ">
<path fill="none" stroke="#63b8ff" d="M1674.62,-81.05C1678.64,-65.35 1684.06,-44.2 1687.13,-32.24"/>
<polygon fill="#63b8ff" stroke="#63b8ff" points="1671.34,-79.72 1672.25,-90.28 1678.12,-81.46 1671.34,-79.72"/>
</a>
</g>
</g>
<!-- Node25&#45;&gt;Node4 -->
<g id="edge36_Node000025_Node000004" class="edge">
<title>Node25&#45;&gt;Node4</title>
<g id="a_edge36_Node000025_Node000004"><a xlink:title=" ">
<path fill="none" stroke="#63b8ff" d="M1782.18,-88.46C1770.49,-85.19 1757.57,-82.02 1745.5,-80 1489.89,-37.26 1415.41,-104.87 1163.5,-44 1152.89,-41.44 1141.68,-36.66 1132.76,-32.31"/>
<polygon fill="#63b8ff" stroke="#63b8ff" points="1780.91,-91.74 1791.49,-91.17 1782.87,-85.02 1780.91,-91.74"/>
</a>
</g>
</g>
<!-- Node26 -->
<g id="Node000026" class="node">
<title>Node26</title>
<g id="a_Node000026"><a xlink:href="_anti___x_o_8cpp.html" target="_top" xlink:title=" ">
<polygon fill="white" stroke="#666666" points="1886.5,-38 1780.5,-38 1780.5,-6 1886.5,-6 1886.5,-38"/>
<text xml:space="preserve" text-anchor="start" x="1788.5" y="-24.5" font-family="Helvetica,sans-Serif" font-size="10.00">Games/anti_XO/Anti</text>
<text xml:space="preserve" text-anchor="middle" x="1833.5" y="-12.5" font-family="Helvetica,sans-Serif" font-size="10.00">_XO.cpp</text>
</a>
</g>
</g>
<!-- Node25&#45;&gt;Node26 -->
<g id="edge35_Node000025_Node000026" class="edge">
<title>Node25&#45;&gt;Node26</title>
<g id="a_edge35_Node000025_Node000026"><a xlink:title=" ">
<path fill="none" stroke="#63b8ff" d="M1824.65,-80.51C1826.68,-67.32 1829.27,-50.47 1831.13,-38.42"/>
<polygon fill="#63b8ff" stroke="#63b8ff" points="1821.22,-79.83 1823.15,-90.25 1828.13,-80.9 1821.22,-79.83"/>
</a>
</g>
</g>
<!-- Node27&#45;&gt;Node4 -->
<g id="edge39_Node000027_Node000004" class="edge">
<title>Node27&#45;&gt;Node4</title>
<g id="a_edge39_Node000027_Node000004"><a xlink:title=" ">
<path fill="none" stroke="#63b8ff" d="M1938.78,-88.6C1925.64,-85.26 1911.07,-82.01 1897.5,-80 1574.41,-32.16 1481.46,-118.69 1163.5,-44 1152.87,-41.5 1141.66,-36.73 1132.75,-32.37"/>
<polygon fill="#63b8ff" stroke="#63b8ff" points="1937.86,-91.98 1948.42,-91.15 1939.65,-85.21 1937.86,-91.98"/>
</a>
</g>
</g>
<!-- Node28 -->
<g id="Node000028" class="node">
<title>Node28</title>
<g id="a_Node000028"><a xlink:href="dia___x_o_8cpp.html" target="_top" xlink:title=" ">
<polygon fill="white" stroke="#666666" points="2042.75,-38 1920.25,-38 1920.25,-6 2042.75,-6 2042.75,-38"/>
<text xml:space="preserve" text-anchor="start" x="1928.25" y="-24.5" font-family="Helvetica,sans-Serif" font-size="10.00">Games/diamond_XO/dia</text>
<text xml:space="preserve" text-anchor="middle" x="1981.5" y="-12.5" font-family="Helvetica,sans-Serif" font-size="10.00">_XO.cpp</text>
</a>
</g>
</g>
<!-- Node27&#45;&gt;Node28 -->
<g id="edge38_Node000027_Node000028" class="edge">
<title>Node27&#45;&gt;Node28</title>
<g id="a_edge38_Node000027_Node000028"><a xlink:title=" ">
<path fill="none" stroke="#63b8ff" d="M1981.5,-80.51C1981.5,-67.32 1981.5,-50.47 1981.5,-38.42"/>
<polygon fill="#63b8ff" stroke="#63b8ff" points="1978,-80.23 1981.5,-90.23 1985,-80.23 1978,-80.23"/>
</a>
</g>
</g>
<!-- Node29&#45;&gt;Node4 -->
<g id="edge41_Node000029_Node000004" class="edge">
<title>Node29&#45;&gt;Node4</title>
<g id="a_edge41_Node000029_Node000004"><a xlink:title=" ">
<path fill="none" stroke="#63b8ff" d="M1114.76,-80.59C1114.96,-64.94 1115.23,-44.08 1115.38,-32.24"/>
<polygon fill="#63b8ff" stroke="#63b8ff" points="1111.27,-80.19 1114.64,-90.23 1118.27,-80.28 1111.27,-80.19"/>
</a>
</g>
</g>
</g>
</svg>
