<?xml version="1.0" encoding="UTF-8" standalone="no"?>
<!DOCTYPE svg PUBLIC "-//W3C//DTD SVG 1.1//EN"
 "http://www.w3.org/Graphics/SVG/1.1/DTD/svg11.dtd">
<!-- Generated by graphviz version 14.0.2 (20251019.1705)
 -->
<!-- Title: header/AI.h Pages: 1 -->
<svg width="249pt" height="140pt"
 viewBox="0.00 0.00 249.00 140.00" xmlns="http://www.w3.org/2000/svg" xmlns:xlink="http://www.w3.org/1999/xlink">
<g id="graph0" class="graph" transform="scale(1 1) rotate(0) translate(4 136)">
<title>header/AI.h</title>
<!-- Node1 -->
<g id="Node000001" class="node">
<title>Node1</title>
<g id="a_Node000001"><a xlink:title=" ">
<polygon fill="#999999" stroke="#666666" points="146.12,-132 79.88,-132 79.88,-112 146.12,-112 146.12,-132"/>
<text xml:space="preserve" text-anchor="middle" x="113" y="-118.5" font-family="Helvetica,sans-Serif" font-size="10.00">header/AI.h</text>
</a>
</g>
</g>
<!-- Node2 -->
<g id="Node000002" class="node">
<title>Node2</title>
<g id="a_Node000002"><a xlink:href="$_board_game___classes_8h.html" xlink:title=" ">
<polygon fill="white" stroke="#666666" points="171.62,-76 54.38,-76 54.38,-56 171.62,-56 171.62,-76"/>
<text xml:space="preserve" text-anchor="middle" x="113" y="-62.5" font-family="Helvetica,sans-Serif" font-size="10.00">BoardGame_Classes.h</text>
</a>
</g>
</g>
<!-- Node1&#45;&gt;Node2 -->
<g id="edge1_Node000001_Node000002" class="edge">
<title>Node1&#45;&gt;Node2</title>
<g id="a_edge1_Node000001_Node000002"><a xlink:title=" ">
<path fill="none" stroke="#63b8ff" d="M113,-111.59C113,-105.01 113,-95.96 113,-87.73"/>
<polygon fill="#63b8ff" stroke="#63b8ff" points="116.5,-87.81 113,-77.81 109.5,-87.81 116.5,-87.81"/>
</a>
</g>
</g>
<!-- Node3 -->
<g id="Node000003" class="node">
<title>Node3</title>
<g id="a_Node000003"><a xlink:title=" ">
<polygon fill="#e0e0e0" stroke="#999999" points="40,-20 0,-20 0,0 40,0 40,-20"/>
<text xml:space="preserve" text-anchor="middle" x="20" y="-6.5" font-family="Helvetica,sans-Serif" font-size="10.00">string</text>
</a>
</g>
</g>
<!-- Node2&#45;&gt;Node3 -->
<g id="edge2_Node000002_Node000003" class="edge">
<title>Node2&#45;&gt;Node3</title>
<g id="a_edge2_Node000002_Node000003"><a xlink:title=" ">
<path fill="none" stroke="#63b8ff" d="M96.8,-55.59C82.75,-47.44 62.17,-35.48 45.84,-26"/>
<polygon fill="#63b8ff" stroke="#63b8ff" points="48.04,-23.23 37.63,-21.24 44.53,-29.29 48.04,-23.23"/>
</a>
</g>
</g>
<!-- Node4 -->
<g id="Node000004" class="node">
<title>Node4</title>
<g id="a_Node000004"><a xlink:title=" ">
<polygon fill="#e0e0e0" stroke="#999999" points="101.5,-20 58.5,-20 58.5,0 101.5,0 101.5,-20"/>
<text xml:space="preserve" text-anchor="middle" x="80" y="-6.5" font-family="Helvetica,sans-Serif" font-size="10.00">vector</text>
</a>
</g>
</g>
<!-- Node2&#45;&gt;Node4 -->
<g id="edge3_Node000002_Node000004" class="edge">
<title>Node2&#45;&gt;Node4</title>
<g id="a_edge3_Node000002_Node000004"><a xlink:title=" ">
<path fill="none" stroke="#63b8ff" d="M107.25,-55.59C102.95,-48.55 96.91,-38.67 91.61,-30"/>
<polygon fill="#63b8ff" stroke="#63b8ff" points="94.67,-28.3 86.47,-21.59 88.7,-31.95 94.67,-28.3"/>
</a>
</g>
</g>
<!-- Node5 -->
<g id="Node000005" class="node">
<title>Node5</title>
<g id="a_Node000005"><a xlink:title=" ">
<polygon fill="#e0e0e0" stroke="#999999" points="172.75,-20 119.25,-20 119.25,0 172.75,0 172.75,-20"/>
<text xml:space="preserve" text-anchor="middle" x="146" y="-6.5" font-family="Helvetica,sans-Serif" font-size="10.00">iostream</text>
</a>
</g>
</g>
<!-- Node2&#45;&gt;Node5 -->
<g id="edge4_Node000002_Node000005" class="edge">
<title>Node2&#45;&gt;Node5</title>
<g id="a_edge4_Node000002_Node000005"><a xlink:title=" ">
<path fill="none" stroke="#63b8ff" d="M118.75,-55.59C123.05,-48.55 129.09,-38.67 134.39,-30"/>
<polygon fill="#63b8ff" stroke="#63b8ff" points="137.3,-31.95 139.53,-21.59 131.33,-28.3 137.3,-31.95"/>
</a>
</g>
</g>
<!-- Node6 -->
<g id="Node000006" class="node">
<title>Node6</title>
<g id="a_Node000006"><a xlink:title=" ">
<polygon fill="#e0e0e0" stroke="#999999" points="240.88,-20 191.12,-20 191.12,0 240.88,0 240.88,-20"/>
<text xml:space="preserve" text-anchor="middle" x="216" y="-6.5" font-family="Helvetica,sans-Serif" font-size="10.00">iomanip</text>
</a>
</g>
</g>
<!-- Node2&#45;&gt;Node6 -->
<g id="edge5_Node000002_Node000006" class="edge">
<title>Node2&#45;&gt;Node6</title>
<g id="a_edge5_Node000002_Node000006"><a xlink:title=" ">
<path fill="none" stroke="#63b8ff" d="M130.94,-55.59C146.65,-47.36 169.73,-35.26 187.89,-25.74"/>
<polygon fill="#63b8ff" stroke="#63b8ff" points="189.35,-28.93 196.58,-21.18 186.1,-22.73 189.35,-28.93"/>
</a>
</g>
</g>
</g>
</svg>
