<?xml version="1.0" encoding="UTF-8" standalone="no"?>
<!DOCTYPE svg PUBLIC "-//W3C//DTD SVG 1.1//EN"
 "http://www.w3.org/Graphics/SVG/1.1/DTD/svg11.dtd">
<!-- Generated by graphviz version 14.0.2 (20251019.1705)
 -->
<!-- Title: Games/anti_XO/Anti_XO.h Pages: 1 -->
<svg width="314pt" height="208pt"
 viewBox="0.00 0.00 314.00 208.00" xmlns="http://www.w3.org/2000/svg" xmlns:xlink="http://www.w3.org/1999/xlink">
<g id="graph0" class="graph" transform="scale(1 1) rotate(0) translate(4 204)">
<title>Games/anti_XO/Anti_XO.h</title>
<!-- Node1 -->
<g id="Node000001" class="node">
<title>Node1</title>
<g id="a_Node000001"><a xlink:title="Anti Tic&#45;Tac&#45;Toe variant where forming 3&#45;in&#45;a&#45;row causes a loss.">
<polygon fill="#999999" stroke="#666666" points="179,-200 45.25,-200 45.25,-180 179,-180 179,-200"/>
<text xml:space="preserve" text-anchor="middle" x="112.12" y="-186.5" font-family="Helvetica,sans-Serif" font-size="10.00">Games/anti_XO/Anti_XO.h</text>
</a>
</g>
</g>
<!-- Node2 -->
<g id="Node000002" class="node">
<title>Node2</title>
<g id="a_Node000002"><a xlink:href="_board_game___classes_8h.html" target="_top" xlink:title=" ">
<polygon fill="white" stroke="#666666" points="153.12,-88 35.12,-88 35.12,-56 153.12,-56 153.12,-88"/>
<text xml:space="preserve" text-anchor="start" x="43.12" y="-74.5" font-family="Helvetica,sans-Serif" font-size="10.00">../../header/BoardGame</text>
<text xml:space="preserve" text-anchor="middle" x="94.12" y="-62.5" font-family="Helvetica,sans-Serif" font-size="10.00">_Classes.h</text>
</a>
</g>
</g>
<!-- Node1&#45;&gt;Node2 -->
<g id="edge1_Node000001_Node000002" class="edge">
<title>Node1&#45;&gt;Node2</title>
<g id="a_edge1_Node000001_Node000002"><a xlink:title=" ">
<path fill="none" stroke="#63b8ff" d="M110.65,-179.51C107.97,-162.22 102.2,-125.05 98.24,-99.54"/>
<polygon fill="#63b8ff" stroke="#63b8ff" points="101.74,-99.25 96.75,-89.91 94.82,-100.33 101.74,-99.25"/>
</a>
</g>
</g>
<!-- Node7 -->
<g id="Node000007" class="node">
<title>Node7</title>
<g id="a_Node000007"><a xlink:href="_a_i_8h.html" target="_top" xlink:title=" ">
<polygon fill="white" stroke="#666666" points="84.25,-144 0,-144 0,-124 84.25,-124 84.25,-144"/>
<text xml:space="preserve" text-anchor="middle" x="42.12" y="-130.5" font-family="Helvetica,sans-Serif" font-size="10.00">../../header/AI.h</text>
</a>
</g>
</g>
<!-- Node1&#45;&gt;Node7 -->
<g id="edge6_Node000001_Node000007" class="edge">
<title>Node1&#45;&gt;Node7</title>
<g id="a_edge6_Node000001_Node000007"><a xlink:title=" ">
<path fill="none" stroke="#63b8ff" d="M99.93,-179.59C89.79,-171.77 75.13,-160.46 63.11,-151.19"/>
<polygon fill="#63b8ff" stroke="#63b8ff" points="65.43,-148.56 55.38,-145.22 61.16,-154.1 65.43,-148.56"/>
</a>
</g>
</g>
<!-- Node8 -->
<g id="Node000008" class="node">
<title>Node8</title>
<g id="a_Node000008"><a xlink:href="_custom___u_i_8h.html" target="_top" xlink:title="Defines a customizable user interface for board games.">
<polygon fill="white" stroke="#666666" points="264.5,-144 139.75,-144 139.75,-124 264.5,-124 264.5,-144"/>
<text xml:space="preserve" text-anchor="middle" x="202.12" y="-130.5" font-family="Helvetica,sans-Serif" font-size="10.00">../../header/Custom_UI.h</text>
</a>
</g>
</g>
<!-- Node1&#45;&gt;Node8 -->
<g id="edge8_Node000001_Node000008" class="edge">
<title>Node1&#45;&gt;Node8</title>
<g id="a_edge8_Node000001_Node000008"><a xlink:title=" ">
<path fill="none" stroke="#63b8ff" d="M127.8,-179.59C141.27,-171.51 160.94,-159.71 176.67,-150.27"/>
<polygon fill="#63b8ff" stroke="#63b8ff" points="178.25,-153.4 185.03,-145.26 174.65,-147.4 178.25,-153.4"/>
</a>
</g>
</g>
<!-- Node3 -->
<g id="Node000003" class="node">
<title>Node3</title>
<g id="a_Node000003"><a xlink:title=" ">
<polygon fill="#e0e0e0" stroke="#999999" points="49.12,-20 9.12,-20 9.12,0 49.12,0 49.12,-20"/>
<text xml:space="preserve" text-anchor="middle" x="29.12" y="-6.5" font-family="Helvetica,sans-Serif" font-size="10.00">string</text>
</a>
</g>
</g>
<!-- Node2&#45;&gt;Node3 -->
<g id="edge2_Node000002_Node000003" class="edge">
<title>Node2&#45;&gt;Node3</title>
<g id="a_edge2_Node000002_Node000003"><a xlink:title=" ">
<path fill="none" stroke="#63b8ff" d="M77.39,-55.55C68.26,-47.13 56.96,-36.69 47.58,-28.04"/>
<polygon fill="#63b8ff" stroke="#63b8ff" points="50.15,-25.65 40.43,-21.43 45.4,-30.79 50.15,-25.65"/>
</a>
</g>
</g>
<!-- Node4 -->
<g id="Node000004" class="node">
<title>Node4</title>
<g id="a_Node000004"><a xlink:title=" ">
<polygon fill="#e0e0e0" stroke="#999999" points="177.62,-20 134.62,-20 134.62,0 177.62,0 177.62,-20"/>
<text xml:space="preserve" text-anchor="middle" x="156.12" y="-6.5" font-family="Helvetica,sans-Serif" font-size="10.00">vector</text>
</a>
</g>
</g>
<!-- Node2&#45;&gt;Node4 -->
<g id="edge3_Node000002_Node000004" class="edge">
<title>Node2&#45;&gt;Node4</title>
<g id="a_edge3_Node000002_Node000004"><a xlink:title=" ">
<path fill="none" stroke="#63b8ff" d="M110.09,-55.55C118.7,-47.22 129.36,-36.91 138.24,-28.3"/>
<polygon fill="#63b8ff" stroke="#63b8ff" points="140.56,-30.93 145.32,-21.46 135.7,-25.9 140.56,-30.93"/>
</a>
</g>
</g>
<!-- Node5 -->
<g id="Node000005" class="node">
<title>Node5</title>
<g id="a_Node000005"><a xlink:title=" ">
<polygon fill="#e0e0e0" stroke="#999999" points="248.88,-20 195.38,-20 195.38,0 248.88,0 248.88,-20"/>
<text xml:space="preserve" text-anchor="middle" x="222.12" y="-6.5" font-family="Helvetica,sans-Serif" font-size="10.00">iostream</text>
</a>
</g>
</g>
<!-- Node2&#45;&gt;Node5 -->
<g id="edge4_Node000002_Node000005" class="edge">
<title>Node2&#45;&gt;Node5</title>
<g id="a_edge4_Node000002_Node000005"><a xlink:title=" ">
<path fill="none" stroke="#63b8ff" d="M127.09,-55.55C147,-46.22 172.19,-34.41 191.63,-25.29"/>
<polygon fill="#63b8ff" stroke="#63b8ff" points="193.12,-28.46 200.68,-21.05 190.14,-22.13 193.12,-28.46"/>
</a>
</g>
</g>
<!-- Node6 -->
<g id="Node000006" class="node">
<title>Node6</title>
<g id="a_Node000006"><a xlink:title=" ">
<polygon fill="#e0e0e0" stroke="#999999" points="117,-20 67.25,-20 67.25,0 117,0 117,-20"/>
<text xml:space="preserve" text-anchor="middle" x="92.12" y="-6.5" font-family="Helvetica,sans-Serif" font-size="10.00">iomanip</text>
</a>
</g>
</g>
<!-- Node2&#45;&gt;Node6 -->
<g id="edge5_Node000002_Node000006" class="edge">
<title>Node2&#45;&gt;Node6</title>
<g id="a_edge5_Node000002_Node000006"><a xlink:title=" ">
<path fill="none" stroke="#63b8ff" d="M93.61,-55.55C93.37,-48.34 93.08,-39.66 92.82,-31.88"/>
<polygon fill="#63b8ff" stroke="#63b8ff" points="96.32,-31.8 92.49,-21.92 89.32,-32.03 96.32,-31.8"/>
</a>
</g>
</g>
<!-- Node7&#45;&gt;Node2 -->
<g id="edge7_Node000007_Node000002" class="edge">
<title>Node7&#45;&gt;Node2</title>
<g id="a_edge7_Node000007_Node000002"><a xlink:title=" ">
<path fill="none" stroke="#63b8ff" d="M50.25,-123.62C56.48,-116.43 65.38,-106.17 73.53,-96.77"/>
<polygon fill="#63b8ff" stroke="#63b8ff" points="76.11,-99.13 80.01,-89.28 70.82,-94.55 76.11,-99.13"/>
</a>
</g>
</g>
<!-- Node8&#45;&gt;Node2 -->
<g id="edge9_Node000008_Node000002" class="edge">
<title>Node8&#45;&gt;Node2</title>
<g id="a_edge9_Node000008_Node000002"><a xlink:title=" ">
<path fill="none" stroke="#63b8ff" d="M185.25,-123.62C171,-115.71 150.07,-104.08 131.85,-93.96"/>
<polygon fill="#63b8ff" stroke="#63b8ff" points="133.56,-90.91 123.12,-89.11 130.16,-97.02 133.56,-90.91"/>
</a>
</g>
</g>
<!-- Node8&#45;&gt;Node4 -->
<g id="edge11_Node000008_Node000004" class="edge">
<title>Node8&#45;&gt;Node4</title>
<g id="a_edge11_Node000008_Node000004"><a xlink:title=" ">
<path fill="none" stroke="#63b8ff" d="M198.67,-123.83C191.27,-104.22 173.78,-57.83 163.68,-31.04"/>
<polygon fill="#63b8ff" stroke="#63b8ff" points="166.96,-29.81 160.16,-21.69 160.41,-32.28 166.96,-29.81"/>
</a>
</g>
</g>
<!-- Node8&#45;&gt;Node5 -->
<g id="edge10_Node000008_Node000005" class="edge">
<title>Node8&#45;&gt;Node5</title>
<g id="a_edge10_Node000008_Node000005"><a xlink:title=" ">
<path fill="none" stroke="#63b8ff" d="M203.63,-123.83C206.83,-104.31 214.38,-58.25 218.78,-31.4"/>
<polygon fill="#63b8ff" stroke="#63b8ff" points="222.2,-32.2 220.36,-21.77 215.29,-31.07 222.2,-32.2"/>
</a>
</g>
</g>
<!-- Node9 -->
<g id="Node000009" class="node">
<title>Node9</title>
<g id="a_Node000009"><a xlink:title=" ">
<polygon fill="#e0e0e0" stroke="#999999" points="305.5,-82 246.75,-82 246.75,-62 305.5,-62 305.5,-82"/>
<text xml:space="preserve" text-anchor="middle" x="276.12" y="-68.5" font-family="Helvetica,sans-Serif" font-size="10.00">stdexcept</text>
</a>
</g>
</g>
<!-- Node8&#45;&gt;Node9 -->
<g id="edge12_Node000008_Node000009" class="edge">
<title>Node8&#45;&gt;Node9</title>
<g id="a_edge12_Node000008_Node000009"><a xlink:title=" ">
<path fill="none" stroke="#63b8ff" d="M213.69,-123.62C225.05,-114.41 242.61,-100.17 256.22,-89.14"/>
<polygon fill="#63b8ff" stroke="#63b8ff" points="258.15,-92.08 263.71,-83.07 253.74,-86.65 258.15,-92.08"/>
</a>
</g>
</g>
</g>
</svg>
