<?xml version="1.0" encoding="UTF-8" standalone="no"?>
<!DOCTYPE svg PUBLIC "-//W3C//DTD SVG 1.1//EN"
 "http://www.w3.org/Graphics/SVG/1.1/DTD/svg11.dtd">
<!-- Generated by graphviz version 14.0.2 (20251019.1705)
 -->
<!-- Title: Games/anti_XO/Anti_XO.h Pages: 1 -->
<svg width="210pt" height="96pt"
 viewBox="0.00 0.00 210.00 96.00" xmlns="http://www.w3.org/2000/svg" xmlns:xlink="http://www.w3.org/1999/xlink">
<g id="graph0" class="graph" transform="scale(1 1) rotate(0) translate(4 92)">
<title>Games/anti_XO/Anti_XO.h</title>
<!-- Node1 -->
<g id="Node000001" class="node">
<title>Node1</title>
<g id="a_Node000001"><a xlink:title=" ">
<polygon fill="#999999" stroke="#666666" points="174.88,-88 41.12,-88 41.12,-68 174.88,-68 174.88,-88"/>
<text xml:space="preserve" text-anchor="middle" x="108" y="-74.5" font-family="Helvetica,sans-Serif" font-size="10.00">Games/anti_XO/Anti_XO.h</text>
</a>
</g>
</g>
<!-- Node2 -->
<g id="Node000002" class="node">
<title>Node2</title>
<g id="a_Node000002"><a xlink:href="_anti___x_o_8cpp.html" target="_top" xlink:title=" ">
<polygon fill="white" stroke="#666666" points="106,-32 0,-32 0,0 106,0 106,-32"/>
<text xml:space="preserve" text-anchor="start" x="8" y="-18.5" font-family="Helvetica,sans-Serif" font-size="10.00">Games/anti_XO/Anti</text>
<text xml:space="preserve" text-anchor="middle" x="53" y="-6.5" font-family="Helvetica,sans-Serif" font-size="10.00">_XO.cpp</text>
</a>
</g>
</g>
<!-- Node1&#45;&gt;Node2 -->
<g id="edge1_Node000001_Node000002" class="edge">
<title>Node1&#45;&gt;Node2</title>
<g id="a_edge1_Node000001_Node000002"><a xlink:title=" ">
<path fill="none" stroke="#63b8ff" d="M91.84,-59.37C83.92,-50.73 74.47,-40.42 66.88,-32.14"/>
<polygon fill="#63b8ff" stroke="#63b8ff" points="89.05,-61.5 98.38,-66.51 94.21,-56.77 89.05,-61.5"/>
</a>
</g>
</g>
<!-- Node3 -->
<g id="Node000003" class="node">
<title>Node3</title>
<g id="a_Node000003"><a xlink:href="_the_game_8cpp.html" target="_top" xlink:title=" ">
<polygon fill="white" stroke="#666666" points="201.75,-26 124.25,-26 124.25,-6 201.75,-6 201.75,-26"/>
<text xml:space="preserve" text-anchor="middle" x="163" y="-12.5" font-family="Helvetica,sans-Serif" font-size="10.00">TheGame.cpp</text>
</a>
</g>
</g>
<!-- Node1&#45;&gt;Node3 -->
<g id="edge2_Node000001_Node000003" class="edge">
<title>Node1&#45;&gt;Node3</title>
<g id="a_edge2_Node000001_Node000003"><a xlink:title=" ">
<path fill="none" stroke="#63b8ff" d="M124.27,-59.25C134.25,-48.36 146.61,-34.88 154.65,-26.11"/>
<polygon fill="#63b8ff" stroke="#63b8ff" points="121.79,-56.77 117.62,-66.51 126.95,-61.5 121.79,-56.77"/>
</a>
</g>
</g>
</g>
</svg>
