<?xml version="1.0" encoding="UTF-8" standalone="no"?>
<!DOCTYPE svg PUBLIC "-//W3C//DTD SVG 1.1//EN"
 "http://www.w3.org/Graphics/SVG/1.1/DTD/svg11.dtd">
<!-- Generated by graphviz version 14.0.2 (20251019.1705)
 -->
<!-- Title: Games/anti_XO/Anti_XO.cpp Pages: 1 -->
<svg width="552pt" height="276pt"
 viewBox="0.00 0.00 552.00 276.00" xmlns="http://www.w3.org/2000/svg" xmlns:xlink="http://www.w3.org/1999/xlink">
<g id="graph0" class="graph" transform="scale(1 1) rotate(0) translate(4 272)">
<title>Games/anti_XO/Anti_XO.cpp</title>
<!-- Node1 -->
<g id="Node000001" class="node">
<title>Node1</title>
<g id="a_Node000001"><a xlink:title=" ">
<polygon fill="#999999" stroke="#666666" points="413,-268 307,-268 307,-236 413,-236 413,-268"/>
<text xml:space="preserve" text-anchor="start" x="315" y="-254.5" font-family="Helvetica,sans-Serif" font-size="10.00">Games/anti_XO/Anti</text>
<text xml:space="preserve" text-anchor="middle" x="360" y="-242.5" font-family="Helvetica,sans-Serif" font-size="10.00">_XO.cpp</text>
</a>
</g>
</g>
<!-- Node2 -->
<g id="Node000002" class="node">
<title>Node2</title>
<g id="a_Node000002"><a xlink:href="$_anti___x_o_8h.html" xlink:title=" ">
<polygon fill="white" stroke="#666666" points="177.5,-200 116.5,-200 116.5,-180 177.5,-180 177.5,-200"/>
<text xml:space="preserve" text-anchor="middle" x="147" y="-186.5" font-family="Helvetica,sans-Serif" font-size="10.00">Anti_XO.h</text>
</a>
</g>
</g>
<!-- Node1&#45;&gt;Node2 -->
<g id="edge1_Node000001_Node000002" class="edge">
<title>Node1&#45;&gt;Node2</title>
<g id="a_edge1_Node000001_Node000002"><a xlink:title=" ">
<path fill="none" stroke="#63b8ff" d="M306.53,-235.94C269.99,-225.64 222.27,-212.2 188.58,-202.71"/>
<polygon fill="#63b8ff" stroke="#63b8ff" points="189.76,-199.41 179.18,-200.07 187.86,-206.15 189.76,-199.41"/>
</a>
</g>
</g>
<!-- Node5 -->
<g id="Node000005" class="node">
<title>Node5</title>
<g id="a_Node000005"><a xlink:title=" ">
<polygon fill="#e0e0e0" stroke="#999999" points="229.5,-20 186.5,-20 186.5,0 229.5,0 229.5,-20"/>
<text xml:space="preserve" text-anchor="middle" x="208" y="-6.5" font-family="Helvetica,sans-Serif" font-size="10.00">vector</text>
</a>
</g>
</g>
<!-- Node1&#45;&gt;Node5 -->
<g id="edge15_Node000001_Node000005" class="edge">
<title>Node1&#45;&gt;Node5</title>
<g id="a_edge15_Node000001_Node000005"><a xlink:title=" ">
<path fill="none" stroke="#63b8ff" d="M350.26,-235.62C323.57,-193.48 249.3,-76.21 220.06,-30.04"/>
<polygon fill="#63b8ff" stroke="#63b8ff" points="223.06,-28.23 214.75,-21.65 217.14,-31.98 223.06,-28.23"/>
</a>
</g>
</g>
<!-- Node6 -->
<g id="Node000006" class="node">
<title>Node6</title>
<g id="a_Node000006"><a xlink:title=" ">
<polygon fill="#e0e0e0" stroke="#999999" points="300.75,-20 247.25,-20 247.25,0 300.75,0 300.75,-20"/>
<text xml:space="preserve" text-anchor="middle" x="274" y="-6.5" font-family="Helvetica,sans-Serif" font-size="10.00">iostream</text>
</a>
</g>
</g>
<!-- Node1&#45;&gt;Node6 -->
<g id="edge16_Node000001_Node000006" class="edge">
<title>Node1&#45;&gt;Node6</title>
<g id="a_edge16_Node000001_Node000006"><a xlink:title=" ">
<path fill="none" stroke="#63b8ff" d="M358.63,-235.75C355.09,-201.78 343.58,-117.97 312,-56 306.93,-46.05 299.26,-36.39 292.14,-28.6"/>
<polygon fill="#63b8ff" stroke="#63b8ff" points="294.74,-26.24 285.28,-21.48 289.7,-31.1 294.74,-26.24"/>
</a>
</g>
</g>
<!-- Node11 -->
<g id="Node000011" class="node">
<title>Node11</title>
<g id="a_Node000011"><a xlink:title=" ">
<polygon fill="#e0e0e0" stroke="#999999" points="403.62,-200 364.38,-200 364.38,-180 403.62,-180 403.62,-200"/>
<text xml:space="preserve" text-anchor="middle" x="384" y="-186.5" font-family="Helvetica,sans-Serif" font-size="10.00">utility</text>
</a>
</g>
</g>
<!-- Node1&#45;&gt;Node11 -->
<g id="edge14_Node000001_Node000011" class="edge">
<title>Node1&#45;&gt;Node11</title>
<g id="a_edge14_Node000001_Node000011"><a xlink:title=" ">
<path fill="none" stroke="#63b8ff" d="M366.18,-235.55C369.17,-228.08 372.79,-219.03 375.98,-211.04"/>
<polygon fill="#63b8ff" stroke="#63b8ff" points="379.21,-212.4 379.67,-201.81 372.71,-209.8 379.21,-212.4"/>
</a>
</g>
</g>
<!-- Node12 -->
<g id="Node000012" class="node">
<title>Node12</title>
<g id="a_Node000012"><a xlink:title=" ">
<polygon fill="#e0e0e0" stroke="#999999" points="477.88,-200 422.12,-200 422.12,-180 477.88,-180 477.88,-200"/>
<text xml:space="preserve" text-anchor="middle" x="450" y="-186.5" font-family="Helvetica,sans-Serif" font-size="10.00">algorithm</text>
</a>
</g>
</g>
<!-- Node1&#45;&gt;Node12 -->
<g id="edge17_Node000001_Node000012" class="edge">
<title>Node1&#45;&gt;Node12</title>
<g id="a_edge17_Node000001_Node000012"><a xlink:title=" ">
<path fill="none" stroke="#63b8ff" d="M383.18,-235.55C396.46,-226.69 413.09,-215.61 426.43,-206.71"/>
<polygon fill="#63b8ff" stroke="#63b8ff" points="428.25,-209.71 434.63,-201.25 424.37,-203.88 428.25,-209.71"/>
</a>
</g>
</g>
<!-- Node13 -->
<g id="Node000013" class="node">
<title>Node13</title>
<g id="a_Node000013"><a xlink:title=" ">
<polygon fill="#e0e0e0" stroke="#999999" points="544.12,-200 495.88,-200 495.88,-180 544.12,-180 544.12,-200"/>
<text xml:space="preserve" text-anchor="middle" x="520" y="-186.5" font-family="Helvetica,sans-Serif" font-size="10.00">random</text>
</a>
</g>
</g>
<!-- Node1&#45;&gt;Node13 -->
<g id="edge18_Node000001_Node000013" class="edge">
<title>Node1&#45;&gt;Node13</title>
<g id="a_edge18_Node000001_Node000013"><a xlink:title=" ">
<path fill="none" stroke="#63b8ff" d="M401.2,-235.55C427.06,-225.85 460.05,-213.48 484.7,-204.24"/>
<polygon fill="#63b8ff" stroke="#63b8ff" points="485.83,-207.55 493.96,-200.76 483.37,-201 485.83,-207.55"/>
</a>
</g>
</g>
<!-- Node3 -->
<g id="Node000003" class="node">
<title>Node3</title>
<g id="a_Node000003"><a xlink:href="$_board_game___classes_8h.html" xlink:title=" ">
<polygon fill="white" stroke="#666666" points="118,-88 0,-88 0,-56 118,-56 118,-88"/>
<text xml:space="preserve" text-anchor="start" x="8" y="-74.5" font-family="Helvetica,sans-Serif" font-size="10.00">../../header/BoardGame</text>
<text xml:space="preserve" text-anchor="middle" x="59" y="-62.5" font-family="Helvetica,sans-Serif" font-size="10.00">_Classes.h</text>
</a>
</g>
</g>
<!-- Node2&#45;&gt;Node3 -->
<g id="edge2_Node000002_Node000003" class="edge">
<title>Node2&#45;&gt;Node3</title>
<g id="a_edge2_Node000002_Node000003"><a xlink:title=" ">
<path fill="none" stroke="#63b8ff" d="M116.17,-186.08C89.44,-181.73 52.25,-170.91 34,-144 24.52,-130.03 30.98,-112.08 39.7,-97.72"/>
<polygon fill="#63b8ff" stroke="#63b8ff" points="42.41,-99.96 45.09,-89.7 36.6,-96.05 42.41,-99.96"/>
</a>
</g>
</g>
<!-- Node8 -->
<g id="Node000008" class="node">
<title>Node8</title>
<g id="a_Node000008"><a xlink:href="$_a_i_8h.html" xlink:title=" ">
<polygon fill="white" stroke="#666666" points="127.12,-144 42.88,-144 42.88,-124 127.12,-124 127.12,-144"/>
<text xml:space="preserve" text-anchor="middle" x="85" y="-130.5" font-family="Helvetica,sans-Serif" font-size="10.00">../../header/AI.h</text>
</a>
</g>
</g>
<!-- Node2&#45;&gt;Node8 -->
<g id="edge7_Node000002_Node000008" class="edge">
<title>Node2&#45;&gt;Node8</title>
<g id="a_edge7_Node000002_Node000008"><a xlink:title=" ">
<path fill="none" stroke="#63b8ff" d="M136.2,-179.59C127.4,-171.93 114.75,-160.91 104.23,-151.75"/>
<polygon fill="#63b8ff" stroke="#63b8ff" points="106.66,-149.22 96.82,-145.29 102.06,-154.5 106.66,-149.22"/>
</a>
</g>
</g>
<!-- Node9 -->
<g id="Node000009" class="node">
<title>Node9</title>
<g id="a_Node000009"><a xlink:href="$_custom___u_i_8h.html" xlink:title="Defines a customizable user interface for board games.">
<polygon fill="white" stroke="#666666" points="270.38,-144 145.62,-144 145.62,-124 270.38,-124 270.38,-144"/>
<text xml:space="preserve" text-anchor="middle" x="208" y="-130.5" font-family="Helvetica,sans-Serif" font-size="10.00">../../header/Custom_UI.h</text>
</a>
</g>
</g>
<!-- Node2&#45;&gt;Node9 -->
<g id="edge9_Node000002_Node000009" class="edge">
<title>Node2&#45;&gt;Node9</title>
<g id="a_edge9_Node000002_Node000009"><a xlink:title=" ">
<path fill="none" stroke="#63b8ff" d="M157.63,-179.59C166.28,-171.93 178.73,-160.91 189.08,-151.75"/>
<polygon fill="#63b8ff" stroke="#63b8ff" points="191.2,-154.55 196.36,-145.3 186.56,-149.31 191.2,-154.55"/>
</a>
</g>
</g>
<!-- Node4 -->
<g id="Node000004" class="node">
<title>Node4</title>
<g id="a_Node000004"><a xlink:title=" ">
<polygon fill="#e0e0e0" stroke="#999999" points="48,-20 8,-20 8,0 48,0 48,-20"/>
<text xml:space="preserve" text-anchor="middle" x="28" y="-6.5" font-family="Helvetica,sans-Serif" font-size="10.00">string</text>
</a>
</g>
</g>
<!-- Node3&#45;&gt;Node4 -->
<g id="edge3_Node000003_Node000004" class="edge">
<title>Node3&#45;&gt;Node4</title>
<g id="a_edge3_Node000003_Node000004"><a xlink:title=" ">
<path fill="none" stroke="#63b8ff" d="M51.02,-55.55C47.07,-47.91 42.27,-38.61 38.07,-30.49"/>
<polygon fill="#63b8ff" stroke="#63b8ff" points="41.26,-29.03 33.56,-21.75 35.04,-32.24 41.26,-29.03"/>
</a>
</g>
</g>
<!-- Node3&#45;&gt;Node5 -->
<g id="edge4_Node000003_Node000005" class="edge">
<title>Node3&#45;&gt;Node5</title>
<g id="a_edge4_Node000003_Node000005"><a xlink:title=" ">
<path fill="none" stroke="#63b8ff" d="M97.37,-55.55C121.68,-45.76 152.75,-33.25 175.77,-23.98"/>
<polygon fill="#63b8ff" stroke="#63b8ff" points="176.99,-27.26 184.96,-20.28 174.38,-20.77 176.99,-27.26"/>
</a>
</g>
</g>
<!-- Node3&#45;&gt;Node6 -->
<g id="edge5_Node000003_Node000006" class="edge">
<title>Node3&#45;&gt;Node6</title>
<g id="a_edge5_Node000003_Node000006"><a xlink:title=" ">
<path fill="none" stroke="#63b8ff" d="M114.37,-55.55C152.6,-44.88 202.43,-30.97 236.18,-21.56"/>
<polygon fill="#63b8ff" stroke="#63b8ff" points="236.82,-25.01 245.51,-18.95 234.93,-18.27 236.82,-25.01"/>
</a>
</g>
</g>
<!-- Node7 -->
<g id="Node000007" class="node">
<title>Node7</title>
<g id="a_Node000007"><a xlink:title=" ">
<polygon fill="#e0e0e0" stroke="#999999" points="115.88,-20 66.12,-20 66.12,0 115.88,0 115.88,-20"/>
<text xml:space="preserve" text-anchor="middle" x="91" y="-6.5" font-family="Helvetica,sans-Serif" font-size="10.00">iomanip</text>
</a>
</g>
</g>
<!-- Node3&#45;&gt;Node7 -->
<g id="edge6_Node000003_Node000007" class="edge">
<title>Node3&#45;&gt;Node7</title>
<g id="a_edge6_Node000003_Node000007"><a xlink:title=" ">
<path fill="none" stroke="#63b8ff" d="M67.24,-55.55C71.31,-47.91 76.27,-38.61 80.61,-30.49"/>
<polygon fill="#63b8ff" stroke="#63b8ff" points="83.65,-32.21 85.27,-21.74 77.48,-28.92 83.65,-32.21"/>
</a>
</g>
</g>
<!-- Node8&#45;&gt;Node3 -->
<g id="edge8_Node000008_Node000003" class="edge">
<title>Node8&#45;&gt;Node3</title>
<g id="a_edge8_Node000008_Node000003"><a xlink:title=" ">
<path fill="none" stroke="#63b8ff" d="M80.94,-123.62C78.01,-116.88 73.92,-107.43 70.06,-98.52"/>
<polygon fill="#63b8ff" stroke="#63b8ff" points="73.35,-97.31 66.16,-89.53 66.93,-100.1 73.35,-97.31"/>
</a>
</g>
</g>
<!-- Node9&#45;&gt;Node3 -->
<g id="edge10_Node000009_Node000003" class="edge">
<title>Node9&#45;&gt;Node3</title>
<g id="a_edge10_Node000009_Node000003"><a xlink:title=" ">
<path fill="none" stroke="#63b8ff" d="M184.72,-123.62C164.22,-115.37 133.68,-103.07 107.84,-92.67"/>
<polygon fill="#63b8ff" stroke="#63b8ff" points="109.46,-89.54 98.87,-89.06 106.84,-96.04 109.46,-89.54"/>
</a>
</g>
</g>
<!-- Node9&#45;&gt;Node5 -->
<g id="edge12_Node000009_Node000005" class="edge">
<title>Node9&#45;&gt;Node5</title>
<g id="a_edge12_Node000009_Node000005"><a xlink:title=" ">
<path fill="none" stroke="#63b8ff" d="M208,-123.83C208,-104.4 208,-58.67 208,-31.77"/>
<polygon fill="#63b8ff" stroke="#63b8ff" points="211.5,-31.79 208,-21.79 204.5,-31.79 211.5,-31.79"/>
</a>
</g>
</g>
<!-- Node9&#45;&gt;Node6 -->
<g id="edge11_Node000009_Node000006" class="edge">
<title>Node9&#45;&gt;Node6</title>
<g id="a_edge11_Node000009_Node000006"><a xlink:title=" ">
<path fill="none" stroke="#63b8ff" d="M212.96,-123.83C223.66,-104.05 249.12,-57 263.55,-30.32"/>
<polygon fill="#63b8ff" stroke="#63b8ff" points="266.58,-32.07 268.26,-21.61 260.42,-28.74 266.58,-32.07"/>
</a>
</g>
</g>
<!-- Node10 -->
<g id="Node000010" class="node">
<title>Node10</title>
<g id="a_Node000010"><a xlink:title=" ">
<polygon fill="#e0e0e0" stroke="#999999" points="194.38,-82 135.62,-82 135.62,-62 194.38,-62 194.38,-82"/>
<text xml:space="preserve" text-anchor="middle" x="165" y="-68.5" font-family="Helvetica,sans-Serif" font-size="10.00">stdexcept</text>
</a>
</g>
</g>
<!-- Node9&#45;&gt;Node10 -->
<g id="edge13_Node000009_Node000010" class="edge">
<title>Node9&#45;&gt;Node10</title>
<g id="a_edge13_Node000009_Node000010"><a xlink:title=" ">
<path fill="none" stroke="#63b8ff" d="M201.28,-123.62C195.12,-115.03 185.83,-102.07 178.19,-91.41"/>
<polygon fill="#63b8ff" stroke="#63b8ff" points="181.08,-89.43 172.41,-83.34 175.39,-93.51 181.08,-89.43"/>
</a>
</g>
</g>
</g>
</svg>
