<?xml version="1.0" encoding="UTF-8" standalone="no"?>
<!DOCTYPE svg PUBLIC "-//W3C//DTD SVG 1.1//EN"
 "http://www.w3.org/Graphics/SVG/1.1/DTD/svg11.dtd">
<!-- Generated by graphviz version 14.0.2 (20251019.1705)
 -->
<!-- Title: header/BoardGame_Classes.h Pages: 1 -->
<svg width="2085pt" height="244pt"
 viewBox="0.00 0.00 2085.00 244.00" xmlns="http://www.w3.org/2000/svg" xmlns:xlink="http://www.w3.org/1999/xlink">
<g id="graph0" class="graph" transform="scale(1 1) rotate(0) translate(4 240)">
<title>header/BoardGame_Classes.h</title>
<!-- Node1 -->
<g id="Node000001" class="node">
<title>Node1</title>
<g id="a_Node000001"><a xlink:title=" ">
<polygon fill="#999999" stroke="#666666" points="1074.25,-236 924.75,-236 924.75,-216 1074.25,-216 1074.25,-236"/>
<text xml:space="preserve" text-anchor="middle" x="999.5" y="-222.5" font-family="Helvetica,sans-Serif" font-size="10.00">header/BoardGame_Classes.h</text>
</a>
</g>
</g>
<!-- Node2 -->
<g id="Node000002" class="node">
<title>Node2</title>
<g id="a_Node000002"><a xlink:href="4by4___x_o_8h.html" target="_top" xlink:title=" ">
<polygon fill="white" stroke="#666666" points="132,-118 5,-118 5,-86 132,-86 132,-118"/>
<text xml:space="preserve" text-anchor="start" x="13" y="-104.5" font-family="Helvetica,sans-Serif" font-size="10.00">Games/4x4_Tic_Tac_Toe</text>
<text xml:space="preserve" text-anchor="middle" x="68.5" y="-92.5" font-family="Helvetica,sans-Serif" font-size="10.00">/4by4_XO.h</text>
</a>
</g>
</g>
<!-- Node1&#45;&gt;Node2 -->
<g id="edge1_Node000001_Node000002" class="edge">
<title>Node1&#45;&gt;Node2</title>
<g id="a_edge1_Node000001_Node000002"><a xlink:title=" ">
<path fill="none" stroke="#63b8ff" d="M913.32,-221.34C800.9,-215.86 598.3,-203.54 426.5,-180 298.61,-162.47 266.98,-154.32 141.5,-124 134.58,-122.33 127.33,-120.43 120.2,-118.47"/>
<polygon fill="#63b8ff" stroke="#63b8ff" points="912.91,-224.83 923.06,-221.81 913.24,-217.83 912.91,-224.83"/>
</a>
</g>
</g>
<!-- Node4 -->
<g id="Node000004" class="node">
<title>Node4</title>
<g id="a_Node000004"><a xlink:href="_the_game_8cpp.html" target="_top" xlink:title=" ">
<polygon fill="white" stroke="#666666" points="1107.25,-32 1029.75,-32 1029.75,-12 1107.25,-12 1107.25,-32"/>
<text xml:space="preserve" text-anchor="middle" x="1068.5" y="-18.5" font-family="Helvetica,sans-Serif" font-size="10.00">TheGame.cpp</text>
</a>
</g>
</g>
<!-- Node1&#45;&gt;Node4 -->
<g id="edge40_Node000001_Node000004" class="edge">
<title>Node1&#45;&gt;Node4</title>
<g id="a_edge40_Node000001_Node000004"><a xlink:title=" ">
<path fill="none" stroke="#63b8ff" d="M1085.83,-216.88C1197.39,-204.39 1382.24,-176.25 1423.5,-124 1489.82,-40.02 1369.24,-104.68 1123.5,-44 1111.99,-41.16 1099.62,-36.58 1089.53,-32.42"/>
<polygon fill="#63b8ff" stroke="#63b8ff" points="1085.67,-213.37 1076.11,-217.94 1086.43,-220.33 1085.67,-213.37"/>
</a>
</g>
</g>
<!-- Node5 -->
<g id="Node000005" class="node">
<title>Node5</title>
<g id="a_Node000005"><a xlink:href="four_8h.html" target="_top" xlink:title="Defines the 6x7 Connect&#45;Four game variant with AI and UI support.">
<polygon fill="white" stroke="#666666" points="406.62,-118 292.38,-118 292.38,-86 406.62,-86 406.62,-118"/>
<text xml:space="preserve" text-anchor="start" x="300.38" y="-104.5" font-family="Helvetica,sans-Serif" font-size="10.00">Games/Four_in_a_row</text>
<text xml:space="preserve" text-anchor="middle" x="349.5" y="-92.5" font-family="Helvetica,sans-Serif" font-size="10.00">/four.h</text>
</a>
</g>
</g>
<!-- Node1&#45;&gt;Node5 -->
<g id="edge4_Node000001_Node000005" class="edge">
<title>Node1&#45;&gt;Node5</title>
<g id="a_edge4_Node000001_Node000005"><a xlink:title=" ">
<path fill="none" stroke="#63b8ff" d="M913.1,-217.68C838.21,-210.57 727.13,-198.16 631.5,-180 534.07,-161.5 510.79,-151.49 415.5,-124 409.49,-122.27 403.2,-120.37 396.99,-118.45"/>
<polygon fill="#63b8ff" stroke="#63b8ff" points="912.55,-221.15 922.83,-218.6 913.21,-214.18 912.55,-221.15"/>
</a>
</g>
</g>
<!-- Node7 -->
<g id="Node000007" class="node">
<title>Node7</title>
<g id="a_Node000007"><a xlink:href="_large___tic___tac___toe_8h.html" target="_top" xlink:title=" ">
<polygon fill="white" stroke="#666666" points="558,-118 425,-118 425,-86 558,-86 558,-118"/>
<text xml:space="preserve" text-anchor="start" x="433" y="-104.5" font-family="Helvetica,sans-Serif" font-size="10.00">Games/Large_Tic_Tac</text>
<text xml:space="preserve" text-anchor="middle" x="491.5" y="-92.5" font-family="Helvetica,sans-Serif" font-size="10.00">_Toe/Large_Tic_Tac_Toe.h</text>
</a>
</g>
</g>
<!-- Node1&#45;&gt;Node7 -->
<g id="edge7_Node000001_Node000007" class="edge">
<title>Node1&#45;&gt;Node7</title>
<g id="a_edge7_Node000001_Node000007"><a xlink:title=" ">
<path fill="none" stroke="#63b8ff" d="M912.96,-216.79C852.52,-209.9 770.3,-198.21 699.5,-180 637.03,-163.94 567.27,-135.93 526.49,-118.48"/>
<polygon fill="#63b8ff" stroke="#63b8ff" points="912.54,-220.26 922.86,-217.89 913.31,-213.31 912.54,-220.26"/>
</a>
</g>
</g>
<!-- Node9 -->
<g id="Node000009" class="node">
<title>Node9</title>
<g id="a_Node000009"><a xlink:href="_memory___tic___tac___toe_8h.html" target="_top" xlink:title=" ">
<polygon fill="white" stroke="#666666" points="720.62,-118 576.38,-118 576.38,-86 720.62,-86 720.62,-118"/>
<text xml:space="preserve" text-anchor="start" x="584.38" y="-104.5" font-family="Helvetica,sans-Serif" font-size="10.00">Games/Memory_Tic_Tac</text>
<text xml:space="preserve" text-anchor="middle" x="648.5" y="-92.5" font-family="Helvetica,sans-Serif" font-size="10.00">_Toe/Memory_Tic_Tac_Toe.h</text>
</a>
</g>
</g>
<!-- Node1&#45;&gt;Node9 -->
<g id="edge10_Node000001_Node000009" class="edge">
<title>Node1&#45;&gt;Node9</title>
<g id="a_edge10_Node000001_Node000009"><a xlink:title=" ">
<path fill="none" stroke="#63b8ff" d="M913.05,-222.85C858.83,-218.56 788.79,-207.5 732.5,-180 702.28,-165.24 675.16,-136.13 660.34,-118.23"/>
<polygon fill="#63b8ff" stroke="#63b8ff" points="912.64,-226.33 922.86,-223.56 913.14,-219.35 912.64,-226.33"/>
</a>
</g>
</g>
<!-- Node11 -->
<g id="Node000011" class="node">
<title>Node11</title>
<g id="a_Node000011"><a xlink:href="_obstacles___tic___tac___toe_8h.html" target="_top" xlink:title="Obstacles Tic&#45;Tac&#45;Toe game classes.">
<polygon fill="white" stroke="#666666" points="274.5,-124 150.5,-124 150.5,-80 274.5,-80 274.5,-124"/>
<text xml:space="preserve" text-anchor="start" x="158.5" y="-110.5" font-family="Helvetica,sans-Serif" font-size="10.00">Games/Obstacles_Tic</text>
<text xml:space="preserve" text-anchor="start" x="158.5" y="-98.5" font-family="Helvetica,sans-Serif" font-size="10.00">_Tac_Toe/Obstacles_Tic</text>
<text xml:space="preserve" text-anchor="middle" x="212.5" y="-86.5" font-family="Helvetica,sans-Serif" font-size="10.00">_Tac_Toe.h</text>
</a>
</g>
</g>
<!-- Node1&#45;&gt;Node11 -->
<g id="edge13_Node000001_Node000011" class="edge">
<title>Node1&#45;&gt;Node11</title>
<g id="a_edge13_Node000001_Node000011"><a xlink:title=" ">
<path fill="none" stroke="#63b8ff" d="M913.21,-219.75C819.93,-213.34 667.05,-200.71 536.5,-180 422.76,-161.95 395.01,-152.79 283.5,-124 280.64,-123.26 277.72,-122.48 274.77,-121.68"/>
<polygon fill="#63b8ff" stroke="#63b8ff" points="912.85,-223.23 923.06,-220.41 913.32,-216.24 912.85,-223.23"/>
</a>
</g>
</g>
<!-- Node13 -->
<g id="Node000013" class="node">
<title>Node13</title>
<g id="a_Node000013"><a xlink:href="_pyramid_x_o_8h.html" target="_top" xlink:title="Pyramid XO game classes.">
<polygon fill="white" stroke="#666666" points="1632.62,-112 1470.38,-112 1470.38,-92 1632.62,-92 1632.62,-112"/>
<text xml:space="preserve" text-anchor="middle" x="1551.5" y="-98.5" font-family="Helvetica,sans-Serif" font-size="10.00">Games/PyramidXO/PyramidXO.h</text>
</a>
</g>
</g>
<!-- Node1&#45;&gt;Node13 -->
<g id="edge16_Node000001_Node000013" class="edge">
<title>Node1&#45;&gt;Node13</title>
<g id="a_edge16_Node000001_Node000013"><a xlink:title=" ">
<path fill="none" stroke="#63b8ff" d="M1086.1,-222.39C1199.5,-217.95 1391.53,-206.68 1456.5,-180 1494.01,-164.6 1528.43,-129.32 1543.49,-112.39"/>
<polygon fill="#63b8ff" stroke="#63b8ff" points="1086.07,-218.88 1076.21,-222.76 1086.34,-225.88 1086.07,-218.88"/>
</a>
</g>
</g>
<!-- Node15 -->
<g id="Node000015" class="node">
<title>Node15</title>
<g id="a_Node000015"><a xlink:href="_s_u_s_8h.html" target="_top" xlink:title="SUS game classes.">
<polygon fill="white" stroke="#666666" points="842.38,-112 738.62,-112 738.62,-92 842.38,-92 842.38,-112"/>
<text xml:space="preserve" text-anchor="middle" x="790.5" y="-98.5" font-family="Helvetica,sans-Serif" font-size="10.00">Games/SUS/SUS.h</text>
</a>
</g>
</g>
<!-- Node1&#45;&gt;Node15 -->
<g id="edge19_Node000001_Node000015" class="edge">
<title>Node1&#45;&gt;Node15</title>
<g id="a_edge19_Node000001_Node000015"><a xlink:title=" ">
<path fill="none" stroke="#63b8ff" d="M973.56,-209.86C929.81,-184.32 842.6,-133.41 806.61,-112.4"/>
<polygon fill="#63b8ff" stroke="#63b8ff" points="971.74,-212.85 982.14,-214.87 975.27,-206.8 971.74,-212.85"/>
</a>
</g>
</g>
<!-- Node17 -->
<g id="Node000017" class="node">
<title>Node17</title>
<g id="a_Node000017"><a xlink:href="_ultimate_8h.html" target="_top" xlink:title="Ultimate Tic&#45;Tac&#45;Toe game classes.">
<polygon fill="white" stroke="#666666" points="1756.5,-118 1650.5,-118 1650.5,-86 1756.5,-86 1756.5,-118"/>
<text xml:space="preserve" text-anchor="start" x="1658.5" y="-104.5" font-family="Helvetica,sans-Serif" font-size="10.00">Games/Ultimate_Tic</text>
<text xml:space="preserve" text-anchor="middle" x="1703.5" y="-92.5" font-family="Helvetica,sans-Serif" font-size="10.00">_Tac_Toe/Ultimate.h</text>
</a>
</g>
</g>
<!-- Node1&#45;&gt;Node17 -->
<g id="edge22_Node000001_Node000017" class="edge">
<title>Node1&#45;&gt;Node17</title>
<g id="a_edge22_Node000001_Node000017"><a xlink:title=" ">
<path fill="none" stroke="#63b8ff" d="M1085.74,-223.55C1184.05,-220.4 1349.04,-210.55 1487.5,-180 1553.4,-165.46 1626.72,-136.42 1668.75,-118.45"/>
<polygon fill="#63b8ff" stroke="#63b8ff" points="1085.79,-220.04 1075.9,-223.85 1086,-227.04 1085.79,-220.04"/>
</a>
</g>
</g>
<!-- Node19 -->
<g id="Node000019" class="node">
<title>Node19</title>
<g id="a_Node000019"><a xlink:href="_word___tic___tac___toe_8h.html" target="_top" xlink:title="Header for Word Tic&#45;Tac&#45;Toe board, AI, and UI.">
<polygon fill="white" stroke="#666666" points="1414.25,-118 1282.75,-118 1282.75,-86 1414.25,-86 1414.25,-118"/>
<text xml:space="preserve" text-anchor="start" x="1290.75" y="-104.5" font-family="Helvetica,sans-Serif" font-size="10.00">Games/Word_Tic_Tac</text>
<text xml:space="preserve" text-anchor="middle" x="1348.5" y="-92.5" font-family="Helvetica,sans-Serif" font-size="10.00">_Toe/Word_Tic_Tac_Toe.h</text>
</a>
</g>
</g>
<!-- Node1&#45;&gt;Node19 -->
<g id="edge25_Node000001_Node000019" class="edge">
<title>Node1&#45;&gt;Node19</title>
<g id="a_edge25_Node000001_Node000019"><a xlink:title=" ">
<path fill="none" stroke="#63b8ff" d="M1037.17,-211.83C1102.16,-189.11 1235.04,-142.66 1304.3,-118.45"/>
<polygon fill="#63b8ff" stroke="#63b8ff" points="1036.31,-208.43 1028.02,-215.03 1038.62,-215.03 1036.31,-208.43"/>
</a>
</g>
</g>
<!-- Node21 -->
<g id="Node000021" class="node">
<title>Node21</title>
<g id="a_Node000021"><a xlink:href="_x_o__inf_8h.html" target="_top" xlink:title="Infinite Tic&#45;Tac&#45;Toe game classes.">
<polygon fill="white" stroke="#666666" points="1264.38,-112 1142.62,-112 1142.62,-92 1264.38,-92 1264.38,-112"/>
<text xml:space="preserve" text-anchor="middle" x="1203.5" y="-98.5" font-family="Helvetica,sans-Serif" font-size="10.00">Games/XO_inf/XO_inf.h</text>
</a>
</g>
</g>
<!-- Node1&#45;&gt;Node21 -->
<g id="edge28_Node000001_Node000021" class="edge">
<title>Node1&#45;&gt;Node21</title>
<g id="a_edge28_Node000001_Node000021"><a xlink:title=" ">
<path fill="none" stroke="#63b8ff" d="M1024.82,-209.86C1067.52,-184.32 1152.65,-133.41 1187.78,-112.4"/>
<polygon fill="#63b8ff" stroke="#63b8ff" points="1023.25,-206.72 1016.47,-214.85 1026.85,-212.72 1023.25,-206.72"/>
</a>
</g>
</g>
<!-- Node23 -->
<g id="Node000023" class="node">
<title>Node23</title>
<g id="a_Node000023"><a xlink:href="xo__num_8h.html" target="_top" xlink:title="Numerical Tic&#45;Tac&#45;Toe (Magic Square XO) game classes.">
<polygon fill="white" stroke="#666666" points="1908.75,-112 1774.25,-112 1774.25,-92 1908.75,-92 1908.75,-112"/>
<text xml:space="preserve" text-anchor="middle" x="1841.5" y="-98.5" font-family="Helvetica,sans-Serif" font-size="10.00">Games/XO_num/xo_num.h</text>
</a>
</g>
</g>
<!-- Node1&#45;&gt;Node23 -->
<g id="edge31_Node000001_Node000023" class="edge">
<title>Node1&#45;&gt;Node23</title>
<g id="a_edge31_Node000001_Node000023"><a xlink:title=" ">
<path fill="none" stroke="#63b8ff" d="M1085.66,-221.84C1191.8,-217 1377.37,-205.5 1534.5,-180 1637.56,-163.28 1756.75,-128.96 1811.35,-112.38"/>
<polygon fill="#63b8ff" stroke="#63b8ff" points="1085.72,-218.33 1075.89,-222.27 1086.03,-225.32 1085.72,-218.33"/>
</a>
</g>
</g>
<!-- Node25 -->
<g id="Node000025" class="node">
<title>Node25</title>
<g id="a_Node000025"><a xlink:href="_anti___x_o_8h.html" target="_top" xlink:title="Anti Tic&#45;Tac&#45;Toe variant where forming 3&#45;in&#45;a&#45;row causes a loss.">
<polygon fill="white" stroke="#666666" points="994.38,-112 860.62,-112 860.62,-92 994.38,-92 994.38,-112"/>
<text xml:space="preserve" text-anchor="middle" x="927.5" y="-98.5" font-family="Helvetica,sans-Serif" font-size="10.00">Games/anti_XO/Anti_XO.h</text>
</a>
</g>
</g>
<!-- Node1&#45;&gt;Node25 -->
<g id="edge34_Node000001_Node000025" class="edge">
<title>Node1&#45;&gt;Node25</title>
<g id="a_edge34_Node000001_Node000025"><a xlink:title=" ">
<path fill="none" stroke="#63b8ff" d="M980.55,-207.84C972.65,-199.95 963.85,-190.1 957.5,-180 943.3,-157.41 933.9,-127 929.82,-112.06"/>
<polygon fill="#63b8ff" stroke="#63b8ff" points="977.88,-210.13 987.52,-214.52 982.72,-205.07 977.88,-210.13"/>
</a>
</g>
</g>
<!-- Node27 -->
<g id="Node000027" class="node">
<title>Node27</title>
<g id="a_Node000027"><a xlink:href="dia___x_o_8h.html" target="_top" xlink:title="Diamond&#45;shaped 7x7 Tic&#45;Tac&#45;Toe variant with AI and UI support.">
<polygon fill="white" stroke="#666666" points="2076.62,-112 1926.38,-112 1926.38,-92 2076.62,-92 2076.62,-112"/>
<text xml:space="preserve" text-anchor="middle" x="2001.5" y="-98.5" font-family="Helvetica,sans-Serif" font-size="10.00">Games/diamond_XO/dia_XO.h</text>
</a>
</g>
</g>
<!-- Node1&#45;&gt;Node27 -->
<g id="edge37_Node000001_Node000027" class="edge">
<title>Node1&#45;&gt;Node27</title>
<g id="a_edge37_Node000001_Node000027"><a xlink:title=" ">
<path fill="none" stroke="#63b8ff" d="M1085.81,-221.11C1201.96,-215.28 1414.88,-202.47 1595.5,-180 1739.65,-162.07 1775.39,-154.08 1917.5,-124 1933.53,-120.61 1951.14,-116.3 1966.07,-112.46"/>
<polygon fill="#63b8ff" stroke="#63b8ff" points="1085.86,-217.6 1076.04,-221.59 1086.2,-224.59 1085.86,-217.6"/>
</a>
</g>
</g>
<!-- Node29 -->
<g id="Node000029" class="node">
<title>Node29</title>
<g id="a_Node000029"><a xlink:href="_a_i_8h.html" target="_top" xlink:title=" ">
<polygon fill="white" stroke="#666666" points="1032.62,-180 966.38,-180 966.38,-160 1032.62,-160 1032.62,-180"/>
<text xml:space="preserve" text-anchor="middle" x="999.5" y="-166.5" font-family="Helvetica,sans-Serif" font-size="10.00">header/AI.h</text>
</a>
</g>
</g>
<!-- Node1&#45;&gt;Node29 -->
<g id="edge41_Node000001_Node000029" class="edge">
<title>Node1&#45;&gt;Node29</title>
<g id="a_edge41_Node000001_Node000029"><a xlink:title=" ">
<path fill="none" stroke="#63b8ff" d="M999.5,-204.13C999.5,-195.9 999.5,-186.85 999.5,-180.3"/>
<polygon fill="#63b8ff" stroke="#63b8ff" points="996,-204.08 999.5,-214.08 1003,-204.08 996,-204.08"/>
</a>
</g>
</g>
<!-- Node30 -->
<g id="Node000030" class="node">
<title>Node30</title>
<g id="a_Node000030"><a xlink:href="_x_o___classes_8h.html" target="_top" xlink:title="Classic Tic&#45;Tac&#45;Toe game classes.">
<polygon fill="white" stroke="#666666" points="1124.5,-112 1012.5,-112 1012.5,-92 1124.5,-92 1124.5,-112"/>
<text xml:space="preserve" text-anchor="middle" x="1068.5" y="-98.5" font-family="Helvetica,sans-Serif" font-size="10.00">header/XO_Classes.h</text>
</a>
</g>
</g>
<!-- Node1&#45;&gt;Node30 -->
<g id="edge67_Node000001_Node000030" class="edge">
<title>Node1&#45;&gt;Node30</title>
<g id="a_edge67_Node000001_Node000030"><a xlink:title=" ">
<path fill="none" stroke="#63b8ff" d="M1018.62,-207.94C1026.55,-200.07 1035.33,-190.21 1041.5,-180 1055.14,-157.46 1063.21,-127.02 1066.61,-112.07"/>
<polygon fill="#63b8ff" stroke="#63b8ff" points="1016.45,-205.18 1011.6,-214.59 1021.26,-210.26 1016.45,-205.18"/>
</a>
</g>
</g>
<!-- Node31 -->
<g id="Node000031" class="node">
<title>Node31</title>
<g id="a_Node000031"><a xlink:href="_custom___u_i_8h.html" target="_top" xlink:title="Defines a customizable user interface for board games.">
<polygon fill="white" stroke="#666666" points="847.88,-180 741.12,-180 741.12,-160 847.88,-160 847.88,-180"/>
<text xml:space="preserve" text-anchor="middle" x="794.5" y="-166.5" font-family="Helvetica,sans-Serif" font-size="10.00">header/Custom_UI.h</text>
</a>
</g>
</g>
<!-- Node1&#45;&gt;Node31 -->
<g id="edge57_Node000001_Node000031" class="edge">
<title>Node1&#45;&gt;Node31</title>
<g id="a_edge57_Node000001_Node000031"><a xlink:title=" ">
<path fill="none" stroke="#63b8ff" d="M952.75,-212.69C915.63,-202.91 864.47,-189.43 830.49,-180.48"/>
<polygon fill="#63b8ff" stroke="#63b8ff" points="951.77,-216.05 962.33,-215.21 953.55,-209.28 951.77,-216.05"/>
</a>
</g>
</g>
<!-- Node3 -->
<g id="Node000003" class="node">
<title>Node3</title>
<g id="a_Node000003"><a xlink:href="4by4___x_o_8cpp.html" target="_top" xlink:title=" ">
<polygon fill="white" stroke="#666666" points="127,-38 0,-38 0,-6 127,-6 127,-38"/>
<text xml:space="preserve" text-anchor="start" x="8" y="-24.5" font-family="Helvetica,sans-Serif" font-size="10.00">Games/4x4_Tic_Tac_Toe</text>
<text xml:space="preserve" text-anchor="middle" x="63.5" y="-12.5" font-family="Helvetica,sans-Serif" font-size="10.00">/4by4_XO.cpp</text>
</a>
</g>
</g>
<!-- Node2&#45;&gt;Node3 -->
<g id="edge2_Node000002_Node000003" class="edge">
<title>Node2&#45;&gt;Node3</title>
<g id="a_edge2_Node000002_Node000003"><a xlink:title=" ">
<path fill="none" stroke="#63b8ff" d="M66.79,-74.37C66.02,-62.37 65.14,-48.63 64.49,-38.38"/>
<polygon fill="#63b8ff" stroke="#63b8ff" points="63.28,-74.32 67.42,-84.08 70.27,-73.88 63.28,-74.32"/>
</a>
</g>
</g>
<!-- Node2&#45;&gt;Node4 -->
<g id="edge3_Node000002_Node000004" class="edge">
<title>Node2&#45;&gt;Node4</title>
<g id="a_edge3_Node000002_Node000004"><a xlink:title=" ">
<path fill="none" stroke="#63b8ff" d="M127.19,-82.81C132,-81.72 136.81,-80.76 141.5,-80 519.11,-18.68 624.64,-109.77 1001.5,-44 1015.79,-41.51 1031.27,-36.79 1043.75,-32.46"/>
<polygon fill="#63b8ff" stroke="#63b8ff" points="126.38,-79.41 117.5,-85.2 128.05,-86.21 126.38,-79.41"/>
</a>
</g>
</g>
<!-- Node5&#45;&gt;Node4 -->
<g id="edge6_Node000005_Node000004" class="edge">
<title>Node5&#45;&gt;Node4</title>
<g id="a_edge6_Node000005_Node000004"><a xlink:title=" ">
<path fill="none" stroke="#63b8ff" d="M403.8,-82.57C407.73,-81.59 411.66,-80.72 415.5,-80 672,-32.08 744.9,-91.37 1001.5,-44 1015.65,-41.39 1030.99,-36.72 1043.41,-32.45"/>
<polygon fill="#63b8ff" stroke="#63b8ff" points="402.97,-79.17 394.24,-85.17 404.81,-85.92 402.97,-79.17"/>
</a>
</g>
</g>
<!-- Node6 -->
<g id="Node000006" class="node">
<title>Node6</title>
<g id="a_Node000006"><a xlink:href="four_8cpp.html" target="_top" xlink:title=" ">
<polygon fill="white" stroke="#666666" points="401.62,-38 287.38,-38 287.38,-6 401.62,-6 401.62,-38"/>
<text xml:space="preserve" text-anchor="start" x="295.38" y="-24.5" font-family="Helvetica,sans-Serif" font-size="10.00">Games/Four_in_a_row</text>
<text xml:space="preserve" text-anchor="middle" x="344.5" y="-12.5" font-family="Helvetica,sans-Serif" font-size="10.00">/four.cpp</text>
</a>
</g>
</g>
<!-- Node5&#45;&gt;Node6 -->
<g id="edge5_Node000005_Node000006" class="edge">
<title>Node5&#45;&gt;Node6</title>
<g id="a_edge5_Node000005_Node000006"><a xlink:title=" ">
<path fill="none" stroke="#63b8ff" d="M347.79,-74.37C347.02,-62.37 346.14,-48.63 345.49,-38.38"/>
<polygon fill="#63b8ff" stroke="#63b8ff" points="344.28,-74.32 348.42,-84.08 351.27,-73.88 344.28,-74.32"/>
</a>
</g>
</g>
<!-- Node7&#45;&gt;Node4 -->
<g id="edge9_Node000007_Node000004" class="edge">
<title>Node7&#45;&gt;Node4</title>
<g id="a_edge9_Node000007_Node000004"><a xlink:title=" ">
<path fill="none" stroke="#63b8ff" d="M553.37,-82.88C558.13,-81.8 562.88,-80.82 567.5,-80 758.06,-46.08 811.55,-81.17 1001.5,-44 1015.5,-41.26 1030.69,-36.64 1043.07,-32.43"/>
<polygon fill="#63b8ff" stroke="#63b8ff" points="552.67,-79.45 543.77,-85.2 554.31,-86.25 552.67,-79.45"/>
</a>
</g>
</g>
<!-- Node8 -->
<g id="Node000008" class="node">
<title>Node8</title>
<g id="a_Node000008"><a xlink:href="_large___tic___tac___toe_8cpp.html" target="_top" xlink:title=" ">
<polygon fill="white" stroke="#666666" points="563.25,-38 419.75,-38 419.75,-6 563.25,-6 563.25,-38"/>
<text xml:space="preserve" text-anchor="start" x="427.75" y="-24.5" font-family="Helvetica,sans-Serif" font-size="10.00">Games/Large_Tic_Tac</text>
<text xml:space="preserve" text-anchor="middle" x="491.5" y="-12.5" font-family="Helvetica,sans-Serif" font-size="10.00">_Toe/Large_Tic_Tac_Toe.cpp</text>
</a>
</g>
</g>
<!-- Node7&#45;&gt;Node8 -->
<g id="edge8_Node000007_Node000008" class="edge">
<title>Node7&#45;&gt;Node8</title>
<g id="a_edge8_Node000007_Node000008"><a xlink:title=" ">
<path fill="none" stroke="#63b8ff" d="M491.5,-74.37C491.5,-62.37 491.5,-48.63 491.5,-38.38"/>
<polygon fill="#63b8ff" stroke="#63b8ff" points="488,-74.08 491.5,-84.08 495,-74.08 488,-74.08"/>
</a>
</g>
</g>
<!-- Node9&#45;&gt;Node4 -->
<g id="edge12_Node000009_Node000004" class="edge">
<title>Node9&#45;&gt;Node4</title>
<g id="a_edge12_Node000009_Node000004"><a xlink:title=" ">
<path fill="none" stroke="#63b8ff" d="M715.51,-82.95C720.23,-81.89 724.93,-80.89 729.5,-80 849.19,-56.65 882.43,-70.33 1001.5,-44 1015.07,-41 1029.84,-36.51 1042.05,-32.45"/>
<polygon fill="#63b8ff" stroke="#63b8ff" points="714.92,-79.5 705.98,-85.19 716.52,-86.31 714.92,-79.5"/>
</a>
</g>
</g>
<!-- Node10 -->
<g id="Node000010" class="node">
<title>Node10</title>
<g id="a_Node000010"><a xlink:href="_memory___tic___tac___toe_8cpp.html" target="_top" xlink:title=" ">
<polygon fill="white" stroke="#666666" points="735.88,-38 581.12,-38 581.12,-6 735.88,-6 735.88,-38"/>
<text xml:space="preserve" text-anchor="start" x="589.12" y="-24.5" font-family="Helvetica,sans-Serif" font-size="10.00">Games/Memory_Tic_Tac</text>
<text xml:space="preserve" text-anchor="middle" x="658.5" y="-12.5" font-family="Helvetica,sans-Serif" font-size="10.00">_Toe/Memory_Tic_Tac_Toe.cpp</text>
</a>
</g>
</g>
<!-- Node9&#45;&gt;Node10 -->
<g id="edge11_Node000009_Node000010" class="edge">
<title>Node9&#45;&gt;Node10</title>
<g id="a_edge11_Node000009_Node000010"><a xlink:title=" ">
<path fill="none" stroke="#63b8ff" d="M651.91,-74.37C653.45,-62.37 655.21,-48.63 656.53,-38.38"/>
<polygon fill="#63b8ff" stroke="#63b8ff" points="648.47,-73.72 650.67,-84.09 655.41,-74.61 648.47,-73.72"/>
</a>
</g>
</g>
<!-- Node11&#45;&gt;Node4 -->
<g id="edge15_Node000011_Node000004" class="edge">
<title>Node11&#45;&gt;Node4</title>
<g id="a_edge15_Node000011_Node000004"><a xlink:title=" ">
<path fill="none" stroke="#63b8ff" d="M285.93,-79.82C600.57,-28.03 690.66,-99.57 1001.5,-44 1015.78,-41.45 1031.26,-36.73 1043.74,-32.41"/>
<polygon fill="#63b8ff" stroke="#63b8ff" points="285.42,-76.35 276.13,-81.46 286.57,-83.26 285.42,-76.35"/>
</a>
</g>
</g>
<!-- Node12 -->
<g id="Node000012" class="node">
<title>Node12</title>
<g id="a_Node000012"><a xlink:href="_obstacles___tic___tac___toe_8cpp.html" target="_top" xlink:title=" ">
<polygon fill="white" stroke="#666666" points="269.5,-44 145.5,-44 145.5,0 269.5,0 269.5,-44"/>
<text xml:space="preserve" text-anchor="start" x="153.5" y="-30.5" font-family="Helvetica,sans-Serif" font-size="10.00">Games/Obstacles_Tic</text>
<text xml:space="preserve" text-anchor="start" x="153.5" y="-18.5" font-family="Helvetica,sans-Serif" font-size="10.00">_Tac_Toe/Obstacles_Tic</text>
<text xml:space="preserve" text-anchor="middle" x="207.5" y="-6.5" font-family="Helvetica,sans-Serif" font-size="10.00">_Tac_Toe.cpp</text>
</a>
</g>
</g>
<!-- Node11&#45;&gt;Node12 -->
<g id="edge14_Node000011_Node000012" class="edge">
<title>Node11&#45;&gt;Node12</title>
<g id="a_edge14_Node000011_Node000012"><a xlink:title=" ">
<path fill="none" stroke="#63b8ff" d="M210.4,-68.25C209.88,-60.15 209.34,-51.68 208.86,-44.29"/>
<polygon fill="#63b8ff" stroke="#63b8ff" points="206.9,-68.42 211.04,-78.18 213.89,-67.97 206.9,-68.42"/>
</a>
</g>
</g>
<!-- Node13&#45;&gt;Node4 -->
<g id="edge18_Node000013_Node000004" class="edge">
<title>Node13&#45;&gt;Node4</title>
<g id="a_edge18_Node000013_Node000004"><a xlink:title=" ">
<path fill="none" stroke="#63b8ff" d="M1502.42,-89.07C1487.71,-85.79 1471.51,-82.46 1456.5,-80 1309.6,-55.9 1268.23,-78.84 1123.5,-44 1111.97,-41.23 1099.6,-36.65 1089.51,-32.48"/>
<polygon fill="#63b8ff" stroke="#63b8ff" points="1501.32,-92.41 1511.84,-91.22 1502.87,-85.59 1501.32,-92.41"/>
</a>
</g>
</g>
<!-- Node14 -->
<g id="Node000014" class="node">
<title>Node14</title>
<g id="a_Node000014"><a xlink:href="_pyramid_x_o_8cpp.html" target="_top" xlink:title=" ">
<polygon fill="white" stroke="#666666" points="1624.88,-32 1452.12,-32 1452.12,-12 1624.88,-12 1624.88,-32"/>
<text xml:space="preserve" text-anchor="middle" x="1538.5" y="-18.5" font-family="Helvetica,sans-Serif" font-size="10.00">Games/PyramidXO/PyramidXO.cpp</text>
</a>
</g>
</g>
<!-- Node13&#45;&gt;Node14 -->
<g id="edge17_Node000013_Node000014" class="edge">
<title>Node13&#45;&gt;Node14</title>
<g id="a_edge17_Node000013_Node000014"><a xlink:title=" ">
<path fill="none" stroke="#63b8ff" d="M1548.1,-80.59C1545.49,-64.94 1542.01,-44.08 1540.04,-32.24"/>
<polygon fill="#63b8ff" stroke="#63b8ff" points="1544.61,-80.96 1549.71,-90.25 1551.52,-79.81 1544.61,-80.96"/>
</a>
</g>
</g>
<!-- Node15&#45;&gt;Node4 -->
<g id="edge21_Node000015_Node000004" class="edge">
<title>Node15&#45;&gt;Node4</title>
<g id="a_edge21_Node000015_Node000004"><a xlink:title=" ">
<path fill="none" stroke="#63b8ff" d="M826.79,-87.87C834.87,-85.12 843.44,-82.35 851.5,-80 917.32,-60.82 935.42,-62.26 1001.5,-44 1014.19,-40.49 1028.1,-36.21 1039.94,-32.42"/>
<polygon fill="#63b8ff" stroke="#63b8ff" points="825.88,-84.48 817.58,-91.06 828.17,-91.09 825.88,-84.48"/>
</a>
</g>
</g>
<!-- Node16 -->
<g id="Node000016" class="node">
<title>Node16</title>
<g id="a_Node000016"><a xlink:href="_s_u_s_8cpp.html" target="_top" xlink:title=" ">
<polygon fill="white" stroke="#666666" points="868.62,-32 754.38,-32 754.38,-12 868.62,-12 868.62,-32"/>
<text xml:space="preserve" text-anchor="middle" x="811.5" y="-18.5" font-family="Helvetica,sans-Serif" font-size="10.00">Games/SUS/SUS.cpp</text>
</a>
</g>
</g>
<!-- Node15&#45;&gt;Node16 -->
<g id="edge20_Node000015_Node000016" class="edge">
<title>Node15&#45;&gt;Node16</title>
<g id="a_edge20_Node000015_Node000016"><a xlink:title=" ">
<path fill="none" stroke="#63b8ff" d="M795.87,-81.05C800.1,-65.35 805.79,-44.2 809.01,-32.24"/>
<polygon fill="#63b8ff" stroke="#63b8ff" points="792.61,-79.72 793.38,-90.28 799.36,-81.54 792.61,-79.72"/>
</a>
</g>
</g>
<!-- Node17&#45;&gt;Node4 -->
<g id="edge24_Node000017_Node000004" class="edge">
<title>Node17&#45;&gt;Node4</title>
<g id="a_edge24_Node000017_Node000004"><a xlink:title=" ">
<path fill="none" stroke="#63b8ff" d="M1651.85,-82.41C1648.37,-81.5 1644.9,-80.68 1641.5,-80 1415.23,-34.61 1348.86,-93.7 1123.5,-44 1111.72,-41.4 1099.12,-36.74 1088.95,-32.46"/>
<polygon fill="#63b8ff" stroke="#63b8ff" points="1650.85,-85.77 1661.43,-85.17 1652.79,-79.04 1650.85,-85.77"/>
</a>
</g>
</g>
<!-- Node18 -->
<g id="Node000018" class="node">
<title>Node18</title>
<g id="a_Node000018"><a xlink:href="_ultimate_8cpp.html" target="_top" xlink:title=" ">
<polygon fill="white" stroke="#666666" points="1759.75,-38 1643.25,-38 1643.25,-6 1759.75,-6 1759.75,-38"/>
<text xml:space="preserve" text-anchor="start" x="1651.25" y="-24.5" font-family="Helvetica,sans-Serif" font-size="10.00">Games/Ultimate_Tic</text>
<text xml:space="preserve" text-anchor="middle" x="1701.5" y="-12.5" font-family="Helvetica,sans-Serif" font-size="10.00">_Tac_Toe/Ultimate.cpp</text>
</a>
</g>
</g>
<!-- Node17&#45;&gt;Node18 -->
<g id="edge23_Node000017_Node000018" class="edge">
<title>Node17&#45;&gt;Node18</title>
<g id="a_edge23_Node000017_Node000018"><a xlink:title=" ">
<path fill="none" stroke="#63b8ff" d="M1702.82,-74.37C1702.51,-62.37 1702.16,-48.63 1701.89,-38.38"/>
<polygon fill="#63b8ff" stroke="#63b8ff" points="1699.31,-74.17 1703.07,-84.08 1706.31,-73.99 1699.31,-74.17"/>
</a>
</g>
</g>
<!-- Node19&#45;&gt;Node4 -->
<g id="edge27_Node000019_Node000004" class="edge">
<title>Node19&#45;&gt;Node4</title>
<g id="a_edge27_Node000019_Node000004"><a xlink:title=" ">
<path fill="none" stroke="#63b8ff" d="M1283.05,-82.52C1279.83,-81.66 1276.63,-80.81 1273.5,-80 1207.14,-62.75 1188.99,-64.27 1123.5,-44 1112.76,-40.68 1101.09,-36.33 1091.28,-32.46"/>
<polygon fill="#63b8ff" stroke="#63b8ff" points="1282.06,-85.88 1292.62,-85.11 1283.88,-79.12 1282.06,-85.88"/>
</a>
</g>
</g>
<!-- Node20 -->
<g id="Node000020" class="node">
<title>Node20</title>
<g id="a_Node000020"><a xlink:href="_word___tic___tac___toe_8cpp.html" target="_top" xlink:title=" ">
<polygon fill="white" stroke="#666666" points="1424.5,-38 1282.5,-38 1282.5,-6 1424.5,-6 1424.5,-38"/>
<text xml:space="preserve" text-anchor="start" x="1290.5" y="-24.5" font-family="Helvetica,sans-Serif" font-size="10.00">Games/Word_Tic_Tac</text>
<text xml:space="preserve" text-anchor="middle" x="1353.5" y="-12.5" font-family="Helvetica,sans-Serif" font-size="10.00">_Toe/Word_Tic_Tac_Toe.cpp</text>
</a>
</g>
</g>
<!-- Node19&#45;&gt;Node20 -->
<g id="edge26_Node000019_Node000020" class="edge">
<title>Node19&#45;&gt;Node20</title>
<g id="a_edge26_Node000019_Node000020"><a xlink:title=" ">
<path fill="none" stroke="#63b8ff" d="M1350.21,-74.37C1350.98,-62.37 1351.86,-48.63 1352.51,-38.38"/>
<polygon fill="#63b8ff" stroke="#63b8ff" points="1346.73,-73.88 1349.58,-84.08 1353.72,-74.32 1346.73,-73.88"/>
</a>
</g>
</g>
<!-- Node21&#45;&gt;Node4 -->
<g id="edge30_Node000021_Node000004" class="edge">
<title>Node21&#45;&gt;Node4</title>
<g id="a_edge30_Node000021_Node000004"><a xlink:title=" ">
<path fill="none" stroke="#63b8ff" d="M1177.53,-85.99C1150.15,-70.18 1107.88,-45.75 1084.84,-32.44"/>
<polygon fill="#63b8ff" stroke="#63b8ff" points="1175.5,-88.86 1185.91,-90.83 1179,-82.8 1175.5,-88.86"/>
</a>
</g>
</g>
<!-- Node22 -->
<g id="Node000022" class="node">
<title>Node22</title>
<g id="a_Node000022"><a xlink:href="_x_o__inf_8cpp.html" target="_top" xlink:title=" ">
<polygon fill="white" stroke="#666666" points="1264.62,-32 1132.38,-32 1132.38,-12 1264.62,-12 1264.62,-32"/>
<text xml:space="preserve" text-anchor="middle" x="1198.5" y="-18.5" font-family="Helvetica,sans-Serif" font-size="10.00">Games/XO_inf/XO_inf.cpp</text>
</a>
</g>
</g>
<!-- Node21&#45;&gt;Node22 -->
<g id="edge29_Node000021_Node000022" class="edge">
<title>Node21&#45;&gt;Node22</title>
<g id="a_edge29_Node000021_Node000022"><a xlink:title=" ">
<path fill="none" stroke="#63b8ff" d="M1202.19,-80.59C1201.19,-64.94 1199.85,-44.08 1199.09,-32.24"/>
<polygon fill="#63b8ff" stroke="#63b8ff" points="1198.68,-80.48 1202.81,-90.24 1205.66,-80.03 1198.68,-80.48"/>
</a>
</g>
</g>
<!-- Node23&#45;&gt;Node4 -->
<g id="edge33_Node000023_Node000004" class="edge">
<title>Node23&#45;&gt;Node4</title>
<g id="a_edge33_Node000023_Node000004"><a xlink:title=" ">
<path fill="none" stroke="#63b8ff" d="M1802.18,-88.42C1790.49,-85.14 1777.58,-81.98 1765.5,-80 1483.5,-33.68 1402.98,-103.68 1123.5,-44 1111.61,-41.46 1098.88,-36.74 1088.68,-32.42"/>
<polygon fill="#63b8ff" stroke="#63b8ff" points="1800.92,-91.69 1811.5,-91.13 1802.88,-84.97 1800.92,-91.69"/>
</a>
</g>
</g>
<!-- Node24 -->
<g id="Node000024" class="node">
<title>Node24</title>
<g id="a_Node000024"><a xlink:href="xo__num_8cpp.html" target="_top" xlink:title=" ">
<polygon fill="white" stroke="#666666" points="1923,-32 1778,-32 1778,-12 1923,-12 1923,-32"/>
<text xml:space="preserve" text-anchor="middle" x="1850.5" y="-18.5" font-family="Helvetica,sans-Serif" font-size="10.00">Games/XO_num/xo_num.cpp</text>
</a>
</g>
</g>
<!-- Node23&#45;&gt;Node24 -->
<g id="edge32_Node000023_Node000024" class="edge">
<title>Node23&#45;&gt;Node24</title>
<g id="a_edge32_Node000023_Node000024"><a xlink:title=" ">
<path fill="none" stroke="#63b8ff" d="M1843.86,-80.59C1845.66,-64.94 1848.07,-44.08 1849.43,-32.24"/>
<polygon fill="#63b8ff" stroke="#63b8ff" points="1840.41,-79.91 1842.74,-90.24 1847.36,-80.71 1840.41,-79.91"/>
</a>
</g>
</g>
<!-- Node25&#45;&gt;Node4 -->
<g id="edge36_Node000025_Node000004" class="edge">
<title>Node25&#45;&gt;Node4</title>
<g id="a_edge36_Node000025_Node000004"><a xlink:title=" ">
<path fill="none" stroke="#63b8ff" d="M954.25,-86.2C982.83,-70.39 1027.26,-45.81 1051.43,-32.44"/>
<polygon fill="#63b8ff" stroke="#63b8ff" points="952.89,-82.96 945.83,-90.86 956.28,-89.08 952.89,-82.96"/>
</a>
</g>
</g>
<!-- Node26 -->
<g id="Node000026" class="node">
<title>Node26</title>
<g id="a_Node000026"><a xlink:href="_anti___x_o_8cpp.html" target="_top" xlink:title=" ">
<polygon fill="white" stroke="#666666" points="992.5,-38 886.5,-38 886.5,-6 992.5,-6 992.5,-38"/>
<text xml:space="preserve" text-anchor="start" x="894.5" y="-24.5" font-family="Helvetica,sans-Serif" font-size="10.00">Games/anti_XO/Anti</text>
<text xml:space="preserve" text-anchor="middle" x="939.5" y="-12.5" font-family="Helvetica,sans-Serif" font-size="10.00">_XO.cpp</text>
</a>
</g>
</g>
<!-- Node25&#45;&gt;Node26 -->
<g id="edge35_Node000025_Node000026" class="edge">
<title>Node25&#45;&gt;Node26</title>
<g id="a_edge35_Node000025_Node000026"><a xlink:title=" ">
<path fill="none" stroke="#63b8ff" d="M930.65,-80.51C932.68,-67.32 935.27,-50.47 937.13,-38.42"/>
<polygon fill="#63b8ff" stroke="#63b8ff" points="927.22,-79.83 929.15,-90.25 934.13,-80.9 927.22,-79.83"/>
</a>
</g>
</g>
<!-- Node27&#45;&gt;Node4 -->
<g id="edge39_Node000027_Node000004" class="edge">
<title>Node27&#45;&gt;Node4</title>
<g id="a_edge39_Node000027_Node000004"><a xlink:title=" ">
<path fill="none" stroke="#63b8ff" d="M1958.78,-88.57C1945.65,-85.22 1931.07,-81.98 1917.5,-80 1567.96,-28.91 1469.35,-115.92 1123.5,-44 1111.59,-41.52 1098.87,-36.81 1088.66,-32.48"/>
<polygon fill="#63b8ff" stroke="#63b8ff" points="1957.86,-91.95 1968.43,-91.12 1959.65,-85.18 1957.86,-91.95"/>
</a>
</g>
</g>
<!-- Node28 -->
<g id="Node000028" class="node">
<title>Node28</title>
<g id="a_Node000028"><a xlink:href="dia___x_o_8cpp.html" target="_top" xlink:title=" ">
<polygon fill="white" stroke="#666666" points="2063.75,-38 1941.25,-38 1941.25,-6 2063.75,-6 2063.75,-38"/>
<text xml:space="preserve" text-anchor="start" x="1949.25" y="-24.5" font-family="Helvetica,sans-Serif" font-size="10.00">Games/diamond_XO/dia</text>
<text xml:space="preserve" text-anchor="middle" x="2002.5" y="-12.5" font-family="Helvetica,sans-Serif" font-size="10.00">_XO.cpp</text>
</a>
</g>
</g>
<!-- Node27&#45;&gt;Node28 -->
<g id="edge38_Node000027_Node000028" class="edge">
<title>Node27&#45;&gt;Node28</title>
<g id="a_edge38_Node000027_Node000028"><a xlink:title=" ">
<path fill="none" stroke="#63b8ff" d="M2001.76,-80.51C2001.93,-67.32 2002.15,-50.47 2002.3,-38.42"/>
<polygon fill="#63b8ff" stroke="#63b8ff" points="1998.27,-80.19 2001.64,-90.23 2005.27,-80.28 1998.27,-80.19"/>
</a>
</g>
</g>
<!-- Node29&#45;&gt;Node2 -->
<g id="edge42_Node000029_Node000002" class="edge">
<title>Node29&#45;&gt;Node2</title>
<g id="a_edge42_Node000029_Node000002"><a xlink:title=" ">
<path fill="none" stroke="#63b8ff" d="M954.51,-166.02C926.35,-164.2 889.31,-161.86 856.5,-160 538.83,-142.01 455.35,-176.33 141.5,-124 133.3,-122.63 124.72,-120.67 116.44,-118.48"/>
<polygon fill="#63b8ff" stroke="#63b8ff" points="954.27,-169.52 964.48,-166.67 954.73,-162.53 954.27,-169.52"/>
</a>
</g>
</g>
<!-- Node29&#45;&gt;Node5 -->
<g id="edge43_Node000029_Node000005" class="edge">
<title>Node29&#45;&gt;Node5</title>
<g id="a_edge43_Node000029_Node000005"><a xlink:title=" ">
<path fill="none" stroke="#63b8ff" d="M954.69,-166.15C827.13,-157.94 467.89,-134.21 415.5,-124 408.18,-122.57 400.54,-120.61 393.15,-118.44"/>
<polygon fill="#63b8ff" stroke="#63b8ff" points="954.22,-169.62 964.43,-166.77 954.67,-162.64 954.22,-169.62"/>
</a>
</g>
</g>
<!-- Node29&#45;&gt;Node7 -->
<g id="edge44_Node000029_Node000007" class="edge">
<title>Node29&#45;&gt;Node7</title>
<g id="a_edge44_Node000029_Node000007"><a xlink:title=" ">
<path fill="none" stroke="#63b8ff" d="M955,-165.31C860.21,-157.29 641.03,-137.89 567.5,-124 559.43,-122.48 550.97,-120.51 542.74,-118.4"/>
<polygon fill="#63b8ff" stroke="#63b8ff" points="954.42,-168.77 964.68,-166.12 955.01,-161.8 954.42,-168.77"/>
</a>
</g>
</g>
<!-- Node29&#45;&gt;Node9 -->
<g id="edge45_Node000029_Node000009" class="edge">
<title>Node29&#45;&gt;Node9</title>
<g id="a_edge45_Node000029_Node000009"><a xlink:title=" ">
<path fill="none" stroke="#63b8ff" d="M954.9,-162.8C901.17,-155.05 808.32,-140.75 729.5,-124 721.68,-122.34 713.49,-120.42 705.44,-118.44"/>
<polygon fill="#63b8ff" stroke="#63b8ff" points="954.18,-166.23 964.57,-164.19 955.17,-159.31 954.18,-166.23"/>
</a>
</g>
</g>
<!-- Node29&#45;&gt;Node11 -->
<g id="edge46_Node000029_Node000011" class="edge">
<title>Node29&#45;&gt;Node11</title>
<g id="a_edge46_Node000029_Node000011"><a xlink:title=" ">
<path fill="none" stroke="#63b8ff" d="M954.5,-166.17C926.34,-164.39 889.3,-162.06 856.5,-160 601.83,-143.99 534.76,-168.47 283.5,-124 280.59,-123.48 277.63,-122.89 274.65,-122.24"/>
<polygon fill="#63b8ff" stroke="#63b8ff" points="954.27,-169.66 964.47,-166.79 954.71,-162.67 954.27,-169.66"/>
</a>
</g>
</g>
<!-- Node29&#45;&gt;Node13 -->
<g id="edge47_Node000029_Node000013" class="edge">
<title>Node29&#45;&gt;Node13</title>
<g id="a_edge47_Node000029_Node000013"><a xlink:title=" ">
<path fill="none" stroke="#63b8ff" d="M1044.34,-165.09C1121.82,-158.14 1285.69,-142.6 1423.5,-124 1448.05,-120.69 1475.13,-116.34 1498.04,-112.47"/>
<polygon fill="#63b8ff" stroke="#63b8ff" points="1044.26,-161.58 1034.61,-165.95 1044.89,-168.55 1044.26,-161.58"/>
</a>
</g>
</g>
<!-- Node29&#45;&gt;Node15 -->
<g id="edge48_Node000029_Node000015" class="edge">
<title>Node29&#45;&gt;Node15</title>
<g id="a_edge48_Node000029_Node000015"><a xlink:title=" ">
<path fill="none" stroke="#63b8ff" d="M956.27,-156.31C926.68,-147.51 886.61,-135.38 851.5,-124 840.21,-120.34 827.81,-116.11 817.15,-112.41"/>
<polygon fill="#63b8ff" stroke="#63b8ff" points="955.02,-159.59 965.61,-159.08 957.01,-152.88 955.02,-159.59"/>
</a>
</g>
</g>
<!-- Node29&#45;&gt;Node17 -->
<g id="edge49_Node000029_Node000017" class="edge">
<title>Node29&#45;&gt;Node17</title>
<g id="a_edge49_Node000029_Node000017"><a xlink:title=" ">
<path fill="none" stroke="#63b8ff" d="M1044.41,-169.78C1149.81,-170.76 1420.79,-168.35 1641.5,-124 1648.52,-122.59 1655.84,-120.6 1662.89,-118.41"/>
<polygon fill="#63b8ff" stroke="#63b8ff" points="1044.53,-166.28 1034.49,-169.67 1044.45,-173.28 1044.53,-166.28"/>
</a>
</g>
</g>
<!-- Node29&#45;&gt;Node19 -->
<g id="edge50_Node000029_Node000019" class="edge">
<title>Node29&#45;&gt;Node19</title>
<g id="a_edge50_Node000029_Node000019"><a xlink:title=" ">
<path fill="none" stroke="#63b8ff" d="M1044.38,-163.18C1098.89,-155.75 1193.47,-141.72 1273.5,-124 1280.89,-122.36 1288.64,-120.44 1296.23,-118.43"/>
<polygon fill="#63b8ff" stroke="#63b8ff" points="1043.99,-159.7 1034.55,-164.5 1044.93,-166.64 1043.99,-159.7"/>
</a>
</g>
</g>
<!-- Node29&#45;&gt;Node21 -->
<g id="edge51_Node000029_Node000021" class="edge">
<title>Node29&#45;&gt;Node21</title>
<g id="a_edge51_Node000029_Node000021"><a xlink:title=" ">
<path fill="none" stroke="#63b8ff" d="M1039.59,-156.03C1079.25,-143.2 1138.98,-123.87 1174.33,-112.44"/>
<polygon fill="#63b8ff" stroke="#63b8ff" points="1038.61,-152.67 1030.17,-159.08 1040.76,-159.33 1038.61,-152.67"/>
</a>
</g>
</g>
<!-- Node29&#45;&gt;Node23 -->
<g id="edge52_Node000029_Node000023" class="edge">
<title>Node29&#45;&gt;Node23</title>
<g id="a_edge52_Node000029_Node000023"><a xlink:title=" ">
<path fill="none" stroke="#63b8ff" d="M1044.47,-169.65C1163.2,-170.66 1494.54,-168.88 1765.5,-124 1781.44,-121.36 1798.83,-116.69 1812.95,-112.43"/>
<polygon fill="#63b8ff" stroke="#63b8ff" points="1044.55,-166.15 1034.52,-169.55 1044.48,-173.15 1044.55,-166.15"/>
</a>
</g>
</g>
<!-- Node29&#45;&gt;Node25 -->
<g id="edge53_Node000029_Node000025" class="edge">
<title>Node29&#45;&gt;Node25</title>
<g id="a_edge53_Node000029_Node000025"><a xlink:title=" ">
<path fill="none" stroke="#63b8ff" d="M980.92,-151.97C967.2,-139.39 949.02,-122.72 937.8,-112.44"/>
<polygon fill="#63b8ff" stroke="#63b8ff" points="978.33,-154.34 988.07,-158.52 983.06,-149.18 978.33,-154.34"/>
</a>
</g>
</g>
<!-- Node29&#45;&gt;Node27 -->
<g id="edge54_Node000029_Node000027" class="edge">
<title>Node29&#45;&gt;Node27</title>
<g id="a_edge54_Node000029_Node000027"><a xlink:title=" ">
<path fill="none" stroke="#63b8ff" d="M1044.31,-167.97C1204.16,-164.1 1745.99,-149.39 1917.5,-124 1935.05,-121.4 1954.26,-116.74 1969.88,-112.46"/>
<polygon fill="#63b8ff" stroke="#63b8ff" points="1044.47,-164.46 1034.55,-168.2 1044.63,-171.46 1044.47,-164.46"/>
</a>
</g>
</g>
<!-- Node29&#45;&gt;Node30 -->
<g id="edge55_Node000029_Node000030" class="edge">
<title>Node29&#45;&gt;Node30</title>
<g id="a_edge55_Node000029_Node000030"><a xlink:title=" ">
<path fill="none" stroke="#63b8ff" d="M1017.68,-151.61C1030.79,-139.07 1047.98,-122.63 1058.63,-112.44"/>
<polygon fill="#63b8ff" stroke="#63b8ff" points="1015.29,-149.06 1010.48,-158.5 1020.13,-154.11 1015.29,-149.06"/>
</a>
</g>
</g>
<!-- Node30&#45;&gt;Node4 -->
<g id="edge56_Node000030_Node000004" class="edge">
<title>Node30&#45;&gt;Node4</title>
<g id="a_edge56_Node000030_Node000004"><a xlink:title=" ">
<path fill="none" stroke="#63b8ff" d="M1068.5,-80.59C1068.5,-64.94 1068.5,-44.08 1068.5,-32.24"/>
<polygon fill="#63b8ff" stroke="#63b8ff" points="1065,-80.23 1068.5,-90.23 1072,-80.23 1065,-80.23"/>
</a>
</g>
</g>
<!-- Node31&#45;&gt;Node5 -->
<g id="edge58_Node000031_Node000005" class="edge">
<title>Node31&#45;&gt;Node5</title>
<g id="a_edge58_Node000031_Node000005"><a xlink:title=" ">
<path fill="none" stroke="#63b8ff" d="M729.67,-165.06C653.71,-159.58 524.38,-147.56 415.5,-124 408.45,-122.47 401.08,-120.51 393.92,-118.4"/>
<polygon fill="#63b8ff" stroke="#63b8ff" points="729.2,-168.54 739.42,-165.75 729.69,-161.55 729.2,-168.54"/>
</a>
</g>
</g>
<!-- Node31&#45;&gt;Node7 -->
<g id="edge59_Node000031_Node000007" class="edge">
<title>Node31&#45;&gt;Node7</title>
<g id="a_edge59_Node000031_Node000007"><a xlink:title=" ">
<path fill="none" stroke="#63b8ff" d="M729.85,-157.5C684.28,-149.07 621.92,-136.89 567.5,-124 560.31,-122.3 552.77,-120.38 545.35,-118.41"/>
<polygon fill="#63b8ff" stroke="#63b8ff" points="729.1,-160.92 739.57,-159.28 730.36,-154.03 729.1,-160.92"/>
</a>
</g>
</g>
<!-- Node31&#45;&gt;Node9 -->
<g id="edge60_Node000031_Node000009" class="edge">
<title>Node31&#45;&gt;Node9</title>
<g id="a_edge60_Node000031_Node000009"><a xlink:title=" ">
<path fill="none" stroke="#63b8ff" d="M763.38,-154.93C739.67,-144.21 707.05,-129.47 682.63,-118.43"/>
<polygon fill="#63b8ff" stroke="#63b8ff" points="761.65,-157.99 772.2,-158.92 764.53,-151.61 761.65,-157.99"/>
</a>
</g>
</g>
<!-- Node31&#45;&gt;Node11 -->
<g id="edge61_Node000031_Node000011" class="edge">
<title>Node31&#45;&gt;Node11</title>
<g id="a_edge61_Node000031_Node000011"><a xlink:title=" ">
<path fill="none" stroke="#63b8ff" d="M729.23,-167.42C631.52,-164.11 441.77,-154.06 283.5,-124 280.6,-123.45 277.64,-122.83 274.67,-122.15"/>
<polygon fill="#63b8ff" stroke="#63b8ff" points="729.06,-170.91 739.17,-167.74 729.29,-163.92 729.06,-170.91"/>
</a>
</g>
</g>
<!-- Node31&#45;&gt;Node15 -->
<g id="edge62_Node000031_Node000015" class="edge">
<title>Node31&#45;&gt;Node15</title>
<g id="a_edge62_Node000031_Node000015"><a xlink:title=" ">
<path fill="none" stroke="#63b8ff" d="M793.24,-148.28C792.52,-136.27 791.64,-121.74 791.07,-112.44"/>
<polygon fill="#63b8ff" stroke="#63b8ff" points="789.74,-148.26 793.84,-158.03 796.72,-147.84 789.74,-148.26"/>
</a>
</g>
</g>
<!-- Node31&#45;&gt;Node19 -->
<g id="edge63_Node000031_Node000019" class="edge">
<title>Node31&#45;&gt;Node19</title>
<g id="a_edge63_Node000031_Node000019"><a xlink:title=" ">
<path fill="none" stroke="#63b8ff" d="M859.7,-164.33C971.65,-156.07 1195.87,-138.39 1273.5,-124 1281.48,-122.52 1289.83,-120.58 1297.96,-118.48"/>
<polygon fill="#63b8ff" stroke="#63b8ff" points="859.48,-160.84 849.76,-165.06 859.99,-167.82 859.48,-160.84"/>
</a>
</g>
</g>
<!-- Node31&#45;&gt;Node21 -->
<g id="edge64_Node000031_Node000021" class="edge">
<title>Node31&#45;&gt;Node21</title>
<g id="a_edge64_Node000031_Node000021"><a xlink:title=" ">
<path fill="none" stroke="#63b8ff" d="M859.14,-163.51C927.74,-156.97 1039.07,-144.3 1133.5,-124 1147.64,-120.96 1163.07,-116.46 1175.83,-112.41"/>
<polygon fill="#63b8ff" stroke="#63b8ff" points="859.23,-159.99 849.6,-164.41 859.88,-166.96 859.23,-159.99"/>
</a>
</g>
</g>
<!-- Node31&#45;&gt;Node25 -->
<g id="edge65_Node000031_Node000025" class="edge">
<title>Node31&#45;&gt;Node25</title>
<g id="a_edge65_Node000031_Node000025"><a xlink:title=" ">
<path fill="none" stroke="#63b8ff" d="M823.86,-154.43C849.63,-141.64 886.37,-123.41 908.48,-112.44"/>
<polygon fill="#63b8ff" stroke="#63b8ff" points="822.31,-151.29 814.91,-158.87 825.42,-157.56 822.31,-151.29"/>
</a>
</g>
</g>
<!-- Node31&#45;&gt;Node30 -->
<g id="edge66_Node000031_Node000030" class="edge">
<title>Node31&#45;&gt;Node30</title>
<g id="a_edge66_Node000031_Node000030"><a xlink:title=" ">
<path fill="none" stroke="#63b8ff" d="M856.63,-157.32C898.41,-149.06 954.57,-137.14 1003.5,-124 1016.1,-120.62 1029.87,-116.26 1041.48,-112.4"/>
<polygon fill="#63b8ff" stroke="#63b8ff" points="856.15,-153.85 847.01,-159.21 857.49,-160.72 856.15,-153.85"/>
</a>
</g>
</g>
</g>
</svg>
