<?xml version="1.0" encoding="UTF-8" standalone="no"?>
<!DOCTYPE svg PUBLIC "-//W3C//DTD SVG 1.1//EN"
 "http://www.w3.org/Graphics/SVG/1.1/DTD/svg11.dtd">
<!-- Generated by graphviz version 14.0.2 (20251019.1705)
 -->
<!-- Title: header/Custom_UI.h Pages: 1 -->
<svg width="304pt" height="140pt"
 viewBox="0.00 0.00 304.00 140.00" xmlns="http://www.w3.org/2000/svg" xmlns:xlink="http://www.w3.org/1999/xlink">
<g id="graph0" class="graph" transform="scale(1 1) rotate(0) translate(4 136)">
<title>header/Custom_UI.h</title>
<!-- Node1 -->
<g id="Node000001" class="node">
<title>Node1</title>
<g id="a_Node000001"><a xlink:title="Defines a customizable user interface for board games.">
<polygon fill="#999999" stroke="#666666" points="218.88,-132 112.12,-132 112.12,-112 218.88,-112 218.88,-132"/>
<text xml:space="preserve" text-anchor="middle" x="165.5" y="-118.5" font-family="Helvetica,sans-Serif" font-size="10.00">header/Custom_UI.h</text>
</a>
</g>
</g>
<!-- Node2 -->
<g id="Node000002" class="node">
<title>Node2</title>
<g id="a_Node000002"><a xlink:href="$_board_game___classes_8h.html" xlink:title=" ">
<polygon fill="white" stroke="#666666" points="181.12,-76 63.88,-76 63.88,-56 181.12,-56 181.12,-76"/>
<text xml:space="preserve" text-anchor="middle" x="122.5" y="-62.5" font-family="Helvetica,sans-Serif" font-size="10.00">BoardGame_Classes.h</text>
</a>
</g>
</g>
<!-- Node1&#45;&gt;Node2 -->
<g id="edge1_Node000001_Node000002" class="edge">
<title>Node1&#45;&gt;Node2</title>
<g id="a_edge1_Node000001_Node000002"><a xlink:title=" ">
<path fill="none" stroke="#63b8ff" d="M158.01,-111.59C152.21,-104.32 144.01,-94.02 136.95,-85.15"/>
<polygon fill="#63b8ff" stroke="#63b8ff" points="139.81,-83.12 130.85,-77.48 134.34,-87.49 139.81,-83.12"/>
</a>
</g>
</g>
<!-- Node4 -->
<g id="Node000004" class="node">
<title>Node4</title>
<g id="a_Node000004"><a xlink:title=" ">
<polygon fill="#e0e0e0" stroke="#999999" points="43,-20 0,-20 0,0 43,0 43,-20"/>
<text xml:space="preserve" text-anchor="middle" x="21.5" y="-6.5" font-family="Helvetica,sans-Serif" font-size="10.00">vector</text>
</a>
</g>
</g>
<!-- Node1&#45;&gt;Node4 -->
<g id="edge7_Node000001_Node000004" class="edge">
<title>Node1&#45;&gt;Node4</title>
<g id="a_edge7_Node000001_Node000004"><a xlink:title=" ">
<path fill="none" stroke="#63b8ff" d="M123.09,-111.52C100.55,-104.73 73.64,-93.59 54.5,-76 41.25,-63.83 32.54,-45.12 27.41,-30.9"/>
<polygon fill="#63b8ff" stroke="#63b8ff" points="30.83,-30.1 24.4,-21.69 24.18,-32.28 30.83,-30.1"/>
</a>
</g>
</g>
<!-- Node5 -->
<g id="Node000005" class="node">
<title>Node5</title>
<g id="a_Node000005"><a xlink:title=" ">
<polygon fill="#e0e0e0" stroke="#999999" points="241.25,-20 187.75,-20 187.75,0 241.25,0 241.25,-20"/>
<text xml:space="preserve" text-anchor="middle" x="214.5" y="-6.5" font-family="Helvetica,sans-Serif" font-size="10.00">iostream</text>
</a>
</g>
</g>
<!-- Node1&#45;&gt;Node5 -->
<g id="edge6_Node000001_Node000005" class="edge">
<title>Node1&#45;&gt;Node5</title>
<g id="a_edge6_Node000001_Node000005"><a xlink:title=" ">
<path fill="none" stroke="#63b8ff" d="M171.3,-111.57C176.67,-102.61 184.68,-88.67 190.5,-76 197.26,-61.27 203.56,-44.04 208,-31.02"/>
<polygon fill="#63b8ff" stroke="#63b8ff" points="211.21,-32.47 211.04,-21.87 204.56,-30.26 211.21,-32.47"/>
</a>
</g>
</g>
<!-- Node7 -->
<g id="Node000007" class="node">
<title>Node7</title>
<g id="a_Node000007"><a xlink:title=" ">
<polygon fill="#e0e0e0" stroke="#999999" points="295.88,-76 237.12,-76 237.12,-56 295.88,-56 295.88,-76"/>
<text xml:space="preserve" text-anchor="middle" x="266.5" y="-62.5" font-family="Helvetica,sans-Serif" font-size="10.00">stdexcept</text>
</a>
</g>
</g>
<!-- Node1&#45;&gt;Node7 -->
<g id="edge8_Node000001_Node000007" class="edge">
<title>Node1&#45;&gt;Node7</title>
<g id="a_edge8_Node000001_Node000007"><a xlink:title=" ">
<path fill="none" stroke="#63b8ff" d="M183.09,-111.59C198.42,-103.4 220.92,-91.37 238.69,-81.87"/>
<polygon fill="#63b8ff" stroke="#63b8ff" points="240.27,-84.99 247.44,-77.19 236.97,-78.82 240.27,-84.99"/>
</a>
</g>
</g>
<!-- Node3 -->
<g id="Node000003" class="node">
<title>Node3</title>
<g id="a_Node000003"><a xlink:title=" ">
<polygon fill="#e0e0e0" stroke="#999999" points="101.5,-20 61.5,-20 61.5,0 101.5,0 101.5,-20"/>
<text xml:space="preserve" text-anchor="middle" x="81.5" y="-6.5" font-family="Helvetica,sans-Serif" font-size="10.00">string</text>
</a>
</g>
</g>
<!-- Node2&#45;&gt;Node3 -->
<g id="edge2_Node000002_Node000003" class="edge">
<title>Node2&#45;&gt;Node3</title>
<g id="a_edge2_Node000002_Node000003"><a xlink:title=" ">
<path fill="none" stroke="#63b8ff" d="M115.36,-55.59C109.89,-48.39 102.18,-38.23 95.49,-29.43"/>
<polygon fill="#63b8ff" stroke="#63b8ff" points="98.31,-27.35 89.48,-21.5 92.73,-31.58 98.31,-27.35"/>
</a>
</g>
</g>
<!-- Node2&#45;&gt;Node4 -->
<g id="edge3_Node000002_Node000004" class="edge">
<title>Node2&#45;&gt;Node4</title>
<g id="a_edge3_Node000002_Node000004"><a xlink:title=" ">
<path fill="none" stroke="#63b8ff" d="M104.91,-55.59C89.58,-47.4 67.08,-35.37 49.31,-25.87"/>
<polygon fill="#63b8ff" stroke="#63b8ff" points="51.03,-22.82 40.56,-21.19 47.73,-28.99 51.03,-22.82"/>
</a>
</g>
</g>
<!-- Node2&#45;&gt;Node5 -->
<g id="edge4_Node000002_Node000005" class="edge">
<title>Node2&#45;&gt;Node5</title>
<g id="a_edge4_Node000002_Node000005"><a xlink:title=" ">
<path fill="none" stroke="#63b8ff" d="M138.53,-55.59C152.29,-47.51 172.4,-35.71 188.48,-26.27"/>
<polygon fill="#63b8ff" stroke="#63b8ff" points="190.19,-29.33 197.04,-21.25 186.65,-23.29 190.19,-29.33"/>
</a>
</g>
</g>
<!-- Node6 -->
<g id="Node000006" class="node">
<title>Node6</title>
<g id="a_Node000006"><a xlink:title=" ">
<polygon fill="#e0e0e0" stroke="#999999" points="169.38,-20 119.62,-20 119.62,0 169.38,0 169.38,-20"/>
<text xml:space="preserve" text-anchor="middle" x="144.5" y="-6.5" font-family="Helvetica,sans-Serif" font-size="10.00">iomanip</text>
</a>
</g>
</g>
<!-- Node2&#45;&gt;Node6 -->
<g id="edge5_Node000002_Node000006" class="edge">
<title>Node2&#45;&gt;Node6</title>
<g id="a_edge5_Node000002_Node000006"><a xlink:title=" ">
<path fill="none" stroke="#63b8ff" d="M126.33,-55.59C129.11,-48.78 132.96,-39.32 136.41,-30.86"/>
<polygon fill="#63b8ff" stroke="#63b8ff" points="139.61,-32.28 140.14,-21.7 133.13,-29.64 139.61,-32.28"/>
</a>
</g>
</g>
</g>
</svg>
