<?xml version="1.0" encoding="UTF-8" standalone="no"?>
<!DOCTYPE svg PUBLIC "-//W3C//DTD SVG 1.1//EN"
 "http://www.w3.org/Graphics/SVG/1.1/DTD/svg11.dtd">
<!-- Generated by graphviz version 14.0.2 (20251019.1705)
 -->
<!-- Title: header/Custom_UI.h Pages: 1 -->
<svg width="1282pt" height="188pt"
 viewBox="0.00 0.00 1282.00 188.00" xmlns="http://www.w3.org/2000/svg" xmlns:xlink="http://www.w3.org/1999/xlink">
<g id="graph0" class="graph" transform="scale(1 1) rotate(0) translate(4 184)">
<title>header/Custom_UI.h</title>
<!-- Node1 -->
<g id="Node000001" class="node">
<title>Node1</title>
<g id="a_Node000001"><a xlink:title="Defines a customizable user interface for board games.">
<polygon fill="#999999" stroke="#666666" points="707.5,-180 600.75,-180 600.75,-160 707.5,-160 707.5,-180"/>
<text xml:space="preserve" text-anchor="middle" x="654.12" y="-166.5" font-family="Helvetica,sans-Serif" font-size="10.00">header/Custom_UI.h</text>
</a>
</g>
</g>
<!-- Node2 -->
<g id="Node000002" class="node">
<title>Node2</title>
<g id="a_Node000002"><a xlink:href="four_8h.html" target="_top" xlink:title=" ">
<polygon fill="white" stroke="#666666" points="124.25,-118 10,-118 10,-86 124.25,-86 124.25,-118"/>
<text xml:space="preserve" text-anchor="start" x="18" y="-104.5" font-family="Helvetica,sans-Serif" font-size="10.00">Games/Four_in_a_row</text>
<text xml:space="preserve" text-anchor="middle" x="67.12" y="-92.5" font-family="Helvetica,sans-Serif" font-size="10.00">/four.h</text>
</a>
</g>
</g>
<!-- Node1&#45;&gt;Node2 -->
<g id="edge1_Node000001_Node000002" class="edge">
<title>Node1&#45;&gt;Node2</title>
<g id="a_edge1_Node000001_Node000002"><a xlink:title=" ">
<path fill="none" stroke="#63b8ff" d="M589.13,-167.9C490.06,-165.2 295.74,-155.93 134.12,-124 126.83,-122.56 119.21,-120.61 111.83,-118.48"/>
<polygon fill="#63b8ff" stroke="#63b8ff" points="588.84,-171.39 598.93,-168.15 589.02,-164.39 588.84,-171.39"/>
</a>
</g>
</g>
<!-- Node5 -->
<g id="Node000005" class="node">
<title>Node5</title>
<g id="a_Node000005"><a xlink:href="_large___tic___tac___toe_8h.html" target="_top" xlink:title=" ">
<polygon fill="white" stroke="#666666" points="275.62,-118 142.62,-118 142.62,-86 275.62,-86 275.62,-118"/>
<text xml:space="preserve" text-anchor="start" x="150.62" y="-104.5" font-family="Helvetica,sans-Serif" font-size="10.00">Games/Large_Tic_Tac</text>
<text xml:space="preserve" text-anchor="middle" x="209.12" y="-92.5" font-family="Helvetica,sans-Serif" font-size="10.00">_Toe/Large_Tic_Tac_Toe.h</text>
</a>
</g>
</g>
<!-- Node1&#45;&gt;Node5 -->
<g id="edge4_Node000001_Node000005" class="edge">
<title>Node1&#45;&gt;Node5</title>
<g id="a_edge4_Node000001_Node000005"><a xlink:title=" ">
<path fill="none" stroke="#63b8ff" d="M588.81,-163.98C514.69,-157.61 390.44,-144.85 285.12,-124 277.34,-122.46 269.18,-120.54 261.21,-118.49"/>
<polygon fill="#63b8ff" stroke="#63b8ff" points="588.49,-167.47 598.75,-164.82 589.08,-160.49 588.49,-167.47"/>
</a>
</g>
</g>
<!-- Node7 -->
<g id="Node000007" class="node">
<title>Node7</title>
<g id="a_Node000007"><a xlink:href="_memory___tic___tac___toe_8h.html" target="_top" xlink:title=" ">
<polygon fill="white" stroke="#666666" points="438.25,-118 294,-118 294,-86 438.25,-86 438.25,-118"/>
<text xml:space="preserve" text-anchor="start" x="302" y="-104.5" font-family="Helvetica,sans-Serif" font-size="10.00">Games/Memory_Tic_Tac</text>
<text xml:space="preserve" text-anchor="middle" x="366.12" y="-92.5" font-family="Helvetica,sans-Serif" font-size="10.00">_Toe/Memory_Tic_Tac_Toe.h</text>
</a>
</g>
</g>
<!-- Node1&#45;&gt;Node7 -->
<g id="edge7_Node000001_Node000007" class="edge">
<title>Node1&#45;&gt;Node7</title>
<g id="a_edge7_Node000001_Node000007"><a xlink:title=" ">
<path fill="none" stroke="#63b8ff" d="M596.94,-157.2C555.3,-148.46 497.59,-136.02 447.12,-124 439.78,-122.25 432.07,-120.34 424.46,-118.42"/>
<polygon fill="#63b8ff" stroke="#63b8ff" points="595.98,-160.58 606.48,-159.2 597.41,-153.73 595.98,-160.58"/>
</a>
</g>
</g>
<!-- Node9 -->
<g id="Node000009" class="node">
<title>Node9</title>
<g id="a_Node000009"><a xlink:href="_obstacles___tic___tac___toe_8h.html" target="_top" xlink:title=" ">
<polygon fill="white" stroke="#666666" points="580.12,-124 456.12,-124 456.12,-80 580.12,-80 580.12,-124"/>
<text xml:space="preserve" text-anchor="start" x="464.12" y="-110.5" font-family="Helvetica,sans-Serif" font-size="10.00">Games/Obstacles_Tic</text>
<text xml:space="preserve" text-anchor="start" x="464.12" y="-98.5" font-family="Helvetica,sans-Serif" font-size="10.00">_Tac_Toe/Obstacles_Tic</text>
<text xml:space="preserve" text-anchor="middle" x="518.12" y="-86.5" font-family="Helvetica,sans-Serif" font-size="10.00">_Tac_Toe.h</text>
</a>
</g>
</g>
<!-- Node1&#45;&gt;Node9 -->
<g id="edge10_Node000001_Node000009" class="edge">
<title>Node1&#45;&gt;Node9</title>
<g id="a_edge10_Node000001_Node000009"><a xlink:title=" ">
<path fill="none" stroke="#63b8ff" d="M624.36,-154.56C606.18,-145.73 582.61,-134.29 562.28,-124.43"/>
<polygon fill="#63b8ff" stroke="#63b8ff" points="622.75,-157.67 633.28,-158.88 625.81,-151.37 622.75,-157.67"/>
</a>
</g>
</g>
<!-- Node11 -->
<g id="Node000011" class="node">
<title>Node11</title>
<g id="a_Node000011"><a xlink:href="_s_u_s_8h.html" target="_top" xlink:title=" ">
<polygon fill="white" stroke="#666666" points="832,-112 728.25,-112 728.25,-92 832,-92 832,-112"/>
<text xml:space="preserve" text-anchor="middle" x="780.12" y="-98.5" font-family="Helvetica,sans-Serif" font-size="10.00">Games/SUS/SUS.h</text>
</a>
</g>
</g>
<!-- Node1&#45;&gt;Node11 -->
<g id="edge13_Node000001_Node000011" class="edge">
<title>Node1&#45;&gt;Node11</title>
<g id="a_edge13_Node000001_Node000011"><a xlink:title=" ">
<path fill="none" stroke="#63b8ff" d="M682.26,-154.26C706.67,-141.48 741.26,-123.36 762.11,-112.44"/>
<polygon fill="#63b8ff" stroke="#63b8ff" points="680.75,-151.1 673.52,-158.84 684,-157.3 680.75,-151.1"/>
</a>
</g>
</g>
<!-- Node13 -->
<g id="Node000013" class="node">
<title>Node13</title>
<g id="a_Node000013"><a xlink:href="_word___tic___tac___toe_8h.html" target="_top" xlink:title="Header file for the Word&#45;based Tic&#45;Tac&#45;Toe board, AI, and UI modules.">
<polygon fill="white" stroke="#666666" points="981.88,-118 850.38,-118 850.38,-86 981.88,-86 981.88,-118"/>
<text xml:space="preserve" text-anchor="start" x="858.38" y="-104.5" font-family="Helvetica,sans-Serif" font-size="10.00">Games/Word_Tic_Tac</text>
<text xml:space="preserve" text-anchor="middle" x="916.12" y="-92.5" font-family="Helvetica,sans-Serif" font-size="10.00">_Toe/Word_Tic_Tac_Toe.h</text>
</a>
</g>
</g>
<!-- Node1&#45;&gt;Node13 -->
<g id="edge16_Node000001_Node000013" class="edge">
<title>Node1&#45;&gt;Node13</title>
<g id="a_edge16_Node000001_Node000013"><a xlink:title=" ">
<path fill="none" stroke="#63b8ff" d="M706.63,-156.91C744.19,-148.13 795.88,-135.77 841.12,-124 847.8,-122.26 854.79,-120.39 861.71,-118.49"/>
<polygon fill="#63b8ff" stroke="#63b8ff" points="705.88,-153.49 696.93,-159.17 707.47,-160.31 705.88,-153.49"/>
</a>
</g>
</g>
<!-- Node15 -->
<g id="Node000015" class="node">
<title>Node15</title>
<g id="a_Node000015"><a xlink:href="_x_o__inf_8h.html" target="_top" xlink:title=" ">
<polygon fill="white" stroke="#666666" points="1122,-112 1000.25,-112 1000.25,-92 1122,-92 1122,-112"/>
<text xml:space="preserve" text-anchor="middle" x="1061.12" y="-98.5" font-family="Helvetica,sans-Serif" font-size="10.00">Games/XO_inf/XO_inf.h</text>
</a>
</g>
</g>
<!-- Node1&#45;&gt;Node15 -->
<g id="edge19_Node000001_Node000015" class="edge">
<title>Node1&#45;&gt;Node15</title>
<g id="a_edge19_Node000001_Node000015"><a xlink:title=" ">
<path fill="none" stroke="#63b8ff" d="M719.4,-163.38C787.68,-156.79 897.71,-144.12 991.12,-124 1005.27,-120.96 1020.69,-116.46 1033.46,-112.41"/>
<polygon fill="#63b8ff" stroke="#63b8ff" points="719.11,-159.89 709.49,-164.32 719.78,-166.86 719.11,-159.89"/>
</a>
</g>
</g>
<!-- Node17 -->
<g id="Node000017" class="node">
<title>Node17</title>
<g id="a_Node000017"><a xlink:href="_anti___x_o_8h.html" target="_top" xlink:title=" ">
<polygon fill="white" stroke="#666666" points="1274,-112 1140.25,-112 1140.25,-92 1274,-92 1274,-112"/>
<text xml:space="preserve" text-anchor="middle" x="1207.12" y="-98.5" font-family="Helvetica,sans-Serif" font-size="10.00">Games/anti_XO/Anti_XO.h</text>
</a>
</g>
</g>
<!-- Node1&#45;&gt;Node17 -->
<g id="edge22_Node000001_Node000017" class="edge">
<title>Node1&#45;&gt;Node17</title>
<g id="a_edge22_Node000001_Node000017"><a xlink:title=" ">
<path fill="none" stroke="#63b8ff" d="M719.23,-166.48C811.52,-162.09 985.4,-150.79 1131.12,-124 1146.74,-121.13 1163.81,-116.55 1177.81,-112.4"/>
<polygon fill="#63b8ff" stroke="#63b8ff" points="719.18,-162.98 709.35,-166.94 719.5,-169.97 719.18,-162.98"/>
</a>
</g>
</g>
<!-- Node19 -->
<g id="Node000019" class="node">
<title>Node19</title>
<g id="a_Node000019"><a xlink:href="_x_o___classes_8h.html" target="_top" xlink:title=" ">
<polygon fill="white" stroke="#666666" points="710.12,-112 598.12,-112 598.12,-92 710.12,-92 710.12,-112"/>
<text xml:space="preserve" text-anchor="middle" x="654.12" y="-98.5" font-family="Helvetica,sans-Serif" font-size="10.00">header/XO_Classes.h</text>
</a>
</g>
</g>
<!-- Node1&#45;&gt;Node19 -->
<g id="edge25_Node000001_Node000019" class="edge">
<title>Node1&#45;&gt;Node19</title>
<g id="a_edge25_Node000001_Node000019"><a xlink:title=" ">
<path fill="none" stroke="#63b8ff" d="M654.12,-148.28C654.12,-136.27 654.12,-121.74 654.12,-112.44"/>
<polygon fill="#63b8ff" stroke="#63b8ff" points="650.63,-148.03 654.13,-158.03 657.63,-148.03 650.63,-148.03"/>
</a>
</g>
</g>
<!-- Node3 -->
<g id="Node000003" class="node">
<title>Node3</title>
<g id="a_Node000003"><a xlink:href="four_8cpp.html" target="_top" xlink:title=" ">
<polygon fill="white" stroke="#666666" points="114.25,-38 0,-38 0,-6 114.25,-6 114.25,-38"/>
<text xml:space="preserve" text-anchor="start" x="8" y="-24.5" font-family="Helvetica,sans-Serif" font-size="10.00">Games/Four_in_a_row</text>
<text xml:space="preserve" text-anchor="middle" x="57.12" y="-12.5" font-family="Helvetica,sans-Serif" font-size="10.00">/four.cpp</text>
</a>
</g>
</g>
<!-- Node2&#45;&gt;Node3 -->
<g id="edge2_Node000002_Node000003" class="edge">
<title>Node2&#45;&gt;Node3</title>
<g id="a_edge2_Node000002_Node000003"><a xlink:title=" ">
<path fill="none" stroke="#63b8ff" d="M63.71,-74.37C62.17,-62.37 60.41,-48.63 59.1,-38.38"/>
<polygon fill="#63b8ff" stroke="#63b8ff" points="60.21,-74.61 64.96,-84.09 67.16,-73.72 60.21,-74.61"/>
</a>
</g>
</g>
<!-- Node4 -->
<g id="Node000004" class="node">
<title>Node4</title>
<g id="a_Node000004"><a xlink:href="_the_game_8cpp.html" target="_top" xlink:title=" ">
<polygon fill="white" stroke="#666666" points="692.88,-32 615.38,-32 615.38,-12 692.88,-12 692.88,-32"/>
<text xml:space="preserve" text-anchor="middle" x="654.12" y="-18.5" font-family="Helvetica,sans-Serif" font-size="10.00">TheGame.cpp</text>
</a>
</g>
</g>
<!-- Node2&#45;&gt;Node4 -->
<g id="edge3_Node000002_Node000004" class="edge">
<title>Node2&#45;&gt;Node4</title>
<g id="a_edge3_Node000002_Node000004"><a xlink:title=" ">
<path fill="none" stroke="#63b8ff" d="M122.46,-82.6C126.38,-81.62 130.3,-80.74 134.12,-80 337.66,-40.75 396.88,-89.44 599.12,-44 610.89,-41.36 623.5,-36.69 633.67,-32.42"/>
<polygon fill="#63b8ff" stroke="#63b8ff" points="121.66,-79.19 112.92,-85.17 123.48,-85.95 121.66,-79.19"/>
</a>
</g>
</g>
<!-- Node5&#45;&gt;Node4 -->
<g id="edge6_Node000005_Node000004" class="edge">
<title>Node5&#45;&gt;Node4</title>
<g id="a_edge6_Node000005_Node000004"><a xlink:title=" ">
<path fill="none" stroke="#63b8ff" d="M271.87,-82.85C276.34,-81.81 280.79,-80.84 285.12,-80 423.02,-53.21 462.66,-77.31 599.12,-44 610.64,-41.19 623.02,-36.61 633.1,-32.45"/>
<polygon fill="#63b8ff" stroke="#63b8ff" points="271.14,-79.42 262.26,-85.21 272.81,-86.22 271.14,-79.42"/>
</a>
</g>
</g>
<!-- Node6 -->
<g id="Node000006" class="node">
<title>Node6</title>
<g id="a_Node000006"><a xlink:href="_large___tic___tac___toe_8cpp.html" target="_top" xlink:title=" ">
<polygon fill="white" stroke="#666666" points="275.88,-38 132.38,-38 132.38,-6 275.88,-6 275.88,-38"/>
<text xml:space="preserve" text-anchor="start" x="140.38" y="-24.5" font-family="Helvetica,sans-Serif" font-size="10.00">Games/Large_Tic_Tac</text>
<text xml:space="preserve" text-anchor="middle" x="204.12" y="-12.5" font-family="Helvetica,sans-Serif" font-size="10.00">_Toe/Large_Tic_Tac_Toe.cpp</text>
</a>
</g>
</g>
<!-- Node5&#45;&gt;Node6 -->
<g id="edge5_Node000005_Node000006" class="edge">
<title>Node5&#45;&gt;Node6</title>
<g id="a_edge5_Node000005_Node000006"><a xlink:title=" ">
<path fill="none" stroke="#63b8ff" d="M207.42,-74.37C206.65,-62.37 205.77,-48.63 205.11,-38.38"/>
<polygon fill="#63b8ff" stroke="#63b8ff" points="203.91,-74.32 208.04,-84.08 210.89,-73.88 203.91,-74.32"/>
</a>
</g>
</g>
<!-- Node7&#45;&gt;Node4 -->
<g id="edge9_Node000007_Node000004" class="edge">
<title>Node7&#45;&gt;Node4</title>
<g id="a_edge9_Node000007_Node000004"><a xlink:title=" ">
<path fill="none" stroke="#63b8ff" d="M435.78,-82.84C439.62,-81.87 443.42,-80.92 447.12,-80 514.51,-63.29 532.77,-64.43 599.12,-44 609.87,-40.69 621.54,-36.35 631.35,-32.47"/>
<polygon fill="#63b8ff" stroke="#63b8ff" points="435.22,-79.37 426.39,-85.23 436.95,-86.15 435.22,-79.37"/>
</a>
</g>
</g>
<!-- Node8 -->
<g id="Node000008" class="node">
<title>Node8</title>
<g id="a_Node000008"><a xlink:href="_memory___tic___tac___toe_8cpp.html" target="_top" xlink:title=" ">
<polygon fill="white" stroke="#666666" points="448.5,-38 293.75,-38 293.75,-6 448.5,-6 448.5,-38"/>
<text xml:space="preserve" text-anchor="start" x="301.75" y="-24.5" font-family="Helvetica,sans-Serif" font-size="10.00">Games/Memory_Tic_Tac</text>
<text xml:space="preserve" text-anchor="middle" x="371.12" y="-12.5" font-family="Helvetica,sans-Serif" font-size="10.00">_Toe/Memory_Tic_Tac_Toe.cpp</text>
</a>
</g>
</g>
<!-- Node7&#45;&gt;Node8 -->
<g id="edge8_Node000007_Node000008" class="edge">
<title>Node7&#45;&gt;Node8</title>
<g id="a_edge8_Node000007_Node000008"><a xlink:title=" ">
<path fill="none" stroke="#63b8ff" d="M367.83,-74.37C368.6,-62.37 369.48,-48.63 370.14,-38.38"/>
<polygon fill="#63b8ff" stroke="#63b8ff" points="364.36,-73.88 367.21,-84.08 371.34,-74.32 364.36,-73.88"/>
</a>
</g>
</g>
<!-- Node9&#45;&gt;Node4 -->
<g id="edge12_Node000009_Node000004" class="edge">
<title>Node9&#45;&gt;Node4</title>
<g id="a_edge12_Node000009_Node000004"><a xlink:title=" ">
<path fill="none" stroke="#63b8ff" d="M565.04,-74.09C590.2,-59.66 619.63,-42.78 637.57,-32.5"/>
<polygon fill="#63b8ff" stroke="#63b8ff" points="563.53,-70.92 556.6,-78.93 567.02,-76.99 563.53,-70.92"/>
</a>
</g>
</g>
<!-- Node10 -->
<g id="Node000010" class="node">
<title>Node10</title>
<g id="a_Node000010"><a xlink:href="_obstacles___tic___tac___toe_8cpp.html" target="_top" xlink:title=" ">
<polygon fill="white" stroke="#666666" points="590.12,-44 466.12,-44 466.12,0 590.12,0 590.12,-44"/>
<text xml:space="preserve" text-anchor="start" x="474.12" y="-30.5" font-family="Helvetica,sans-Serif" font-size="10.00">Games/Obstacles_Tic</text>
<text xml:space="preserve" text-anchor="start" x="474.12" y="-18.5" font-family="Helvetica,sans-Serif" font-size="10.00">_Tac_Toe/Obstacles_Tic</text>
<text xml:space="preserve" text-anchor="middle" x="528.12" y="-6.5" font-family="Helvetica,sans-Serif" font-size="10.00">_Tac_Toe.cpp</text>
</a>
</g>
</g>
<!-- Node9&#45;&gt;Node10 -->
<g id="edge11_Node000009_Node000010" class="edge">
<title>Node9&#45;&gt;Node10</title>
<g id="a_edge11_Node000009_Node000010"><a xlink:title=" ">
<path fill="none" stroke="#63b8ff" d="M522.29,-68.53C523.34,-60.35 524.44,-51.77 525.4,-44.29"/>
<polygon fill="#63b8ff" stroke="#63b8ff" points="518.85,-67.82 521.05,-78.18 525.79,-68.71 518.85,-67.82"/>
</a>
</g>
</g>
<!-- Node11&#45;&gt;Node4 -->
<g id="edge15_Node000011_Node000004" class="edge">
<title>Node11&#45;&gt;Node4</title>
<g id="a_edge15_Node000011_Node000004"><a xlink:title=" ">
<path fill="none" stroke="#63b8ff" d="M755.48,-85.74C729.95,-69.94 690.85,-45.74 669.45,-32.49"/>
<polygon fill="#63b8ff" stroke="#63b8ff" points="753.54,-88.66 763.89,-90.95 757.23,-82.71 753.54,-88.66"/>
</a>
</g>
</g>
<!-- Node12 -->
<g id="Node000012" class="node">
<title>Node12</title>
<g id="a_Node000012"><a xlink:href="_s_u_s_8cpp.html" target="_top" xlink:title=" ">
<polygon fill="white" stroke="#666666" points="827.25,-32 713,-32 713,-12 827.25,-12 827.25,-32"/>
<text xml:space="preserve" text-anchor="middle" x="770.12" y="-18.5" font-family="Helvetica,sans-Serif" font-size="10.00">Games/SUS/SUS.cpp</text>
</a>
</g>
</g>
<!-- Node11&#45;&gt;Node12 -->
<g id="edge14_Node000011_Node000012" class="edge">
<title>Node11&#45;&gt;Node12</title>
<g id="a_edge14_Node000011_Node000012"><a xlink:title=" ">
<path fill="none" stroke="#63b8ff" d="M777.51,-80.59C775.5,-64.94 772.83,-44.08 771.31,-32.24"/>
<polygon fill="#63b8ff" stroke="#63b8ff" points="774,-80.77 778.75,-90.24 780.95,-79.88 774,-80.77"/>
</a>
</g>
</g>
<!-- Node13&#45;&gt;Node4 -->
<g id="edge18_Node000013_Node000004" class="edge">
<title>Node13&#45;&gt;Node4</title>
<g id="a_edge18_Node000013_Node000004"><a xlink:title=" ">
<path fill="none" stroke="#63b8ff" d="M850.47,-82.55C847.31,-81.68 844.18,-80.83 841.12,-80 780.37,-63.51 763.74,-64.24 704.12,-44 694.32,-40.67 683.71,-36.33 674.79,-32.45"/>
<polygon fill="#63b8ff" stroke="#63b8ff" points="849.24,-85.84 859.81,-85.13 851.1,-79.09 849.24,-85.84"/>
</a>
</g>
</g>
<!-- Node14 -->
<g id="Node000014" class="node">
<title>Node14</title>
<g id="a_Node000014"><a xlink:href="_word___tic___tac___toe_8cpp.html" target="_top" xlink:title=" ">
<polygon fill="white" stroke="#666666" points="987.12,-38 845.12,-38 845.12,-6 987.12,-6 987.12,-38"/>
<text xml:space="preserve" text-anchor="start" x="853.12" y="-24.5" font-family="Helvetica,sans-Serif" font-size="10.00">Games/Word_Tic_Tac</text>
<text xml:space="preserve" text-anchor="middle" x="916.12" y="-12.5" font-family="Helvetica,sans-Serif" font-size="10.00">_Toe/Word_Tic_Tac_Toe.cpp</text>
</a>
</g>
</g>
<!-- Node13&#45;&gt;Node14 -->
<g id="edge17_Node000013_Node000014" class="edge">
<title>Node13&#45;&gt;Node14</title>
<g id="a_edge17_Node000013_Node000014"><a xlink:title=" ">
<path fill="none" stroke="#63b8ff" d="M916.12,-74.37C916.12,-62.37 916.12,-48.63 916.12,-38.38"/>
<polygon fill="#63b8ff" stroke="#63b8ff" points="912.63,-74.08 916.13,-84.08 919.63,-74.08 912.63,-74.08"/>
</a>
</g>
</g>
<!-- Node15&#45;&gt;Node4 -->
<g id="edge21_Node000015_Node000004" class="edge">
<title>Node15&#45;&gt;Node4</title>
<g id="a_edge21_Node000015_Node000004"><a xlink:title=" ">
<path fill="none" stroke="#63b8ff" d="M1022.48,-88.15C1012.36,-85.14 1001.41,-82.17 991.12,-80 865.34,-53.44 828.32,-77.2 704.12,-44 693.57,-41.18 682.32,-36.6 673.16,-32.44"/>
<polygon fill="#63b8ff" stroke="#63b8ff" points="1021.43,-91.49 1032.02,-91.1 1023.5,-84.8 1021.43,-91.49"/>
</a>
</g>
</g>
<!-- Node16 -->
<g id="Node000016" class="node">
<title>Node16</title>
<g id="a_Node000016"><a xlink:href="_x_o__inf_8cpp.html" target="_top" xlink:title=" ">
<polygon fill="white" stroke="#666666" points="1137.25,-32 1005,-32 1005,-12 1137.25,-12 1137.25,-32"/>
<text xml:space="preserve" text-anchor="middle" x="1071.12" y="-18.5" font-family="Helvetica,sans-Serif" font-size="10.00">Games/XO_inf/XO_inf.cpp</text>
</a>
</g>
</g>
<!-- Node15&#45;&gt;Node16 -->
<g id="edge20_Node000015_Node000016" class="edge">
<title>Node15&#45;&gt;Node16</title>
<g id="a_edge20_Node000015_Node000016"><a xlink:title=" ">
<path fill="none" stroke="#63b8ff" d="M1063.74,-80.59C1065.75,-64.94 1068.42,-44.08 1069.94,-32.24"/>
<polygon fill="#63b8ff" stroke="#63b8ff" points="1060.3,-79.88 1062.5,-90.24 1067.25,-80.77 1060.3,-79.88"/>
</a>
</g>
</g>
<!-- Node17&#45;&gt;Node4 -->
<g id="edge24_Node000017_Node000004" class="edge">
<title>Node17&#45;&gt;Node4</title>
<g id="a_edge24_Node000017_Node000004"><a xlink:title=" ">
<path fill="none" stroke="#63b8ff" d="M1166.82,-88.37C1155.38,-85.19 1142.85,-82.1 1131.12,-80 943.64,-46.49 889.08,-89.43 704.12,-44 693.34,-41.35 681.87,-36.68 672.64,-32.42"/>
<polygon fill="#63b8ff" stroke="#63b8ff" points="1165.79,-91.71 1176.37,-91.12 1167.73,-84.99 1165.79,-91.71"/>
</a>
</g>
</g>
<!-- Node18 -->
<g id="Node000018" class="node">
<title>Node18</title>
<g id="a_Node000018"><a xlink:href="_anti___x_o_8cpp.html" target="_top" xlink:title=" ">
<polygon fill="white" stroke="#666666" points="1261.12,-38 1155.12,-38 1155.12,-6 1261.12,-6 1261.12,-38"/>
<text xml:space="preserve" text-anchor="start" x="1163.12" y="-24.5" font-family="Helvetica,sans-Serif" font-size="10.00">Games/anti_XO/Anti</text>
<text xml:space="preserve" text-anchor="middle" x="1208.12" y="-12.5" font-family="Helvetica,sans-Serif" font-size="10.00">_XO.cpp</text>
</a>
</g>
</g>
<!-- Node17&#45;&gt;Node18 -->
<g id="edge23_Node000017_Node000018" class="edge">
<title>Node17&#45;&gt;Node18</title>
<g id="a_edge23_Node000017_Node000018"><a xlink:title=" ">
<path fill="none" stroke="#63b8ff" d="M1207.39,-80.51C1207.56,-67.32 1207.77,-50.47 1207.93,-38.42"/>
<polygon fill="#63b8ff" stroke="#63b8ff" points="1203.89,-80.19 1207.26,-90.23 1210.89,-80.28 1203.89,-80.19"/>
</a>
</g>
</g>
<!-- Node19&#45;&gt;Node4 -->
<g id="edge26_Node000019_Node000004" class="edge">
<title>Node19&#45;&gt;Node4</title>
<g id="a_edge26_Node000019_Node000004"><a xlink:title=" ">
<path fill="none" stroke="#63b8ff" d="M654.12,-80.59C654.12,-64.94 654.12,-44.08 654.12,-32.24"/>
<polygon fill="#63b8ff" stroke="#63b8ff" points="650.63,-80.23 654.13,-90.23 657.63,-80.23 650.63,-80.23"/>
</a>
</g>
</g>
</g>
</svg>
