<?xml version="1.0" encoding="UTF-8" standalone="no"?>
<!DOCTYPE svg PUBLIC "-//W3C//DTD SVG 1.1//EN"
 "http://www.w3.org/Graphics/SVG/1.1/DTD/svg11.dtd">
<!-- Generated by graphviz version 14.0.2 (20251019.1705)
 -->
<!-- Title: Games/Large_Tic_Tac_Toe/Large_Tic_Tac_Toe.cpp Pages: 1 -->
<svg width="1107pt" height="344pt"
 viewBox="0.00 0.00 1107.00 344.00" xmlns="http://www.w3.org/2000/svg" xmlns:xlink="http://www.w3.org/1999/xlink">
<g id="graph0" class="graph" transform="scale(1 1) rotate(0) translate(4 340)">
<title>Games/Large_Tic_Tac_Toe/Large_Tic_Tac_Toe.cpp</title>
<!-- Node1 -->
<g id="Node000001" class="node">
<title>Node1</title>
<g id="a_Node000001"><a xlink:title=" ">
<polygon fill="#999999" stroke="#666666" points="802.47,-336 658.97,-336 658.97,-304 802.47,-304 802.47,-336"/>
<text xml:space="preserve" text-anchor="start" x="666.97" y="-322.5" font-family="Helvetica,sans-Serif" font-size="10.00">Games/Large_Tic_Tac</text>
<text xml:space="preserve" text-anchor="middle" x="730.72" y="-310.5" font-family="Helvetica,sans-Serif" font-size="10.00">_Toe/Large_Tic_Tac_Toe.cpp</text>
</a>
</g>
</g>
<!-- Node2 -->
<g id="Node000002" class="node">
<title>Node2</title>
<g id="a_Node000002"><a xlink:href="_large___tic___tac___toe_8h.html" target="_top" xlink:title=" ">
<polygon fill="white" stroke="#666666" points="631.22,-268 522.22,-268 522.22,-248 631.22,-248 631.22,-268"/>
<text xml:space="preserve" text-anchor="middle" x="576.72" y="-254.5" font-family="Helvetica,sans-Serif" font-size="10.00">Large_Tic_Tac_Toe.h</text>
</a>
</g>
</g>
<!-- Node1&#45;&gt;Node2 -->
<g id="edge1_Node000001_Node000002" class="edge">
<title>Node1&#45;&gt;Node2</title>
<g id="a_edge1_Node000001_Node000002"><a xlink:title=" ">
<path fill="none" stroke="#63b8ff" d="M691.06,-303.55C666.44,-293.96 635.1,-281.75 611.46,-272.54"/>
<polygon fill="#63b8ff" stroke="#63b8ff" points="612.87,-269.33 602.28,-268.96 610.33,-275.85 612.87,-269.33"/>
</a>
</g>
</g>
<!-- Node4 -->
<g id="Node000004" class="node">
<title>Node4</title>
<g id="a_Node000004"><a xlink:title=" ">
<polygon fill="#e0e0e0" stroke="#999999" points="317.72,-76 277.72,-76 277.72,-56 317.72,-56 317.72,-76"/>
<text xml:space="preserve" text-anchor="middle" x="297.72" y="-62.5" font-family="Helvetica,sans-Serif" font-size="10.00">string</text>
</a>
</g>
</g>
<!-- Node1&#45;&gt;Node4 -->
<g id="edge32_Node000001_Node000004" class="edge">
<title>Node1&#45;&gt;Node4</title>
<g id="a_edge32_Node000001_Node000004"><a xlink:title=" ">
<path fill="none" stroke="#63b8ff" d="M658.48,-310.58C551,-296.46 356.87,-264.3 312.72,-212 282.88,-176.65 288.01,-117.84 293.38,-87.11"/>
<polygon fill="#63b8ff" stroke="#63b8ff" points="296.75,-88.11 295.23,-77.62 289.88,-86.77 296.75,-88.11"/>
</a>
</g>
</g>
<!-- Node6 -->
<g id="Node000006" class="node">
<title>Node6</title>
<g id="a_Node000006"><a xlink:title=" ">
<polygon fill="#e0e0e0" stroke="#999999" points="339.47,-20 285.97,-20 285.97,0 339.47,0 339.47,-20"/>
<text xml:space="preserve" text-anchor="middle" x="312.72" y="-6.5" font-family="Helvetica,sans-Serif" font-size="10.00">iostream</text>
</a>
</g>
</g>
<!-- Node1&#45;&gt;Node6 -->
<g id="edge30_Node000001_Node000006" class="edge">
<title>Node1&#45;&gt;Node6</title>
<g id="a_edge30_Node000001_Node000006"><a xlink:title=" ">
<path fill="none" stroke="#63b8ff" d="M658.64,-313.85C480.85,-300.2 35.72,-259.75 35.72,-197 35.72,-197 35.72,-197 35.72,-127 35.72,-94.33 30.62,-78.05 54.72,-56 62.79,-48.62 204.42,-26.92 274.32,-16.59"/>
<polygon fill="#63b8ff" stroke="#63b8ff" points="274.82,-20.06 284.2,-15.14 273.8,-13.13 274.82,-20.06"/>
</a>
</g>
</g>
<!-- Node7 -->
<g id="Node000007" class="node">
<title>Node7</title>
<g id="a_Node000007"><a xlink:title=" ">
<polygon fill="#e0e0e0" stroke="#999999" points="719.6,-76 669.85,-76 669.85,-56 719.6,-56 719.6,-76"/>
<text xml:space="preserve" text-anchor="middle" x="694.72" y="-62.5" font-family="Helvetica,sans-Serif" font-size="10.00">iomanip</text>
</a>
</g>
</g>
<!-- Node1&#45;&gt;Node7 -->
<g id="edge31_Node000001_Node000007" class="edge">
<title>Node1&#45;&gt;Node7</title>
<g id="a_edge31_Node000001_Node000007"><a xlink:title=" ">
<path fill="none" stroke="#63b8ff" d="M728.52,-303.62C722.33,-260.26 704.73,-137.02 697.68,-87.74"/>
<polygon fill="#63b8ff" stroke="#63b8ff" points="701.16,-87.31 696.28,-77.91 694.23,-88.3 701.16,-87.31"/>
</a>
</g>
</g>
<!-- Node9 -->
<g id="Node000009" class="node">
<title>Node9</title>
<g id="a_Node000009"><a xlink:title=" ">
<polygon fill="#e0e0e0" stroke="#999999" points="236.1,-20 177.35,-20 177.35,0 236.1,0 236.1,-20"/>
<text xml:space="preserve" text-anchor="middle" x="206.72" y="-6.5" font-family="Helvetica,sans-Serif" font-size="10.00">stdexcept</text>
</a>
</g>
</g>
<!-- Node1&#45;&gt;Node9 -->
<g id="edge34_Node000001_Node000009" class="edge">
<title>Node1&#45;&gt;Node9</title>
<g id="a_edge34_Node000001_Node000009"><a xlink:title=" ">
<path fill="none" stroke="#63b8ff" d="M658.7,-315.91C524.89,-309.63 242.95,-293.77 148.72,-268 93.11,-252.8 65.93,-258.41 31.72,-212 -9.43,-156.17 -13.02,-105.34 35.72,-56 38.07,-53.63 116.18,-33.7 166.01,-21.17"/>
<polygon fill="#63b8ff" stroke="#63b8ff" points="166.77,-24.59 175.62,-18.76 165.07,-17.8 166.77,-24.59"/>
</a>
</g>
</g>
<!-- Node16 -->
<g id="Node000016" class="node">
<title>Node16</title>
<g id="a_Node000016"><a xlink:title=" ">
<polygon fill="#e0e0e0" stroke="#999999" points="694.35,-206 643.1,-206 643.1,-186 694.35,-186 694.35,-206"/>
<text xml:space="preserve" text-anchor="middle" x="668.72" y="-192.5" font-family="Helvetica,sans-Serif" font-size="10.00">memory</text>
</a>
</g>
</g>
<!-- Node1&#45;&gt;Node16 -->
<g id="edge36_Node000001_Node000016" class="edge">
<title>Node1&#45;&gt;Node16</title>
<g id="a_edge36_Node000001_Node000016"><a xlink:title=" ">
<path fill="none" stroke="#63b8ff" d="M717.38,-303.78C709.38,-294.06 699.49,-280.91 692.72,-268 684.13,-251.62 677.68,-231.53 673.64,-216.91"/>
<polygon fill="#63b8ff" stroke="#63b8ff" points="677.11,-216.37 671.2,-207.58 670.34,-218.14 677.11,-216.37"/>
</a>
</g>
</g>
<!-- Node17 -->
<g id="Node000017" class="node">
<title>Node17</title>
<g id="a_Node000017"><a xlink:title=" ">
<polygon fill="#e0e0e0" stroke="#999999" points="774.35,-268 735.1,-268 735.1,-248 774.35,-248 774.35,-268"/>
<text xml:space="preserve" text-anchor="middle" x="754.72" y="-254.5" font-family="Helvetica,sans-Serif" font-size="10.00">limits</text>
</a>
</g>
</g>
<!-- Node1&#45;&gt;Node17 -->
<g id="edge33_Node000001_Node000017" class="edge">
<title>Node1&#45;&gt;Node17</title>
<g id="a_edge33_Node000001_Node000017"><a xlink:title=" ">
<path fill="none" stroke="#63b8ff" d="M736.9,-303.55C739.89,-296.08 743.51,-287.03 746.7,-279.04"/>
<polygon fill="#63b8ff" stroke="#63b8ff" points="749.93,-280.4 750.4,-269.81 743.43,-277.8 749.93,-280.4"/>
</a>
</g>
</g>
<!-- Node18 -->
<g id="Node000018" class="node">
<title>Node18</title>
<g id="a_Node000018"><a xlink:title=" ">
<polygon fill="#e0e0e0" stroke="#999999" points="848.6,-268 792.85,-268 792.85,-248 848.6,-248 848.6,-268"/>
<text xml:space="preserve" text-anchor="middle" x="820.72" y="-254.5" font-family="Helvetica,sans-Serif" font-size="10.00">algorithm</text>
</a>
</g>
</g>
<!-- Node1&#45;&gt;Node18 -->
<g id="edge35_Node000001_Node000018" class="edge">
<title>Node1&#45;&gt;Node18</title>
<g id="a_edge35_Node000001_Node000018"><a xlink:title=" ">
<path fill="none" stroke="#63b8ff" d="M753.9,-303.55C767.18,-294.69 783.81,-283.61 797.15,-274.71"/>
<polygon fill="#63b8ff" stroke="#63b8ff" points="798.97,-277.71 805.35,-269.25 795.09,-271.88 798.97,-277.71"/>
</a>
</g>
</g>
<!-- Node19 -->
<g id="Node000019" class="node">
<title>Node19</title>
<g id="a_Node000019"><a xlink:title=" ">
<polygon fill="#e0e0e0" stroke="#999999" points="912.35,-268 867.1,-268 867.1,-248 912.35,-248 912.35,-268"/>
<text xml:space="preserve" text-anchor="middle" x="889.72" y="-254.5" font-family="Helvetica,sans-Serif" font-size="10.00">cstdint</text>
</a>
</g>
</g>
<!-- Node1&#45;&gt;Node19 -->
<g id="edge37_Node000001_Node000019" class="edge">
<title>Node1&#45;&gt;Node19</title>
<g id="a_edge37_Node000001_Node000019"><a xlink:title=" ">
<path fill="none" stroke="#63b8ff" d="M771.67,-303.55C797.84,-293.67 831.37,-281.02 856,-271.73"/>
<polygon fill="#63b8ff" stroke="#63b8ff" points="857.1,-275.05 865.22,-268.25 854.63,-268.5 857.1,-275.05"/>
</a>
</g>
</g>
<!-- Node20 -->
<g id="Node000020" class="node">
<title>Node20</title>
<g id="a_Node000020"><a xlink:title=" ">
<polygon fill="#e0e0e0" stroke="#999999" points="974.97,-268 930.47,-268 930.47,-248 974.97,-248 974.97,-268"/>
<text xml:space="preserve" text-anchor="middle" x="952.72" y="-254.5" font-family="Helvetica,sans-Serif" font-size="10.00">cstdlib</text>
</a>
</g>
</g>
<!-- Node1&#45;&gt;Node20 -->
<g id="edge38_Node000001_Node000020" class="edge">
<title>Node1&#45;&gt;Node20</title>
<g id="a_edge38_Node000001_Node000020"><a xlink:title=" ">
<path fill="none" stroke="#63b8ff" d="M789.75,-303.59C824.88,-294.34 870.61,-282.16 919.02,-268.71"/>
<polygon fill="#63b8ff" stroke="#63b8ff" points="919.9,-272.1 928.59,-266.05 918.02,-265.36 919.9,-272.1"/>
</a>
</g>
</g>
<!-- Node21 -->
<g id="Node000021" class="node">
<title>Node21</title>
<g id="a_Node000021"><a xlink:title=" ">
<polygon fill="#e0e0e0" stroke="#999999" points="1032.72,-268 992.72,-268 992.72,-248 1032.72,-248 1032.72,-268"/>
<text xml:space="preserve" text-anchor="middle" x="1012.72" y="-254.5" font-family="Helvetica,sans-Serif" font-size="10.00">ctime</text>
</a>
</g>
</g>
<!-- Node1&#45;&gt;Node21 -->
<g id="edge39_Node000001_Node000021" class="edge">
<title>Node1&#45;&gt;Node21</title>
<g id="a_edge39_Node000001_Node000021"><a xlink:title=" ">
<path fill="none" stroke="#63b8ff" d="M802.87,-306.48C851.04,-297.66 915.98,-284.87 981.56,-268.35"/>
<polygon fill="#63b8ff" stroke="#63b8ff" points="982.22,-271.8 991.05,-265.93 980.49,-265.01 982.22,-271.8"/>
</a>
</g>
</g>
<!-- Node22 -->
<g id="Node000022" class="node">
<title>Node22</title>
<g id="a_Node000022"><a xlink:title=" ">
<polygon fill="#e0e0e0" stroke="#999999" points="1098.85,-268 1050.6,-268 1050.6,-248 1098.85,-248 1098.85,-268"/>
<text xml:space="preserve" text-anchor="middle" x="1074.72" y="-254.5" font-family="Helvetica,sans-Serif" font-size="10.00">random</text>
</a>
</g>
</g>
<!-- Node1&#45;&gt;Node22 -->
<g id="edge40_Node000001_Node000022" class="edge">
<title>Node1&#45;&gt;Node22</title>
<g id="a_edge40_Node000001_Node000022"><a xlink:title=" ">
<path fill="none" stroke="#63b8ff" d="M802.77,-309.35C863.46,-300.72 952.77,-286.89 1039.21,-268.37"/>
<polygon fill="#63b8ff" stroke="#63b8ff" points="1039.77,-271.83 1048.8,-266.29 1038.29,-264.99 1039.77,-271.83"/>
</a>
</g>
</g>
<!-- Node3 -->
<g id="Node000003" class="node">
<title>Node3</title>
<g id="a_Node000003"><a xlink:href="_board_game___classes_8h.html" target="_top" xlink:title=" ">
<polygon fill="white" stroke="#666666" points="567.72,-144 449.72,-144 449.72,-112 567.72,-112 567.72,-144"/>
<text xml:space="preserve" text-anchor="start" x="457.72" y="-130.5" font-family="Helvetica,sans-Serif" font-size="10.00">../../header/BoardGame</text>
<text xml:space="preserve" text-anchor="middle" x="508.72" y="-118.5" font-family="Helvetica,sans-Serif" font-size="10.00">_Classes.h</text>
</a>
</g>
</g>
<!-- Node2&#45;&gt;Node3 -->
<g id="edge2_Node000002_Node000003" class="edge">
<title>Node2&#45;&gt;Node3</title>
<g id="a_edge2_Node000002_Node000003"><a xlink:title=" ">
<path fill="none" stroke="#63b8ff" d="M576.01,-247.91C574.51,-232.91 570.08,-202.43 557.72,-180 552.09,-169.78 543.89,-160.13 535.81,-152.02"/>
<polygon fill="#63b8ff" stroke="#63b8ff" points="538.3,-149.56 528.63,-145.22 533.48,-154.64 538.3,-149.56"/>
</a>
</g>
</g>
<!-- Node5 -->
<g id="Node000005" class="node">
<title>Node5</title>
<g id="a_Node000005"><a xlink:title=" ">
<polygon fill="#e0e0e0" stroke="#999999" points="443.22,-20 400.22,-20 400.22,0 443.22,0 443.22,-20"/>
<text xml:space="preserve" text-anchor="middle" x="421.72" y="-6.5" font-family="Helvetica,sans-Serif" font-size="10.00">vector</text>
</a>
</g>
</g>
<!-- Node2&#45;&gt;Node5 -->
<g id="edge29_Node000002_Node000005" class="edge">
<title>Node2&#45;&gt;Node5</title>
<g id="a_edge29_Node000002_Node000005"><a xlink:title=" ">
<path fill="none" stroke="#63b8ff" d="M579.5,-247.81C586.21,-223.79 601.01,-157.82 576.72,-112 551.19,-63.83 491.37,-35.13 453.96,-21.27"/>
<polygon fill="#63b8ff" stroke="#63b8ff" points="455.61,-18.14 445.01,-18.09 453.27,-24.74 455.61,-18.14"/>
</a>
</g>
</g>
<!-- Node8 -->
<g id="Node000008" class="node">
<title>Node8</title>
<g id="a_Node000008"><a xlink:href="_custom___u_i_8h.html" target="_top" xlink:title="Defines a customizable user interface for board games.">
<polygon fill="white" stroke="#666666" points="446.1,-206 321.35,-206 321.35,-186 446.1,-186 446.1,-206"/>
<text xml:space="preserve" text-anchor="middle" x="383.72" y="-192.5" font-family="Helvetica,sans-Serif" font-size="10.00">../../header/Custom_UI.h</text>
</a>
</g>
</g>
<!-- Node2&#45;&gt;Node8 -->
<g id="edge7_Node000002_Node000008" class="edge">
<title>Node2&#45;&gt;Node8</title>
<g id="a_edge7_Node000002_Node000008"><a xlink:title=" ">
<path fill="none" stroke="#63b8ff" d="M546.57,-247.62C513.8,-237.44 461.26,-221.11 424.76,-209.76"/>
<polygon fill="#63b8ff" stroke="#63b8ff" points="426.02,-206.48 415.43,-206.86 423.94,-213.17 426.02,-206.48"/>
</a>
</g>
</g>
<!-- Node10 -->
<g id="Node000010" class="node">
<title>Node10</title>
<g id="a_Node000010"><a xlink:href="_a_i_8h.html" target="_top" xlink:title=" ">
<polygon fill="white" stroke="#666666" points="548.85,-206 464.6,-206 464.6,-186 548.85,-186 548.85,-206"/>
<text xml:space="preserve" text-anchor="middle" x="506.72" y="-192.5" font-family="Helvetica,sans-Serif" font-size="10.00">../../header/AI.h</text>
</a>
</g>
</g>
<!-- Node2&#45;&gt;Node10 -->
<g id="edge12_Node000002_Node000010" class="edge">
<title>Node2&#45;&gt;Node10</title>
<g id="a_edge12_Node000002_Node000010"><a xlink:title=" ">
<path fill="none" stroke="#63b8ff" d="M565.78,-247.62C555.14,-238.5 538.74,-224.45 525.92,-213.46"/>
<polygon fill="#63b8ff" stroke="#63b8ff" points="528.37,-210.95 518.5,-207.1 523.82,-216.26 528.37,-210.95"/>
</a>
</g>
</g>
<!-- Node11 -->
<g id="Node000011" class="node">
<title>Node11</title>
<g id="a_Node000011"><a xlink:href="_neural_network_8h.html" target="_top" xlink:title="Fully&#45;connected feedforward neural network class.">
<polygon fill="white" stroke="#666666" points="257.22,-212 130.22,-212 130.22,-180 257.22,-180 257.22,-212"/>
<text xml:space="preserve" text-anchor="start" x="138.22" y="-198.5" font-family="Helvetica,sans-Serif" font-size="10.00">../../Neural_Network</text>
<text xml:space="preserve" text-anchor="middle" x="193.72" y="-186.5" font-family="Helvetica,sans-Serif" font-size="10.00">/Include/NeuralNetwork.h</text>
</a>
</g>
</g>
<!-- Node2&#45;&gt;Node11 -->
<g id="edge14_Node000002_Node000011" class="edge">
<title>Node2&#45;&gt;Node11</title>
<g id="a_edge14_Node000002_Node000011"><a xlink:title=" ">
<path fill="none" stroke="#63b8ff" d="M521.85,-248.4C455.35,-237.99 342.99,-220.38 268.58,-208.73"/>
<polygon fill="#63b8ff" stroke="#63b8ff" points="269.35,-205.3 258.93,-207.21 268.26,-212.22 269.35,-205.3"/>
</a>
</g>
</g>
<!-- Node2&#45;&gt;Node16 -->
<g id="edge28_Node000002_Node000016" class="edge">
<title>Node2&#45;&gt;Node16</title>
<g id="a_edge28_Node000002_Node000016"><a xlink:title=" ">
<path fill="none" stroke="#63b8ff" d="M591.1,-247.62C605.54,-238.2 628.06,-223.52 645.13,-212.39"/>
<polygon fill="#63b8ff" stroke="#63b8ff" points="646.72,-215.53 653.18,-207.14 642.89,-209.67 646.72,-215.53"/>
</a>
</g>
</g>
<!-- Node3&#45;&gt;Node4 -->
<g id="edge3_Node000003_Node000004" class="edge">
<title>Node3&#45;&gt;Node4</title>
<g id="a_edge3_Node000003_Node000004"><a xlink:title=" ">
<path fill="none" stroke="#63b8ff" d="M454.38,-111.55C414.52,-100.21 361.79,-85.22 328.81,-75.84"/>
<polygon fill="#63b8ff" stroke="#63b8ff" points="330.06,-72.56 319.48,-73.19 328.14,-79.29 330.06,-72.56"/>
</a>
</g>
</g>
<!-- Node3&#45;&gt;Node5 -->
<g id="edge4_Node000003_Node000005" class="edge">
<title>Node3&#45;&gt;Node5</title>
<g id="a_edge4_Node000003_Node000005"><a xlink:title=" ">
<path fill="none" stroke="#63b8ff" d="M504.15,-111.78C499.1,-96.61 489.89,-73.17 476.72,-56 468.1,-44.76 456.14,-34.55 445.58,-26.7"/>
<polygon fill="#63b8ff" stroke="#63b8ff" points="447.83,-24 437.64,-21.08 443.78,-29.72 447.83,-24"/>
</a>
</g>
</g>
<!-- Node3&#45;&gt;Node6 -->
<g id="edge5_Node000003_Node000006" class="edge">
<title>Node3&#45;&gt;Node6</title>
<g id="a_edge5_Node000003_Node000006"><a xlink:title=" ">
<path fill="none" stroke="#63b8ff" d="M486.1,-111.76C463.91,-96.99 428.94,-74.21 397.72,-56 379.38,-45.3 358.29,-34.13 341.71,-25.6"/>
<polygon fill="#63b8ff" stroke="#63b8ff" points="343.38,-22.52 332.88,-21.09 340.19,-28.75 343.38,-22.52"/>
</a>
</g>
</g>
<!-- Node3&#45;&gt;Node7 -->
<g id="edge6_Node000003_Node000007" class="edge">
<title>Node3&#45;&gt;Node7</title>
<g id="a_edge6_Node000003_Node000007"><a xlink:title=" ">
<path fill="none" stroke="#63b8ff" d="M556.62,-111.55C588.45,-101.28 629.59,-88.01 658.66,-78.63"/>
<polygon fill="#63b8ff" stroke="#63b8ff" points="659.66,-81.99 668.11,-75.59 657.52,-75.32 659.66,-81.99"/>
</a>
</g>
</g>
<!-- Node8&#45;&gt;Node3 -->
<g id="edge8_Node000008_Node000003" class="edge">
<title>Node8&#45;&gt;Node3</title>
<g id="a_edge8_Node000008_Node000003"><a xlink:title=" ">
<path fill="none" stroke="#63b8ff" d="M401.63,-185.54C419.31,-176.21 446.92,-161.63 469.68,-149.61"/>
<polygon fill="#63b8ff" stroke="#63b8ff" points="471.2,-152.77 478.4,-145.01 467.93,-146.58 471.2,-152.77"/>
</a>
</g>
</g>
<!-- Node8&#45;&gt;Node5 -->
<g id="edge10_Node000008_Node000005" class="edge">
<title>Node8&#45;&gt;Node5</title>
<g id="a_edge10_Node000008_Node000005"><a xlink:title=" ">
<path fill="none" stroke="#63b8ff" d="M386.55,-185.66C389.58,-175.48 394.39,-158.68 397.72,-144 406.69,-104.48 414.48,-57.74 418.6,-31.51"/>
<polygon fill="#63b8ff" stroke="#63b8ff" points="422.02,-32.32 420.09,-21.91 415.1,-31.25 422.02,-32.32"/>
</a>
</g>
</g>
<!-- Node8&#45;&gt;Node6 -->
<g id="edge9_Node000008_Node000006" class="edge">
<title>Node8&#45;&gt;Node6</title>
<g id="a_edge9_Node000008_Node000006"><a xlink:title=" ">
<path fill="none" stroke="#63b8ff" d="M384.06,-185.58C384.5,-162.18 383.19,-100.1 359.72,-56 353.89,-45.05 344.41,-35.21 335.49,-27.54"/>
<polygon fill="#63b8ff" stroke="#63b8ff" points="337.74,-24.86 327.75,-21.34 333.36,-30.32 337.74,-24.86"/>
</a>
</g>
</g>
<!-- Node8&#45;&gt;Node9 -->
<g id="edge11_Node000008_Node000009" class="edge">
<title>Node8&#45;&gt;Node9</title>
<g id="a_edge11_Node000008_Node000009"><a xlink:title=" ">
<path fill="none" stroke="#63b8ff" d="M382.52,-185.8C378.82,-161.27 365.47,-93.59 326.72,-56 305.26,-35.18 273.25,-23.81 247.69,-17.72"/>
<polygon fill="#63b8ff" stroke="#63b8ff" points="248.45,-14.3 237.94,-15.6 246.96,-21.14 248.45,-14.3"/>
</a>
</g>
</g>
<!-- Node10&#45;&gt;Node3 -->
<g id="edge13_Node000010_Node000003" class="edge">
<title>Node10&#45;&gt;Node3</title>
<g id="a_edge13_Node000010_Node000003"><a xlink:title=" ">
<path fill="none" stroke="#63b8ff" d="M507.01,-185.54C507.25,-177.72 507.59,-166.22 507.91,-155.63"/>
<polygon fill="#63b8ff" stroke="#63b8ff" points="511.41,-155.92 508.21,-145.81 504.41,-155.7 511.41,-155.92"/>
</a>
</g>
</g>
<!-- Node11&#45;&gt;Node4 -->
<g id="edge27_Node000011_Node000004" class="edge">
<title>Node11&#45;&gt;Node4</title>
<g id="a_edge27_Node000011_Node000004"><a xlink:title=" ">
<path fill="none" stroke="#63b8ff" d="M210.98,-179.72C221.55,-169.98 235.04,-156.82 245.72,-144 261.16,-125.47 276.3,-102.32 286.22,-86.27"/>
<polygon fill="#63b8ff" stroke="#63b8ff" points="289.21,-88.09 291.42,-77.73 283.23,-84.46 289.21,-88.09"/>
</a>
</g>
</g>
<!-- Node11&#45;&gt;Node5 -->
<g id="edge24_Node000011_Node000005" class="edge">
<title>Node11&#45;&gt;Node5</title>
<g id="a_edge24_Node000011_Node000005"><a xlink:title=" ">
<path fill="none" stroke="#63b8ff" d="M197.64,-179.94C205.86,-151.4 227.61,-89.32 268.72,-56 303.45,-27.85 355.24,-17.31 388.75,-13.36"/>
<polygon fill="#63b8ff" stroke="#63b8ff" points="388.69,-16.89 398.27,-12.38 387.97,-9.92 388.69,-16.89"/>
</a>
</g>
</g>
<!-- Node12 -->
<g id="Node000012" class="node">
<title>Node12</title>
<g id="a_Node000012"><a xlink:href="_matrix_8h.html" target="_top" xlink:title="Lightweight 2D matrix class for numerical computations.">
<polygon fill="white" stroke="#666666" points="221.35,-76 170.1,-76 170.1,-56 221.35,-56 221.35,-76"/>
<text xml:space="preserve" text-anchor="middle" x="195.72" y="-62.5" font-family="Helvetica,sans-Serif" font-size="10.00">Matrix.h</text>
</a>
</g>
</g>
<!-- Node11&#45;&gt;Node12 -->
<g id="edge15_Node000011_Node000012" class="edge">
<title>Node11&#45;&gt;Node12</title>
<g id="a_edge15_Node000011_Node000012"><a xlink:title=" ">
<path fill="none" stroke="#63b8ff" d="M193.96,-179.56C194.32,-156.58 195,-113.34 195.4,-87.66"/>
<polygon fill="#63b8ff" stroke="#63b8ff" points="198.9,-87.89 195.55,-77.84 191.9,-87.78 198.9,-87.89"/>
</a>
</g>
</g>
<!-- Node13 -->
<g id="Node000013" class="node">
<title>Node13</title>
<g id="a_Node000013"><a xlink:title=" ">
<polygon fill="#e0e0e0" stroke="#999999" points="159.72,-20 101.72,-20 101.72,0 159.72,0 159.72,-20"/>
<text xml:space="preserve" text-anchor="middle" x="130.72" y="-6.5" font-family="Helvetica,sans-Serif" font-size="10.00">functional</text>
</a>
</g>
</g>
<!-- Node11&#45;&gt;Node13 -->
<g id="edge25_Node000011_Node000013" class="edge">
<title>Node11&#45;&gt;Node13</title>
<g id="a_edge25_Node000011_Node000013"><a xlink:title=" ">
<path fill="none" stroke="#63b8ff" d="M147.82,-179.54C128.45,-171.3 106.74,-159.59 90.72,-144 66.22,-120.15 62.96,-109.19 54.72,-76 52.58,-67.37 50.32,-63.72 54.72,-56 62.79,-41.85 77.24,-31.7 91.4,-24.66"/>
<polygon fill="#63b8ff" stroke="#63b8ff" points="92.51,-28 100.18,-20.69 89.62,-21.62 92.51,-28"/>
</a>
</g>
</g>
<!-- Node14 -->
<g id="Node000014" class="node">
<title>Node14</title>
<g id="a_Node000014"><a xlink:href="_layer_8h.html" target="_top" xlink:title="Defines a fully&#45;connected (dense) neural network layer.">
<polygon fill="white" stroke="#666666" points="165.85,-138 117.6,-138 117.6,-118 165.85,-118 165.85,-138"/>
<text xml:space="preserve" text-anchor="middle" x="141.72" y="-124.5" font-family="Helvetica,sans-Serif" font-size="10.00">Layer.h</text>
</a>
</g>
</g>
<!-- Node11&#45;&gt;Node14 -->
<g id="edge20_Node000011_Node000014" class="edge">
<title>Node11&#45;&gt;Node14</title>
<g id="a_edge20_Node000011_Node000014"><a xlink:title=" ">
<path fill="none" stroke="#63b8ff" d="M181.66,-179.69C174.02,-170 164.1,-157.41 156.06,-147.2"/>
<polygon fill="#63b8ff" stroke="#63b8ff" points="158.94,-145.19 150,-139.51 153.44,-149.53 158.94,-145.19"/>
</a>
</g>
</g>
<!-- Node15 -->
<g id="Node000015" class="node">
<title>Node15</title>
<g id="a_Node000015"><a xlink:title=" ">
<polygon fill="#e0e0e0" stroke="#999999" points="113.22,-76 64.22,-76 64.22,-56 113.22,-56 113.22,-76"/>
<text xml:space="preserve" text-anchor="middle" x="88.72" y="-62.5" font-family="Helvetica,sans-Serif" font-size="10.00">fstream</text>
</a>
</g>
</g>
<!-- Node11&#45;&gt;Node15 -->
<g id="edge26_Node000011_Node000015" class="edge">
<title>Node11&#45;&gt;Node15</title>
<g id="a_edge26_Node000011_Node000015"><a xlink:title=" ">
<path fill="none" stroke="#63b8ff" d="M154.69,-179.61C138.3,-171.33 120.37,-159.57 108.72,-144 96.33,-127.43 91.59,-103.88 89.79,-87.2"/>
<polygon fill="#63b8ff" stroke="#63b8ff" points="93.3,-87.22 89.03,-77.52 86.33,-87.76 93.3,-87.22"/>
</a>
</g>
</g>
<!-- Node12&#45;&gt;Node5 -->
<g id="edge16_Node000012_Node000005" class="edge">
<title>Node12&#45;&gt;Node5</title>
<g id="a_edge16_Node000012_Node000005"><a xlink:title=" ">
<path fill="none" stroke="#63b8ff" d="M221.65,-58.81C262.92,-48.94 343.53,-29.68 388.82,-18.86"/>
<polygon fill="#63b8ff" stroke="#63b8ff" points="389.41,-22.32 398.32,-16.59 387.78,-15.51 389.41,-22.32"/>
</a>
</g>
</g>
<!-- Node12&#45;&gt;Node6 -->
<g id="edge18_Node000012_Node000006" class="edge">
<title>Node12&#45;&gt;Node6</title>
<g id="a_edge18_Node000012_Node000006"><a xlink:title=" ">
<path fill="none" stroke="#63b8ff" d="M216.1,-55.59C234.28,-47.21 261.15,-34.8 281.94,-25.21"/>
<polygon fill="#63b8ff" stroke="#63b8ff" points="283.2,-28.48 290.81,-21.11 280.26,-22.13 283.2,-28.48"/>
</a>
</g>
</g>
<!-- Node12&#45;&gt;Node9 -->
<g id="edge19_Node000012_Node000009" class="edge">
<title>Node12&#45;&gt;Node9</title>
<g id="a_edge19_Node000012_Node000009"><a xlink:title=" ">
<path fill="none" stroke="#63b8ff" d="M197.64,-55.59C198.99,-48.93 200.87,-39.75 202.56,-31.44"/>
<polygon fill="#63b8ff" stroke="#63b8ff" points="205.96,-32.28 204.53,-21.78 199.1,-30.88 205.96,-32.28"/>
</a>
</g>
</g>
<!-- Node12&#45;&gt;Node13 -->
<g id="edge17_Node000012_Node000013" class="edge">
<title>Node12&#45;&gt;Node13</title>
<g id="a_edge17_Node000012_Node000013"><a xlink:title=" ">
<path fill="none" stroke="#63b8ff" d="M184.4,-55.59C175.08,-47.85 161.64,-36.69 150.54,-27.47"/>
<polygon fill="#63b8ff" stroke="#63b8ff" points="153.01,-24.96 143.08,-21.27 148.53,-30.35 153.01,-24.96"/>
</a>
</g>
</g>
<!-- Node14&#45;&gt;Node12 -->
<g id="edge23_Node000014_Node000012" class="edge">
<title>Node14&#45;&gt;Node12</title>
<g id="a_edge23_Node000014_Node000012"><a xlink:title=" ">
<path fill="none" stroke="#63b8ff" d="M150.16,-117.62C158.13,-108.77 170.29,-95.26 180.04,-84.43"/>
<polygon fill="#63b8ff" stroke="#63b8ff" points="182.42,-87.01 186.51,-77.24 177.22,-82.33 182.42,-87.01"/>
</a>
</g>
</g>
<!-- Node14&#45;&gt;Node13 -->
<g id="edge21_Node000014_Node000013" class="edge">
<title>Node14&#45;&gt;Node13</title>
<g id="a_edge21_Node000014_Node000013"><a xlink:title=" ">
<path fill="none" stroke="#63b8ff" d="M140.82,-117.51C139.05,-98.81 135.07,-56.82 132.67,-31.51"/>
<polygon fill="#63b8ff" stroke="#63b8ff" points="136.17,-31.43 131.75,-21.81 129.21,-32.09 136.17,-31.43"/>
</a>
</g>
</g>
<!-- Node14&#45;&gt;Node15 -->
<g id="edge22_Node000014_Node000015" class="edge">
<title>Node14&#45;&gt;Node15</title>
<g id="a_edge22_Node000014_Node000015"><a xlink:title=" ">
<path fill="none" stroke="#63b8ff" d="M133.44,-117.62C125.62,-108.77 113.68,-95.26 104.11,-84.43"/>
<polygon fill="#63b8ff" stroke="#63b8ff" points="107.02,-82.42 97.77,-77.25 101.77,-87.06 107.02,-82.42"/>
</a>
</g>
</g>
</g>
</svg>
