<?xml version="1.0" encoding="UTF-8" standalone="no"?>
<!DOCTYPE svg PUBLIC "-//W3C//DTD SVG 1.1//EN"
 "http://www.w3.org/Graphics/SVG/1.1/DTD/svg11.dtd">
<!-- Generated by graphviz version 14.0.2 (20251019.1705)
 -->
<!-- Title: Games/Large_Tic_Tac_Toe/Large_Tic_Tac_Toe.cpp Pages: 1 -->
<svg width="1132pt" height="344pt"
 viewBox="0.00 0.00 1132.00 344.00" xmlns="http://www.w3.org/2000/svg" xmlns:xlink="http://www.w3.org/1999/xlink">
<g id="graph0" class="graph" transform="scale(1 1) rotate(0) translate(4 340)">
<title>Games/Large_Tic_Tac_Toe/Large_Tic_Tac_Toe.cpp</title>
<!-- Node1 -->
<g id="Node000001" class="node">
<title>Node1</title>
<g id="a_Node000001"><a xlink:title=" ">
<polygon fill="#999999" stroke="#666666" points="815.16,-336 671.66,-336 671.66,-304 815.16,-304 815.16,-336"/>
<text xml:space="preserve" text-anchor="start" x="679.66" y="-322.5" font-family="Helvetica,sans-Serif" font-size="10.00">Games/Large_Tic_Tac</text>
<text xml:space="preserve" text-anchor="middle" x="743.41" y="-310.5" font-family="Helvetica,sans-Serif" font-size="10.00">_Toe/Large_Tic_Tac_Toe.cpp</text>
</a>
</g>
</g>
<!-- Node2 -->
<g id="Node000002" class="node">
<title>Node2</title>
<g id="a_Node000002"><a xlink:href="$_large___tic___tac___toe_8h.html" xlink:title=" ">
<polygon fill="white" stroke="#666666" points="451.91,-268 342.91,-268 342.91,-248 451.91,-248 451.91,-268"/>
<text xml:space="preserve" text-anchor="middle" x="397.41" y="-254.5" font-family="Helvetica,sans-Serif" font-size="10.00">Large_Tic_Tac_Toe.h</text>
</a>
</g>
</g>
<!-- Node1&#45;&gt;Node2 -->
<g id="edge1_Node000001_Node000002" class="edge">
<title>Node1&#45;&gt;Node2</title>
<g id="a_edge1_Node000001_Node000002"><a xlink:title=" ">
<path fill="none" stroke="#63b8ff" d="M671.29,-306.5C609.99,-295.86 522.7,-280.73 463.25,-270.42"/>
<polygon fill="#63b8ff" stroke="#63b8ff" points="464.06,-267.01 453.61,-268.75 462.87,-273.9 464.06,-267.01"/>
</a>
</g>
</g>
<!-- Node4 -->
<g id="Node000004" class="node">
<title>Node4</title>
<g id="a_Node000004"><a xlink:title=" ">
<polygon fill="#e0e0e0" stroke="#999999" points="297.41,-76 257.41,-76 257.41,-56 297.41,-56 297.41,-76"/>
<text xml:space="preserve" text-anchor="middle" x="277.41" y="-62.5" font-family="Helvetica,sans-Serif" font-size="10.00">string</text>
</a>
</g>
</g>
<!-- Node1&#45;&gt;Node4 -->
<g id="edge29_Node000001_Node000004" class="edge">
<title>Node1&#45;&gt;Node4</title>
<g id="a_edge29_Node000001_Node000004"><a xlink:title=" ">
<path fill="none" stroke="#63b8ff" d="M671.19,-315.48C570.12,-309.63 392.35,-295.7 334.41,-268 302.08,-252.54 290.41,-244.98 276.41,-212 258.84,-170.62 266.27,-116.41 272.37,-87.41"/>
<polygon fill="#63b8ff" stroke="#63b8ff" points="275.75,-88.32 274.56,-77.79 268.92,-86.76 275.75,-88.32"/>
</a>
</g>
</g>
<!-- Node6 -->
<g id="Node000006" class="node">
<title>Node6</title>
<g id="a_Node000006"><a xlink:title=" ">
<polygon fill="#e0e0e0" stroke="#999999" points="551.16,-20 497.66,-20 497.66,0 551.16,0 551.16,-20"/>
<text xml:space="preserve" text-anchor="middle" x="524.41" y="-6.5" font-family="Helvetica,sans-Serif" font-size="10.00">iostream</text>
</a>
</g>
</g>
<!-- Node1&#45;&gt;Node6 -->
<g id="edge27_Node000001_Node000006" class="edge">
<title>Node1&#45;&gt;Node6</title>
<g id="a_edge27_Node000001_Node000006"><a xlink:title=" ">
<path fill="none" stroke="#63b8ff" d="M707.75,-303.61C669.88,-284.56 615.41,-248.27 615.41,-197 615.41,-197 615.41,-197 615.41,-127 615.41,-83.69 575.64,-46.95 548.69,-27.02"/>
<polygon fill="#63b8ff" stroke="#63b8ff" points="550.85,-24.26 540.67,-21.33 546.8,-29.97 550.85,-24.26"/>
</a>
</g>
</g>
<!-- Node7 -->
<g id="Node000007" class="node">
<title>Node7</title>
<g id="a_Node000007"><a xlink:title=" ">
<polygon fill="#e0e0e0" stroke="#999999" points="549.28,-76 499.53,-76 499.53,-56 549.28,-56 549.28,-76"/>
<text xml:space="preserve" text-anchor="middle" x="524.41" y="-62.5" font-family="Helvetica,sans-Serif" font-size="10.00">iomanip</text>
</a>
</g>
</g>
<!-- Node1&#45;&gt;Node7 -->
<g id="edge28_Node000001_Node000007" class="edge">
<title>Node1&#45;&gt;Node7</title>
<g id="a_edge28_Node000001_Node000007"><a xlink:title=" ">
<path fill="none" stroke="#63b8ff" d="M671.43,-306.02C646.66,-298.47 620.4,-286.6 601.41,-268 574.56,-241.71 542.38,-132.7 529.81,-87.14"/>
<polygon fill="#63b8ff" stroke="#63b8ff" points="533.2,-86.29 527.2,-77.56 526.45,-88.13 533.2,-86.29"/>
</a>
</g>
</g>
<!-- Node9 -->
<g id="Node000009" class="node">
<title>Node9</title>
<g id="a_Node000009"><a xlink:title=" ">
<polygon fill="#e0e0e0" stroke="#999999" points="682.78,-20 624.03,-20 624.03,0 682.78,0 682.78,-20"/>
<text xml:space="preserve" text-anchor="middle" x="653.41" y="-6.5" font-family="Helvetica,sans-Serif" font-size="10.00">stdexcept</text>
</a>
</g>
</g>
<!-- Node1&#45;&gt;Node9 -->
<g id="edge31_Node000001_Node000009" class="edge">
<title>Node1&#45;&gt;Node9</title>
<g id="a_edge31_Node000001_Node000009"><a xlink:title=" ">
<path fill="none" stroke="#63b8ff" d="M716.24,-303.57C703.48,-294.84 689.36,-282.71 681.41,-268 638.78,-189.13 645.63,-76.87 650.69,-31.35"/>
<polygon fill="#63b8ff" stroke="#63b8ff" points="654.14,-31.99 651.88,-21.64 647.19,-31.14 654.14,-31.99"/>
</a>
</g>
</g>
<!-- Node16 -->
<g id="Node000016" class="node">
<title>Node16</title>
<g id="a_Node000016"><a xlink:title=" ">
<polygon fill="#e0e0e0" stroke="#999999" points="730.03,-268 690.78,-268 690.78,-248 730.03,-248 730.03,-268"/>
<text xml:space="preserve" text-anchor="middle" x="710.41" y="-254.5" font-family="Helvetica,sans-Serif" font-size="10.00">limits</text>
</a>
</g>
</g>
<!-- Node1&#45;&gt;Node16 -->
<g id="edge30_Node000001_Node000016" class="edge">
<title>Node1&#45;&gt;Node16</title>
<g id="a_edge30_Node000001_Node000016"><a xlink:title=" ">
<path fill="none" stroke="#63b8ff" d="M734.91,-303.55C730.71,-295.91 725.59,-286.61 721.12,-278.49"/>
<polygon fill="#63b8ff" stroke="#63b8ff" points="724.2,-276.81 716.31,-269.73 718.06,-280.18 724.2,-276.81"/>
</a>
</g>
</g>
<!-- Node17 -->
<g id="Node000017" class="node">
<title>Node17</title>
<g id="a_Node000017"><a xlink:title=" ">
<polygon fill="#e0e0e0" stroke="#999999" points="804.28,-268 748.53,-268 748.53,-248 804.28,-248 804.28,-268"/>
<text xml:space="preserve" text-anchor="middle" x="776.41" y="-254.5" font-family="Helvetica,sans-Serif" font-size="10.00">algorithm</text>
</a>
</g>
</g>
<!-- Node1&#45;&gt;Node17 -->
<g id="edge32_Node000001_Node000017" class="edge">
<title>Node1&#45;&gt;Node17</title>
<g id="a_edge32_Node000001_Node000017"><a xlink:title=" ">
<path fill="none" stroke="#63b8ff" d="M751.9,-303.55C756.1,-295.91 761.22,-286.61 765.69,-278.49"/>
<polygon fill="#63b8ff" stroke="#63b8ff" points="768.75,-280.18 770.5,-269.73 762.62,-276.81 768.75,-280.18"/>
</a>
</g>
</g>
<!-- Node18 -->
<g id="Node000018" class="node">
<title>Node18</title>
<g id="a_Node000018"><a xlink:title=" ">
<polygon fill="#e0e0e0" stroke="#999999" points="874.03,-268 822.78,-268 822.78,-248 874.03,-248 874.03,-268"/>
<text xml:space="preserve" text-anchor="middle" x="848.41" y="-254.5" font-family="Helvetica,sans-Serif" font-size="10.00">memory</text>
</a>
</g>
</g>
<!-- Node1&#45;&gt;Node18 -->
<g id="edge33_Node000001_Node000018" class="edge">
<title>Node1&#45;&gt;Node18</title>
<g id="a_edge33_Node000001_Node000018"><a xlink:title=" ">
<path fill="none" stroke="#63b8ff" d="M770.45,-303.55C786.4,-294.43 806.48,-282.96 822.27,-273.93"/>
<polygon fill="#63b8ff" stroke="#63b8ff" points="823.68,-277.16 830.63,-269.16 820.21,-271.08 823.68,-277.16"/>
</a>
</g>
</g>
<!-- Node19 -->
<g id="Node000019" class="node">
<title>Node19</title>
<g id="a_Node000019"><a xlink:title=" ">
<polygon fill="#e0e0e0" stroke="#999999" points="937.03,-268 891.78,-268 891.78,-248 937.03,-248 937.03,-268"/>
<text xml:space="preserve" text-anchor="middle" x="914.41" y="-254.5" font-family="Helvetica,sans-Serif" font-size="10.00">cstdint</text>
</a>
</g>
</g>
<!-- Node1&#45;&gt;Node19 -->
<g id="edge34_Node000001_Node000019" class="edge">
<title>Node1&#45;&gt;Node19</title>
<g id="a_edge34_Node000001_Node000019"><a xlink:title=" ">
<path fill="none" stroke="#63b8ff" d="M787.44,-303.55C816.54,-293.34 854.08,-280.17 880.78,-270.8"/>
<polygon fill="#63b8ff" stroke="#63b8ff" points="881.79,-274.15 890.07,-267.54 879.48,-267.55 881.79,-274.15"/>
</a>
</g>
</g>
<!-- Node20 -->
<g id="Node000020" class="node">
<title>Node20</title>
<g id="a_Node000020"><a xlink:title=" ">
<polygon fill="#e0e0e0" stroke="#999999" points="999.66,-268 955.16,-268 955.16,-248 999.66,-248 999.66,-268"/>
<text xml:space="preserve" text-anchor="middle" x="977.41" y="-254.5" font-family="Helvetica,sans-Serif" font-size="10.00">cstdlib</text>
</a>
</g>
</g>
<!-- Node1&#45;&gt;Node20 -->
<g id="edge35_Node000001_Node000020" class="edge">
<title>Node1&#45;&gt;Node20</title>
<g id="a_edge35_Node000001_Node000020"><a xlink:title=" ">
<path fill="none" stroke="#63b8ff" d="M807.56,-303.52C844.92,-294.35 893.18,-282.27 943.89,-268.62"/>
<polygon fill="#63b8ff" stroke="#63b8ff" points="944.54,-272.07 953.28,-266.08 942.72,-265.31 944.54,-272.07"/>
</a>
</g>
</g>
<!-- Node21 -->
<g id="Node000021" class="node">
<title>Node21</title>
<g id="a_Node000021"><a xlink:title=" ">
<polygon fill="#e0e0e0" stroke="#999999" points="1057.41,-268 1017.41,-268 1017.41,-248 1057.41,-248 1057.41,-268"/>
<text xml:space="preserve" text-anchor="middle" x="1037.41" y="-254.5" font-family="Helvetica,sans-Serif" font-size="10.00">ctime</text>
</a>
</g>
</g>
<!-- Node1&#45;&gt;Node21 -->
<g id="edge36_Node000001_Node000021" class="edge">
<title>Node1&#45;&gt;Node21</title>
<g id="a_edge36_Node000001_Node000021"><a xlink:title=" ">
<path fill="none" stroke="#63b8ff" d="M815.58,-307.34C866.52,-298.59 936.52,-285.55 1006.44,-268.28"/>
<polygon fill="#63b8ff" stroke="#63b8ff" points="1006.89,-271.77 1015.74,-265.95 1005.19,-264.98 1006.89,-271.77"/>
</a>
</g>
</g>
<!-- Node22 -->
<g id="Node000022" class="node">
<title>Node22</title>
<g id="a_Node000022"><a xlink:title=" ">
<polygon fill="#e0e0e0" stroke="#999999" points="1123.53,-268 1075.28,-268 1075.28,-248 1123.53,-248 1123.53,-268"/>
<text xml:space="preserve" text-anchor="middle" x="1099.41" y="-254.5" font-family="Helvetica,sans-Serif" font-size="10.00">random</text>
</a>
</g>
</g>
<!-- Node1&#45;&gt;Node22 -->
<g id="edge37_Node000001_Node000022" class="edge">
<title>Node1&#45;&gt;Node22</title>
<g id="a_edge37_Node000001_Node000022"><a xlink:title=" ">
<path fill="none" stroke="#63b8ff" d="M815.34,-309.94C878.51,-301.47 973.05,-287.52 1063.91,-268.35"/>
<polygon fill="#63b8ff" stroke="#63b8ff" points="1064.44,-271.81 1073.49,-266.3 1062.98,-264.97 1064.44,-271.81"/>
</a>
</g>
</g>
<!-- Node3 -->
<g id="Node000003" class="node">
<title>Node3</title>
<g id="a_Node000003"><a xlink:href="$_board_game___classes_8h.html" xlink:title=" ">
<polygon fill="white" stroke="#666666" points="423.41,-144 305.41,-144 305.41,-112 423.41,-112 423.41,-144"/>
<text xml:space="preserve" text-anchor="start" x="313.41" y="-130.5" font-family="Helvetica,sans-Serif" font-size="10.00">../../header/BoardGame</text>
<text xml:space="preserve" text-anchor="middle" x="364.41" y="-118.5" font-family="Helvetica,sans-Serif" font-size="10.00">_Classes.h</text>
</a>
</g>
</g>
<!-- Node2&#45;&gt;Node3 -->
<g id="edge2_Node000002_Node000003" class="edge">
<title>Node2&#45;&gt;Node3</title>
<g id="a_edge2_Node000002_Node000003"><a xlink:title=" ">
<path fill="none" stroke="#63b8ff" d="M395.26,-247.97C391.81,-233.57 384.79,-204.52 378.41,-180 376.29,-171.88 373.9,-163.06 371.7,-155.07"/>
<polygon fill="#63b8ff" stroke="#63b8ff" points="375.12,-154.31 369.08,-145.61 368.38,-156.18 375.12,-154.31"/>
</a>
</g>
</g>
<!-- Node8 -->
<g id="Node000008" class="node">
<title>Node8</title>
<g id="a_Node000008"><a xlink:href="$_custom___u_i_8h.html" xlink:title="Defines a customizable user interface for board games.">
<polygon fill="white" stroke="#666666" points="549.78,-206 425.03,-206 425.03,-186 549.78,-186 549.78,-206"/>
<text xml:space="preserve" text-anchor="middle" x="487.41" y="-192.5" font-family="Helvetica,sans-Serif" font-size="10.00">../../header/Custom_UI.h</text>
</a>
</g>
</g>
<!-- Node2&#45;&gt;Node8 -->
<g id="edge7_Node000002_Node000008" class="edge">
<title>Node2&#45;&gt;Node8</title>
<g id="a_edge7_Node000002_Node000008"><a xlink:title=" ">
<path fill="none" stroke="#63b8ff" d="M411.47,-247.62C425.6,-238.2 447.63,-223.52 464.33,-212.39"/>
<polygon fill="#63b8ff" stroke="#63b8ff" points="465.8,-215.61 472.18,-207.15 461.92,-209.78 465.8,-215.61"/>
</a>
</g>
</g>
<!-- Node10 -->
<g id="Node000010" class="node">
<title>Node10</title>
<g id="a_Node000010"><a xlink:href="$_a_i_8h.html" xlink:title=" ">
<polygon fill="white" stroke="#666666" points="369.53,-206 285.28,-206 285.28,-186 369.53,-186 369.53,-206"/>
<text xml:space="preserve" text-anchor="middle" x="327.41" y="-192.5" font-family="Helvetica,sans-Serif" font-size="10.00">../../header/AI.h</text>
</a>
</g>
</g>
<!-- Node2&#45;&gt;Node10 -->
<g id="edge12_Node000002_Node000010" class="edge">
<title>Node2&#45;&gt;Node10</title>
<g id="a_edge12_Node000002_Node000010"><a xlink:title=" ">
<path fill="none" stroke="#63b8ff" d="M386.47,-247.62C375.82,-238.5 359.43,-224.45 346.61,-213.46"/>
<polygon fill="#63b8ff" stroke="#63b8ff" points="349.06,-210.95 339.19,-207.1 344.5,-216.26 349.06,-210.95"/>
</a>
</g>
</g>
<!-- Node11 -->
<g id="Node000011" class="node">
<title>Node11</title>
<g id="a_Node000011"><a xlink:href="$_neural_network_8h.html" xlink:title=" ">
<polygon fill="white" stroke="#666666" points="211.91,-212 84.91,-212 84.91,-180 211.91,-180 211.91,-212"/>
<text xml:space="preserve" text-anchor="start" x="92.91" y="-198.5" font-family="Helvetica,sans-Serif" font-size="10.00">../../Neural_Network</text>
<text xml:space="preserve" text-anchor="middle" x="148.41" y="-186.5" font-family="Helvetica,sans-Serif" font-size="10.00">/Include/NeuralNetwork.h</text>
</a>
</g>
</g>
<!-- Node2&#45;&gt;Node11 -->
<g id="edge14_Node000002_Node000011" class="edge">
<title>Node2&#45;&gt;Node11</title>
<g id="a_edge14_Node000002_Node000011"><a xlink:title=" ">
<path fill="none" stroke="#63b8ff" d="M358.23,-247.56C322.12,-238.86 267.56,-225.71 223.12,-215"/>
<polygon fill="#63b8ff" stroke="#63b8ff" points="224.08,-211.63 213.53,-212.69 222.44,-218.44 224.08,-211.63"/>
</a>
</g>
</g>
<!-- Node3&#45;&gt;Node4 -->
<g id="edge3_Node000003_Node000004" class="edge">
<title>Node3&#45;&gt;Node4</title>
<g id="a_edge3_Node000003_Node000004"><a xlink:title=" ">
<path fill="none" stroke="#63b8ff" d="M342,-111.55C329.16,-102.69 313.09,-91.61 300.19,-82.71"/>
<polygon fill="#63b8ff" stroke="#63b8ff" points="302.51,-80.06 292.29,-77.27 298.54,-85.83 302.51,-80.06"/>
</a>
</g>
</g>
<!-- Node5 -->
<g id="Node000005" class="node">
<title>Node5</title>
<g id="a_Node000005"><a xlink:title=" ">
<polygon fill="#e0e0e0" stroke="#999999" points="297.91,-20 254.91,-20 254.91,0 297.91,0 297.91,-20"/>
<text xml:space="preserve" text-anchor="middle" x="276.41" y="-6.5" font-family="Helvetica,sans-Serif" font-size="10.00">vector</text>
</a>
</g>
</g>
<!-- Node3&#45;&gt;Node5 -->
<g id="edge4_Node000003_Node000005" class="edge">
<title>Node3&#45;&gt;Node5</title>
<g id="a_edge4_Node000003_Node000005"><a xlink:title=" ">
<path fill="none" stroke="#63b8ff" d="M352.9,-111.84C336.83,-90.65 307.69,-52.24 290.39,-29.43"/>
<polygon fill="#63b8ff" stroke="#63b8ff" points="293.31,-27.49 284.48,-21.64 287.73,-31.73 293.31,-27.49"/>
</a>
</g>
</g>
<!-- Node3&#45;&gt;Node6 -->
<g id="edge5_Node000003_Node000006" class="edge">
<title>Node3&#45;&gt;Node6</title>
<g id="a_edge5_Node000003_Node000006"><a xlink:title=" ">
<path fill="none" stroke="#63b8ff" d="M385.65,-111.6C416.03,-89.57 471.59,-49.29 502.38,-26.97"/>
<polygon fill="#63b8ff" stroke="#63b8ff" points="504.18,-29.98 510.22,-21.28 500.07,-24.32 504.18,-29.98"/>
</a>
</g>
</g>
<!-- Node3&#45;&gt;Node7 -->
<g id="edge6_Node000003_Node000007" class="edge">
<title>Node3&#45;&gt;Node7</title>
<g id="a_edge6_Node000003_Node000007"><a xlink:title=" ">
<path fill="none" stroke="#63b8ff" d="M405.61,-111.55C431.3,-101.91 464.04,-89.64 488.64,-80.41"/>
<polygon fill="#63b8ff" stroke="#63b8ff" points="489.77,-83.73 497.9,-76.94 487.31,-77.17 489.77,-83.73"/>
</a>
</g>
</g>
<!-- Node8&#45;&gt;Node3 -->
<g id="edge8_Node000008_Node000003" class="edge">
<title>Node8&#45;&gt;Node3</title>
<g id="a_edge8_Node000008_Node000003"><a xlink:title=" ">
<path fill="none" stroke="#63b8ff" d="M469.78,-185.54C452.39,-176.21 425.22,-161.63 402.82,-149.61"/>
<polygon fill="#63b8ff" stroke="#63b8ff" points="404.72,-146.66 394.25,-145.02 401.41,-152.83 404.72,-146.66"/>
</a>
</g>
</g>
<!-- Node8&#45;&gt;Node5 -->
<g id="edge10_Node000008_Node000005" class="edge">
<title>Node8&#45;&gt;Node5</title>
<g id="a_edge10_Node000008_Node000005"><a xlink:title=" ">
<path fill="none" stroke="#63b8ff" d="M482.85,-185.64C474.54,-169.27 455.63,-134.98 432.41,-112 394.22,-74.22 339.73,-42.86 306.28,-25.55"/>
<polygon fill="#63b8ff" stroke="#63b8ff" points="308.06,-22.53 297.56,-21.12 304.89,-28.77 308.06,-22.53"/>
</a>
</g>
</g>
<!-- Node8&#45;&gt;Node6 -->
<g id="edge9_Node000008_Node000006" class="edge">
<title>Node8&#45;&gt;Node6</title>
<g id="a_edge9_Node000008_Node000006"><a xlink:title=" ">
<path fill="none" stroke="#63b8ff" d="M495.45,-185.65C511.27,-166.6 545.94,-121.23 558.41,-76 560.77,-67.43 561.23,-64.43 558.41,-56 555.04,-45.97 548.46,-36.39 541.98,-28.66"/>
<polygon fill="#63b8ff" stroke="#63b8ff" points="544.67,-26.43 535.36,-21.38 539.49,-31.13 544.67,-26.43"/>
</a>
</g>
</g>
<!-- Node8&#45;&gt;Node9 -->
<g id="edge11_Node000008_Node000009" class="edge">
<title>Node8&#45;&gt;Node9</title>
<g id="a_edge11_Node000008_Node000009"><a xlink:title=" ">
<path fill="none" stroke="#63b8ff" d="M500.45,-185.6C513.51,-175.89 533.83,-159.96 549.41,-144 586.09,-106.4 622.38,-56.27 640.85,-29.57"/>
<polygon fill="#63b8ff" stroke="#63b8ff" points="643.6,-31.74 646.37,-21.51 637.83,-27.79 643.6,-31.74"/>
</a>
</g>
</g>
<!-- Node10&#45;&gt;Node3 -->
<g id="edge13_Node000010_Node000003" class="edge">
<title>Node10&#45;&gt;Node3</title>
<g id="a_edge13_Node000010_Node000003"><a xlink:title=" ">
<path fill="none" stroke="#63b8ff" d="M332.71,-185.54C337.28,-177.39 344.1,-165.22 350.24,-154.27"/>
<polygon fill="#63b8ff" stroke="#63b8ff" points="353.25,-156.06 355.09,-145.62 347.14,-152.63 353.25,-156.06"/>
</a>
</g>
</g>
<!-- Node11&#45;&gt;Node4 -->
<g id="edge26_Node000011_Node000004" class="edge">
<title>Node11&#45;&gt;Node4</title>
<g id="a_edge26_Node000011_Node000004"><a xlink:title=" ">
<path fill="none" stroke="#63b8ff" d="M165.12,-179.55C175.87,-169.53 190.09,-156.12 202.41,-144 222.86,-123.86 245.81,-100.13 260.87,-84.39"/>
<polygon fill="#63b8ff" stroke="#63b8ff" points="263.33,-86.87 267.71,-77.22 258.27,-82.04 263.33,-86.87"/>
</a>
</g>
</g>
<!-- Node11&#45;&gt;Node5 -->
<g id="edge23_Node000011_Node000005" class="edge">
<title>Node11&#45;&gt;Node5</title>
<g id="a_edge23_Node000011_Node000005"><a xlink:title=" ">
<path fill="none" stroke="#63b8ff" d="M93.08,-179.55C75.72,-171.81 58.48,-160.45 48.41,-144 40.98,-131.87 40.69,-123.95 48.41,-112 91.76,-44.85 191.16,-22.03 243.22,-14.52"/>
<polygon fill="#63b8ff" stroke="#63b8ff" points="243.52,-18.01 252.98,-13.23 242.61,-11.07 243.52,-18.01"/>
</a>
</g>
</g>
<!-- Node12 -->
<g id="Node000012" class="node">
<title>Node12</title>
<g id="a_Node000012"><a xlink:href="$_matrix_8h.html" xlink:title=" ">
<polygon fill="white" stroke="#666666" points="233.03,-76 181.78,-76 181.78,-56 233.03,-56 233.03,-76"/>
<text xml:space="preserve" text-anchor="middle" x="207.41" y="-62.5" font-family="Helvetica,sans-Serif" font-size="10.00">Matrix.h</text>
</a>
</g>
</g>
<!-- Node11&#45;&gt;Node12 -->
<g id="edge15_Node000011_Node000012" class="edge">
<title>Node11&#45;&gt;Node12</title>
<g id="a_edge15_Node000011_Node000012"><a xlink:title=" ">
<path fill="none" stroke="#63b8ff" d="M160.3,-179.59C167.43,-169.81 176.28,-156.64 182.41,-144 191.3,-125.63 198.15,-103.33 202.41,-87.47"/>
<polygon fill="#63b8ff" stroke="#63b8ff" points="205.8,-88.34 204.88,-77.79 199.01,-86.61 205.8,-88.34"/>
</a>
</g>
</g>
<!-- Node13 -->
<g id="Node000013" class="node">
<title>Node13</title>
<g id="a_Node000013"><a xlink:title=" ">
<polygon fill="#e0e0e0" stroke="#999999" points="110.41,-20 52.41,-20 52.41,0 110.41,0 110.41,-20"/>
<text xml:space="preserve" text-anchor="middle" x="81.41" y="-6.5" font-family="Helvetica,sans-Serif" font-size="10.00">functional</text>
</a>
</g>
</g>
<!-- Node11&#45;&gt;Node13 -->
<g id="edge24_Node000011_Node000013" class="edge">
<title>Node11&#45;&gt;Node13</title>
<g id="a_edge24_Node000011_Node000013"><a xlink:title=" ">
<path fill="none" stroke="#63b8ff" d="M84.74,-186.5C58.76,-179.55 31.17,-166.93 15.41,-144 -6.75,-111.77 -2.87,-90.58 15.41,-56 22.29,-42.97 34.83,-33.01 47.14,-25.81"/>
<polygon fill="#63b8ff" stroke="#63b8ff" points="48.78,-28.9 55.97,-21.11 45.5,-22.72 48.78,-28.9"/>
</a>
</g>
</g>
<!-- Node14 -->
<g id="Node000014" class="node">
<title>Node14</title>
<g id="a_Node000014"><a xlink:href="$_layer_8h.html" xlink:title=" ">
<polygon fill="white" stroke="#666666" points="105.53,-138 57.28,-138 57.28,-118 105.53,-118 105.53,-138"/>
<text xml:space="preserve" text-anchor="middle" x="81.41" y="-124.5" font-family="Helvetica,sans-Serif" font-size="10.00">Layer.h</text>
</a>
</g>
</g>
<!-- Node11&#45;&gt;Node14 -->
<g id="edge20_Node000011_Node000014" class="edge">
<title>Node11&#45;&gt;Node14</title>
<g id="a_edge20_Node000011_Node000014"><a xlink:title=" ">
<path fill="none" stroke="#63b8ff" d="M132.87,-179.69C122.72,-169.7 109.45,-156.63 98.93,-146.26"/>
<polygon fill="#63b8ff" stroke="#63b8ff" points="101.52,-143.9 91.94,-139.38 96.61,-148.89 101.52,-143.9"/>
</a>
</g>
</g>
<!-- Node15 -->
<g id="Node000015" class="node">
<title>Node15</title>
<g id="a_Node000015"><a xlink:title=" ">
<polygon fill="#e0e0e0" stroke="#999999" points="172.91,-138 123.91,-138 123.91,-118 172.91,-118 172.91,-138"/>
<text xml:space="preserve" text-anchor="middle" x="148.41" y="-124.5" font-family="Helvetica,sans-Serif" font-size="10.00">fstream</text>
</a>
</g>
</g>
<!-- Node11&#45;&gt;Node15 -->
<g id="edge25_Node000011_Node000015" class="edge">
<title>Node11&#45;&gt;Node15</title>
<g id="a_edge25_Node000011_Node000015"><a xlink:title=" ">
<path fill="none" stroke="#63b8ff" d="M148.41,-179.69C148.41,-170.8 148.41,-159.46 148.41,-149.77"/>
<polygon fill="#63b8ff" stroke="#63b8ff" points="151.91,-149.83 148.41,-139.83 144.91,-149.83 151.91,-149.83"/>
</a>
</g>
</g>
<!-- Node12&#45;&gt;Node5 -->
<g id="edge16_Node000012_Node000005" class="edge">
<title>Node12&#45;&gt;Node5</title>
<g id="a_edge16_Node000012_Node000005"><a xlink:title=" ">
<path fill="none" stroke="#63b8ff" d="M219.42,-55.59C229.42,-47.77 243.87,-36.46 255.72,-27.19"/>
<polygon fill="#63b8ff" stroke="#63b8ff" points="257.61,-30.15 263.33,-21.23 253.3,-24.64 257.61,-30.15"/>
</a>
</g>
</g>
<!-- Node12&#45;&gt;Node6 -->
<g id="edge18_Node000012_Node000006" class="edge">
<title>Node12&#45;&gt;Node6</title>
<g id="a_edge18_Node000012_Node000006"><a xlink:title=" ">
<path fill="none" stroke="#63b8ff" d="M233.39,-59.07C238.36,-58 243.54,-56.93 248.41,-56 332.86,-39.86 432.56,-24.51 485.99,-16.59"/>
<polygon fill="#63b8ff" stroke="#63b8ff" points="486.41,-20.06 495.79,-15.14 485.39,-13.14 486.41,-20.06"/>
</a>
</g>
</g>
<!-- Node12&#45;&gt;Node9 -->
<g id="edge19_Node000012_Node000009" class="edge">
<title>Node12&#45;&gt;Node9</title>
<g id="a_edge19_Node000012_Node000009"><a xlink:title=" ">
<path fill="none" stroke="#63b8ff" d="M233.35,-58.87C238.33,-57.82 243.52,-56.81 248.41,-56 317.81,-44.56 523.77,-23.74 612.25,-15.02"/>
<polygon fill="#63b8ff" stroke="#63b8ff" points="612.57,-18.5 622.18,-14.04 611.89,-11.53 612.57,-18.5"/>
</a>
</g>
</g>
<!-- Node12&#45;&gt;Node13 -->
<g id="edge17_Node000012_Node000013" class="edge">
<title>Node12&#45;&gt;Node13</title>
<g id="a_edge17_Node000012_Node000013"><a xlink:title=" ">
<path fill="none" stroke="#63b8ff" d="M185.46,-55.59C165.7,-47.13 136.41,-34.58 113.94,-24.94"/>
<polygon fill="#63b8ff" stroke="#63b8ff" points="115.49,-21.8 104.92,-21.08 112.73,-28.23 115.49,-21.8"/>
</a>
</g>
</g>
<!-- Node14&#45;&gt;Node12 -->
<g id="edge22_Node000014_Node000012" class="edge">
<title>Node14&#45;&gt;Node12</title>
<g id="a_edge22_Node000014_Node000012"><a xlink:title=" ">
<path fill="none" stroke="#63b8ff" d="M101.09,-117.62C121.62,-107.85 154.04,-92.41 177.68,-81.15"/>
<polygon fill="#63b8ff" stroke="#63b8ff" points="178.97,-84.42 186.49,-76.96 175.96,-78.1 178.97,-84.42"/>
</a>
</g>
</g>
<!-- Node14&#45;&gt;Node13 -->
<g id="edge21_Node000014_Node000013" class="edge">
<title>Node14&#45;&gt;Node13</title>
<g id="a_edge21_Node000014_Node000013"><a xlink:title=" ">
<path fill="none" stroke="#63b8ff" d="M81.41,-117.51C81.41,-98.81 81.41,-56.82 81.41,-31.51"/>
<polygon fill="#63b8ff" stroke="#63b8ff" points="84.91,-31.81 81.41,-21.81 77.91,-31.81 84.91,-31.81"/>
</a>
</g>
</g>
</g>
</svg>
