<?xml version="1.0" encoding="UTF-8" standalone="no"?>
<!DOCTYPE svg PUBLIC "-//W3C//DTD SVG 1.1//EN"
 "http://www.w3.org/Graphics/SVG/1.1/DTD/svg11.dtd">
<!-- Generated by graphviz version 14.0.2 (20251019.1705)
 -->
<!-- Title: Games/Large_Tic_Tac_Toe/Large_Tic_Tac_Toe.h Pages: 1 -->
<svg width="248pt" height="108pt"
 viewBox="0.00 0.00 248.00 108.00" xmlns="http://www.w3.org/2000/svg" xmlns:xlink="http://www.w3.org/1999/xlink">
<g id="graph0" class="graph" transform="scale(1 1) rotate(0) translate(4 104)">
<title>Games/Large_Tic_Tac_Toe/Large_Tic_Tac_Toe.h</title>
<!-- Node1 -->
<g id="Node000001" class="node">
<title>Node1</title>
<g id="a_Node000001"><a xlink:title=" ">
<polygon fill="#999999" stroke="#666666" points="202.25,-100 69.25,-100 69.25,-68 202.25,-68 202.25,-100"/>
<text xml:space="preserve" text-anchor="start" x="77.25" y="-86.5" font-family="Helvetica,sans-Serif" font-size="10.00">Games/Large_Tic_Tac</text>
<text xml:space="preserve" text-anchor="middle" x="135.75" y="-74.5" font-family="Helvetica,sans-Serif" font-size="10.00">_Toe/Large_Tic_Tac_Toe.h</text>
</a>
</g>
</g>
<!-- Node2 -->
<g id="Node000002" class="node">
<title>Node2</title>
<g id="a_Node000002"><a xlink:href="_large___tic___tac___toe_8cpp.html" target="_top" xlink:title=" ">
<polygon fill="white" stroke="#666666" points="143.5,-32 0,-32 0,0 143.5,0 143.5,-32"/>
<text xml:space="preserve" text-anchor="start" x="8" y="-18.5" font-family="Helvetica,sans-Serif" font-size="10.00">Games/Large_Tic_Tac</text>
<text xml:space="preserve" text-anchor="middle" x="71.75" y="-6.5" font-family="Helvetica,sans-Serif" font-size="10.00">_Toe/Large_Tic_Tac_Toe.cpp</text>
</a>
</g>
</g>
<!-- Node1&#45;&gt;Node2 -->
<g id="edge1_Node000001_Node000002" class="edge">
<title>Node1&#45;&gt;Node2</title>
<g id="a_edge1_Node000001_Node000002"><a xlink:title=" ">
<path fill="none" stroke="#63b8ff" d="M112.89,-59.43C104.12,-50.38 94.34,-40.29 86.51,-32.22"/>
<polygon fill="#63b8ff" stroke="#63b8ff" points="110.38,-61.86 119.85,-66.61 115.4,-56.99 110.38,-61.86"/>
</a>
</g>
</g>
<!-- Node3 -->
<g id="Node000003" class="node">
<title>Node3</title>
<g id="a_Node000003"><a xlink:href="_the_game_8cpp.html" target="_top" xlink:title=" ">
<polygon fill="white" stroke="#666666" points="239.5,-26 162,-26 162,-6 239.5,-6 239.5,-26"/>
<text xml:space="preserve" text-anchor="middle" x="200.75" y="-12.5" font-family="Helvetica,sans-Serif" font-size="10.00">TheGame.cpp</text>
</a>
</g>
</g>
<!-- Node1&#45;&gt;Node3 -->
<g id="edge2_Node000001_Node000003" class="edge">
<title>Node1&#45;&gt;Node3</title>
<g id="a_edge2_Node000001_Node000003"><a xlink:title=" ">
<path fill="none" stroke="#63b8ff" d="M158.69,-59.71C170.02,-48.2 183.06,-34.97 191.57,-26.32"/>
<polygon fill="#63b8ff" stroke="#63b8ff" points="156.41,-57.03 151.89,-66.61 161.4,-61.95 156.41,-57.03"/>
</a>
</g>
</g>
</g>
</svg>
