<?xml version="1.0" encoding="UTF-8" standalone="no"?>
<!DOCTYPE svg PUBLIC "-//W3C//DTD SVG 1.1//EN"
 "http://www.w3.org/Graphics/SVG/1.1/DTD/svg11.dtd">
<!-- Generated by graphviz version 14.0.2 (20251019.1705)
 -->
<!-- Title: Games/Large_Tic_Tac_Toe/Large_Tic_Tac_Toe.h Pages: 1 -->
<svg width="521pt" height="288pt"
 viewBox="0.00 0.00 521.00 288.00" xmlns="http://www.w3.org/2000/svg" xmlns:xlink="http://www.w3.org/1999/xlink">
<g id="graph0" class="graph" transform="scale(1 1) rotate(0) translate(4 284)">
<title>Games/Large_Tic_Tac_Toe/Large_Tic_Tac_Toe.h</title>
<!-- Node1 -->
<g id="Node000001" class="node">
<title>Node1</title>
<g id="a_Node000001"><a xlink:title=" ">
<polygon fill="#999999" stroke="#666666" points="242.62,-280 109.62,-280 109.62,-248 242.62,-248 242.62,-280"/>
<text xml:space="preserve" text-anchor="start" x="117.62" y="-266.5" font-family="Helvetica,sans-Serif" font-size="10.00">Games/Large_Tic_Tac</text>
<text xml:space="preserve" text-anchor="middle" x="176.12" y="-254.5" font-family="Helvetica,sans-Serif" font-size="10.00">_Toe/Large_Tic_Tac_Toe.h</text>
</a>
</g>
</g>
<!-- Node2 -->
<g id="Node000002" class="node">
<title>Node2</title>
<g id="a_Node000002"><a xlink:href="$_board_game___classes_8h.html" xlink:title=" ">
<polygon fill="white" stroke="#666666" points="207.12,-88 89.12,-88 89.12,-56 207.12,-56 207.12,-88"/>
<text xml:space="preserve" text-anchor="start" x="97.12" y="-74.5" font-family="Helvetica,sans-Serif" font-size="10.00">../../header/BoardGame</text>
<text xml:space="preserve" text-anchor="middle" x="148.12" y="-62.5" font-family="Helvetica,sans-Serif" font-size="10.00">_Classes.h</text>
</a>
</g>
</g>
<!-- Node1&#45;&gt;Node2 -->
<g id="edge1_Node000001_Node000002" class="edge">
<title>Node1&#45;&gt;Node2</title>
<g id="a_edge1_Node000001_Node000002"><a xlink:title=" ">
<path fill="none" stroke="#63b8ff" d="M171.83,-247.75C165.72,-225.27 154.74,-181.78 150.12,-144 148.34,-129.38 147.78,-112.95 147.7,-99.58"/>
<polygon fill="#63b8ff" stroke="#63b8ff" points="151.2,-99.82 147.73,-89.81 144.2,-99.8 151.2,-99.82"/>
</a>
</g>
</g>
<!-- Node7 -->
<g id="Node000007" class="node">
<title>Node7</title>
<g id="a_Node000007"><a xlink:href="$_custom___u_i_8h.html" xlink:title="Defines a customizable user interface for board games.">
<polygon fill="white" stroke="#666666" points="283.5,-144 158.75,-144 158.75,-124 283.5,-124 283.5,-144"/>
<text xml:space="preserve" text-anchor="middle" x="221.12" y="-130.5" font-family="Helvetica,sans-Serif" font-size="10.00">../../header/Custom_UI.h</text>
</a>
</g>
</g>
<!-- Node1&#45;&gt;Node7 -->
<g id="edge6_Node000001_Node000007" class="edge">
<title>Node1&#45;&gt;Node7</title>
<g id="a_edge6_Node000001_Node000007"><a xlink:title=" ">
<path fill="none" stroke="#63b8ff" d="M181.55,-247.56C189.71,-224.37 205.11,-180.54 214.11,-154.96"/>
<polygon fill="#63b8ff" stroke="#63b8ff" points="217.33,-156.35 217.34,-145.75 210.73,-154.03 217.33,-156.35"/>
</a>
</g>
</g>
<!-- Node9 -->
<g id="Node000009" class="node">
<title>Node9</title>
<g id="a_Node000009"><a xlink:href="$_a_i_8h.html" xlink:title=" ">
<polygon fill="white" stroke="#666666" points="84.25,-206 0,-206 0,-186 84.25,-186 84.25,-206"/>
<text xml:space="preserve" text-anchor="middle" x="42.12" y="-192.5" font-family="Helvetica,sans-Serif" font-size="10.00">../../header/AI.h</text>
</a>
</g>
</g>
<!-- Node1&#45;&gt;Node9 -->
<g id="edge11_Node000001_Node000009" class="edge">
<title>Node1&#45;&gt;Node9</title>
<g id="a_edge11_Node000001_Node000009"><a xlink:title=" ">
<path fill="none" stroke="#63b8ff" d="M144.71,-247.53C122.61,-236.64 93.22,-222.17 71.57,-211.5"/>
<polygon fill="#63b8ff" stroke="#63b8ff" points="73.21,-208.41 62.69,-207.13 70.11,-214.69 73.21,-208.41"/>
</a>
</g>
</g>
<!-- Node10 -->
<g id="Node000010" class="node">
<title>Node10</title>
<g id="a_Node000010"><a xlink:href="$_neural_network_8h.html" xlink:title=" ">
<polygon fill="white" stroke="#666666" points="427.62,-212 300.62,-212 300.62,-180 427.62,-180 427.62,-212"/>
<text xml:space="preserve" text-anchor="start" x="308.62" y="-198.5" font-family="Helvetica,sans-Serif" font-size="10.00">../../Neural_Network</text>
<text xml:space="preserve" text-anchor="middle" x="364.12" y="-186.5" font-family="Helvetica,sans-Serif" font-size="10.00">/Include/NeuralNetwork.h</text>
</a>
</g>
</g>
<!-- Node1&#45;&gt;Node10 -->
<g id="edge13_Node000001_Node000010" class="edge">
<title>Node1&#45;&gt;Node10</title>
<g id="a_edge13_Node000001_Node000010"><a xlink:title=" ">
<path fill="none" stroke="#63b8ff" d="M220.2,-247.53C246.86,-238.17 281.06,-226.16 309.44,-216.2"/>
<polygon fill="#63b8ff" stroke="#63b8ff" points="310.29,-219.61 318.57,-212.99 307.98,-213 310.29,-219.61"/>
</a>
</g>
</g>
<!-- Node3 -->
<g id="Node000003" class="node">
<title>Node3</title>
<g id="a_Node000003"><a xlink:title=" ">
<polygon fill="#e0e0e0" stroke="#999999" points="93.12,-20 53.12,-20 53.12,0 93.12,0 93.12,-20"/>
<text xml:space="preserve" text-anchor="middle" x="73.12" y="-6.5" font-family="Helvetica,sans-Serif" font-size="10.00">string</text>
</a>
</g>
</g>
<!-- Node2&#45;&gt;Node3 -->
<g id="edge2_Node000002_Node000003" class="edge">
<title>Node2&#45;&gt;Node3</title>
<g id="a_edge2_Node000002_Node000003"><a xlink:title=" ">
<path fill="none" stroke="#63b8ff" d="M128.81,-55.55C118.07,-46.95 104.7,-36.26 93.75,-27.5"/>
<polygon fill="#63b8ff" stroke="#63b8ff" points="96.06,-24.87 86.07,-21.35 91.69,-30.33 96.06,-24.87"/>
</a>
</g>
</g>
<!-- Node4 -->
<g id="Node000004" class="node">
<title>Node4</title>
<g id="a_Node000004"><a xlink:title=" ">
<polygon fill="#e0e0e0" stroke="#999999" points="327.62,-20 284.62,-20 284.62,0 327.62,0 327.62,-20"/>
<text xml:space="preserve" text-anchor="middle" x="306.12" y="-6.5" font-family="Helvetica,sans-Serif" font-size="10.00">vector</text>
</a>
</g>
</g>
<!-- Node2&#45;&gt;Node4 -->
<g id="edge3_Node000002_Node000004" class="edge">
<title>Node2&#45;&gt;Node4</title>
<g id="a_edge3_Node000002_Node000004"><a xlink:title=" ">
<path fill="none" stroke="#63b8ff" d="M188.81,-55.55C215.3,-45.49 249.36,-32.56 273.95,-23.22"/>
<polygon fill="#63b8ff" stroke="#63b8ff" points="275,-26.56 283.11,-19.74 272.51,-20.02 275,-26.56"/>
</a>
</g>
</g>
<!-- Node5 -->
<g id="Node000005" class="node">
<title>Node5</title>
<g id="a_Node000005"><a xlink:title=" ">
<polygon fill="#e0e0e0" stroke="#999999" points="261.88,-20 208.38,-20 208.38,0 261.88,0 261.88,-20"/>
<text xml:space="preserve" text-anchor="middle" x="235.12" y="-6.5" font-family="Helvetica,sans-Serif" font-size="10.00">iostream</text>
</a>
</g>
</g>
<!-- Node2&#45;&gt;Node5 -->
<g id="edge4_Node000002_Node000005" class="edge">
<title>Node2&#45;&gt;Node5</title>
<g id="a_edge4_Node000002_Node000005"><a xlink:title=" ">
<path fill="none" stroke="#63b8ff" d="M170.53,-55.55C183.37,-46.69 199.44,-35.61 212.34,-26.71"/>
<polygon fill="#63b8ff" stroke="#63b8ff" points="213.99,-29.83 220.24,-21.27 210.02,-24.06 213.99,-29.83"/>
</a>
</g>
</g>
<!-- Node6 -->
<g id="Node000006" class="node">
<title>Node6</title>
<g id="a_Node000006"><a xlink:title=" ">
<polygon fill="#e0e0e0" stroke="#999999" points="173,-20 123.25,-20 123.25,0 173,0 173,-20"/>
<text xml:space="preserve" text-anchor="middle" x="148.12" y="-6.5" font-family="Helvetica,sans-Serif" font-size="10.00">iomanip</text>
</a>
</g>
</g>
<!-- Node2&#45;&gt;Node6 -->
<g id="edge5_Node000002_Node000006" class="edge">
<title>Node2&#45;&gt;Node6</title>
<g id="a_edge5_Node000002_Node000006"><a xlink:title=" ">
<path fill="none" stroke="#63b8ff" d="M148.12,-55.55C148.12,-48.34 148.12,-39.66 148.12,-31.88"/>
<polygon fill="#63b8ff" stroke="#63b8ff" points="151.63,-31.92 148.13,-21.92 144.63,-31.92 151.63,-31.92"/>
</a>
</g>
</g>
<!-- Node7&#45;&gt;Node2 -->
<g id="edge7_Node000007_Node000002" class="edge">
<title>Node7&#45;&gt;Node2</title>
<g id="a_edge7_Node000007_Node000002"><a xlink:title=" ">
<path fill="none" stroke="#63b8ff" d="M209.72,-123.62C200.58,-116.11 187.37,-105.26 175.53,-95.52"/>
<polygon fill="#63b8ff" stroke="#63b8ff" points="177.95,-92.98 168,-89.33 173.5,-98.39 177.95,-92.98"/>
</a>
</g>
</g>
<!-- Node7&#45;&gt;Node4 -->
<g id="edge9_Node000007_Node000004" class="edge">
<title>Node7&#45;&gt;Node4</title>
<g id="a_edge9_Node000007_Node000004"><a xlink:title=" ">
<path fill="none" stroke="#63b8ff" d="M227.51,-123.83C241.42,-103.87 274.67,-56.15 293.16,-29.61"/>
<polygon fill="#63b8ff" stroke="#63b8ff" points="295.95,-31.72 298.8,-21.52 290.21,-27.72 295.95,-31.72"/>
</a>
</g>
</g>
<!-- Node7&#45;&gt;Node5 -->
<g id="edge8_Node000007_Node000005" class="edge">
<title>Node7&#45;&gt;Node5</title>
<g id="a_edge8_Node000007_Node000005"><a xlink:title=" ">
<path fill="none" stroke="#63b8ff" d="M222.18,-123.83C224.42,-104.31 229.7,-58.25 232.78,-31.4"/>
<polygon fill="#63b8ff" stroke="#63b8ff" points="236.22,-32.11 233.89,-21.78 229.27,-31.32 236.22,-32.11"/>
</a>
</g>
</g>
<!-- Node8 -->
<g id="Node000008" class="node">
<title>Node8</title>
<g id="a_Node000008"><a xlink:title=" ">
<polygon fill="#e0e0e0" stroke="#999999" points="413.5,-20 354.75,-20 354.75,0 413.5,0 413.5,-20"/>
<text xml:space="preserve" text-anchor="middle" x="384.12" y="-6.5" font-family="Helvetica,sans-Serif" font-size="10.00">stdexcept</text>
</a>
</g>
</g>
<!-- Node7&#45;&gt;Node8 -->
<g id="edge10_Node000007_Node000008" class="edge">
<title>Node7&#45;&gt;Node8</title>
<g id="a_edge10_Node000007_Node000008"><a xlink:title=" ">
<path fill="none" stroke="#63b8ff" d="M233.64,-123.63C261.45,-102.82 328.59,-52.57 363.01,-26.81"/>
<polygon fill="#63b8ff" stroke="#63b8ff" points="364.67,-29.94 370.57,-21.14 360.47,-24.33 364.67,-29.94"/>
</a>
</g>
</g>
<!-- Node9&#45;&gt;Node2 -->
<g id="edge12_Node000009_Node000002" class="edge">
<title>Node9&#45;&gt;Node2</title>
<g id="a_edge12_Node000009_Node000002"><a xlink:title=" ">
<path fill="none" stroke="#63b8ff" d="M50.09,-185.83C66.36,-167.11 103.84,-123.98 127.45,-96.79"/>
<polygon fill="#63b8ff" stroke="#63b8ff" points="129.97,-99.23 133.89,-89.39 124.69,-94.64 129.97,-99.23"/>
</a>
</g>
</g>
<!-- Node10&#45;&gt;Node3 -->
<g id="edge25_Node000010_Node000003" class="edge">
<title>Node10&#45;&gt;Node3</title>
<g id="a_edge25_Node000010_Node000003"><a xlink:title=" ">
<path fill="none" stroke="#63b8ff" d="M300.3,-187.3C256.39,-180.24 197.66,-167.22 150.12,-144 114.33,-126.51 98.99,-123.09 80.12,-88 70.8,-70.65 69.86,-47.88 70.76,-31.62"/>
<polygon fill="#63b8ff" stroke="#63b8ff" points="74.25,-31.96 71.63,-21.7 67.27,-31.36 74.25,-31.96"/>
</a>
</g>
</g>
<!-- Node10&#45;&gt;Node4 -->
<g id="edge22_Node000010_Node000004" class="edge">
<title>Node10&#45;&gt;Node4</title>
<g id="a_edge22_Node000010_Node000004"><a xlink:title=" ">
<path fill="none" stroke="#63b8ff" d="M352.03,-179.79C344.9,-170.08 336.29,-156.93 331.12,-144 315.99,-106.12 309.89,-58.46 307.53,-31.7"/>
<polygon fill="#63b8ff" stroke="#63b8ff" points="311.03,-31.58 306.76,-21.88 304.05,-32.12 311.03,-31.58"/>
</a>
</g>
</g>
<!-- Node11 -->
<g id="Node000011" class="node">
<title>Node11</title>
<g id="a_Node000011"><a xlink:href="$_matrix_8h.html" xlink:title=" ">
<polygon fill="white" stroke="#666666" points="437.75,-82 386.5,-82 386.5,-62 437.75,-62 437.75,-82"/>
<text xml:space="preserve" text-anchor="middle" x="412.12" y="-68.5" font-family="Helvetica,sans-Serif" font-size="10.00">Matrix.h</text>
</a>
</g>
</g>
<!-- Node10&#45;&gt;Node11 -->
<g id="edge14_Node000010_Node000011" class="edge">
<title>Node10&#45;&gt;Node11</title>
<g id="a_edge14_Node000010_Node000011"><a xlink:title=" ">
<path fill="none" stroke="#63b8ff" d="M376.56,-179.83C383.9,-170.14 392.77,-156.98 398.12,-144 404.87,-127.65 408.43,-107.82 410.27,-93.27"/>
<polygon fill="#63b8ff" stroke="#63b8ff" points="413.72,-93.89 411.32,-83.57 406.76,-93.14 413.72,-93.89"/>
</a>
</g>
</g>
<!-- Node12 -->
<g id="Node000012" class="node">
<title>Node12</title>
<g id="a_Node000012"><a xlink:title=" ">
<polygon fill="#e0e0e0" stroke="#999999" points="498.12,-20 440.12,-20 440.12,0 498.12,0 498.12,-20"/>
<text xml:space="preserve" text-anchor="middle" x="469.12" y="-6.5" font-family="Helvetica,sans-Serif" font-size="10.00">functional</text>
</a>
</g>
</g>
<!-- Node10&#45;&gt;Node12 -->
<g id="edge23_Node000010_Node000012" class="edge">
<title>Node10&#45;&gt;Node12</title>
<g id="a_edge23_Node000010_Node000012"><a xlink:title=" ">
<path fill="none" stroke="#63b8ff" d="M427.96,-187.65C455.53,-180.95 485.26,-168.21 502.12,-144 526.72,-108.69 500.08,-56.87 482.33,-29.51"/>
<polygon fill="#63b8ff" stroke="#63b8ff" points="485.45,-27.87 476.94,-21.56 479.66,-31.8 485.45,-27.87"/>
</a>
</g>
</g>
<!-- Node13 -->
<g id="Node000013" class="node">
<title>Node13</title>
<g id="a_Node000013"><a xlink:href="$_layer_8h.html" xlink:title=" ">
<polygon fill="white" stroke="#666666" points="493.25,-144 445,-144 445,-124 493.25,-124 493.25,-144"/>
<text xml:space="preserve" text-anchor="middle" x="469.12" y="-130.5" font-family="Helvetica,sans-Serif" font-size="10.00">Layer.h</text>
</a>
</g>
</g>
<!-- Node10&#45;&gt;Node13 -->
<g id="edge19_Node000010_Node000013" class="edge">
<title>Node10&#45;&gt;Node13</title>
<g id="a_edge19_Node000010_Node000013"><a xlink:title=" ">
<path fill="none" stroke="#63b8ff" d="M391.17,-179.55C407.12,-170.43 427.2,-158.96 442.99,-149.93"/>
<polygon fill="#63b8ff" stroke="#63b8ff" points="444.4,-153.16 451.35,-145.16 440.93,-147.08 444.4,-153.16"/>
</a>
</g>
</g>
<!-- Node14 -->
<g id="Node000014" class="node">
<title>Node14</title>
<g id="a_Node000014"><a xlink:title=" ">
<polygon fill="#e0e0e0" stroke="#999999" points="388.62,-144 339.62,-144 339.62,-124 388.62,-124 388.62,-144"/>
<text xml:space="preserve" text-anchor="middle" x="364.12" y="-130.5" font-family="Helvetica,sans-Serif" font-size="10.00">fstream</text>
</a>
</g>
</g>
<!-- Node10&#45;&gt;Node14 -->
<g id="edge24_Node000010_Node000014" class="edge">
<title>Node10&#45;&gt;Node14</title>
<g id="a_edge24_Node000010_Node000014"><a xlink:title=" ">
<path fill="none" stroke="#63b8ff" d="M364.12,-179.55C364.12,-172.34 364.12,-163.66 364.12,-155.88"/>
<polygon fill="#63b8ff" stroke="#63b8ff" points="367.63,-155.92 364.13,-145.92 360.63,-155.92 367.63,-155.92"/>
</a>
</g>
</g>
<!-- Node11&#45;&gt;Node4 -->
<g id="edge15_Node000011_Node000004" class="edge">
<title>Node11&#45;&gt;Node4</title>
<g id="a_edge15_Node000011_Node000004"><a xlink:title=" ">
<path fill="none" stroke="#63b8ff" d="M395.56,-61.62C378.68,-52.07 352.24,-37.11 332.48,-25.92"/>
<polygon fill="#63b8ff" stroke="#63b8ff" points="334.32,-22.93 323.89,-21.05 330.87,-29.03 334.32,-22.93"/>
</a>
</g>
</g>
<!-- Node11&#45;&gt;Node5 -->
<g id="edge17_Node000011_Node000005" class="edge">
<title>Node11&#45;&gt;Node5</title>
<g id="a_edge17_Node000011_Node000005"><a xlink:title=" ">
<path fill="none" stroke="#63b8ff" d="M386.01,-62.15C356.07,-52 306.76,-35.28 272.7,-23.74"/>
<polygon fill="#63b8ff" stroke="#63b8ff" points="274.25,-20.57 263.65,-20.67 272,-27.2 274.25,-20.57"/>
</a>
</g>
</g>
<!-- Node11&#45;&gt;Node8 -->
<g id="edge18_Node000011_Node000008" class="edge">
<title>Node11&#45;&gt;Node8</title>
<g id="a_edge18_Node000011_Node000008"><a xlink:title=" ">
<path fill="none" stroke="#63b8ff" d="M407.75,-61.62C403.86,-53.3 398.06,-40.86 393.18,-30.4"/>
<polygon fill="#63b8ff" stroke="#63b8ff" points="396.42,-29.07 389.02,-21.48 390.07,-32.03 396.42,-29.07"/>
</a>
</g>
</g>
<!-- Node11&#45;&gt;Node12 -->
<g id="edge16_Node000011_Node000012" class="edge">
<title>Node11&#45;&gt;Node12</title>
<g id="a_edge16_Node000011_Node000012"><a xlink:title=" ">
<path fill="none" stroke="#63b8ff" d="M421.03,-61.62C429.45,-52.77 442.28,-39.26 452.57,-28.43"/>
<polygon fill="#63b8ff" stroke="#63b8ff" points="455.08,-30.87 459.43,-21.21 450,-26.05 455.08,-30.87"/>
</a>
</g>
</g>
<!-- Node13&#45;&gt;Node11 -->
<g id="edge21_Node000013_Node000011" class="edge">
<title>Node13&#45;&gt;Node11</title>
<g id="a_edge21_Node000013_Node000011"><a xlink:title=" ">
<path fill="none" stroke="#63b8ff" d="M460.22,-123.62C451.8,-114.77 438.97,-101.26 428.68,-90.43"/>
<polygon fill="#63b8ff" stroke="#63b8ff" points="431.25,-88.05 421.82,-83.21 426.17,-92.87 431.25,-88.05"/>
</a>
</g>
</g>
<!-- Node13&#45;&gt;Node12 -->
<g id="edge20_Node000013_Node000012" class="edge">
<title>Node13&#45;&gt;Node12</title>
<g id="a_edge20_Node000013_Node000012"><a xlink:title=" ">
<path fill="none" stroke="#63b8ff" d="M469.12,-123.83C469.12,-104.4 469.12,-58.67 469.12,-31.77"/>
<polygon fill="#63b8ff" stroke="#63b8ff" points="472.63,-31.79 469.13,-21.79 465.63,-31.79 472.63,-31.79"/>
</a>
</g>
</g>
</g>
</svg>
