<?xml version="1.0" encoding="UTF-8" standalone="no"?>
<!DOCTYPE svg PUBLIC "-//W3C//DTD SVG 1.1//EN"
 "http://www.w3.org/Graphics/SVG/1.1/DTD/svg11.dtd">
<!-- Generated by graphviz version 14.0.2 (20251019.1705)
 -->
<!-- Title: Games/Large_Tic_Tac_Toe/Large_Tic_Tac_Toe.h Pages: 1 -->
<svg width="542pt" height="288pt"
 viewBox="0.00 0.00 542.00 288.00" xmlns="http://www.w3.org/2000/svg" xmlns:xlink="http://www.w3.org/1999/xlink">
<g id="graph0" class="graph" transform="scale(1 1) rotate(0) translate(4 284)">
<title>Games/Large_Tic_Tac_Toe/Large_Tic_Tac_Toe.h</title>
<!-- Node1 -->
<g id="Node000001" class="node">
<title>Node1</title>
<g id="a_Node000001"><a xlink:title=" ">
<polygon fill="#999999" stroke="#666666" points="339.5,-280 206.5,-280 206.5,-248 339.5,-248 339.5,-280"/>
<text xml:space="preserve" text-anchor="start" x="214.5" y="-266.5" font-family="Helvetica,sans-Serif" font-size="10.00">Games/Large_Tic_Tac</text>
<text xml:space="preserve" text-anchor="middle" x="273" y="-254.5" font-family="Helvetica,sans-Serif" font-size="10.00">_Toe/Large_Tic_Tac_Toe.h</text>
</a>
</g>
</g>
<!-- Node2 -->
<g id="Node000002" class="node">
<title>Node2</title>
<g id="a_Node000002"><a xlink:href="_board_game___classes_8h.html" target="_top" xlink:title=" ">
<polygon fill="white" stroke="#666666" points="154,-88 36,-88 36,-56 154,-56 154,-88"/>
<text xml:space="preserve" text-anchor="start" x="44" y="-74.5" font-family="Helvetica,sans-Serif" font-size="10.00">../../header/BoardGame</text>
<text xml:space="preserve" text-anchor="middle" x="95" y="-62.5" font-family="Helvetica,sans-Serif" font-size="10.00">_Classes.h</text>
</a>
</g>
</g>
<!-- Node1&#45;&gt;Node2 -->
<g id="edge1_Node000001_Node000002" class="edge">
<title>Node1&#45;&gt;Node2</title>
<g id="a_edge1_Node000001_Node000002"><a xlink:title=" ">
<path fill="none" stroke="#63b8ff" d="M206.03,-255.06C153.57,-247.31 86.76,-233.49 70,-212 44.24,-178.97 64,-128.11 79.99,-97.94"/>
<polygon fill="#63b8ff" stroke="#63b8ff" points="82.88,-99.95 84.68,-89.51 76.76,-96.55 82.88,-99.95"/>
</a>
</g>
</g>
<!-- Node4 -->
<g id="Node000004" class="node">
<title>Node4</title>
<g id="a_Node000004"><a xlink:title=" ">
<polygon fill="#e0e0e0" stroke="#999999" points="317.5,-20 274.5,-20 274.5,0 317.5,0 317.5,-20"/>
<text xml:space="preserve" text-anchor="middle" x="296" y="-6.5" font-family="Helvetica,sans-Serif" font-size="10.00">vector</text>
</a>
</g>
</g>
<!-- Node1&#45;&gt;Node4 -->
<g id="edge28_Node000001_Node000004" class="edge">
<title>Node1&#45;&gt;Node4</title>
<g id="a_edge28_Node000001_Node000004"><a xlink:title=" ">
<path fill="none" stroke="#63b8ff" d="M274.4,-247.62C278.36,-204.26 289.61,-81.02 294.11,-31.74"/>
<polygon fill="#63b8ff" stroke="#63b8ff" points="297.58,-32.19 295,-21.92 290.61,-31.56 297.58,-32.19"/>
</a>
</g>
</g>
<!-- Node7 -->
<g id="Node000007" class="node">
<title>Node7</title>
<g id="a_Node000007"><a xlink:href="_custom___u_i_8h.html" target="_top" xlink:title="Defines a customizable user interface for board games.">
<polygon fill="white" stroke="#666666" points="268.38,-144 143.62,-144 143.62,-124 268.38,-124 268.38,-144"/>
<text xml:space="preserve" text-anchor="middle" x="206" y="-130.5" font-family="Helvetica,sans-Serif" font-size="10.00">../../header/Custom_UI.h</text>
</a>
</g>
</g>
<!-- Node1&#45;&gt;Node7 -->
<g id="edge6_Node000001_Node000007" class="edge">
<title>Node1&#45;&gt;Node7</title>
<g id="a_edge6_Node000001_Node000007"><a xlink:title=" ">
<path fill="none" stroke="#63b8ff" d="M264.92,-247.56C252.67,-224.16 229.42,-179.75 216.08,-154.27"/>
<polygon fill="#63b8ff" stroke="#63b8ff" points="219.32,-152.9 211.58,-145.67 213.12,-156.15 219.32,-152.9"/>
</a>
</g>
</g>
<!-- Node9 -->
<g id="Node000009" class="node">
<title>Node9</title>
<g id="a_Node000009"><a xlink:href="_a_i_8h.html" target="_top" xlink:title=" ">
<polygon fill="white" stroke="#666666" points="163.12,-206 78.88,-206 78.88,-186 163.12,-186 163.12,-206"/>
<text xml:space="preserve" text-anchor="middle" x="121" y="-192.5" font-family="Helvetica,sans-Serif" font-size="10.00">../../header/AI.h</text>
</a>
</g>
</g>
<!-- Node1&#45;&gt;Node9 -->
<g id="edge11_Node000001_Node000009" class="edge">
<title>Node1&#45;&gt;Node9</title>
<g id="a_edge11_Node000001_Node000009"><a xlink:title=" ">
<path fill="none" stroke="#63b8ff" d="M237.36,-247.53C211.83,-236.44 177.74,-221.64 153.07,-210.92"/>
<polygon fill="#63b8ff" stroke="#63b8ff" points="154.74,-207.84 144.18,-207.06 151.95,-214.26 154.74,-207.84"/>
</a>
</g>
</g>
<!-- Node10 -->
<g id="Node000010" class="node">
<title>Node10</title>
<g id="a_Node000010"><a xlink:href="_neural_network_8h.html" target="_top" xlink:title="Fully&#45;connected feedforward neural network class.">
<polygon fill="white" stroke="#666666" points="451.5,-212 324.5,-212 324.5,-180 451.5,-180 451.5,-212"/>
<text xml:space="preserve" text-anchor="start" x="332.5" y="-198.5" font-family="Helvetica,sans-Serif" font-size="10.00">../../Neural_Network</text>
<text xml:space="preserve" text-anchor="middle" x="388" y="-186.5" font-family="Helvetica,sans-Serif" font-size="10.00">/Include/NeuralNetwork.h</text>
</a>
</g>
</g>
<!-- Node1&#45;&gt;Node10 -->
<g id="edge13_Node000001_Node000010" class="edge">
<title>Node1&#45;&gt;Node10</title>
<g id="a_edge13_Node000001_Node000010"><a xlink:title=" ">
<path fill="none" stroke="#63b8ff" d="M299.96,-247.53C315.25,-238.75 334.58,-227.66 351.24,-218.1"/>
<polygon fill="#63b8ff" stroke="#63b8ff" points="352.96,-221.14 359.89,-213.13 349.48,-215.07 352.96,-221.14"/>
</a>
</g>
</g>
<!-- Node15 -->
<g id="Node000015" class="node">
<title>Node15</title>
<g id="a_Node000015"><a xlink:title=" ">
<polygon fill="#e0e0e0" stroke="#999999" points="520.62,-206 469.38,-206 469.38,-186 520.62,-186 520.62,-206"/>
<text xml:space="preserve" text-anchor="middle" x="495" y="-192.5" font-family="Helvetica,sans-Serif" font-size="10.00">memory</text>
</a>
</g>
</g>
<!-- Node1&#45;&gt;Node15 -->
<g id="edge27_Node000001_Node000015" class="edge">
<title>Node1&#45;&gt;Node15</title>
<g id="a_edge27_Node000001_Node000015"><a xlink:title=" ">
<path fill="none" stroke="#63b8ff" d="M339.44,-247.58C375.76,-238.5 421.31,-226.05 461,-212 462.16,-211.59 463.33,-211.16 464.51,-210.71"/>
<polygon fill="#63b8ff" stroke="#63b8ff" points="465.74,-213.99 473.67,-206.97 463.08,-207.51 465.74,-213.99"/>
</a>
</g>
</g>
<!-- Node3 -->
<g id="Node000003" class="node">
<title>Node3</title>
<g id="a_Node000003"><a xlink:title=" ">
<polygon fill="#e0e0e0" stroke="#999999" points="40,-20 0,-20 0,0 40,0 40,-20"/>
<text xml:space="preserve" text-anchor="middle" x="20" y="-6.5" font-family="Helvetica,sans-Serif" font-size="10.00">string</text>
</a>
</g>
</g>
<!-- Node2&#45;&gt;Node3 -->
<g id="edge2_Node000002_Node000003" class="edge">
<title>Node2&#45;&gt;Node3</title>
<g id="a_edge2_Node000002_Node000003"><a xlink:title=" ">
<path fill="none" stroke="#63b8ff" d="M75.69,-55.55C64.94,-46.95 51.57,-36.26 40.63,-27.5"/>
<polygon fill="#63b8ff" stroke="#63b8ff" points="42.94,-24.87 32.94,-21.35 38.56,-30.33 42.94,-24.87"/>
</a>
</g>
</g>
<!-- Node2&#45;&gt;Node4 -->
<g id="edge3_Node000002_Node000004" class="edge">
<title>Node2&#45;&gt;Node4</title>
<g id="a_edge3_Node000002_Node000004"><a xlink:title=" ">
<path fill="none" stroke="#63b8ff" d="M146.76,-55.55C183.54,-44.57 231.8,-30.16 263.35,-20.75"/>
<polygon fill="#63b8ff" stroke="#63b8ff" points="264.12,-24.17 272.71,-17.95 262.12,-17.46 264.12,-24.17"/>
</a>
</g>
</g>
<!-- Node5 -->
<g id="Node000005" class="node">
<title>Node5</title>
<g id="a_Node000005"><a xlink:title=" ">
<polygon fill="#e0e0e0" stroke="#999999" points="208.75,-20 155.25,-20 155.25,0 208.75,0 208.75,-20"/>
<text xml:space="preserve" text-anchor="middle" x="182" y="-6.5" font-family="Helvetica,sans-Serif" font-size="10.00">iostream</text>
</a>
</g>
</g>
<!-- Node2&#45;&gt;Node5 -->
<g id="edge4_Node000002_Node000005" class="edge">
<title>Node2&#45;&gt;Node5</title>
<g id="a_edge4_Node000002_Node000005"><a xlink:title=" ">
<path fill="none" stroke="#63b8ff" d="M117.4,-55.55C130.24,-46.69 146.32,-35.61 159.22,-26.71"/>
<polygon fill="#63b8ff" stroke="#63b8ff" points="160.87,-29.83 167.11,-21.27 156.89,-24.06 160.87,-29.83"/>
</a>
</g>
</g>
<!-- Node6 -->
<g id="Node000006" class="node">
<title>Node6</title>
<g id="a_Node000006"><a xlink:title=" ">
<polygon fill="#e0e0e0" stroke="#999999" points="119.88,-20 70.12,-20 70.12,0 119.88,0 119.88,-20"/>
<text xml:space="preserve" text-anchor="middle" x="95" y="-6.5" font-family="Helvetica,sans-Serif" font-size="10.00">iomanip</text>
</a>
</g>
</g>
<!-- Node2&#45;&gt;Node6 -->
<g id="edge5_Node000002_Node000006" class="edge">
<title>Node2&#45;&gt;Node6</title>
<g id="a_edge5_Node000002_Node000006"><a xlink:title=" ">
<path fill="none" stroke="#63b8ff" d="M95,-55.55C95,-48.34 95,-39.66 95,-31.88"/>
<polygon fill="#63b8ff" stroke="#63b8ff" points="98.5,-31.92 95,-21.92 91.5,-31.92 98.5,-31.92"/>
</a>
</g>
</g>
<!-- Node7&#45;&gt;Node2 -->
<g id="edge7_Node000007_Node000002" class="edge">
<title>Node7&#45;&gt;Node2</title>
<g id="a_edge7_Node000007_Node000002"><a xlink:title=" ">
<path fill="none" stroke="#63b8ff" d="M188.66,-123.62C173.94,-115.67 152.29,-103.97 133.52,-93.82"/>
<polygon fill="#63b8ff" stroke="#63b8ff" points="135.23,-90.77 124.77,-89.09 131.91,-96.93 135.23,-90.77"/>
</a>
</g>
</g>
<!-- Node7&#45;&gt;Node4 -->
<g id="edge9_Node000007_Node000004" class="edge">
<title>Node7&#45;&gt;Node4</title>
<g id="a_edge9_Node000007_Node000004"><a xlink:title=" ">
<path fill="none" stroke="#63b8ff" d="M209.17,-123.8C214.67,-108.65 227.04,-77.94 244,-56 252.3,-45.26 263.48,-35.19 273.35,-27.3"/>
<polygon fill="#63b8ff" stroke="#63b8ff" points="275.26,-30.25 281.07,-21.39 271,-24.69 275.26,-30.25"/>
</a>
</g>
</g>
<!-- Node7&#45;&gt;Node5 -->
<g id="edge8_Node000007_Node000005" class="edge">
<title>Node7&#45;&gt;Node5</title>
<g id="a_edge8_Node000007_Node000005"><a xlink:title=" ">
<path fill="none" stroke="#63b8ff" d="M204.2,-123.83C200.36,-104.31 191.3,-58.25 186.01,-31.4"/>
<polygon fill="#63b8ff" stroke="#63b8ff" points="189.48,-30.9 184.12,-21.76 182.61,-32.25 189.48,-30.9"/>
</a>
</g>
</g>
<!-- Node8 -->
<g id="Node000008" class="node">
<title>Node8</title>
<g id="a_Node000008"><a xlink:title=" ">
<polygon fill="#e0e0e0" stroke="#999999" points="395.38,-20 336.62,-20 336.62,0 395.38,0 395.38,-20"/>
<text xml:space="preserve" text-anchor="middle" x="366" y="-6.5" font-family="Helvetica,sans-Serif" font-size="10.00">stdexcept</text>
</a>
</g>
</g>
<!-- Node7&#45;&gt;Node8 -->
<g id="edge10_Node000007_Node000008" class="edge">
<title>Node7&#45;&gt;Node8</title>
<g id="a_edge10_Node000007_Node000008"><a xlink:title=" ">
<path fill="none" stroke="#63b8ff" d="M218.29,-123.63C245.46,-102.91 310.92,-53 344.83,-27.14"/>
<polygon fill="#63b8ff" stroke="#63b8ff" points="346.85,-30 352.68,-21.15 342.61,-24.43 346.85,-30"/>
</a>
</g>
</g>
<!-- Node9&#45;&gt;Node2 -->
<g id="edge12_Node000009_Node000002" class="edge">
<title>Node9&#45;&gt;Node2</title>
<g id="a_edge12_Node000009_Node000002"><a xlink:title=" ">
<path fill="none" stroke="#63b8ff" d="M119.05,-185.83C115.18,-167.68 106.42,-126.58 100.61,-99.32"/>
<polygon fill="#63b8ff" stroke="#63b8ff" points="104.07,-98.77 98.56,-89.72 97.23,-100.23 104.07,-98.77"/>
</a>
</g>
</g>
<!-- Node10&#45;&gt;Node3 -->
<g id="edge26_Node000010_Node000003" class="edge">
<title>Node10&#45;&gt;Node3</title>
<g id="a_edge26_Node000010_Node000003"><a xlink:title=" ">
<path fill="none" stroke="#63b8ff" d="M324.04,-187.15C272.08,-179.59 197.44,-165.99 135,-144 84,-126.04 57.15,-132.88 27,-88 15.91,-71.49 15.31,-48.28 16.78,-31.67"/>
<polygon fill="#63b8ff" stroke="#63b8ff" points="20.22,-32.33 17.98,-21.98 13.28,-31.47 20.22,-32.33"/>
</a>
</g>
</g>
<!-- Node10&#45;&gt;Node4 -->
<g id="edge23_Node000010_Node000004" class="edge">
<title>Node10&#45;&gt;Node4</title>
<g id="a_edge23_Node000010_Node000004"><a xlink:title=" ">
<path fill="none" stroke="#63b8ff" d="M380.31,-179.63C363.56,-146.13 323.8,-66.61 305.51,-30.02"/>
<polygon fill="#63b8ff" stroke="#63b8ff" points="308.85,-28.88 301.25,-21.5 302.59,-32.01 308.85,-28.88"/>
</a>
</g>
</g>
<!-- Node11 -->
<g id="Node000011" class="node">
<title>Node11</title>
<g id="a_Node000011"><a xlink:href="_matrix_8h.html" target="_top" xlink:title="Lightweight 2D matrix class for numerical computations.">
<polygon fill="white" stroke="#666666" points="413.62,-82 362.38,-82 362.38,-62 413.62,-62 413.62,-82"/>
<text xml:space="preserve" text-anchor="middle" x="388" y="-68.5" font-family="Helvetica,sans-Serif" font-size="10.00">Matrix.h</text>
</a>
</g>
</g>
<!-- Node10&#45;&gt;Node11 -->
<g id="edge14_Node000010_Node000011" class="edge">
<title>Node10&#45;&gt;Node11</title>
<g id="a_edge14_Node000010_Node000011"><a xlink:title=" ">
<path fill="none" stroke="#63b8ff" d="M388,-179.55C388,-157.81 388,-118.14 388,-93.82"/>
<polygon fill="#63b8ff" stroke="#63b8ff" points="391.5,-93.9 388,-83.9 384.5,-93.9 391.5,-93.9"/>
</a>
</g>
</g>
<!-- Node12 -->
<g id="Node000012" class="node">
<title>Node12</title>
<g id="a_Node000012"><a xlink:title=" ">
<polygon fill="#e0e0e0" stroke="#999999" points="471,-20 413,-20 413,0 471,0 471,-20"/>
<text xml:space="preserve" text-anchor="middle" x="442" y="-6.5" font-family="Helvetica,sans-Serif" font-size="10.00">functional</text>
</a>
</g>
</g>
<!-- Node10&#45;&gt;Node12 -->
<g id="edge24_Node000010_Node000012" class="edge">
<title>Node10&#45;&gt;Node12</title>
<g id="a_edge24_Node000010_Node000012"><a xlink:title=" ">
<path fill="none" stroke="#63b8ff" d="M432.87,-179.6C452.81,-171.23 475.64,-159.4 493,-144 515.13,-124.36 520.66,-116.39 529,-88 533.01,-74.35 536.39,-68.15 529,-56 518.68,-39.04 499.67,-28.19 482.05,-21.4"/>
<polygon fill="#63b8ff" stroke="#63b8ff" points="483.37,-18.16 472.78,-18.18 481.08,-24.77 483.37,-18.16"/>
</a>
</g>
</g>
<!-- Node13 -->
<g id="Node000013" class="node">
<title>Node13</title>
<g id="a_Node000013"><a xlink:href="_layer_8h.html" target="_top" xlink:title="Defines a fully&#45;connected (dense) neural network layer.">
<polygon fill="white" stroke="#666666" points="465.12,-144 416.88,-144 416.88,-124 465.12,-124 465.12,-144"/>
<text xml:space="preserve" text-anchor="middle" x="441" y="-130.5" font-family="Helvetica,sans-Serif" font-size="10.00">Layer.h</text>
</a>
</g>
</g>
<!-- Node10&#45;&gt;Node13 -->
<g id="edge19_Node000010_Node000013" class="edge">
<title>Node10&#45;&gt;Node13</title>
<g id="a_edge19_Node000010_Node000013"><a xlink:title=" ">
<path fill="none" stroke="#63b8ff" d="M401.65,-179.55C408.86,-171.39 417.74,-161.33 425.24,-152.84"/>
<polygon fill="#63b8ff" stroke="#63b8ff" points="427.69,-155.35 431.69,-145.54 422.44,-150.72 427.69,-155.35"/>
</a>
</g>
</g>
<!-- Node14 -->
<g id="Node000014" class="node">
<title>Node14</title>
<g id="a_Node000014"><a xlink:title=" ">
<polygon fill="#e0e0e0" stroke="#999999" points="519.5,-82 470.5,-82 470.5,-62 519.5,-62 519.5,-82"/>
<text xml:space="preserve" text-anchor="middle" x="495" y="-68.5" font-family="Helvetica,sans-Serif" font-size="10.00">fstream</text>
</a>
</g>
</g>
<!-- Node10&#45;&gt;Node14 -->
<g id="edge25_Node000010_Node000014" class="edge">
<title>Node10&#45;&gt;Node14</title>
<g id="a_edge25_Node000010_Node000014"><a xlink:title=" ">
<path fill="none" stroke="#63b8ff" d="M427.24,-179.53C443.78,-171.23 461.95,-159.48 474,-144 485.35,-129.42 490.58,-108.83 492.98,-93.57"/>
<polygon fill="#63b8ff" stroke="#63b8ff" points="496.43,-94.12 494.21,-83.76 489.49,-93.25 496.43,-94.12"/>
</a>
</g>
</g>
<!-- Node11&#45;&gt;Node4 -->
<g id="edge15_Node000011_Node000004" class="edge">
<title>Node11&#45;&gt;Node4</title>
<g id="a_edge15_Node000011_Node000004"><a xlink:title=" ">
<path fill="none" stroke="#63b8ff" d="M373.62,-61.62C359.18,-52.2 336.66,-37.52 319.59,-26.39"/>
<polygon fill="#63b8ff" stroke="#63b8ff" points="321.83,-23.67 311.54,-21.14 318.01,-29.53 321.83,-23.67"/>
</a>
</g>
</g>
<!-- Node11&#45;&gt;Node5 -->
<g id="edge17_Node000011_Node000005" class="edge">
<title>Node11&#45;&gt;Node5</title>
<g id="a_edge17_Node000011_Node000005"><a xlink:title=" ">
<path fill="none" stroke="#63b8ff" d="M361.91,-63.4C326.09,-52.97 261.42,-34.13 220.16,-22.11"/>
<polygon fill="#63b8ff" stroke="#63b8ff" points="221.22,-18.78 210.64,-19.34 219.26,-25.5 221.22,-18.78"/>
</a>
</g>
</g>
<!-- Node11&#45;&gt;Node8 -->
<g id="edge18_Node000011_Node000008" class="edge">
<title>Node11&#45;&gt;Node8</title>
<g id="a_edge18_Node000011_Node000008"><a xlink:title=" ">
<path fill="none" stroke="#63b8ff" d="M384.56,-61.62C381.54,-53.39 377.05,-41.13 373.24,-30.74"/>
<polygon fill="#63b8ff" stroke="#63b8ff" points="376.59,-29.72 369.86,-21.53 370.02,-32.13 376.59,-29.72"/>
</a>
</g>
</g>
<!-- Node11&#45;&gt;Node12 -->
<g id="edge16_Node000011_Node000012" class="edge">
<title>Node11&#45;&gt;Node12</title>
<g id="a_edge16_Node000011_Node000012"><a xlink:title=" ">
<path fill="none" stroke="#63b8ff" d="M396.44,-61.62C404.41,-52.77 416.57,-39.26 426.32,-28.43"/>
<polygon fill="#63b8ff" stroke="#63b8ff" points="428.7,-31.01 432.79,-21.24 423.49,-26.33 428.7,-31.01"/>
</a>
</g>
</g>
<!-- Node13&#45;&gt;Node11 -->
<g id="edge22_Node000013_Node000011" class="edge">
<title>Node13&#45;&gt;Node11</title>
<g id="a_edge22_Node000013_Node000011"><a xlink:title=" ">
<path fill="none" stroke="#63b8ff" d="M432.72,-123.62C424.89,-114.77 412.96,-101.26 403.39,-90.43"/>
<polygon fill="#63b8ff" stroke="#63b8ff" points="406.3,-88.42 397.05,-83.25 401.05,-93.06 406.3,-88.42"/>
</a>
</g>
</g>
<!-- Node13&#45;&gt;Node12 -->
<g id="edge20_Node000013_Node000012" class="edge">
<title>Node13&#45;&gt;Node12</title>
<g id="a_edge20_Node000013_Node000012"><a xlink:title=" ">
<path fill="none" stroke="#63b8ff" d="M441.08,-123.83C441.23,-104.4 441.61,-58.67 441.83,-31.77"/>
<polygon fill="#63b8ff" stroke="#63b8ff" points="445.33,-31.82 441.91,-21.79 438.33,-31.76 445.33,-31.82"/>
</a>
</g>
</g>
<!-- Node13&#45;&gt;Node14 -->
<g id="edge21_Node000013_Node000014" class="edge">
<title>Node13&#45;&gt;Node14</title>
<g id="a_edge21_Node000013_Node000014"><a xlink:title=" ">
<path fill="none" stroke="#63b8ff" d="M449.44,-123.62C457.41,-114.77 469.57,-101.26 479.32,-90.43"/>
<polygon fill="#63b8ff" stroke="#63b8ff" points="481.7,-93.01 485.79,-83.24 476.49,-88.33 481.7,-93.01"/>
</a>
</g>
</g>
</g>
</svg>
