<?xml version="1.0" encoding="UTF-8" standalone="no"?>
<!DOCTYPE svg PUBLIC "-//W3C//DTD SVG 1.1//EN"
 "http://www.w3.org/Graphics/SVG/1.1/DTD/svg11.dtd">
<!-- Generated by graphviz version 14.0.2 (20251019.1705)
 -->
<!-- Title: Neural_Network/Source/Layer.cpp Pages: 1 -->
<svg width="275pt" height="208pt"
 viewBox="0.00 0.00 275.00 208.00" xmlns="http://www.w3.org/2000/svg" xmlns:xlink="http://www.w3.org/1999/xlink">
<g id="graph0" class="graph" transform="scale(1 1) rotate(0) translate(4 204)">
<title>Neural_Network/Source/Layer.cpp</title>
<!-- Node1 -->
<g id="Node000001" class="node">
<title>Node1</title>
<g id="a_Node000001"><a xlink:title=" ">
<polygon fill="#999999" stroke="#666666" points="236.12,-200 115.88,-200 115.88,-168 236.12,-168 236.12,-200"/>
<text xml:space="preserve" text-anchor="start" x="123.88" y="-186.5" font-family="Helvetica,sans-Serif" font-size="10.00">Neural_Network/Source</text>
<text xml:space="preserve" text-anchor="middle" x="176" y="-174.5" font-family="Helvetica,sans-Serif" font-size="10.00">/Layer.cpp</text>
</a>
</g>
</g>
<!-- Node2 -->
<g id="Node000002" class="node">
<title>Node2</title>
<g id="a_Node000002"><a xlink:href="_layer_8h.html" target="_top" xlink:title="Defines a fully&#45;connected (dense) neural network layer.">
<polygon fill="white" stroke="#666666" points="147.88,-132 56.12,-132 56.12,-112 147.88,-112 147.88,-132"/>
<text xml:space="preserve" text-anchor="middle" x="102" y="-118.5" font-family="Helvetica,sans-Serif" font-size="10.00">../Include/Layer.h</text>
</a>
</g>
</g>
<!-- Node1&#45;&gt;Node2 -->
<g id="edge1_Node000001_Node000002" class="edge">
<title>Node1&#45;&gt;Node2</title>
<g id="a_edge1_Node000001_Node000002"><a xlink:title=" ">
<path fill="none" stroke="#63b8ff" d="M156.94,-167.55C146.34,-158.95 133.15,-148.26 122.35,-139.5"/>
<polygon fill="#63b8ff" stroke="#63b8ff" points="124.75,-136.94 114.78,-133.36 120.34,-142.38 124.75,-136.94"/>
</a>
</g>
</g>
<!-- Node4 -->
<g id="Node000004" class="node">
<title>Node4</title>
<g id="a_Node000004"><a xlink:title=" ">
<polygon fill="#e0e0e0" stroke="#999999" points="197.5,-76 148.5,-76 148.5,-56 197.5,-56 197.5,-76"/>
<text xml:space="preserve" text-anchor="middle" x="173" y="-62.5" font-family="Helvetica,sans-Serif" font-size="10.00">fstream</text>
</a>
</g>
</g>
<!-- Node1&#45;&gt;Node4 -->
<g id="edge10_Node000001_Node000004" class="edge">
<title>Node1&#45;&gt;Node4</title>
<g id="a_edge10_Node000001_Node000004"><a xlink:title=" ">
<path fill="none" stroke="#63b8ff" d="M175.61,-167.84C175.08,-147.41 174.14,-110.97 173.54,-87.95"/>
<polygon fill="#63b8ff" stroke="#63b8ff" points="177.04,-87.86 173.28,-77.95 170.04,-88.04 177.04,-87.86"/>
</a>
</g>
</g>
<!-- Node8 -->
<g id="Node000008" class="node">
<title>Node8</title>
<g id="a_Node000008"><a xlink:title=" ">
<polygon fill="#e0e0e0" stroke="#999999" points="267.38,-20 208.62,-20 208.62,0 267.38,0 267.38,-20"/>
<text xml:space="preserve" text-anchor="middle" x="238" y="-6.5" font-family="Helvetica,sans-Serif" font-size="10.00">stdexcept</text>
</a>
</g>
</g>
<!-- Node1&#45;&gt;Node8 -->
<g id="edge9_Node000001_Node000008" class="edge">
<title>Node1&#45;&gt;Node8</title>
<g id="a_edge9_Node000001_Node000008"><a xlink:title=" ">
<path fill="none" stroke="#63b8ff" d="M181.5,-167.74C192.74,-136.55 218.33,-65.56 230.85,-30.85"/>
<polygon fill="#63b8ff" stroke="#63b8ff" points="234.07,-32.23 234.17,-21.63 227.48,-29.85 234.07,-32.23"/>
</a>
</g>
</g>
<!-- Node3 -->
<g id="Node000003" class="node">
<title>Node3</title>
<g id="a_Node000003"><a xlink:title=" ">
<polygon fill="#e0e0e0" stroke="#999999" points="58,-20 0,-20 0,0 58,0 58,-20"/>
<text xml:space="preserve" text-anchor="middle" x="29" y="-6.5" font-family="Helvetica,sans-Serif" font-size="10.00">functional</text>
</a>
</g>
</g>
<!-- Node2&#45;&gt;Node3 -->
<g id="edge2_Node000002_Node000003" class="edge">
<title>Node2&#45;&gt;Node3</title>
<g id="a_edge2_Node000002_Node000003"><a xlink:title=" ">
<path fill="none" stroke="#63b8ff" d="M94.11,-111.62C86.76,-102.7 75.65,-88.79 67,-76 56.93,-61.12 46.71,-43.47 39.41,-30.32"/>
<polygon fill="#63b8ff" stroke="#63b8ff" points="42.63,-28.91 34.76,-21.82 36.49,-32.27 42.63,-28.91"/>
</a>
</g>
</g>
<!-- Node2&#45;&gt;Node4 -->
<g id="edge3_Node000002_Node000004" class="edge">
<title>Node2&#45;&gt;Node4</title>
<g id="a_edge3_Node000002_Node000004"><a xlink:title=" ">
<path fill="none" stroke="#63b8ff" d="M114.37,-111.59C124.65,-103.77 139.52,-92.46 151.71,-83.19"/>
<polygon fill="#63b8ff" stroke="#63b8ff" points="153.73,-86.05 159.57,-77.21 149.49,-80.48 153.73,-86.05"/>
</a>
</g>
</g>
<!-- Node5 -->
<g id="Node000005" class="node">
<title>Node5</title>
<g id="a_Node000005"><a xlink:href="_matrix_8h.html" target="_top" xlink:title="Lightweight 2D matrix class for numerical computations.">
<polygon fill="white" stroke="#666666" points="127.62,-76 76.38,-76 76.38,-56 127.62,-56 127.62,-76"/>
<text xml:space="preserve" text-anchor="middle" x="102" y="-62.5" font-family="Helvetica,sans-Serif" font-size="10.00">Matrix.h</text>
</a>
</g>
</g>
<!-- Node2&#45;&gt;Node5 -->
<g id="edge4_Node000002_Node000005" class="edge">
<title>Node2&#45;&gt;Node5</title>
<g id="a_edge4_Node000002_Node000005"><a xlink:title=" ">
<path fill="none" stroke="#63b8ff" d="M102,-111.59C102,-105.01 102,-95.96 102,-87.73"/>
<polygon fill="#63b8ff" stroke="#63b8ff" points="105.5,-87.81 102,-77.81 98.5,-87.81 105.5,-87.81"/>
</a>
</g>
</g>
<!-- Node5&#45;&gt;Node3 -->
<g id="edge6_Node000005_Node000003" class="edge">
<title>Node5&#45;&gt;Node3</title>
<g id="a_edge6_Node000005_Node000003"><a xlink:title=" ">
<path fill="none" stroke="#63b8ff" d="M89.28,-55.59C78.61,-47.7 63.12,-36.24 50.52,-26.92"/>
<polygon fill="#63b8ff" stroke="#63b8ff" points="52.91,-24.33 42.79,-21.2 48.74,-29.96 52.91,-24.33"/>
</a>
</g>
</g>
<!-- Node6 -->
<g id="Node000006" class="node">
<title>Node6</title>
<g id="a_Node000006"><a xlink:title=" ">
<polygon fill="#e0e0e0" stroke="#999999" points="119.5,-20 76.5,-20 76.5,0 119.5,0 119.5,-20"/>
<text xml:space="preserve" text-anchor="middle" x="98" y="-6.5" font-family="Helvetica,sans-Serif" font-size="10.00">vector</text>
</a>
</g>
</g>
<!-- Node5&#45;&gt;Node6 -->
<g id="edge5_Node000005_Node000006" class="edge">
<title>Node5&#45;&gt;Node6</title>
<g id="a_edge5_Node000005_Node000006"><a xlink:title=" ">
<path fill="none" stroke="#63b8ff" d="M101.3,-55.59C100.82,-49.01 100.15,-39.96 99.54,-31.73"/>
<polygon fill="#63b8ff" stroke="#63b8ff" points="103.03,-31.52 98.8,-21.81 96.05,-32.04 103.03,-31.52"/>
</a>
</g>
</g>
<!-- Node7 -->
<g id="Node000007" class="node">
<title>Node7</title>
<g id="a_Node000007"><a xlink:title=" ">
<polygon fill="#e0e0e0" stroke="#999999" points="190.75,-20 137.25,-20 137.25,0 190.75,0 190.75,-20"/>
<text xml:space="preserve" text-anchor="middle" x="164" y="-6.5" font-family="Helvetica,sans-Serif" font-size="10.00">iostream</text>
</a>
</g>
</g>
<!-- Node5&#45;&gt;Node7 -->
<g id="edge7_Node000005_Node000007" class="edge">
<title>Node5&#45;&gt;Node7</title>
<g id="a_edge7_Node000005_Node000007"><a xlink:title=" ">
<path fill="none" stroke="#63b8ff" d="M112.8,-55.59C121.6,-47.93 134.25,-36.91 144.77,-27.75"/>
<polygon fill="#63b8ff" stroke="#63b8ff" points="146.94,-30.5 152.18,-21.29 142.34,-25.22 146.94,-30.5"/>
</a>
</g>
</g>
<!-- Node5&#45;&gt;Node8 -->
<g id="edge8_Node000005_Node000008" class="edge">
<title>Node5&#45;&gt;Node8</title>
<g id="a_edge8_Node000005_Node000008"><a xlink:title=" ">
<path fill="none" stroke="#63b8ff" d="M125.69,-55.59C147.2,-47.05 179.2,-34.35 203.54,-24.68"/>
<polygon fill="#63b8ff" stroke="#63b8ff" points="204.72,-27.98 212.72,-21.04 202.13,-21.48 204.72,-27.98"/>
</a>
</g>
</g>
</g>
</svg>
