<?xml version="1.0" encoding="UTF-8" standalone="no"?>
<!DOCTYPE svg PUBLIC "-//W3C//DTD SVG 1.1//EN"
 "http://www.w3.org/Graphics/SVG/1.1/DTD/svg11.dtd">
<!-- Generated by graphviz version 14.0.2 (20251019.1705)
 -->
<!-- Title: Neural_Network/Include/Layer.h Pages: 1 -->
<svg width="275pt" height="152pt"
 viewBox="0.00 0.00 275.00 152.00" xmlns="http://www.w3.org/2000/svg" xmlns:xlink="http://www.w3.org/1999/xlink">
<g id="graph0" class="graph" transform="scale(1 1) rotate(0) translate(4 148)">
<title>Neural_Network/Include/Layer.h</title>
<!-- Node1 -->
<g id="Node000001" class="node">
<title>Node1</title>
<g id="a_Node000001"><a xlink:title=" ">
<polygon fill="#999999" stroke="#666666" points="124.5,-144 3.5,-144 3.5,-112 124.5,-112 124.5,-144"/>
<text xml:space="preserve" text-anchor="start" x="11.5" y="-130.5" font-family="Helvetica,sans-Serif" font-size="10.00">Neural_Network/Include</text>
<text xml:space="preserve" text-anchor="middle" x="64" y="-118.5" font-family="Helvetica,sans-Serif" font-size="10.00">/Layer.h</text>
</a>
</g>
</g>
<!-- Node2 -->
<g id="Node000002" class="node">
<title>Node2</title>
<g id="a_Node000002"><a xlink:title=" ">
<polygon fill="#e0e0e0" stroke="#999999" points="58,-20 0,-20 0,0 58,0 58,-20"/>
<text xml:space="preserve" text-anchor="middle" x="29" y="-6.5" font-family="Helvetica,sans-Serif" font-size="10.00">functional</text>
</a>
</g>
</g>
<!-- Node1&#45;&gt;Node2 -->
<g id="edge1_Node000001_Node000002" class="edge">
<title>Node1&#45;&gt;Node2</title>
<g id="a_edge1_Node000001_Node000002"><a xlink:title=" ">
<path fill="none" stroke="#63b8ff" d="M59.42,-111.84C53.2,-91.22 42.06,-54.29 35.13,-31.31"/>
<polygon fill="#63b8ff" stroke="#63b8ff" points="38.52,-30.45 32.28,-21.89 31.82,-32.47 38.52,-30.45"/>
</a>
</g>
</g>
<!-- Node3 -->
<g id="Node000003" class="node">
<title>Node3</title>
<g id="a_Node000003"><a xlink:href="$_matrix_8h.html" xlink:title=" ">
<polygon fill="white" stroke="#666666" points="123.62,-76 72.38,-76 72.38,-56 123.62,-56 123.62,-76"/>
<text xml:space="preserve" text-anchor="middle" x="98" y="-62.5" font-family="Helvetica,sans-Serif" font-size="10.00">Matrix.h</text>
</a>
</g>
</g>
<!-- Node1&#45;&gt;Node3 -->
<g id="edge2_Node000001_Node000003" class="edge">
<title>Node1&#45;&gt;Node3</title>
<g id="a_edge2_Node000001_Node000003"><a xlink:title=" ">
<path fill="none" stroke="#63b8ff" d="M72.76,-111.55C77.13,-103.82 82.47,-94.4 87.11,-86.21"/>
<polygon fill="#63b8ff" stroke="#63b8ff" points="90.04,-88.15 91.92,-77.72 83.95,-84.7 90.04,-88.15"/>
</a>
</g>
</g>
<!-- Node3&#45;&gt;Node2 -->
<g id="edge4_Node000003_Node000002" class="edge">
<title>Node3&#45;&gt;Node2</title>
<g id="a_edge4_Node000003_Node000002"><a xlink:title=" ">
<path fill="none" stroke="#63b8ff" d="M85.98,-55.59C75.99,-47.77 61.54,-36.46 49.69,-27.19"/>
<polygon fill="#63b8ff" stroke="#63b8ff" points="52.11,-24.64 42.07,-21.23 47.79,-30.15 52.11,-24.64"/>
</a>
</g>
</g>
<!-- Node4 -->
<g id="Node000004" class="node">
<title>Node4</title>
<g id="a_Node000004"><a xlink:title=" ">
<polygon fill="#e0e0e0" stroke="#999999" points="119.5,-20 76.5,-20 76.5,0 119.5,0 119.5,-20"/>
<text xml:space="preserve" text-anchor="middle" x="98" y="-6.5" font-family="Helvetica,sans-Serif" font-size="10.00">vector</text>
</a>
</g>
</g>
<!-- Node3&#45;&gt;Node4 -->
<g id="edge3_Node000003_Node000004" class="edge">
<title>Node3&#45;&gt;Node4</title>
<g id="a_edge3_Node000003_Node000004"><a xlink:title=" ">
<path fill="none" stroke="#63b8ff" d="M98,-55.59C98,-49.01 98,-39.96 98,-31.73"/>
<polygon fill="#63b8ff" stroke="#63b8ff" points="101.5,-31.81 98,-21.81 94.5,-31.81 101.5,-31.81"/>
</a>
</g>
</g>
<!-- Node5 -->
<g id="Node000005" class="node">
<title>Node5</title>
<g id="a_Node000005"><a xlink:title=" ">
<polygon fill="#e0e0e0" stroke="#999999" points="190.75,-20 137.25,-20 137.25,0 190.75,0 190.75,-20"/>
<text xml:space="preserve" text-anchor="middle" x="164" y="-6.5" font-family="Helvetica,sans-Serif" font-size="10.00">iostream</text>
</a>
</g>
</g>
<!-- Node3&#45;&gt;Node5 -->
<g id="edge5_Node000003_Node000005" class="edge">
<title>Node3&#45;&gt;Node5</title>
<g id="a_edge5_Node000003_Node000005"><a xlink:title=" ">
<path fill="none" stroke="#63b8ff" d="M109.5,-55.59C118.96,-47.85 132.6,-36.69 143.87,-27.47"/>
<polygon fill="#63b8ff" stroke="#63b8ff" points="145.94,-30.3 151.46,-21.26 141.51,-24.88 145.94,-30.3"/>
</a>
</g>
</g>
<!-- Node6 -->
<g id="Node000006" class="node">
<title>Node6</title>
<g id="a_Node000006"><a xlink:title=" ">
<polygon fill="#e0e0e0" stroke="#999999" points="267.38,-20 208.62,-20 208.62,0 267.38,0 267.38,-20"/>
<text xml:space="preserve" text-anchor="middle" x="238" y="-6.5" font-family="Helvetica,sans-Serif" font-size="10.00">stdexcept</text>
</a>
</g>
</g>
<!-- Node3&#45;&gt;Node6 -->
<g id="edge6_Node000003_Node000006" class="edge">
<title>Node3&#45;&gt;Node6</title>
<g id="a_edge6_Node000003_Node000006"><a xlink:title=" ">
<path fill="none" stroke="#63b8ff" d="M122.39,-55.59C144.63,-47.01 177.77,-34.23 202.87,-24.55"/>
<polygon fill="#63b8ff" stroke="#63b8ff" points="203.94,-27.89 212.01,-21.02 201.42,-21.36 203.94,-27.89"/>
</a>
</g>
</g>
</g>
</svg>
