<?xml version="1.0" encoding="UTF-8" standalone="no"?>
<!DOCTYPE svg PUBLIC "-//W3C//DTD SVG 1.1//EN"
 "http://www.w3.org/Graphics/SVG/1.1/DTD/svg11.dtd">
<!-- Generated by graphviz version 14.0.2 (20251019.1705)
 -->
<!-- Title: Neural_Network/Include/Layer.h Pages: 1 -->
<svg width="275pt" height="152pt"
 viewBox="0.00 0.00 275.00 152.00" xmlns="http://www.w3.org/2000/svg" xmlns:xlink="http://www.w3.org/1999/xlink">
<g id="graph0" class="graph" transform="scale(1 1) rotate(0) translate(4 148)">
<title>Neural_Network/Include/Layer.h</title>
<!-- Node1 -->
<g id="Node000001" class="node">
<title>Node1</title>
<g id="a_Node000001"><a xlink:title="Defines a fully&#45;connected (dense) neural network layer.">
<polygon fill="#999999" stroke="#666666" points="142.5,-144 21.5,-144 21.5,-112 142.5,-112 142.5,-144"/>
<text xml:space="preserve" text-anchor="start" x="29.5" y="-130.5" font-family="Helvetica,sans-Serif" font-size="10.00">Neural_Network/Include</text>
<text xml:space="preserve" text-anchor="middle" x="82" y="-118.5" font-family="Helvetica,sans-Serif" font-size="10.00">/Layer.h</text>
</a>
</g>
</g>
<!-- Node2 -->
<g id="Node000002" class="node">
<title>Node2</title>
<g id="a_Node000002"><a xlink:title=" ">
<polygon fill="#e0e0e0" stroke="#999999" points="58,-20 0,-20 0,0 58,0 58,-20"/>
<text xml:space="preserve" text-anchor="middle" x="29" y="-6.5" font-family="Helvetica,sans-Serif" font-size="10.00">functional</text>
</a>
</g>
</g>
<!-- Node1&#45;&gt;Node2 -->
<g id="edge1_Node000001_Node000002" class="edge">
<title>Node1&#45;&gt;Node2</title>
<g id="a_edge1_Node000001_Node000002"><a xlink:title=" ">
<path fill="none" stroke="#63b8ff" d="M70.41,-111.57C63.47,-101.78 54.88,-88.62 49,-76 42.27,-61.57 37.08,-44.3 33.67,-31.19"/>
<polygon fill="#63b8ff" stroke="#63b8ff" points="37.1,-30.47 31.32,-21.59 30.3,-32.14 37.1,-30.47"/>
</a>
</g>
</g>
<!-- Node3 -->
<g id="Node000003" class="node">
<title>Node3</title>
<g id="a_Node000003"><a xlink:title=" ">
<polygon fill="#e0e0e0" stroke="#999999" points="106.5,-76 57.5,-76 57.5,-56 106.5,-56 106.5,-76"/>
<text xml:space="preserve" text-anchor="middle" x="82" y="-62.5" font-family="Helvetica,sans-Serif" font-size="10.00">fstream</text>
</a>
</g>
</g>
<!-- Node1&#45;&gt;Node3 -->
<g id="edge2_Node000001_Node000003" class="edge">
<title>Node1&#45;&gt;Node3</title>
<g id="a_edge2_Node000001_Node000003"><a xlink:title=" ">
<path fill="none" stroke="#63b8ff" d="M82,-111.55C82,-104.34 82,-95.66 82,-87.88"/>
<polygon fill="#63b8ff" stroke="#63b8ff" points="85.5,-87.92 82,-77.92 78.5,-87.92 85.5,-87.92"/>
</a>
</g>
</g>
<!-- Node4 -->
<g id="Node000004" class="node">
<title>Node4</title>
<g id="a_Node000004"><a xlink:href="_matrix_8h.html" target="_top" xlink:title="Lightweight 2D matrix class for numerical computations.">
<polygon fill="white" stroke="#666666" points="175.62,-76 124.38,-76 124.38,-56 175.62,-56 175.62,-76"/>
<text xml:space="preserve" text-anchor="middle" x="150" y="-62.5" font-family="Helvetica,sans-Serif" font-size="10.00">Matrix.h</text>
</a>
</g>
</g>
<!-- Node1&#45;&gt;Node4 -->
<g id="edge3_Node000001_Node000004" class="edge">
<title>Node1&#45;&gt;Node4</title>
<g id="a_edge3_Node000001_Node000004"><a xlink:title=" ">
<path fill="none" stroke="#63b8ff" d="M99.51,-111.55C109.15,-103.04 121.13,-92.48 131,-83.77"/>
<polygon fill="#63b8ff" stroke="#63b8ff" points="133.02,-86.65 138.2,-77.41 128.39,-81.4 133.02,-86.65"/>
</a>
</g>
</g>
<!-- Node4&#45;&gt;Node2 -->
<g id="edge5_Node000004_Node000002" class="edge">
<title>Node4&#45;&gt;Node2</title>
<g id="a_edge5_Node000004_Node000002"><a xlink:title=" ">
<path fill="none" stroke="#63b8ff" d="M128.92,-55.59C110.04,-47.17 82.08,-34.69 60.54,-25.07"/>
<polygon fill="#63b8ff" stroke="#63b8ff" points="62.18,-21.98 51.62,-21.1 59.33,-28.37 62.18,-21.98"/>
</a>
</g>
</g>
<!-- Node5 -->
<g id="Node000005" class="node">
<title>Node5</title>
<g id="a_Node000005"><a xlink:title=" ">
<polygon fill="#e0e0e0" stroke="#999999" points="119.5,-20 76.5,-20 76.5,0 119.5,0 119.5,-20"/>
<text xml:space="preserve" text-anchor="middle" x="98" y="-6.5" font-family="Helvetica,sans-Serif" font-size="10.00">vector</text>
</a>
</g>
</g>
<!-- Node4&#45;&gt;Node5 -->
<g id="edge4_Node000004_Node000005" class="edge">
<title>Node4&#45;&gt;Node5</title>
<g id="a_edge4_Node000004_Node000005"><a xlink:title=" ">
<path fill="none" stroke="#63b8ff" d="M140.94,-55.59C133.78,-48.16 123.59,-37.58 114.93,-28.58"/>
<polygon fill="#63b8ff" stroke="#63b8ff" points="117.46,-26.16 108,-21.39 112.42,-31.02 117.46,-26.16"/>
</a>
</g>
</g>
<!-- Node6 -->
<g id="Node000006" class="node">
<title>Node6</title>
<g id="a_Node000006"><a xlink:title=" ">
<polygon fill="#e0e0e0" stroke="#999999" points="190.75,-20 137.25,-20 137.25,0 190.75,0 190.75,-20"/>
<text xml:space="preserve" text-anchor="middle" x="164" y="-6.5" font-family="Helvetica,sans-Serif" font-size="10.00">iostream</text>
</a>
</g>
</g>
<!-- Node4&#45;&gt;Node6 -->
<g id="edge6_Node000004_Node000006" class="edge">
<title>Node4&#45;&gt;Node6</title>
<g id="a_edge6_Node000004_Node000006"><a xlink:title=" ">
<path fill="none" stroke="#63b8ff" d="M152.44,-55.59C154.17,-48.93 156.55,-39.75 158.7,-31.44"/>
<polygon fill="#63b8ff" stroke="#63b8ff" points="162.09,-32.32 161.21,-21.76 155.31,-30.56 162.09,-32.32"/>
</a>
</g>
</g>
<!-- Node7 -->
<g id="Node000007" class="node">
<title>Node7</title>
<g id="a_Node000007"><a xlink:title=" ">
<polygon fill="#e0e0e0" stroke="#999999" points="267.38,-20 208.62,-20 208.62,0 267.38,0 267.38,-20"/>
<text xml:space="preserve" text-anchor="middle" x="238" y="-6.5" font-family="Helvetica,sans-Serif" font-size="10.00">stdexcept</text>
</a>
</g>
</g>
<!-- Node4&#45;&gt;Node7 -->
<g id="edge7_Node000004_Node000007" class="edge">
<title>Node4&#45;&gt;Node7</title>
<g id="a_edge7_Node000004_Node000007"><a xlink:title=" ">
<path fill="none" stroke="#63b8ff" d="M165.33,-55.59C178.5,-47.51 197.73,-35.71 213.11,-26.27"/>
<polygon fill="#63b8ff" stroke="#63b8ff" points="214.57,-29.48 221.26,-21.27 210.91,-23.52 214.57,-29.48"/>
</a>
</g>
</g>
</g>
</svg>
