<?xml version="1.0" encoding="UTF-8" standalone="no"?>
<!DOCTYPE svg PUBLIC "-//W3C//DTD SVG 1.1//EN"
 "http://www.w3.org/Graphics/SVG/1.1/DTD/svg11.dtd">
<!-- Generated by graphviz version 14.0.2 (20251019.1705)
 -->
<!-- Title: Neural_Network/Source/Layer.cpp Pages: 1 -->
<svg width="307pt" height="208pt"
 viewBox="0.00 0.00 307.00 208.00" xmlns="http://www.w3.org/2000/svg" xmlns:xlink="http://www.w3.org/1999/xlink">
<g id="graph0" class="graph" transform="scale(1 1) rotate(0) translate(4 204)">
<title>Neural_Network/Source/Layer.cpp</title>
<!-- Node1 -->
<g id="Node000001" class="node">
<title>Node1</title>
<g id="a_Node000001"><a xlink:title=" ">
<polygon fill="#999999" stroke="#666666" points="281.12,-200 160.88,-200 160.88,-168 281.12,-168 281.12,-200"/>
<text xml:space="preserve" text-anchor="start" x="168.88" y="-186.5" font-family="Helvetica,sans-Serif" font-size="10.00">Neural_Network/Source</text>
<text xml:space="preserve" text-anchor="middle" x="221" y="-174.5" font-family="Helvetica,sans-Serif" font-size="10.00">/Layer.cpp</text>
</a>
</g>
</g>
<!-- Node2 -->
<g id="Node000002" class="node">
<title>Node2</title>
<g id="a_Node000002"><a xlink:href="$_layer_8h.html" xlink:title=" ">
<polygon fill="white" stroke="#666666" points="159.88,-132 68.12,-132 68.12,-112 159.88,-112 159.88,-132"/>
<text xml:space="preserve" text-anchor="middle" x="114" y="-118.5" font-family="Helvetica,sans-Serif" font-size="10.00">../Include/Layer.h</text>
</a>
</g>
</g>
<!-- Node1&#45;&gt;Node2 -->
<g id="edge1_Node000001_Node000002" class="edge">
<title>Node1&#45;&gt;Node2</title>
<g id="a_edge1_Node000001_Node000002"><a xlink:title=" ">
<path fill="none" stroke="#63b8ff" d="M193.44,-167.55C177.19,-158.43 156.72,-146.96 140.63,-137.93"/>
<polygon fill="#63b8ff" stroke="#63b8ff" points="142.53,-134.99 132.1,-133.15 139.11,-141.09 142.53,-134.99"/>
</a>
</g>
</g>
<!-- Node7 -->
<g id="Node000007" class="node">
<title>Node7</title>
<g id="a_Node000007"><a xlink:title=" ">
<polygon fill="#e0e0e0" stroke="#999999" points="267.38,-20 208.62,-20 208.62,0 267.38,0 267.38,-20"/>
<text xml:space="preserve" text-anchor="middle" x="238" y="-6.5" font-family="Helvetica,sans-Serif" font-size="10.00">stdexcept</text>
</a>
</g>
</g>
<!-- Node1&#45;&gt;Node7 -->
<g id="edge8_Node000001_Node000007" class="edge">
<title>Node1&#45;&gt;Node7</title>
<g id="a_edge8_Node000001_Node000007"><a xlink:title=" ">
<path fill="none" stroke="#63b8ff" d="M222.51,-167.74C225.58,-136.69 232.55,-66.18 235.99,-31.31"/>
<polygon fill="#63b8ff" stroke="#63b8ff" points="239.44,-32.01 236.94,-21.72 232.47,-31.32 239.44,-32.01"/>
</a>
</g>
</g>
<!-- Node8 -->
<g id="Node000008" class="node">
<title>Node8</title>
<g id="a_Node000008"><a xlink:title=" ">
<polygon fill="#e0e0e0" stroke="#999999" points="298.5,-132 249.5,-132 249.5,-112 298.5,-112 298.5,-132"/>
<text xml:space="preserve" text-anchor="middle" x="274" y="-118.5" font-family="Helvetica,sans-Serif" font-size="10.00">fstream</text>
</a>
</g>
</g>
<!-- Node1&#45;&gt;Node8 -->
<g id="edge9_Node000001_Node000008" class="edge">
<title>Node1&#45;&gt;Node8</title>
<g id="a_edge9_Node000001_Node000008"><a xlink:title=" ">
<path fill="none" stroke="#63b8ff" d="M234.65,-167.55C241.86,-159.39 250.74,-149.33 258.24,-140.84"/>
<polygon fill="#63b8ff" stroke="#63b8ff" points="260.69,-143.35 264.69,-133.54 255.44,-138.72 260.69,-143.35"/>
</a>
</g>
</g>
<!-- Node3 -->
<g id="Node000003" class="node">
<title>Node3</title>
<g id="a_Node000003"><a xlink:title=" ">
<polygon fill="#e0e0e0" stroke="#999999" points="58,-20 0,-20 0,0 58,0 58,-20"/>
<text xml:space="preserve" text-anchor="middle" x="29" y="-6.5" font-family="Helvetica,sans-Serif" font-size="10.00">functional</text>
</a>
</g>
</g>
<!-- Node2&#45;&gt;Node3 -->
<g id="edge2_Node000002_Node000003" class="edge">
<title>Node2&#45;&gt;Node3</title>
<g id="a_edge2_Node000002_Node000003"><a xlink:title=" ">
<path fill="none" stroke="#63b8ff" d="M106.75,-111.7C99.66,-102.61 88.57,-88.37 79,-76 66.78,-60.21 52.95,-42.21 42.93,-29.16"/>
<polygon fill="#63b8ff" stroke="#63b8ff" points="45.89,-27.27 37.03,-21.47 40.34,-31.53 45.89,-27.27"/>
</a>
</g>
</g>
<!-- Node4 -->
<g id="Node000004" class="node">
<title>Node4</title>
<g id="a_Node000004"><a xlink:href="$_matrix_8h.html" xlink:title=" ">
<polygon fill="white" stroke="#666666" points="139.62,-76 88.38,-76 88.38,-56 139.62,-56 139.62,-76"/>
<text xml:space="preserve" text-anchor="middle" x="114" y="-62.5" font-family="Helvetica,sans-Serif" font-size="10.00">Matrix.h</text>
</a>
</g>
</g>
<!-- Node2&#45;&gt;Node4 -->
<g id="edge3_Node000002_Node000004" class="edge">
<title>Node2&#45;&gt;Node4</title>
<g id="a_edge3_Node000002_Node000004"><a xlink:title=" ">
<path fill="none" stroke="#63b8ff" d="M114,-111.59C114,-105.01 114,-95.96 114,-87.73"/>
<polygon fill="#63b8ff" stroke="#63b8ff" points="117.5,-87.81 114,-77.81 110.5,-87.81 117.5,-87.81"/>
</a>
</g>
</g>
<!-- Node4&#45;&gt;Node3 -->
<g id="edge5_Node000004_Node000003" class="edge">
<title>Node4&#45;&gt;Node3</title>
<g id="a_edge5_Node000004_Node000003"><a xlink:title=" ">
<path fill="none" stroke="#63b8ff" d="M99.19,-55.59C86.6,-47.59 68.25,-35.93 53.47,-26.54"/>
<polygon fill="#63b8ff" stroke="#63b8ff" points="55.52,-23.7 45.2,-21.29 51.76,-29.61 55.52,-23.7"/>
</a>
</g>
</g>
<!-- Node5 -->
<g id="Node000005" class="node">
<title>Node5</title>
<g id="a_Node000005"><a xlink:title=" ">
<polygon fill="#e0e0e0" stroke="#999999" points="119.5,-20 76.5,-20 76.5,0 119.5,0 119.5,-20"/>
<text xml:space="preserve" text-anchor="middle" x="98" y="-6.5" font-family="Helvetica,sans-Serif" font-size="10.00">vector</text>
</a>
</g>
</g>
<!-- Node4&#45;&gt;Node5 -->
<g id="edge4_Node000004_Node000005" class="edge">
<title>Node4&#45;&gt;Node5</title>
<g id="a_edge4_Node000004_Node000005"><a xlink:title=" ">
<path fill="none" stroke="#63b8ff" d="M111.21,-55.59C109.22,-48.86 106.45,-39.53 103.97,-31.15"/>
<polygon fill="#63b8ff" stroke="#63b8ff" points="107.38,-30.34 101.19,-21.75 100.67,-32.33 107.38,-30.34"/>
</a>
</g>
</g>
<!-- Node6 -->
<g id="Node000006" class="node">
<title>Node6</title>
<g id="a_Node000006"><a xlink:title=" ">
<polygon fill="#e0e0e0" stroke="#999999" points="190.75,-20 137.25,-20 137.25,0 190.75,0 190.75,-20"/>
<text xml:space="preserve" text-anchor="middle" x="164" y="-6.5" font-family="Helvetica,sans-Serif" font-size="10.00">iostream</text>
</a>
</g>
</g>
<!-- Node4&#45;&gt;Node6 -->
<g id="edge6_Node000004_Node000006" class="edge">
<title>Node4&#45;&gt;Node6</title>
<g id="a_edge6_Node000004_Node000006"><a xlink:title=" ">
<path fill="none" stroke="#63b8ff" d="M122.71,-55.59C129.59,-48.16 139.39,-37.58 147.72,-28.58"/>
<polygon fill="#63b8ff" stroke="#63b8ff" points="150.14,-31.12 154.36,-21.41 145,-26.37 150.14,-31.12"/>
</a>
</g>
</g>
<!-- Node4&#45;&gt;Node7 -->
<g id="edge7_Node000004_Node000007" class="edge">
<title>Node4&#45;&gt;Node7</title>
<g id="a_edge7_Node000004_Node000007"><a xlink:title=" ">
<path fill="none" stroke="#63b8ff" d="M135.6,-55.59C154.95,-47.17 183.6,-34.69 205.68,-25.07"/>
<polygon fill="#63b8ff" stroke="#63b8ff" points="207.07,-28.29 214.84,-21.08 204.28,-21.87 207.07,-28.29"/>
</a>
</g>
</g>
</g>
</svg>
