<?xml version="1.0" encoding="UTF-8" standalone="no"?>
<!DOCTYPE svg PUBLIC "-//W3C//DTD SVG 1.1//EN"
 "http://www.w3.org/Graphics/SVG/1.1/DTD/svg11.dtd">
<!-- Generated by graphviz version 14.0.2 (20251019.1705)
 -->
<!-- Title: Neural_Network/Source/Matrix.cpp Pages: 1 -->
<svg width="378pt" height="152pt"
 viewBox="0.00 0.00 378.00 152.00" xmlns="http://www.w3.org/2000/svg" xmlns:xlink="http://www.w3.org/1999/xlink">
<g id="graph0" class="graph" transform="scale(1 1) rotate(0) translate(4 148)">
<title>Neural_Network/Source/Matrix.cpp</title>
<!-- Node1 -->
<g id="Node000001" class="node">
<title>Node1</title>
<g id="a_Node000001"><a xlink:title=" ">
<polygon fill="#999999" stroke="#666666" points="309.62,-144 189.38,-144 189.38,-112 309.62,-112 309.62,-144"/>
<text xml:space="preserve" text-anchor="start" x="197.38" y="-130.5" font-family="Helvetica,sans-Serif" font-size="10.00">Neural_Network/Source</text>
<text xml:space="preserve" text-anchor="middle" x="249.5" y="-118.5" font-family="Helvetica,sans-Serif" font-size="10.00">/Matrix.cpp</text>
</a>
</g>
</g>
<!-- Node2 -->
<g id="Node000002" class="node">
<title>Node2</title>
<g id="a_Node000002"><a xlink:href="_matrix_8h.html" target="_top" xlink:title="Lightweight 2D matrix class for numerical computations.">
<polygon fill="white" stroke="#666666" points="174.88,-76 80.12,-76 80.12,-56 174.88,-56 174.88,-76"/>
<text xml:space="preserve" text-anchor="middle" x="127.5" y="-62.5" font-family="Helvetica,sans-Serif" font-size="10.00">../Include/Matrix.h</text>
</a>
</g>
</g>
<!-- Node1&#45;&gt;Node2 -->
<g id="edge1_Node000001_Node000002" class="edge">
<title>Node1&#45;&gt;Node2</title>
<g id="a_edge1_Node000001_Node000002"><a xlink:title=" ">
<path fill="none" stroke="#63b8ff" d="M218.08,-111.55C199.2,-102.26 175.32,-90.52 156.82,-81.42"/>
<polygon fill="#63b8ff" stroke="#63b8ff" points="158.51,-78.35 147.99,-77.08 155.42,-84.63 158.51,-78.35"/>
</a>
</g>
</g>
<!-- Node7 -->
<g id="Node000007" class="node">
<title>Node7</title>
<g id="a_Node000007"><a xlink:title=" ">
<polygon fill="#e0e0e0" stroke="#999999" points="241.62,-76 193.38,-76 193.38,-56 241.62,-56 241.62,-76"/>
<text xml:space="preserve" text-anchor="middle" x="217.5" y="-62.5" font-family="Helvetica,sans-Serif" font-size="10.00">random</text>
</a>
</g>
</g>
<!-- Node1&#45;&gt;Node7 -->
<g id="edge6_Node000001_Node000007" class="edge">
<title>Node1&#45;&gt;Node7</title>
<g id="a_edge6_Node000001_Node000007"><a xlink:title=" ">
<path fill="none" stroke="#63b8ff" d="M241.26,-111.55C237.19,-103.91 232.23,-94.61 227.89,-86.49"/>
<polygon fill="#63b8ff" stroke="#63b8ff" points="231.02,-84.92 223.23,-77.74 224.85,-88.21 231.02,-84.92"/>
</a>
</g>
</g>
<!-- Node8 -->
<g id="Node000008" class="node">
<title>Node8</title>
<g id="a_Node000008"><a xlink:title=" ">
<polygon fill="#e0e0e0" stroke="#999999" points="303,-76 260,-76 260,-56 303,-56 303,-76"/>
<text xml:space="preserve" text-anchor="middle" x="281.5" y="-62.5" font-family="Helvetica,sans-Serif" font-size="10.00">cmath</text>
</a>
</g>
</g>
<!-- Node1&#45;&gt;Node8 -->
<g id="edge7_Node000001_Node000008" class="edge">
<title>Node1&#45;&gt;Node8</title>
<g id="a_edge7_Node000001_Node000008"><a xlink:title=" ">
<path fill="none" stroke="#63b8ff" d="M257.74,-111.55C261.81,-103.91 266.77,-94.61 271.11,-86.49"/>
<polygon fill="#63b8ff" stroke="#63b8ff" points="274.15,-88.21 275.77,-77.74 267.98,-84.92 274.15,-88.21"/>
</a>
</g>
</g>
<!-- Node9 -->
<g id="Node000009" class="node">
<title>Node9</title>
<g id="a_Node000009"><a xlink:title=" ">
<polygon fill="#e0e0e0" stroke="#999999" points="370.38,-76 320.62,-76 320.62,-56 370.38,-56 370.38,-76"/>
<text xml:space="preserve" text-anchor="middle" x="345.5" y="-62.5" font-family="Helvetica,sans-Serif" font-size="10.00">iomanip</text>
</a>
</g>
</g>
<!-- Node1&#45;&gt;Node9 -->
<g id="edge8_Node000001_Node000009" class="edge">
<title>Node1&#45;&gt;Node9</title>
<g id="a_edge8_Node000001_Node000009"><a xlink:title=" ">
<path fill="none" stroke="#63b8ff" d="M274.22,-111.55C288.53,-102.61 306.47,-91.39 320.78,-82.45"/>
<polygon fill="#63b8ff" stroke="#63b8ff" points="322.54,-85.48 329.16,-77.21 318.83,-79.54 322.54,-85.48"/>
</a>
</g>
</g>
<!-- Node3 -->
<g id="Node000003" class="node">
<title>Node3</title>
<g id="a_Node000003"><a xlink:title=" ">
<polygon fill="#e0e0e0" stroke="#999999" points="43,-20 0,-20 0,0 43,0 43,-20"/>
<text xml:space="preserve" text-anchor="middle" x="21.5" y="-6.5" font-family="Helvetica,sans-Serif" font-size="10.00">vector</text>
</a>
</g>
</g>
<!-- Node2&#45;&gt;Node3 -->
<g id="edge2_Node000002_Node000003" class="edge">
<title>Node2&#45;&gt;Node3</title>
<g id="a_edge2_Node000002_Node000003"><a xlink:title=" ">
<path fill="none" stroke="#63b8ff" d="M109.04,-55.59C92.8,-47.32 68.89,-35.14 50.17,-25.6"/>
<polygon fill="#63b8ff" stroke="#63b8ff" points="51.96,-22.59 41.46,-21.17 48.78,-28.82 51.96,-22.59"/>
</a>
</g>
</g>
<!-- Node4 -->
<g id="Node000004" class="node">
<title>Node4</title>
<g id="a_Node000004"><a xlink:title=" ">
<polygon fill="#e0e0e0" stroke="#999999" points="119.5,-20 61.5,-20 61.5,0 119.5,0 119.5,-20"/>
<text xml:space="preserve" text-anchor="middle" x="90.5" y="-6.5" font-family="Helvetica,sans-Serif" font-size="10.00">functional</text>
</a>
</g>
</g>
<!-- Node2&#45;&gt;Node4 -->
<g id="edge3_Node000002_Node000004" class="edge">
<title>Node2&#45;&gt;Node4</title>
<g id="a_edge3_Node000002_Node000004"><a xlink:title=" ">
<path fill="none" stroke="#63b8ff" d="M121.06,-55.59C116.17,-48.47 109.31,-38.45 103.32,-29.72"/>
<polygon fill="#63b8ff" stroke="#63b8ff" points="106.27,-27.82 97.73,-21.55 100.49,-31.77 106.27,-27.82"/>
</a>
</g>
</g>
<!-- Node5 -->
<g id="Node000005" class="node">
<title>Node5</title>
<g id="a_Node000005"><a xlink:title=" ">
<polygon fill="#e0e0e0" stroke="#999999" points="191.25,-20 137.75,-20 137.75,0 191.25,0 191.25,-20"/>
<text xml:space="preserve" text-anchor="middle" x="164.5" y="-6.5" font-family="Helvetica,sans-Serif" font-size="10.00">iostream</text>
</a>
</g>
</g>
<!-- Node2&#45;&gt;Node5 -->
<g id="edge4_Node000002_Node000005" class="edge">
<title>Node2&#45;&gt;Node5</title>
<g id="a_edge4_Node000002_Node000005"><a xlink:title=" ">
<path fill="none" stroke="#63b8ff" d="M133.94,-55.59C138.83,-48.47 145.69,-38.45 151.68,-29.72"/>
<polygon fill="#63b8ff" stroke="#63b8ff" points="154.51,-31.77 157.27,-21.55 148.73,-27.82 154.51,-31.77"/>
</a>
</g>
</g>
<!-- Node6 -->
<g id="Node000006" class="node">
<title>Node6</title>
<g id="a_Node000006"><a xlink:title=" ">
<polygon fill="#e0e0e0" stroke="#999999" points="267.88,-20 209.12,-20 209.12,0 267.88,0 267.88,-20"/>
<text xml:space="preserve" text-anchor="middle" x="238.5" y="-6.5" font-family="Helvetica,sans-Serif" font-size="10.00">stdexcept</text>
</a>
</g>
</g>
<!-- Node2&#45;&gt;Node6 -->
<g id="edge5_Node000002_Node000006" class="edge">
<title>Node2&#45;&gt;Node6</title>
<g id="a_edge5_Node000002_Node000006"><a xlink:title=" ">
<path fill="none" stroke="#63b8ff" d="M146.83,-55.59C163.92,-47.28 189.1,-35.03 208.75,-25.47"/>
<polygon fill="#63b8ff" stroke="#63b8ff" points="210.19,-28.66 217.65,-21.14 207.13,-22.37 210.19,-28.66"/>
</a>
</g>
</g>
</g>
</svg>
