<?xml version="1.0" encoding="UTF-8" standalone="no"?>
<!DOCTYPE svg PUBLIC "-//W3C//DTD SVG 1.1//EN"
 "http://www.w3.org/Graphics/SVG/1.1/DTD/svg11.dtd">
<!-- Generated by graphviz version 14.0.2 (20251019.1705)
 -->
<!-- Title: Games/Memory_Tic_Tac_Toe/Memory_Tic_Tac_Toe.h Pages: 1 -->
<svg width="258pt" height="108pt"
 viewBox="0.00 0.00 258.00 108.00" xmlns="http://www.w3.org/2000/svg" xmlns:xlink="http://www.w3.org/1999/xlink">
<g id="graph0" class="graph" transform="scale(1 1) rotate(0) translate(4 104)">
<title>Games/Memory_Tic_Tac_Toe/Memory_Tic_Tac_Toe.h</title>
<!-- Node1 -->
<g id="Node000001" class="node">
<title>Node1</title>
<g id="a_Node000001"><a xlink:title=" ">
<polygon fill="#999999" stroke="#666666" points="216.5,-100 72.25,-100 72.25,-68 216.5,-68 216.5,-100"/>
<text xml:space="preserve" text-anchor="start" x="80.25" y="-86.5" font-family="Helvetica,sans-Serif" font-size="10.00">Games/Memory_Tic_Tac</text>
<text xml:space="preserve" text-anchor="middle" x="144.38" y="-74.5" font-family="Helvetica,sans-Serif" font-size="10.00">_Toe/Memory_Tic_Tac_Toe.h</text>
</a>
</g>
</g>
<!-- Node2 -->
<g id="Node000002" class="node">
<title>Node2</title>
<g id="a_Node000002"><a xlink:href="_memory___tic___tac___toe_8cpp.html" target="_top" xlink:title=" ">
<polygon fill="white" stroke="#666666" points="154.75,-32 0,-32 0,0 154.75,0 154.75,-32"/>
<text xml:space="preserve" text-anchor="start" x="8" y="-18.5" font-family="Helvetica,sans-Serif" font-size="10.00">Games/Memory_Tic_Tac</text>
<text xml:space="preserve" text-anchor="middle" x="77.38" y="-6.5" font-family="Helvetica,sans-Serif" font-size="10.00">_Toe/Memory_Tic_Tac_Toe.cpp</text>
</a>
</g>
</g>
<!-- Node1&#45;&gt;Node2 -->
<g id="edge1_Node000001_Node000002" class="edge">
<title>Node1&#45;&gt;Node2</title>
<g id="a_edge1_Node000001_Node000002"><a xlink:title=" ">
<path fill="none" stroke="#63b8ff" d="M120.73,-59.71C111.47,-50.59 101.1,-40.37 92.83,-32.22"/>
<polygon fill="#63b8ff" stroke="#63b8ff" points="118.18,-62.11 127.76,-66.63 123.09,-57.12 118.18,-62.11"/>
</a>
</g>
</g>
<!-- Node3 -->
<g id="Node000003" class="node">
<title>Node3</title>
<g id="a_Node000003"><a xlink:href="_the_game_8cpp.html" target="_top" xlink:title=" ">
<polygon fill="white" stroke="#666666" points="250.12,-26 172.62,-26 172.62,-6 250.12,-6 250.12,-26"/>
<text xml:space="preserve" text-anchor="middle" x="211.38" y="-12.5" font-family="Helvetica,sans-Serif" font-size="10.00">TheGame.cpp</text>
</a>
</g>
</g>
<!-- Node1&#45;&gt;Node3 -->
<g id="edge2_Node000001_Node000003" class="edge">
<title>Node1&#45;&gt;Node3</title>
<g id="a_edge2_Node000001_Node000003"><a xlink:title=" ">
<path fill="none" stroke="#63b8ff" d="M168.02,-59.71C179.7,-48.2 193.14,-34.97 201.92,-26.32"/>
<polygon fill="#63b8ff" stroke="#63b8ff" points="165.66,-57.12 160.99,-66.63 170.57,-62.11 165.66,-57.12"/>
</a>
</g>
</g>
</g>
</svg>
