<?xml version="1.0" encoding="UTF-8" standalone="no"?>
<!DOCTYPE svg PUBLIC "-//W3C//DTD SVG 1.1//EN"
 "http://www.w3.org/Graphics/SVG/1.1/DTD/svg11.dtd">
<!-- Generated by graphviz version 14.0.2 (20251019.1705)
 -->
<!-- Title: Games/Memory_Tic_Tac_Toe/Memory_Tic_Tac_Toe.h Pages: 1 -->
<svg width="464pt" height="220pt"
 viewBox="0.00 0.00 464.00 220.00" xmlns="http://www.w3.org/2000/svg" xmlns:xlink="http://www.w3.org/1999/xlink">
<g id="graph0" class="graph" transform="scale(1 1) rotate(0) translate(4 216)">
<title>Games/Memory_Tic_Tac_Toe/Memory_Tic_Tac_Toe.h</title>
<!-- Node1 -->
<g id="Node000001" class="node">
<title>Node1</title>
<g id="a_Node000001"><a xlink:title=" ">
<polygon fill="#999999" stroke="#666666" points="349.12,-212 204.88,-212 204.88,-180 349.12,-180 349.12,-212"/>
<text xml:space="preserve" text-anchor="start" x="212.88" y="-198.5" font-family="Helvetica,sans-Serif" font-size="10.00">Games/Memory_Tic_Tac</text>
<text xml:space="preserve" text-anchor="middle" x="277" y="-186.5" font-family="Helvetica,sans-Serif" font-size="10.00">_Toe/Memory_Tic_Tac_Toe.h</text>
</a>
</g>
</g>
<!-- Node2 -->
<g id="Node000002" class="node">
<title>Node2</title>
<g id="a_Node000002"><a xlink:href="$_board_game___classes_8h.html" xlink:title=" ">
<polygon fill="white" stroke="#666666" points="142,-88 24,-88 24,-56 142,-56 142,-88"/>
<text xml:space="preserve" text-anchor="start" x="32" y="-74.5" font-family="Helvetica,sans-Serif" font-size="10.00">../../header/BoardGame</text>
<text xml:space="preserve" text-anchor="middle" x="83" y="-62.5" font-family="Helvetica,sans-Serif" font-size="10.00">_Classes.h</text>
</a>
</g>
</g>
<!-- Node1&#45;&gt;Node2 -->
<g id="edge1_Node000001_Node000002" class="edge">
<title>Node1&#45;&gt;Node2</title>
<g id="a_edge1_Node000001_Node000002"><a xlink:title=" ">
<path fill="none" stroke="#63b8ff" d="M204.53,-187.77C148.02,-180.45 76.17,-166.89 58,-144 47.37,-130.61 54.13,-112.37 63.29,-97.73"/>
<polygon fill="#63b8ff" stroke="#63b8ff" points="66.16,-99.73 68.96,-89.51 60.4,-95.75 66.16,-99.73"/>
</a>
</g>
</g>
<!-- Node4 -->
<g id="Node000004" class="node">
<title>Node4</title>
<g id="a_Node000004"><a xlink:title=" ">
<polygon fill="#e0e0e0" stroke="#999999" points="240.5,-20 197.5,-20 197.5,0 240.5,0 240.5,-20"/>
<text xml:space="preserve" text-anchor="middle" x="219" y="-6.5" font-family="Helvetica,sans-Serif" font-size="10.00">vector</text>
</a>
</g>
</g>
<!-- Node1&#45;&gt;Node4 -->
<g id="edge14_Node000001_Node000004" class="edge">
<title>Node1&#45;&gt;Node4</title>
<g id="a_edge14_Node000001_Node000004"><a xlink:title=" ">
<path fill="none" stroke="#63b8ff" d="M287.23,-179.67C293.12,-169.92 299.94,-156.76 303,-144 312.13,-105.97 323.09,-89.56 303,-56 291.9,-37.46 270.25,-26.12 251.72,-19.47"/>
<polygon fill="#63b8ff" stroke="#63b8ff" points="253.02,-16.21 242.42,-16.45 250.86,-22.87 253.02,-16.21"/>
</a>
</g>
</g>
<!-- Node7 -->
<g id="Node000007" class="node">
<title>Node7</title>
<g id="a_Node000007"><a xlink:href="$_a_i_8h.html" xlink:title=" ">
<polygon fill="white" stroke="#666666" points="151.12,-144 66.88,-144 66.88,-124 151.12,-124 151.12,-144"/>
<text xml:space="preserve" text-anchor="middle" x="109" y="-130.5" font-family="Helvetica,sans-Serif" font-size="10.00">../../header/AI.h</text>
</a>
</g>
</g>
<!-- Node1&#45;&gt;Node7 -->
<g id="edge6_Node000001_Node000007" class="edge">
<title>Node1&#45;&gt;Node7</title>
<g id="a_edge6_Node000001_Node000007"><a xlink:title=" ">
<path fill="none" stroke="#63b8ff" d="M233.74,-179.55C206.51,-169.83 171.76,-157.41 145.86,-148.16"/>
<polygon fill="#63b8ff" stroke="#63b8ff" points="147.36,-144.98 136.77,-144.92 145.01,-151.58 147.36,-144.98"/>
</a>
</g>
</g>
<!-- Node8 -->
<g id="Node000008" class="node">
<title>Node8</title>
<g id="a_Node000008"><a xlink:href="$_custom___u_i_8h.html" xlink:title="Defines a customizable user interface for board games.">
<polygon fill="white" stroke="#666666" points="294.38,-144 169.62,-144 169.62,-124 294.38,-124 294.38,-144"/>
<text xml:space="preserve" text-anchor="middle" x="232" y="-130.5" font-family="Helvetica,sans-Serif" font-size="10.00">../../header/Custom_UI.h</text>
</a>
</g>
</g>
<!-- Node1&#45;&gt;Node8 -->
<g id="edge8_Node000001_Node000008" class="edge">
<title>Node1&#45;&gt;Node8</title>
<g id="a_edge8_Node000001_Node000008"><a xlink:title=" ">
<path fill="none" stroke="#63b8ff" d="M265.41,-179.55C259.42,-171.56 252.07,-161.76 245.79,-153.39"/>
<polygon fill="#63b8ff" stroke="#63b8ff" points="248.76,-151.52 239.96,-145.62 243.16,-155.72 248.76,-151.52"/>
</a>
</g>
</g>
<!-- Node10 -->
<g id="Node000010" class="node">
<title>Node10</title>
<g id="a_Node000010"><a xlink:title=" ">
<polygon fill="#e0e0e0" stroke="#999999" points="389.62,-144 350.38,-144 350.38,-124 389.62,-124 389.62,-144"/>
<text xml:space="preserve" text-anchor="middle" x="370" y="-130.5" font-family="Helvetica,sans-Serif" font-size="10.00">limits</text>
</a>
</g>
</g>
<!-- Node1&#45;&gt;Node10 -->
<g id="edge13_Node000001_Node000010" class="edge">
<title>Node1&#45;&gt;Node10</title>
<g id="a_edge13_Node000001_Node000010"><a xlink:title=" ">
<path fill="none" stroke="#63b8ff" d="M300.95,-179.55C314.81,-170.61 332.19,-159.39 346.05,-150.45"/>
<polygon fill="#63b8ff" stroke="#63b8ff" points="347.64,-153.59 354.15,-145.23 343.85,-147.71 347.64,-153.59"/>
</a>
</g>
</g>
<!-- Node11 -->
<g id="Node000011" class="node">
<title>Node11</title>
<g id="a_Node000011"><a xlink:title=" ">
<polygon fill="#e0e0e0" stroke="#999999" points="456.12,-144 407.88,-144 407.88,-124 456.12,-124 456.12,-144"/>
<text xml:space="preserve" text-anchor="middle" x="432" y="-130.5" font-family="Helvetica,sans-Serif" font-size="10.00">random</text>
</a>
</g>
</g>
<!-- Node1&#45;&gt;Node11 -->
<g id="edge15_Node000001_Node000011" class="edge">
<title>Node1&#45;&gt;Node11</title>
<g id="a_edge15_Node000001_Node000011"><a xlink:title=" ">
<path fill="none" stroke="#63b8ff" d="M316.92,-179.55C341.7,-169.96 373.24,-157.75 397.03,-148.54"/>
<polygon fill="#63b8ff" stroke="#63b8ff" points="398.22,-151.83 406.28,-144.95 395.7,-145.3 398.22,-151.83"/>
</a>
</g>
</g>
<!-- Node3 -->
<g id="Node000003" class="node">
<title>Node3</title>
<g id="a_Node000003"><a xlink:title=" ">
<polygon fill="#e0e0e0" stroke="#999999" points="40,-20 0,-20 0,0 40,0 40,-20"/>
<text xml:space="preserve" text-anchor="middle" x="20" y="-6.5" font-family="Helvetica,sans-Serif" font-size="10.00">string</text>
</a>
</g>
</g>
<!-- Node2&#45;&gt;Node3 -->
<g id="edge2_Node000002_Node000003" class="edge">
<title>Node2&#45;&gt;Node3</title>
<g id="a_edge2_Node000002_Node000003"><a xlink:title=" ">
<path fill="none" stroke="#63b8ff" d="M66.78,-55.55C58.03,-47.22 47.2,-36.91 38.17,-28.3"/>
<polygon fill="#63b8ff" stroke="#63b8ff" points="40.63,-25.81 30.97,-21.45 35.8,-30.88 40.63,-25.81"/>
</a>
</g>
</g>
<!-- Node2&#45;&gt;Node4 -->
<g id="edge3_Node000002_Node000004" class="edge">
<title>Node2&#45;&gt;Node4</title>
<g id="a_edge3_Node000002_Node000004"><a xlink:title=" ">
<path fill="none" stroke="#63b8ff" d="M118.02,-55.55C139.37,-46.13 166.44,-34.19 187.18,-25.04"/>
<polygon fill="#63b8ff" stroke="#63b8ff" points="188.55,-28.26 196.29,-21.02 185.73,-21.85 188.55,-28.26"/>
</a>
</g>
</g>
<!-- Node5 -->
<g id="Node000005" class="node">
<title>Node5</title>
<g id="a_Node000005"><a xlink:title=" ">
<polygon fill="#e0e0e0" stroke="#999999" points="179.75,-20 126.25,-20 126.25,0 179.75,0 179.75,-20"/>
<text xml:space="preserve" text-anchor="middle" x="153" y="-6.5" font-family="Helvetica,sans-Serif" font-size="10.00">iostream</text>
</a>
</g>
</g>
<!-- Node2&#45;&gt;Node5 -->
<g id="edge4_Node000002_Node000005" class="edge">
<title>Node2&#45;&gt;Node5</title>
<g id="a_edge4_Node000002_Node000005"><a xlink:title=" ">
<path fill="none" stroke="#63b8ff" d="M101.03,-55.55C110.95,-47.04 123.28,-36.48 133.44,-27.77"/>
<polygon fill="#63b8ff" stroke="#63b8ff" points="135.56,-30.56 140.87,-21.39 131,-25.24 135.56,-30.56"/>
</a>
</g>
</g>
<!-- Node6 -->
<g id="Node000006" class="node">
<title>Node6</title>
<g id="a_Node000006"><a xlink:title=" ">
<polygon fill="#e0e0e0" stroke="#999999" points="107.88,-20 58.12,-20 58.12,0 107.88,0 107.88,-20"/>
<text xml:space="preserve" text-anchor="middle" x="83" y="-6.5" font-family="Helvetica,sans-Serif" font-size="10.00">iomanip</text>
</a>
</g>
</g>
<!-- Node2&#45;&gt;Node6 -->
<g id="edge5_Node000002_Node000006" class="edge">
<title>Node2&#45;&gt;Node6</title>
<g id="a_edge5_Node000002_Node000006"><a xlink:title=" ">
<path fill="none" stroke="#63b8ff" d="M83,-55.55C83,-48.34 83,-39.66 83,-31.88"/>
<polygon fill="#63b8ff" stroke="#63b8ff" points="86.5,-31.92 83,-21.92 79.5,-31.92 86.5,-31.92"/>
</a>
</g>
</g>
<!-- Node7&#45;&gt;Node2 -->
<g id="edge7_Node000007_Node000002" class="edge">
<title>Node7&#45;&gt;Node2</title>
<g id="a_edge7_Node000007_Node000002"><a xlink:title=" ">
<path fill="none" stroke="#63b8ff" d="M104.94,-123.62C102.01,-116.88 97.92,-107.43 94.06,-98.52"/>
<polygon fill="#63b8ff" stroke="#63b8ff" points="97.35,-97.31 90.16,-89.53 90.93,-100.1 97.35,-97.31"/>
</a>
</g>
</g>
<!-- Node8&#45;&gt;Node2 -->
<g id="edge9_Node000008_Node000002" class="edge">
<title>Node8&#45;&gt;Node2</title>
<g id="a_edge9_Node000008_Node000002"><a xlink:title=" ">
<path fill="none" stroke="#63b8ff" d="M208.72,-123.62C188.22,-115.37 157.68,-103.07 131.84,-92.67"/>
<polygon fill="#63b8ff" stroke="#63b8ff" points="133.46,-89.54 122.87,-89.06 130.84,-96.04 133.46,-89.54"/>
</a>
</g>
</g>
<!-- Node8&#45;&gt;Node4 -->
<g id="edge11_Node000008_Node000004" class="edge">
<title>Node8&#45;&gt;Node4</title>
<g id="a_edge11_Node000008_Node000004"><a xlink:title=" ">
<path fill="none" stroke="#63b8ff" d="M230.95,-123.69C229.92,-114.6 228.33,-100.35 227,-88 224.96,-69 222.72,-47.35 221.13,-31.86"/>
<polygon fill="#63b8ff" stroke="#63b8ff" points="224.62,-31.58 220.12,-21.99 217.65,-32.3 224.62,-31.58"/>
</a>
</g>
</g>
<!-- Node8&#45;&gt;Node5 -->
<g id="edge10_Node000008_Node000005" class="edge">
<title>Node8&#45;&gt;Node5</title>
<g id="a_edge10_Node000008_Node000005"><a xlink:title=" ">
<path fill="none" stroke="#63b8ff" d="M226.06,-123.83C213.14,-103.87 182.24,-56.15 165.05,-29.61"/>
<polygon fill="#63b8ff" stroke="#63b8ff" points="168.2,-28.04 159.83,-21.55 162.33,-31.84 168.2,-28.04"/>
</a>
</g>
</g>
<!-- Node9 -->
<g id="Node000009" class="node">
<title>Node9</title>
<g id="a_Node000009"><a xlink:title=" ">
<polygon fill="#e0e0e0" stroke="#999999" points="294.38,-82 235.62,-82 235.62,-62 294.38,-62 294.38,-82"/>
<text xml:space="preserve" text-anchor="middle" x="265" y="-68.5" font-family="Helvetica,sans-Serif" font-size="10.00">stdexcept</text>
</a>
</g>
</g>
<!-- Node8&#45;&gt;Node9 -->
<g id="edge12_Node000008_Node000009" class="edge">
<title>Node8&#45;&gt;Node9</title>
<g id="a_edge12_Node000008_Node000009"><a xlink:title=" ">
<path fill="none" stroke="#63b8ff" d="M237.16,-123.62C241.78,-115.21 248.72,-102.6 254.51,-92.07"/>
<polygon fill="#63b8ff" stroke="#63b8ff" points="257.51,-93.89 259.26,-83.44 251.37,-90.51 257.51,-93.89"/>
</a>
</g>
</g>
</g>
</svg>
