<?xml version="1.0" encoding="UTF-8" standalone="no"?>
<!DOCTYPE svg PUBLIC "-//W3C//DTD SVG 1.1//EN"
 "http://www.w3.org/Graphics/SVG/1.1/DTD/svg11.dtd">
<!-- Generated by graphviz version 14.0.2 (20251019.1705)
 -->
<!-- Title: Games/Memory_Tic_Tac_Toe/Memory_Tic_Tac_Toe.cpp Pages: 1 -->
<svg width="655pt" height="276pt"
 viewBox="0.00 0.00 655.00 276.00" xmlns="http://www.w3.org/2000/svg" xmlns:xlink="http://www.w3.org/1999/xlink">
<g id="graph0" class="graph" transform="scale(1 1) rotate(0) translate(4 272)">
<title>Games/Memory_Tic_Tac_Toe/Memory_Tic_Tac_Toe.cpp</title>
<!-- Node1 -->
<g id="Node000001" class="node">
<title>Node1</title>
<g id="a_Node000001"><a xlink:title=" ">
<polygon fill="#999999" stroke="#666666" points="549.85,-268 395.1,-268 395.1,-236 549.85,-236 549.85,-268"/>
<text xml:space="preserve" text-anchor="start" x="403.1" y="-254.5" font-family="Helvetica,sans-Serif" font-size="10.00">Games/Memory_Tic_Tac</text>
<text xml:space="preserve" text-anchor="middle" x="472.47" y="-242.5" font-family="Helvetica,sans-Serif" font-size="10.00">_Toe/Memory_Tic_Tac_Toe.cpp</text>
</a>
</g>
</g>
<!-- Node2 -->
<g id="Node000002" class="node">
<title>Node2</title>
<g id="a_Node000002"><a xlink:href="$_memory___tic___tac___toe_8h.html" xlink:title=" ">
<polygon fill="white" stroke="#666666" points="256.6,-200 136.35,-200 136.35,-180 256.6,-180 256.6,-200"/>
<text xml:space="preserve" text-anchor="middle" x="196.47" y="-186.5" font-family="Helvetica,sans-Serif" font-size="10.00">Memory_Tic_Tac_Toe.h</text>
</a>
</g>
</g>
<!-- Node1&#45;&gt;Node2 -->
<g id="edge1_Node000001_Node000002" class="edge">
<title>Node1&#45;&gt;Node2</title>
<g id="a_edge1_Node000001_Node000002"><a xlink:title=" ">
<path fill="none" stroke="#63b8ff" d="M401.4,-235.55C354.63,-225.38 294.32,-212.27 251.27,-202.91"/>
<polygon fill="#63b8ff" stroke="#63b8ff" points="252.15,-199.52 241.64,-200.82 250.66,-206.36 252.15,-199.52"/>
</a>
</g>
</g>
<!-- Node6 -->
<g id="Node000006" class="node">
<title>Node6</title>
<g id="a_Node000006"><a xlink:title=" ">
<polygon fill="#e0e0e0" stroke="#999999" points="331.22,-20 277.72,-20 277.72,0 331.22,0 331.22,-20"/>
<text xml:space="preserve" text-anchor="middle" x="304.47" y="-6.5" font-family="Helvetica,sans-Serif" font-size="10.00">iostream</text>
</a>
</g>
</g>
<!-- Node1&#45;&gt;Node6 -->
<g id="edge17_Node000001_Node000006" class="edge">
<title>Node1&#45;&gt;Node6</title>
<g id="a_edge17_Node000001_Node000006"><a xlink:title=" ">
<path fill="none" stroke="#63b8ff" d="M472.67,-235.53C472.27,-199.23 466.2,-107.72 417.47,-56 397.72,-35.04 366.94,-23.64 342.49,-17.56"/>
<polygon fill="#63b8ff" stroke="#63b8ff" points="343.42,-14.18 332.89,-15.39 341.88,-21.01 343.42,-14.18"/>
</a>
</g>
</g>
<!-- Node7 -->
<g id="Node000007" class="node">
<title>Node7</title>
<g id="a_Node000007"><a xlink:title=" ">
<polygon fill="#e0e0e0" stroke="#999999" points="476.35,-20 426.6,-20 426.6,0 476.35,0 476.35,-20"/>
<text xml:space="preserve" text-anchor="middle" x="451.47" y="-6.5" font-family="Helvetica,sans-Serif" font-size="10.00">iomanip</text>
</a>
</g>
</g>
<!-- Node1&#45;&gt;Node7 -->
<g id="edge18_Node000001_Node000007" class="edge">
<title>Node1&#45;&gt;Node7</title>
<g id="a_edge18_Node000001_Node000007"><a xlink:title=" ">
<path fill="none" stroke="#63b8ff" d="M477.58,-235.55C487.88,-201.87 508.34,-119.73 486.47,-56 483,-45.88 476.23,-36.29 469.55,-28.58"/>
<polygon fill="#63b8ff" stroke="#63b8ff" points="472.12,-26.2 462.73,-21.3 467.02,-30.99 472.12,-26.2"/>
</a>
</g>
</g>
<!-- Node10 -->
<g id="Node000010" class="node">
<title>Node10</title>
<g id="a_Node000010"><a xlink:title=" ">
<polygon fill="#e0e0e0" stroke="#999999" points="408.85,-82 350.1,-82 350.1,-62 408.85,-62 408.85,-82"/>
<text xml:space="preserve" text-anchor="middle" x="379.47" y="-68.5" font-family="Helvetica,sans-Serif" font-size="10.00">stdexcept</text>
</a>
</g>
</g>
<!-- Node1&#45;&gt;Node10 -->
<g id="edge21_Node000001_Node000010" class="edge">
<title>Node1&#45;&gt;Node10</title>
<g id="a_edge21_Node000001_Node000010"><a xlink:title=" ">
<path fill="none" stroke="#63b8ff" d="M466.71,-235.68C457.31,-211.34 437.5,-162.63 415.47,-124 409.09,-112.8 400.86,-101 393.89,-91.57"/>
<polygon fill="#63b8ff" stroke="#63b8ff" points="396.69,-89.48 387.87,-83.62 391.11,-93.7 396.69,-89.48"/>
</a>
</g>
</g>
<!-- Node11 -->
<g id="Node000011" class="node">
<title>Node11</title>
<g id="a_Node000011"><a xlink:title=" ">
<polygon fill="#e0e0e0" stroke="#999999" points="406.1,-144 366.85,-144 366.85,-124 406.1,-124 406.1,-144"/>
<text xml:space="preserve" text-anchor="middle" x="386.47" y="-130.5" font-family="Helvetica,sans-Serif" font-size="10.00">limits</text>
</a>
</g>
</g>
<!-- Node1&#45;&gt;Node11 -->
<g id="edge20_Node000001_Node000011" class="edge">
<title>Node1&#45;&gt;Node11</title>
<g id="a_edge20_Node000001_Node000011"><a xlink:title=" ">
<path fill="none" stroke="#63b8ff" d="M454.2,-235.69C443.53,-226.15 430.27,-213.2 420.47,-200 410.02,-185.92 400.98,-168.19 394.85,-154.8"/>
<polygon fill="#63b8ff" stroke="#63b8ff" points="398.1,-153.48 390.87,-145.74 391.69,-156.3 398.1,-153.48"/>
</a>
</g>
</g>
<!-- Node13 -->
<g id="Node000013" class="node">
<title>Node13</title>
<g id="a_Node000013"><a xlink:title=" ">
<polygon fill="#e0e0e0" stroke="#999999" points="584.1,-200 538.85,-200 538.85,-180 584.1,-180 584.1,-200"/>
<text xml:space="preserve" text-anchor="middle" x="561.47" y="-186.5" font-family="Helvetica,sans-Serif" font-size="10.00">cctype</text>
</a>
</g>
</g>
<!-- Node1&#45;&gt;Node13 -->
<g id="edge19_Node000001_Node000013" class="edge">
<title>Node1&#45;&gt;Node13</title>
<g id="a_edge19_Node000001_Node000013"><a xlink:title=" ">
<path fill="none" stroke="#63b8ff" d="M495.39,-235.55C508.53,-226.69 524.97,-215.61 538.17,-206.71"/>
<polygon fill="#63b8ff" stroke="#63b8ff" points="539.93,-209.75 546.26,-201.25 536.02,-203.94 539.93,-209.75"/>
</a>
</g>
</g>
<!-- Node14 -->
<g id="Node000014" class="node">
<title>Node14</title>
<g id="a_Node000014"><a xlink:title=" ">
<polygon fill="#e0e0e0" stroke="#999999" points="646.72,-200 602.22,-200 602.22,-180 646.72,-180 646.72,-200"/>
<text xml:space="preserve" text-anchor="middle" x="624.47" y="-186.5" font-family="Helvetica,sans-Serif" font-size="10.00">cstdlib</text>
</a>
</g>
</g>
<!-- Node1&#45;&gt;Node14 -->
<g id="edge22_Node000001_Node000014" class="edge">
<title>Node1&#45;&gt;Node14</title>
<g id="a_edge22_Node000001_Node000014"><a xlink:title=" ">
<path fill="none" stroke="#63b8ff" d="M511.62,-235.55C536.37,-225.78 568.01,-213.29 591.49,-204.02"/>
<polygon fill="#63b8ff" stroke="#63b8ff" points="592.54,-207.37 600.56,-200.44 589.97,-200.86 592.54,-207.37"/>
</a>
</g>
</g>
<!-- Node3 -->
<g id="Node000003" class="node">
<title>Node3</title>
<g id="a_Node000003"><a xlink:href="$_board_game___classes_8h.html" xlink:title=" ">
<polygon fill="white" stroke="#666666" points="276.47,-88 158.47,-88 158.47,-56 276.47,-56 276.47,-88"/>
<text xml:space="preserve" text-anchor="start" x="166.47" y="-74.5" font-family="Helvetica,sans-Serif" font-size="10.00">../../header/BoardGame</text>
<text xml:space="preserve" text-anchor="middle" x="217.47" y="-62.5" font-family="Helvetica,sans-Serif" font-size="10.00">_Classes.h</text>
</a>
</g>
</g>
<!-- Node2&#45;&gt;Node3 -->
<g id="edge2_Node000002_Node000003" class="edge">
<title>Node2&#45;&gt;Node3</title>
<g id="a_edge2_Node000002_Node000003"><a xlink:title=" ">
<path fill="none" stroke="#63b8ff" d="M198.19,-179.51C201.32,-162.22 208.05,-125.05 212.67,-99.54"/>
<polygon fill="#63b8ff" stroke="#63b8ff" points="216.08,-100.37 214.41,-89.9 209.19,-99.12 216.08,-100.37"/>
</a>
</g>
</g>
<!-- Node5 -->
<g id="Node000005" class="node">
<title>Node5</title>
<g id="a_Node000005"><a xlink:title=" ">
<polygon fill="#e0e0e0" stroke="#999999" points="151.97,-20 108.97,-20 108.97,0 151.97,0 151.97,-20"/>
<text xml:space="preserve" text-anchor="middle" x="130.47" y="-6.5" font-family="Helvetica,sans-Serif" font-size="10.00">vector</text>
</a>
</g>
</g>
<!-- Node2&#45;&gt;Node5 -->
<g id="edge15_Node000002_Node000005" class="edge">
<title>Node2&#45;&gt;Node5</title>
<g id="a_edge15_Node000002_Node000005"><a xlink:title=" ">
<path fill="none" stroke="#63b8ff" d="M136.26,-182.56C87.75,-175.98 25.13,-163.87 9.47,-144 -26.28,-98.62 52.91,-49.34 99.53,-25.52"/>
<polygon fill="#63b8ff" stroke="#63b8ff" points="101.01,-28.69 108.41,-21.1 97.89,-22.42 101.01,-28.69"/>
</a>
</g>
</g>
<!-- Node8 -->
<g id="Node000008" class="node">
<title>Node8</title>
<g id="a_Node000008"><a xlink:href="$_a_i_8h.html" xlink:title=" ">
<polygon fill="white" stroke="#666666" points="102.6,-144 18.35,-144 18.35,-124 102.6,-124 102.6,-144"/>
<text xml:space="preserve" text-anchor="middle" x="60.47" y="-130.5" font-family="Helvetica,sans-Serif" font-size="10.00">../../header/AI.h</text>
</a>
</g>
</g>
<!-- Node2&#45;&gt;Node8 -->
<g id="edge7_Node000002_Node000008" class="edge">
<title>Node2&#45;&gt;Node8</title>
<g id="a_edge7_Node000002_Node000008"><a xlink:title=" ">
<path fill="none" stroke="#63b8ff" d="M172.78,-179.59C151.27,-171.05 119.27,-158.35 94.93,-148.68"/>
<polygon fill="#63b8ff" stroke="#63b8ff" points="96.34,-145.48 85.76,-145.04 93.76,-151.98 96.34,-145.48"/>
</a>
</g>
</g>
<!-- Node9 -->
<g id="Node000009" class="node">
<title>Node9</title>
<g id="a_Node000009"><a xlink:href="$_custom___u_i_8h.html" xlink:title="Defines a customizable user interface for board games.">
<polygon fill="white" stroke="#666666" points="348.85,-144 224.1,-144 224.1,-124 348.85,-124 348.85,-144"/>
<text xml:space="preserve" text-anchor="middle" x="286.47" y="-130.5" font-family="Helvetica,sans-Serif" font-size="10.00">../../header/Custom_UI.h</text>
</a>
</g>
</g>
<!-- Node2&#45;&gt;Node9 -->
<g id="edge9_Node000002_Node000009" class="edge">
<title>Node2&#45;&gt;Node9</title>
<g id="a_edge9_Node000002_Node000009"><a xlink:title=" ">
<path fill="none" stroke="#63b8ff" d="M212.15,-179.59C225.62,-171.51 245.29,-159.71 261.02,-150.27"/>
<polygon fill="#63b8ff" stroke="#63b8ff" points="262.6,-153.4 269.38,-145.26 259,-147.4 262.6,-153.4"/>
</a>
</g>
</g>
<!-- Node2&#45;&gt;Node11 -->
<g id="edge14_Node000002_Node000011" class="edge">
<title>Node2&#45;&gt;Node11</title>
<g id="a_edge14_Node000002_Node000011"><a xlink:title=" ">
<path fill="none" stroke="#63b8ff" d="M231.42,-179.54C261.79,-171.25 307.23,-158.69 355.53,-144.51"/>
<polygon fill="#63b8ff" stroke="#63b8ff" points="356.47,-147.88 365.08,-141.7 354.5,-141.17 356.47,-147.88"/>
</a>
</g>
</g>
<!-- Node12 -->
<g id="Node000012" class="node">
<title>Node12</title>
<g id="a_Node000012"><a xlink:title=" ">
<polygon fill="#e0e0e0" stroke="#999999" points="168.6,-144 120.35,-144 120.35,-124 168.6,-124 168.6,-144"/>
<text xml:space="preserve" text-anchor="middle" x="144.47" y="-130.5" font-family="Helvetica,sans-Serif" font-size="10.00">random</text>
</a>
</g>
</g>
<!-- Node2&#45;&gt;Node12 -->
<g id="edge16_Node000002_Node000012" class="edge">
<title>Node2&#45;&gt;Node12</title>
<g id="a_edge16_Node000002_Node000012"><a xlink:title=" ">
<path fill="none" stroke="#63b8ff" d="M187.42,-179.59C180.26,-172.16 170.07,-161.58 161.41,-152.58"/>
<polygon fill="#63b8ff" stroke="#63b8ff" points="163.94,-150.16 154.48,-145.39 158.89,-155.02 163.94,-150.16"/>
</a>
</g>
</g>
<!-- Node4 -->
<g id="Node000004" class="node">
<title>Node4</title>
<g id="a_Node000004"><a xlink:title=" ">
<polygon fill="#e0e0e0" stroke="#999999" points="237.47,-20 197.47,-20 197.47,0 237.47,0 237.47,-20"/>
<text xml:space="preserve" text-anchor="middle" x="217.47" y="-6.5" font-family="Helvetica,sans-Serif" font-size="10.00">string</text>
</a>
</g>
</g>
<!-- Node3&#45;&gt;Node4 -->
<g id="edge3_Node000003_Node000004" class="edge">
<title>Node3&#45;&gt;Node4</title>
<g id="a_edge3_Node000003_Node000004"><a xlink:title=" ">
<path fill="none" stroke="#63b8ff" d="M217.47,-55.55C217.47,-48.34 217.47,-39.66 217.47,-31.88"/>
<polygon fill="#63b8ff" stroke="#63b8ff" points="220.97,-31.92 217.47,-21.92 213.97,-31.92 220.97,-31.92"/>
</a>
</g>
</g>
<!-- Node3&#45;&gt;Node5 -->
<g id="edge4_Node000003_Node000005" class="edge">
<title>Node3&#45;&gt;Node5</title>
<g id="a_edge4_Node000003_Node000005"><a xlink:title=" ">
<path fill="none" stroke="#63b8ff" d="M195.07,-55.55C182.23,-46.69 166.16,-35.61 153.26,-26.71"/>
<polygon fill="#63b8ff" stroke="#63b8ff" points="155.58,-24.06 145.36,-21.27 151.61,-29.83 155.58,-24.06"/>
</a>
</g>
</g>
<!-- Node3&#45;&gt;Node6 -->
<g id="edge5_Node000003_Node000006" class="edge">
<title>Node3&#45;&gt;Node6</title>
<g id="a_edge5_Node000003_Node000006"><a xlink:title=" ">
<path fill="none" stroke="#63b8ff" d="M239.88,-55.55C252.72,-46.69 268.79,-35.61 281.69,-26.71"/>
<polygon fill="#63b8ff" stroke="#63b8ff" points="283.34,-29.83 289.59,-21.27 279.37,-24.06 283.34,-29.83"/>
</a>
</g>
</g>
<!-- Node3&#45;&gt;Node7 -->
<g id="edge6_Node000003_Node000007" class="edge">
<title>Node3&#45;&gt;Node7</title>
<g id="a_edge6_Node000003_Node000007"><a xlink:title=" ">
<path fill="none" stroke="#63b8ff" d="M276.82,-55.78C320.51,-44.58 378.49,-29.71 415.4,-20.25"/>
<polygon fill="#63b8ff" stroke="#63b8ff" points="415.85,-23.75 424.67,-17.87 414.12,-16.97 415.85,-23.75"/>
</a>
</g>
</g>
<!-- Node8&#45;&gt;Node3 -->
<g id="edge8_Node000008_Node000003" class="edge">
<title>Node8&#45;&gt;Node3</title>
<g id="a_edge8_Node000008_Node000003"><a xlink:title=" ">
<path fill="none" stroke="#63b8ff" d="M85.01,-123.62C106.7,-115.33 139.07,-102.96 166.37,-92.53"/>
<polygon fill="#63b8ff" stroke="#63b8ff" points="167.44,-95.87 175.53,-89.03 164.94,-89.33 167.44,-95.87"/>
</a>
</g>
</g>
<!-- Node9&#45;&gt;Node3 -->
<g id="edge10_Node000009_Node000003" class="edge">
<title>Node9&#45;&gt;Node3</title>
<g id="a_edge10_Node000009_Node000003"><a xlink:title=" ">
<path fill="none" stroke="#63b8ff" d="M275.69,-123.62C267.14,-116.19 254.82,-105.47 243.71,-95.81"/>
<polygon fill="#63b8ff" stroke="#63b8ff" points="246.14,-93.29 236.3,-89.37 241.55,-98.57 246.14,-93.29"/>
</a>
</g>
</g>
<!-- Node9&#45;&gt;Node5 -->
<g id="edge12_Node000009_Node000005" class="edge">
<title>Node9&#45;&gt;Node5</title>
<g id="a_edge12_Node000009_Node000005"><a xlink:title=" ">
<path fill="none" stroke="#63b8ff" d="M223.64,-125.9C197.4,-119.84 168.62,-108.65 149.47,-88 135.38,-72.8 131.29,-48.85 130.32,-31.7"/>
<polygon fill="#63b8ff" stroke="#63b8ff" points="133.82,-31.83 130.09,-21.91 126.82,-31.98 133.82,-31.83"/>
</a>
</g>
</g>
<!-- Node9&#45;&gt;Node6 -->
<g id="edge11_Node000009_Node000006" class="edge">
<title>Node9&#45;&gt;Node6</title>
<g id="a_edge11_Node000009_Node000006"><a xlink:title=" ">
<path fill="none" stroke="#63b8ff" d="M287.83,-123.83C290.71,-104.31 297.5,-58.25 301.46,-31.4"/>
<polygon fill="#63b8ff" stroke="#63b8ff" points="304.89,-32.18 302.88,-21.77 297.96,-31.16 304.89,-32.18"/>
</a>
</g>
</g>
<!-- Node9&#45;&gt;Node10 -->
<g id="edge13_Node000009_Node000010" class="edge">
<title>Node9&#45;&gt;Node10</title>
<g id="a_edge13_Node000009_Node000010"><a xlink:title=" ">
<path fill="none" stroke="#63b8ff" d="M301.01,-123.62C315.61,-114.2 338.37,-99.52 355.63,-88.39"/>
<polygon fill="#63b8ff" stroke="#63b8ff" points="357.27,-91.49 363.77,-83.13 353.47,-85.61 357.27,-91.49"/>
</a>
</g>
</g>
</g>
</svg>
