<?xml version="1.0" encoding="UTF-8" standalone="no"?>
<!DOCTYPE svg PUBLIC "-//W3C//DTD SVG 1.1//EN"
 "http://www.w3.org/Graphics/SVG/1.1/DTD/svg11.dtd">
<!-- Generated by graphviz version 14.0.2 (20251019.1705)
 -->
<!-- Title: Neural_Network/Source/NeuralNetwork.cpp Pages: 1 -->
<svg width="313pt" height="264pt"
 viewBox="0.00 0.00 313.00 264.00" xmlns="http://www.w3.org/2000/svg" xmlns:xlink="http://www.w3.org/1999/xlink">
<g id="graph0" class="graph" transform="scale(1 1) rotate(0) translate(4 260)">
<title>Neural_Network/Source/NeuralNetwork.cpp</title>
<!-- Node1 -->
<g id="Node000001" class="node">
<title>Node1</title>
<g id="a_Node000001"><a xlink:title=" ">
<polygon fill="#999999" stroke="#666666" points="305,-256 184.75,-256 184.75,-224 305,-224 305,-256"/>
<text xml:space="preserve" text-anchor="start" x="192.75" y="-242.5" font-family="Helvetica,sans-Serif" font-size="10.00">Neural_Network/Source</text>
<text xml:space="preserve" text-anchor="middle" x="244.88" y="-230.5" font-family="Helvetica,sans-Serif" font-size="10.00">/NeuralNetwork.cpp</text>
</a>
</g>
</g>
<!-- Node2 -->
<g id="Node000002" class="node">
<title>Node2</title>
<g id="a_Node000002"><a xlink:href="$_neural_network_8h.html" xlink:title=" ">
<polygon fill="white" stroke="#666666" points="210.38,-188 77.38,-188 77.38,-168 210.38,-168 210.38,-188"/>
<text xml:space="preserve" text-anchor="middle" x="143.88" y="-174.5" font-family="Helvetica,sans-Serif" font-size="10.00">../Include/NeuralNetwork.h</text>
</a>
</g>
</g>
<!-- Node1&#45;&gt;Node2 -->
<g id="edge1_Node000001_Node000002" class="edge">
<title>Node1&#45;&gt;Node2</title>
<g id="a_edge1_Node000001_Node000002"><a xlink:title=" ">
<path fill="none" stroke="#63b8ff" d="M218.87,-223.55C203.67,-214.52 184.57,-203.17 169.45,-194.19"/>
<polygon fill="#63b8ff" stroke="#63b8ff" points="171.4,-191.28 161.01,-189.18 167.82,-197.3 171.4,-191.28"/>
</a>
</g>
</g>
<!-- Node7 -->
<g id="Node000007" class="node">
<title>Node7</title>
<g id="a_Node000007"><a xlink:title=" ">
<polygon fill="#e0e0e0" stroke="#999999" points="301.25,-20 242.5,-20 242.5,0 301.25,0 301.25,-20"/>
<text xml:space="preserve" text-anchor="middle" x="271.88" y="-6.5" font-family="Helvetica,sans-Serif" font-size="10.00">stdexcept</text>
</a>
</g>
</g>
<!-- Node1&#45;&gt;Node7 -->
<g id="edge14_Node000001_Node000007" class="edge">
<title>Node1&#45;&gt;Node7</title>
<g id="a_edge14_Node000001_Node000007"><a xlink:title=" ">
<path fill="none" stroke="#63b8ff" d="M251.36,-223.77C259.68,-203.33 273.65,-165.71 278.88,-132 284.29,-97.1 279.6,-55.95 275.72,-31.75"/>
<polygon fill="#63b8ff" stroke="#63b8ff" points="279.18,-31.23 274.03,-21.97 272.28,-32.42 279.18,-31.23"/>
</a>
</g>
</g>
<!-- Node9 -->
<g id="Node000009" class="node">
<title>Node9</title>
<g id="a_Node000009"><a xlink:title=" ">
<polygon fill="#e0e0e0" stroke="#999999" points="269.38,-132 220.38,-132 220.38,-112 269.38,-112 269.38,-132"/>
<text xml:space="preserve" text-anchor="middle" x="244.88" y="-118.5" font-family="Helvetica,sans-Serif" font-size="10.00">fstream</text>
</a>
</g>
</g>
<!-- Node1&#45;&gt;Node9 -->
<g id="edge15_Node000001_Node000009" class="edge">
<title>Node1&#45;&gt;Node9</title>
<g id="a_edge15_Node000001_Node000009"><a xlink:title=" ">
<path fill="none" stroke="#63b8ff" d="M244.88,-223.84C244.88,-203.41 244.88,-166.97 244.88,-143.95"/>
<polygon fill="#63b8ff" stroke="#63b8ff" points="248.38,-143.95 244.88,-133.95 241.38,-143.95 248.38,-143.95"/>
</a>
</g>
</g>
<!-- Node3 -->
<g id="Node000003" class="node">
<title>Node3</title>
<g id="a_Node000003"><a xlink:href="$_matrix_8h.html" xlink:title=" ">
<polygon fill="white" stroke="#666666" points="125.5,-76 74.25,-76 74.25,-56 125.5,-56 125.5,-76"/>
<text xml:space="preserve" text-anchor="middle" x="99.88" y="-62.5" font-family="Helvetica,sans-Serif" font-size="10.00">Matrix.h</text>
</a>
</g>
</g>
<!-- Node2&#45;&gt;Node3 -->
<g id="edge2_Node000002_Node000003" class="edge">
<title>Node2&#45;&gt;Node3</title>
<g id="a_edge2_Node000002_Node000003"><a xlink:title=" ">
<path fill="none" stroke="#63b8ff" d="M136.39,-167.54C129.81,-158.79 120.45,-145.19 114.88,-132 108.8,-117.61 104.96,-100.34 102.69,-87.22"/>
<polygon fill="#63b8ff" stroke="#63b8ff" points="106.2,-86.98 101.2,-77.63 99.28,-88.05 106.2,-86.98"/>
</a>
</g>
</g>
<!-- Node4 -->
<g id="Node000004" class="node">
<title>Node4</title>
<g id="a_Node000004"><a xlink:title=" ">
<polygon fill="#e0e0e0" stroke="#999999" points="198.38,-20 155.38,-20 155.38,0 198.38,0 198.38,-20"/>
<text xml:space="preserve" text-anchor="middle" x="176.88" y="-6.5" font-family="Helvetica,sans-Serif" font-size="10.00">vector</text>
</a>
</g>
</g>
<!-- Node2&#45;&gt;Node4 -->
<g id="edge10_Node000002_Node000004" class="edge">
<title>Node2&#45;&gt;Node4</title>
<g id="a_edge10_Node000002_Node000004"><a xlink:title=" ">
<path fill="none" stroke="#63b8ff" d="M151.99,-167.77C158.98,-159.17 168.61,-145.66 172.88,-132 183.45,-98.16 181.82,-56.38 179.49,-31.82"/>
<polygon fill="#63b8ff" stroke="#63b8ff" points="182.97,-31.45 178.39,-21.89 176.01,-32.22 182.97,-31.45"/>
</a>
</g>
</g>
<!-- Node5 -->
<g id="Node000005" class="node">
<title>Node5</title>
<g id="a_Node000005"><a xlink:title=" ">
<polygon fill="#e0e0e0" stroke="#999999" points="59.88,-20 1.88,-20 1.88,0 59.88,0 59.88,-20"/>
<text xml:space="preserve" text-anchor="middle" x="30.88" y="-6.5" font-family="Helvetica,sans-Serif" font-size="10.00">functional</text>
</a>
</g>
</g>
<!-- Node2&#45;&gt;Node5 -->
<g id="edge11_Node000002_Node000005" class="edge">
<title>Node2&#45;&gt;Node5</title>
<g id="a_edge11_Node000002_Node000005"><a xlink:title=" ">
<path fill="none" stroke="#63b8ff" d="M76.96,-170.64C52.05,-164.64 26.15,-153.29 10.88,-132 -10.96,-101.56 6.67,-55.8 19.83,-30.16"/>
<polygon fill="#63b8ff" stroke="#63b8ff" points="22.81,-32 24.51,-21.55 16.66,-28.66 22.81,-32"/>
</a>
</g>
</g>
<!-- Node8 -->
<g id="Node000008" class="node">
<title>Node8</title>
<g id="a_Node000008"><a xlink:href="$_layer_8h.html" xlink:title=" ">
<polygon fill="white" stroke="#666666" points="68,-132 19.75,-132 19.75,-112 68,-112 68,-132"/>
<text xml:space="preserve" text-anchor="middle" x="43.88" y="-118.5" font-family="Helvetica,sans-Serif" font-size="10.00">Layer.h</text>
</a>
</g>
</g>
<!-- Node2&#45;&gt;Node8 -->
<g id="edge7_Node000002_Node000008" class="edge">
<title>Node2&#45;&gt;Node8</title>
<g id="a_edge7_Node000002_Node000008"><a xlink:title=" ">
<path fill="none" stroke="#63b8ff" d="M126.46,-167.59C111.21,-159.36 88.8,-147.26 71.17,-137.74"/>
<polygon fill="#63b8ff" stroke="#63b8ff" points="73.23,-134.87 62.76,-133.2 69.9,-141.03 73.23,-134.87"/>
</a>
</g>
</g>
<!-- Node2&#45;&gt;Node9 -->
<g id="edge12_Node000002_Node000009" class="edge">
<title>Node2&#45;&gt;Node9</title>
<g id="a_edge12_Node000002_Node000009"><a xlink:title=" ">
<path fill="none" stroke="#63b8ff" d="M161.47,-167.59C176.8,-159.4 199.3,-147.37 217.06,-137.87"/>
<polygon fill="#63b8ff" stroke="#63b8ff" points="218.64,-140.99 225.81,-133.19 215.34,-134.82 218.64,-140.99"/>
</a>
</g>
</g>
<!-- Node10 -->
<g id="Node000010" class="node">
<title>Node10</title>
<g id="a_Node000010"><a xlink:title=" ">
<polygon fill="#e0e0e0" stroke="#999999" points="163.88,-132 123.88,-132 123.88,-112 163.88,-112 163.88,-132"/>
<text xml:space="preserve" text-anchor="middle" x="143.88" y="-118.5" font-family="Helvetica,sans-Serif" font-size="10.00">string</text>
</a>
</g>
</g>
<!-- Node2&#45;&gt;Node10 -->
<g id="edge13_Node000002_Node000010" class="edge">
<title>Node2&#45;&gt;Node10</title>
<g id="a_edge13_Node000002_Node000010"><a xlink:title=" ">
<path fill="none" stroke="#63b8ff" d="M143.88,-167.59C143.88,-161.01 143.88,-151.96 143.88,-143.73"/>
<polygon fill="#63b8ff" stroke="#63b8ff" points="147.38,-143.81 143.88,-133.81 140.38,-143.81 147.38,-143.81"/>
</a>
</g>
</g>
<!-- Node3&#45;&gt;Node4 -->
<g id="edge3_Node000003_Node000004" class="edge">
<title>Node3&#45;&gt;Node4</title>
<g id="a_edge3_Node000003_Node000004"><a xlink:title=" ">
<path fill="none" stroke="#63b8ff" d="M113.29,-55.59C124.48,-47.74 140.69,-36.38 153.94,-27.09"/>
<polygon fill="#63b8ff" stroke="#63b8ff" points="155.94,-29.96 162.12,-21.35 151.92,-24.22 155.94,-29.96"/>
</a>
</g>
</g>
<!-- Node3&#45;&gt;Node5 -->
<g id="edge4_Node000003_Node000005" class="edge">
<title>Node3&#45;&gt;Node5</title>
<g id="a_edge4_Node000003_Node000005"><a xlink:title=" ">
<path fill="none" stroke="#63b8ff" d="M87.86,-55.59C77.86,-47.77 63.41,-36.46 51.57,-27.19"/>
<polygon fill="#63b8ff" stroke="#63b8ff" points="53.98,-24.64 43.95,-21.23 49.67,-30.15 53.98,-24.64"/>
</a>
</g>
</g>
<!-- Node6 -->
<g id="Node000006" class="node">
<title>Node6</title>
<g id="a_Node000006"><a xlink:title=" ">
<polygon fill="#e0e0e0" stroke="#999999" points="131.63,-20 78.13,-20 78.13,0 131.63,0 131.63,-20"/>
<text xml:space="preserve" text-anchor="middle" x="104.88" y="-6.5" font-family="Helvetica,sans-Serif" font-size="10.00">iostream</text>
</a>
</g>
</g>
<!-- Node3&#45;&gt;Node6 -->
<g id="edge5_Node000003_Node000006" class="edge">
<title>Node3&#45;&gt;Node6</title>
<g id="a_edge5_Node000003_Node000006"><a xlink:title=" ">
<path fill="none" stroke="#63b8ff" d="M100.75,-55.59C101.36,-49.01 102.2,-39.96 102.96,-31.73"/>
<polygon fill="#63b8ff" stroke="#63b8ff" points="106.44,-32.09 103.88,-21.81 99.47,-31.44 106.44,-32.09"/>
</a>
</g>
</g>
<!-- Node3&#45;&gt;Node7 -->
<g id="edge6_Node000003_Node000007" class="edge">
<title>Node3&#45;&gt;Node7</title>
<g id="a_edge6_Node000003_Node000007"><a xlink:title=" ">
<path fill="none" stroke="#63b8ff" d="M126,-56.8C153.91,-48.04 198.52,-34.03 231.07,-23.81"/>
<polygon fill="#63b8ff" stroke="#63b8ff" points="232.1,-27.16 240.59,-20.82 230,-20.48 232.1,-27.16"/>
</a>
</g>
</g>
<!-- Node8&#45;&gt;Node3 -->
<g id="edge9_Node000008_Node000003" class="edge">
<title>Node8&#45;&gt;Node3</title>
<g id="a_edge9_Node000008_Node000003"><a xlink:title=" ">
<path fill="none" stroke="#63b8ff" d="M53.63,-111.59C61.5,-104.01 72.78,-93.13 82.22,-84.02"/>
<polygon fill="#63b8ff" stroke="#63b8ff" points="84.38,-86.81 89.14,-77.35 79.52,-81.77 84.38,-86.81"/>
</a>
</g>
</g>
<!-- Node8&#45;&gt;Node5 -->
<g id="edge8_Node000008_Node000005" class="edge">
<title>Node8&#45;&gt;Node5</title>
<g id="a_edge8_Node000008_Node000005"><a xlink:title=" ">
<path fill="none" stroke="#63b8ff" d="M42.77,-111.62C40.69,-94.01 36.15,-55.59 33.32,-31.65"/>
<polygon fill="#63b8ff" stroke="#63b8ff" points="36.81,-31.38 32.16,-21.86 29.86,-32.2 36.81,-31.38"/>
</a>
</g>
</g>
</g>
</svg>
