<?xml version="1.0" encoding="UTF-8" standalone="no"?>
<!DOCTYPE svg PUBLIC "-//W3C//DTD SVG 1.1//EN"
 "http://www.w3.org/Graphics/SVG/1.1/DTD/svg11.dtd">
<!-- Generated by graphviz version 14.0.2 (20251019.1705)
 -->
<!-- Title: Neural_Network/Include/NeuralNetwork.h Pages: 1 -->
<svg width="349pt" height="176pt"
 viewBox="0.00 0.00 349.00 176.00" xmlns="http://www.w3.org/2000/svg" xmlns:xlink="http://www.w3.org/1999/xlink">
<g id="graph0" class="graph" transform="scale(1 1) rotate(0) translate(4 172)">
<title>Neural_Network/Include/NeuralNetwork.h</title>
<!-- Node1 -->
<g id="Node000001" class="node">
<title>Node1</title>
<g id="a_Node000001"><a xlink:title="Fully&#45;connected feedforward neural network class.">
<polygon fill="#999999" stroke="#666666" points="268.25,-168 147.25,-168 147.25,-136 268.25,-136 268.25,-168"/>
<text xml:space="preserve" text-anchor="start" x="155.25" y="-154.5" font-family="Helvetica,sans-Serif" font-size="10.00">Neural_Network/Include</text>
<text xml:space="preserve" text-anchor="middle" x="207.75" y="-142.5" font-family="Helvetica,sans-Serif" font-size="10.00">/NeuralNetwork.h</text>
</a>
</g>
</g>
<!-- Node2 -->
<g id="Node000002" class="node">
<title>Node2</title>
<g id="a_Node000002"><a xlink:href="_large___tic___tac___toe_8h.html" target="_top" xlink:title=" ">
<polygon fill="white" stroke="#666666" points="202.25,-100 69.25,-100 69.25,-68 202.25,-68 202.25,-100"/>
<text xml:space="preserve" text-anchor="start" x="77.25" y="-86.5" font-family="Helvetica,sans-Serif" font-size="10.00">Games/Large_Tic_Tac</text>
<text xml:space="preserve" text-anchor="middle" x="135.75" y="-74.5" font-family="Helvetica,sans-Serif" font-size="10.00">_Toe/Large_Tic_Tac_Toe.h</text>
</a>
</g>
</g>
<!-- Node1&#45;&gt;Node2 -->
<g id="edge1_Node000001_Node000002" class="edge">
<title>Node1&#45;&gt;Node2</title>
<g id="a_edge1_Node000001_Node000002"><a xlink:title=" ">
<path fill="none" stroke="#63b8ff" d="M182.65,-127.99C172.62,-118.79 161.34,-108.46 152.36,-100.22"/>
<polygon fill="#63b8ff" stroke="#63b8ff" points="180.2,-130.49 189.94,-134.67 184.93,-125.33 180.2,-130.49"/>
</a>
</g>
</g>
<!-- Node5 -->
<g id="Node000005" class="node">
<title>Node5</title>
<g id="a_Node000005"><a xlink:href="_neural_network_8cpp.html" target="_top" xlink:title=" ">
<polygon fill="white" stroke="#666666" points="340.88,-100 220.62,-100 220.62,-68 340.88,-68 340.88,-100"/>
<text xml:space="preserve" text-anchor="start" x="228.62" y="-86.5" font-family="Helvetica,sans-Serif" font-size="10.00">Neural_Network/Source</text>
<text xml:space="preserve" text-anchor="middle" x="280.75" y="-74.5" font-family="Helvetica,sans-Serif" font-size="10.00">/NeuralNetwork.cpp</text>
</a>
</g>
</g>
<!-- Node1&#45;&gt;Node5 -->
<g id="edge4_Node000001_Node000005" class="edge">
<title>Node1&#45;&gt;Node5</title>
<g id="a_edge4_Node000001_Node000005"><a xlink:title=" ">
<path fill="none" stroke="#63b8ff" d="M233.14,-128.05C243.23,-118.92 254.57,-108.67 263.66,-100.45"/>
<polygon fill="#63b8ff" stroke="#63b8ff" points="230.87,-125.37 225.8,-134.68 235.57,-130.57 230.87,-125.37"/>
</a>
</g>
</g>
<!-- Node3 -->
<g id="Node000003" class="node">
<title>Node3</title>
<g id="a_Node000003"><a xlink:href="_large___tic___tac___toe_8cpp.html" target="_top" xlink:title=" ">
<polygon fill="white" stroke="#666666" points="143.5,-32 0,-32 0,0 143.5,0 143.5,-32"/>
<text xml:space="preserve" text-anchor="start" x="8" y="-18.5" font-family="Helvetica,sans-Serif" font-size="10.00">Games/Large_Tic_Tac</text>
<text xml:space="preserve" text-anchor="middle" x="71.75" y="-6.5" font-family="Helvetica,sans-Serif" font-size="10.00">_Toe/Large_Tic_Tac_Toe.cpp</text>
</a>
</g>
</g>
<!-- Node2&#45;&gt;Node3 -->
<g id="edge2_Node000002_Node000003" class="edge">
<title>Node2&#45;&gt;Node3</title>
<g id="a_edge2_Node000002_Node000003"><a xlink:title=" ">
<path fill="none" stroke="#63b8ff" d="M112.89,-59.43C104.12,-50.38 94.34,-40.29 86.51,-32.22"/>
<polygon fill="#63b8ff" stroke="#63b8ff" points="110.38,-61.86 119.85,-66.61 115.4,-56.99 110.38,-61.86"/>
</a>
</g>
</g>
<!-- Node4 -->
<g id="Node000004" class="node">
<title>Node4</title>
<g id="a_Node000004"><a xlink:href="_the_game_8cpp.html" target="_top" xlink:title=" ">
<polygon fill="white" stroke="#666666" points="239.5,-26 162,-26 162,-6 239.5,-6 239.5,-26"/>
<text xml:space="preserve" text-anchor="middle" x="200.75" y="-12.5" font-family="Helvetica,sans-Serif" font-size="10.00">TheGame.cpp</text>
</a>
</g>
</g>
<!-- Node2&#45;&gt;Node4 -->
<g id="edge3_Node000002_Node000004" class="edge">
<title>Node2&#45;&gt;Node4</title>
<g id="a_edge3_Node000002_Node000004"><a xlink:title=" ">
<path fill="none" stroke="#63b8ff" d="M158.69,-59.71C170.02,-48.2 183.06,-34.97 191.57,-26.32"/>
<polygon fill="#63b8ff" stroke="#63b8ff" points="156.41,-57.03 151.89,-66.61 161.4,-61.95 156.41,-57.03"/>
</a>
</g>
</g>
</g>
</svg>
