<?xml version="1.0" encoding="UTF-8" standalone="no"?>
<!DOCTYPE svg PUBLIC "-//W3C//DTD SVG 1.1//EN"
 "http://www.w3.org/Graphics/SVG/1.1/DTD/svg11.dtd">
<!-- Generated by graphviz version 14.0.2 (20251019.1705)
 -->
<!-- Title: Neural_Network/Source/NeuralNetwork.cpp Pages: 1 -->
<svg width="375pt" height="264pt"
 viewBox="0.00 0.00 375.00 264.00" xmlns="http://www.w3.org/2000/svg" xmlns:xlink="http://www.w3.org/1999/xlink">
<g id="graph0" class="graph" transform="scale(1 1) rotate(0) translate(4 260)">
<title>Neural_Network/Source/NeuralNetwork.cpp</title>
<!-- Node1 -->
<g id="Node000001" class="node">
<title>Node1</title>
<g id="a_Node000001"><a xlink:title=" ">
<polygon fill="#999999" stroke="#666666" points="222.62,-256 102.38,-256 102.38,-224 222.62,-224 222.62,-256"/>
<text xml:space="preserve" text-anchor="start" x="110.38" y="-242.5" font-family="Helvetica,sans-Serif" font-size="10.00">Neural_Network/Source</text>
<text xml:space="preserve" text-anchor="middle" x="162.5" y="-230.5" font-family="Helvetica,sans-Serif" font-size="10.00">/NeuralNetwork.cpp</text>
</a>
</g>
</g>
<!-- Node2 -->
<g id="Node000002" class="node">
<title>Node2</title>
<g id="a_Node000002"><a xlink:href="_neural_network_8h.html" target="_top" xlink:title="Fully&#45;connected feedforward neural network class.">
<polygon fill="white" stroke="#666666" points="229,-188 96,-188 96,-168 229,-168 229,-188"/>
<text xml:space="preserve" text-anchor="middle" x="162.5" y="-174.5" font-family="Helvetica,sans-Serif" font-size="10.00">../Include/NeuralNetwork.h</text>
</a>
</g>
</g>
<!-- Node1&#45;&gt;Node2 -->
<g id="edge1_Node000001_Node000002" class="edge">
<title>Node1&#45;&gt;Node2</title>
<g id="a_edge1_Node000001_Node000002"><a xlink:title=" ">
<path fill="none" stroke="#63b8ff" d="M162.5,-223.55C162.5,-216.34 162.5,-207.66 162.5,-199.88"/>
<polygon fill="#63b8ff" stroke="#63b8ff" points="166,-199.92 162.5,-189.92 159,-199.92 166,-199.92"/>
</a>
</g>
</g>
<!-- Node7 -->
<g id="Node000007" class="node">
<title>Node7</title>
<g id="a_Node000007"><a xlink:title=" ">
<polygon fill="#e0e0e0" stroke="#999999" points="366.88,-20 308.12,-20 308.12,0 366.88,0 366.88,-20"/>
<text xml:space="preserve" text-anchor="middle" x="337.5" y="-6.5" font-family="Helvetica,sans-Serif" font-size="10.00">stdexcept</text>
</a>
</g>
</g>
<!-- Node1&#45;&gt;Node7 -->
<g id="edge15_Node000001_Node000007" class="edge">
<title>Node1&#45;&gt;Node7</title>
<g id="a_edge15_Node000001_Node000007"><a xlink:title=" ">
<path fill="none" stroke="#63b8ff" d="M192,-223.64C207.19,-214.7 225.25,-202.37 238.5,-188 283.55,-139.14 315.99,-66.11 329.92,-31.11"/>
<polygon fill="#63b8ff" stroke="#63b8ff" points="333.17,-32.42 333.52,-21.83 326.64,-29.89 333.17,-32.42"/>
</a>
</g>
</g>
<!-- Node9 -->
<g id="Node000009" class="node">
<title>Node9</title>
<g id="a_Node000009"><a xlink:title=" ">
<polygon fill="#e0e0e0" stroke="#999999" points="49,-76 0,-76 0,-56 49,-56 49,-76"/>
<text xml:space="preserve" text-anchor="middle" x="24.5" y="-62.5" font-family="Helvetica,sans-Serif" font-size="10.00">fstream</text>
</a>
</g>
</g>
<!-- Node1&#45;&gt;Node9 -->
<g id="edge16_Node000001_Node000009" class="edge">
<title>Node1&#45;&gt;Node9</title>
<g id="a_edge16_Node000001_Node000009"><a xlink:title=" ">
<path fill="none" stroke="#63b8ff" d="M128.83,-223.55C96.1,-206.43 48.51,-175.39 28.5,-132 22.11,-118.15 21.35,-100.85 22.05,-87.58"/>
<polygon fill="#63b8ff" stroke="#63b8ff" points="25.52,-88.11 22.91,-77.84 18.54,-87.5 25.52,-88.11"/>
</a>
</g>
</g>
<!-- Node3 -->
<g id="Node000003" class="node">
<title>Node3</title>
<g id="a_Node000003"><a xlink:href="_matrix_8h.html" target="_top" xlink:title="Lightweight 2D matrix class for numerical computations.">
<polygon fill="white" stroke="#666666" points="250.12,-76 198.88,-76 198.88,-56 250.12,-56 250.12,-76"/>
<text xml:space="preserve" text-anchor="middle" x="224.5" y="-62.5" font-family="Helvetica,sans-Serif" font-size="10.00">Matrix.h</text>
</a>
</g>
</g>
<!-- Node2&#45;&gt;Node3 -->
<g id="edge2_Node000002_Node000003" class="edge">
<title>Node2&#45;&gt;Node3</title>
<g id="a_edge2_Node000002_Node000003"><a xlink:title=" ">
<path fill="none" stroke="#63b8ff" d="M172.02,-167.74C180.43,-159.13 192.57,-145.61 200.5,-132 208.75,-117.83 215.02,-100.33 219.08,-87.06"/>
<polygon fill="#63b8ff" stroke="#63b8ff" points="222.36,-88.31 221.76,-77.73 215.63,-86.37 222.36,-88.31"/>
</a>
</g>
</g>
<!-- Node4 -->
<g id="Node000004" class="node">
<title>Node4</title>
<g id="a_Node000004"><a xlink:title=" ">
<polygon fill="#e0e0e0" stroke="#999999" points="290,-20 247,-20 247,0 290,0 290,-20"/>
<text xml:space="preserve" text-anchor="middle" x="268.5" y="-6.5" font-family="Helvetica,sans-Serif" font-size="10.00">vector</text>
</a>
</g>
</g>
<!-- Node2&#45;&gt;Node4 -->
<g id="edge11_Node000002_Node000004" class="edge">
<title>Node2&#45;&gt;Node4</title>
<g id="a_edge11_Node000002_Node000004"><a xlink:title=" ">
<path fill="none" stroke="#63b8ff" d="M176.91,-167.65C199.61,-151.92 242.86,-117.79 259.5,-76 265.18,-61.72 267.38,-44.44 268.18,-31.29"/>
<polygon fill="#63b8ff" stroke="#63b8ff" points="271.66,-31.81 268.54,-21.69 264.67,-31.55 271.66,-31.81"/>
</a>
</g>
</g>
<!-- Node5 -->
<g id="Node000005" class="node">
<title>Node5</title>
<g id="a_Node000005"><a xlink:title=" ">
<polygon fill="#e0e0e0" stroke="#999999" points="157.5,-20 99.5,-20 99.5,0 157.5,0 157.5,-20"/>
<text xml:space="preserve" text-anchor="middle" x="128.5" y="-6.5" font-family="Helvetica,sans-Serif" font-size="10.00">functional</text>
</a>
</g>
</g>
<!-- Node2&#45;&gt;Node5 -->
<g id="edge12_Node000002_Node000005" class="edge">
<title>Node2&#45;&gt;Node5</title>
<g id="a_edge12_Node000002_Node000005"><a xlink:title=" ">
<path fill="none" stroke="#63b8ff" d="M163.84,-167.72C165.07,-158.64 166.81,-144.4 167.5,-132 167.99,-123.12 169.13,-120.74 167.5,-112 162,-82.5 148.19,-50.51 138.58,-30.61"/>
<polygon fill="#63b8ff" stroke="#63b8ff" points="141.76,-29.15 134.17,-21.76 135.49,-32.27 141.76,-29.15"/>
</a>
</g>
</g>
<!-- Node8 -->
<g id="Node000008" class="node">
<title>Node8</title>
<g id="a_Node000008"><a xlink:href="_layer_8h.html" target="_top" xlink:title="Defines a fully&#45;connected (dense) neural network layer.">
<polygon fill="white" stroke="#666666" points="100.62,-132 52.38,-132 52.38,-112 100.62,-112 100.62,-132"/>
<text xml:space="preserve" text-anchor="middle" x="76.5" y="-118.5" font-family="Helvetica,sans-Serif" font-size="10.00">Layer.h</text>
</a>
</g>
</g>
<!-- Node2&#45;&gt;Node8 -->
<g id="edge7_Node000002_Node000008" class="edge">
<title>Node2&#45;&gt;Node8</title>
<g id="a_edge7_Node000002_Node000008"><a xlink:title=" ">
<path fill="none" stroke="#63b8ff" d="M147.52,-167.59C134.77,-159.59 116.21,-147.93 101.26,-138.54"/>
<polygon fill="#63b8ff" stroke="#63b8ff" points="103.21,-135.64 92.88,-133.28 99.49,-141.57 103.21,-135.64"/>
</a>
</g>
</g>
<!-- Node2&#45;&gt;Node9 -->
<g id="edge13_Node000002_Node000009" class="edge">
<title>Node2&#45;&gt;Node9</title>
<g id="a_edge13_Node000002_Node000009"><a xlink:title=" ">
<path fill="none" stroke="#63b8ff" d="M107.85,-167.54C85.18,-161.04 60.3,-150.15 43.5,-132 32.26,-119.85 27.63,-101.41 25.75,-87.27"/>
<polygon fill="#63b8ff" stroke="#63b8ff" points="29.27,-87.35 24.84,-77.72 22.3,-88.01 29.27,-87.35"/>
</a>
</g>
</g>
<!-- Node10 -->
<g id="Node000010" class="node">
<title>Node10</title>
<g id="a_Node000010"><a xlink:title=" ">
<polygon fill="#e0e0e0" stroke="#999999" points="158.5,-132 118.5,-132 118.5,-112 158.5,-112 158.5,-132"/>
<text xml:space="preserve" text-anchor="middle" x="138.5" y="-118.5" font-family="Helvetica,sans-Serif" font-size="10.00">string</text>
</a>
</g>
</g>
<!-- Node2&#45;&gt;Node10 -->
<g id="edge14_Node000002_Node000010" class="edge">
<title>Node2&#45;&gt;Node10</title>
<g id="a_edge14_Node000002_Node000010"><a xlink:title=" ">
<path fill="none" stroke="#63b8ff" d="M158.32,-167.59C155.26,-160.7 150.99,-151.1 147.2,-142.57"/>
<polygon fill="#63b8ff" stroke="#63b8ff" points="150.51,-141.4 143.25,-133.68 144.11,-144.24 150.51,-141.4"/>
</a>
</g>
</g>
<!-- Node3&#45;&gt;Node4 -->
<g id="edge3_Node000003_Node000004" class="edge">
<title>Node3&#45;&gt;Node4</title>
<g id="a_edge3_Node000003_Node000004"><a xlink:title=" ">
<path fill="none" stroke="#63b8ff" d="M232.16,-55.59C238.09,-48.32 246.49,-38.02 253.71,-29.15"/>
<polygon fill="#63b8ff" stroke="#63b8ff" points="256.36,-31.43 259.97,-21.47 250.94,-27.01 256.36,-31.43"/>
</a>
</g>
</g>
<!-- Node3&#45;&gt;Node5 -->
<g id="edge4_Node000003_Node000005" class="edge">
<title>Node3&#45;&gt;Node5</title>
<g id="a_edge4_Node000003_Node000005"><a xlink:title=" ">
<path fill="none" stroke="#63b8ff" d="M207.78,-55.59C193.28,-47.44 172.03,-35.48 155.18,-26"/>
<polygon fill="#63b8ff" stroke="#63b8ff" points="157.1,-23.07 146.67,-21.22 153.67,-29.17 157.1,-23.07"/>
</a>
</g>
</g>
<!-- Node6 -->
<g id="Node000006" class="node">
<title>Node6</title>
<g id="a_Node000006"><a xlink:title=" ">
<polygon fill="#e0e0e0" stroke="#999999" points="229.25,-20 175.75,-20 175.75,0 229.25,0 229.25,-20"/>
<text xml:space="preserve" text-anchor="middle" x="202.5" y="-6.5" font-family="Helvetica,sans-Serif" font-size="10.00">iostream</text>
</a>
</g>
</g>
<!-- Node3&#45;&gt;Node6 -->
<g id="edge5_Node000003_Node000006" class="edge">
<title>Node3&#45;&gt;Node6</title>
<g id="a_edge5_Node000003_Node000006"><a xlink:title=" ">
<path fill="none" stroke="#63b8ff" d="M220.67,-55.59C217.89,-48.78 214.04,-39.32 210.59,-30.86"/>
<polygon fill="#63b8ff" stroke="#63b8ff" points="213.87,-29.64 206.86,-21.7 207.39,-32.28 213.87,-29.64"/>
</a>
</g>
</g>
<!-- Node3&#45;&gt;Node7 -->
<g id="edge6_Node000003_Node000007" class="edge">
<title>Node3&#45;&gt;Node7</title>
<g id="a_edge6_Node000003_Node000007"><a xlink:title=" ">
<path fill="none" stroke="#63b8ff" d="M244.18,-55.59C261.66,-47.24 287.45,-34.92 307.5,-25.34"/>
<polygon fill="#63b8ff" stroke="#63b8ff" points="308.78,-28.6 316.3,-21.13 305.77,-22.29 308.78,-28.6"/>
</a>
</g>
</g>
<!-- Node8&#45;&gt;Node3 -->
<g id="edge10_Node000008_Node000003" class="edge">
<title>Node8&#45;&gt;Node3</title>
<g id="a_edge10_Node000008_Node000003"><a xlink:title=" ">
<path fill="none" stroke="#63b8ff" d="M100.94,-112.08C124.61,-103.45 160.79,-90.24 187.9,-80.35"/>
<polygon fill="#63b8ff" stroke="#63b8ff" points="188.91,-83.71 197.11,-76.99 186.51,-77.13 188.91,-83.71"/>
</a>
</g>
</g>
<!-- Node8&#45;&gt;Node5 -->
<g id="edge8_Node000008_Node000005" class="edge">
<title>Node8&#45;&gt;Node5</title>
<g id="a_edge8_Node000008_Node000005"><a xlink:title=" ">
<path fill="none" stroke="#63b8ff" d="M80.93,-111.62C89.38,-93.76 107.92,-54.53 119.2,-30.67"/>
<polygon fill="#63b8ff" stroke="#63b8ff" points="122.32,-32.26 123.43,-21.72 115.99,-29.27 122.32,-32.26"/>
</a>
</g>
</g>
<!-- Node8&#45;&gt;Node9 -->
<g id="edge9_Node000008_Node000009" class="edge">
<title>Node8&#45;&gt;Node9</title>
<g id="a_edge9_Node000008_Node000009"><a xlink:title=" ">
<path fill="none" stroke="#63b8ff" d="M67.44,-111.59C60.28,-104.16 50.09,-93.58 41.43,-84.58"/>
<polygon fill="#63b8ff" stroke="#63b8ff" points="43.96,-82.16 34.5,-77.39 38.92,-87.02 43.96,-82.16"/>
</a>
</g>
</g>
</g>
</svg>
