<?xml version="1.0" encoding="UTF-8" standalone="no"?>
<!DOCTYPE svg PUBLIC "-//W3C//DTD SVG 1.1//EN"
 "http://www.w3.org/Graphics/SVG/1.1/DTD/svg11.dtd">
<!-- Generated by graphviz version 14.0.2 (20251019.1705)
 -->
<!-- Title: Neural_Network/Include/NeuralNetwork.h Pages: 1 -->
<svg width="324pt" height="208pt"
 viewBox="0.00 0.00 324.00 208.00" xmlns="http://www.w3.org/2000/svg" xmlns:xlink="http://www.w3.org/1999/xlink">
<g id="graph0" class="graph" transform="scale(1 1) rotate(0) translate(4 204)">
<title>Neural_Network/Include/NeuralNetwork.h</title>
<!-- Node1 -->
<g id="Node000001" class="node">
<title>Node1</title>
<g id="a_Node000001"><a xlink:title="Fully&#45;connected feedforward neural network class.">
<polygon fill="#999999" stroke="#666666" points="228,-200 107,-200 107,-168 228,-168 228,-200"/>
<text xml:space="preserve" text-anchor="start" x="115" y="-186.5" font-family="Helvetica,sans-Serif" font-size="10.00">Neural_Network/Include</text>
<text xml:space="preserve" text-anchor="middle" x="167.5" y="-174.5" font-family="Helvetica,sans-Serif" font-size="10.00">/NeuralNetwork.h</text>
</a>
</g>
</g>
<!-- Node2 -->
<g id="Node000002" class="node">
<title>Node2</title>
<g id="a_Node000002"><a xlink:href="_matrix_8h.html" target="_top" xlink:title="Lightweight 2D matrix class for numerical computations.">
<polygon fill="white" stroke="#666666" points="113.12,-76 61.88,-76 61.88,-56 113.12,-56 113.12,-76"/>
<text xml:space="preserve" text-anchor="middle" x="87.5" y="-62.5" font-family="Helvetica,sans-Serif" font-size="10.00">Matrix.h</text>
</a>
</g>
</g>
<!-- Node1&#45;&gt;Node2 -->
<g id="edge1_Node000001_Node000002" class="edge">
<title>Node1&#45;&gt;Node2</title>
<g id="a_edge1_Node000001_Node000002"><a xlink:title=" ">
<path fill="none" stroke="#63b8ff" d="M144.31,-167.69C132.13,-158.6 117.85,-146.11 108.5,-132 99.47,-118.38 94.08,-100.58 91.02,-87.06"/>
<polygon fill="#63b8ff" stroke="#63b8ff" points="94.52,-86.69 89.13,-77.56 87.65,-88.06 94.52,-86.69"/>
</a>
</g>
</g>
<!-- Node3 -->
<g id="Node000003" class="node">
<title>Node3</title>
<g id="a_Node000003"><a xlink:title=" ">
<polygon fill="#e0e0e0" stroke="#999999" points="43,-20 0,-20 0,0 43,0 43,-20"/>
<text xml:space="preserve" text-anchor="middle" x="21.5" y="-6.5" font-family="Helvetica,sans-Serif" font-size="10.00">vector</text>
</a>
</g>
</g>
<!-- Node1&#45;&gt;Node3 -->
<g id="edge10_Node000001_Node000003" class="edge">
<title>Node1&#45;&gt;Node3</title>
<g id="a_edge10_Node000001_Node000003"><a xlink:title=" ">
<path fill="none" stroke="#63b8ff" d="M141.32,-167.6C126.69,-158.31 108.62,-145.65 94.5,-132 72.13,-110.37 68.61,-102.62 52.5,-76 43.59,-61.27 35.3,-43.59 29.53,-30.39"/>
<polygon fill="#63b8ff" stroke="#63b8ff" points="32.9,-29.35 25.76,-21.52 26.46,-32.09 32.9,-29.35"/>
</a>
</g>
</g>
<!-- Node4 -->
<g id="Node000004" class="node">
<title>Node4</title>
<g id="a_Node000004"><a xlink:title=" ">
<polygon fill="#e0e0e0" stroke="#999999" points="266.5,-20 208.5,-20 208.5,0 266.5,0 266.5,-20"/>
<text xml:space="preserve" text-anchor="middle" x="237.5" y="-6.5" font-family="Helvetica,sans-Serif" font-size="10.00">functional</text>
</a>
</g>
</g>
<!-- Node1&#45;&gt;Node4 -->
<g id="edge11_Node000001_Node000004" class="edge">
<title>Node1&#45;&gt;Node4</title>
<g id="a_edge11_Node000001_Node000004"><a xlink:title=" ">
<path fill="none" stroke="#63b8ff" d="M178.82,-167.59C192.92,-147.57 216.59,-111.02 228.5,-76 233.4,-61.6 235.63,-44.54 236.65,-31.52"/>
<polygon fill="#63b8ff" stroke="#63b8ff" points="240.14,-31.78 237.23,-21.59 233.16,-31.37 240.14,-31.78"/>
</a>
</g>
</g>
<!-- Node7 -->
<g id="Node000007" class="node">
<title>Node7</title>
<g id="a_Node000007"><a xlink:href="_layer_8h.html" target="_top" xlink:title="Defines a fully&#45;connected (dense) neural network layer.">
<polygon fill="white" stroke="#666666" points="165.62,-132 117.38,-132 117.38,-112 165.62,-112 165.62,-132"/>
<text xml:space="preserve" text-anchor="middle" x="141.5" y="-118.5" font-family="Helvetica,sans-Serif" font-size="10.00">Layer.h</text>
</a>
</g>
</g>
<!-- Node1&#45;&gt;Node7 -->
<g id="edge6_Node000001_Node000007" class="edge">
<title>Node1&#45;&gt;Node7</title>
<g id="a_edge6_Node000001_Node000007"><a xlink:title=" ">
<path fill="none" stroke="#63b8ff" d="M160.8,-167.55C157.53,-160 153.56,-150.82 150.07,-142.77"/>
<polygon fill="#63b8ff" stroke="#63b8ff" points="153.37,-141.58 146.18,-133.8 146.94,-144.36 153.37,-141.58"/>
</a>
</g>
</g>
<!-- Node8 -->
<g id="Node000008" class="node">
<title>Node8</title>
<g id="a_Node000008"><a xlink:title=" ">
<polygon fill="#e0e0e0" stroke="#999999" points="219,-76 170,-76 170,-56 219,-56 219,-76"/>
<text xml:space="preserve" text-anchor="middle" x="194.5" y="-62.5" font-family="Helvetica,sans-Serif" font-size="10.00">fstream</text>
</a>
</g>
</g>
<!-- Node1&#45;&gt;Node8 -->
<g id="edge12_Node000001_Node000008" class="edge">
<title>Node1&#45;&gt;Node8</title>
<g id="a_edge12_Node000001_Node000008"><a xlink:title=" ">
<path fill="none" stroke="#63b8ff" d="M171.03,-167.84C175.81,-147.32 184.34,-110.63 189.7,-87.62"/>
<polygon fill="#63b8ff" stroke="#63b8ff" points="193.1,-88.44 191.96,-77.91 186.28,-86.86 193.1,-88.44"/>
</a>
</g>
</g>
<!-- Node9 -->
<g id="Node000009" class="node">
<title>Node9</title>
<g id="a_Node000009"><a xlink:title=" ">
<polygon fill="#e0e0e0" stroke="#999999" points="315.5,-132 275.5,-132 275.5,-112 315.5,-112 315.5,-132"/>
<text xml:space="preserve" text-anchor="middle" x="295.5" y="-118.5" font-family="Helvetica,sans-Serif" font-size="10.00">string</text>
</a>
</g>
</g>
<!-- Node1&#45;&gt;Node9 -->
<g id="edge13_Node000001_Node000009" class="edge">
<title>Node1&#45;&gt;Node9</title>
<g id="a_edge13_Node000001_Node000009"><a xlink:title=" ">
<path fill="none" stroke="#63b8ff" d="M200.46,-167.55C220.37,-158.22 245.56,-146.41 265.01,-137.29"/>
<polygon fill="#63b8ff" stroke="#63b8ff" points="266.49,-140.46 274.06,-133.05 263.52,-134.13 266.49,-140.46"/>
</a>
</g>
</g>
<!-- Node2&#45;&gt;Node3 -->
<g id="edge2_Node000002_Node000003" class="edge">
<title>Node2&#45;&gt;Node3</title>
<g id="a_edge2_Node000002_Node000003"><a xlink:title=" ">
<path fill="none" stroke="#63b8ff" d="M76,-55.59C66.54,-47.85 52.9,-36.69 41.63,-27.47"/>
<polygon fill="#63b8ff" stroke="#63b8ff" points="43.99,-24.88 34.04,-21.26 39.56,-30.3 43.99,-24.88"/>
</a>
</g>
</g>
<!-- Node2&#45;&gt;Node4 -->
<g id="edge3_Node000002_Node000004" class="edge">
<title>Node2&#45;&gt;Node4</title>
<g id="a_edge3_Node000002_Node000004"><a xlink:title=" ">
<path fill="none" stroke="#63b8ff" d="M113.29,-55.72C137.36,-47.05 173.55,-34.02 200.66,-24.26"/>
<polygon fill="#63b8ff" stroke="#63b8ff" points="201.65,-27.63 209.87,-20.95 199.28,-21.04 201.65,-27.63"/>
</a>
</g>
</g>
<!-- Node5 -->
<g id="Node000005" class="node">
<title>Node5</title>
<g id="a_Node000005"><a xlink:title=" ">
<polygon fill="#e0e0e0" stroke="#999999" points="114.25,-20 60.75,-20 60.75,0 114.25,0 114.25,-20"/>
<text xml:space="preserve" text-anchor="middle" x="87.5" y="-6.5" font-family="Helvetica,sans-Serif" font-size="10.00">iostream</text>
</a>
</g>
</g>
<!-- Node2&#45;&gt;Node5 -->
<g id="edge4_Node000002_Node000005" class="edge">
<title>Node2&#45;&gt;Node5</title>
<g id="a_edge4_Node000002_Node000005"><a xlink:title=" ">
<path fill="none" stroke="#63b8ff" d="M87.5,-55.59C87.5,-49.01 87.5,-39.96 87.5,-31.73"/>
<polygon fill="#63b8ff" stroke="#63b8ff" points="91,-31.81 87.5,-21.81 84,-31.81 91,-31.81"/>
</a>
</g>
</g>
<!-- Node6 -->
<g id="Node000006" class="node">
<title>Node6</title>
<g id="a_Node000006"><a xlink:title=" ">
<polygon fill="#e0e0e0" stroke="#999999" points="190.88,-20 132.12,-20 132.12,0 190.88,0 190.88,-20"/>
<text xml:space="preserve" text-anchor="middle" x="161.5" y="-6.5" font-family="Helvetica,sans-Serif" font-size="10.00">stdexcept</text>
</a>
</g>
</g>
<!-- Node2&#45;&gt;Node6 -->
<g id="edge5_Node000002_Node000006" class="edge">
<title>Node2&#45;&gt;Node6</title>
<g id="a_edge5_Node000002_Node000006"><a xlink:title=" ">
<path fill="none" stroke="#63b8ff" d="M100.39,-55.59C111.21,-47.7 126.91,-36.24 139.69,-26.92"/>
<polygon fill="#63b8ff" stroke="#63b8ff" points="141.52,-29.91 147.54,-21.19 137.39,-24.26 141.52,-29.91"/>
</a>
</g>
</g>
<!-- Node7&#45;&gt;Node2 -->
<g id="edge9_Node000007_Node000002" class="edge">
<title>Node7&#45;&gt;Node2</title>
<g id="a_edge9_Node000007_Node000002"><a xlink:title=" ">
<path fill="none" stroke="#63b8ff" d="M132.09,-111.59C124.58,-104.08 113.85,-93.35 104.8,-84.3"/>
<polygon fill="#63b8ff" stroke="#63b8ff" points="107.41,-81.96 97.87,-77.37 102.46,-86.91 107.41,-81.96"/>
</a>
</g>
</g>
<!-- Node7&#45;&gt;Node4 -->
<g id="edge7_Node000007_Node000004" class="edge">
<title>Node7&#45;&gt;Node4</title>
<g id="a_edge7_Node000007_Node000004"><a xlink:title=" ">
<path fill="none" stroke="#63b8ff" d="M142.26,-111.63C143.8,-98.05 148.35,-72.69 161.5,-56 171.96,-42.72 187.51,-32.54 201.82,-25.24"/>
<polygon fill="#63b8ff" stroke="#63b8ff" points="203.03,-28.54 210.56,-21.08 200.03,-22.21 203.03,-28.54"/>
</a>
</g>
</g>
<!-- Node7&#45;&gt;Node8 -->
<g id="edge8_Node000007_Node000008" class="edge">
<title>Node7&#45;&gt;Node8</title>
<g id="a_edge8_Node000007_Node000008"><a xlink:title=" ">
<path fill="none" stroke="#63b8ff" d="M150.73,-111.59C158.1,-104.08 168.63,-93.35 177.52,-84.3"/>
<polygon fill="#63b8ff" stroke="#63b8ff" points="179.81,-86.97 184.31,-77.38 174.81,-82.06 179.81,-86.97"/>
</a>
</g>
</g>
</g>
</svg>
