<?xml version="1.0" encoding="UTF-8" standalone="no"?>
<!DOCTYPE svg PUBLIC "-//W3C//DTD SVG 1.1//EN"
 "http://www.w3.org/Graphics/SVG/1.1/DTD/svg11.dtd">
<!-- Generated by graphviz version 14.0.2 (20251019.1705)
 -->
<!-- Title: Neural_Network/Include/NeuralNetwork.h Pages: 1 -->
<svg width="382pt" height="208pt"
 viewBox="0.00 0.00 382.00 208.00" xmlns="http://www.w3.org/2000/svg" xmlns:xlink="http://www.w3.org/1999/xlink">
<g id="graph0" class="graph" transform="scale(1 1) rotate(0) translate(4 204)">
<title>Neural_Network/Include/NeuralNetwork.h</title>
<!-- Node1 -->
<g id="Node000001" class="node">
<title>Node1</title>
<g id="a_Node000001"><a xlink:title=" ">
<polygon fill="#999999" stroke="#666666" points="272,-200 151,-200 151,-168 272,-168 272,-200"/>
<text xml:space="preserve" text-anchor="start" x="159" y="-186.5" font-family="Helvetica,sans-Serif" font-size="10.00">Neural_Network/Include</text>
<text xml:space="preserve" text-anchor="middle" x="211.5" y="-174.5" font-family="Helvetica,sans-Serif" font-size="10.00">/NeuralNetwork.h</text>
</a>
</g>
</g>
<!-- Node2 -->
<g id="Node000002" class="node">
<title>Node2</title>
<g id="a_Node000002"><a xlink:href="$_matrix_8h.html" xlink:title=" ">
<polygon fill="white" stroke="#666666" points="165.12,-76 113.88,-76 113.88,-56 165.12,-56 165.12,-76"/>
<text xml:space="preserve" text-anchor="middle" x="139.5" y="-62.5" font-family="Helvetica,sans-Serif" font-size="10.00">Matrix.h</text>
</a>
</g>
</g>
<!-- Node1&#45;&gt;Node2 -->
<g id="edge1_Node000001_Node000002" class="edge">
<title>Node1&#45;&gt;Node2</title>
<g id="a_edge1_Node000001_Node000002"><a xlink:title=" ">
<path fill="none" stroke="#63b8ff" d="M187.06,-167.66C174.83,-158.72 160.89,-146.39 152.5,-132 144.68,-118.59 141.49,-101.26 140.23,-87.87"/>
<polygon fill="#63b8ff" stroke="#63b8ff" points="143.73,-87.77 139.61,-78.01 136.74,-88.21 143.73,-87.77"/>
</a>
</g>
</g>
<!-- Node3 -->
<g id="Node000003" class="node">
<title>Node3</title>
<g id="a_Node000003"><a xlink:title=" ">
<polygon fill="#e0e0e0" stroke="#999999" points="43,-20 0,-20 0,0 43,0 43,-20"/>
<text xml:space="preserve" text-anchor="middle" x="21.5" y="-6.5" font-family="Helvetica,sans-Serif" font-size="10.00">vector</text>
</a>
</g>
</g>
<!-- Node1&#45;&gt;Node3 -->
<g id="edge9_Node000001_Node000003" class="edge">
<title>Node1&#45;&gt;Node3</title>
<g id="a_edge9_Node000001_Node000003"><a xlink:title=" ">
<path fill="none" stroke="#63b8ff" d="M188.05,-167.65C173.84,-157.99 155.6,-144.93 140.5,-132 100.82,-98.01 59.01,-53.04 37.06,-28.62"/>
<polygon fill="#63b8ff" stroke="#63b8ff" points="39.94,-26.6 30.67,-21.46 34.72,-31.26 39.94,-26.6"/>
</a>
</g>
</g>
<!-- Node4 -->
<g id="Node000004" class="node">
<title>Node4</title>
<g id="a_Node000004"><a xlink:title=" ">
<polygon fill="#e0e0e0" stroke="#999999" points="266.5,-20 208.5,-20 208.5,0 266.5,0 266.5,-20"/>
<text xml:space="preserve" text-anchor="middle" x="237.5" y="-6.5" font-family="Helvetica,sans-Serif" font-size="10.00">functional</text>
</a>
</g>
</g>
<!-- Node1&#45;&gt;Node4 -->
<g id="edge10_Node000001_Node000004" class="edge">
<title>Node1&#45;&gt;Node4</title>
<g id="a_edge10_Node000001_Node000004"><a xlink:title=" ">
<path fill="none" stroke="#63b8ff" d="M213.81,-167.74C218.5,-136.69 229.16,-66.18 234.43,-31.31"/>
<polygon fill="#63b8ff" stroke="#63b8ff" points="237.85,-32.12 235.88,-21.71 230.93,-31.07 237.85,-32.12"/>
</a>
</g>
</g>
<!-- Node7 -->
<g id="Node000007" class="node">
<title>Node7</title>
<g id="a_Node000007"><a xlink:href="$_layer_8h.html" xlink:title=" ">
<polygon fill="white" stroke="#666666" points="209.62,-132 161.38,-132 161.38,-112 209.62,-112 209.62,-132"/>
<text xml:space="preserve" text-anchor="middle" x="185.5" y="-118.5" font-family="Helvetica,sans-Serif" font-size="10.00">Layer.h</text>
</a>
</g>
</g>
<!-- Node1&#45;&gt;Node7 -->
<g id="edge6_Node000001_Node000007" class="edge">
<title>Node1&#45;&gt;Node7</title>
<g id="a_edge6_Node000001_Node000007"><a xlink:title=" ">
<path fill="none" stroke="#63b8ff" d="M204.8,-167.55C201.53,-160 197.56,-150.82 194.07,-142.77"/>
<polygon fill="#63b8ff" stroke="#63b8ff" points="197.37,-141.58 190.18,-133.8 190.94,-144.36 197.37,-141.58"/>
</a>
</g>
</g>
<!-- Node8 -->
<g id="Node000008" class="node">
<title>Node8</title>
<g id="a_Node000008"><a xlink:title=" ">
<polygon fill="#e0e0e0" stroke="#999999" points="315,-132 266,-132 266,-112 315,-112 315,-132"/>
<text xml:space="preserve" text-anchor="middle" x="290.5" y="-118.5" font-family="Helvetica,sans-Serif" font-size="10.00">fstream</text>
</a>
</g>
</g>
<!-- Node1&#45;&gt;Node8 -->
<g id="edge11_Node000001_Node000008" class="edge">
<title>Node1&#45;&gt;Node8</title>
<g id="a_edge11_Node000001_Node000008"><a xlink:title=" ">
<path fill="none" stroke="#63b8ff" d="M231.84,-167.55C243.27,-158.87 257.53,-148.04 269.12,-139.24"/>
<polygon fill="#63b8ff" stroke="#63b8ff" points="271.06,-142.16 276.91,-133.32 266.83,-136.58 271.06,-142.16"/>
</a>
</g>
</g>
<!-- Node9 -->
<g id="Node000009" class="node">
<title>Node9</title>
<g id="a_Node000009"><a xlink:title=" ">
<polygon fill="#e0e0e0" stroke="#999999" points="373.5,-132 333.5,-132 333.5,-112 373.5,-112 373.5,-132"/>
<text xml:space="preserve" text-anchor="middle" x="353.5" y="-118.5" font-family="Helvetica,sans-Serif" font-size="10.00">string</text>
</a>
</g>
</g>
<!-- Node1&#45;&gt;Node9 -->
<g id="edge12_Node000001_Node000009" class="edge">
<title>Node1&#45;&gt;Node9</title>
<g id="a_edge12_Node000001_Node000009"><a xlink:title=" ">
<path fill="none" stroke="#63b8ff" d="M248.07,-167.55C271.27,-157.75 300.94,-145.21 322.89,-135.93"/>
<polygon fill="#63b8ff" stroke="#63b8ff" points="324.04,-139.25 331.89,-132.13 321.32,-132.8 324.04,-139.25"/>
</a>
</g>
</g>
<!-- Node2&#45;&gt;Node3 -->
<g id="edge2_Node000002_Node000003" class="edge">
<title>Node2&#45;&gt;Node3</title>
<g id="a_edge2_Node000002_Node000003"><a xlink:title=" ">
<path fill="none" stroke="#63b8ff" d="M118.95,-55.59C100.62,-47.21 73.51,-34.8 52.54,-25.21"/>
<polygon fill="#63b8ff" stroke="#63b8ff" points="54.14,-22.09 43.59,-21.11 51.23,-28.45 54.14,-22.09"/>
</a>
</g>
</g>
<!-- Node2&#45;&gt;Node4 -->
<g id="edge3_Node000002_Node000004" class="edge">
<title>Node2&#45;&gt;Node4</title>
<g id="a_edge3_Node000002_Node000004"><a xlink:title=" ">
<path fill="none" stroke="#63b8ff" d="M156.57,-55.59C171.38,-47.44 193.07,-35.48 210.27,-26"/>
<polygon fill="#63b8ff" stroke="#63b8ff" points="211.9,-29.1 218.97,-21.21 208.52,-22.97 211.9,-29.1"/>
</a>
</g>
</g>
<!-- Node5 -->
<g id="Node000005" class="node">
<title>Node5</title>
<g id="a_Node000005"><a xlink:title=" ">
<polygon fill="#e0e0e0" stroke="#999999" points="114.25,-20 60.75,-20 60.75,0 114.25,0 114.25,-20"/>
<text xml:space="preserve" text-anchor="middle" x="87.5" y="-6.5" font-family="Helvetica,sans-Serif" font-size="10.00">iostream</text>
</a>
</g>
</g>
<!-- Node2&#45;&gt;Node5 -->
<g id="edge4_Node000002_Node000005" class="edge">
<title>Node2&#45;&gt;Node5</title>
<g id="a_edge4_Node000002_Node000005"><a xlink:title=" ">
<path fill="none" stroke="#63b8ff" d="M130.44,-55.59C123.28,-48.16 113.09,-37.58 104.43,-28.58"/>
<polygon fill="#63b8ff" stroke="#63b8ff" points="106.96,-26.16 97.5,-21.39 101.92,-31.02 106.96,-26.16"/>
</a>
</g>
</g>
<!-- Node6 -->
<g id="Node000006" class="node">
<title>Node6</title>
<g id="a_Node000006"><a xlink:title=" ">
<polygon fill="#e0e0e0" stroke="#999999" points="190.88,-20 132.12,-20 132.12,0 190.88,0 190.88,-20"/>
<text xml:space="preserve" text-anchor="middle" x="161.5" y="-6.5" font-family="Helvetica,sans-Serif" font-size="10.00">stdexcept</text>
</a>
</g>
</g>
<!-- Node2&#45;&gt;Node6 -->
<g id="edge5_Node000002_Node000006" class="edge">
<title>Node2&#45;&gt;Node6</title>
<g id="a_edge5_Node000002_Node000006"><a xlink:title=" ">
<path fill="none" stroke="#63b8ff" d="M143.33,-55.59C146.11,-48.78 149.96,-39.32 153.41,-30.86"/>
<polygon fill="#63b8ff" stroke="#63b8ff" points="156.61,-32.28 157.14,-21.7 150.13,-29.64 156.61,-32.28"/>
</a>
</g>
</g>
<!-- Node7&#45;&gt;Node2 -->
<g id="edge8_Node000007_Node000002" class="edge">
<title>Node7&#45;&gt;Node2</title>
<g id="a_edge8_Node000007_Node000002"><a xlink:title=" ">
<path fill="none" stroke="#63b8ff" d="M177.49,-111.59C171.22,-104.24 162.33,-93.8 154.72,-84.87"/>
<polygon fill="#63b8ff" stroke="#63b8ff" points="157.55,-82.79 148.4,-77.45 152.22,-87.33 157.55,-82.79"/>
</a>
</g>
</g>
<!-- Node7&#45;&gt;Node4 -->
<g id="edge7_Node000007_Node000004" class="edge">
<title>Node7&#45;&gt;Node4</title>
<g id="a_edge7_Node000007_Node000004"><a xlink:title=" ">
<path fill="none" stroke="#63b8ff" d="M189.93,-111.62C198.38,-93.76 216.92,-54.53 228.2,-30.67"/>
<polygon fill="#63b8ff" stroke="#63b8ff" points="231.32,-32.26 232.43,-21.72 224.99,-29.27 231.32,-32.26"/>
</a>
</g>
</g>
</g>
</svg>
