<?xml version="1.0" encoding="UTF-8" standalone="no"?>
<!DOCTYPE svg PUBLIC "-//W3C//DTD SVG 1.1//EN"
 "http://www.w3.org/Graphics/SVG/1.1/DTD/svg11.dtd">
<!-- Generated by graphviz version 14.0.2 (20251019.1705)
 -->
<!-- Title: Games/Obstacles_Tic_Tac_Toe/Obstacles_Tic_Tac_Toe.h Pages: 1 -->
<svg width="228pt" height="132pt"
 viewBox="0.00 0.00 228.00 132.00" xmlns="http://www.w3.org/2000/svg" xmlns:xlink="http://www.w3.org/1999/xlink">
<g id="graph0" class="graph" transform="scale(1 1) rotate(0) translate(4 128)">
<title>Games/Obstacles_Tic_Tac_Toe/Obstacles_Tic_Tac_Toe.h</title>
<!-- Node1 -->
<g id="Node000001" class="node">
<title>Node1</title>
<g id="a_Node000001"><a xlink:title=" ">
<polygon fill="#999999" stroke="#666666" points="183,-124 59,-124 59,-80 183,-80 183,-124"/>
<text xml:space="preserve" text-anchor="start" x="67" y="-110.5" font-family="Helvetica,sans-Serif" font-size="10.00">Games/Obstacles_Tic</text>
<text xml:space="preserve" text-anchor="start" x="67" y="-98.5" font-family="Helvetica,sans-Serif" font-size="10.00">_Tac_Toe/Obstacles_Tic</text>
<text xml:space="preserve" text-anchor="middle" x="121" y="-86.5" font-family="Helvetica,sans-Serif" font-size="10.00">_Tac_Toe.h</text>
</a>
</g>
</g>
<!-- Node2 -->
<g id="Node000002" class="node">
<title>Node2</title>
<g id="a_Node000002"><a xlink:href="_obstacles___tic___tac___toe_8cpp.html" target="_top" xlink:title=" ">
<polygon fill="white" stroke="#666666" points="124,-44 0,-44 0,0 124,0 124,-44"/>
<text xml:space="preserve" text-anchor="start" x="8" y="-30.5" font-family="Helvetica,sans-Serif" font-size="10.00">Games/Obstacles_Tic</text>
<text xml:space="preserve" text-anchor="start" x="8" y="-18.5" font-family="Helvetica,sans-Serif" font-size="10.00">_Tac_Toe/Obstacles_Tic</text>
<text xml:space="preserve" text-anchor="middle" x="62" y="-6.5" font-family="Helvetica,sans-Serif" font-size="10.00">_Tac_Toe.cpp</text>
</a>
</g>
</g>
<!-- Node1&#45;&gt;Node2 -->
<g id="edge1_Node000001_Node000002" class="edge">
<title>Node1&#45;&gt;Node2</title>
<g id="a_edge1_Node000001_Node000002"><a xlink:title=" ">
<path fill="none" stroke="#63b8ff" d="M98.14,-70.78C91.45,-61.93 84.28,-52.45 78.1,-44.29"/>
<polygon fill="#63b8ff" stroke="#63b8ff" points="95.14,-72.62 103.96,-78.48 100.72,-68.39 95.14,-72.62"/>
</a>
</g>
</g>
<!-- Node3 -->
<g id="Node000003" class="node">
<title>Node3</title>
<g id="a_Node000003"><a xlink:href="_the_game_8cpp.html" target="_top" xlink:title=" ">
<polygon fill="white" stroke="#666666" points="219.75,-32 142.25,-32 142.25,-12 219.75,-12 219.75,-32"/>
<text xml:space="preserve" text-anchor="middle" x="181" y="-18.5" font-family="Helvetica,sans-Serif" font-size="10.00">TheGame.cpp</text>
</a>
</g>
</g>
<!-- Node1&#45;&gt;Node3 -->
<g id="edge2_Node000001_Node000003" class="edge">
<title>Node1&#45;&gt;Node3</title>
<g id="a_edge2_Node000001_Node000003"><a xlink:title=" ">
<path fill="none" stroke="#63b8ff" d="M144.12,-70.94C154.72,-57.17 166.52,-41.83 173.85,-32.29"/>
<polygon fill="#63b8ff" stroke="#63b8ff" points="141.64,-68.43 138.32,-78.49 147.19,-72.69 141.64,-68.43"/>
</a>
</g>
</g>
</g>
</svg>
