<?xml version="1.0" encoding="UTF-8" standalone="no"?>
<!DOCTYPE svg PUBLIC "-//W3C//DTD SVG 1.1//EN"
 "http://www.w3.org/Graphics/SVG/1.1/DTD/svg11.dtd">
<!-- Generated by graphviz version 14.0.2 (20251019.1705)
 -->
<!-- Title: Games/PyramidXO/PyramidXO.h Pages: 1 -->
<svg width="276pt" height="84pt"
 viewBox="0.00 0.00 276.00 84.00" xmlns="http://www.w3.org/2000/svg" xmlns:xlink="http://www.w3.org/1999/xlink">
<g id="graph0" class="graph" transform="scale(1 1) rotate(0) translate(4 80)">
<title>Games/PyramidXO/PyramidXO.h</title>
<!-- Node1 -->
<g id="Node000001" class="node">
<title>Node1</title>
<g id="a_Node000001"><a xlink:title=" ">
<polygon fill="#999999" stroke="#666666" points="238.5,-76 76.25,-76 76.25,-56 238.5,-56 238.5,-76"/>
<text xml:space="preserve" text-anchor="middle" x="157.38" y="-62.5" font-family="Helvetica,sans-Serif" font-size="10.00">Games/PyramidXO/PyramidXO.h</text>
</a>
</g>
</g>
<!-- Node2 -->
<g id="Node000002" class="node">
<title>Node2</title>
<g id="a_Node000002"><a xlink:href="_pyramid_x_o_8cpp.html" target="_top" xlink:title=" ">
<polygon fill="white" stroke="#666666" points="172.75,-20 0,-20 0,0 172.75,0 172.75,-20"/>
<text xml:space="preserve" text-anchor="middle" x="86.38" y="-6.5" font-family="Helvetica,sans-Serif" font-size="10.00">Games/PyramidXO/PyramidXO.cpp</text>
</a>
</g>
</g>
<!-- Node1&#45;&gt;Node2 -->
<g id="edge1_Node000001_Node000002" class="edge">
<title>Node1&#45;&gt;Node2</title>
<g id="a_edge1_Node000001_Node000002"><a xlink:title=" ">
<path fill="none" stroke="#63b8ff" d="M135.92,-48.68C123.7,-39.39 108.84,-28.09 98.6,-20.3"/>
<polygon fill="#63b8ff" stroke="#63b8ff" points="133.72,-51.41 143.8,-54.68 137.96,-45.84 133.72,-51.41"/>
</a>
</g>
</g>
<!-- Node3 -->
<g id="Node000003" class="node">
<title>Node3</title>
<g id="a_Node000003"><a xlink:href="_the_game_8cpp.html" target="_top" xlink:title=" ">
<polygon fill="white" stroke="#666666" points="268.12,-20 190.62,-20 190.62,0 268.12,0 268.12,-20"/>
<text xml:space="preserve" text-anchor="middle" x="229.38" y="-6.5" font-family="Helvetica,sans-Serif" font-size="10.00">TheGame.cpp</text>
</a>
</g>
</g>
<!-- Node1&#45;&gt;Node3 -->
<g id="edge2_Node000001_Node000003" class="edge">
<title>Node1&#45;&gt;Node3</title>
<g id="a_edge2_Node000001_Node000003"><a xlink:title=" ">
<path fill="none" stroke="#63b8ff" d="M178.77,-48.95C191.22,-39.61 206.49,-28.16 216.98,-20.3"/>
<polygon fill="#63b8ff" stroke="#63b8ff" points="177.03,-45.89 171.13,-54.69 181.23,-51.49 177.03,-45.89"/>
</a>
</g>
</g>
</g>
</svg>
