<?xml version="1.0" encoding="UTF-8" standalone="no"?>
<!DOCTYPE svg PUBLIC "-//W3C//DTD SVG 1.1//EN"
 "http://www.w3.org/Graphics/SVG/1.1/DTD/svg11.dtd">
<!-- Generated by graphviz version 14.0.2 (20251019.1705)
 -->
<!-- Title: Games/PyramidXO/PyramidXO.cpp Pages: 1 -->
<svg width="278pt" height="264pt"
 viewBox="0.00 0.00 278.00 264.00" xmlns="http://www.w3.org/2000/svg" xmlns:xlink="http://www.w3.org/1999/xlink">
<g id="graph0" class="graph" transform="scale(1 1) rotate(0) translate(4 260)">
<title>Games/PyramidXO/PyramidXO.cpp</title>
<!-- Node1 -->
<g id="Node000001" class="node">
<title>Node1</title>
<g id="a_Node000001"><a xlink:title=" ">
<polygon fill="#999999" stroke="#666666" points="217.38,-256 44.62,-256 44.62,-236 217.38,-236 217.38,-256"/>
<text xml:space="preserve" text-anchor="middle" x="131" y="-242.5" font-family="Helvetica,sans-Serif" font-size="10.00">Games/PyramidXO/PyramidXO.cpp</text>
</a>
</g>
</g>
<!-- Node2 -->
<g id="Node000002" class="node">
<title>Node2</title>
<g id="a_Node000002"><a xlink:href="_pyramid_x_o_8h.html" target="_top" xlink:title="Pyramid XO game classes.">
<polygon fill="white" stroke="#666666" points="168.25,-200 93.75,-200 93.75,-180 168.25,-180 168.25,-200"/>
<text xml:space="preserve" text-anchor="middle" x="131" y="-186.5" font-family="Helvetica,sans-Serif" font-size="10.00">PyramidXO.h</text>
</a>
</g>
</g>
<!-- Node1&#45;&gt;Node2 -->
<g id="edge1_Node000001_Node000002" class="edge">
<title>Node1&#45;&gt;Node2</title>
<g id="a_edge1_Node000001_Node000002"><a xlink:title=" ">
<path fill="none" stroke="#63b8ff" d="M131,-235.59C131,-229.01 131,-219.96 131,-211.73"/>
<polygon fill="#63b8ff" stroke="#63b8ff" points="134.5,-211.81 131,-201.81 127.5,-211.81 134.5,-211.81"/>
</a>
</g>
</g>
<!-- Node4 -->
<g id="Node000004" class="node">
<title>Node4</title>
<g id="a_Node000004"><a xlink:title=" ">
<polygon fill="#e0e0e0" stroke="#999999" points="40,-20 0,-20 0,0 40,0 40,-20"/>
<text xml:space="preserve" text-anchor="middle" x="20" y="-6.5" font-family="Helvetica,sans-Serif" font-size="10.00">string</text>
</a>
</g>
</g>
<!-- Node1&#45;&gt;Node4 -->
<g id="edge11_Node000001_Node000004" class="edge">
<title>Node1&#45;&gt;Node4</title>
<g id="a_edge11_Node000001_Node000004"><a xlink:title=" ">
<path fill="none" stroke="#63b8ff" d="M112.63,-235.61C99.19,-227.82 81.52,-215.52 71,-200 34.68,-146.39 24.17,-67.88 21.17,-31.24"/>
<polygon fill="#63b8ff" stroke="#63b8ff" points="24.69,-31.37 20.5,-21.64 17.71,-31.86 24.69,-31.37"/>
</a>
</g>
</g>
<!-- Node5 -->
<g id="Node000005" class="node">
<title>Node5</title>
<g id="a_Node000005"><a xlink:title=" ">
<polygon fill="#e0e0e0" stroke="#999999" points="102.5,-20 59.5,-20 59.5,0 102.5,0 102.5,-20"/>
<text xml:space="preserve" text-anchor="middle" x="81" y="-6.5" font-family="Helvetica,sans-Serif" font-size="10.00">vector</text>
</a>
</g>
</g>
<!-- Node1&#45;&gt;Node5 -->
<g id="edge10_Node000001_Node000005" class="edge">
<title>Node1&#45;&gt;Node5</title>
<g id="a_edge10_Node000001_Node000005"><a xlink:title=" ">
<path fill="none" stroke="#63b8ff" d="M117.44,-235.55C106.84,-227.4 92.67,-214.65 85,-200 55.06,-142.81 55.66,-119.72 66,-56 67.35,-47.68 70.02,-38.82 72.74,-31.18"/>
<polygon fill="#63b8ff" stroke="#63b8ff" points="76,-32.43 76.32,-21.84 69.47,-29.92 76,-32.43"/>
</a>
</g>
</g>
<!-- Node6 -->
<g id="Node000006" class="node">
<title>Node6</title>
<g id="a_Node000006"><a xlink:title=" ">
<polygon fill="#e0e0e0" stroke="#999999" points="174.75,-20 121.25,-20 121.25,0 174.75,0 174.75,-20"/>
<text xml:space="preserve" text-anchor="middle" x="148" y="-6.5" font-family="Helvetica,sans-Serif" font-size="10.00">iostream</text>
</a>
</g>
</g>
<!-- Node1&#45;&gt;Node6 -->
<g id="edge9_Node000001_Node000006" class="edge">
<title>Node1&#45;&gt;Node6</title>
<g id="a_edge9_Node000001_Node000006"><a xlink:title=" ">
<path fill="none" stroke="#63b8ff" d="M142.7,-235.58C152.73,-227.07 167.09,-213.79 177,-200 193.12,-177.56 197.85,-170.94 204,-144 208.57,-123.99 214.62,-81.95 202,-56 196.22,-44.11 185.65,-34.22 175.39,-26.77"/>
<polygon fill="#63b8ff" stroke="#63b8ff" points="177.34,-23.86 167.07,-21.23 173.46,-29.69 177.34,-23.86"/>
</a>
</g>
</g>
<!-- Node7 -->
<g id="Node000007" class="node">
<title>Node7</title>
<g id="a_Node000007"><a xlink:title=" ">
<polygon fill="#e0e0e0" stroke="#999999" points="269.88,-20 220.12,-20 220.12,0 269.88,0 269.88,-20"/>
<text xml:space="preserve" text-anchor="middle" x="245" y="-6.5" font-family="Helvetica,sans-Serif" font-size="10.00">iomanip</text>
</a>
</g>
</g>
<!-- Node1&#45;&gt;Node7 -->
<g id="edge12_Node000001_Node000007" class="edge">
<title>Node1&#45;&gt;Node7</title>
<g id="a_edge12_Node000001_Node000007"><a xlink:title=" ">
<path fill="none" stroke="#63b8ff" d="M151.3,-235.57C166.01,-227.83 185.45,-215.62 198,-200 238.35,-149.78 244.67,-69.62 245.27,-31.9"/>
<polygon fill="#63b8ff" stroke="#63b8ff" points="248.77,-31.97 245.28,-21.97 241.77,-31.96 248.77,-31.97"/>
</a>
</g>
</g>
<!-- Node3 -->
<g id="Node000003" class="node">
<title>Node3</title>
<g id="a_Node000003"><a xlink:href="_board_game___classes_8h.html" target="_top" xlink:title=" ">
<polygon fill="white" stroke="#666666" points="193,-88 75,-88 75,-56 193,-56 193,-88"/>
<text xml:space="preserve" text-anchor="start" x="83" y="-74.5" font-family="Helvetica,sans-Serif" font-size="10.00">../../header/BoardGame</text>
<text xml:space="preserve" text-anchor="middle" x="134" y="-62.5" font-family="Helvetica,sans-Serif" font-size="10.00">_Classes.h</text>
</a>
</g>
</g>
<!-- Node2&#45;&gt;Node3 -->
<g id="edge2_Node000002_Node000003" class="edge">
<title>Node2&#45;&gt;Node3</title>
<g id="a_edge2_Node000002_Node000003"><a xlink:title=" ">
<path fill="none" stroke="#63b8ff" d="M122.78,-179.8C115.71,-171.23 106.04,-157.73 102,-144 99.49,-135.47 99.54,-132.54 102,-124 104.64,-114.82 109.48,-105.69 114.6,-97.75"/>
<polygon fill="#63b8ff" stroke="#63b8ff" points="117.4,-99.86 120.24,-89.65 111.65,-95.86 117.4,-99.86"/>
</a>
</g>
</g>
<!-- Node8 -->
<g id="Node000008" class="node">
<title>Node8</title>
<g id="a_Node000008"><a xlink:href="_a_i_8h.html" target="_top" xlink:title=" ">
<polygon fill="white" stroke="#666666" points="195.12,-144 110.88,-144 110.88,-124 195.12,-124 195.12,-144"/>
<text xml:space="preserve" text-anchor="middle" x="153" y="-130.5" font-family="Helvetica,sans-Serif" font-size="10.00">../../header/AI.h</text>
</a>
</g>
</g>
<!-- Node2&#45;&gt;Node8 -->
<g id="edge7_Node000002_Node000008" class="edge">
<title>Node2&#45;&gt;Node8</title>
<g id="a_edge7_Node000002_Node000008"><a xlink:title=" ">
<path fill="none" stroke="#63b8ff" d="M134.83,-179.59C137.61,-172.78 141.46,-163.32 144.91,-154.86"/>
<polygon fill="#63b8ff" stroke="#63b8ff" points="148.11,-156.28 148.64,-145.7 141.63,-153.64 148.11,-156.28"/>
</a>
</g>
</g>
<!-- Node3&#45;&gt;Node4 -->
<g id="edge3_Node000003_Node000004" class="edge">
<title>Node3&#45;&gt;Node4</title>
<g id="a_edge3_Node000003_Node000004"><a xlink:title=" ">
<path fill="none" stroke="#63b8ff" d="M104.64,-55.55C87.16,-46.35 65.1,-34.74 47.88,-25.68"/>
<polygon fill="#63b8ff" stroke="#63b8ff" points="49.69,-22.67 39.21,-21.11 46.43,-28.87 49.69,-22.67"/>
</a>
</g>
</g>
<!-- Node3&#45;&gt;Node5 -->
<g id="edge4_Node000003_Node000005" class="edge">
<title>Node3&#45;&gt;Node5</title>
<g id="a_edge4_Node000003_Node000005"><a xlink:title=" ">
<path fill="none" stroke="#63b8ff" d="M120.35,-55.55C113.14,-47.39 104.26,-37.33 96.76,-28.84"/>
<polygon fill="#63b8ff" stroke="#63b8ff" points="99.56,-26.72 90.31,-21.54 94.31,-31.35 99.56,-26.72"/>
</a>
</g>
</g>
<!-- Node3&#45;&gt;Node6 -->
<g id="edge5_Node000003_Node000006" class="edge">
<title>Node3&#45;&gt;Node6</title>
<g id="a_edge5_Node000003_Node000006"><a xlink:title=" ">
<path fill="none" stroke="#63b8ff" d="M137.61,-55.55C139.31,-48.26 141.36,-39.45 143.19,-31.6"/>
<polygon fill="#63b8ff" stroke="#63b8ff" points="146.6,-32.42 145.46,-21.88 139.78,-30.83 146.6,-32.42"/>
</a>
</g>
</g>
<!-- Node3&#45;&gt;Node7 -->
<g id="edge6_Node000003_Node000007" class="edge">
<title>Node3&#45;&gt;Node7</title>
<g id="a_edge6_Node000003_Node000007"><a xlink:title=" ">
<path fill="none" stroke="#63b8ff" d="M162.59,-55.55C179.61,-46.35 201.09,-34.74 217.85,-25.68"/>
<polygon fill="#63b8ff" stroke="#63b8ff" points="219.13,-28.96 226.26,-21.13 215.8,-22.8 219.13,-28.96"/>
</a>
</g>
</g>
<!-- Node8&#45;&gt;Node3 -->
<g id="edge8_Node000008_Node000003" class="edge">
<title>Node8&#45;&gt;Node3</title>
<g id="a_edge8_Node000008_Node000003"><a xlink:title=" ">
<path fill="none" stroke="#63b8ff" d="M150.03,-123.62C147.94,-117.02 145.03,-107.84 142.27,-99.11"/>
<polygon fill="#63b8ff" stroke="#63b8ff" points="145.61,-98.06 139.25,-89.58 138.93,-100.17 145.61,-98.06"/>
</a>
</g>
</g>
</g>
</svg>
