<?xml version="1.0" encoding="UTF-8" standalone="no"?>
<!DOCTYPE svg PUBLIC "-//W3C//DTD SVG 1.1//EN"
 "http://www.w3.org/Graphics/SVG/1.1/DTD/svg11.dtd">
<!-- Generated by graphviz version 14.0.2 (20251019.1705)
 -->
<!-- Title: Games/SUS/SUS.cpp Pages: 1 -->
<svg width="361pt" height="264pt"
 viewBox="0.00 0.00 361.00 264.00" xmlns="http://www.w3.org/2000/svg" xmlns:xlink="http://www.w3.org/1999/xlink">
<g id="graph0" class="graph" transform="scale(1 1) rotate(0) translate(4 260)">
<title>Games/SUS/SUS.cpp</title>
<!-- Node1 -->
<g id="Node000001" class="node">
<title>Node1</title>
<g id="a_Node000001"><a xlink:title=" ">
<polygon fill="#999999" stroke="#666666" points="312.25,-256 198,-256 198,-236 312.25,-236 312.25,-256"/>
<text xml:space="preserve" text-anchor="middle" x="255.12" y="-242.5" font-family="Helvetica,sans-Serif" font-size="10.00">Games/SUS/SUS.cpp</text>
</a>
</g>
</g>
<!-- Node2 -->
<g id="Node000002" class="node">
<title>Node2</title>
<g id="a_Node000002"><a xlink:href="_s_u_s_8h.html" target="_top" xlink:title="SUS game classes.">
<polygon fill="white" stroke="#666666" points="168.75,-200 123.5,-200 123.5,-180 168.75,-180 168.75,-200"/>
<text xml:space="preserve" text-anchor="middle" x="146.12" y="-186.5" font-family="Helvetica,sans-Serif" font-size="10.00">SUS.h</text>
</a>
</g>
</g>
<!-- Node1&#45;&gt;Node2 -->
<g id="edge1_Node000001_Node000002" class="edge">
<title>Node1&#45;&gt;Node2</title>
<g id="a_edge1_Node000001_Node000002"><a xlink:title=" ">
<path fill="none" stroke="#63b8ff" d="M236.14,-235.59C219.36,-227.28 194.63,-215.03 175.34,-205.47"/>
<polygon fill="#63b8ff" stroke="#63b8ff" points="177.13,-202.45 166.62,-201.15 174.02,-208.73 177.13,-202.45"/>
</a>
</g>
</g>
<!-- Node6 -->
<g id="Node000006" class="node">
<title>Node6</title>
<g id="a_Node000006"><a xlink:title=" ">
<polygon fill="#e0e0e0" stroke="#999999" points="352.88,-20 299.38,-20 299.38,0 352.88,0 352.88,-20"/>
<text xml:space="preserve" text-anchor="middle" x="326.12" y="-6.5" font-family="Helvetica,sans-Serif" font-size="10.00">iostream</text>
</a>
</g>
</g>
<!-- Node1&#45;&gt;Node6 -->
<g id="edge15_Node000001_Node000006" class="edge">
<title>Node1&#45;&gt;Node6</title>
<g id="a_edge15_Node000001_Node000006"><a xlink:title=" ">
<path fill="none" stroke="#63b8ff" d="M267.12,-235.72C286.85,-219.6 325.44,-184.26 340.12,-144 354.06,-105.79 342.37,-57.6 333.6,-30.98"/>
<polygon fill="#63b8ff" stroke="#63b8ff" points="336.99,-30.08 330.38,-21.8 330.39,-32.4 336.99,-30.08"/>
</a>
</g>
</g>
<!-- Node3 -->
<g id="Node000003" class="node">
<title>Node3</title>
<g id="a_Node000003"><a xlink:href="_board_game___classes_8h.html" target="_top" xlink:title=" ">
<polygon fill="white" stroke="#666666" points="184.12,-88 66.12,-88 66.12,-56 184.12,-56 184.12,-88"/>
<text xml:space="preserve" text-anchor="start" x="74.12" y="-74.5" font-family="Helvetica,sans-Serif" font-size="10.00">../../header/BoardGame</text>
<text xml:space="preserve" text-anchor="middle" x="125.12" y="-62.5" font-family="Helvetica,sans-Serif" font-size="10.00">_Classes.h</text>
</a>
</g>
</g>
<!-- Node2&#45;&gt;Node3 -->
<g id="edge2_Node000002_Node000003" class="edge">
<title>Node2&#45;&gt;Node3</title>
<g id="a_edge2_Node000002_Node000003"><a xlink:title=" ">
<path fill="none" stroke="#63b8ff" d="M129.4,-179.6C117.38,-171.8 102.12,-159.5 95.12,-144 88.22,-128.69 95.3,-111.32 104.31,-97.6"/>
<polygon fill="#63b8ff" stroke="#63b8ff" points="107.1,-99.7 110.15,-89.55 101.44,-95.59 107.1,-99.7"/>
</a>
</g>
</g>
<!-- Node8 -->
<g id="Node000008" class="node">
<title>Node8</title>
<g id="a_Node000008"><a xlink:href="_a_i_8h.html" target="_top" xlink:title=" ">
<polygon fill="white" stroke="#666666" points="188.25,-144 104,-144 104,-124 188.25,-124 188.25,-144"/>
<text xml:space="preserve" text-anchor="middle" x="146.12" y="-130.5" font-family="Helvetica,sans-Serif" font-size="10.00">../../header/AI.h</text>
</a>
</g>
</g>
<!-- Node2&#45;&gt;Node8 -->
<g id="edge7_Node000002_Node000008" class="edge">
<title>Node2&#45;&gt;Node8</title>
<g id="a_edge7_Node000002_Node000008"><a xlink:title=" ">
<path fill="none" stroke="#63b8ff" d="M146.12,-179.59C146.12,-173.01 146.12,-163.96 146.12,-155.73"/>
<polygon fill="#63b8ff" stroke="#63b8ff" points="149.63,-155.81 146.13,-145.81 142.63,-155.81 149.63,-155.81"/>
</a>
</g>
</g>
<!-- Node9 -->
<g id="Node000009" class="node">
<title>Node9</title>
<g id="a_Node000009"><a xlink:href="_custom___u_i_8h.html" target="_top" xlink:title="Defines a customizable user interface for board games.">
<polygon fill="white" stroke="#666666" points="331.5,-144 206.75,-144 206.75,-124 331.5,-124 331.5,-144"/>
<text xml:space="preserve" text-anchor="middle" x="269.12" y="-130.5" font-family="Helvetica,sans-Serif" font-size="10.00">../../header/Custom_UI.h</text>
</a>
</g>
</g>
<!-- Node2&#45;&gt;Node9 -->
<g id="edge9_Node000002_Node000009" class="edge">
<title>Node2&#45;&gt;Node9</title>
<g id="a_edge9_Node000002_Node000009"><a xlink:title=" ">
<path fill="none" stroke="#63b8ff" d="M167.55,-179.59C186.75,-171.17 215.17,-158.69 237.07,-149.07"/>
<polygon fill="#63b8ff" stroke="#63b8ff" points="238.4,-152.31 246.15,-145.09 235.58,-145.9 238.4,-152.31"/>
</a>
</g>
</g>
<!-- Node11 -->
<g id="Node000011" class="node">
<title>Node11</title>
<g id="a_Node000011"><a xlink:title=" ">
<polygon fill="#e0e0e0" stroke="#999999" points="48.25,-144 0,-144 0,-124 48.25,-124 48.25,-144"/>
<text xml:space="preserve" text-anchor="middle" x="24.12" y="-130.5" font-family="Helvetica,sans-Serif" font-size="10.00">random</text>
</a>
</g>
</g>
<!-- Node2&#45;&gt;Node11 -->
<g id="edge14_Node000002_Node000011" class="edge">
<title>Node2&#45;&gt;Node11</title>
<g id="a_edge14_Node000002_Node000011"><a xlink:title=" ">
<path fill="none" stroke="#63b8ff" d="M124.87,-179.59C105.84,-171.17 77.65,-158.69 55.92,-149.07"/>
<polygon fill="#63b8ff" stroke="#63b8ff" points="57.49,-145.94 46.93,-145.09 54.65,-152.34 57.49,-145.94"/>
</a>
</g>
</g>
<!-- Node4 -->
<g id="Node000004" class="node">
<title>Node4</title>
<g id="a_Node000004"><a xlink:title=" ">
<polygon fill="#e0e0e0" stroke="#999999" points="152.12,-20 112.12,-20 112.12,0 152.12,0 152.12,-20"/>
<text xml:space="preserve" text-anchor="middle" x="132.12" y="-6.5" font-family="Helvetica,sans-Serif" font-size="10.00">string</text>
</a>
</g>
</g>
<!-- Node3&#45;&gt;Node4 -->
<g id="edge3_Node000003_Node000004" class="edge">
<title>Node3&#45;&gt;Node4</title>
<g id="a_edge3_Node000003_Node000004"><a xlink:title=" ">
<path fill="none" stroke="#63b8ff" d="M126.93,-55.55C127.78,-48.26 128.81,-39.45 129.72,-31.6"/>
<polygon fill="#63b8ff" stroke="#63b8ff" points="133.17,-32.25 130.85,-21.91 126.22,-31.44 133.17,-32.25"/>
</a>
</g>
</g>
<!-- Node5 -->
<g id="Node000005" class="node">
<title>Node5</title>
<g id="a_Node000005"><a xlink:title=" ">
<polygon fill="#e0e0e0" stroke="#999999" points="226.62,-20 183.62,-20 183.62,0 226.62,0 226.62,-20"/>
<text xml:space="preserve" text-anchor="middle" x="205.12" y="-6.5" font-family="Helvetica,sans-Serif" font-size="10.00">vector</text>
</a>
</g>
</g>
<!-- Node3&#45;&gt;Node5 -->
<g id="edge4_Node000003_Node000005" class="edge">
<title>Node3&#45;&gt;Node5</title>
<g id="a_edge4_Node000003_Node000005"><a xlink:title=" ">
<path fill="none" stroke="#63b8ff" d="M145.73,-55.55C157.3,-46.87 171.73,-36.04 183.47,-27.24"/>
<polygon fill="#63b8ff" stroke="#63b8ff" points="185.47,-30.12 191.37,-21.32 181.27,-24.52 185.47,-30.12"/>
</a>
</g>
</g>
<!-- Node3&#45;&gt;Node6 -->
<g id="edge5_Node000003_Node000006" class="edge">
<title>Node3&#45;&gt;Node6</title>
<g id="a_edge5_Node000003_Node000006"><a xlink:title=" ">
<path fill="none" stroke="#63b8ff" d="M176.89,-55.55C211.59,-45.19 256.53,-31.78 287.98,-22.39"/>
<polygon fill="#63b8ff" stroke="#63b8ff" points="288.89,-25.77 297.47,-19.55 286.89,-19.06 288.89,-25.77"/>
</a>
</g>
</g>
<!-- Node7 -->
<g id="Node000007" class="node">
<title>Node7</title>
<g id="a_Node000007"><a xlink:title=" ">
<polygon fill="#e0e0e0" stroke="#999999" points="94,-20 44.25,-20 44.25,0 94,0 94,-20"/>
<text xml:space="preserve" text-anchor="middle" x="69.12" y="-6.5" font-family="Helvetica,sans-Serif" font-size="10.00">iomanip</text>
</a>
</g>
</g>
<!-- Node3&#45;&gt;Node7 -->
<g id="edge6_Node000003_Node000007" class="edge">
<title>Node3&#45;&gt;Node7</title>
<g id="a_edge6_Node000003_Node000007"><a xlink:title=" ">
<path fill="none" stroke="#63b8ff" d="M110.7,-55.55C103.01,-47.3 93.5,-37.12 85.53,-28.57"/>
<polygon fill="#63b8ff" stroke="#63b8ff" points="88.32,-26.44 78.94,-21.51 83.2,-31.21 88.32,-26.44"/>
</a>
</g>
</g>
<!-- Node8&#45;&gt;Node3 -->
<g id="edge8_Node000008_Node000003" class="edge">
<title>Node8&#45;&gt;Node3</title>
<g id="a_edge8_Node000008_Node000003"><a xlink:title=" ">
<path fill="none" stroke="#63b8ff" d="M142.84,-123.62C140.51,-116.95 137.25,-107.64 134.16,-98.82"/>
<polygon fill="#63b8ff" stroke="#63b8ff" points="137.53,-97.85 130.92,-89.57 130.92,-100.16 137.53,-97.85"/>
</a>
</g>
</g>
<!-- Node9&#45;&gt;Node3 -->
<g id="edge10_Node000009_Node000003" class="edge">
<title>Node9&#45;&gt;Node3</title>
<g id="a_edge10_Node000009_Node000003"><a xlink:title=" ">
<path fill="none" stroke="#63b8ff" d="M246.62,-123.62C226.9,-115.41 197.57,-103.18 172.66,-92.81"/>
<polygon fill="#63b8ff" stroke="#63b8ff" points="174.28,-89.69 163.7,-89.07 171.58,-96.15 174.28,-89.69"/>
</a>
</g>
</g>
<!-- Node9&#45;&gt;Node5 -->
<g id="edge12_Node000009_Node000005" class="edge">
<title>Node9&#45;&gt;Node5</title>
<g id="a_edge12_Node000009_Node000005"><a xlink:title=" ">
<path fill="none" stroke="#63b8ff" d="M259.52,-123.79C251.04,-115.21 238.86,-101.72 231.12,-88 220.96,-69.98 213.91,-47.34 209.74,-31.29"/>
<polygon fill="#63b8ff" stroke="#63b8ff" points="213.24,-30.84 207.47,-21.95 206.43,-32.49 213.24,-30.84"/>
</a>
</g>
</g>
<!-- Node9&#45;&gt;Node6 -->
<g id="edge11_Node000009_Node000006" class="edge">
<title>Node9&#45;&gt;Node6</title>
<g id="a_edge11_Node000009_Node000006"><a xlink:title=" ">
<path fill="none" stroke="#63b8ff" d="M279.35,-123.61C287.99,-115.11 300.06,-101.85 307.12,-88 316.21,-70.19 321.1,-47.82 323.63,-31.78"/>
<polygon fill="#63b8ff" stroke="#63b8ff" points="327.08,-32.37 324.99,-21.99 320.15,-31.42 327.08,-32.37"/>
</a>
</g>
</g>
<!-- Node10 -->
<g id="Node000010" class="node">
<title>Node10</title>
<g id="a_Node000010"><a xlink:title=" ">
<polygon fill="#e0e0e0" stroke="#999999" points="298.5,-82 239.75,-82 239.75,-62 298.5,-62 298.5,-82"/>
<text xml:space="preserve" text-anchor="middle" x="269.12" y="-68.5" font-family="Helvetica,sans-Serif" font-size="10.00">stdexcept</text>
</a>
</g>
</g>
<!-- Node9&#45;&gt;Node10 -->
<g id="edge13_Node000009_Node000010" class="edge">
<title>Node9&#45;&gt;Node10</title>
<g id="a_edge13_Node000009_Node000010"><a xlink:title=" ">
<path fill="none" stroke="#63b8ff" d="M269.12,-123.62C269.12,-115.56 269.12,-103.65 269.12,-93.41"/>
<polygon fill="#63b8ff" stroke="#63b8ff" points="272.63,-93.63 269.13,-83.63 265.63,-93.63 272.63,-93.63"/>
</a>
</g>
</g>
</g>
</svg>
