<?xml version="1.0" encoding="UTF-8" standalone="no"?>
<!DOCTYPE svg PUBLIC "-//W3C//DTD SVG 1.1//EN"
 "http://www.w3.org/Graphics/SVG/1.1/DTD/svg11.dtd">
<!-- Generated by graphviz version 14.0.2 (20251019.1705)
 -->
<!-- Title: Games/SUS/SUS.h Pages: 1 -->
<svg width="346pt" height="208pt"
 viewBox="0.00 0.00 346.00 208.00" xmlns="http://www.w3.org/2000/svg" xmlns:xlink="http://www.w3.org/1999/xlink">
<g id="graph0" class="graph" transform="scale(1 1) rotate(0) translate(4 204)">
<title>Games/SUS/SUS.h</title>
<!-- Node1 -->
<g id="Node000001" class="node">
<title>Node1</title>
<g id="a_Node000001"><a xlink:title="SUS game classes.">
<polygon fill="#999999" stroke="#666666" points="198.88,-200 95.12,-200 95.12,-180 198.88,-180 198.88,-200"/>
<text xml:space="preserve" text-anchor="middle" x="147" y="-186.5" font-family="Helvetica,sans-Serif" font-size="10.00">Games/SUS/SUS.h</text>
</a>
</g>
</g>
<!-- Node2 -->
<g id="Node000002" class="node">
<title>Node2</title>
<g id="a_Node000002"><a xlink:href="_board_game___classes_8h.html" target="_top" xlink:title=" ">
<polygon fill="white" stroke="#666666" points="144,-88 26,-88 26,-56 144,-56 144,-88"/>
<text xml:space="preserve" text-anchor="start" x="34" y="-74.5" font-family="Helvetica,sans-Serif" font-size="10.00">../../header/BoardGame</text>
<text xml:space="preserve" text-anchor="middle" x="85" y="-62.5" font-family="Helvetica,sans-Serif" font-size="10.00">_Classes.h</text>
</a>
</g>
</g>
<!-- Node1&#45;&gt;Node2 -->
<g id="edge1_Node000001_Node000002" class="edge">
<title>Node1&#45;&gt;Node2</title>
<g id="a_edge1_Node000001_Node000002"><a xlink:title=" ">
<path fill="none" stroke="#63b8ff" d="M94.78,-181.25C72.47,-175.07 48.49,-163.97 35,-144 23.96,-127.66 37.25,-109.49 52.89,-95.62"/>
<polygon fill="#63b8ff" stroke="#63b8ff" points="55.01,-98.41 60.51,-89.35 50.56,-93 55.01,-98.41"/>
</a>
</g>
</g>
<!-- Node7 -->
<g id="Node000007" class="node">
<title>Node7</title>
<g id="a_Node000007"><a xlink:href="_a_i_8h.html" target="_top" xlink:title=" ">
<polygon fill="white" stroke="#666666" points="128.12,-144 43.88,-144 43.88,-124 128.12,-124 128.12,-144"/>
<text xml:space="preserve" text-anchor="middle" x="86" y="-130.5" font-family="Helvetica,sans-Serif" font-size="10.00">../../header/AI.h</text>
</a>
</g>
</g>
<!-- Node1&#45;&gt;Node7 -->
<g id="edge6_Node000001_Node000007" class="edge">
<title>Node1&#45;&gt;Node7</title>
<g id="a_edge6_Node000001_Node000007"><a xlink:title=" ">
<path fill="none" stroke="#63b8ff" d="M136.37,-179.59C127.72,-171.93 115.27,-160.91 104.92,-151.75"/>
<polygon fill="#63b8ff" stroke="#63b8ff" points="107.44,-149.31 97.64,-145.3 102.8,-154.55 107.44,-149.31"/>
</a>
</g>
</g>
<!-- Node8 -->
<g id="Node000008" class="node">
<title>Node8</title>
<g id="a_Node000008"><a xlink:href="_custom___u_i_8h.html" target="_top" xlink:title="Defines a customizable user interface for board games.">
<polygon fill="white" stroke="#666666" points="271.38,-144 146.62,-144 146.62,-124 271.38,-124 271.38,-144"/>
<text xml:space="preserve" text-anchor="middle" x="209" y="-130.5" font-family="Helvetica,sans-Serif" font-size="10.00">../../header/Custom_UI.h</text>
</a>
</g>
</g>
<!-- Node1&#45;&gt;Node8 -->
<g id="edge8_Node000001_Node000008" class="edge">
<title>Node1&#45;&gt;Node8</title>
<g id="a_edge8_Node000001_Node000008"><a xlink:title=" ">
<path fill="none" stroke="#63b8ff" d="M157.8,-179.59C166.6,-171.93 179.25,-160.91 189.77,-151.75"/>
<polygon fill="#63b8ff" stroke="#63b8ff" points="191.94,-154.5 197.18,-145.29 187.34,-149.22 191.94,-154.5"/>
</a>
</g>
</g>
<!-- Node10 -->
<g id="Node000010" class="node">
<title>Node10</title>
<g id="a_Node000010"><a xlink:title=" ">
<polygon fill="#e0e0e0" stroke="#999999" points="338.12,-144 289.88,-144 289.88,-124 338.12,-124 338.12,-144"/>
<text xml:space="preserve" text-anchor="middle" x="314" y="-130.5" font-family="Helvetica,sans-Serif" font-size="10.00">random</text>
</a>
</g>
</g>
<!-- Node1&#45;&gt;Node10 -->
<g id="edge13_Node000001_Node000010" class="edge">
<title>Node1&#45;&gt;Node10</title>
<g id="a_edge13_Node000001_Node000010"><a xlink:title=" ">
<path fill="none" stroke="#63b8ff" d="M176.09,-179.59C204.72,-170.34 248.47,-156.19 278.99,-146.32"/>
<polygon fill="#63b8ff" stroke="#63b8ff" points="279.7,-149.77 288.14,-143.36 277.55,-143.11 279.7,-149.77"/>
</a>
</g>
</g>
<!-- Node3 -->
<g id="Node000003" class="node">
<title>Node3</title>
<g id="a_Node000003"><a xlink:title=" ">
<polygon fill="#e0e0e0" stroke="#999999" points="40,-20 0,-20 0,0 40,0 40,-20"/>
<text xml:space="preserve" text-anchor="middle" x="20" y="-6.5" font-family="Helvetica,sans-Serif" font-size="10.00">string</text>
</a>
</g>
</g>
<!-- Node2&#45;&gt;Node3 -->
<g id="edge2_Node000002_Node000003" class="edge">
<title>Node2&#45;&gt;Node3</title>
<g id="a_edge2_Node000002_Node000003"><a xlink:title=" ">
<path fill="none" stroke="#63b8ff" d="M68.26,-55.55C59.14,-47.13 47.83,-36.69 38.46,-28.04"/>
<polygon fill="#63b8ff" stroke="#63b8ff" points="41.03,-25.65 31.3,-21.43 36.28,-30.79 41.03,-25.65"/>
</a>
</g>
</g>
<!-- Node4 -->
<g id="Node000004" class="node">
<title>Node4</title>
<g id="a_Node000004"><a xlink:title=" ">
<polygon fill="#e0e0e0" stroke="#999999" points="168.5,-20 125.5,-20 125.5,0 168.5,0 168.5,-20"/>
<text xml:space="preserve" text-anchor="middle" x="147" y="-6.5" font-family="Helvetica,sans-Serif" font-size="10.00">vector</text>
</a>
</g>
</g>
<!-- Node2&#45;&gt;Node4 -->
<g id="edge3_Node000002_Node000004" class="edge">
<title>Node2&#45;&gt;Node4</title>
<g id="a_edge3_Node000002_Node000004"><a xlink:title=" ">
<path fill="none" stroke="#63b8ff" d="M100.97,-55.55C109.58,-47.22 120.23,-36.91 129.12,-28.3"/>
<polygon fill="#63b8ff" stroke="#63b8ff" points="131.44,-30.93 136.19,-21.46 126.57,-25.9 131.44,-30.93"/>
</a>
</g>
</g>
<!-- Node5 -->
<g id="Node000005" class="node">
<title>Node5</title>
<g id="a_Node000005"><a xlink:title=" ">
<polygon fill="#e0e0e0" stroke="#999999" points="239.75,-20 186.25,-20 186.25,0 239.75,0 239.75,-20"/>
<text xml:space="preserve" text-anchor="middle" x="213" y="-6.5" font-family="Helvetica,sans-Serif" font-size="10.00">iostream</text>
</a>
</g>
</g>
<!-- Node2&#45;&gt;Node5 -->
<g id="edge4_Node000002_Node000005" class="edge">
<title>Node2&#45;&gt;Node5</title>
<g id="a_edge4_Node000002_Node000005"><a xlink:title=" ">
<path fill="none" stroke="#63b8ff" d="M117.96,-55.55C137.87,-46.22 163.06,-34.41 182.51,-25.29"/>
<polygon fill="#63b8ff" stroke="#63b8ff" points="183.99,-28.46 191.56,-21.05 181.02,-22.13 183.99,-28.46"/>
</a>
</g>
</g>
<!-- Node6 -->
<g id="Node000006" class="node">
<title>Node6</title>
<g id="a_Node000006"><a xlink:title=" ">
<polygon fill="#e0e0e0" stroke="#999999" points="107.88,-20 58.12,-20 58.12,0 107.88,0 107.88,-20"/>
<text xml:space="preserve" text-anchor="middle" x="83" y="-6.5" font-family="Helvetica,sans-Serif" font-size="10.00">iomanip</text>
</a>
</g>
</g>
<!-- Node2&#45;&gt;Node6 -->
<g id="edge5_Node000002_Node000006" class="edge">
<title>Node2&#45;&gt;Node6</title>
<g id="a_edge5_Node000002_Node000006"><a xlink:title=" ">
<path fill="none" stroke="#63b8ff" d="M84.48,-55.55C84.24,-48.34 83.96,-39.66 83.7,-31.88"/>
<polygon fill="#63b8ff" stroke="#63b8ff" points="87.2,-31.8 83.36,-21.92 80.2,-32.03 87.2,-31.8"/>
</a>
</g>
</g>
<!-- Node7&#45;&gt;Node2 -->
<g id="edge7_Node000007_Node000002" class="edge">
<title>Node7&#45;&gt;Node2</title>
<g id="a_edge7_Node000007_Node000002"><a xlink:title=" ">
<path fill="none" stroke="#63b8ff" d="M85.84,-123.62C85.73,-117.1 85.58,-108.05 85.44,-99.4"/>
<polygon fill="#63b8ff" stroke="#63b8ff" points="88.94,-99.59 85.28,-89.65 81.94,-99.71 88.94,-99.59"/>
</a>
</g>
</g>
<!-- Node8&#45;&gt;Node2 -->
<g id="edge9_Node000008_Node000002" class="edge">
<title>Node8&#45;&gt;Node2</title>
<g id="a_edge9_Node000008_Node000002"><a xlink:title=" ">
<path fill="none" stroke="#63b8ff" d="M189.62,-123.62C172.88,-115.52 148.11,-103.53 126.86,-93.26"/>
<polygon fill="#63b8ff" stroke="#63b8ff" points="128.66,-90.24 118.13,-89.03 125.61,-96.54 128.66,-90.24"/>
</a>
</g>
</g>
<!-- Node8&#45;&gt;Node4 -->
<g id="edge11_Node000008_Node000004" class="edge">
<title>Node8&#45;&gt;Node4</title>
<g id="a_edge11_Node000008_Node000004"><a xlink:title=" ">
<path fill="none" stroke="#63b8ff" d="M204.34,-123.83C194.29,-104.05 170.38,-57 156.82,-30.32"/>
<polygon fill="#63b8ff" stroke="#63b8ff" points="160.05,-28.95 152.4,-21.63 153.81,-32.13 160.05,-28.95"/>
</a>
</g>
</g>
<!-- Node8&#45;&gt;Node5 -->
<g id="edge10_Node000008_Node000005" class="edge">
<title>Node8&#45;&gt;Node5</title>
<g id="a_edge10_Node000008_Node000005"><a xlink:title=" ">
<path fill="none" stroke="#63b8ff" d="M209.3,-123.83C209.94,-104.4 211.44,-58.67 212.32,-31.77"/>
<polygon fill="#63b8ff" stroke="#63b8ff" points="215.82,-31.9 212.65,-21.79 208.82,-31.67 215.82,-31.9"/>
</a>
</g>
</g>
<!-- Node9 -->
<g id="Node000009" class="node">
<title>Node9</title>
<g id="a_Node000009"><a xlink:title=" ">
<polygon fill="#e0e0e0" stroke="#999999" points="296.38,-82 237.62,-82 237.62,-62 296.38,-62 296.38,-82"/>
<text xml:space="preserve" text-anchor="middle" x="267" y="-68.5" font-family="Helvetica,sans-Serif" font-size="10.00">stdexcept</text>
</a>
</g>
</g>
<!-- Node8&#45;&gt;Node9 -->
<g id="edge12_Node000008_Node000009" class="edge">
<title>Node8&#45;&gt;Node9</title>
<g id="a_edge12_Node000008_Node000009"><a xlink:title=" ">
<path fill="none" stroke="#63b8ff" d="M218.06,-123.62C226.71,-114.68 239.94,-100.99 250.47,-90.1"/>
<polygon fill="#63b8ff" stroke="#63b8ff" points="252.71,-92.82 257.14,-83.2 247.67,-87.96 252.71,-92.82"/>
</a>
</g>
</g>
</g>
</svg>
