<?xml version="1.0" encoding="UTF-8" standalone="no"?>
<!DOCTYPE svg PUBLIC "-//W3C//DTD SVG 1.1//EN"
 "http://www.w3.org/Graphics/SVG/1.1/DTD/svg11.dtd">
<!-- Generated by graphviz version 14.0.2 (20251019.1705)
 -->
<!-- Title: main Pages: 1 -->
<svg width="323pt" height="154pt"
 viewBox="0.00 0.00 323.00 154.00" xmlns="http://www.w3.org/2000/svg" xmlns:xlink="http://www.w3.org/1999/xlink">
<g id="graph0" class="graph" transform="scale(1 1) rotate(0) translate(4 150)">
<title>main</title>
<!-- Node1 -->
<g id="Node000001" class="node">
<title>Node1</title>
<g id="a_Node000001"><a xlink:title="Main function to run the X&#45;O game.">
<polygon fill="#999999" stroke="#666666" points="37,-108 0,-108 0,-88 37,-88 37,-108"/>
<text xml:space="preserve" text-anchor="middle" x="18.5" y="-94.5" font-family="Helvetica,sans-Serif" font-size="10.00">main</text>
</a>
</g>
</g>
<!-- Node2 -->
<g id="Node000002" class="node">
<title>Node2</title>
<g id="a_Node000002"><a xlink:href="class_game_manager.html#a71f46d5189dac5c773f608cea1b5a203" target="_top" xlink:title="Run the main game loop until someone wins or the game ends.">
<polygon fill="white" stroke="#666666" points="172.25,-136 73,-136 73,-116 172.25,-116 172.25,-136"/>
<text xml:space="preserve" text-anchor="middle" x="122.62" y="-122.5" font-family="Helvetica,sans-Serif" font-size="10.00">GameManager::run</text>
</a>
</g>
</g>
<!-- Node1&#45;&gt;Node2 -->
<g id="edge1_Node000001_Node000002" class="edge">
<title>Node1&#45;&gt;Node2</title>
<g id="a_edge1_Node000001_Node000002"><a xlink:title=" ">
<path fill="none" stroke="#63b8ff" d="M37.29,-102.88C47.19,-105.59 60.05,-109.12 72.73,-112.59"/>
<polygon fill="#63b8ff" stroke="#63b8ff" points="71.71,-115.94 82.28,-115.21 73.56,-109.19 71.71,-115.94"/>
</a>
</g>
</g>
<!-- Node4 -->
<g id="Node000004" class="node">
<title>Node4</title>
<g id="a_Node000004"><a xlink:href="class_u_i.html#a6966a040c995b2292e5edddaa94f889a" target="_top" xlink:title="Set up players for the game.">
<polygon fill="white" stroke="#666666" points="169.25,-89 76,-89 76,-69 169.25,-69 169.25,-89"/>
<text xml:space="preserve" text-anchor="middle" x="122.62" y="-75.5" font-family="Helvetica,sans-Serif" font-size="10.00">UI::setup_players</text>
</a>
</g>
</g>
<!-- Node1&#45;&gt;Node4 -->
<g id="edge3_Node000001_Node000004" class="edge">
<title>Node1&#45;&gt;Node4</title>
<g id="a_edge3_Node000001_Node000004"><a xlink:title=" ">
<path fill="none" stroke="#63b8ff" d="M37.29,-94.69C45.01,-93.25 54.53,-91.48 64.37,-89.65"/>
<polygon fill="#63b8ff" stroke="#63b8ff" points="64.84,-93.12 74.03,-87.85 63.56,-86.24 64.84,-93.12"/>
</a>
</g>
</g>
<!-- Node3 -->
<g id="Node000003" class="node">
<title>Node3</title>
<g id="a_Node000003"><a xlink:href="class_player.html#aed2af19790ba73190e3ebeea589518e1" target="_top" xlink:title="Get the player&#39;s name.">
<polygon fill="white" stroke="#666666" points="307.88,-146 215.38,-146 215.38,-126 307.88,-126 307.88,-146"/>
<text xml:space="preserve" text-anchor="middle" x="261.62" y="-132.5" font-family="Helvetica,sans-Serif" font-size="10.00">Player::get_name</text>
</a>
</g>
</g>
<!-- Node2&#45;&gt;Node3 -->
<g id="edge2_Node000002_Node000003" class="edge">
<title>Node2&#45;&gt;Node3</title>
<g id="a_edge2_Node000002_Node000003"><a xlink:title=" ">
<path fill="none" stroke="#63b8ff" d="M172.7,-129.58C182.74,-130.31 193.39,-131.09 203.68,-131.84"/>
<polygon fill="#63b8ff" stroke="#63b8ff" points="203.35,-135.33 213.58,-132.57 203.86,-128.35 203.35,-135.33"/>
</a>
</g>
</g>
<!-- Node5 -->
<g id="Node000005" class="node">
<title>Node5</title>
<g id="a_Node000005"><a xlink:href="class_u_i.html#a94561e0bb4bbcbe5ff71ca6d751922df" target="_top" xlink:title="Create a player object based on input name, symbol, and type.">
<polygon fill="white" stroke="#666666" points="307.12,-108 216.12,-108 216.12,-88 307.12,-88 307.12,-108"/>
<text xml:space="preserve" text-anchor="middle" x="261.62" y="-94.5" font-family="Helvetica,sans-Serif" font-size="10.00">UI::create_player</text>
</a>
</g>
</g>
<!-- Node4&#45;&gt;Node5 -->
<g id="edge4_Node000004_Node000005" class="edge">
<title>Node4&#45;&gt;Node5</title>
<g id="a_edge4_Node000004_Node000005"><a xlink:title=" ">
<path fill="none" stroke="#63b8ff" d="M169.63,-85.38C180.82,-86.93 192.91,-88.61 204.52,-90.22"/>
<polygon fill="#63b8ff" stroke="#63b8ff" points="204.02,-93.68 214.41,-91.59 204.98,-86.75 204.02,-93.68"/>
</a>
</g>
</g>
<!-- Node6 -->
<g id="Node000006" class="node">
<title>Node6</title>
<g id="a_Node000006"><a xlink:href="class_u_i.html#a7b1603de1f73fbb4006e4f00a27c44da" target="_top" xlink:title="Ask the user for the player&#39;s name.">
<polygon fill="white" stroke="#666666" points="315,-70 208.25,-70 208.25,-50 315,-50 315,-70"/>
<text xml:space="preserve" text-anchor="middle" x="261.62" y="-56.5" font-family="Helvetica,sans-Serif" font-size="10.00">UI::get_player_name</text>
</a>
</g>
</g>
<!-- Node4&#45;&gt;Node6 -->
<g id="edge5_Node000004_Node000006" class="edge">
<title>Node4&#45;&gt;Node6</title>
<g id="a_edge5_Node000004_Node000006"><a xlink:title=" ">
<path fill="none" stroke="#63b8ff" d="M169.63,-72.62C178.26,-71.42 187.43,-70.15 196.5,-68.89"/>
<polygon fill="#63b8ff" stroke="#63b8ff" points="196.96,-72.36 206.39,-67.52 196,-65.43 196.96,-72.36"/>
</a>
</g>
</g>
<!-- Node7 -->
<g id="Node000007" class="node">
<title>Node7</title>
<g id="a_Node000007"><a xlink:href="class_u_i.html#ac3d45fea2bbcaa0372d8e5101e116ca1" target="_top" xlink:title="Ask the user to choose the player type from a list.">
<polygon fill="white" stroke="#666666" points="312.38,-32 210.88,-32 210.88,0 312.38,0 312.38,-32"/>
<text xml:space="preserve" text-anchor="start" x="218.88" y="-18.5" font-family="Helvetica,sans-Serif" font-size="10.00">UI::get_player_type</text>
<text xml:space="preserve" text-anchor="middle" x="261.62" y="-6.5" font-family="Helvetica,sans-Serif" font-size="10.00">_choice</text>
</a>
</g>
</g>
<!-- Node4&#45;&gt;Node7 -->
<g id="edge6_Node000004_Node000007" class="edge">
<title>Node4&#45;&gt;Node7</title>
<g id="a_edge6_Node000004_Node000007"><a xlink:title=" ">
<path fill="none" stroke="#63b8ff" d="M146.25,-68.6C164.77,-60.08 191.57,-47.76 214.57,-37.18"/>
<polygon fill="#63b8ff" stroke="#63b8ff" points="215.83,-40.45 223.45,-33.09 212.91,-34.09 215.83,-40.45"/>
</a>
</g>
</g>
</g>
</svg>
