<?xml version="1.0" encoding="UTF-8" standalone="no"?>
<!DOCTYPE svg PUBLIC "-//W3C//DTD SVG 1.1//EN"
 "http://www.w3.org/Graphics/SVG/1.1/DTD/svg11.dtd">
<!-- Generated by graphviz version 14.0.2 (20251019.1705)
 -->
<!-- Title: Games/Ultimate_Tic_Tac_Toe/Ultimate.cpp Pages: 1 -->
<svg width="294pt" height="276pt"
 viewBox="0.00 0.00 294.00 276.00" xmlns="http://www.w3.org/2000/svg" xmlns:xlink="http://www.w3.org/1999/xlink">
<g id="graph0" class="graph" transform="scale(1 1) rotate(0) translate(4 272)">
<title>Games/Ultimate_Tic_Tac_Toe/Ultimate.cpp</title>
<!-- Node1 -->
<g id="Node000001" class="node">
<title>Node1</title>
<g id="a_Node000001"><a xlink:title=" ">
<polygon fill="#999999" stroke="#666666" points="236,-268 119.5,-268 119.5,-236 236,-236 236,-268"/>
<text xml:space="preserve" text-anchor="start" x="127.5" y="-254.5" font-family="Helvetica,sans-Serif" font-size="10.00">Games/Ultimate_Tic</text>
<text xml:space="preserve" text-anchor="middle" x="177.75" y="-242.5" font-family="Helvetica,sans-Serif" font-size="10.00">_Tac_Toe/Ultimate.cpp</text>
</a>
</g>
</g>
<!-- Node2 -->
<g id="Node000002" class="node">
<title>Node2</title>
<g id="a_Node000002"><a xlink:title=" ">
<polygon fill="#e0e0e0" stroke="#999999" points="53.5,-20 0,-20 0,0 53.5,0 53.5,-20"/>
<text xml:space="preserve" text-anchor="middle" x="26.75" y="-6.5" font-family="Helvetica,sans-Serif" font-size="10.00">iostream</text>
</a>
</g>
</g>
<!-- Node1&#45;&gt;Node2 -->
<g id="edge1_Node000001_Node000002" class="edge">
<title>Node1&#45;&gt;Node2</title>
<g id="a_edge1_Node000001_Node000002"><a xlink:title=" ">
<path fill="none" stroke="#63b8ff" d="M147.74,-235.56C132.95,-226.75 115.77,-214.56 103.75,-200 60.78,-147.93 39.12,-68.67 30.85,-31.54"/>
<polygon fill="#63b8ff" stroke="#63b8ff" points="34.28,-30.82 28.78,-21.76 27.43,-32.27 34.28,-30.82"/>
</a>
</g>
</g>
<!-- Node3 -->
<g id="Node000003" class="node">
<title>Node3</title>
<g id="a_Node000003"><a xlink:title=" ">
<polygon fill="#e0e0e0" stroke="#999999" points="240.62,-20 190.88,-20 190.88,0 240.62,0 240.62,-20"/>
<text xml:space="preserve" text-anchor="middle" x="215.75" y="-6.5" font-family="Helvetica,sans-Serif" font-size="10.00">iomanip</text>
</a>
</g>
</g>
<!-- Node1&#45;&gt;Node3 -->
<g id="edge2_Node000001_Node000003" class="edge">
<title>Node1&#45;&gt;Node3</title>
<g id="a_edge2_Node000001_Node000003"><a xlink:title=" ">
<path fill="none" stroke="#63b8ff" d="M180.18,-235.62C186.79,-193.92 205.03,-78.68 212.5,-31.52"/>
<polygon fill="#63b8ff" stroke="#63b8ff" points="215.92,-32.3 214.03,-21.87 209.01,-31.2 215.92,-32.3"/>
</a>
</g>
</g>
<!-- Node4 -->
<g id="Node000004" class="node">
<title>Node4</title>
<g id="a_Node000004"><a xlink:title=" ">
<polygon fill="#e0e0e0" stroke="#999999" points="286.38,-200 241.12,-200 241.12,-180 286.38,-180 286.38,-200"/>
<text xml:space="preserve" text-anchor="middle" x="263.75" y="-186.5" font-family="Helvetica,sans-Serif" font-size="10.00">cctype</text>
</a>
</g>
</g>
<!-- Node1&#45;&gt;Node4 -->
<g id="edge3_Node000001_Node000004" class="edge">
<title>Node1&#45;&gt;Node4</title>
<g id="a_edge3_Node000001_Node000004"><a xlink:title=" ">
<path fill="none" stroke="#63b8ff" d="M199.9,-235.55C212.46,-226.78 228.17,-215.83 240.85,-206.97"/>
<polygon fill="#63b8ff" stroke="#63b8ff" points="242.83,-209.87 249.02,-201.27 238.82,-204.13 242.83,-209.87"/>
</a>
</g>
</g>
<!-- Node5 -->
<g id="Node000005" class="node">
<title>Node5</title>
<g id="a_Node000005"><a xlink:href="_ultimate_8h.html" target="_top" xlink:title="Ultimate Tic&#45;Tac&#45;Toe game classes.">
<polygon fill="white" stroke="#666666" points="173.25,-200 112.25,-200 112.25,-180 173.25,-180 173.25,-200"/>
<text xml:space="preserve" text-anchor="middle" x="142.75" y="-186.5" font-family="Helvetica,sans-Serif" font-size="10.00">Ultimate.h</text>
</a>
</g>
</g>
<!-- Node1&#45;&gt;Node5 -->
<g id="edge4_Node000001_Node000005" class="edge">
<title>Node1&#45;&gt;Node5</title>
<g id="a_edge4_Node000001_Node000005"><a xlink:title=" ">
<path fill="none" stroke="#63b8ff" d="M168.74,-235.55C164.23,-227.82 158.73,-218.4 153.96,-210.21"/>
<polygon fill="#63b8ff" stroke="#63b8ff" points="157.06,-208.59 149,-201.72 151.02,-212.12 157.06,-208.59"/>
</a>
</g>
</g>
<!-- Node6 -->
<g id="Node000006" class="node">
<title>Node6</title>
<g id="a_Node000006"><a xlink:href="_board_game___classes_8h.html" target="_top" xlink:title=" ">
<polygon fill="white" stroke="#666666" points="181.75,-88 63.75,-88 63.75,-56 181.75,-56 181.75,-88"/>
<text xml:space="preserve" text-anchor="start" x="71.75" y="-74.5" font-family="Helvetica,sans-Serif" font-size="10.00">../../header/BoardGame</text>
<text xml:space="preserve" text-anchor="middle" x="122.75" y="-62.5" font-family="Helvetica,sans-Serif" font-size="10.00">_Classes.h</text>
</a>
</g>
</g>
<!-- Node5&#45;&gt;Node6 -->
<g id="edge5_Node000005_Node000006" class="edge">
<title>Node5&#45;&gt;Node6</title>
<g id="a_edge5_Node000005_Node000006"><a xlink:title=" ">
<path fill="none" stroke="#63b8ff" d="M126.02,-179.6C114.01,-171.8 98.74,-159.5 91.75,-144 84.74,-128.46 92.27,-110.9 101.66,-97.14"/>
<polygon fill="#63b8ff" stroke="#63b8ff" points="104.19,-99.59 107.4,-89.49 98.59,-95.39 104.19,-99.59"/>
</a>
</g>
</g>
<!-- Node9 -->
<g id="Node000009" class="node">
<title>Node9</title>
<g id="a_Node000009"><a xlink:href="_a_i_8h.html" target="_top" xlink:title=" ">
<polygon fill="white" stroke="#666666" points="184.88,-144 100.62,-144 100.62,-124 184.88,-124 184.88,-144"/>
<text xml:space="preserve" text-anchor="middle" x="142.75" y="-130.5" font-family="Helvetica,sans-Serif" font-size="10.00">../../header/AI.h</text>
</a>
</g>
</g>
<!-- Node5&#45;&gt;Node9 -->
<g id="edge10_Node000005_Node000009" class="edge">
<title>Node5&#45;&gt;Node9</title>
<g id="a_edge10_Node000005_Node000009"><a xlink:title=" ">
<path fill="none" stroke="#63b8ff" d="M142.75,-179.59C142.75,-173.01 142.75,-163.96 142.75,-155.73"/>
<polygon fill="#63b8ff" stroke="#63b8ff" points="146.25,-155.81 142.75,-145.81 139.25,-155.81 146.25,-155.81"/>
</a>
</g>
</g>
<!-- Node6&#45;&gt;Node2 -->
<g id="edge8_Node000006_Node000002" class="edge">
<title>Node6&#45;&gt;Node2</title>
<g id="a_edge8_Node000006_Node000002"><a xlink:title=" ">
<path fill="none" stroke="#63b8ff" d="M98.03,-55.55C83.72,-46.61 65.78,-35.39 51.47,-26.45"/>
<polygon fill="#63b8ff" stroke="#63b8ff" points="53.42,-23.54 43.09,-21.21 49.71,-29.48 53.42,-23.54"/>
</a>
</g>
</g>
<!-- Node6&#45;&gt;Node3 -->
<g id="edge9_Node000006_Node000003" class="edge">
<title>Node6&#45;&gt;Node3</title>
<g id="a_edge9_Node000006_Node000003"><a xlink:title=" ">
<path fill="none" stroke="#63b8ff" d="M146.7,-55.55C160.56,-46.61 177.94,-35.39 191.8,-26.45"/>
<polygon fill="#63b8ff" stroke="#63b8ff" points="193.39,-29.59 199.9,-21.23 189.6,-23.71 193.39,-29.59"/>
</a>
</g>
</g>
<!-- Node7 -->
<g id="Node000007" class="node">
<title>Node7</title>
<g id="a_Node000007"><a xlink:title=" ">
<polygon fill="#e0e0e0" stroke="#999999" points="111.75,-20 71.75,-20 71.75,0 111.75,0 111.75,-20"/>
<text xml:space="preserve" text-anchor="middle" x="91.75" y="-6.5" font-family="Helvetica,sans-Serif" font-size="10.00">string</text>
</a>
</g>
</g>
<!-- Node6&#45;&gt;Node7 -->
<g id="edge6_Node000006_Node000007" class="edge">
<title>Node6&#45;&gt;Node7</title>
<g id="a_edge6_Node000006_Node000007"><a xlink:title=" ">
<path fill="none" stroke="#63b8ff" d="M114.77,-55.55C110.82,-47.91 106.02,-38.61 101.82,-30.49"/>
<polygon fill="#63b8ff" stroke="#63b8ff" points="105.01,-29.03 97.31,-21.75 98.79,-32.24 105.01,-29.03"/>
</a>
</g>
</g>
<!-- Node8 -->
<g id="Node000008" class="node">
<title>Node8</title>
<g id="a_Node000008"><a xlink:title=" ">
<polygon fill="#e0e0e0" stroke="#999999" points="173.25,-20 130.25,-20 130.25,0 173.25,0 173.25,-20"/>
<text xml:space="preserve" text-anchor="middle" x="151.75" y="-6.5" font-family="Helvetica,sans-Serif" font-size="10.00">vector</text>
</a>
</g>
</g>
<!-- Node6&#45;&gt;Node8 -->
<g id="edge7_Node000006_Node000008" class="edge">
<title>Node6&#45;&gt;Node8</title>
<g id="a_edge7_Node000006_Node000008"><a xlink:title=" ">
<path fill="none" stroke="#63b8ff" d="M130.22,-55.55C133.87,-48 138.3,-38.82 142.2,-30.77"/>
<polygon fill="#63b8ff" stroke="#63b8ff" points="145.34,-32.3 146.54,-21.77 139.04,-29.25 145.34,-32.3"/>
</a>
</g>
</g>
<!-- Node9&#45;&gt;Node6 -->
<g id="edge11_Node000009_Node000006" class="edge">
<title>Node9&#45;&gt;Node6</title>
<g id="a_edge11_Node000009_Node000006"><a xlink:title=" ">
<path fill="none" stroke="#63b8ff" d="M139.62,-123.62C137.4,-116.95 134.3,-107.64 131.36,-98.82"/>
<polygon fill="#63b8ff" stroke="#63b8ff" points="134.76,-97.96 128.28,-89.58 128.12,-100.17 134.76,-97.96"/>
</a>
</g>
</g>
</g>
</svg>
