<?xml version="1.0" encoding="UTF-8" standalone="no"?>
<!DOCTYPE svg PUBLIC "-//W3C//DTD SVG 1.1//EN"
 "http://www.w3.org/Graphics/SVG/1.1/DTD/svg11.dtd">
<!-- Generated by graphviz version 14.0.2 (20251019.1705)
 -->
<!-- Title: Games/Word_Tic_Tac_Toe/Word_Tic_Tac_Toe.h Pages: 1 -->
<svg width="246pt" height="108pt"
 viewBox="0.00 0.00 246.00 108.00" xmlns="http://www.w3.org/2000/svg" xmlns:xlink="http://www.w3.org/1999/xlink">
<g id="graph0" class="graph" transform="scale(1 1) rotate(0) translate(4 104)">
<title>Games/Word_Tic_Tac_Toe/Word_Tic_Tac_Toe.h</title>
<!-- Node1 -->
<g id="Node000001" class="node">
<title>Node1</title>
<g id="a_Node000001"><a xlink:title="Header for Word Tic&#45;Tac&#45;Toe board, AI, and UI.">
<polygon fill="#999999" stroke="#666666" points="200.75,-100 69.25,-100 69.25,-68 200.75,-68 200.75,-100"/>
<text xml:space="preserve" text-anchor="start" x="77.25" y="-86.5" font-family="Helvetica,sans-Serif" font-size="10.00">Games/Word_Tic_Tac</text>
<text xml:space="preserve" text-anchor="middle" x="135" y="-74.5" font-family="Helvetica,sans-Serif" font-size="10.00">_Toe/Word_Tic_Tac_Toe.h</text>
</a>
</g>
</g>
<!-- Node2 -->
<g id="Node000002" class="node">
<title>Node2</title>
<g id="a_Node000002"><a xlink:href="_word___tic___tac___toe_8cpp.html" target="_top" xlink:title=" ">
<polygon fill="white" stroke="#666666" points="142,-32 0,-32 0,0 142,0 142,-32"/>
<text xml:space="preserve" text-anchor="start" x="8" y="-18.5" font-family="Helvetica,sans-Serif" font-size="10.00">Games/Word_Tic_Tac</text>
<text xml:space="preserve" text-anchor="middle" x="71" y="-6.5" font-family="Helvetica,sans-Serif" font-size="10.00">_Toe/Word_Tic_Tac_Toe.cpp</text>
</a>
</g>
</g>
<!-- Node1&#45;&gt;Node2 -->
<g id="edge1_Node000001_Node000002" class="edge">
<title>Node1&#45;&gt;Node2</title>
<g id="a_edge1_Node000001_Node000002"><a xlink:title=" ">
<path fill="none" stroke="#63b8ff" d="M112.14,-59.43C103.37,-50.38 93.59,-40.29 85.76,-32.22"/>
<polygon fill="#63b8ff" stroke="#63b8ff" points="109.63,-61.86 119.1,-66.61 114.65,-56.99 109.63,-61.86"/>
</a>
</g>
</g>
<!-- Node3 -->
<g id="Node000003" class="node">
<title>Node3</title>
<g id="a_Node000003"><a xlink:href="_the_game_8cpp.html" target="_top" xlink:title=" ">
<polygon fill="white" stroke="#666666" points="237.75,-26 160.25,-26 160.25,-6 237.75,-6 237.75,-26"/>
<text xml:space="preserve" text-anchor="middle" x="199" y="-12.5" font-family="Helvetica,sans-Serif" font-size="10.00">TheGame.cpp</text>
</a>
</g>
</g>
<!-- Node1&#45;&gt;Node3 -->
<g id="edge2_Node000001_Node000003" class="edge">
<title>Node1&#45;&gt;Node3</title>
<g id="a_edge2_Node000001_Node000003"><a xlink:title=" ">
<path fill="none" stroke="#63b8ff" d="M157.59,-59.71C168.74,-48.2 181.58,-34.97 189.97,-26.32"/>
<polygon fill="#63b8ff" stroke="#63b8ff" points="155.35,-56.99 150.9,-66.61 160.37,-61.86 155.35,-56.99"/>
</a>
</g>
</g>
</g>
</svg>
