<?xml version="1.0" encoding="UTF-8" standalone="no"?>
<!DOCTYPE svg PUBLIC "-//W3C//DTD SVG 1.1//EN"
 "http://www.w3.org/Graphics/SVG/1.1/DTD/svg11.dtd">
<!-- Generated by graphviz version 14.0.2 (20251019.1705)
 -->
<!-- Title: Games/Word_Tic_Tac_Toe/Word_Tic_Tac_Toe.cpp Pages: 1 -->
<svg width="763pt" height="276pt"
 viewBox="0.00 0.00 763.00 276.00" xmlns="http://www.w3.org/2000/svg" xmlns:xlink="http://www.w3.org/1999/xlink">
<g id="graph0" class="graph" transform="scale(1 1) rotate(0) translate(4 272)">
<title>Games/Word_Tic_Tac_Toe/Word_Tic_Tac_Toe.cpp</title>
<!-- Node1 -->
<g id="Node000001" class="node">
<title>Node1</title>
<g id="a_Node000001"><a xlink:title=" ">
<polygon fill="#999999" stroke="#666666" points="575,-268 433,-268 433,-236 575,-236 575,-268"/>
<text xml:space="preserve" text-anchor="start" x="441" y="-254.5" font-family="Helvetica,sans-Serif" font-size="10.00">Games/Word_Tic_Tac</text>
<text xml:space="preserve" text-anchor="middle" x="504" y="-242.5" font-family="Helvetica,sans-Serif" font-size="10.00">_Toe/Word_Tic_Tac_Toe.cpp</text>
</a>
</g>
</g>
<!-- Node2 -->
<g id="Node000002" class="node">
<title>Node2</title>
<g id="a_Node000002"><a xlink:href="_word___tic___tac___toe_8h.html" target="_top" xlink:title="Header for Word Tic&#45;Tac&#45;Toe board, AI, and UI.">
<polygon fill="white" stroke="#666666" points="297.75,-200 190.25,-200 190.25,-180 297.75,-180 297.75,-200"/>
<text xml:space="preserve" text-anchor="middle" x="244" y="-186.5" font-family="Helvetica,sans-Serif" font-size="10.00">Word_Tic_Tac_Toe.h</text>
</a>
</g>
</g>
<!-- Node1&#45;&gt;Node2 -->
<g id="edge1_Node000001_Node000002" class="edge">
<title>Node1&#45;&gt;Node2</title>
<g id="a_edge1_Node000001_Node000002"><a xlink:title=" ">
<path fill="none" stroke="#63b8ff" d="M437.04,-235.55C393.17,-225.42 336.66,-212.38 296.13,-203.03"/>
<polygon fill="#63b8ff" stroke="#63b8ff" points="297.16,-199.67 286.63,-200.84 295.58,-206.5 297.16,-199.67"/>
</a>
</g>
</g>
<!-- Node6 -->
<g id="Node000006" class="node">
<title>Node6</title>
<g id="a_Node000006"><a xlink:title=" ">
<polygon fill="#e0e0e0" stroke="#999999" points="336.75,-20 283.25,-20 283.25,0 336.75,0 336.75,-20"/>
<text xml:space="preserve" text-anchor="middle" x="310" y="-6.5" font-family="Helvetica,sans-Serif" font-size="10.00">iostream</text>
</a>
</g>
</g>
<!-- Node1&#45;&gt;Node6 -->
<g id="edge17_Node000001_Node000006" class="edge">
<title>Node1&#45;&gt;Node6</title>
<g id="a_edge17_Node000001_Node000006"><a xlink:title=" ">
<path fill="none" stroke="#63b8ff" d="M479.26,-235.52C466.1,-226.37 450.34,-213.89 439,-200 415.12,-170.74 421.4,-155.78 401,-124 378,-88.18 345.71,-50.41 326.42,-28.87"/>
<polygon fill="#63b8ff" stroke="#63b8ff" points="329.1,-26.62 319.8,-21.56 323.91,-31.32 329.1,-26.62"/>
</a>
</g>
</g>
<!-- Node11 -->
<g id="Node000011" class="node">
<title>Node11</title>
<g id="a_Node000011"><a xlink:title=" ">
<polygon fill="#e0e0e0" stroke="#999999" points="391.75,-144 362.25,-144 362.25,-124 391.75,-124 391.75,-144"/>
<text xml:space="preserve" text-anchor="middle" x="377" y="-130.5" font-family="Helvetica,sans-Serif" font-size="10.00">set</text>
</a>
</g>
</g>
<!-- Node1&#45;&gt;Node11 -->
<g id="edge20_Node000001_Node000011" class="edge">
<title>Node1&#45;&gt;Node11</title>
<g id="a_edge20_Node000001_Node000011"><a xlink:title=" ">
<path fill="none" stroke="#63b8ff" d="M459.84,-235.59C441.32,-227.36 420.73,-215.64 406,-200 394.08,-187.34 386.5,-168.95 382.09,-154.96"/>
<polygon fill="#63b8ff" stroke="#63b8ff" points="385.51,-154.18 379.42,-145.51 378.77,-156.08 385.51,-154.18"/>
</a>
</g>
</g>
<!-- Node12 -->
<g id="Node000012" class="node">
<title>Node12</title>
<g id="a_Node000012"><a xlink:title=" ">
<polygon fill="#e0e0e0" stroke="#999999" points="496.12,-200 447.88,-200 447.88,-180 496.12,-180 496.12,-200"/>
<text xml:space="preserve" text-anchor="middle" x="472" y="-186.5" font-family="Helvetica,sans-Serif" font-size="10.00">random</text>
</a>
</g>
</g>
<!-- Node1&#45;&gt;Node12 -->
<g id="edge18_Node000001_Node000012" class="edge">
<title>Node1&#45;&gt;Node12</title>
<g id="a_edge18_Node000001_Node000012"><a xlink:title=" ">
<path fill="none" stroke="#63b8ff" d="M495.76,-235.55C491.69,-227.91 486.73,-218.61 482.39,-210.49"/>
<polygon fill="#63b8ff" stroke="#63b8ff" points="485.52,-208.92 477.73,-201.74 479.35,-212.21 485.52,-208.92"/>
</a>
</g>
</g>
<!-- Node13 -->
<g id="Node000013" class="node">
<title>Node13</title>
<g id="a_Node000013"><a xlink:title=" ">
<polygon fill="#e0e0e0" stroke="#999999" points="559.62,-200 514.38,-200 514.38,-180 559.62,-180 559.62,-200"/>
<text xml:space="preserve" text-anchor="middle" x="537" y="-186.5" font-family="Helvetica,sans-Serif" font-size="10.00">cstdint</text>
</a>
</g>
</g>
<!-- Node1&#45;&gt;Node13 -->
<g id="edge19_Node000001_Node000013" class="edge">
<title>Node1&#45;&gt;Node13</title>
<g id="a_edge19_Node000001_Node000013"><a xlink:title=" ">
<path fill="none" stroke="#63b8ff" d="M512.5,-235.55C516.7,-227.91 521.81,-218.61 526.28,-210.49"/>
<polygon fill="#63b8ff" stroke="#63b8ff" points="529.34,-212.18 531.1,-201.73 523.21,-208.81 529.34,-212.18"/>
</a>
</g>
</g>
<!-- Node14 -->
<g id="Node000014" class="node">
<title>Node14</title>
<g id="a_Node000014"><a xlink:title=" ">
<polygon fill="#e0e0e0" stroke="#999999" points="626.5,-200 577.5,-200 577.5,-180 626.5,-180 626.5,-200"/>
<text xml:space="preserve" text-anchor="middle" x="602" y="-186.5" font-family="Helvetica,sans-Serif" font-size="10.00">fstream</text>
</a>
</g>
</g>
<!-- Node1&#45;&gt;Node14 -->
<g id="edge21_Node000001_Node000014" class="edge">
<title>Node1&#45;&gt;Node14</title>
<g id="a_edge21_Node000001_Node000014"><a xlink:title=" ">
<path fill="none" stroke="#63b8ff" d="M529.24,-235.55C543.98,-226.52 562.52,-215.17 577.19,-206.19"/>
<polygon fill="#63b8ff" stroke="#63b8ff" points="578.64,-209.4 585.34,-201.2 574.99,-203.43 578.64,-209.4"/>
</a>
</g>
</g>
<!-- Node15 -->
<g id="Node000015" class="node">
<title>Node15</title>
<g id="a_Node000015"><a xlink:title=" ">
<polygon fill="#e0e0e0" stroke="#999999" points="681.5,-200 644.5,-200 644.5,-180 681.5,-180 681.5,-200"/>
<text xml:space="preserve" text-anchor="middle" x="663" y="-186.5" font-family="Helvetica,sans-Serif" font-size="10.00">tuple</text>
</a>
</g>
</g>
<!-- Node1&#45;&gt;Node15 -->
<g id="edge22_Node000001_Node000015" class="edge">
<title>Node1&#45;&gt;Node15</title>
<g id="a_edge22_Node000001_Node000015"><a xlink:title=" ">
<path fill="none" stroke="#63b8ff" d="M544.95,-235.55C572.71,-225.07 608.76,-211.47 633.68,-202.06"/>
<polygon fill="#63b8ff" stroke="#63b8ff" points="634.74,-205.4 642.86,-198.6 632.27,-198.86 634.74,-205.4"/>
</a>
</g>
</g>
<!-- Node16 -->
<g id="Node000016" class="node">
<title>Node16</title>
<g id="a_Node000016"><a xlink:title=" ">
<polygon fill="#e0e0e0" stroke="#999999" points="754.88,-200 699.12,-200 699.12,-180 754.88,-180 754.88,-200"/>
<text xml:space="preserve" text-anchor="middle" x="727" y="-186.5" font-family="Helvetica,sans-Serif" font-size="10.00">algorithm</text>
</a>
</g>
</g>
<!-- Node1&#45;&gt;Node16 -->
<g id="edge23_Node000001_Node000016" class="edge">
<title>Node1&#45;&gt;Node16</title>
<g id="a_edge23_Node000001_Node000016"><a xlink:title=" ">
<path fill="none" stroke="#63b8ff" d="M561.43,-235.55C601.14,-224.86 652.92,-210.93 687.92,-201.52"/>
<polygon fill="#63b8ff" stroke="#63b8ff" points="688.45,-205 697.19,-199.02 686.63,-198.24 688.45,-205"/>
</a>
</g>
</g>
<!-- Node3 -->
<g id="Node000003" class="node">
<title>Node3</title>
<g id="a_Node000003"><a xlink:href="_board_game___classes_8h.html" target="_top" xlink:title=" ">
<polygon fill="white" stroke="#666666" points="154,-88 36,-88 36,-56 154,-56 154,-88"/>
<text xml:space="preserve" text-anchor="start" x="44" y="-74.5" font-family="Helvetica,sans-Serif" font-size="10.00">../../header/BoardGame</text>
<text xml:space="preserve" text-anchor="middle" x="95" y="-62.5" font-family="Helvetica,sans-Serif" font-size="10.00">_Classes.h</text>
</a>
</g>
</g>
<!-- Node2&#45;&gt;Node3 -->
<g id="edge2_Node000002_Node000003" class="edge">
<title>Node2&#45;&gt;Node3</title>
<g id="a_edge2_Node000002_Node000003"><a xlink:title=" ">
<path fill="none" stroke="#63b8ff" d="M227.39,-179.58C212.65,-170.97 190.75,-157.54 173,-144 153.65,-129.24 133.37,-110.67 118.33,-96.22"/>
<polygon fill="#63b8ff" stroke="#63b8ff" points="120.83,-93.77 111.22,-89.3 115.95,-98.79 120.83,-93.77"/>
</a>
</g>
</g>
<!-- Node4 -->
<g id="Node000004" class="node">
<title>Node4</title>
<g id="a_Node000004"><a xlink:title=" ">
<polygon fill="#e0e0e0" stroke="#999999" points="40,-20 0,-20 0,0 40,0 40,-20"/>
<text xml:space="preserve" text-anchor="middle" x="20" y="-6.5" font-family="Helvetica,sans-Serif" font-size="10.00">string</text>
</a>
</g>
</g>
<!-- Node2&#45;&gt;Node4 -->
<g id="edge15_Node000002_Node000004" class="edge">
<title>Node2&#45;&gt;Node4</title>
<g id="a_edge15_Node000002_Node000004"><a xlink:title=" ">
<path fill="none" stroke="#63b8ff" d="M189.8,-184.58C134.38,-178.86 53.57,-166.81 33,-144 5.12,-113.08 9.94,-60.16 15.31,-31.27"/>
<polygon fill="#63b8ff" stroke="#63b8ff" points="18.7,-32.16 17.32,-21.66 11.85,-30.73 18.7,-32.16"/>
</a>
</g>
</g>
<!-- Node5 -->
<g id="Node000005" class="node">
<title>Node5</title>
<g id="a_Node000005"><a xlink:title=" ">
<polygon fill="#e0e0e0" stroke="#999999" points="265.5,-20 222.5,-20 222.5,0 265.5,0 265.5,-20"/>
<text xml:space="preserve" text-anchor="middle" x="244" y="-6.5" font-family="Helvetica,sans-Serif" font-size="10.00">vector</text>
</a>
</g>
</g>
<!-- Node2&#45;&gt;Node5 -->
<g id="edge16_Node000002_Node000005" class="edge">
<title>Node2&#45;&gt;Node5</title>
<g id="a_edge16_Node000002_Node000005"><a xlink:title=" ">
<path fill="none" stroke="#63b8ff" d="M270.94,-179.6C286.85,-172.49 305.64,-161.01 315,-144 319.28,-136.21 317.46,-132.54 315,-124 304.27,-86.74 277.22,-49.9 259.78,-28.86"/>
<polygon fill="#63b8ff" stroke="#63b8ff" points="262.67,-26.85 253.52,-21.51 257.34,-31.39 262.67,-26.85"/>
</a>
</g>
</g>
<!-- Node8 -->
<g id="Node000008" class="node">
<title>Node8</title>
<g id="a_Node000008"><a xlink:href="_custom___u_i_8h.html" target="_top" xlink:title="Defines a customizable user interface for board games.">
<polygon fill="white" stroke="#666666" points="306.38,-144 181.62,-144 181.62,-124 306.38,-124 306.38,-144"/>
<text xml:space="preserve" text-anchor="middle" x="244" y="-130.5" font-family="Helvetica,sans-Serif" font-size="10.00">../../header/Custom_UI.h</text>
</a>
</g>
</g>
<!-- Node2&#45;&gt;Node8 -->
<g id="edge7_Node000002_Node000008" class="edge">
<title>Node2&#45;&gt;Node8</title>
<g id="a_edge7_Node000002_Node000008"><a xlink:title=" ">
<path fill="none" stroke="#63b8ff" d="M244,-179.59C244,-173.01 244,-163.96 244,-155.73"/>
<polygon fill="#63b8ff" stroke="#63b8ff" points="247.5,-155.81 244,-145.81 240.5,-155.81 247.5,-155.81"/>
</a>
</g>
</g>
<!-- Node10 -->
<g id="Node000010" class="node">
<title>Node10</title>
<g id="a_Node000010"><a xlink:href="_a_i_8h.html" target="_top" xlink:title=" ">
<polygon fill="white" stroke="#666666" points="126.12,-144 41.88,-144 41.88,-124 126.12,-124 126.12,-144"/>
<text xml:space="preserve" text-anchor="middle" x="84" y="-130.5" font-family="Helvetica,sans-Serif" font-size="10.00">../../header/AI.h</text>
</a>
</g>
</g>
<!-- Node2&#45;&gt;Node10 -->
<g id="edge12_Node000002_Node000010" class="edge">
<title>Node2&#45;&gt;Node10</title>
<g id="a_edge12_Node000002_Node000010"><a xlink:title=" ">
<path fill="none" stroke="#63b8ff" d="M216.13,-179.59C190.25,-170.86 151.47,-157.77 122.61,-148.03"/>
<polygon fill="#63b8ff" stroke="#63b8ff" points="124.12,-144.85 113.52,-144.96 121.88,-151.48 124.12,-144.85"/>
</a>
</g>
</g>
<!-- Node2&#45;&gt;Node11 -->
<g id="edge14_Node000002_Node000011" class="edge">
<title>Node2&#45;&gt;Node11</title>
<g id="a_edge14_Node000002_Node000011"><a xlink:title=" ">
<path fill="none" stroke="#63b8ff" d="M267.17,-179.59C290.68,-170.05 327,-155.3 351.37,-145.41"/>
<polygon fill="#63b8ff" stroke="#63b8ff" points="352.59,-148.69 360.54,-141.68 349.96,-142.2 352.59,-148.69"/>
</a>
</g>
</g>
<!-- Node3&#45;&gt;Node4 -->
<g id="edge3_Node000003_Node000004" class="edge">
<title>Node3&#45;&gt;Node4</title>
<g id="a_edge3_Node000003_Node000004"><a xlink:title=" ">
<path fill="none" stroke="#63b8ff" d="M75.69,-55.55C64.94,-46.95 51.57,-36.26 40.63,-27.5"/>
<polygon fill="#63b8ff" stroke="#63b8ff" points="42.94,-24.87 32.94,-21.35 38.56,-30.33 42.94,-24.87"/>
</a>
</g>
</g>
<!-- Node3&#45;&gt;Node5 -->
<g id="edge4_Node000003_Node000005" class="edge">
<title>Node3&#45;&gt;Node5</title>
<g id="a_edge4_Node000003_Node000005"><a xlink:title=" ">
<path fill="none" stroke="#63b8ff" d="M133.37,-55.55C157.68,-45.76 188.75,-33.25 211.77,-23.98"/>
<polygon fill="#63b8ff" stroke="#63b8ff" points="212.99,-27.26 220.96,-20.28 210.38,-20.77 212.99,-27.26"/>
</a>
</g>
</g>
<!-- Node3&#45;&gt;Node6 -->
<g id="edge5_Node000003_Node000006" class="edge">
<title>Node3&#45;&gt;Node6</title>
<g id="a_edge5_Node000003_Node000006"><a xlink:title=" ">
<path fill="none" stroke="#63b8ff" d="M150.37,-55.55C188.6,-44.88 238.43,-30.97 272.18,-21.56"/>
<polygon fill="#63b8ff" stroke="#63b8ff" points="272.82,-25.01 281.51,-18.95 270.93,-18.27 272.82,-25.01"/>
</a>
</g>
</g>
<!-- Node7 -->
<g id="Node000007" class="node">
<title>Node7</title>
<g id="a_Node000007"><a xlink:title=" ">
<polygon fill="#e0e0e0" stroke="#999999" points="119.88,-20 70.12,-20 70.12,0 119.88,0 119.88,-20"/>
<text xml:space="preserve" text-anchor="middle" x="95" y="-6.5" font-family="Helvetica,sans-Serif" font-size="10.00">iomanip</text>
</a>
</g>
</g>
<!-- Node3&#45;&gt;Node7 -->
<g id="edge6_Node000003_Node000007" class="edge">
<title>Node3&#45;&gt;Node7</title>
<g id="a_edge6_Node000003_Node000007"><a xlink:title=" ">
<path fill="none" stroke="#63b8ff" d="M95,-55.55C95,-48.34 95,-39.66 95,-31.88"/>
<polygon fill="#63b8ff" stroke="#63b8ff" points="98.5,-31.92 95,-21.92 91.5,-31.92 98.5,-31.92"/>
</a>
</g>
</g>
<!-- Node8&#45;&gt;Node3 -->
<g id="edge8_Node000008_Node000003" class="edge">
<title>Node8&#45;&gt;Node3</title>
<g id="a_edge8_Node000008_Node000003"><a xlink:title=" ">
<path fill="none" stroke="#63b8ff" d="M220.72,-123.62C200.22,-115.37 169.68,-103.07 143.84,-92.67"/>
<polygon fill="#63b8ff" stroke="#63b8ff" points="145.46,-89.54 134.87,-89.06 142.84,-96.04 145.46,-89.54"/>
</a>
</g>
</g>
<!-- Node8&#45;&gt;Node5 -->
<g id="edge10_Node000008_Node000005" class="edge">
<title>Node8&#45;&gt;Node5</title>
<g id="a_edge10_Node000008_Node000005"><a xlink:title=" ">
<path fill="none" stroke="#63b8ff" d="M244,-123.83C244,-104.4 244,-58.67 244,-31.77"/>
<polygon fill="#63b8ff" stroke="#63b8ff" points="247.5,-31.79 244,-21.79 240.5,-31.79 247.5,-31.79"/>
</a>
</g>
</g>
<!-- Node8&#45;&gt;Node6 -->
<g id="edge9_Node000008_Node000006" class="edge">
<title>Node8&#45;&gt;Node6</title>
<g id="a_edge9_Node000008_Node000006"><a xlink:title=" ">
<path fill="none" stroke="#63b8ff" d="M248.96,-123.83C259.66,-104.05 285.12,-57 299.55,-30.32"/>
<polygon fill="#63b8ff" stroke="#63b8ff" points="302.58,-32.07 304.26,-21.61 296.42,-28.74 302.58,-32.07"/>
</a>
</g>
</g>
<!-- Node9 -->
<g id="Node000009" class="node">
<title>Node9</title>
<g id="a_Node000009"><a xlink:title=" ">
<polygon fill="#e0e0e0" stroke="#999999" points="230.38,-82 171.62,-82 171.62,-62 230.38,-62 230.38,-82"/>
<text xml:space="preserve" text-anchor="middle" x="201" y="-68.5" font-family="Helvetica,sans-Serif" font-size="10.00">stdexcept</text>
</a>
</g>
</g>
<!-- Node8&#45;&gt;Node9 -->
<g id="edge11_Node000008_Node000009" class="edge">
<title>Node8&#45;&gt;Node9</title>
<g id="a_edge11_Node000008_Node000009"><a xlink:title=" ">
<path fill="none" stroke="#63b8ff" d="M237.28,-123.62C231.12,-115.03 221.83,-102.07 214.19,-91.41"/>
<polygon fill="#63b8ff" stroke="#63b8ff" points="217.08,-89.43 208.41,-83.34 211.39,-93.51 217.08,-89.43"/>
</a>
</g>
</g>
<!-- Node10&#45;&gt;Node3 -->
<g id="edge13_Node000010_Node000003" class="edge">
<title>Node10&#45;&gt;Node3</title>
<g id="a_edge13_Node000010_Node000003"><a xlink:title=" ">
<path fill="none" stroke="#63b8ff" d="M85.72,-123.62C86.92,-117.1 88.57,-108.05 90.16,-99.4"/>
<polygon fill="#63b8ff" stroke="#63b8ff" points="93.59,-100.1 91.95,-89.63 86.71,-98.83 93.59,-100.1"/>
</a>
</g>
</g>
</g>
</svg>
