<?xml version="1.0" encoding="UTF-8" standalone="no"?>
<!DOCTYPE svg PUBLIC "-//W3C//DTD SVG 1.1//EN"
 "http://www.w3.org/Graphics/SVG/1.1/DTD/svg11.dtd">
<!-- Generated by graphviz version 14.0.2 (20251019.1705)
 -->
<!-- Title: Games/Word_Tic_Tac_Toe/Word_Tic_Tac_Toe.cpp Pages: 1 -->
<svg width="710pt" height="276pt"
 viewBox="0.00 0.00 710.00 276.00" xmlns="http://www.w3.org/2000/svg" xmlns:xlink="http://www.w3.org/1999/xlink">
<g id="graph0" class="graph" transform="scale(1 1) rotate(0) translate(4 272)">
<title>Games/Word_Tic_Tac_Toe/Word_Tic_Tac_Toe.cpp</title>
<!-- Node1 -->
<g id="Node000001" class="node">
<title>Node1</title>
<g id="a_Node000001"><a xlink:title=" ">
<polygon fill="#999999" stroke="#666666" points="534.88,-268 392.88,-268 392.88,-236 534.88,-236 534.88,-268"/>
<text xml:space="preserve" text-anchor="start" x="400.88" y="-254.5" font-family="Helvetica,sans-Serif" font-size="10.00">Games/Word_Tic_Tac</text>
<text xml:space="preserve" text-anchor="middle" x="463.88" y="-242.5" font-family="Helvetica,sans-Serif" font-size="10.00">_Toe/Word_Tic_Tac_Toe.cpp</text>
</a>
</g>
</g>
<!-- Node2 -->
<g id="Node000002" class="node">
<title>Node2</title>
<g id="a_Node000002"><a xlink:href="$_word___tic___tac___toe_8h.html" xlink:title="Header file for the Word&#45;based Tic&#45;Tac&#45;Toe board, AI, and UI modules.">
<polygon fill="white" stroke="#666666" points="233.62,-200 126.12,-200 126.12,-180 233.62,-180 233.62,-200"/>
<text xml:space="preserve" text-anchor="middle" x="179.88" y="-186.5" font-family="Helvetica,sans-Serif" font-size="10.00">Word_Tic_Tac_Toe.h</text>
</a>
</g>
</g>
<!-- Node1&#45;&gt;Node2 -->
<g id="edge1_Node000001_Node000002" class="edge">
<title>Node1&#45;&gt;Node2</title>
<g id="a_edge1_Node000001_Node000002"><a xlink:title=" ">
<path fill="none" stroke="#63b8ff" d="M392.58,-235.94C343.95,-225.66 280.48,-212.26 235.57,-202.77"/>
<polygon fill="#63b8ff" stroke="#63b8ff" points="236.56,-199.4 226.05,-200.76 235.11,-206.25 236.56,-199.4"/>
</a>
</g>
</g>
<!-- Node6 -->
<g id="Node000006" class="node">
<title>Node6</title>
<g id="a_Node000006"><a xlink:title=" ">
<polygon fill="#e0e0e0" stroke="#999999" points="308.62,-20 255.12,-20 255.12,0 308.62,0 308.62,-20"/>
<text xml:space="preserve" text-anchor="middle" x="281.88" y="-6.5" font-family="Helvetica,sans-Serif" font-size="10.00">iostream</text>
</a>
</g>
</g>
<!-- Node1&#45;&gt;Node6 -->
<g id="edge14_Node000001_Node000006" class="edge">
<title>Node1&#45;&gt;Node6</title>
<g id="a_edge14_Node000001_Node000006"><a xlink:title=" ">
<path fill="none" stroke="#63b8ff" d="M395.84,-235.52C375.16,-227.86 353.94,-216.56 338.88,-200 294.53,-151.26 284.64,-69.12 282.47,-31.25"/>
<polygon fill="#63b8ff" stroke="#63b8ff" points="285.99,-31.56 282.05,-21.72 278.99,-31.87 285.99,-31.56"/>
</a>
</g>
</g>
<!-- Node11 -->
<g id="Node000011" class="node">
<title>Node11</title>
<g id="a_Node000011"><a xlink:title=" ">
<polygon fill="#e0e0e0" stroke="#999999" points="396,-200 347.75,-200 347.75,-180 396,-180 396,-200"/>
<text xml:space="preserve" text-anchor="middle" x="371.88" y="-186.5" font-family="Helvetica,sans-Serif" font-size="10.00">random</text>
</a>
</g>
</g>
<!-- Node1&#45;&gt;Node11 -->
<g id="edge15_Node000001_Node000011" class="edge">
<title>Node1&#45;&gt;Node11</title>
<g id="a_edge15_Node000001_Node000011"><a xlink:title=" ">
<path fill="none" stroke="#63b8ff" d="M440.18,-235.55C426.47,-226.61 409.28,-215.39 395.57,-206.45"/>
<polygon fill="#63b8ff" stroke="#63b8ff" points="397.86,-203.77 387.57,-201.23 394.03,-209.63 397.86,-203.77"/>
</a>
</g>
</g>
<!-- Node12 -->
<g id="Node000012" class="node">
<title>Node12</title>
<g id="a_Node000012"><a xlink:title=" ">
<polygon fill="#e0e0e0" stroke="#999999" points="459.5,-200 414.25,-200 414.25,-180 459.5,-180 459.5,-200"/>
<text xml:space="preserve" text-anchor="middle" x="436.88" y="-186.5" font-family="Helvetica,sans-Serif" font-size="10.00">cstdint</text>
</a>
</g>
</g>
<!-- Node1&#45;&gt;Node12 -->
<g id="edge16_Node000001_Node000012" class="edge">
<title>Node1&#45;&gt;Node12</title>
<g id="a_edge16_Node000001_Node000012"><a xlink:title=" ">
<path fill="none" stroke="#63b8ff" d="M456.92,-235.55C453.52,-228 449.39,-218.82 445.77,-210.77"/>
<polygon fill="#63b8ff" stroke="#63b8ff" points="449.03,-209.47 441.73,-201.79 442.64,-212.34 449.03,-209.47"/>
</a>
</g>
</g>
<!-- Node13 -->
<g id="Node000013" class="node">
<title>Node13</title>
<g id="a_Node000013"><a xlink:title=" ">
<polygon fill="#e0e0e0" stroke="#999999" points="506.62,-200 477.12,-200 477.12,-180 506.62,-180 506.62,-200"/>
<text xml:space="preserve" text-anchor="middle" x="491.88" y="-186.5" font-family="Helvetica,sans-Serif" font-size="10.00">set</text>
</a>
</g>
</g>
<!-- Node1&#45;&gt;Node13 -->
<g id="edge17_Node000001_Node000013" class="edge">
<title>Node1&#45;&gt;Node13</title>
<g id="a_edge17_Node000001_Node000013"><a xlink:title=" ">
<path fill="none" stroke="#63b8ff" d="M471.09,-235.55C474.61,-228 478.89,-218.82 482.65,-210.77"/>
<polygon fill="#63b8ff" stroke="#63b8ff" points="485.79,-212.32 486.84,-201.78 479.44,-209.36 485.79,-212.32"/>
</a>
</g>
</g>
<!-- Node14 -->
<g id="Node000014" class="node">
<title>Node14</title>
<g id="a_Node000014"><a xlink:title=" ">
<polygon fill="#e0e0e0" stroke="#999999" points="573.38,-200 524.38,-200 524.38,-180 573.38,-180 573.38,-200"/>
<text xml:space="preserve" text-anchor="middle" x="548.88" y="-186.5" font-family="Helvetica,sans-Serif" font-size="10.00">fstream</text>
</a>
</g>
</g>
<!-- Node1&#45;&gt;Node14 -->
<g id="edge18_Node000001_Node000014" class="edge">
<title>Node1&#45;&gt;Node14</title>
<g id="a_edge18_Node000001_Node000014"><a xlink:title=" ">
<path fill="none" stroke="#63b8ff" d="M485.76,-235.55C498.18,-226.78 513.7,-215.83 526.24,-206.97"/>
<polygon fill="#63b8ff" stroke="#63b8ff" points="528.16,-209.91 534.31,-201.28 524.12,-204.19 528.16,-209.91"/>
</a>
</g>
</g>
<!-- Node15 -->
<g id="Node000015" class="node">
<title>Node15</title>
<g id="a_Node000015"><a xlink:title=" ">
<polygon fill="#e0e0e0" stroke="#999999" points="628.38,-200 591.38,-200 591.38,-180 628.38,-180 628.38,-200"/>
<text xml:space="preserve" text-anchor="middle" x="609.88" y="-186.5" font-family="Helvetica,sans-Serif" font-size="10.00">tuple</text>
</a>
</g>
</g>
<!-- Node1&#45;&gt;Node15 -->
<g id="edge19_Node000001_Node000015" class="edge">
<title>Node1&#45;&gt;Node15</title>
<g id="a_edge19_Node000001_Node000015"><a xlink:title=" ">
<path fill="none" stroke="#63b8ff" d="M501.47,-235.55C526.16,-225.4 557.97,-212.33 580.74,-202.97"/>
<polygon fill="#63b8ff" stroke="#63b8ff" points="581.8,-206.32 589.72,-199.28 579.14,-199.85 581.8,-206.32"/>
</a>
</g>
</g>
<!-- Node16 -->
<g id="Node000016" class="node">
<title>Node16</title>
<g id="a_Node000016"><a xlink:title=" ">
<polygon fill="#e0e0e0" stroke="#999999" points="701.75,-200 646,-200 646,-180 701.75,-180 701.75,-200"/>
<text xml:space="preserve" text-anchor="middle" x="673.88" y="-186.5" font-family="Helvetica,sans-Serif" font-size="10.00">algorithm</text>
</a>
</g>
</g>
<!-- Node1&#45;&gt;Node16 -->
<g id="edge20_Node000001_Node000016" class="edge">
<title>Node1&#45;&gt;Node16</title>
<g id="a_edge20_Node000001_Node000016"><a xlink:title=" ">
<path fill="none" stroke="#63b8ff" d="M517.96,-235.55C554.48,-225.11 601.86,-211.58 634.75,-202.18"/>
<polygon fill="#63b8ff" stroke="#63b8ff" points="635.64,-205.57 644.29,-199.45 633.71,-198.84 635.64,-205.57"/>
</a>
</g>
</g>
<!-- Node3 -->
<g id="Node000003" class="node">
<title>Node3</title>
<g id="a_Node000003"><a xlink:href="$_board_game___classes_8h.html" xlink:title=" ">
<polygon fill="white" stroke="#666666" points="139.88,-88 21.88,-88 21.88,-56 139.88,-56 139.88,-88"/>
<text xml:space="preserve" text-anchor="start" x="29.88" y="-74.5" font-family="Helvetica,sans-Serif" font-size="10.00">../../header/BoardGame</text>
<text xml:space="preserve" text-anchor="middle" x="80.88" y="-62.5" font-family="Helvetica,sans-Serif" font-size="10.00">_Classes.h</text>
</a>
</g>
</g>
<!-- Node2&#45;&gt;Node3 -->
<g id="edge2_Node000002_Node000003" class="edge">
<title>Node2&#45;&gt;Node3</title>
<g id="a_edge2_Node000002_Node000003"><a xlink:title=" ">
<path fill="none" stroke="#63b8ff" d="M171.77,-179.51C156.56,-161.68 123.27,-122.68 101.48,-97.15"/>
<polygon fill="#63b8ff" stroke="#63b8ff" points="104.17,-94.9 95.01,-89.56 98.84,-99.44 104.17,-94.9"/>
</a>
</g>
</g>
<!-- Node8 -->
<g id="Node000008" class="node">
<title>Node8</title>
<g id="a_Node000008"><a xlink:href="$_custom___u_i_8h.html" xlink:title="Defines a customizable user interface for board games.">
<polygon fill="white" stroke="#666666" points="287.25,-144 162.5,-144 162.5,-124 287.25,-124 287.25,-144"/>
<text xml:space="preserve" text-anchor="middle" x="224.88" y="-130.5" font-family="Helvetica,sans-Serif" font-size="10.00">../../header/Custom_UI.h</text>
</a>
</g>
</g>
<!-- Node2&#45;&gt;Node8 -->
<g id="edge7_Node000002_Node000008" class="edge">
<title>Node2&#45;&gt;Node8</title>
<g id="a_edge7_Node000002_Node000008"><a xlink:title=" ">
<path fill="none" stroke="#63b8ff" d="M187.71,-179.59C193.84,-172.24 202.55,-161.8 209.99,-152.87"/>
<polygon fill="#63b8ff" stroke="#63b8ff" points="212.44,-155.38 216.16,-145.46 207.07,-150.9 212.44,-155.38"/>
</a>
</g>
</g>
<!-- Node10 -->
<g id="Node000010" class="node">
<title>Node10</title>
<g id="a_Node000010"><a xlink:href="$_a_i_8h.html" xlink:title=" ">
<polygon fill="white" stroke="#666666" points="107,-144 22.75,-144 22.75,-124 107,-124 107,-144"/>
<text xml:space="preserve" text-anchor="middle" x="64.88" y="-130.5" font-family="Helvetica,sans-Serif" font-size="10.00">../../header/AI.h</text>
</a>
</g>
</g>
<!-- Node2&#45;&gt;Node10 -->
<g id="edge12_Node000002_Node000010" class="edge">
<title>Node2&#45;&gt;Node10</title>
<g id="a_edge12_Node000002_Node000010"><a xlink:title=" ">
<path fill="none" stroke="#63b8ff" d="M159.84,-179.59C142.06,-171.24 115.81,-158.92 95.41,-149.34"/>
<polygon fill="#63b8ff" stroke="#63b8ff" points="96.97,-146.21 86.43,-145.12 94,-152.54 96.97,-146.21"/>
</a>
</g>
</g>
<!-- Node4 -->
<g id="Node000004" class="node">
<title>Node4</title>
<g id="a_Node000004"><a xlink:title=" ">
<polygon fill="#e0e0e0" stroke="#999999" points="107.88,-20 67.88,-20 67.88,0 107.88,0 107.88,-20"/>
<text xml:space="preserve" text-anchor="middle" x="87.88" y="-6.5" font-family="Helvetica,sans-Serif" font-size="10.00">string</text>
</a>
</g>
</g>
<!-- Node3&#45;&gt;Node4 -->
<g id="edge3_Node000003_Node000004" class="edge">
<title>Node3&#45;&gt;Node4</title>
<g id="a_edge3_Node000003_Node000004"><a xlink:title=" ">
<path fill="none" stroke="#63b8ff" d="M82.68,-55.55C83.53,-48.26 84.56,-39.45 85.47,-31.6"/>
<polygon fill="#63b8ff" stroke="#63b8ff" points="88.92,-32.25 86.6,-21.91 81.97,-31.44 88.92,-32.25"/>
</a>
</g>
</g>
<!-- Node5 -->
<g id="Node000005" class="node">
<title>Node5</title>
<g id="a_Node000005"><a xlink:title=" ">
<polygon fill="#e0e0e0" stroke="#999999" points="182.38,-20 139.38,-20 139.38,0 182.38,0 182.38,-20"/>
<text xml:space="preserve" text-anchor="middle" x="160.88" y="-6.5" font-family="Helvetica,sans-Serif" font-size="10.00">vector</text>
</a>
</g>
</g>
<!-- Node3&#45;&gt;Node5 -->
<g id="edge4_Node000003_Node000005" class="edge">
<title>Node3&#45;&gt;Node5</title>
<g id="a_edge4_Node000003_Node000005"><a xlink:title=" ">
<path fill="none" stroke="#63b8ff" d="M101.48,-55.55C113.05,-46.87 127.48,-36.04 139.22,-27.24"/>
<polygon fill="#63b8ff" stroke="#63b8ff" points="141.22,-30.12 147.12,-21.32 137.02,-24.52 141.22,-30.12"/>
</a>
</g>
</g>
<!-- Node3&#45;&gt;Node6 -->
<g id="edge5_Node000003_Node000006" class="edge">
<title>Node3&#45;&gt;Node6</title>
<g id="a_edge5_Node000003_Node000006"><a xlink:title=" ">
<path fill="none" stroke="#63b8ff" d="M132.64,-55.55C167.34,-45.19 212.28,-31.78 243.73,-22.39"/>
<polygon fill="#63b8ff" stroke="#63b8ff" points="244.64,-25.77 253.22,-19.55 242.64,-19.06 244.64,-25.77"/>
</a>
</g>
</g>
<!-- Node7 -->
<g id="Node000007" class="node">
<title>Node7</title>
<g id="a_Node000007"><a xlink:title=" ">
<polygon fill="#e0e0e0" stroke="#999999" points="49.75,-20 0,-20 0,0 49.75,0 49.75,-20"/>
<text xml:space="preserve" text-anchor="middle" x="24.88" y="-6.5" font-family="Helvetica,sans-Serif" font-size="10.00">iomanip</text>
</a>
</g>
</g>
<!-- Node3&#45;&gt;Node7 -->
<g id="edge6_Node000003_Node000007" class="edge">
<title>Node3&#45;&gt;Node7</title>
<g id="a_edge6_Node000003_Node000007"><a xlink:title=" ">
<path fill="none" stroke="#63b8ff" d="M66.45,-55.55C58.76,-47.3 49.25,-37.12 41.28,-28.57"/>
<polygon fill="#63b8ff" stroke="#63b8ff" points="44.07,-26.44 34.69,-21.51 38.95,-31.21 44.07,-26.44"/>
</a>
</g>
</g>
<!-- Node8&#45;&gt;Node3 -->
<g id="edge8_Node000008_Node000003" class="edge">
<title>Node8&#45;&gt;Node3</title>
<g id="a_edge8_Node000008_Node000003"><a xlink:title=" ">
<path fill="none" stroke="#63b8ff" d="M202.38,-123.62C182.65,-115.41 153.32,-103.18 128.41,-92.81"/>
<polygon fill="#63b8ff" stroke="#63b8ff" points="130.03,-89.69 119.45,-89.07 127.33,-96.15 130.03,-89.69"/>
</a>
</g>
</g>
<!-- Node8&#45;&gt;Node5 -->
<g id="edge10_Node000008_Node000005" class="edge">
<title>Node8&#45;&gt;Node5</title>
<g id="a_edge10_Node000008_Node000005"><a xlink:title=" ">
<path fill="none" stroke="#63b8ff" d="M215.27,-123.79C206.79,-115.21 194.61,-101.72 186.88,-88 176.71,-69.98 169.66,-47.34 165.49,-31.29"/>
<polygon fill="#63b8ff" stroke="#63b8ff" points="168.99,-30.84 163.22,-21.95 162.18,-32.49 168.99,-30.84"/>
</a>
</g>
</g>
<!-- Node8&#45;&gt;Node6 -->
<g id="edge9_Node000008_Node000006" class="edge">
<title>Node8&#45;&gt;Node6</title>
<g id="a_edge9_Node000008_Node000006"><a xlink:title=" ">
<path fill="none" stroke="#63b8ff" d="M235.1,-123.61C243.74,-115.11 255.81,-101.85 262.88,-88 271.96,-70.19 276.85,-47.82 279.38,-31.78"/>
<polygon fill="#63b8ff" stroke="#63b8ff" points="282.83,-32.37 280.74,-21.99 275.9,-31.42 282.83,-32.37"/>
</a>
</g>
</g>
<!-- Node9 -->
<g id="Node000009" class="node">
<title>Node9</title>
<g id="a_Node000009"><a xlink:title=" ">
<polygon fill="#e0e0e0" stroke="#999999" points="254.25,-82 195.5,-82 195.5,-62 254.25,-62 254.25,-82"/>
<text xml:space="preserve" text-anchor="middle" x="224.88" y="-68.5" font-family="Helvetica,sans-Serif" font-size="10.00">stdexcept</text>
</a>
</g>
</g>
<!-- Node8&#45;&gt;Node9 -->
<g id="edge11_Node000008_Node000009" class="edge">
<title>Node8&#45;&gt;Node9</title>
<g id="a_edge11_Node000008_Node000009"><a xlink:title=" ">
<path fill="none" stroke="#63b8ff" d="M224.88,-123.62C224.88,-115.56 224.88,-103.65 224.88,-93.41"/>
<polygon fill="#63b8ff" stroke="#63b8ff" points="228.38,-93.63 224.88,-83.63 221.38,-93.63 228.38,-93.63"/>
</a>
</g>
</g>
<!-- Node10&#45;&gt;Node3 -->
<g id="edge13_Node000010_Node000003" class="edge">
<title>Node10&#45;&gt;Node3</title>
<g id="a_edge13_Node000010_Node000003"><a xlink:title=" ">
<path fill="none" stroke="#63b8ff" d="M67.38,-123.62C69.14,-117.02 71.58,-107.84 73.91,-99.11"/>
<polygon fill="#63b8ff" stroke="#63b8ff" points="77.25,-100.17 76.45,-89.6 70.49,-98.36 77.25,-100.17"/>
</a>
</g>
</g>
</g>
</svg>
