<?xml version="1.0" encoding="UTF-8" standalone="no"?>
<!DOCTYPE svg PUBLIC "-//W3C//DTD SVG 1.1//EN"
 "http://www.w3.org/Graphics/SVG/1.1/DTD/svg11.dtd">
<!-- Generated by graphviz version 14.0.2 (20251019.1705)
 -->
<!-- Title: Games/Word_Tic_Tac_Toe/Word_Tic_Tac_Toe.h Pages: 1 -->
<svg width="392pt" height="220pt"
 viewBox="0.00 0.00 392.00 220.00" xmlns="http://www.w3.org/2000/svg" xmlns:xlink="http://www.w3.org/1999/xlink">
<g id="graph0" class="graph" transform="scale(1 1) rotate(0) translate(4 216)">
<title>Games/Word_Tic_Tac_Toe/Word_Tic_Tac_Toe.h</title>
<!-- Node1 -->
<g id="Node000001" class="node">
<title>Node1</title>
<g id="a_Node000001"><a xlink:title="Header for Word Tic&#45;Tac&#45;Toe board, AI, and UI.">
<polygon fill="#999999" stroke="#666666" points="214.75,-212 83.25,-212 83.25,-180 214.75,-180 214.75,-212"/>
<text xml:space="preserve" text-anchor="start" x="91.25" y="-198.5" font-family="Helvetica,sans-Serif" font-size="10.00">Games/Word_Tic_Tac</text>
<text xml:space="preserve" text-anchor="middle" x="149" y="-186.5" font-family="Helvetica,sans-Serif" font-size="10.00">_Toe/Word_Tic_Tac_Toe.h</text>
</a>
</g>
</g>
<!-- Node2 -->
<g id="Node000002" class="node">
<title>Node2</title>
<g id="a_Node000002"><a xlink:href="_board_game___classes_8h.html" target="_top" xlink:title=" ">
<polygon fill="white" stroke="#666666" points="156,-88 38,-88 38,-56 156,-56 156,-88"/>
<text xml:space="preserve" text-anchor="start" x="46" y="-74.5" font-family="Helvetica,sans-Serif" font-size="10.00">../../header/BoardGame</text>
<text xml:space="preserve" text-anchor="middle" x="97" y="-62.5" font-family="Helvetica,sans-Serif" font-size="10.00">_Classes.h</text>
</a>
</g>
</g>
<!-- Node1&#45;&gt;Node2 -->
<g id="edge1_Node000001_Node000002" class="edge">
<title>Node1&#45;&gt;Node2</title>
<g id="a_edge1_Node000001_Node000002"><a xlink:title=" ">
<path fill="none" stroke="#63b8ff" d="M104.86,-179.68C88.72,-171.7 72.19,-160.14 63,-144 54.29,-128.71 62.95,-110.83 73.7,-96.84"/>
<polygon fill="#63b8ff" stroke="#63b8ff" points="76.18,-99.34 79.94,-89.43 70.82,-94.83 76.18,-99.34"/>
</a>
</g>
</g>
<!-- Node3 -->
<g id="Node000003" class="node">
<title>Node3</title>
<g id="a_Node000003"><a xlink:title=" ">
<polygon fill="#e0e0e0" stroke="#999999" points="40,-20 0,-20 0,0 40,0 40,-20"/>
<text xml:space="preserve" text-anchor="middle" x="20" y="-6.5" font-family="Helvetica,sans-Serif" font-size="10.00">string</text>
</a>
</g>
</g>
<!-- Node1&#45;&gt;Node3 -->
<g id="edge14_Node000001_Node000003" class="edge">
<title>Node1&#45;&gt;Node3</title>
<g id="a_edge14_Node000001_Node000003"><a xlink:title=" ">
<path fill="none" stroke="#63b8ff" d="M107.7,-179.57C89.72,-171.23 69.49,-159.43 55,-144 25.81,-112.92 20.31,-60.49 19.66,-31.61"/>
<polygon fill="#63b8ff" stroke="#63b8ff" points="23.16,-31.99 19.63,-22 16.16,-32.01 23.16,-31.99"/>
</a>
</g>
</g>
<!-- Node4 -->
<g id="Node000004" class="node">
<title>Node4</title>
<g id="a_Node000004"><a xlink:title=" ">
<polygon fill="#e0e0e0" stroke="#999999" points="205.5,-20 162.5,-20 162.5,0 205.5,0 205.5,-20"/>
<text xml:space="preserve" text-anchor="middle" x="184" y="-6.5" font-family="Helvetica,sans-Serif" font-size="10.00">vector</text>
</a>
</g>
</g>
<!-- Node1&#45;&gt;Node4 -->
<g id="edge15_Node000001_Node000004" class="edge">
<title>Node1&#45;&gt;Node4</title>
<g id="a_edge15_Node000001_Node000004"><a xlink:title=" ">
<path fill="none" stroke="#63b8ff" d="M154.56,-179.55C158,-169.53 162.25,-156.13 165,-144 173.91,-104.71 179.45,-57.89 182.1,-31.59"/>
<polygon fill="#63b8ff" stroke="#63b8ff" points="185.56,-32.24 183.04,-21.95 178.59,-31.57 185.56,-32.24"/>
</a>
</g>
</g>
<!-- Node7 -->
<g id="Node000007" class="node">
<title>Node7</title>
<g id="a_Node000007"><a xlink:href="_custom___u_i_8h.html" target="_top" xlink:title="Defines a customizable user interface for board games.">
<polygon fill="white" stroke="#666666" points="336.38,-144 211.62,-144 211.62,-124 336.38,-124 336.38,-144"/>
<text xml:space="preserve" text-anchor="middle" x="274" y="-130.5" font-family="Helvetica,sans-Serif" font-size="10.00">../../header/Custom_UI.h</text>
</a>
</g>
</g>
<!-- Node1&#45;&gt;Node7 -->
<g id="edge6_Node000001_Node000007" class="edge">
<title>Node1&#45;&gt;Node7</title>
<g id="a_edge6_Node000001_Node000007"><a xlink:title=" ">
<path fill="none" stroke="#63b8ff" d="M181.19,-179.55C200.63,-170.22 225.23,-158.41 244.22,-149.29"/>
<polygon fill="#63b8ff" stroke="#63b8ff" points="245.53,-152.55 253.04,-145.06 242.51,-146.23 245.53,-152.55"/>
</a>
</g>
</g>
<!-- Node9 -->
<g id="Node000009" class="node">
<title>Node9</title>
<g id="a_Node000009"><a xlink:href="_a_i_8h.html" target="_top" xlink:title=" ">
<polygon fill="white" stroke="#666666" points="156.12,-144 71.88,-144 71.88,-124 156.12,-124 156.12,-144"/>
<text xml:space="preserve" text-anchor="middle" x="114" y="-130.5" font-family="Helvetica,sans-Serif" font-size="10.00">../../header/AI.h</text>
</a>
</g>
</g>
<!-- Node1&#45;&gt;Node9 -->
<g id="edge11_Node000001_Node000009" class="edge">
<title>Node1&#45;&gt;Node9</title>
<g id="a_edge11_Node000001_Node000009"><a xlink:title=" ">
<path fill="none" stroke="#63b8ff" d="M139.99,-179.55C135.48,-171.82 129.98,-162.4 125.21,-154.21"/>
<polygon fill="#63b8ff" stroke="#63b8ff" points="128.31,-152.59 120.25,-145.72 122.27,-156.12 128.31,-152.59"/>
</a>
</g>
</g>
<!-- Node10 -->
<g id="Node000010" class="node">
<title>Node10</title>
<g id="a_Node000010"><a xlink:title=" ">
<polygon fill="#e0e0e0" stroke="#999999" points="383.75,-144 354.25,-144 354.25,-124 383.75,-124 383.75,-144"/>
<text xml:space="preserve" text-anchor="middle" x="369" y="-130.5" font-family="Helvetica,sans-Serif" font-size="10.00">set</text>
</a>
</g>
</g>
<!-- Node1&#45;&gt;Node10 -->
<g id="edge13_Node000001_Node000010" class="edge">
<title>Node1&#45;&gt;Node10</title>
<g id="a_edge13_Node000001_Node000010"><a xlink:title=" ">
<path fill="none" stroke="#63b8ff" d="M214.82,-179.69C250.4,-170.99 295.26,-159.36 342.97,-144.41"/>
<polygon fill="#63b8ff" stroke="#63b8ff" points="343.93,-147.77 352.41,-141.41 341.81,-141.1 343.93,-147.77"/>
</a>
</g>
</g>
<!-- Node2&#45;&gt;Node3 -->
<g id="edge2_Node000002_Node000003" class="edge">
<title>Node2&#45;&gt;Node3</title>
<g id="a_edge2_Node000002_Node000003"><a xlink:title=" ">
<path fill="none" stroke="#63b8ff" d="M77.17,-55.55C66.03,-46.87 52.14,-36.04 40.84,-27.24"/>
<polygon fill="#63b8ff" stroke="#63b8ff" points="43.31,-24.72 33.27,-21.34 39,-30.25 43.31,-24.72"/>
</a>
</g>
</g>
<!-- Node2&#45;&gt;Node4 -->
<g id="edge3_Node000002_Node000004" class="edge">
<title>Node2&#45;&gt;Node4</title>
<g id="a_edge3_Node000002_Node000004"><a xlink:title=" ">
<path fill="none" stroke="#63b8ff" d="M119.4,-55.55C132.24,-46.69 148.32,-35.61 161.22,-26.71"/>
<polygon fill="#63b8ff" stroke="#63b8ff" points="162.87,-29.83 169.11,-21.27 158.89,-24.06 162.87,-29.83"/>
</a>
</g>
</g>
<!-- Node5 -->
<g id="Node000005" class="node">
<title>Node5</title>
<g id="a_Node000005"><a xlink:title=" ">
<polygon fill="#e0e0e0" stroke="#999999" points="281.75,-20 228.25,-20 228.25,0 281.75,0 281.75,-20"/>
<text xml:space="preserve" text-anchor="middle" x="255" y="-6.5" font-family="Helvetica,sans-Serif" font-size="10.00">iostream</text>
</a>
</g>
</g>
<!-- Node2&#45;&gt;Node5 -->
<g id="edge4_Node000002_Node000005" class="edge">
<title>Node2&#45;&gt;Node5</title>
<g id="a_edge4_Node000002_Node000005"><a xlink:title=" ">
<path fill="none" stroke="#63b8ff" d="M137.69,-55.55C163.06,-45.91 195.39,-33.64 219.68,-24.41"/>
<polygon fill="#63b8ff" stroke="#63b8ff" points="220.7,-27.77 228.81,-20.95 218.22,-21.22 220.7,-27.77"/>
</a>
</g>
</g>
<!-- Node6 -->
<g id="Node000006" class="node">
<title>Node6</title>
<g id="a_Node000006"><a xlink:title=" ">
<polygon fill="#e0e0e0" stroke="#999999" points="121.88,-20 72.12,-20 72.12,0 121.88,0 121.88,-20"/>
<text xml:space="preserve" text-anchor="middle" x="97" y="-6.5" font-family="Helvetica,sans-Serif" font-size="10.00">iomanip</text>
</a>
</g>
</g>
<!-- Node2&#45;&gt;Node6 -->
<g id="edge5_Node000002_Node000006" class="edge">
<title>Node2&#45;&gt;Node6</title>
<g id="a_edge5_Node000002_Node000006"><a xlink:title=" ">
<path fill="none" stroke="#63b8ff" d="M97,-55.55C97,-48.34 97,-39.66 97,-31.88"/>
<polygon fill="#63b8ff" stroke="#63b8ff" points="100.5,-31.92 97,-21.92 93.5,-31.92 100.5,-31.92"/>
</a>
</g>
</g>
<!-- Node7&#45;&gt;Node2 -->
<g id="edge7_Node000007_Node000002" class="edge">
<title>Node7&#45;&gt;Node2</title>
<g id="a_edge7_Node000007_Node000002"><a xlink:title=" ">
<path fill="none" stroke="#63b8ff" d="M246.34,-123.62C221.56,-115.22 184.43,-102.64 153.39,-92.12"/>
<polygon fill="#63b8ff" stroke="#63b8ff" points="154.72,-88.87 144.13,-88.98 152.48,-95.5 154.72,-88.87"/>
</a>
</g>
</g>
<!-- Node7&#45;&gt;Node4 -->
<g id="edge9_Node000007_Node000004" class="edge">
<title>Node7&#45;&gt;Node4</title>
<g id="a_edge9_Node000007_Node000004"><a xlink:title=" ">
<path fill="none" stroke="#63b8ff" d="M267.24,-123.83C252.45,-103.78 217,-55.73 197.47,-29.26"/>
<polygon fill="#63b8ff" stroke="#63b8ff" points="200.49,-27.46 191.74,-21.49 194.86,-31.62 200.49,-27.46"/>
</a>
</g>
</g>
<!-- Node7&#45;&gt;Node5 -->
<g id="edge8_Node000007_Node000005" class="edge">
<title>Node7&#45;&gt;Node5</title>
<g id="a_edge8_Node000007_Node000005"><a xlink:title=" ">
<path fill="none" stroke="#63b8ff" d="M272.57,-123.83C269.53,-104.31 262.36,-58.25 258.18,-31.4"/>
<polygon fill="#63b8ff" stroke="#63b8ff" points="261.67,-31.11 256.68,-21.77 254.76,-32.19 261.67,-31.11"/>
</a>
</g>
</g>
<!-- Node8 -->
<g id="Node000008" class="node">
<title>Node8</title>
<g id="a_Node000008"><a xlink:title=" ">
<polygon fill="#e0e0e0" stroke="#999999" points="346.38,-82 287.62,-82 287.62,-62 346.38,-62 346.38,-82"/>
<text xml:space="preserve" text-anchor="middle" x="317" y="-68.5" font-family="Helvetica,sans-Serif" font-size="10.00">stdexcept</text>
</a>
</g>
</g>
<!-- Node7&#45;&gt;Node8 -->
<g id="edge10_Node000007_Node000008" class="edge">
<title>Node7&#45;&gt;Node8</title>
<g id="a_edge10_Node000007_Node000008"><a xlink:title=" ">
<path fill="none" stroke="#63b8ff" d="M280.72,-123.62C286.88,-115.03 296.17,-102.07 303.81,-91.41"/>
<polygon fill="#63b8ff" stroke="#63b8ff" points="306.61,-93.51 309.59,-83.34 300.92,-89.43 306.61,-93.51"/>
</a>
</g>
</g>
<!-- Node9&#45;&gt;Node2 -->
<g id="edge12_Node000009_Node000002" class="edge">
<title>Node9&#45;&gt;Node2</title>
<g id="a_edge12_Node000009_Node000002"><a xlink:title=" ">
<path fill="none" stroke="#63b8ff" d="M111.34,-123.62C109.47,-117.02 106.87,-107.84 104.4,-99.11"/>
<polygon fill="#63b8ff" stroke="#63b8ff" points="107.8,-98.26 101.7,-89.6 101.06,-100.17 107.8,-98.26"/>
</a>
</g>
</g>
</g>
</svg>
