<?xml version="1.0" encoding="UTF-8" standalone="no"?>
<!DOCTYPE svg PUBLIC "-//W3C//DTD SVG 1.1//EN"
 "http://www.w3.org/Graphics/SVG/1.1/DTD/svg11.dtd">
<!-- Generated by graphviz version 14.0.2 (20251019.1705)
 -->
<!-- Title: header/XO_Classes.h Pages: 1 -->
<svg width="304pt" height="196pt"
 viewBox="0.00 0.00 304.00 196.00" xmlns="http://www.w3.org/2000/svg" xmlns:xlink="http://www.w3.org/1999/xlink">
<g id="graph0" class="graph" transform="scale(1 1) rotate(0) translate(4 192)">
<title>header/XO_Classes.h</title>
<!-- Node1 -->
<g id="Node000001" class="node">
<title>Node1</title>
<g id="a_Node000001"><a xlink:title="Classic Tic&#45;Tac&#45;Toe game classes.">
<polygon fill="#999999" stroke="#666666" points="175,-188 63,-188 63,-168 175,-168 175,-188"/>
<text xml:space="preserve" text-anchor="middle" x="119" y="-174.5" font-family="Helvetica,sans-Serif" font-size="10.00">header/XO_Classes.h</text>
</a>
</g>
</g>
<!-- Node2 -->
<g id="Node000002" class="node">
<title>Node2</title>
<g id="a_Node000002"><a xlink:href="_board_game___classes_8h.html" target="_top" xlink:title=" ">
<polygon fill="white" stroke="#666666" points="143.62,-76 26.38,-76 26.38,-56 143.62,-56 143.62,-76"/>
<text xml:space="preserve" text-anchor="middle" x="85" y="-62.5" font-family="Helvetica,sans-Serif" font-size="10.00">BoardGame_Classes.h</text>
</a>
</g>
</g>
<!-- Node1&#45;&gt;Node2 -->
<g id="edge1_Node000001_Node000002" class="edge">
<title>Node1&#45;&gt;Node2</title>
<g id="a_edge1_Node000001_Node000002"><a xlink:title=" ">
<path fill="none" stroke="#63b8ff" d="M116.4,-167.71C112.84,-155.07 106.18,-131.75 100,-112 97.42,-103.75 94.44,-94.71 91.81,-86.9"/>
<polygon fill="#63b8ff" stroke="#63b8ff" points="95.22,-86.05 88.69,-77.71 88.59,-88.3 95.22,-86.05"/>
</a>
</g>
</g>
<!-- Node7 -->
<g id="Node000007" class="node">
<title>Node7</title>
<g id="a_Node000007"><a xlink:href="_a_i_8h.html" target="_top" xlink:title=" ">
<polygon fill="white" stroke="#666666" points="91,-132 57,-132 57,-112 91,-112 91,-132"/>
<text xml:space="preserve" text-anchor="middle" x="74" y="-118.5" font-family="Helvetica,sans-Serif" font-size="10.00">AI.h</text>
</a>
</g>
</g>
<!-- Node1&#45;&gt;Node7 -->
<g id="edge6_Node000001_Node000007" class="edge">
<title>Node1&#45;&gt;Node7</title>
<g id="a_edge6_Node000001_Node000007"><a xlink:title=" ">
<path fill="none" stroke="#63b8ff" d="M111.16,-167.59C105.03,-160.24 96.33,-149.8 88.89,-140.87"/>
<polygon fill="#63b8ff" stroke="#63b8ff" points="91.81,-138.9 82.72,-133.46 86.43,-143.38 91.81,-138.9"/>
</a>
</g>
</g>
<!-- Node8 -->
<g id="Node000008" class="node">
<title>Node8</title>
<g id="a_Node000008"><a xlink:href="_custom___u_i_8h.html" target="_top" xlink:title="Defines a customizable user interface for board games.">
<polygon fill="white" stroke="#666666" points="221.25,-132 146.75,-132 146.75,-112 221.25,-112 221.25,-132"/>
<text xml:space="preserve" text-anchor="middle" x="184" y="-118.5" font-family="Helvetica,sans-Serif" font-size="10.00">Custom_UI.h</text>
</a>
</g>
</g>
<!-- Node1&#45;&gt;Node8 -->
<g id="edge8_Node000001_Node000008" class="edge">
<title>Node1&#45;&gt;Node8</title>
<g id="a_edge8_Node000001_Node000008"><a xlink:title=" ">
<path fill="none" stroke="#63b8ff" d="M130.32,-167.59C139.64,-159.85 153.08,-148.69 164.18,-139.47"/>
<polygon fill="#63b8ff" stroke="#63b8ff" points="166.19,-142.35 171.64,-133.27 161.71,-136.96 166.19,-142.35"/>
</a>
</g>
</g>
<!-- Node3 -->
<g id="Node000003" class="node">
<title>Node3</title>
<g id="a_Node000003"><a xlink:title=" ">
<polygon fill="#e0e0e0" stroke="#999999" points="40,-20 0,-20 0,0 40,0 40,-20"/>
<text xml:space="preserve" text-anchor="middle" x="20" y="-6.5" font-family="Helvetica,sans-Serif" font-size="10.00">string</text>
</a>
</g>
</g>
<!-- Node2&#45;&gt;Node3 -->
<g id="edge2_Node000002_Node000003" class="edge">
<title>Node2&#45;&gt;Node3</title>
<g id="a_edge2_Node000002_Node000003"><a xlink:title=" ">
<path fill="none" stroke="#63b8ff" d="M73.68,-55.59C64.36,-47.85 50.92,-36.69 39.82,-27.47"/>
<polygon fill="#63b8ff" stroke="#63b8ff" points="42.29,-24.96 32.36,-21.27 37.81,-30.35 42.29,-24.96"/>
</a>
</g>
</g>
<!-- Node4 -->
<g id="Node000004" class="node">
<title>Node4</title>
<g id="a_Node000004"><a xlink:title=" ">
<polygon fill="#e0e0e0" stroke="#999999" points="168.5,-20 125.5,-20 125.5,0 168.5,0 168.5,-20"/>
<text xml:space="preserve" text-anchor="middle" x="147" y="-6.5" font-family="Helvetica,sans-Serif" font-size="10.00">vector</text>
</a>
</g>
</g>
<!-- Node2&#45;&gt;Node4 -->
<g id="edge3_Node000002_Node000004" class="edge">
<title>Node2&#45;&gt;Node4</title>
<g id="a_edge3_Node000002_Node000004"><a xlink:title=" ">
<path fill="none" stroke="#63b8ff" d="M95.8,-55.59C104.6,-47.93 117.25,-36.91 127.77,-27.75"/>
<polygon fill="#63b8ff" stroke="#63b8ff" points="129.94,-30.5 135.18,-21.29 125.34,-25.22 129.94,-30.5"/>
</a>
</g>
</g>
<!-- Node5 -->
<g id="Node000005" class="node">
<title>Node5</title>
<g id="a_Node000005"><a xlink:title=" ">
<polygon fill="#e0e0e0" stroke="#999999" points="239.75,-20 186.25,-20 186.25,0 239.75,0 239.75,-20"/>
<text xml:space="preserve" text-anchor="middle" x="213" y="-6.5" font-family="Helvetica,sans-Serif" font-size="10.00">iostream</text>
</a>
</g>
</g>
<!-- Node2&#45;&gt;Node5 -->
<g id="edge4_Node000002_Node000005" class="edge">
<title>Node2&#45;&gt;Node5</title>
<g id="a_edge4_Node000002_Node000005"><a xlink:title=" ">
<path fill="none" stroke="#63b8ff" d="M107.3,-55.59C127.36,-47.13 157.12,-34.58 179.95,-24.94"/>
<polygon fill="#63b8ff" stroke="#63b8ff" points="181.28,-28.18 189.14,-21.07 178.56,-21.73 181.28,-28.18"/>
</a>
</g>
</g>
<!-- Node6 -->
<g id="Node000006" class="node">
<title>Node6</title>
<g id="a_Node000006"><a xlink:title=" ">
<polygon fill="#e0e0e0" stroke="#999999" points="107.88,-20 58.12,-20 58.12,0 107.88,0 107.88,-20"/>
<text xml:space="preserve" text-anchor="middle" x="83" y="-6.5" font-family="Helvetica,sans-Serif" font-size="10.00">iomanip</text>
</a>
</g>
</g>
<!-- Node2&#45;&gt;Node6 -->
<g id="edge5_Node000002_Node000006" class="edge">
<title>Node2&#45;&gt;Node6</title>
<g id="a_edge5_Node000002_Node000006"><a xlink:title=" ">
<path fill="none" stroke="#63b8ff" d="M84.65,-55.59C84.41,-49.01 84.07,-39.96 83.77,-31.73"/>
<polygon fill="#63b8ff" stroke="#63b8ff" points="87.27,-31.67 83.4,-21.81 80.27,-31.93 87.27,-31.67"/>
</a>
</g>
</g>
<!-- Node7&#45;&gt;Node2 -->
<g id="edge7_Node000007_Node000002" class="edge">
<title>Node7&#45;&gt;Node2</title>
<g id="a_edge7_Node000007_Node000002"><a xlink:title=" ">
<path fill="none" stroke="#63b8ff" d="M75.92,-111.59C77.27,-104.93 79.14,-95.75 80.84,-87.44"/>
<polygon fill="#63b8ff" stroke="#63b8ff" points="84.24,-88.28 82.8,-77.78 77.38,-86.88 84.24,-88.28"/>
</a>
</g>
</g>
<!-- Node8&#45;&gt;Node2 -->
<g id="edge9_Node000008_Node000002" class="edge">
<title>Node8&#45;&gt;Node2</title>
<g id="a_edge9_Node000008_Node000002"><a xlink:title=" ">
<path fill="none" stroke="#63b8ff" d="M166.76,-111.59C151.66,-103.36 129.47,-91.26 112.02,-81.74"/>
<polygon fill="#63b8ff" stroke="#63b8ff" points="114.16,-78.92 103.71,-77.2 110.81,-85.07 114.16,-78.92"/>
</a>
</g>
</g>
<!-- Node8&#45;&gt;Node4 -->
<g id="edge11_Node000008_Node000004" class="edge">
<title>Node8&#45;&gt;Node4</title>
<g id="a_edge11_Node000008_Node000004"><a xlink:title=" ">
<path fill="none" stroke="#63b8ff" d="M180.85,-111.62C174.87,-93.84 161.76,-54.88 153.73,-31"/>
<polygon fill="#63b8ff" stroke="#63b8ff" points="157.13,-30.15 150.63,-21.79 150.5,-32.38 157.13,-30.15"/>
</a>
</g>
</g>
<!-- Node8&#45;&gt;Node5 -->
<g id="edge10_Node000008_Node000005" class="edge">
<title>Node8&#45;&gt;Node5</title>
<g id="a_edge10_Node000008_Node000005"><a xlink:title=" ">
<path fill="none" stroke="#63b8ff" d="M186.47,-111.62C191.14,-93.92 201.34,-55.24 207.64,-31.32"/>
<polygon fill="#63b8ff" stroke="#63b8ff" points="210.98,-32.38 210.15,-21.82 204.21,-30.6 210.98,-32.38"/>
</a>
</g>
</g>
<!-- Node9 -->
<g id="Node000009" class="node">
<title>Node9</title>
<g id="a_Node000009"><a xlink:title=" ">
<polygon fill="#e0e0e0" stroke="#999999" points="296.38,-76 237.62,-76 237.62,-56 296.38,-56 296.38,-76"/>
<text xml:space="preserve" text-anchor="middle" x="267" y="-62.5" font-family="Helvetica,sans-Serif" font-size="10.00">stdexcept</text>
</a>
</g>
</g>
<!-- Node8&#45;&gt;Node9 -->
<g id="edge12_Node000008_Node000009" class="edge">
<title>Node8&#45;&gt;Node9</title>
<g id="a_edge12_Node000008_Node000009"><a xlink:title=" ">
<path fill="none" stroke="#63b8ff" d="M198.46,-111.59C210.76,-103.59 228.68,-91.93 243.11,-82.54"/>
<polygon fill="#63b8ff" stroke="#63b8ff" points="244.69,-85.69 251.16,-77.3 240.87,-79.82 244.69,-85.69"/>
</a>
</g>
</g>
</g>
</svg>
