<?xml version="1.0" encoding="UTF-8" standalone="no"?>
<!DOCTYPE svg PUBLIC "-//W3C//DTD SVG 1.1//EN"
 "http://www.w3.org/Graphics/SVG/1.1/DTD/svg11.dtd">
<!-- Generated by graphviz version 14.0.2 (20251019.1705)
 -->
<!-- Title: Games/XO_inf/XO_inf.cpp Pages: 1 -->
<svg width="632pt" height="264pt"
 viewBox="0.00 0.00 632.00 264.00" xmlns="http://www.w3.org/2000/svg" xmlns:xlink="http://www.w3.org/1999/xlink">
<g id="graph0" class="graph" transform="scale(1 1) rotate(0) translate(4 260)">
<title>Games/XO_inf/XO_inf.cpp</title>
<!-- Node1 -->
<g id="Node000001" class="node">
<title>Node1</title>
<g id="a_Node000001"><a xlink:title=" ">
<polygon fill="#999999" stroke="#666666" points="459.37,-256 327.12,-256 327.12,-236 459.37,-236 459.37,-256"/>
<text xml:space="preserve" text-anchor="middle" x="393.24" y="-242.5" font-family="Helvetica,sans-Serif" font-size="10.00">Games/XO_inf/XO_inf.cpp</text>
</a>
</g>
</g>
<!-- Node2 -->
<g id="Node000002" class="node">
<title>Node2</title>
<g id="a_Node000002"><a xlink:title=" ">
<polygon fill="#e0e0e0" stroke="#999999" points="53.99,-20 0.49,-20 0.49,0 53.99,0 53.99,-20"/>
<text xml:space="preserve" text-anchor="middle" x="27.24" y="-6.5" font-family="Helvetica,sans-Serif" font-size="10.00">iostream</text>
</a>
</g>
</g>
<!-- Node1&#45;&gt;Node2 -->
<g id="edge1_Node000001_Node000002" class="edge">
<title>Node1&#45;&gt;Node2</title>
<g id="a_edge1_Node000001_Node000002"><a xlink:title=" ">
<path fill="none" stroke="#63b8ff" d="M326.83,-237.23C228.14,-224.15 50.38,-194.12 13.24,-144 -11.66,-110.39 5.43,-58.21 17.73,-30.25"/>
<polygon fill="#63b8ff" stroke="#63b8ff" points="20.73,-32.09 21.79,-21.55 14.39,-29.14 20.73,-32.09"/>
</a>
</g>
</g>
<!-- Node3 -->
<g id="Node000003" class="node">
<title>Node3</title>
<g id="a_Node000003"><a xlink:title=" ">
<polygon fill="#e0e0e0" stroke="#999999" points="328.12,-20 278.37,-20 278.37,0 328.12,0 328.12,-20"/>
<text xml:space="preserve" text-anchor="middle" x="303.24" y="-6.5" font-family="Helvetica,sans-Serif" font-size="10.00">iomanip</text>
</a>
</g>
</g>
<!-- Node1&#45;&gt;Node3 -->
<g id="edge2_Node000001_Node000003" class="edge">
<title>Node1&#45;&gt;Node3</title>
<g id="a_edge2_Node000001_Node000003"><a xlink:title=" ">
<path fill="none" stroke="#63b8ff" d="M374.17,-235.51C360.79,-227.81 343.66,-215.68 334.24,-200 301.78,-145.94 300.4,-68.26 301.87,-31.62"/>
<polygon fill="#63b8ff" stroke="#63b8ff" points="305.34,-32.16 302.38,-21.99 298.35,-31.79 305.34,-32.16"/>
</a>
</g>
</g>
<!-- Node4 -->
<g id="Node000004" class="node">
<title>Node4</title>
<g id="a_Node000004"><a xlink:title=" ">
<polygon fill="#e0e0e0" stroke="#999999" points="382.87,-200 343.62,-200 343.62,-180 382.87,-180 382.87,-200"/>
<text xml:space="preserve" text-anchor="middle" x="363.24" y="-186.5" font-family="Helvetica,sans-Serif" font-size="10.00">limits</text>
</a>
</g>
</g>
<!-- Node1&#45;&gt;Node4 -->
<g id="edge3_Node000001_Node000004" class="edge">
<title>Node1&#45;&gt;Node4</title>
<g id="a_edge3_Node000001_Node000004"><a xlink:title=" ">
<path fill="none" stroke="#63b8ff" d="M388.02,-235.59C384.15,-228.63 378.74,-218.89 373.96,-210.29"/>
<polygon fill="#63b8ff" stroke="#63b8ff" points="377.06,-208.66 369.14,-201.62 370.94,-212.06 377.06,-208.66"/>
</a>
</g>
</g>
<!-- Node5 -->
<g id="Node000005" class="node">
<title>Node5</title>
<g id="a_Node000005"><a xlink:title=" ">
<polygon fill="#e0e0e0" stroke="#999999" points="445.87,-200 400.62,-200 400.62,-180 445.87,-180 445.87,-200"/>
<text xml:space="preserve" text-anchor="middle" x="423.24" y="-186.5" font-family="Helvetica,sans-Serif" font-size="10.00">cctype</text>
</a>
</g>
</g>
<!-- Node1&#45;&gt;Node5 -->
<g id="edge4_Node000001_Node000005" class="edge">
<title>Node1&#45;&gt;Node5</title>
<g id="a_edge4_Node000001_Node000005"><a xlink:title=" ">
<path fill="none" stroke="#63b8ff" d="M398.47,-235.59C402.34,-228.63 407.75,-218.89 412.53,-210.29"/>
<polygon fill="#63b8ff" stroke="#63b8ff" points="415.55,-212.06 417.34,-201.62 409.43,-208.66 415.55,-212.06"/>
</a>
</g>
</g>
<!-- Node6 -->
<g id="Node000006" class="node">
<title>Node6</title>
<g id="a_Node000006"><a xlink:title=" ">
<polygon fill="#e0e0e0" stroke="#999999" points="506.37,-200 464.12,-200 464.12,-180 506.37,-180 506.37,-200"/>
<text xml:space="preserve" text-anchor="middle" x="485.24" y="-186.5" font-family="Helvetica,sans-Serif" font-size="10.00">queue</text>
</a>
</g>
</g>
<!-- Node1&#45;&gt;Node6 -->
<g id="edge5_Node000001_Node000006" class="edge">
<title>Node1&#45;&gt;Node6</title>
<g id="a_edge5_Node000001_Node000006"><a xlink:title=" ">
<path fill="none" stroke="#63b8ff" d="M409.27,-235.59C423.04,-227.51 443.15,-215.71 459.22,-206.27"/>
<polygon fill="#63b8ff" stroke="#63b8ff" points="460.94,-209.33 467.79,-201.25 457.39,-203.29 460.94,-209.33"/>
</a>
</g>
</g>
<!-- Node7 -->
<g id="Node000007" class="node">
<title>Node7</title>
<g id="a_Node000007"><a xlink:title=" ">
<polygon fill="#e0e0e0" stroke="#999999" points="566.37,-200 524.12,-200 524.12,-180 566.37,-180 566.37,-200"/>
<text xml:space="preserve" text-anchor="middle" x="545.24" y="-186.5" font-family="Helvetica,sans-Serif" font-size="10.00">deque</text>
</a>
</g>
</g>
<!-- Node1&#45;&gt;Node7 -->
<g id="edge6_Node000001_Node000007" class="edge">
<title>Node1&#45;&gt;Node7</title>
<g id="a_edge6_Node000001_Node000007"><a xlink:title=" ">
<path fill="none" stroke="#63b8ff" d="M419.72,-235.59C445.74,-226.35 485.46,-212.24 513.24,-202.37"/>
<polygon fill="#63b8ff" stroke="#63b8ff" points="514.29,-205.71 522.54,-199.06 511.95,-199.11 514.29,-205.71"/>
</a>
</g>
</g>
<!-- Node8 -->
<g id="Node000008" class="node">
<title>Node8</title>
<g id="a_Node000008"><a xlink:title=" ">
<polygon fill="#e0e0e0" stroke="#999999" points="624.24,-200 584.24,-200 584.24,-180 624.24,-180 624.24,-200"/>
<text xml:space="preserve" text-anchor="middle" x="604.24" y="-186.5" font-family="Helvetica,sans-Serif" font-size="10.00">stack</text>
</a>
</g>
</g>
<!-- Node1&#45;&gt;Node8 -->
<g id="edge7_Node000001_Node000008" class="edge">
<title>Node1&#45;&gt;Node8</title>
<g id="a_edge7_Node000001_Node000008"><a xlink:title=" ">
<path fill="none" stroke="#63b8ff" d="M434.26,-235.58C468.88,-227.47 519.99,-215.13 573.02,-200.5"/>
<polygon fill="#63b8ff" stroke="#63b8ff" points="573.85,-203.9 582.55,-197.85 571.98,-197.16 573.85,-203.9"/>
</a>
</g>
</g>
<!-- Node9 -->
<g id="Node000009" class="node">
<title>Node9</title>
<g id="a_Node000009"><a xlink:href="_x_o__inf_8h.html" target="_top" xlink:title="Infinite Tic&#45;Tac&#45;Toe game classes.">
<polygon fill="white" stroke="#666666" points="260.37,-200 206.12,-200 206.12,-180 260.37,-180 260.37,-200"/>
<text xml:space="preserve" text-anchor="middle" x="233.24" y="-186.5" font-family="Helvetica,sans-Serif" font-size="10.00">XO_inf.h</text>
</a>
</g>
</g>
<!-- Node1&#45;&gt;Node9 -->
<g id="edge8_Node000001_Node000009" class="edge">
<title>Node1&#45;&gt;Node9</title>
<g id="a_edge8_Node000001_Node000009"><a xlink:title=" ">
<path fill="none" stroke="#63b8ff" d="M365.37,-235.59C339.33,-226.81 300.24,-213.61 271.33,-203.85"/>
<polygon fill="#63b8ff" stroke="#63b8ff" points="272.82,-200.66 262.23,-200.78 270.58,-207.3 272.82,-200.66"/>
</a>
</g>
</g>
<!-- Node10 -->
<g id="Node000010" class="node">
<title>Node10</title>
<g id="a_Node000010"><a xlink:href="_board_game___classes_8h.html" target="_top" xlink:title=" ">
<polygon fill="white" stroke="#666666" points="287.24,-88 169.24,-88 169.24,-56 287.24,-56 287.24,-88"/>
<text xml:space="preserve" text-anchor="start" x="177.24" y="-74.5" font-family="Helvetica,sans-Serif" font-size="10.00">../../header/BoardGame</text>
<text xml:space="preserve" text-anchor="middle" x="228.24" y="-62.5" font-family="Helvetica,sans-Serif" font-size="10.00">_Classes.h</text>
</a>
</g>
</g>
<!-- Node9&#45;&gt;Node10 -->
<g id="edge9_Node000009_Node000010" class="edge">
<title>Node9&#45;&gt;Node10</title>
<g id="a_edge9_Node000009_Node000010"><a xlink:title=" ">
<path fill="none" stroke="#63b8ff" d="M241,-179.51C250.24,-167.03 263.77,-144.3 258.24,-124 255.74,-114.8 251.11,-105.57 246.22,-97.54"/>
<polygon fill="#63b8ff" stroke="#63b8ff" points="249.27,-95.81 240.86,-89.36 243.42,-99.64 249.27,-95.81"/>
</a>
</g>
</g>
<!-- Node13 -->
<g id="Node000013" class="node">
<title>Node13</title>
<g id="a_Node000013"><a xlink:href="_a_i_8h.html" target="_top" xlink:title=" ">
<polygon fill="white" stroke="#666666" points="249.37,-144 165.12,-144 165.12,-124 249.37,-124 249.37,-144"/>
<text xml:space="preserve" text-anchor="middle" x="207.24" y="-130.5" font-family="Helvetica,sans-Serif" font-size="10.00">../../header/AI.h</text>
</a>
</g>
</g>
<!-- Node9&#45;&gt;Node13 -->
<g id="edge14_Node000009_Node000013" class="edge">
<title>Node9&#45;&gt;Node13</title>
<g id="a_edge14_Node000009_Node000013"><a xlink:title=" ">
<path fill="none" stroke="#63b8ff" d="M228.72,-179.59C225.4,-172.7 220.77,-163.1 216.67,-154.57"/>
<polygon fill="#63b8ff" stroke="#63b8ff" points="219.87,-153.15 212.38,-145.66 213.56,-156.19 219.87,-153.15"/>
</a>
</g>
</g>
<!-- Node14 -->
<g id="Node000014" class="node">
<title>Node14</title>
<g id="a_Node000014"><a xlink:href="_custom___u_i_8h.html" target="_top" xlink:title="Defines a customizable user interface for board games.">
<polygon fill="white" stroke="#666666" points="146.62,-144 21.87,-144 21.87,-124 146.62,-124 146.62,-144"/>
<text xml:space="preserve" text-anchor="middle" x="84.24" y="-130.5" font-family="Helvetica,sans-Serif" font-size="10.00">../../header/Custom_UI.h</text>
</a>
</g>
</g>
<!-- Node9&#45;&gt;Node14 -->
<g id="edge16_Node000009_Node000014" class="edge">
<title>Node9&#45;&gt;Node14</title>
<g id="a_edge16_Node000009_Node000014"><a xlink:title=" ">
<path fill="none" stroke="#63b8ff" d="M207.29,-179.59C183.4,-170.94 147.71,-158 120.92,-148.29"/>
<polygon fill="#63b8ff" stroke="#63b8ff" points="122.42,-145.11 111.82,-145 120.03,-151.69 122.42,-145.11"/>
</a>
</g>
</g>
<!-- Node10&#45;&gt;Node2 -->
<g id="edge12_Node000010_Node000002" class="edge">
<title>Node10&#45;&gt;Node2</title>
<g id="a_edge12_Node000010_Node000002"><a xlink:title=" ">
<path fill="none" stroke="#63b8ff" d="M176.48,-55.55C141.78,-45.19 96.84,-31.78 65.38,-22.39"/>
<polygon fill="#63b8ff" stroke="#63b8ff" points="66.48,-19.06 55.9,-19.55 64.48,-25.77 66.48,-19.06"/>
</a>
</g>
</g>
<!-- Node10&#45;&gt;Node3 -->
<g id="edge13_Node000010_Node000003" class="edge">
<title>Node10&#45;&gt;Node3</title>
<g id="a_edge13_Node000010_Node000003"><a xlink:title=" ">
<path fill="none" stroke="#63b8ff" d="M247.56,-55.55C258.3,-46.95 271.67,-36.26 282.62,-27.5"/>
<polygon fill="#63b8ff" stroke="#63b8ff" points="284.68,-30.33 290.3,-21.35 280.31,-24.87 284.68,-30.33"/>
</a>
</g>
</g>
<!-- Node11 -->
<g id="Node000011" class="node">
<title>Node11</title>
<g id="a_Node000011"><a xlink:title=" ">
<polygon fill="#e0e0e0" stroke="#999999" points="248.24,-20 208.24,-20 208.24,0 248.24,0 248.24,-20"/>
<text xml:space="preserve" text-anchor="middle" x="228.24" y="-6.5" font-family="Helvetica,sans-Serif" font-size="10.00">string</text>
</a>
</g>
</g>
<!-- Node10&#45;&gt;Node11 -->
<g id="edge10_Node000010_Node000011" class="edge">
<title>Node10&#45;&gt;Node11</title>
<g id="a_edge10_Node000010_Node000011"><a xlink:title=" ">
<path fill="none" stroke="#63b8ff" d="M228.24,-55.55C228.24,-48.34 228.24,-39.66 228.24,-31.88"/>
<polygon fill="#63b8ff" stroke="#63b8ff" points="231.74,-31.92 228.24,-21.92 224.74,-31.92 231.74,-31.92"/>
</a>
</g>
</g>
<!-- Node12 -->
<g id="Node000012" class="node">
<title>Node12</title>
<g id="a_Node000012"><a xlink:title=" ">
<polygon fill="#e0e0e0" stroke="#999999" points="175.74,-20 132.74,-20 132.74,0 175.74,0 175.74,-20"/>
<text xml:space="preserve" text-anchor="middle" x="154.24" y="-6.5" font-family="Helvetica,sans-Serif" font-size="10.00">vector</text>
</a>
</g>
</g>
<!-- Node10&#45;&gt;Node12 -->
<g id="edge11_Node000010_Node000012" class="edge">
<title>Node10&#45;&gt;Node12</title>
<g id="a_edge11_Node000010_Node000012"><a xlink:title=" ">
<path fill="none" stroke="#63b8ff" d="M209.19,-55.55C198.59,-46.95 185.4,-36.26 174.6,-27.5"/>
<polygon fill="#63b8ff" stroke="#63b8ff" points="176.99,-24.94 167.02,-21.36 172.59,-30.38 176.99,-24.94"/>
</a>
</g>
</g>
<!-- Node13&#45;&gt;Node10 -->
<g id="edge15_Node000013_Node000010" class="edge">
<title>Node13&#45;&gt;Node10</title>
<g id="a_edge15_Node000013_Node000010"><a xlink:title=" ">
<path fill="none" stroke="#63b8ff" d="M210.53,-123.62C212.86,-116.95 216.12,-107.64 219.21,-98.82"/>
<polygon fill="#63b8ff" stroke="#63b8ff" points="222.44,-100.16 222.44,-89.57 215.84,-97.85 222.44,-100.16"/>
</a>
</g>
</g>
<!-- Node14&#45;&gt;Node2 -->
<g id="edge18_Node000014_Node000002" class="edge">
<title>Node14&#45;&gt;Node2</title>
<g id="a_edge18_Node000014_Node000002"><a xlink:title=" ">
<path fill="none" stroke="#63b8ff" d="M74.02,-123.61C65.38,-115.11 53.3,-101.85 46.24,-88 37.16,-70.19 32.27,-47.82 29.74,-31.78"/>
<polygon fill="#63b8ff" stroke="#63b8ff" points="33.22,-31.42 28.38,-21.99 26.29,-32.37 33.22,-31.42"/>
</a>
</g>
</g>
<!-- Node14&#45;&gt;Node10 -->
<g id="edge17_Node000014_Node000010" class="edge">
<title>Node14&#45;&gt;Node10</title>
<g id="a_edge17_Node000014_Node000010"><a xlink:title=" ">
<path fill="none" stroke="#63b8ff" d="M106.74,-123.62C126.47,-115.41 155.8,-103.18 180.71,-92.81"/>
<polygon fill="#63b8ff" stroke="#63b8ff" points="181.78,-96.15 189.67,-89.07 179.09,-89.69 181.78,-96.15"/>
</a>
</g>
</g>
<!-- Node14&#45;&gt;Node12 -->
<g id="edge19_Node000014_Node000012" class="edge">
<title>Node14&#45;&gt;Node12</title>
<g id="a_edge19_Node000014_Node000012"><a xlink:title=" ">
<path fill="none" stroke="#63b8ff" d="M93.63,-123.66C101.96,-115 114.05,-101.44 122.24,-88 133.29,-69.88 142.18,-47.25 147.76,-31.23"/>
<polygon fill="#63b8ff" stroke="#63b8ff" points="151.04,-32.48 150.89,-21.89 144.4,-30.26 151.04,-32.48"/>
</a>
</g>
</g>
<!-- Node15 -->
<g id="Node000015" class="node">
<title>Node15</title>
<g id="a_Node000015"><a xlink:title=" ">
<polygon fill="#e0e0e0" stroke="#999999" points="113.62,-82 54.87,-82 54.87,-62 113.62,-62 113.62,-82"/>
<text xml:space="preserve" text-anchor="middle" x="84.24" y="-68.5" font-family="Helvetica,sans-Serif" font-size="10.00">stdexcept</text>
</a>
</g>
</g>
<!-- Node14&#45;&gt;Node15 -->
<g id="edge20_Node000014_Node000015" class="edge">
<title>Node14&#45;&gt;Node15</title>
<g id="a_edge20_Node000014_Node000015"><a xlink:title=" ">
<path fill="none" stroke="#63b8ff" d="M84.24,-123.62C84.24,-115.56 84.24,-103.65 84.24,-93.41"/>
<polygon fill="#63b8ff" stroke="#63b8ff" points="87.74,-93.63 84.24,-83.63 80.74,-93.63 87.74,-93.63"/>
</a>
</g>
</g>
</g>
</svg>
