<?xml version="1.0" encoding="UTF-8" standalone="no"?>
<!DOCTYPE svg PUBLIC "-//W3C//DTD SVG 1.1//EN"
 "http://www.w3.org/Graphics/SVG/1.1/DTD/svg11.dtd">
<!-- Generated by graphviz version 14.0.2 (20251019.1705)
 -->
<!-- Title: _4by4XO_Board::update_board Pages: 1 -->
<svg width="307pt" height="180pt"
 viewBox="0.00 0.00 307.00 180.00" xmlns="http://www.w3.org/2000/svg" xmlns:xlink="http://www.w3.org/1999/xlink">
<g id="graph0" class="graph" transform="scale(1 1) rotate(0) translate(4 176)">
<title>_4by4XO_Board::update_board</title>
<!-- Node1 -->
<g id="Node000001" class="node">
<title>Node1</title>
<g id="a_Node000001"><a xlink:title="Applies a sliding move.">
<polygon fill="#999999" stroke="#666666" points="122.5,-102 0,-102 0,-70 122.5,-70 122.5,-102"/>
<text xml:space="preserve" text-anchor="start" x="8" y="-88.5" font-family="Helvetica,sans-Serif" font-size="10.00">_4by4XO_Board::update</text>
<text xml:space="preserve" text-anchor="middle" x="61.25" y="-76.5" font-family="Helvetica,sans-Serif" font-size="10.00">_board</text>
</a>
</g>
</g>
<!-- Node2 -->
<g id="Node000002" class="node">
<title>Node2</title>
<g id="a_Node000002"><a xlink:href="class__4by4_x_o___move.html#aeb341ce279afac99213036ae2eb3221f" target="_top" xlink:title=" ">
<polygon fill="white" stroke="#666666" points="299,-172 158.5,-172 158.5,-152 299,-152 299,-172"/>
<text xml:space="preserve" text-anchor="middle" x="228.75" y="-158.5" font-family="Helvetica,sans-Serif" font-size="10.00">_4by4XO_Move::get_from_x</text>
</a>
</g>
</g>
<!-- Node1&#45;&gt;Node2 -->
<g id="edge1_Node000001_Node000002" class="edge">
<title>Node1&#45;&gt;Node2</title>
<g id="a_edge1_Node000001_Node000002"><a xlink:title=" ">
<path fill="none" stroke="#63b8ff" d="M85.83,-102.39C104.76,-114.94 132.4,-131.93 158.5,-143 162.83,-144.83 167.38,-146.54 172,-148.12"/>
<polygon fill="#63b8ff" stroke="#63b8ff" points="170.79,-151.41 181.38,-151.1 172.91,-144.73 170.79,-151.41"/>
</a>
</g>
</g>
<!-- Node3 -->
<g id="Node000003" class="node">
<title>Node3</title>
<g id="a_Node000003"><a xlink:href="class__4by4_x_o___move.html#aabffd145731c0f5f32061325c151eae6" target="_top" xlink:title=" ">
<polygon fill="white" stroke="#666666" points="299,-134 158.5,-134 158.5,-114 299,-114 299,-134"/>
<text xml:space="preserve" text-anchor="middle" x="228.75" y="-120.5" font-family="Helvetica,sans-Serif" font-size="10.00">_4by4XO_Move::get_from_y</text>
</a>
</g>
</g>
<!-- Node1&#45;&gt;Node3 -->
<g id="edge2_Node000001_Node000003" class="edge">
<title>Node1&#45;&gt;Node3</title>
<g id="a_edge2_Node000001_Node000003"><a xlink:title=" ">
<path fill="none" stroke="#63b8ff" d="M122.94,-99.93C138.67,-103.55 155.56,-107.42 171.08,-110.99"/>
<polygon fill="#63b8ff" stroke="#63b8ff" points="170.1,-114.36 180.63,-113.18 171.67,-107.53 170.1,-114.36"/>
</a>
</g>
</g>
<!-- Node4 -->
<g id="Node000004" class="node">
<title>Node4</title>
<g id="a_Node000004"><a xlink:href="class_move.html#a595bf740852c05a1cb425ef2640fd4ff" target="_top" xlink:title="Get the move symbol.">
<polygon fill="white" stroke="#666666" points="276.88,-96 180.62,-96 180.62,-76 276.88,-76 276.88,-96"/>
<text xml:space="preserve" text-anchor="middle" x="228.75" y="-82.5" font-family="Helvetica,sans-Serif" font-size="10.00">Move::get_symbol</text>
</a>
</g>
</g>
<!-- Node1&#45;&gt;Node4 -->
<g id="edge3_Node000001_Node000004" class="edge">
<title>Node1&#45;&gt;Node4</title>
<g id="a_edge3_Node000001_Node000004"><a xlink:title=" ">
<path fill="none" stroke="#63b8ff" d="M122.94,-86C138.01,-86 154.13,-86 169.1,-86"/>
<polygon fill="#63b8ff" stroke="#63b8ff" points="168.77,-89.5 178.77,-86 168.77,-82.5 168.77,-89.5"/>
</a>
</g>
</g>
<!-- Node5 -->
<g id="Node000005" class="node">
<title>Node5</title>
<g id="a_Node000005"><a xlink:href="class_move.html#a9d4f543a81e361f872d37bcfb64d5b55" target="_top" xlink:title="Get row index.">
<polygon fill="white" stroke="#666666" points="263.75,-58 193.75,-58 193.75,-38 263.75,-38 263.75,-58"/>
<text xml:space="preserve" text-anchor="middle" x="228.75" y="-44.5" font-family="Helvetica,sans-Serif" font-size="10.00">Move::get_x</text>
</a>
</g>
</g>
<!-- Node1&#45;&gt;Node5 -->
<g id="edge4_Node000001_Node000005" class="edge">
<title>Node1&#45;&gt;Node5</title>
<g id="a_edge4_Node000001_Node000005"><a xlink:title=" ">
<path fill="none" stroke="#63b8ff" d="M122.94,-72.07C142.65,-67.54 164.16,-62.6 182.54,-58.38"/>
<polygon fill="#63b8ff" stroke="#63b8ff" points="183.09,-61.84 192.06,-56.2 181.53,-55.02 183.09,-61.84"/>
</a>
</g>
</g>
<!-- Node6 -->
<g id="Node000006" class="node">
<title>Node6</title>
<g id="a_Node000006"><a xlink:href="class_move.html#a96469802a55c9083a1e93c7edec8a00c" target="_top" xlink:title="Get column index.">
<polygon fill="white" stroke="#666666" points="263.75,-20 193.75,-20 193.75,0 263.75,0 263.75,-20"/>
<text xml:space="preserve" text-anchor="middle" x="228.75" y="-6.5" font-family="Helvetica,sans-Serif" font-size="10.00">Move::get_y</text>
</a>
</g>
</g>
<!-- Node1&#45;&gt;Node6 -->
<g id="edge5_Node000001_Node000006" class="edge">
<title>Node1&#45;&gt;Node6</title>
<g id="a_edge5_Node000001_Node000006"><a xlink:title=" ">
<path fill="none" stroke="#63b8ff" d="M85.83,-69.61C104.76,-57.06 132.4,-40.07 158.5,-29 166.07,-25.79 174.35,-22.97 182.45,-20.55"/>
<polygon fill="#63b8ff" stroke="#63b8ff" points="183.18,-23.98 191.86,-17.92 181.29,-17.24 183.18,-23.98"/>
</a>
</g>
</g>
</g>
</svg>
