<?xml version="1.0" encoding="UTF-8" standalone="no"?>
<!DOCTYPE svg PUBLIC "-//W3C//DTD SVG 1.1//EN"
 "http://www.w3.org/Graphics/SVG/1.1/DTD/svg11.dtd">
<!-- Generated by graphviz version 14.0.2 (20251019.1705)
 -->
<!-- Title: Player&lt; T &gt; Pages: 1 -->
<svg width="143pt" height="379pt"
 viewBox="0.00 0.00 143.00 379.00" xmlns="http://www.w3.org/2000/svg" xmlns:xlink="http://www.w3.org/1999/xlink">
<g id="graph0" class="graph" transform="scale(1 1) rotate(0) translate(4 375)">
<title>Player&lt; T &gt;</title>
<!-- Node1 -->
<g id="Node000001" class="node">
<title>Node1</title>
<g id="a_Node000001"><a xlink:title="Base template for all players (human or AI).">
<polygon fill="#999999" stroke="none" points="113.62,-164 30.38,-164 30.38,0 113.62,0 113.62,-164"/>
<text xml:space="preserve" text-anchor="start" x="46.5" y="-150.5" font-family="Helvetica,sans-Serif" font-size="10.00">Player&lt; T &gt;</text>
<text xml:space="preserve" text-anchor="start" x="34.75" y="-134.5" font-family="Helvetica,sans-Serif" font-size="10.00">#</text>
<text xml:space="preserve" text-anchor="start" x="44.38" y="-134.5" font-family="Helvetica,sans-Serif" font-size="10.00">type</text>
<text xml:space="preserve" text-anchor="start" x="34.75" y="-118.5" font-family="Helvetica,sans-Serif" font-size="10.00">#</text>
<text xml:space="preserve" text-anchor="start" x="44.38" y="-118.5" font-family="Helvetica,sans-Serif" font-size="10.00">boardPtr</text>
<text xml:space="preserve" text-anchor="start" x="34.38" y="-102.5" font-family="Helvetica,sans-Serif" font-size="10.00">+</text>
<text xml:space="preserve" text-anchor="start" x="44.38" y="-102.5" font-family="Helvetica,sans-Serif" font-size="10.00">Player()</text>
<text xml:space="preserve" text-anchor="start" x="34.38" y="-86.5" font-family="Helvetica,sans-Serif" font-size="10.00">+</text>
<text xml:space="preserve" text-anchor="start" x="44.38" y="-86.5" font-family="Helvetica,sans-Serif" font-size="10.00">~Player()</text>
<text xml:space="preserve" text-anchor="start" x="34.38" y="-70.5" font-family="Helvetica,sans-Serif" font-size="10.00">+</text>
<text xml:space="preserve" text-anchor="start" x="44.38" y="-70.5" font-family="Helvetica,sans-Serif" font-size="10.00">get_name()</text>
<text xml:space="preserve" text-anchor="start" x="34.38" y="-54.5" font-family="Helvetica,sans-Serif" font-size="10.00">+</text>
<text xml:space="preserve" text-anchor="start" x="44.38" y="-54.5" font-family="Helvetica,sans-Serif" font-size="10.00">get_type()</text>
<text xml:space="preserve" text-anchor="start" x="34.38" y="-38.5" font-family="Helvetica,sans-Serif" font-size="10.00">+</text>
<text xml:space="preserve" text-anchor="start" x="44.38" y="-38.5" font-family="Helvetica,sans-Serif" font-size="10.00">get_symbol()</text>
<text xml:space="preserve" text-anchor="start" x="34.38" y="-22.5" font-family="Helvetica,sans-Serif" font-size="10.00">+</text>
<text xml:space="preserve" text-anchor="start" x="44.38" y="-22.5" font-family="Helvetica,sans-Serif" font-size="10.00">get_board_ptr()</text>
<text xml:space="preserve" text-anchor="start" x="34.38" y="-6.5" font-family="Helvetica,sans-Serif" font-size="10.00">+</text>
<text xml:space="preserve" text-anchor="start" x="44.38" y="-6.5" font-family="Helvetica,sans-Serif" font-size="10.00">set_board_ptr()</text>
<polygon fill="#666666" stroke="#666666" points="30.38,-146 30.38,-146 113.62,-146 113.62,-146 30.38,-146"/>
<polygon fill="#666666" stroke="#666666" points="30.38,-114 30.38,-114 42.38,-114 42.38,-114 30.38,-114"/>
<polygon fill="#666666" stroke="#666666" points="42.38,-114 42.38,-114 113.62,-114 113.62,-114 42.38,-114"/>
<polygon fill="none" stroke="#666666" points="30.38,0 30.38,-164 113.62,-164 113.62,0 30.38,0"/>
</a>
</g>
</g>
<!-- Node2 -->
<g id="Node000002" class="node">
<title>Node2</title>
<g id="a_Node000002"><a xlink:title=" ">
<polygon fill="white" stroke="none" points="68.75,-270 17.25,-270 17.25,-218 68.75,-218 68.75,-270"/>
<text xml:space="preserve" text-anchor="start" x="21.25" y="-256.5" font-family="Helvetica,sans-Serif" font-size="10.00">std::string</text>
<text xml:space="preserve" text-anchor="start" x="41.5" y="-240.5" font-family="Helvetica,sans-Serif" font-size="10.00"> </text>
<text xml:space="preserve" text-anchor="start" x="41.5" y="-224.5" font-family="Helvetica,sans-Serif" font-size="10.00"> </text>
<polygon fill="#666666" stroke="#666666" points="17.25,-252 17.25,-252 68.75,-252 68.75,-252 17.25,-252"/>
<polygon fill="#666666" stroke="#666666" points="17.25,-236 17.25,-236 68.75,-236 68.75,-236 17.25,-236"/>
<polygon fill="none" stroke="#666666" points="17.25,-218 17.25,-270 68.75,-270 68.75,-218 17.25,-218"/>
</a>
</g>
</g>
<!-- Node2&#45;&gt;Node1 -->
<g id="edge1_Node000001_Node000002" class="edge">
<title>Node2&#45;&gt;Node1</title>
<g id="a_edge1_Node000001_Node000002"><a xlink:title=" ">
<path fill="none" stroke="#63b8ff" d="M41.82,-218.25C41.67,-207.12 42.02,-193.84 43.75,-182 44.01,-180.24 44.29,-178.47 44.59,-176.69"/>
<polygon fill="none" stroke="#63b8ff" points="44.6,-176.6 41.81,-169.95 46.87,-164.82 49.66,-171.46 44.6,-176.6"/>
</a>
</g>
<text xml:space="preserve" text-anchor="start" x="46.75" y="-187.5" font-family="Helvetica,sans-Serif" font-size="10.00" fill="grey">#name</text>
</g>
<!-- Node3 -->
<g id="Node000003" class="node">
<title>Node3</title>
<g id="a_Node000003"><a xlink:title=" ">
<polygon fill="white" stroke="none" points="86,-371 0,-371 0,-307 86,-307 86,-371"/>
<text xml:space="preserve" text-anchor="start" x="4" y="-357.5" font-family="Helvetica,sans-Serif" font-size="10.00">std::basic_string&lt;</text>
<text xml:space="preserve" text-anchor="start" x="26.5" y="-345.5" font-family="Helvetica,sans-Serif" font-size="10.00"> Char &gt;</text>
<text xml:space="preserve" text-anchor="start" x="41.5" y="-329.5" font-family="Helvetica,sans-Serif" font-size="10.00"> </text>
<text xml:space="preserve" text-anchor="start" x="41.5" y="-313.5" font-family="Helvetica,sans-Serif" font-size="10.00"> </text>
<polygon fill="#666666" stroke="#666666" points="0,-341 0,-341 86,-341 86,-341 0,-341"/>
<polygon fill="#666666" stroke="#666666" points="0,-325 0,-325 86,-325 86,-325 0,-325"/>
<polygon fill="none" stroke="#666666" points="0,-307 0,-371 86,-371 86,-307 0,-307"/>
</a>
</g>
</g>
<!-- Node3&#45;&gt;Node2 -->
<g id="edge2_Node000002_Node000003" class="edge">
<title>Node3&#45;&gt;Node2</title>
<g id="a_edge2_Node000002_Node000003"><a xlink:title=" ">
<path fill="none" stroke="#63b8ff" d="M43,-295.69C43,-286.89 43,-277.89 43,-269.96"/>
<polygon fill="none" stroke="#63b8ff" points="39.5,-295.52 43,-305.52 46.5,-295.52 39.5,-295.52"/>
</a>
</g>
</g>
<!-- Node4 -->
<g id="Node000004" class="node">
<title>Node4</title>
<g id="a_Node000004"><a xlink:title=" ">
<polygon fill="white" stroke="none" points="108,-270 94,-270 94,-218 108,-218 108,-270"/>
<text xml:space="preserve" text-anchor="start" x="98" y="-256.5" font-family="Helvetica,sans-Serif" font-size="10.00">T</text>
<text xml:space="preserve" text-anchor="start" x="99.5" y="-240.5" font-family="Helvetica,sans-Serif" font-size="10.00"> </text>
<text xml:space="preserve" text-anchor="start" x="99.5" y="-224.5" font-family="Helvetica,sans-Serif" font-size="10.00"> </text>
<polygon fill="#666666" stroke="#666666" points="94,-252 94,-252 108,-252 108,-252 94,-252"/>
<polygon fill="#666666" stroke="#666666" points="94,-236 94,-236 108,-236 108,-236 94,-236"/>
<polygon fill="none" stroke="#666666" points="94,-218 94,-270 108,-270 108,-218 94,-218"/>
</a>
</g>
</g>
<!-- Node4&#45;&gt;Node1 -->
<g id="edge3_Node000001_Node000004" class="edge">
<title>Node4&#45;&gt;Node1</title>
<g id="a_edge3_Node000001_Node000004"><a xlink:title=" ">
<path fill="none" stroke="#63b8ff" d="M96.47,-218C94.36,-206.35 91.7,-191.68 88.92,-176.34"/>
<polygon fill="none" stroke="#63b8ff" points="88.97,-176.63 83.96,-171.44 86.83,-164.82 91.84,-170.01 88.97,-176.63"/>
</a>
</g>
<text xml:space="preserve" text-anchor="start" x="95.43" y="-187.5" font-family="Helvetica,sans-Serif" font-size="10.00" fill="grey">#symbol</text>
</g>
</g>
</svg>
