<?xml version="1.0" encoding="UTF-8" standalone="no"?>
<!DOCTYPE svg PUBLIC "-//W3C//DTD SVG 1.1//EN"
 "http://www.w3.org/Graphics/SVG/1.1/DTD/svg11.dtd">
<!-- Generated by graphviz version 14.0.2 (20251019.1705)
 -->
<!-- Title: Large_XO_Board::update_board Pages: 1 -->
<svg width="312pt" height="142pt"
 viewBox="0.00 0.00 312.00 142.00" xmlns="http://www.w3.org/2000/svg" xmlns:xlink="http://www.w3.org/1999/xlink">
<g id="graph0" class="graph" transform="scale(1 1) rotate(0) translate(4 138)">
<title>Large_XO_Board::update_board</title>
<!-- Node1 -->
<g id="Node000001" class="node">
<title>Node1</title>
<g id="a_Node000001"><a xlink:title="Update board using a Move object (overrides base class).">
<polygon fill="#999999" stroke="#666666" points="125.5,-83 0,-83 0,-51 125.5,-51 125.5,-83"/>
<text xml:space="preserve" text-anchor="start" x="8" y="-69.5" font-family="Helvetica,sans-Serif" font-size="10.00">Large_XO_Board::update</text>
<text xml:space="preserve" text-anchor="middle" x="62.75" y="-57.5" font-family="Helvetica,sans-Serif" font-size="10.00">_board</text>
</a>
</g>
</g>
<!-- Node2 -->
<g id="Node000002" class="node">
<title>Node2</title>
<g id="a_Node000002"><a xlink:href="$class_move.html#a595bf740852c05a1cb425ef2640fd4ff" xlink:title="Get the move symbol.">
<polygon fill="white" stroke="#666666" points="281,-134 184.75,-134 184.75,-114 281,-114 281,-134"/>
<text xml:space="preserve" text-anchor="middle" x="232.88" y="-120.5" font-family="Helvetica,sans-Serif" font-size="10.00">Move::get_symbol</text>
</a>
</g>
</g>
<!-- Node1&#45;&gt;Node2 -->
<g id="edge1_Node000001_Node000002" class="edge">
<title>Node1&#45;&gt;Node2</title>
<g id="a_edge1_Node000001_Node000002"><a xlink:title=" ">
<path fill="none" stroke="#63b8ff" d="M102.88,-83.32C120.62,-90.43 141.95,-98.58 161.5,-105 167.29,-106.9 173.38,-108.76 179.47,-110.52"/>
<polygon fill="#63b8ff" stroke="#63b8ff" points="178.32,-113.83 188.89,-113.17 180.21,-107.09 178.32,-113.83"/>
</a>
</g>
</g>
<!-- Node3 -->
<g id="Node000003" class="node">
<title>Node3</title>
<g id="a_Node000003"><a xlink:href="$class_move.html#a9d4f543a81e361f872d37bcfb64d5b55" xlink:title="Get row index.">
<polygon fill="white" stroke="#666666" points="267.88,-96 197.88,-96 197.88,-76 267.88,-76 267.88,-96"/>
<text xml:space="preserve" text-anchor="middle" x="232.88" y="-82.5" font-family="Helvetica,sans-Serif" font-size="10.00">Move::get_x</text>
</a>
</g>
</g>
<!-- Node1&#45;&gt;Node3 -->
<g id="edge2_Node000001_Node000003" class="edge">
<title>Node1&#45;&gt;Node3</title>
<g id="a_edge2_Node000001_Node000003"><a xlink:title=" ">
<path fill="none" stroke="#63b8ff" d="M125.88,-74.02C145.92,-76.29 167.76,-78.75 186.37,-80.86"/>
<polygon fill="#63b8ff" stroke="#63b8ff" points="185.96,-84.33 196.29,-81.98 186.74,-77.38 185.96,-84.33"/>
</a>
</g>
</g>
<!-- Node4 -->
<g id="Node000004" class="node">
<title>Node4</title>
<g id="a_Node000004"><a xlink:href="$class_move.html#a96469802a55c9083a1e93c7edec8a00c" xlink:title="Get column index.">
<polygon fill="white" stroke="#666666" points="267.88,-58 197.88,-58 197.88,-38 267.88,-38 267.88,-58"/>
<text xml:space="preserve" text-anchor="middle" x="232.88" y="-44.5" font-family="Helvetica,sans-Serif" font-size="10.00">Move::get_y</text>
</a>
</g>
</g>
<!-- Node1&#45;&gt;Node4 -->
<g id="edge3_Node000001_Node000004" class="edge">
<title>Node1&#45;&gt;Node4</title>
<g id="a_edge3_Node000001_Node000004"><a xlink:title=" ">
<path fill="none" stroke="#63b8ff" d="M125.88,-59.98C145.92,-57.71 167.76,-55.25 186.37,-53.14"/>
<polygon fill="#63b8ff" stroke="#63b8ff" points="186.74,-56.62 196.29,-52.02 185.96,-49.67 186.74,-56.62"/>
</a>
</g>
</g>
<!-- Node5 -->
<g id="Node000005" class="node">
<title>Node5</title>
<g id="a_Node000005"><a xlink:href="$class_large___x_o___board.html#a54d37f155f8bd97a86a548171de3217d" xlink:title="Update a cell using the bitboard representation.">
<polygon fill="white" stroke="#666666" points="304.25,-20 161.5,-20 161.5,0 304.25,0 304.25,-20"/>
<text xml:space="preserve" text-anchor="middle" x="232.88" y="-6.5" font-family="Helvetica,sans-Serif" font-size="10.00">Large_XO_Board::updateCell</text>
</a>
</g>
</g>
<!-- Node1&#45;&gt;Node5 -->
<g id="edge4_Node000001_Node000005" class="edge">
<title>Node1&#45;&gt;Node5</title>
<g id="a_edge4_Node000001_Node000005"><a xlink:title=" ">
<path fill="none" stroke="#63b8ff" d="M102.88,-50.68C120.62,-43.57 141.95,-35.42 161.5,-29 167.29,-27.1 173.38,-25.24 179.47,-23.48"/>
<polygon fill="#63b8ff" stroke="#63b8ff" points="180.21,-26.91 188.89,-20.83 178.32,-20.17 180.21,-26.91"/>
</a>
</g>
</g>
</g>
</svg>
