<?xml version="1.0" encoding="UTF-8" standalone="no"?>
<!DOCTYPE svg PUBLIC "-//W3C//DTD SVG 1.1//EN"
 "http://www.w3.org/Graphics/SVG/1.1/DTD/svg11.dtd">
<!-- Generated by graphviz version 14.0.2 (20251019.1705)
 -->
<!-- Title: Anti_XO_Board::game_is_over Pages: 1 -->
<svg width="573pt" height="53pt"
 viewBox="0.00 0.00 573.00 53.00" xmlns="http://www.w3.org/2000/svg" xmlns:xlink="http://www.w3.org/1999/xlink">
<g id="graph0" class="graph" transform="scale(1 1) rotate(0) translate(4 49)">
<title>Anti_XO_Board::game_is_over</title>
<!-- Node1 -->
<g id="Node000001" class="node">
<title>Node1</title>
<g id="a_Node000001"><a xlink:title="Checks if the game is over (loss or draw).">
<polygon fill="#999999" stroke="#666666" points="113.5,-32 0,-32 0,0 113.5,0 113.5,-32"/>
<text xml:space="preserve" text-anchor="start" x="8" y="-18.5" font-family="Helvetica,sans-Serif" font-size="10.00">Anti_XO_Board::game</text>
<text xml:space="preserve" text-anchor="middle" x="56.75" y="-6.5" font-family="Helvetica,sans-Serif" font-size="10.00">_is_over</text>
</a>
</g>
</g>
<!-- Node2 -->
<g id="Node000002" class="node">
<title>Node2</title>
<g id="a_Node000002"><a xlink:href="class_anti___x_o___board.html#ab8080f9ad2f80291242e192ba90ec7f6" target="_top" xlink:title="Checks if the game is a draw (board full and no losing line).">
<polygon fill="white" stroke="#666666" points="272.75,-45 149.5,-45 149.5,-25 272.75,-25 272.75,-45"/>
<text xml:space="preserve" text-anchor="middle" x="211.12" y="-31.5" font-family="Helvetica,sans-Serif" font-size="10.00">Anti_XO_Board::is_draw</text>
</a>
</g>
</g>
<!-- Node1&#45;&gt;Node2 -->
<g id="edge1_Node000001_Node000002" class="edge">
<title>Node1&#45;&gt;Node2</title>
<g id="a_edge1_Node000001_Node000002"><a xlink:title=" ">
<path fill="none" stroke="#63b8ff" d="M113.62,-22.97C121.47,-23.95 129.64,-24.96 137.74,-25.97"/>
<polygon fill="#63b8ff" stroke="#63b8ff" points="137.26,-29.44 147.62,-27.21 138.13,-22.5 137.26,-29.44"/>
</a>
</g>
</g>
<!-- Node3 -->
<g id="Node000003" class="node">
<title>Node3</title>
<g id="a_Node000003"><a xlink:href="class_anti___x_o___board.html#a5aac552832361a07465eaee44b5ead48" target="_top" xlink:title="Checks if the player loses by forming a 3&#45;in&#45;a&#45;row line.">
<polygon fill="white" stroke="#666666" points="429,-26 308.75,-26 308.75,-6 429,-6 429,-26"/>
<text xml:space="preserve" text-anchor="middle" x="368.88" y="-12.5" font-family="Helvetica,sans-Serif" font-size="10.00">Anti_XO_Board::is_lose</text>
</a>
</g>
</g>
<!-- Node1&#45;&gt;Node3 -->
<g id="edge4_Node000001_Node000003" class="edge">
<title>Node1&#45;&gt;Node3</title>
<g id="a_edge4_Node000001_Node000003"><a xlink:title=" ">
<path fill="none" stroke="#63b8ff" d="M113.91,-16C165.35,-16 241.71,-16 297.26,-16"/>
<polygon fill="#63b8ff" stroke="#63b8ff" points="296.92,-19.5 306.92,-16 296.92,-12.5 296.92,-19.5"/>
</a>
</g>
</g>
<!-- Node2&#45;&gt;Node3 -->
<g id="edge2_Node000002_Node000003" class="edge">
<title>Node2&#45;&gt;Node3</title>
<g id="a_edge2_Node000002_Node000003"><a xlink:title=" ">
<path fill="none" stroke="#63b8ff" d="M273.23,-27.55C281.11,-26.58 289.23,-25.59 297.25,-24.62"/>
<polygon fill="#63b8ff" stroke="#63b8ff" points="297.47,-28.12 306.97,-23.43 296.62,-21.17 297.47,-28.12"/>
</a>
</g>
</g>
<!-- Node4 -->
<g id="Node000004" class="node">
<title>Node4</title>
<g id="a_Node000004"><a xlink:href="class_player.html#af56f0bf98c0423a3a75b0848607d03a4" target="_top" xlink:title="Get the player&#39;s symbol.">
<polygon fill="white" stroke="#666666" points="565,-26 465,-26 465,-6 565,-6 565,-26"/>
<text xml:space="preserve" text-anchor="middle" x="515" y="-12.5" font-family="Helvetica,sans-Serif" font-size="10.00">Player::get_symbol</text>
</a>
</g>
</g>
<!-- Node3&#45;&gt;Node4 -->
<g id="edge3_Node000003_Node000004" class="edge">
<title>Node3&#45;&gt;Node4</title>
<g id="a_edge3_Node000003_Node000004"><a xlink:title=" ">
<path fill="none" stroke="#63b8ff" d="M429.33,-16C437.25,-16 445.38,-16 453.32,-16"/>
<polygon fill="#63b8ff" stroke="#63b8ff" points="453.25,-19.5 463.25,-16 453.25,-12.5 453.25,-19.5"/>
</a>
</g>
</g>
</g>
</svg>
