<?xml version="1.0" encoding="UTF-8" standalone="no"?>
<!DOCTYPE svg PUBLIC "-//W3C//DTD SVG 1.1//EN"
 "http://www.w3.org/Graphics/SVG/1.1/DTD/svg11.dtd">
<!-- Generated by graphviz version 14.0.2 (20251019.1705)
 -->
<!-- Title: Four_AI Pages: 1 -->
<svg width="107pt" height="288pt"
 viewBox="0.00 0.00 107.00 288.00" xmlns="http://www.w3.org/2000/svg" xmlns:xlink="http://www.w3.org/1999/xlink">
<g id="graph0" class="graph" transform="scale(1 1) rotate(0) translate(4 284)">
<title>Four_AI</title>
<!-- Node1 -->
<g id="Node000001" class="node">
<title>Node1</title>
<g id="a_Node000001"><a xlink:title="Implements a minimax&#45;based AI for Connect&#45;Four.">
<polygon fill="#999999" stroke="none" points="99,-144 0,-144 0,0 99,0 99,-144"/>
<text xml:space="preserve" text-anchor="start" x="32.25" y="-130.5" font-family="Helvetica,sans-Serif" font-size="10.00">Four_AI</text>
<text xml:space="preserve" text-anchor="start" x="48" y="-114.5" font-family="Helvetica,sans-Serif" font-size="10.00"> </text>
<text xml:space="preserve" text-anchor="start" x="4" y="-98.5" font-family="Helvetica,sans-Serif" font-size="10.00">+</text>
<text xml:space="preserve" text-anchor="start" x="14" y="-98.5" font-family="Helvetica,sans-Serif" font-size="10.00">Four_AI()</text>
<text xml:space="preserve" text-anchor="start" x="4" y="-82.5" font-family="Helvetica,sans-Serif" font-size="10.00">+</text>
<text xml:space="preserve" text-anchor="start" x="14" y="-82.5" font-family="Helvetica,sans-Serif" font-size="10.00">evaluate()</text>
<text xml:space="preserve" text-anchor="start" x="4" y="-66.5" font-family="Helvetica,sans-Serif" font-size="10.00">+</text>
<text xml:space="preserve" text-anchor="start" x="14" y="-66.5" font-family="Helvetica,sans-Serif" font-size="10.00">minimax()</text>
<text xml:space="preserve" text-anchor="start" x="4" y="-50.5" font-family="Helvetica,sans-Serif" font-size="10.00">+</text>
<text xml:space="preserve" text-anchor="start" x="14" y="-50.5" font-family="Helvetica,sans-Serif" font-size="10.00">isMovesLeft()</text>
<text xml:space="preserve" text-anchor="start" x="4" y="-34.5" font-family="Helvetica,sans-Serif" font-size="10.00">+</text>
<text xml:space="preserve" text-anchor="start" x="14" y="-34.5" font-family="Helvetica,sans-Serif" font-size="10.00">get_next_available</text>
<text xml:space="preserve" text-anchor="start" x="14" y="-22.5" font-family="Helvetica,sans-Serif" font-size="10.00">_row()</text>
<text xml:space="preserve" text-anchor="start" x="4" y="-6.5" font-family="Helvetica,sans-Serif" font-size="10.00">+</text>
<text xml:space="preserve" text-anchor="start" x="14" y="-6.5" font-family="Helvetica,sans-Serif" font-size="10.00">bestMove()</text>
<polygon fill="#666666" stroke="#666666" points="0,-126 0,-126 99,-126 99,-126 0,-126"/>
<polygon fill="#666666" stroke="#666666" points="0,-110 0,-110 99,-110 99,-110 0,-110"/>
<polygon fill="none" stroke="#666666" points="0,0 0,-144 99,-144 99,0 0,0"/>
</a>
</g>
</g>
<!-- Node2 -->
<g id="Node000002" class="node">
<title>Node2</title>
<g id="a_Node000002"><a xlink:href="class_a_i.html" target="_top" xlink:title="AI Interface for all implementations in games.">
<polygon fill="white" stroke="none" points="82.88,-280 16.12,-280 16.12,-180 82.88,-180 82.88,-280"/>
<text xml:space="preserve" text-anchor="start" x="44.62" y="-266.5" font-family="Helvetica,sans-Serif" font-size="10.00">AI</text>
<text xml:space="preserve" text-anchor="start" x="48" y="-250.5" font-family="Helvetica,sans-Serif" font-size="10.00"> </text>
<text xml:space="preserve" text-anchor="start" x="20.12" y="-234.5" font-family="Helvetica,sans-Serif" font-size="10.00">+</text>
<text xml:space="preserve" text-anchor="start" x="30.12" y="-234.5" font-family="Helvetica,sans-Serif" font-size="10.00">evaluate()</text>
<text xml:space="preserve" text-anchor="start" x="20.12" y="-218.5" font-family="Helvetica,sans-Serif" font-size="10.00">+</text>
<text xml:space="preserve" text-anchor="start" x="30.12" y="-218.5" font-family="Helvetica,sans-Serif" font-size="10.00">minimax()</text>
<text xml:space="preserve" text-anchor="start" x="20.12" y="-202.5" font-family="Helvetica,sans-Serif" font-size="10.00">+</text>
<text xml:space="preserve" text-anchor="start" x="30.12" y="-202.5" font-family="Helvetica,sans-Serif" font-size="10.00">bestMove()</text>
<text xml:space="preserve" text-anchor="start" x="20.12" y="-186.5" font-family="Helvetica,sans-Serif" font-size="10.00">+</text>
<text xml:space="preserve" text-anchor="start" x="30.12" y="-186.5" font-family="Helvetica,sans-Serif" font-size="10.00">~AI()</text>
<polygon fill="#666666" stroke="#666666" points="16.12,-262 16.12,-262 82.88,-262 82.88,-262 16.12,-262"/>
<polygon fill="#666666" stroke="#666666" points="16.12,-246 16.12,-246 82.88,-246 82.88,-246 16.12,-246"/>
<polygon fill="none" stroke="#666666" points="16.12,-180 16.12,-280 82.88,-280 82.88,-180 16.12,-180"/>
</a>
</g>
</g>
<!-- Node2&#45;&gt;Node1 -->
<g id="edge1_Node000001_Node000002" class="edge">
<title>Node2&#45;&gt;Node1</title>
<g id="a_edge1_Node000001_Node000002"><a xlink:title=" ">
<path fill="none" stroke="#63b8ff" d="M49.5,-168.73C49.5,-160.55 49.5,-152.1 49.5,-143.75"/>
<polygon fill="none" stroke="#63b8ff" points="46,-168.56 49.5,-178.56 53,-168.56 46,-168.56"/>
</a>
</g>
</g>
</g>
</svg>
