<?xml version="1.0" encoding="UTF-8" standalone="no"?>
<!DOCTYPE svg PUBLIC "-//W3C//DTD SVG 1.1//EN"
 "http://www.w3.org/Graphics/SVG/1.1/DTD/svg11.dtd">
<!-- Generated by graphviz version 14.0.2 (20251019.1705)
 -->
<!-- Title: _4by4XO_UI::get_move Pages: 1 -->
<svg width="430pt" height="180pt"
 viewBox="0.00 0.00 430.00 180.00" xmlns="http://www.w3.org/2000/svg" xmlns:xlink="http://www.w3.org/1999/xlink">
<g id="graph0" class="graph" transform="scale(1 1) rotate(0) translate(4 176)">
<title>_4by4XO_UI::get_move</title>
<!-- Node1 -->
<g id="Node000001" class="node">
<title>Node1</title>
<g id="a_Node000001"><a xlink:title="Gets a move from human or AI.">
<polygon fill="#999999" stroke="#666666" points="121,-77 0,-77 0,-57 121,-57 121,-77"/>
<text xml:space="preserve" text-anchor="middle" x="60.5" y="-63.5" font-family="Helvetica,sans-Serif" font-size="10.00">_4by4XO_UI::get_move</text>
</a>
</g>
</g>
<!-- Node2 -->
<g id="Node000002" class="node">
<title>Node2</title>
<g id="a_Node000002"><a xlink:href="class__4by4_x_o___a_i.html#aa13e6d3e4cdedc6ea7e813a16d4c0d68" target="_top" xlink:title="Computes the best move for AI.">
<polygon fill="white" stroke="#666666" points="277.25,-134 157,-134 157,-114 277.25,-114 277.25,-134"/>
<text xml:space="preserve" text-anchor="middle" x="217.12" y="-120.5" font-family="Helvetica,sans-Serif" font-size="10.00">_4by4XO_AI::bestMove</text>
</a>
</g>
</g>
<!-- Node1&#45;&gt;Node2 -->
<g id="edge1_Node000001_Node000002" class="edge">
<title>Node1&#45;&gt;Node2</title>
<g id="a_edge1_Node000001_Node000002"><a xlink:title=" ">
<path fill="none" stroke="#63b8ff" d="M89.86,-77.45C114.3,-86.47 149.84,-99.57 176.99,-109.57"/>
<polygon fill="#63b8ff" stroke="#63b8ff" points="175.67,-112.82 186.26,-112.99 178.09,-106.25 175.67,-112.82"/>
</a>
</g>
</g>
<!-- Node5 -->
<g id="Node000005" class="node">
<title>Node5</title>
<g id="a_Node000005"><a xlink:href="class_player.html#af56f0bf98c0423a3a75b0848607d03a4" target="_top" xlink:title="Get the player&#39;s symbol.">
<polygon fill="white" stroke="#666666" points="417.75,-96 317.75,-96 317.75,-76 417.75,-76 417.75,-96"/>
<text xml:space="preserve" text-anchor="middle" x="367.75" y="-82.5" font-family="Helvetica,sans-Serif" font-size="10.00">Player::get_symbol</text>
</a>
</g>
</g>
<!-- Node1&#45;&gt;Node5 -->
<g id="edge6_Node000001_Node000005" class="edge">
<title>Node1&#45;&gt;Node5</title>
<g id="a_edge6_Node000001_Node000005"><a xlink:title=" ">
<path fill="none" stroke="#63b8ff" d="M121.44,-70.73C174.82,-74.05 252.55,-78.89 306.13,-82.23"/>
<polygon fill="#63b8ff" stroke="#63b8ff" points="305.81,-85.71 316.01,-82.84 306.24,-78.73 305.81,-85.71"/>
</a>
</g>
</g>
<!-- Node6 -->
<g id="Node000006" class="node">
<title>Node6</title>
<g id="a_Node000006"><a xlink:href="class_player.html#aed2af19790ba73190e3ebeea589518e1" target="_top" xlink:title="Get the player&#39;s name.">
<polygon fill="white" stroke="#666666" points="263.38,-58 170.88,-58 170.88,-38 263.38,-38 263.38,-58"/>
<text xml:space="preserve" text-anchor="middle" x="217.12" y="-44.5" font-family="Helvetica,sans-Serif" font-size="10.00">Player::get_name</text>
</a>
</g>
</g>
<!-- Node1&#45;&gt;Node6 -->
<g id="edge5_Node000001_Node000006" class="edge">
<title>Node1&#45;&gt;Node6</title>
<g id="a_edge5_Node000001_Node000006"><a xlink:title=" ">
<path fill="none" stroke="#63b8ff" d="M121.28,-59.65C133.77,-58.12 146.91,-56.5 159.29,-54.98"/>
<polygon fill="#63b8ff" stroke="#63b8ff" points="159.41,-58.5 168.91,-53.8 158.56,-51.55 159.41,-58.5"/>
</a>
</g>
</g>
<!-- Node7 -->
<g id="Node000007" class="node">
<title>Node7</title>
<g id="a_Node000007"><a xlink:href="class_player.html#a2df3bd299bf7aecfa2275ec6902a60f8" target="_top" xlink:title="Get player type (e.g., &#39;H&#39; or &#39;C&#39;).">
<polygon fill="white" stroke="#666666" points="260.75,-20 173.5,-20 173.5,0 260.75,0 260.75,-20"/>
<text xml:space="preserve" text-anchor="middle" x="217.12" y="-6.5" font-family="Helvetica,sans-Serif" font-size="10.00">Player::get_type</text>
</a>
</g>
</g>
<!-- Node1&#45;&gt;Node7 -->
<g id="edge7_Node000001_Node000007" class="edge">
<title>Node1&#45;&gt;Node7</title>
<g id="a_edge7_Node000001_Node000007"><a xlink:title=" ">
<path fill="none" stroke="#63b8ff" d="M86.46,-56.53C105.62,-48.62 132.82,-37.69 157,-29 161.69,-27.31 166.62,-25.62 171.54,-23.97"/>
<polygon fill="#63b8ff" stroke="#63b8ff" points="172.38,-27.38 180.79,-20.93 170.19,-20.73 172.38,-27.38"/>
</a>
</g>
</g>
<!-- Node3 -->
<g id="Node000003" class="node">
<title>Node3</title>
<g id="a_Node000003"><a xlink:href="class_player.html#a508617eddfae8915d098102d480fc888" target="_top" xlink:title="Get a pointer to the game board.">
<polygon fill="white" stroke="#666666" points="422.25,-172 313.25,-172 313.25,-152 422.25,-152 422.25,-172"/>
<text xml:space="preserve" text-anchor="middle" x="367.75" y="-158.5" font-family="Helvetica,sans-Serif" font-size="10.00">Player::get_board_ptr</text>
</a>
</g>
</g>
<!-- Node2&#45;&gt;Node3 -->
<g id="edge2_Node000002_Node000003" class="edge">
<title>Node2&#45;&gt;Node3</title>
<g id="a_edge2_Node000002_Node000003"><a xlink:title=" ">
<path fill="none" stroke="#63b8ff" d="M259.13,-134.48C276.35,-138.89 296.58,-144.06 314.82,-148.72"/>
<polygon fill="#63b8ff" stroke="#63b8ff" points="313.86,-152.09 324.41,-151.18 315.59,-145.31 313.86,-152.09"/>
</a>
</g>
</g>
<!-- Node4 -->
<g id="Node000004" class="node">
<title>Node4</title>
<g id="a_Node000004"><a xlink:href="class_board.html#a93558c58e60ca4291c6044828afd260b" target="_top" xlink:title="Return content of cell x, y in current board.">
<polygon fill="white" stroke="#666666" points="408.38,-134 327.12,-134 327.12,-114 408.38,-114 408.38,-134"/>
<text xml:space="preserve" text-anchor="middle" x="367.75" y="-120.5" font-family="Helvetica,sans-Serif" font-size="10.00">Board::get_cell</text>
</a>
</g>
</g>
<!-- Node2&#45;&gt;Node4 -->
<g id="edge3_Node000002_Node000004" class="edge">
<title>Node2&#45;&gt;Node4</title>
<g id="a_edge3_Node000002_Node000004"><a xlink:title=" ">
<path fill="none" stroke="#63b8ff" d="M277.72,-124C290.2,-124 303.27,-124 315.42,-124"/>
<polygon fill="#63b8ff" stroke="#63b8ff" points="315.23,-127.5 325.23,-124 315.23,-120.5 315.23,-127.5"/>
</a>
</g>
</g>
<!-- Node2&#45;&gt;Node5 -->
<g id="edge4_Node000002_Node000005" class="edge">
<title>Node2&#45;&gt;Node5</title>
<g id="a_edge4_Node000002_Node000005"><a xlink:title=" ">
<path fill="none" stroke="#63b8ff" d="M259.13,-113.52C276.35,-109.11 296.58,-103.94 314.82,-99.28"/>
<polygon fill="#63b8ff" stroke="#63b8ff" points="315.59,-102.69 324.41,-96.82 313.86,-95.91 315.59,-102.69"/>
</a>
</g>
</g>
</g>
</svg>
