<?xml version="1.0" encoding="UTF-8" standalone="no"?>
<!DOCTYPE svg PUBLIC "-//W3C//DTD SVG 1.1//EN"
 "http://www.w3.org/Graphics/SVG/1.1/DTD/svg11.dtd">
<!-- Generated by graphviz version 14.0.2 (20251019.1705)
 -->
<!-- Title: dia_XO_Board::game_is_over Pages: 1 -->
<svg width="408pt" height="66pt"
 viewBox="0.00 0.00 408.00 66.00" xmlns="http://www.w3.org/2000/svg" xmlns:xlink="http://www.w3.org/1999/xlink">
<g id="graph0" class="graph" transform="scale(1 1) rotate(0) translate(4 62)">
<title>dia_XO_Board::game_is_over</title>
<!-- Node1 -->
<g id="Node000001" class="node">
<title>Node1</title>
<g id="a_Node000001"><a xlink:title="Check if the game is over.">
<polygon fill="#999999" stroke="#666666" points="109,-45 0,-45 0,-13 109,-13 109,-45"/>
<text xml:space="preserve" text-anchor="start" x="8" y="-31.5" font-family="Helvetica,sans-Serif" font-size="10.00">dia_XO_Board::game</text>
<text xml:space="preserve" text-anchor="middle" x="54.5" y="-19.5" font-family="Helvetica,sans-Serif" font-size="10.00">_is_over</text>
</a>
</g>
</g>
<!-- Node2 -->
<g id="Node000002" class="node">
<title>Node2</title>
<g id="a_Node000002"><a xlink:href="$classdia___x_o___board.html#a6cfc262a76859ef721a866e5c81dcb5b" xlink:title="Check if the game ended in a draw.">
<polygon fill="white" stroke="#666666" points="263.75,-58 145,-58 145,-38 263.75,-38 263.75,-58"/>
<text xml:space="preserve" text-anchor="middle" x="204.38" y="-44.5" font-family="Helvetica,sans-Serif" font-size="10.00">dia_XO_Board::is_draw</text>
</a>
</g>
</g>
<!-- Node1&#45;&gt;Node2 -->
<g id="edge1_Node000001_Node000002" class="edge">
<title>Node1&#45;&gt;Node2</title>
<g id="a_edge1_Node000001_Node000002"><a xlink:title=" ">
<path fill="none" stroke="#63b8ff" d="M109.3,-35.91C117.11,-36.92 125.23,-37.96 133.3,-39"/>
<polygon fill="#63b8ff" stroke="#63b8ff" points="132.75,-42.45 143.12,-40.26 133.64,-35.51 132.75,-42.45"/>
</a>
</g>
</g>
<!-- Node3 -->
<g id="Node000003" class="node">
<title>Node3</title>
<g id="a_Node000003"><a xlink:href="$classdia___x_o___board.html#ace5ad1f96f61c119b02476049d9be35d" xlink:title="Check if a player has won.">
<polygon fill="white" stroke="#666666" points="260.75,-20 148,-20 148,0 260.75,0 260.75,-20"/>
<text xml:space="preserve" text-anchor="middle" x="204.38" y="-6.5" font-family="Helvetica,sans-Serif" font-size="10.00">dia_XO_Board::is_win</text>
</a>
</g>
</g>
<!-- Node1&#45;&gt;Node3 -->
<g id="edge2_Node000001_Node000003" class="edge">
<title>Node1&#45;&gt;Node3</title>
<g id="a_edge2_Node000001_Node000003"><a xlink:title=" ">
<path fill="none" stroke="#63b8ff" d="M109.3,-22.09C118.13,-20.95 127.37,-19.77 136.47,-18.6"/>
<polygon fill="#63b8ff" stroke="#63b8ff" points="136.9,-22.07 146.37,-17.32 136.01,-15.13 136.9,-22.07"/>
</a>
</g>
</g>
<!-- Node4 -->
<g id="Node000004" class="node">
<title>Node4</title>
<g id="a_Node000004"><a xlink:href="$class_player.html#af56f0bf98c0423a3a75b0848607d03a4" xlink:title="Get the player&#39;s symbol.">
<polygon fill="white" stroke="#666666" points="399.75,-20 299.75,-20 299.75,0 399.75,0 399.75,-20"/>
<text xml:space="preserve" text-anchor="middle" x="349.75" y="-6.5" font-family="Helvetica,sans-Serif" font-size="10.00">Player::get_symbol</text>
</a>
</g>
</g>
<!-- Node3&#45;&gt;Node4 -->
<g id="edge3_Node000003_Node000004" class="edge">
<title>Node3&#45;&gt;Node4</title>
<g id="a_edge3_Node000003_Node000004"><a xlink:title=" ">
<path fill="none" stroke="#63b8ff" d="M261.22,-10C269.97,-10 279.04,-10 287.9,-10"/>
<polygon fill="#63b8ff" stroke="#63b8ff" points="287.84,-13.5 297.84,-10 287.84,-6.5 287.84,-13.5"/>
</a>
</g>
</g>
</g>
</svg>
