<?xml version="1.0" encoding="UTF-8" standalone="no"?>
<!DOCTYPE svg PUBLIC "-//W3C//DTD SVG 1.1//EN"
 "http://www.w3.org/Graphics/SVG/1.1/DTD/svg11.dtd">
<!-- Generated by graphviz version 14.0.2 (20251019.1705)
 -->
<!-- Title: Ultimate_Board::update_board Pages: 1 -->
<svg width="276pt" height="154pt"
 viewBox="0.00 0.00 276.00 154.00" xmlns="http://www.w3.org/2000/svg" xmlns:xlink="http://www.w3.org/1999/xlink">
<g id="graph0" class="graph" transform="scale(1 1) rotate(0) translate(4 150)">
<title>Ultimate_Board::update_board</title>
<!-- Node1 -->
<g id="Node000001" class="node">
<title>Node1</title>
<g id="a_Node000001"><a xlink:title="Apply or undo a move on the board.">
<polygon fill="#999999" stroke="#666666" points="118.75,-95 0,-95 0,-63 118.75,-63 118.75,-95"/>
<text xml:space="preserve" text-anchor="start" x="8" y="-81.5" font-family="Helvetica,sans-Serif" font-size="10.00">Ultimate_Board::update</text>
<text xml:space="preserve" text-anchor="middle" x="59.38" y="-69.5" font-family="Helvetica,sans-Serif" font-size="10.00">_board</text>
</a>
</g>
</g>
<!-- Node2 -->
<g id="Node000002" class="node">
<title>Node2</title>
<g id="a_Node000002"><a xlink:href="class_move.html#a595bf740852c05a1cb425ef2640fd4ff" target="_top" xlink:title="Get the move symbol.">
<polygon fill="white" stroke="#666666" points="259.25,-146 163,-146 163,-126 259.25,-126 259.25,-146"/>
<text xml:space="preserve" text-anchor="middle" x="211.12" y="-132.5" font-family="Helvetica,sans-Serif" font-size="10.00">Move::get_symbol</text>
</a>
</g>
</g>
<!-- Node1&#45;&gt;Node2 -->
<g id="edge1_Node000001_Node000002" class="edge">
<title>Node1&#45;&gt;Node2</title>
<g id="a_edge1_Node000001_Node000002"><a xlink:title=" ">
<path fill="none" stroke="#63b8ff" d="M99.69,-95.36C116.56,-102.25 136.54,-110.22 154.75,-117 159.09,-118.62 163.64,-120.26 168.18,-121.87"/>
<polygon fill="#63b8ff" stroke="#63b8ff" points="166.66,-125.05 177.26,-125.03 168.97,-118.44 166.66,-125.05"/>
</a>
</g>
</g>
<!-- Node3 -->
<g id="Node000003" class="node">
<title>Node3</title>
<g id="a_Node000003"><a xlink:href="class_move.html#a9d4f543a81e361f872d37bcfb64d5b55" target="_top" xlink:title="Get row index.">
<polygon fill="white" stroke="#666666" points="246.12,-108 176.12,-108 176.12,-88 246.12,-88 246.12,-108"/>
<text xml:space="preserve" text-anchor="middle" x="211.12" y="-94.5" font-family="Helvetica,sans-Serif" font-size="10.00">Move::get_x</text>
</a>
</g>
</g>
<!-- Node1&#45;&gt;Node3 -->
<g id="edge2_Node000001_Node000003" class="edge">
<title>Node1&#45;&gt;Node3</title>
<g id="a_edge2_Node000001_Node000003"><a xlink:title=" ">
<path fill="none" stroke="#63b8ff" d="M119.13,-86.45C134.26,-88.37 150.31,-90.41 164.65,-92.23"/>
<polygon fill="#63b8ff" stroke="#63b8ff" points="163.87,-95.66 174.23,-93.45 164.75,-88.72 163.87,-95.66"/>
</a>
</g>
</g>
<!-- Node4 -->
<g id="Node000004" class="node">
<title>Node4</title>
<g id="a_Node000004"><a xlink:href="class_move.html#a96469802a55c9083a1e93c7edec8a00c" target="_top" xlink:title="Get column index.">
<polygon fill="white" stroke="#666666" points="246.12,-70 176.12,-70 176.12,-50 246.12,-50 246.12,-70"/>
<text xml:space="preserve" text-anchor="middle" x="211.12" y="-56.5" font-family="Helvetica,sans-Serif" font-size="10.00">Move::get_y</text>
</a>
</g>
</g>
<!-- Node1&#45;&gt;Node4 -->
<g id="edge3_Node000001_Node000004" class="edge">
<title>Node1&#45;&gt;Node4</title>
<g id="a_edge3_Node000001_Node000004"><a xlink:title=" ">
<path fill="none" stroke="#63b8ff" d="M119.13,-71.55C134.26,-69.63 150.31,-67.59 164.65,-65.77"/>
<polygon fill="#63b8ff" stroke="#63b8ff" points="164.75,-69.28 174.23,-64.55 163.87,-62.34 164.75,-69.28"/>
</a>
</g>
</g>
<!-- Node5 -->
<g id="Node000005" class="node">
<title>Node5</title>
<g id="a_Node000005"><a xlink:href="class_ultimate___board.html#aa00a4a25e58a0adbec92d865191c3b7d" target="_top" xlink:title="Evaluates the small board corresponding to the last move.">
<polygon fill="white" stroke="#666666" points="267.5,-32 154.75,-32 154.75,0 267.5,0 267.5,-32"/>
<text xml:space="preserve" text-anchor="start" x="162.75" y="-18.5" font-family="Helvetica,sans-Serif" font-size="10.00">Ultimate_Board::small</text>
<text xml:space="preserve" text-anchor="middle" x="211.12" y="-6.5" font-family="Helvetica,sans-Serif" font-size="10.00">_board_check</text>
</a>
</g>
</g>
<!-- Node1&#45;&gt;Node5 -->
<g id="edge4_Node000001_Node000005" class="edge">
<title>Node1&#45;&gt;Node5</title>
<g id="a_edge4_Node000001_Node000005"><a xlink:title=" ">
<path fill="none" stroke="#63b8ff" d="M99.33,-62.61C118.06,-54.73 140.72,-45.2 160.66,-36.81"/>
<polygon fill="#63b8ff" stroke="#63b8ff" points="161.85,-40.11 169.71,-33 159.14,-33.65 161.85,-40.11"/>
</a>
</g>
</g>
</g>
</svg>
