<?xml version="1.0" encoding="UTF-8" standalone="no"?>
<!DOCTYPE svg PUBLIC "-//W3C//DTD SVG 1.1//EN"
 "http://www.w3.org/Graphics/SVG/1.1/DTD/svg11.dtd">
<!-- Generated by graphviz version 14.0.2 (20251019.1705)
 -->
<!-- Title: XO_inf_AI::bestMove Pages: 1 -->
<svg width="403pt" height="113pt"
 viewBox="0.00 0.00 403.00 113.00" xmlns="http://www.w3.org/2000/svg" xmlns:xlink="http://www.w3.org/1999/xlink">
<g id="graph0" class="graph" transform="scale(1 1) rotate(0) translate(4 109)">
<title>XO_inf_AI::bestMove</title>
<!-- Node1 -->
<g id="Node000001" class="node">
<title>Node1</title>
<g id="a_Node000001"><a xlink:title="Determine the best move for the AI.">
<polygon fill="#999999" stroke="#666666" points="109.75,-58 0,-58 0,-38 109.75,-38 109.75,-58"/>
<text xml:space="preserve" text-anchor="middle" x="54.88" y="-44.5" font-family="Helvetica,sans-Serif" font-size="10.00">XO_inf_AI::bestMove</text>
</a>
</g>
</g>
<!-- Node2 -->
<g id="Node000002" class="node">
<title>Node2</title>
<g id="a_Node000002"><a xlink:href="class_player.html#a508617eddfae8915d098102d480fc888" target="_top" xlink:title="Get a pointer to the game board.">
<polygon fill="white" stroke="#666666" points="394.5,-105 285.5,-105 285.5,-85 394.5,-85 394.5,-105"/>
<text xml:space="preserve" text-anchor="middle" x="340" y="-91.5" font-family="Helvetica,sans-Serif" font-size="10.00">Player::get_board_ptr</text>
</a>
</g>
</g>
<!-- Node1&#45;&gt;Node2 -->
<g id="edge1_Node000001_Node000002" class="edge">
<title>Node1&#45;&gt;Node2</title>
<g id="a_edge1_Node000001_Node000002"><a xlink:title=" ">
<path fill="none" stroke="#63b8ff" d="M75.58,-58.4C93.38,-67.23 120.56,-79.34 145.75,-85 187.63,-94.42 235.85,-96.92 273.65,-97.07"/>
<polygon fill="#63b8ff" stroke="#63b8ff" points="273.52,-100.57 283.51,-97.05 273.5,-93.57 273.52,-100.57"/>
</a>
</g>
</g>
<!-- Node3 -->
<g id="Node000003" class="node">
<title>Node3</title>
<g id="a_Node000003"><a xlink:href="class_player.html#af56f0bf98c0423a3a75b0848607d03a4" target="_top" xlink:title="Get the player&#39;s symbol.">
<polygon fill="white" stroke="#666666" points="390,-20 290,-20 290,0 390,0 390,-20"/>
<text xml:space="preserve" text-anchor="middle" x="340" y="-6.5" font-family="Helvetica,sans-Serif" font-size="10.00">Player::get_symbol</text>
</a>
</g>
</g>
<!-- Node1&#45;&gt;Node3 -->
<g id="edge2_Node000001_Node000003" class="edge">
<title>Node1&#45;&gt;Node3</title>
<g id="a_edge2_Node000001_Node000003"><a xlink:title=" ">
<path fill="none" stroke="#63b8ff" d="M100.5,-37.55C114.88,-34.46 130.93,-31.29 145.75,-29 189.83,-22.19 239.97,-17.35 278.13,-14.25"/>
<polygon fill="#63b8ff" stroke="#63b8ff" points="278.36,-17.75 288.06,-13.47 277.81,-10.77 278.36,-17.75"/>
</a>
</g>
</g>
<!-- Node4 -->
<g id="Node000004" class="node">
<title>Node4</title>
<g id="a_Node000004"><a xlink:href="class_x_o__inf___a_i.html#aa88a72848990b6506c7f4d544937837b" target="_top" xlink:title="Minimax search algorithm with alpha&#45;beta pruning.">
<polygon fill="white" stroke="#666666" points="249.5,-58 145.75,-58 145.75,-38 249.5,-38 249.5,-58"/>
<text xml:space="preserve" text-anchor="middle" x="197.62" y="-44.5" font-family="Helvetica,sans-Serif" font-size="10.00">XO_inf_AI::minimax</text>
</a>
</g>
</g>
<!-- Node1&#45;&gt;Node4 -->
<g id="edge3_Node000001_Node000004" class="edge">
<title>Node1&#45;&gt;Node4</title>
<g id="a_edge3_Node000001_Node000004"><a xlink:title=" ">
<path fill="none" stroke="#63b8ff" d="M109.89,-48C117.79,-48 125.99,-48 134.05,-48"/>
<polygon fill="#63b8ff" stroke="#63b8ff" points="133.79,-51.5 143.79,-48 133.79,-44.5 133.79,-51.5"/>
</a>
</g>
</g>
<!-- Node4&#45;&gt;Node2 -->
<g id="edge5_Node000004_Node000002" class="edge">
<title>Node4&#45;&gt;Node2</title>
<g id="a_edge5_Node000004_Node000002"><a xlink:title=" ">
<path fill="none" stroke="#63b8ff" d="M229.78,-58.43C249.59,-65.06 275.48,-73.73 297.08,-80.97"/>
<polygon fill="#63b8ff" stroke="#63b8ff" points="295.9,-84.26 306.5,-84.12 298.13,-77.62 295.9,-84.26"/>
</a>
</g>
</g>
<!-- Node4&#45;&gt;Node3 -->
<g id="edge6_Node000004_Node000003" class="edge">
<title>Node4&#45;&gt;Node3</title>
<g id="a_edge6_Node000004_Node000003"><a xlink:title=" ">
<path fill="none" stroke="#63b8ff" d="M237.35,-37.52C253.46,-33.15 272.36,-28.04 289.46,-23.41"/>
<polygon fill="#63b8ff" stroke="#63b8ff" points="290.2,-26.84 298.94,-20.85 288.37,-20.08 290.2,-26.84"/>
</a>
</g>
</g>
<!-- Node4&#45;&gt;Node4 -->
<g id="edge7_Node000004_Node000004" class="edge">
<title>Node4&#45;&gt;Node4</title>
<g id="a_edge7_Node000004_Node000004"><a xlink:title=" ">
<path fill="none" stroke="#63b8ff" d="M175,-58.34C165.34,-66.98 172.88,-76 197.62,-76 211.16,-76 219.55,-73.3 222.79,-69.44"/>
<polygon fill="#63b8ff" stroke="#63b8ff" points="226.23,-68.78 220.58,-59.81 219.4,-70.34 226.23,-68.78"/>
</a>
</g>
</g>
<!-- Node5 -->
<g id="Node000005" class="node">
<title>Node5</title>
<g id="a_Node000005"><a xlink:href="class_x_o__inf___a_i.html#aa7814af19ba079b0bf71770ffa438b4b" target="_top" xlink:title="Evaluate the score of the board state.">
<polygon fill="white" stroke="#666666" points="391.88,-58 288.12,-58 288.12,-38 391.88,-38 391.88,-58"/>
<text xml:space="preserve" text-anchor="middle" x="340" y="-44.5" font-family="Helvetica,sans-Serif" font-size="10.00">XO_inf_AI::evaluate</text>
</a>
</g>
</g>
<!-- Node4&#45;&gt;Node5 -->
<g id="edge4_Node000004_Node000005" class="edge">
<title>Node4&#45;&gt;Node5</title>
<g id="a_edge4_Node000004_Node000005"><a xlink:title=" ">
<path fill="none" stroke="#63b8ff" d="M249.7,-48C258.41,-48 267.54,-48 276.51,-48"/>
<polygon fill="#63b8ff" stroke="#63b8ff" points="276.21,-51.5 286.21,-48 276.21,-44.5 276.21,-51.5"/>
</a>
</g>
</g>
</g>
</svg>
