<?xml version="1.0" encoding="UTF-8" standalone="no"?>
<!DOCTYPE svg PUBLIC "-//W3C//DTD SVG 1.1//EN"
 "http://www.w3.org/Graphics/SVG/1.1/DTD/svg11.dtd">
<!-- Generated by graphviz version 14.0.2 (20251019.1705)
 -->
<!-- Title: Board::get_cell Pages: 1 -->
<svg width="723pt" height="256pt"
 viewBox="0.00 0.00 723.00 256.00" xmlns="http://www.w3.org/2000/svg" xmlns:xlink="http://www.w3.org/1999/xlink">
<g id="graph0" class="graph" transform="scale(1 1) rotate(0) translate(4 252)">
<title>Board::get_cell</title>
<!-- Node1 -->
<g id="Node000001" class="node">
<title>Node1</title>
<g id="a_Node000001"><a xlink:title="Return content of cell x, y in current board.">
<polygon fill="#999999" stroke="#666666" points="714.5,-134 633.25,-134 633.25,-114 714.5,-114 714.5,-134"/>
<text xml:space="preserve" text-anchor="middle" x="673.88" y="-120.5" font-family="Helvetica,sans-Serif" font-size="10.00">Board::get_cell</text>
</a>
</g>
</g>
<!-- Node2 -->
<g id="Node000002" class="node">
<title>Node2</title>
<g id="a_Node000002"><a xlink:href="class__4by4_x_o___a_i.html#aa13e6d3e4cdedc6ea7e813a16d4c0d68" target="_top" xlink:title="Computes the best move for AI.">
<polygon fill="white" stroke="#666666" points="578.12,-248 457.88,-248 457.88,-228 578.12,-228 578.12,-248"/>
<text xml:space="preserve" text-anchor="middle" x="518" y="-234.5" font-family="Helvetica,sans-Serif" font-size="10.00">_4by4XO_AI::bestMove</text>
</a>
</g>
</g>
<!-- Node1&#45;&gt;Node2 -->
<g id="edge1_Node000001_Node000002" class="edge">
<title>Node1&#45;&gt;Node2</title>
<g id="a_edge1_Node000001_Node000002"><a xlink:title=" ">
<path fill="none" stroke="#63b8ff" d="M662.14,-144.34C649.54,-166.18 626.58,-200.27 597.25,-219 591.48,-222.69 585.05,-225.66 578.42,-228.05"/>
<polygon fill="#63b8ff" stroke="#63b8ff" points="665.1,-146.22 666.89,-135.77 658.98,-142.82 665.1,-146.22"/>
</a>
</g>
</g>
<!-- Node4 -->
<g id="Node000004" class="node">
<title>Node4</title>
<g id="a_Node000004"><a xlink:href="class_word___a_i.html#abadf0c9ca0a9e14ba6e21f463c11a11f" target="_top" xlink:title="Compute the best move for a player.">
<polygon fill="white" stroke="#666666" points="569.12,-210 466.88,-210 466.88,-190 569.12,-190 569.12,-210"/>
<text xml:space="preserve" text-anchor="middle" x="518" y="-196.5" font-family="Helvetica,sans-Serif" font-size="10.00">Word_AI::bestMove</text>
</a>
</g>
</g>
<!-- Node1&#45;&gt;Node4 -->
<g id="edge3_Node000001_Node000004" class="edge">
<title>Node1&#45;&gt;Node4</title>
<g id="a_edge3_Node000001_Node000004"><a xlink:title=" ">
<path fill="none" stroke="#63b8ff" d="M653.52,-142.14C639.04,-154.78 618.22,-171.08 597.25,-181 588.53,-185.13 578.83,-188.41 569.3,-191"/>
<polygon fill="#63b8ff" stroke="#63b8ff" points="655.82,-144.78 660.92,-135.49 651.15,-139.57 655.82,-144.78"/>
</a>
</g>
</g>
<!-- Node5 -->
<g id="Node000005" class="node">
<title>Node5</title>
<g id="a_Node000005"><a xlink:href="class_four___a_i.html#a5ebc2172189dad66489d15371d6f9c2f" target="_top" xlink:title="Evaluates the current board state from AI perspective.">
<polygon fill="white" stroke="#666666" points="564.62,-172 471.38,-172 471.38,-152 564.62,-152 564.62,-172"/>
<text xml:space="preserve" text-anchor="middle" x="518" y="-158.5" font-family="Helvetica,sans-Serif" font-size="10.00">Four_AI::evaluate</text>
</a>
</g>
</g>
<!-- Node1&#45;&gt;Node5 -->
<g id="edge4_Node000001_Node000005" class="edge">
<title>Node1&#45;&gt;Node5</title>
<g id="a_edge4_Node000001_Node000005"><a xlink:title=" ">
<path fill="none" stroke="#63b8ff" d="M621.84,-136.88C613.62,-138.94 605.2,-141.04 597.25,-143 585.99,-145.78 573.8,-148.76 562.47,-151.51"/>
<polygon fill="#63b8ff" stroke="#63b8ff" points="622.54,-140.31 631.39,-134.49 620.84,-133.52 622.54,-140.31"/>
</a>
</g>
</g>
<!-- Node9 -->
<g id="Node000009" class="node">
<title>Node9</title>
<g id="a_Node000009"><a xlink:href="class_s_u_s___a_i.html#a917f6a59b1707de463bfcaad41f0d560" target="_top" xlink:title="Evaluates the board state for the given player.">
<polygon fill="white" stroke="#666666" points="565.38,-58 470.62,-58 470.62,-38 565.38,-38 565.38,-58"/>
<text xml:space="preserve" text-anchor="middle" x="518" y="-44.5" font-family="Helvetica,sans-Serif" font-size="10.00">SUS_AI::evaluate</text>
</a>
</g>
</g>
<!-- Node1&#45;&gt;Node9 -->
<g id="edge9_Node000001_Node000009" class="edge">
<title>Node1&#45;&gt;Node9</title>
<g id="a_edge9_Node000001_Node000009"><a xlink:title=" ">
<path fill="none" stroke="#63b8ff" d="M653.52,-105.86C639.04,-93.22 618.22,-76.92 597.25,-67 587.39,-62.34 576.28,-58.75 565.59,-56.02"/>
<polygon fill="#63b8ff" stroke="#63b8ff" points="651.15,-108.43 660.92,-112.51 655.82,-103.22 651.15,-108.43"/>
</a>
</g>
</g>
<!-- Node13 -->
<g id="Node000013" class="node">
<title>Node13</title>
<g id="a_Node000013"><a xlink:href="class_four___a_i.html#a196ae82b79d74cd5e58654a16e11bf8a" target="_top" xlink:title="Finds the next open row in a given column.">
<polygon fill="white" stroke="#666666" points="597.25,-96 438.75,-96 438.75,-76 597.25,-76 597.25,-96"/>
<text xml:space="preserve" text-anchor="middle" x="518" y="-82.5" font-family="Helvetica,sans-Serif" font-size="10.00">Four_AI::get_next_available_row</text>
</a>
</g>
</g>
<!-- Node1&#45;&gt;Node13 -->
<g id="edge14_Node000001_Node000013" class="edge">
<title>Node1&#45;&gt;Node13</title>
<g id="a_edge14_Node000001_Node000013"><a xlink:title=" ">
<path fill="none" stroke="#63b8ff" d="M621.84,-111.12C613.62,-109.06 605.2,-106.96 597.25,-105 585.99,-102.22 573.8,-99.24 562.47,-96.49"/>
<polygon fill="#63b8ff" stroke="#63b8ff" points="620.84,-114.48 631.39,-113.51 622.54,-107.69 620.84,-114.48"/>
</a>
</g>
</g>
<!-- Node14 -->
<g id="Node000014" class="node">
<title>Node14</title>
<g id="a_Node000014"><a xlink:href="class_four___a_i.html#ae3dab4e81e6b102a9445d05b0c4d2aee" target="_top" xlink:title="Checks if any moves are still available.">
<polygon fill="white" stroke="#666666" points="572.88,-134 463.12,-134 463.12,-114 572.88,-114 572.88,-134"/>
<text xml:space="preserve" text-anchor="middle" x="518" y="-120.5" font-family="Helvetica,sans-Serif" font-size="10.00">Four_AI::isMovesLeft</text>
</a>
</g>
</g>
<!-- Node1&#45;&gt;Node14 -->
<g id="edge17_Node000001_Node000014" class="edge">
<title>Node1&#45;&gt;Node14</title>
<g id="a_edge17_Node000001_Node000014"><a xlink:title=" ">
<path fill="none" stroke="#63b8ff" d="M621.38,-124C605.93,-124 588.94,-124 573.31,-124"/>
<polygon fill="#63b8ff" stroke="#63b8ff" points="621.33,-127.5 631.33,-124 621.33,-120.5 621.33,-127.5"/>
</a>
</g>
</g>
<!-- Node15 -->
<g id="Node000015" class="node">
<title>Node15</title>
<g id="a_Node000015"><a xlink:href="class_s_u_s___a_i.html#a223660856952277e2a8323ffb790bc53" target="_top" xlink:title="Checks if any empty cells remain.">
<polygon fill="white" stroke="#666666" points="573.62,-20 462.38,-20 462.38,0 573.62,0 573.62,-20"/>
<text xml:space="preserve" text-anchor="middle" x="518" y="-6.5" font-family="Helvetica,sans-Serif" font-size="10.00">SUS_AI::isMovesLeft</text>
</a>
</g>
</g>
<!-- Node1&#45;&gt;Node15 -->
<g id="edge19_Node000001_Node000015" class="edge">
<title>Node1&#45;&gt;Node15</title>
<g id="a_edge19_Node000001_Node000015"><a xlink:title=" ">
<path fill="none" stroke="#63b8ff" d="M662.14,-103.66C649.54,-81.82 626.58,-47.73 597.25,-29 590.18,-24.49 582.13,-21.04 573.94,-18.42"/>
<polygon fill="#63b8ff" stroke="#63b8ff" points="658.98,-105.18 666.89,-112.23 665.1,-101.78 658.98,-105.18"/>
</a>
</g>
</g>
<!-- Node3 -->
<g id="Node000003" class="node">
<title>Node3</title>
<g id="a_Node000003"><a xlink:href="class__4by4_x_o___u_i.html#adac352a59d82ec4c84219a2ee25bda3a" target="_top" xlink:title="Gets a move from human or AI.">
<polygon fill="white" stroke="#666666" points="402.75,-248 281.75,-248 281.75,-228 402.75,-228 402.75,-248"/>
<text xml:space="preserve" text-anchor="middle" x="342.25" y="-234.5" font-family="Helvetica,sans-Serif" font-size="10.00">_4by4XO_UI::get_move</text>
</a>
</g>
</g>
<!-- Node2&#45;&gt;Node3 -->
<g id="edge2_Node000002_Node000003" class="edge">
<title>Node2&#45;&gt;Node3</title>
<g id="a_edge2_Node000002_Node000003"><a xlink:title=" ">
<path fill="none" stroke="#63b8ff" d="M446.36,-238C432.03,-238 417.09,-238 403.18,-238"/>
<polygon fill="#63b8ff" stroke="#63b8ff" points="446.18,-241.5 456.18,-238 446.18,-234.5 446.18,-241.5"/>
</a>
</g>
</g>
<!-- Node6 -->
<g id="Node000006" class="node">
<title>Node6</title>
<g id="a_Node000006"><a xlink:href="class_four___a_i.html#a2be9e32c580e8aa22c530ab4c9920317" target="_top" xlink:title="Minimax algorithm with alpha&#45;beta pruning.">
<polygon fill="white" stroke="#666666" points="388.88,-134 295.62,-134 295.62,-114 388.88,-114 388.88,-134"/>
<text xml:space="preserve" text-anchor="middle" x="342.25" y="-120.5" font-family="Helvetica,sans-Serif" font-size="10.00">Four_AI::minimax</text>
</a>
</g>
</g>
<!-- Node5&#45;&gt;Node6 -->
<g id="edge5_Node000005_Node000006" class="edge">
<title>Node5&#45;&gt;Node6</title>
<g id="a_edge5_Node000005_Node000006"><a xlink:title=" ">
<path fill="none" stroke="#63b8ff" d="M459.93,-149.52C437.01,-144.51 410.94,-138.8 389.27,-134.06"/>
<polygon fill="#63b8ff" stroke="#63b8ff" points="458.9,-152.88 469.42,-151.59 460.39,-146.04 458.9,-152.88"/>
</a>
</g>
</g>
<!-- Node6&#45;&gt;Node6 -->
<g id="edge8_Node000006_Node000006" class="edge">
<title>Node6&#45;&gt;Node6</title>
<g id="a_edge8_Node000006_Node000006"><a xlink:title=" ">
<path fill="none" stroke="#63b8ff" d="M368.21,-145.44C364.87,-149.3 356.21,-152 342.25,-152 316.72,-152 308.94,-142.98 318.91,-134.34"/>
<polygon fill="#63b8ff" stroke="#63b8ff" points="371.64,-144.74 365.93,-135.81 364.83,-146.35 371.64,-144.74"/>
</a>
</g>
</g>
<!-- Node7 -->
<g id="Node000007" class="node">
<title>Node7</title>
<g id="a_Node000007"><a xlink:href="class_four___a_i.html#a12661d165899365f9a5031ec04814e44" target="_top" xlink:title="Computes the best possible move for the AI.">
<polygon fill="white" stroke="#666666" points="245,-115 145.75,-115 145.75,-95 245,-95 245,-115"/>
<text xml:space="preserve" text-anchor="middle" x="195.38" y="-101.5" font-family="Helvetica,sans-Serif" font-size="10.00">Four_AI::bestMove</text>
</a>
</g>
</g>
<!-- Node6&#45;&gt;Node7 -->
<g id="edge6_Node000006_Node000007" class="edge">
<title>Node6&#45;&gt;Node7</title>
<g id="a_edge6_Node000006_Node000007"><a xlink:title=" ">
<path fill="none" stroke="#63b8ff" d="M284.33,-116.54C271.47,-114.85 257.93,-113.07 245.42,-111.43"/>
<polygon fill="#63b8ff" stroke="#63b8ff" points="283.54,-119.96 293.91,-117.79 284.45,-113.02 283.54,-119.96"/>
</a>
</g>
</g>
<!-- Node8 -->
<g id="Node000008" class="node">
<title>Node8</title>
<g id="a_Node000008"><a xlink:href="class_f_o_u_r___u_i.html#a5b8d7e6afd5b983620fd00bf954564d7" target="_top" xlink:title="Obtains the next move from a human, computer, or AI player.">
<polygon fill="white" stroke="#666666" points="109,-115 0,-115 0,-95 109,-95 109,-115"/>
<text xml:space="preserve" text-anchor="middle" x="54.5" y="-101.5" font-family="Helvetica,sans-Serif" font-size="10.00">FOUR_UI::get_move</text>
</a>
</g>
</g>
<!-- Node7&#45;&gt;Node8 -->
<g id="edge7_Node000007_Node000008" class="edge">
<title>Node7&#45;&gt;Node8</title>
<g id="a_edge7_Node000007_Node000008"><a xlink:title=" ">
<path fill="none" stroke="#63b8ff" d="M133.94,-105C125.71,-105 117.31,-105 109.22,-105"/>
<polygon fill="#63b8ff" stroke="#63b8ff" points="133.9,-108.5 143.9,-105 133.9,-101.5 133.9,-108.5"/>
</a>
</g>
</g>
<!-- Node10 -->
<g id="Node000010" class="node">
<title>Node10</title>
<g id="a_Node000010"><a xlink:href="class_s_u_s___a_i.html#a9cd1ee590918406034aae1d0ebc43b46" target="_top" xlink:title="Minimax with alpha&#45;beta pruning.">
<polygon fill="white" stroke="#666666" points="389.62,-30 294.88,-30 294.88,-10 389.62,-10 389.62,-30"/>
<text xml:space="preserve" text-anchor="middle" x="342.25" y="-16.5" font-family="Helvetica,sans-Serif" font-size="10.00">SUS_AI::minimax</text>
</a>
</g>
</g>
<!-- Node9&#45;&gt;Node10 -->
<g id="edge10_Node000009_Node000010" class="edge">
<title>Node9&#45;&gt;Node10</title>
<g id="a_edge10_Node000009_Node000010"><a xlink:title=" ">
<path fill="none" stroke="#63b8ff" d="M459.31,-38.7C436.78,-35.07 411.28,-30.96 389.94,-27.52"/>
<polygon fill="#63b8ff" stroke="#63b8ff" points="458.51,-42.12 468.94,-40.26 459.63,-35.21 458.51,-42.12"/>
</a>
</g>
</g>
<!-- Node10&#45;&gt;Node10 -->
<g id="edge13_Node000010_Node000010" class="edge">
<title>Node10&#45;&gt;Node10</title>
<g id="a_edge13_Node000010_Node000010"><a xlink:title=" ">
<path fill="none" stroke="#63b8ff" d="M368.21,-41.44C364.87,-45.3 356.21,-48 342.25,-48 316.72,-48 308.94,-38.98 318.91,-30.34"/>
<polygon fill="#63b8ff" stroke="#63b8ff" points="371.64,-40.74 365.93,-31.81 364.83,-42.35 371.64,-40.74"/>
</a>
</g>
</g>
<!-- Node11 -->
<g id="Node000011" class="node">
<title>Node11</title>
<g id="a_Node000011"><a xlink:href="class_s_u_s___a_i.html#ae27d5dea2808c253c2fe19574bb41038" target="_top" xlink:title="Computes the best move for the player.">
<polygon fill="white" stroke="#666666" points="245.75,-30 145,-30 145,-10 245.75,-10 245.75,-30"/>
<text xml:space="preserve" text-anchor="middle" x="195.38" y="-16.5" font-family="Helvetica,sans-Serif" font-size="10.00">SUS_AI::bestMove</text>
</a>
</g>
</g>
<!-- Node10&#45;&gt;Node11 -->
<g id="edge11_Node000010_Node000011" class="edge">
<title>Node10&#45;&gt;Node11</title>
<g id="a_edge11_Node000010_Node000011"><a xlink:title=" ">
<path fill="none" stroke="#63b8ff" d="M283.1,-20C270.87,-20 258.07,-20 246.17,-20"/>
<polygon fill="#63b8ff" stroke="#63b8ff" points="283.1,-23.5 293.1,-20 283.1,-16.5 283.1,-23.5"/>
</a>
</g>
</g>
<!-- Node12 -->
<g id="Node000012" class="node">
<title>Node12</title>
<g id="a_Node000012"><a xlink:href="class_s_u_s___u_i.html#a9c7a3c09a5e18a3d89f448ea93b6dea6" target="_top" xlink:title="Retrieves the next move.">
<polygon fill="white" stroke="#666666" points="105.25,-30 3.75,-30 3.75,-10 105.25,-10 105.25,-30"/>
<text xml:space="preserve" text-anchor="middle" x="54.5" y="-16.5" font-family="Helvetica,sans-Serif" font-size="10.00">SUS_UI::get_move</text>
</a>
</g>
</g>
<!-- Node11&#45;&gt;Node12 -->
<g id="edge12_Node000011_Node000012" class="edge">
<title>Node11&#45;&gt;Node12</title>
<g id="a_edge12_Node000011_Node000012"><a xlink:title=" ">
<path fill="none" stroke="#63b8ff" d="M133.37,-20C124.01,-20 114.44,-20 105.36,-20"/>
<polygon fill="#63b8ff" stroke="#63b8ff" points="133.12,-23.5 143.12,-20 133.12,-16.5 133.12,-23.5"/>
</a>
</g>
</g>
<!-- Node13&#45;&gt;Node6 -->
<g id="edge16_Node000013_Node000006" class="edge">
<title>Node13&#45;&gt;Node6</title>
<g id="a_edge16_Node000013_Node000006"><a xlink:title=" ">
<path fill="none" stroke="#63b8ff" d="M457.96,-98.91C435.51,-103.82 410.3,-109.34 389.23,-113.94"/>
<polygon fill="#63b8ff" stroke="#63b8ff" points="458.56,-102.36 467.58,-96.81 457.07,-95.53 458.56,-102.36"/>
</a>
</g>
</g>
<!-- Node13&#45;&gt;Node7 -->
<g id="edge15_Node000013_Node000007" class="edge">
<title>Node13&#45;&gt;Node7</title>
<g id="a_edge15_Node000013_Node000007"><a xlink:title=" ">
<path fill="none" stroke="#63b8ff" d="M427.37,-91.31C368.35,-94.81 293.36,-99.25 245.11,-102.11"/>
<polygon fill="#63b8ff" stroke="#63b8ff" points="427.28,-94.82 437.06,-90.74 426.87,-87.84 427.28,-94.82"/>
</a>
</g>
</g>
<!-- Node14&#45;&gt;Node6 -->
<g id="edge18_Node000014_Node000006" class="edge">
<title>Node14&#45;&gt;Node6</title>
<g id="a_edge18_Node000014_Node000006"><a xlink:title=" ">
<path fill="none" stroke="#63b8ff" d="M451.66,-124C430.92,-124 408.43,-124 389.33,-124"/>
<polygon fill="#63b8ff" stroke="#63b8ff" points="451.46,-127.5 461.46,-124 451.46,-120.5 451.46,-127.5"/>
</a>
</g>
</g>
<!-- Node15&#45;&gt;Node10 -->
<g id="edge20_Node000015_Node000010" class="edge">
<title>Node15&#45;&gt;Node10</title>
<g id="a_edge20_Node000015_Node000010"><a xlink:title=" ">
<path fill="none" stroke="#63b8ff" d="M450.66,-13.82C430.43,-14.98 408.63,-16.24 389.98,-17.31"/>
<polygon fill="#63b8ff" stroke="#63b8ff" points="450.73,-17.32 460.51,-13.25 450.33,-10.33 450.73,-17.32"/>
</a>
</g>
</g>
</g>
</svg>
