<?xml version="1.0" encoding="UTF-8" standalone="no"?>
<!DOCTYPE svg PUBLIC "-//W3C//DTD SVG 1.1//EN"
 "http://www.w3.org/Graphics/SVG/1.1/DTD/svg11.dtd">
<!-- Generated by graphviz version 14.0.2 (20251019.1705)
 -->
<!-- Title: AI Pages: 1 -->
<svg width="1324pt" height="308pt"
 viewBox="0.00 0.00 1324.00 308.00" xmlns="http://www.w3.org/2000/svg" xmlns:xlink="http://www.w3.org/1999/xlink">
<g id="graph0" class="graph" transform="scale(1 1) rotate(0) translate(4 304)">
<title>AI</title>
<!-- Node1 -->
<g id="Node000001" class="node">
<title>Node1</title>
<g id="a_Node000001"><a xlink:title="AI Interface for all implementations in games.">
<polygon fill="#999999" stroke="none" points="721.75,-300 655,-300 655,-200 721.75,-200 721.75,-300"/>
<text xml:space="preserve" text-anchor="start" x="683.5" y="-286.5" font-family="Helvetica,sans-Serif" font-size="10.00">AI</text>
<text xml:space="preserve" text-anchor="start" x="686.88" y="-270.5" font-family="Helvetica,sans-Serif" font-size="10.00"> </text>
<text xml:space="preserve" text-anchor="start" x="659" y="-254.5" font-family="Helvetica,sans-Serif" font-size="10.00">+</text>
<text xml:space="preserve" text-anchor="start" x="669" y="-254.5" font-family="Helvetica,sans-Serif" font-size="10.00">evaluate()</text>
<text xml:space="preserve" text-anchor="start" x="659" y="-238.5" font-family="Helvetica,sans-Serif" font-size="10.00">+</text>
<text xml:space="preserve" text-anchor="start" x="669" y="-238.5" font-family="Helvetica,sans-Serif" font-size="10.00">minimax()</text>
<text xml:space="preserve" text-anchor="start" x="659" y="-222.5" font-family="Helvetica,sans-Serif" font-size="10.00">+</text>
<text xml:space="preserve" text-anchor="start" x="669" y="-222.5" font-family="Helvetica,sans-Serif" font-size="10.00">bestMove()</text>
<text xml:space="preserve" text-anchor="start" x="659" y="-206.5" font-family="Helvetica,sans-Serif" font-size="10.00">+</text>
<text xml:space="preserve" text-anchor="start" x="669" y="-206.5" font-family="Helvetica,sans-Serif" font-size="10.00">~AI()</text>
<polygon fill="#666666" stroke="#666666" points="655,-282 655,-282 721.75,-282 721.75,-282 655,-282"/>
<polygon fill="#666666" stroke="#666666" points="655,-266 655,-266 721.75,-266 721.75,-266 655,-266"/>
<polygon fill="none" stroke="#666666" points="655,-200 655,-300 721.75,-300 721.75,-200 655,-200"/>
</a>
</g>
</g>
<!-- Node2 -->
<g id="Node000002" class="node">
<title>Node2</title>
<g id="a_Node000002"><a xlink:href="$class_anti___a_i.html" xlink:title="Simple AI for Anti&#45;XO that tries to avoid dangerous positions.">
<polygon fill="white" stroke="none" points="66.75,-140 0,-140 0,-24 66.75,-24 66.75,-140"/>
<text xml:space="preserve" text-anchor="start" x="17.25" y="-126.5" font-family="Helvetica,sans-Serif" font-size="10.00">Anti_AI</text>
<text xml:space="preserve" text-anchor="start" x="31.88" y="-110.5" font-family="Helvetica,sans-Serif" font-size="10.00"> </text>
<text xml:space="preserve" text-anchor="start" x="4" y="-94.5" font-family="Helvetica,sans-Serif" font-size="10.00">+</text>
<text xml:space="preserve" text-anchor="start" x="14" y="-94.5" font-family="Helvetica,sans-Serif" font-size="10.00">Anti_AI()</text>
<text xml:space="preserve" text-anchor="start" x="4" y="-78.5" font-family="Helvetica,sans-Serif" font-size="10.00">+</text>
<text xml:space="preserve" text-anchor="start" x="14" y="-78.5" font-family="Helvetica,sans-Serif" font-size="10.00">evaluate()</text>
<text xml:space="preserve" text-anchor="start" x="4" y="-62.5" font-family="Helvetica,sans-Serif" font-size="10.00">+</text>
<text xml:space="preserve" text-anchor="start" x="14" y="-62.5" font-family="Helvetica,sans-Serif" font-size="10.00">minimax()</text>
<text xml:space="preserve" text-anchor="start" x="4" y="-46.5" font-family="Helvetica,sans-Serif" font-size="10.00">+</text>
<text xml:space="preserve" text-anchor="start" x="14" y="-46.5" font-family="Helvetica,sans-Serif" font-size="10.00">bounded()</text>
<text xml:space="preserve" text-anchor="start" x="4" y="-30.5" font-family="Helvetica,sans-Serif" font-size="10.00">+</text>
<text xml:space="preserve" text-anchor="start" x="14" y="-30.5" font-family="Helvetica,sans-Serif" font-size="10.00">bestMove()</text>
<polygon fill="#666666" stroke="#666666" points="0,-122 0,-122 66.75,-122 66.75,-122 0,-122"/>
<polygon fill="#666666" stroke="#666666" points="0,-106 0,-106 66.75,-106 66.75,-106 0,-106"/>
<polygon fill="none" stroke="#666666" points="0,-24 0,-140 66.75,-140 66.75,-24 0,-24"/>
</a>
</g>
</g>
<!-- Node1&#45;&gt;Node2 -->
<g id="edge1_Node000001_Node000002" class="edge">
<title>Node1&#45;&gt;Node2</title>
<g id="a_edge1_Node000001_Node000002"><a xlink:title=" ">
<path fill="none" stroke="#63b8ff" d="M643.7,-248.02C518.46,-244.48 167.18,-228.87 75.38,-164 66.58,-157.78 59.49,-149.16 53.83,-139.83"/>
<polygon fill="none" stroke="#63b8ff" points="643.49,-251.52 653.58,-248.29 643.68,-244.52 643.49,-251.52"/>
</a>
</g>
</g>
<!-- Node3 -->
<g id="Node000003" class="node">
<title>Node3</title>
<g id="a_Node000003"><a xlink:href="$class_four___a_i.html" xlink:title="Implements a minimax&#45;based AI for Connect&#45;Four.">
<polygon fill="white" stroke="none" points="183.88,-154 84.88,-154 84.88,-10 183.88,-10 183.88,-154"/>
<text xml:space="preserve" text-anchor="start" x="117.12" y="-140.5" font-family="Helvetica,sans-Serif" font-size="10.00">Four_AI</text>
<text xml:space="preserve" text-anchor="start" x="132.88" y="-124.5" font-family="Helvetica,sans-Serif" font-size="10.00"> </text>
<text xml:space="preserve" text-anchor="start" x="88.88" y="-108.5" font-family="Helvetica,sans-Serif" font-size="10.00">+</text>
<text xml:space="preserve" text-anchor="start" x="98.88" y="-108.5" font-family="Helvetica,sans-Serif" font-size="10.00">Four_AI()</text>
<text xml:space="preserve" text-anchor="start" x="88.88" y="-92.5" font-family="Helvetica,sans-Serif" font-size="10.00">+</text>
<text xml:space="preserve" text-anchor="start" x="98.88" y="-92.5" font-family="Helvetica,sans-Serif" font-size="10.00">evaluate()</text>
<text xml:space="preserve" text-anchor="start" x="88.88" y="-76.5" font-family="Helvetica,sans-Serif" font-size="10.00">+</text>
<text xml:space="preserve" text-anchor="start" x="98.88" y="-76.5" font-family="Helvetica,sans-Serif" font-size="10.00">minimax()</text>
<text xml:space="preserve" text-anchor="start" x="88.88" y="-60.5" font-family="Helvetica,sans-Serif" font-size="10.00">+</text>
<text xml:space="preserve" text-anchor="start" x="98.88" y="-60.5" font-family="Helvetica,sans-Serif" font-size="10.00">isMovesLeft()</text>
<text xml:space="preserve" text-anchor="start" x="88.88" y="-44.5" font-family="Helvetica,sans-Serif" font-size="10.00">+</text>
<text xml:space="preserve" text-anchor="start" x="98.88" y="-44.5" font-family="Helvetica,sans-Serif" font-size="10.00">get_next_available</text>
<text xml:space="preserve" text-anchor="start" x="98.88" y="-32.5" font-family="Helvetica,sans-Serif" font-size="10.00">_row()</text>
<text xml:space="preserve" text-anchor="start" x="88.88" y="-16.5" font-family="Helvetica,sans-Serif" font-size="10.00">+</text>
<text xml:space="preserve" text-anchor="start" x="98.88" y="-16.5" font-family="Helvetica,sans-Serif" font-size="10.00">bestMove()</text>
<polygon fill="#666666" stroke="#666666" points="84.88,-136 84.88,-136 183.88,-136 183.88,-136 84.88,-136"/>
<polygon fill="#666666" stroke="#666666" points="84.88,-120 84.88,-120 183.88,-120 183.88,-120 84.88,-120"/>
<polygon fill="none" stroke="#666666" points="84.88,-10 84.88,-154 183.88,-154 183.88,-10 84.88,-10"/>
</a>
</g>
</g>
<!-- Node1&#45;&gt;Node3 -->
<g id="edge2_Node000001_Node000003" class="edge">
<title>Node1&#45;&gt;Node3</title>
<g id="a_edge2_Node000001_Node000003"><a xlink:title=" ">
<path fill="none" stroke="#63b8ff" d="M643.77,-245.63C536.75,-236.88 268.7,-210.77 193.38,-164 188.65,-161.06 184.18,-157.6 179.98,-153.77"/>
<polygon fill="none" stroke="#63b8ff" points="643.35,-249.11 653.6,-246.42 643.92,-242.13 643.35,-249.11"/>
</a>
</g>
</g>
<!-- Node4 -->
<g id="Node000004" class="node">
<title>Node4</title>
<g id="a_Node000004"><a xlink:href="$class_large___x_o___a_i.html" xlink:title="AI for 5x5 Tic&#45;Tac&#45;Toe using Minimax + Neural Network heuristic.">
<polygon fill="white" stroke="none" points="284.62,-164 202.12,-164 202.12,0 284.62,0 284.62,-164"/>
<text xml:space="preserve" text-anchor="start" x="214.12" y="-150.5" font-family="Helvetica,sans-Serif" font-size="10.00">Large_XO_AI</text>
<text xml:space="preserve" text-anchor="start" x="207.62" y="-134.5" font-family="Helvetica,sans-Serif" font-size="10.00">&#45;</text>
<text xml:space="preserve" text-anchor="start" x="216.12" y="-134.5" font-family="Helvetica,sans-Serif" font-size="10.00">NN</text>
<text xml:space="preserve" text-anchor="start" x="207.62" y="-118.5" font-family="Helvetica,sans-Serif" font-size="10.00">&#45;</text>
<text xml:space="preserve" text-anchor="start" x="216.12" y="-118.5" font-family="Helvetica,sans-Serif" font-size="10.00">NNX</text>
<text xml:space="preserve" text-anchor="start" x="207.62" y="-102.5" font-family="Helvetica,sans-Serif" font-size="10.00">&#45;</text>
<text xml:space="preserve" text-anchor="start" x="216.12" y="-102.5" font-family="Helvetica,sans-Serif" font-size="10.00">NNO</text>
<text xml:space="preserve" text-anchor="start" x="207.62" y="-86.5" font-family="Helvetica,sans-Serif" font-size="10.00">&#45;</text>
<text xml:space="preserve" text-anchor="start" x="216.12" y="-86.5" font-family="Helvetica,sans-Serif" font-size="10.00">aiSymbol</text>
<text xml:space="preserve" text-anchor="start" x="207.62" y="-70.5" font-family="Helvetica,sans-Serif" font-size="10.00">&#45;</text>
<text xml:space="preserve" text-anchor="start" x="216.12" y="-70.5" font-family="Helvetica,sans-Serif" font-size="10.00">oppSymbol</text>
<text xml:space="preserve" text-anchor="start" x="206.12" y="-54.5" font-family="Helvetica,sans-Serif" font-size="10.00">+</text>
<text xml:space="preserve" text-anchor="start" x="216.12" y="-54.5" font-family="Helvetica,sans-Serif" font-size="10.00">Large_XO_AI()</text>
<text xml:space="preserve" text-anchor="start" x="206.12" y="-38.5" font-family="Helvetica,sans-Serif" font-size="10.00">+</text>
<text xml:space="preserve" text-anchor="start" x="216.12" y="-38.5" font-family="Helvetica,sans-Serif" font-size="10.00">evaluate()</text>
<text xml:space="preserve" text-anchor="start" x="206.12" y="-22.5" font-family="Helvetica,sans-Serif" font-size="10.00">+</text>
<text xml:space="preserve" text-anchor="start" x="216.12" y="-22.5" font-family="Helvetica,sans-Serif" font-size="10.00">minimax()</text>
<text xml:space="preserve" text-anchor="start" x="206.12" y="-6.5" font-family="Helvetica,sans-Serif" font-size="10.00">+</text>
<text xml:space="preserve" text-anchor="start" x="216.12" y="-6.5" font-family="Helvetica,sans-Serif" font-size="10.00">bestMove()</text>
<polygon fill="#666666" stroke="#666666" points="202.12,-146 202.12,-146 284.62,-146 284.62,-146 202.12,-146"/>
<polygon fill="#666666" stroke="#666666" points="202.12,-66 202.12,-66 214.12,-66 214.12,-66 202.12,-66"/>
<polygon fill="#666666" stroke="#666666" points="214.12,-66 214.12,-66 284.62,-66 284.62,-66 214.12,-66"/>
<polygon fill="none" stroke="#666666" points="202.12,0 202.12,-164 284.62,-164 284.62,0 202.12,0"/>
</a>
</g>
</g>
<!-- Node1&#45;&gt;Node4 -->
<g id="edge3_Node000001_Node000004" class="edge">
<title>Node1&#45;&gt;Node4</title>
<g id="a_edge3_Node000001_Node000004"><a xlink:title=" ">
<path fill="none" stroke="#63b8ff" d="M643.92,-243.87C553.03,-232.67 349.78,-203.83 293.38,-164 290.27,-161.81 287.32,-159.36 284.52,-156.71"/>
<polygon fill="none" stroke="#63b8ff" points="643.35,-247.32 653.7,-245.05 644.19,-240.37 643.35,-247.32"/>
</a>
</g>
</g>
<!-- Node5 -->
<g id="Node000005" class="node">
<title>Node5</title>
<g id="a_Node000005"><a xlink:href="$class_memory___a_i.html" xlink:title="AI controller for Memory Tic&#45;Tac&#45;Toe implementing the AI interface.">
<polygon fill="white" stroke="none" points="376.5,-132 302.25,-132 302.25,-32 376.5,-32 376.5,-132"/>
<text xml:space="preserve" text-anchor="start" x="314.25" y="-118.5" font-family="Helvetica,sans-Serif" font-size="10.00">Memory_AI</text>
<text xml:space="preserve" text-anchor="start" x="337.88" y="-102.5" font-family="Helvetica,sans-Serif" font-size="10.00"> </text>
<text xml:space="preserve" text-anchor="start" x="306.25" y="-86.5" font-family="Helvetica,sans-Serif" font-size="10.00">+</text>
<text xml:space="preserve" text-anchor="start" x="316.25" y="-86.5" font-family="Helvetica,sans-Serif" font-size="10.00">Memory_AI()</text>
<text xml:space="preserve" text-anchor="start" x="306.25" y="-70.5" font-family="Helvetica,sans-Serif" font-size="10.00">+</text>
<text xml:space="preserve" text-anchor="start" x="316.25" y="-70.5" font-family="Helvetica,sans-Serif" font-size="10.00">evaluate()</text>
<text xml:space="preserve" text-anchor="start" x="306.25" y="-54.5" font-family="Helvetica,sans-Serif" font-size="10.00">+</text>
<text xml:space="preserve" text-anchor="start" x="316.25" y="-54.5" font-family="Helvetica,sans-Serif" font-size="10.00">minimax()</text>
<text xml:space="preserve" text-anchor="start" x="306.25" y="-38.5" font-family="Helvetica,sans-Serif" font-size="10.00">+</text>
<text xml:space="preserve" text-anchor="start" x="316.25" y="-38.5" font-family="Helvetica,sans-Serif" font-size="10.00">bestMove()</text>
<polygon fill="#666666" stroke="#666666" points="302.25,-114 302.25,-114 376.5,-114 376.5,-114 302.25,-114"/>
<polygon fill="#666666" stroke="#666666" points="302.25,-98 302.25,-98 376.5,-98 376.5,-98 302.25,-98"/>
<polygon fill="none" stroke="#666666" points="302.25,-32 302.25,-132 376.5,-132 376.5,-32 302.25,-32"/>
</a>
</g>
</g>
<!-- Node1&#45;&gt;Node5 -->
<g id="edge4_Node000001_Node000005" class="edge">
<title>Node1&#45;&gt;Node5</title>
<g id="a_edge4_Node000001_Node000005"><a xlink:title=" ">
<path fill="none" stroke="#63b8ff" d="M643.89,-246.94C580.29,-241.87 462.54,-224.38 385.38,-164 374.55,-155.53 365.84,-143.75 359.04,-131.8"/>
<polygon fill="none" stroke="#63b8ff" points="643.38,-250.41 653.61,-247.64 643.88,-243.43 643.38,-250.41"/>
</a>
</g>
</g>
<!-- Node6 -->
<g id="Node000006" class="node">
<title>Node6</title>
<g id="a_Node000006"><a xlink:href="$class_obstacles___a_i.html" xlink:title=" ">
<polygon fill="white" stroke="none" points="478,-132 394.75,-132 394.75,-32 478,-32 478,-132"/>
<text xml:space="preserve" text-anchor="start" x="406.75" y="-118.5" font-family="Helvetica,sans-Serif" font-size="10.00">Obstacles_AI</text>
<text xml:space="preserve" text-anchor="start" x="434.88" y="-102.5" font-family="Helvetica,sans-Serif" font-size="10.00"> </text>
<text xml:space="preserve" text-anchor="start" x="398.75" y="-86.5" font-family="Helvetica,sans-Serif" font-size="10.00">+</text>
<text xml:space="preserve" text-anchor="start" x="408.75" y="-86.5" font-family="Helvetica,sans-Serif" font-size="10.00">Obstacles_AI()</text>
<text xml:space="preserve" text-anchor="start" x="398.75" y="-70.5" font-family="Helvetica,sans-Serif" font-size="10.00">+</text>
<text xml:space="preserve" text-anchor="start" x="408.75" y="-70.5" font-family="Helvetica,sans-Serif" font-size="10.00">evaluate()</text>
<text xml:space="preserve" text-anchor="start" x="398.75" y="-54.5" font-family="Helvetica,sans-Serif" font-size="10.00">+</text>
<text xml:space="preserve" text-anchor="start" x="408.75" y="-54.5" font-family="Helvetica,sans-Serif" font-size="10.00">minimax()</text>
<text xml:space="preserve" text-anchor="start" x="398.75" y="-38.5" font-family="Helvetica,sans-Serif" font-size="10.00">+</text>
<text xml:space="preserve" text-anchor="start" x="408.75" y="-38.5" font-family="Helvetica,sans-Serif" font-size="10.00">bestMove()</text>
<polygon fill="#666666" stroke="#666666" points="394.75,-114 394.75,-114 478,-114 478,-114 394.75,-114"/>
<polygon fill="#666666" stroke="#666666" points="394.75,-98 394.75,-98 478,-98 478,-98 394.75,-98"/>
<polygon fill="none" stroke="#666666" points="394.75,-32 394.75,-132 478,-132 478,-32 394.75,-32"/>
</a>
</g>
</g>
<!-- Node1&#45;&gt;Node6 -->
<g id="edge5_Node000001_Node000006" class="edge">
<title>Node1&#45;&gt;Node6</title>
<g id="a_edge5_Node000001_Node000006"><a xlink:title=" ">
<path fill="none" stroke="#63b8ff" d="M644.4,-238.92C600.41,-227.05 532.77,-203.72 486.38,-164 475.96,-155.08 467.04,-143.43 459.74,-131.76"/>
<polygon fill="none" stroke="#63b8ff" points="643.3,-242.25 653.86,-241.39 645.07,-235.48 643.3,-242.25"/>
</a>
</g>
</g>
<!-- Node7 -->
<g id="Node000007" class="node">
<title>Node7</title>
<g id="a_Node000007"><a xlink:href="$class_pyramid_x_o___a_i.html" xlink:title="Simple AI choosing a random valid empty pyramid cell.">
<polygon fill="white" stroke="none" points="585,-132 495.75,-132 495.75,-32 585,-32 585,-132"/>
<text xml:space="preserve" text-anchor="start" x="507.75" y="-118.5" font-family="Helvetica,sans-Serif" font-size="10.00">PyramidXO_AI</text>
<text xml:space="preserve" text-anchor="start" x="538.88" y="-102.5" font-family="Helvetica,sans-Serif" font-size="10.00"> </text>
<text xml:space="preserve" text-anchor="start" x="499.75" y="-86.5" font-family="Helvetica,sans-Serif" font-size="10.00">+</text>
<text xml:space="preserve" text-anchor="start" x="509.75" y="-86.5" font-family="Helvetica,sans-Serif" font-size="10.00">PyramidXO_AI()</text>
<text xml:space="preserve" text-anchor="start" x="499.75" y="-70.5" font-family="Helvetica,sans-Serif" font-size="10.00">+</text>
<text xml:space="preserve" text-anchor="start" x="509.75" y="-70.5" font-family="Helvetica,sans-Serif" font-size="10.00">evaluate()</text>
<text xml:space="preserve" text-anchor="start" x="499.75" y="-54.5" font-family="Helvetica,sans-Serif" font-size="10.00">+</text>
<text xml:space="preserve" text-anchor="start" x="509.75" y="-54.5" font-family="Helvetica,sans-Serif" font-size="10.00">minimax()</text>
<text xml:space="preserve" text-anchor="start" x="499.75" y="-38.5" font-family="Helvetica,sans-Serif" font-size="10.00">+</text>
<text xml:space="preserve" text-anchor="start" x="509.75" y="-38.5" font-family="Helvetica,sans-Serif" font-size="10.00">bestMove()</text>
<polygon fill="#666666" stroke="#666666" points="495.75,-114 495.75,-114 585,-114 585,-114 495.75,-114"/>
<polygon fill="#666666" stroke="#666666" points="495.75,-98 495.75,-98 585,-98 585,-98 495.75,-98"/>
<polygon fill="none" stroke="#666666" points="495.75,-32 495.75,-132 585,-132 585,-32 495.75,-32"/>
</a>
</g>
</g>
<!-- Node1&#45;&gt;Node7 -->
<g id="edge6_Node000001_Node000007" class="edge">
<title>Node1&#45;&gt;Node7</title>
<g id="a_edge6_Node000001_Node000007"><a xlink:title=" ">
<path fill="none" stroke="#63b8ff" d="M646.82,-215.95C629.33,-201.03 609.37,-182.6 593.38,-164 584.83,-154.06 576.57,-142.66 569.22,-131.61"/>
<polygon fill="none" stroke="#63b8ff" points="644.11,-218.25 654.02,-222.01 648.61,-212.89 644.11,-218.25"/>
</a>
</g>
</g>
<!-- Node8 -->
<g id="Node000008" class="node">
<title>Node8</title>
<g id="a_Node000008"><a xlink:href="$class_s_u_s___a_i.html" xlink:title="Implements AI for the SUS game using Minimax with alpha&#45;beta pruning.">
<polygon fill="white" stroke="none" points="680,-140 602.75,-140 602.75,-24 680,-24 680,-140"/>
<text xml:space="preserve" text-anchor="start" x="623.38" y="-126.5" font-family="Helvetica,sans-Serif" font-size="10.00">SUS_AI</text>
<text xml:space="preserve" text-anchor="start" x="639.88" y="-110.5" font-family="Helvetica,sans-Serif" font-size="10.00"> </text>
<text xml:space="preserve" text-anchor="start" x="606.75" y="-94.5" font-family="Helvetica,sans-Serif" font-size="10.00">+</text>
<text xml:space="preserve" text-anchor="start" x="616.75" y="-94.5" font-family="Helvetica,sans-Serif" font-size="10.00">SUS_AI()</text>
<text xml:space="preserve" text-anchor="start" x="606.75" y="-78.5" font-family="Helvetica,sans-Serif" font-size="10.00">+</text>
<text xml:space="preserve" text-anchor="start" x="616.75" y="-78.5" font-family="Helvetica,sans-Serif" font-size="10.00">evaluate()</text>
<text xml:space="preserve" text-anchor="start" x="606.75" y="-62.5" font-family="Helvetica,sans-Serif" font-size="10.00">+</text>
<text xml:space="preserve" text-anchor="start" x="616.75" y="-62.5" font-family="Helvetica,sans-Serif" font-size="10.00">minimax()</text>
<text xml:space="preserve" text-anchor="start" x="606.75" y="-46.5" font-family="Helvetica,sans-Serif" font-size="10.00">+</text>
<text xml:space="preserve" text-anchor="start" x="616.75" y="-46.5" font-family="Helvetica,sans-Serif" font-size="10.00">isMovesLeft()</text>
<text xml:space="preserve" text-anchor="start" x="606.75" y="-30.5" font-family="Helvetica,sans-Serif" font-size="10.00">+</text>
<text xml:space="preserve" text-anchor="start" x="616.75" y="-30.5" font-family="Helvetica,sans-Serif" font-size="10.00">bestMove()</text>
<polygon fill="#666666" stroke="#666666" points="602.75,-122 602.75,-122 680,-122 680,-122 602.75,-122"/>
<polygon fill="#666666" stroke="#666666" points="602.75,-106 602.75,-106 680,-106 680,-106 602.75,-106"/>
<polygon fill="none" stroke="#666666" points="602.75,-24 602.75,-140 680,-140 680,-24 602.75,-24"/>
</a>
</g>
</g>
<!-- Node1&#45;&gt;Node8 -->
<g id="edge7_Node000001_Node000008" class="edge">
<title>Node1&#45;&gt;Node8</title>
<g id="a_edge7_Node000001_Node000008"><a xlink:title=" ">
<path fill="none" stroke="#63b8ff" d="M671.44,-189.17C666.87,-173.06 661.95,-155.68 657.44,-139.74"/>
<polygon fill="none" stroke="#63b8ff" points="668.02,-189.97 674.12,-198.64 674.76,-188.06 668.02,-189.97"/>
</a>
</g>
</g>
<!-- Node9 -->
<g id="Node000009" class="node">
<title>Node9</title>
<g id="a_Node000009"><a xlink:href="$class_ultimate___a_i.html" xlink:title="AI for Ultimate Tic&#45;Tac&#45;Toe. Currently chooses random empty cell.">
<polygon fill="white" stroke="none" points="774.25,-132 698.5,-132 698.5,-32 774.25,-32 774.25,-132"/>
<text xml:space="preserve" text-anchor="start" x="710.5" y="-118.5" font-family="Helvetica,sans-Serif" font-size="10.00">Ultimate_AI</text>
<text xml:space="preserve" text-anchor="start" x="734.88" y="-102.5" font-family="Helvetica,sans-Serif" font-size="10.00"> </text>
<text xml:space="preserve" text-anchor="start" x="702.5" y="-86.5" font-family="Helvetica,sans-Serif" font-size="10.00">+</text>
<text xml:space="preserve" text-anchor="start" x="712.5" y="-86.5" font-family="Helvetica,sans-Serif" font-size="10.00">Ultimate_AI()</text>
<text xml:space="preserve" text-anchor="start" x="702.5" y="-70.5" font-family="Helvetica,sans-Serif" font-size="10.00">+</text>
<text xml:space="preserve" text-anchor="start" x="712.5" y="-70.5" font-family="Helvetica,sans-Serif" font-size="10.00">evaluate()</text>
<text xml:space="preserve" text-anchor="start" x="702.5" y="-54.5" font-family="Helvetica,sans-Serif" font-size="10.00">+</text>
<text xml:space="preserve" text-anchor="start" x="712.5" y="-54.5" font-family="Helvetica,sans-Serif" font-size="10.00">minimax()</text>
<text xml:space="preserve" text-anchor="start" x="702.5" y="-38.5" font-family="Helvetica,sans-Serif" font-size="10.00">+</text>
<text xml:space="preserve" text-anchor="start" x="712.5" y="-38.5" font-family="Helvetica,sans-Serif" font-size="10.00">bestMove()</text>
<polygon fill="#666666" stroke="#666666" points="698.5,-114 698.5,-114 774.25,-114 774.25,-114 698.5,-114"/>
<polygon fill="#666666" stroke="#666666" points="698.5,-98 698.5,-98 774.25,-98 774.25,-98 698.5,-98"/>
<polygon fill="none" stroke="#666666" points="698.5,-32 698.5,-132 774.25,-132 774.25,-32 698.5,-32"/>
</a>
</g>
</g>
<!-- Node1&#45;&gt;Node9 -->
<g id="edge8_Node000001_Node000009" class="edge">
<title>Node1&#45;&gt;Node9</title>
<g id="a_edge8_Node000001_Node000009"><a xlink:title=" ">
<path fill="none" stroke="#63b8ff" d="M705.66,-189.24C711.1,-170.4 717.05,-149.83 722.25,-131.84"/>
<polygon fill="none" stroke="#63b8ff" points="702.35,-188.06 702.94,-198.64 709.08,-190 702.35,-188.06"/>
</a>
</g>
</g>
<!-- Node10 -->
<g id="Node000010" class="node">
<title>Node10</title>
<g id="a_Node000010"><a xlink:href="$class_word___a_i.html" xlink:title="AI engine for the Word Tic&#45;Tac&#45;Toe game.">
<polygon fill="white" stroke="none" points="858.75,-132 792,-132 792,-32 858.75,-32 858.75,-132"/>
<text xml:space="preserve" text-anchor="start" x="806.62" y="-118.5" font-family="Helvetica,sans-Serif" font-size="10.00">Word_AI</text>
<text xml:space="preserve" text-anchor="start" x="823.88" y="-102.5" font-family="Helvetica,sans-Serif" font-size="10.00"> </text>
<text xml:space="preserve" text-anchor="start" x="796" y="-86.5" font-family="Helvetica,sans-Serif" font-size="10.00">+</text>
<text xml:space="preserve" text-anchor="start" x="806" y="-86.5" font-family="Helvetica,sans-Serif" font-size="10.00">Word_AI()</text>
<text xml:space="preserve" text-anchor="start" x="796" y="-70.5" font-family="Helvetica,sans-Serif" font-size="10.00">+</text>
<text xml:space="preserve" text-anchor="start" x="806" y="-70.5" font-family="Helvetica,sans-Serif" font-size="10.00">evaluate()</text>
<text xml:space="preserve" text-anchor="start" x="796" y="-54.5" font-family="Helvetica,sans-Serif" font-size="10.00">+</text>
<text xml:space="preserve" text-anchor="start" x="806" y="-54.5" font-family="Helvetica,sans-Serif" font-size="10.00">minimax()</text>
<text xml:space="preserve" text-anchor="start" x="796" y="-38.5" font-family="Helvetica,sans-Serif" font-size="10.00">+</text>
<text xml:space="preserve" text-anchor="start" x="806" y="-38.5" font-family="Helvetica,sans-Serif" font-size="10.00">bestMove()</text>
<polygon fill="#666666" stroke="#666666" points="792,-114 792,-114 858.75,-114 858.75,-114 792,-114"/>
<polygon fill="#666666" stroke="#666666" points="792,-98 792,-98 858.75,-98 858.75,-98 792,-98"/>
<polygon fill="none" stroke="#666666" points="792,-32 792,-132 858.75,-132 858.75,-32 792,-32"/>
</a>
</g>
</g>
<!-- Node1&#45;&gt;Node10 -->
<g id="edge9_Node000001_Node000010" class="edge">
<title>Node1&#45;&gt;Node10</title>
<g id="a_edge9_Node000001_Node000010"><a xlink:title=" ">
<path fill="none" stroke="#63b8ff" d="M730.04,-217.4C747.9,-202.5 768.11,-183.69 783.38,-164 790.95,-154.24 797.8,-142.9 803.68,-131.86"/>
<polygon fill="none" stroke="#63b8ff" points="728.2,-214.38 722.67,-223.42 732.63,-219.8 728.2,-214.38"/>
</a>
</g>
</g>
<!-- Node11 -->
<g id="Node000011" class="node">
<title>Node11</title>
<g id="a_Node000011"><a xlink:href="$class_x_o___n_u_m___a_i.html" xlink:title="Random&#45;move AI for Numerical Tic&#45;Tac&#45;Toe.">
<polygon fill="white" stroke="none" points="958.25,-132 876.5,-132 876.5,-32 958.25,-32 958.25,-132"/>
<text xml:space="preserve" text-anchor="start" x="888.5" y="-118.5" font-family="Helvetica,sans-Serif" font-size="10.00">XO_NUM_AI</text>
<text xml:space="preserve" text-anchor="start" x="915.88" y="-102.5" font-family="Helvetica,sans-Serif" font-size="10.00"> </text>
<text xml:space="preserve" text-anchor="start" x="880.5" y="-86.5" font-family="Helvetica,sans-Serif" font-size="10.00">+</text>
<text xml:space="preserve" text-anchor="start" x="890.5" y="-86.5" font-family="Helvetica,sans-Serif" font-size="10.00">XO_NUM_AI()</text>
<text xml:space="preserve" text-anchor="start" x="880.5" y="-70.5" font-family="Helvetica,sans-Serif" font-size="10.00">+</text>
<text xml:space="preserve" text-anchor="start" x="890.5" y="-70.5" font-family="Helvetica,sans-Serif" font-size="10.00">evaluate()</text>
<text xml:space="preserve" text-anchor="start" x="880.5" y="-54.5" font-family="Helvetica,sans-Serif" font-size="10.00">+</text>
<text xml:space="preserve" text-anchor="start" x="890.5" y="-54.5" font-family="Helvetica,sans-Serif" font-size="10.00">minimax()</text>
<text xml:space="preserve" text-anchor="start" x="880.5" y="-38.5" font-family="Helvetica,sans-Serif" font-size="10.00">+</text>
<text xml:space="preserve" text-anchor="start" x="890.5" y="-38.5" font-family="Helvetica,sans-Serif" font-size="10.00">bestMove()</text>
<polygon fill="#666666" stroke="#666666" points="876.5,-114 876.5,-114 958.25,-114 958.25,-114 876.5,-114"/>
<polygon fill="#666666" stroke="#666666" points="876.5,-98 876.5,-98 958.25,-98 958.25,-98 876.5,-98"/>
<polygon fill="none" stroke="#666666" points="876.5,-32 876.5,-132 958.25,-132 958.25,-32 876.5,-32"/>
</a>
</g>
</g>
<!-- Node1&#45;&gt;Node11 -->
<g id="edge10_Node000001_Node000011" class="edge">
<title>Node1&#45;&gt;Node11</title>
<g id="a_edge10_Node000001_Node000011"><a xlink:title=" ">
<path fill="none" stroke="#63b8ff" d="M732.42,-236.03C771.38,-222.84 827.99,-199.28 867.38,-164 877.47,-154.96 886.23,-143.4 893.47,-131.86"/>
<polygon fill="none" stroke="#63b8ff" points="731.53,-232.64 723.12,-239.08 733.71,-239.29 731.53,-232.64"/>
</a>
</g>
</g>
<!-- Node12 -->
<g id="Node000012" class="node">
<title>Node12</title>
<g id="a_Node000012"><a xlink:href="$class_x_o__inf___a_i.html" xlink:title=" ">
<polygon fill="white" stroke="none" points="1044.88,-132 975.88,-132 975.88,-32 1044.88,-32 1044.88,-132"/>
<text xml:space="preserve" text-anchor="start" x="987.88" y="-118.5" font-family="Helvetica,sans-Serif" font-size="10.00">XO_inf_AI</text>
<text xml:space="preserve" text-anchor="start" x="1008.88" y="-102.5" font-family="Helvetica,sans-Serif" font-size="10.00"> </text>
<text xml:space="preserve" text-anchor="start" x="979.88" y="-86.5" font-family="Helvetica,sans-Serif" font-size="10.00">+</text>
<text xml:space="preserve" text-anchor="start" x="989.88" y="-86.5" font-family="Helvetica,sans-Serif" font-size="10.00">XO_inf_AI()</text>
<text xml:space="preserve" text-anchor="start" x="979.88" y="-70.5" font-family="Helvetica,sans-Serif" font-size="10.00">+</text>
<text xml:space="preserve" text-anchor="start" x="989.88" y="-70.5" font-family="Helvetica,sans-Serif" font-size="10.00">evaluate()</text>
<text xml:space="preserve" text-anchor="start" x="979.88" y="-54.5" font-family="Helvetica,sans-Serif" font-size="10.00">+</text>
<text xml:space="preserve" text-anchor="start" x="989.88" y="-54.5" font-family="Helvetica,sans-Serif" font-size="10.00">minimax()</text>
<text xml:space="preserve" text-anchor="start" x="979.88" y="-38.5" font-family="Helvetica,sans-Serif" font-size="10.00">+</text>
<text xml:space="preserve" text-anchor="start" x="989.88" y="-38.5" font-family="Helvetica,sans-Serif" font-size="10.00">bestMove()</text>
<polygon fill="#666666" stroke="#666666" points="975.88,-114 975.88,-114 1044.88,-114 1044.88,-114 975.88,-114"/>
<polygon fill="#666666" stroke="#666666" points="975.88,-98 975.88,-98 1044.88,-98 1044.88,-98 975.88,-98"/>
<polygon fill="none" stroke="#666666" points="975.88,-32 975.88,-132 1044.88,-132 1044.88,-32 975.88,-32"/>
</a>
</g>
</g>
<!-- Node1&#45;&gt;Node12 -->
<g id="edge11_Node000001_Node000012" class="edge">
<title>Node1&#45;&gt;Node12</title>
<g id="a_edge11_Node000001_Node000012"><a xlink:title=" ">
<path fill="none" stroke="#63b8ff" d="M732.68,-245.92C792.22,-239.65 898.5,-220.76 967.38,-164 977.82,-155.39 986.07,-143.57 992.43,-131.62"/>
<polygon fill="none" stroke="#63b8ff" points="732.54,-242.41 722.93,-246.86 733.22,-249.38 732.54,-242.41"/>
</a>
</g>
</g>
<!-- Node13 -->
<g id="Node000013" class="node">
<title>Node13</title>
<g id="a_Node000013"><a xlink:href="$class_x___o___a_i.html" xlink:title="AI controller for Tic&#45;Tac&#45;Toe.">
<polygon fill="white" stroke="none" points="1129.75,-132 1063,-132 1063,-32 1129.75,-32 1129.75,-132"/>
<text xml:space="preserve" text-anchor="start" x="1079.12" y="-118.5" font-family="Helvetica,sans-Serif" font-size="10.00">X_O_AI</text>
<text xml:space="preserve" text-anchor="start" x="1094.88" y="-102.5" font-family="Helvetica,sans-Serif" font-size="10.00"> </text>
<text xml:space="preserve" text-anchor="start" x="1067" y="-86.5" font-family="Helvetica,sans-Serif" font-size="10.00">+</text>
<text xml:space="preserve" text-anchor="start" x="1077" y="-86.5" font-family="Helvetica,sans-Serif" font-size="10.00">X_O_AI()</text>
<text xml:space="preserve" text-anchor="start" x="1067" y="-70.5" font-family="Helvetica,sans-Serif" font-size="10.00">+</text>
<text xml:space="preserve" text-anchor="start" x="1077" y="-70.5" font-family="Helvetica,sans-Serif" font-size="10.00">evaluate()</text>
<text xml:space="preserve" text-anchor="start" x="1067" y="-54.5" font-family="Helvetica,sans-Serif" font-size="10.00">+</text>
<text xml:space="preserve" text-anchor="start" x="1077" y="-54.5" font-family="Helvetica,sans-Serif" font-size="10.00">minimax()</text>
<text xml:space="preserve" text-anchor="start" x="1067" y="-38.5" font-family="Helvetica,sans-Serif" font-size="10.00">+</text>
<text xml:space="preserve" text-anchor="start" x="1077" y="-38.5" font-family="Helvetica,sans-Serif" font-size="10.00">bestMove()</text>
<polygon fill="#666666" stroke="#666666" points="1063,-114 1063,-114 1129.75,-114 1129.75,-114 1063,-114"/>
<polygon fill="#666666" stroke="#666666" points="1063,-98 1063,-98 1129.75,-98 1129.75,-98 1063,-98"/>
<polygon fill="none" stroke="#666666" points="1063,-32 1063,-132 1129.75,-132 1129.75,-32 1063,-32"/>
</a>
</g>
</g>
<!-- Node1&#45;&gt;Node13 -->
<g id="edge12_Node000001_Node000013" class="edge">
<title>Node1&#45;&gt;Node13</title>
<g id="a_edge12_Node000001_Node000013"><a xlink:title=" ">
<path fill="none" stroke="#63b8ff" d="M732.84,-243.39C818.92,-231.78 1004.26,-202.92 1054.38,-164 1065.13,-155.64 1073.4,-143.76 1079.64,-131.66"/>
<polygon fill="none" stroke="#63b8ff" points="732.58,-239.89 723.13,-244.68 733.5,-246.83 732.58,-239.89"/>
</a>
</g>
</g>
<!-- Node14 -->
<g id="Node000014" class="node">
<title>Node14</title>
<g id="a_Node000014"><a xlink:href="$class__4by4_x_o___a_i.html" xlink:title="Basic AI for 4x4 sliding Tic&#45;Tac&#45;Toe.">
<polygon fill="white" stroke="none" points="1227.12,-132 1147.62,-132 1147.62,-32 1227.12,-32 1227.12,-132"/>
<text xml:space="preserve" text-anchor="start" x="1159.62" y="-118.5" font-family="Helvetica,sans-Serif" font-size="10.00">_4by4XO_AI</text>
<text xml:space="preserve" text-anchor="start" x="1185.88" y="-102.5" font-family="Helvetica,sans-Serif" font-size="10.00"> </text>
<text xml:space="preserve" text-anchor="start" x="1151.62" y="-86.5" font-family="Helvetica,sans-Serif" font-size="10.00">+</text>
<text xml:space="preserve" text-anchor="start" x="1161.62" y="-86.5" font-family="Helvetica,sans-Serif" font-size="10.00">_4by4XO_AI()</text>
<text xml:space="preserve" text-anchor="start" x="1151.62" y="-70.5" font-family="Helvetica,sans-Serif" font-size="10.00">+</text>
<text xml:space="preserve" text-anchor="start" x="1161.62" y="-70.5" font-family="Helvetica,sans-Serif" font-size="10.00">evaluate()</text>
<text xml:space="preserve" text-anchor="start" x="1151.62" y="-54.5" font-family="Helvetica,sans-Serif" font-size="10.00">+</text>
<text xml:space="preserve" text-anchor="start" x="1161.62" y="-54.5" font-family="Helvetica,sans-Serif" font-size="10.00">minimax()</text>
<text xml:space="preserve" text-anchor="start" x="1151.62" y="-38.5" font-family="Helvetica,sans-Serif" font-size="10.00">+</text>
<text xml:space="preserve" text-anchor="start" x="1161.62" y="-38.5" font-family="Helvetica,sans-Serif" font-size="10.00">bestMove()</text>
<polygon fill="#666666" stroke="#666666" points="1147.62,-114 1147.62,-114 1227.12,-114 1227.12,-114 1147.62,-114"/>
<polygon fill="#666666" stroke="#666666" points="1147.62,-98 1147.62,-98 1227.12,-98 1227.12,-98 1147.62,-98"/>
<polygon fill="none" stroke="#666666" points="1147.62,-32 1147.62,-132 1227.12,-132 1227.12,-32 1147.62,-32"/>
</a>
</g>
</g>
<!-- Node1&#45;&gt;Node14 -->
<g id="edge13_Node000001_Node000014" class="edge">
<title>Node1&#45;&gt;Node14</title>
<g id="a_edge13_Node000001_Node000014"><a xlink:title=" ">
<path fill="none" stroke="#63b8ff" d="M732.97,-245.2C833.24,-235.92 1072.8,-209.51 1138.38,-164 1150.12,-155.85 1159.54,-143.88 1166.86,-131.63"/>
<polygon fill="none" stroke="#63b8ff" points="732.89,-241.69 723.25,-246.08 733.52,-248.66 732.89,-241.69"/>
</a>
</g>
</g>
<!-- Node15 -->
<g id="Node000015" class="node">
<title>Node15</title>
<g id="a_Node000015"><a xlink:href="$classdia___x_o___a_i.html" xlink:title=" ">
<polygon fill="white" stroke="none" points="1316,-132 1244.75,-132 1244.75,-32 1316,-32 1316,-132"/>
<text xml:space="preserve" text-anchor="start" x="1256.75" y="-118.5" font-family="Helvetica,sans-Serif" font-size="10.00">dia_XO_AI</text>
<text xml:space="preserve" text-anchor="start" x="1278.88" y="-102.5" font-family="Helvetica,sans-Serif" font-size="10.00"> </text>
<text xml:space="preserve" text-anchor="start" x="1248.75" y="-86.5" font-family="Helvetica,sans-Serif" font-size="10.00">+</text>
<text xml:space="preserve" text-anchor="start" x="1258.75" y="-86.5" font-family="Helvetica,sans-Serif" font-size="10.00">dia_XO_AI()</text>
<text xml:space="preserve" text-anchor="start" x="1248.75" y="-70.5" font-family="Helvetica,sans-Serif" font-size="10.00">+</text>
<text xml:space="preserve" text-anchor="start" x="1258.75" y="-70.5" font-family="Helvetica,sans-Serif" font-size="10.00">evaluate()</text>
<text xml:space="preserve" text-anchor="start" x="1248.75" y="-54.5" font-family="Helvetica,sans-Serif" font-size="10.00">+</text>
<text xml:space="preserve" text-anchor="start" x="1258.75" y="-54.5" font-family="Helvetica,sans-Serif" font-size="10.00">minimax()</text>
<text xml:space="preserve" text-anchor="start" x="1248.75" y="-38.5" font-family="Helvetica,sans-Serif" font-size="10.00">+</text>
<text xml:space="preserve" text-anchor="start" x="1258.75" y="-38.5" font-family="Helvetica,sans-Serif" font-size="10.00">bestMove()</text>
<polygon fill="#666666" stroke="#666666" points="1244.75,-114 1244.75,-114 1316,-114 1316,-114 1244.75,-114"/>
<polygon fill="#666666" stroke="#666666" points="1244.75,-98 1244.75,-98 1316,-98 1316,-98 1244.75,-98"/>
<polygon fill="none" stroke="#666666" points="1244.75,-32 1244.75,-132 1316,-132 1316,-32 1244.75,-32"/>
</a>
</g>
</g>
<!-- Node1&#45;&gt;Node15 -->
<g id="edge14_Node000001_Node000015" class="edge">
<title>Node1&#45;&gt;Node15</title>
<g id="a_edge14_Node000001_Node000015"><a xlink:title=" ">
<path fill="none" stroke="#63b8ff" d="M732.95,-247.11C848.64,-241.42 1155.13,-221.21 1236.38,-164 1247.76,-155.98 1256.49,-144.06 1263.05,-131.81"/>
<polygon fill="none" stroke="#63b8ff" points="733.06,-243.6 723.23,-247.57 733.39,-250.59 733.06,-243.6"/>
</a>
</g>
</g>
</g>
</svg>
