<?xml version="1.0" encoding="UTF-8" standalone="no"?>
<!DOCTYPE svg PUBLIC "-//W3C//DTD SVG 1.1//EN"
 "http://www.w3.org/Graphics/SVG/1.1/DTD/svg11.dtd">
<!-- Generated by graphviz version 14.0.2 (20251019.1705)
 -->
<!-- Title: Word_XO_Board::game_is_over Pages: 1 -->
<svg width="627pt" height="66pt"
 viewBox="0.00 0.00 627.00 66.00" xmlns="http://www.w3.org/2000/svg" xmlns:xlink="http://www.w3.org/1999/xlink">
<g id="graph0" class="graph" transform="scale(1 1) rotate(0) translate(4 62)">
<title>Word_XO_Board::game_is_over</title>
<!-- Node1 -->
<g id="Node000001" class="node">
<title>Node1</title>
<g id="a_Node000001"><a xlink:title="Check if the game is over.">
<polygon fill="#999999" stroke="#666666" points="118.75,-45 0,-45 0,-13 118.75,-13 118.75,-45"/>
<text xml:space="preserve" text-anchor="start" x="8" y="-31.5" font-family="Helvetica,sans-Serif" font-size="10.00">Word_XO_Board::game</text>
<text xml:space="preserve" text-anchor="middle" x="59.38" y="-19.5" font-family="Helvetica,sans-Serif" font-size="10.00">_is_over</text>
</a>
</g>
</g>
<!-- Node2 -->
<g id="Node000002" class="node">
<title>Node2</title>
<g id="a_Node000002"><a xlink:href="class_word___x_o___board.html#af33032e635ec76b4f8b13b0658b772a0" target="_top" xlink:title="Check if the game ended in a draw.">
<polygon fill="white" stroke="#666666" points="283.25,-39 154.75,-39 154.75,-19 283.25,-19 283.25,-39"/>
<text xml:space="preserve" text-anchor="middle" x="219" y="-25.5" font-family="Helvetica,sans-Serif" font-size="10.00">Word_XO_Board::is_draw</text>
</a>
</g>
</g>
<!-- Node1&#45;&gt;Node2 -->
<g id="edge1_Node000001_Node000002" class="edge">
<title>Node1&#45;&gt;Node2</title>
<g id="a_edge1_Node000001_Node000002"><a xlink:title=" ">
<path fill="none" stroke="#63b8ff" d="M119.07,-29C126.92,-29 135.06,-29 143.14,-29"/>
<polygon fill="#63b8ff" stroke="#63b8ff" points="142.98,-32.5 152.98,-29 142.98,-25.5 142.98,-32.5"/>
</a>
</g>
</g>
<!-- Node3 -->
<g id="Node000003" class="node">
<title>Node3</title>
<g id="a_Node000003"><a xlink:href="class_word___x_o___board.html#ad8b61980c76bb5bb7427737b517e3972" target="_top" xlink:title="Check if a player has lost.">
<polygon fill="white" stroke="#666666" points="444.75,-58 319.25,-58 319.25,-38 444.75,-38 444.75,-58"/>
<text xml:space="preserve" text-anchor="middle" x="382" y="-44.5" font-family="Helvetica,sans-Serif" font-size="10.00">Word_XO_Board::is_lose</text>
</a>
</g>
</g>
<!-- Node1&#45;&gt;Node3 -->
<g id="edge6_Node000001_Node000003" class="edge">
<title>Node1&#45;&gt;Node3</title>
<g id="a_edge6_Node000001_Node000003"><a xlink:title=" ">
<path fill="none" stroke="#63b8ff" d="M119,-42.68C130.78,-44.89 143.11,-46.84 154.75,-48 205.63,-53.07 263.26,-52.98 307.63,-51.68"/>
<polygon fill="#63b8ff" stroke="#63b8ff" points="307.5,-55.18 317.38,-51.36 307.28,-48.18 307.5,-55.18"/>
</a>
</g>
</g>
<!-- Node5 -->
<g id="Node000005" class="node">
<title>Node5</title>
<g id="a_Node000005"><a xlink:href="class_word___x_o___board.html#acd3b0a4f466b07fe90f1485b876d58fb" target="_top" xlink:title="Check if a player has won.">
<polygon fill="white" stroke="#666666" points="443.25,-20 320.75,-20 320.75,0 443.25,0 443.25,-20"/>
<text xml:space="preserve" text-anchor="middle" x="382" y="-6.5" font-family="Helvetica,sans-Serif" font-size="10.00">Word_XO_Board::is_win</text>
</a>
</g>
</g>
<!-- Node1&#45;&gt;Node5 -->
<g id="edge7_Node000001_Node000005" class="edge">
<title>Node1&#45;&gt;Node5</title>
<g id="a_edge7_Node000001_Node000005"><a xlink:title=" ">
<path fill="none" stroke="#63b8ff" d="M119,-15.32C130.78,-13.11 143.11,-11.16 154.75,-10 206.17,-4.88 264.48,-5.02 309.03,-6.37"/>
<polygon fill="#63b8ff" stroke="#63b8ff" points="308.72,-9.86 318.83,-6.69 308.95,-2.86 308.72,-9.86"/>
</a>
</g>
</g>
<!-- Node2&#45;&gt;Node3 -->
<g id="edge2_Node000002_Node000003" class="edge">
<title>Node2&#45;&gt;Node3</title>
<g id="a_edge2_Node000002_Node000003"><a xlink:title=" ">
<path fill="none" stroke="#63b8ff" d="M283.63,-36.51C291.52,-37.44 299.63,-38.4 307.65,-39.34"/>
<polygon fill="#63b8ff" stroke="#63b8ff" points="307.04,-42.8 317.38,-40.49 307.86,-35.84 307.04,-42.8"/>
</a>
</g>
</g>
<!-- Node2&#45;&gt;Node5 -->
<g id="edge4_Node000002_Node000005" class="edge">
<title>Node2&#45;&gt;Node5</title>
<g id="a_edge4_Node000002_Node000005"><a xlink:title=" ">
<path fill="none" stroke="#63b8ff" d="M283.63,-21.49C291.97,-20.51 300.56,-19.49 309.03,-18.49"/>
<polygon fill="#63b8ff" stroke="#63b8ff" points="309.43,-21.97 318.95,-17.32 308.61,-15.02 309.43,-21.97"/>
</a>
</g>
</g>
<!-- Node4 -->
<g id="Node000004" class="node">
<title>Node4</title>
<g id="a_Node000004"><a xlink:href="class_word___x_o___board.html#a9c29ef4e7ba4a134a7137ad88414ed49" target="_top" xlink:title="Check if any valid word exists on the board.">
<polygon fill="white" stroke="#666666" points="619,-39 480.75,-39 480.75,-19 619,-19 619,-39"/>
<text xml:space="preserve" text-anchor="middle" x="549.88" y="-25.5" font-family="Helvetica,sans-Serif" font-size="10.00">Word_XO_Board::wordExist</text>
</a>
</g>
</g>
<!-- Node3&#45;&gt;Node4 -->
<g id="edge3_Node000003_Node000004" class="edge">
<title>Node3&#45;&gt;Node4</title>
<g id="a_edge3_Node000003_Node000004"><a xlink:title=" ">
<path fill="none" stroke="#63b8ff" d="M445.24,-40.87C453.05,-39.98 461.12,-39.05 469.15,-38.13"/>
<polygon fill="#63b8ff" stroke="#63b8ff" points="469.41,-41.63 478.94,-37.01 468.61,-34.67 469.41,-41.63"/>
</a>
</g>
</g>
<!-- Node5&#45;&gt;Node4 -->
<g id="edge5_Node000005_Node000004" class="edge">
<title>Node5&#45;&gt;Node4</title>
<g id="a_edge5_Node000005_Node000004"><a xlink:title=" ">
<path fill="none" stroke="#63b8ff" d="M443.35,-16.91C451.73,-17.87 460.43,-18.87 469.09,-19.86"/>
<polygon fill="#63b8ff" stroke="#63b8ff" points="468.58,-23.33 478.91,-20.99 469.38,-16.37 468.58,-23.33"/>
</a>
</g>
</g>
</g>
</svg>
