<?xml version="1.0" encoding="UTF-8" standalone="no"?>
<!DOCTYPE svg PUBLIC "-//W3C//DTD SVG 1.1//EN"
 "http://www.w3.org/Graphics/SVG/1.1/DTD/svg11.dtd">
<!-- Generated by graphviz version 14.0.2 (20251019.1705)
 -->
<!-- Title: Obstacles_Board::getAvailableMove Pages: 1 -->
<svg width="524pt" height="78pt"
 viewBox="0.00 0.00 524.00 78.00" xmlns="http://www.w3.org/2000/svg" xmlns:xlink="http://www.w3.org/1999/xlink">
<g id="graph0" class="graph" transform="scale(1 1) rotate(0) translate(4 74)">
<title>Obstacles_Board::getAvailableMove</title>
<!-- Node1 -->
<g id="Node000001" class="node">
<title>Node1</title>
<g id="a_Node000001"><a xlink:title="Returns a list of all legal moves.">
<polygon fill="#999999" stroke="#666666" points="516,-48 341.75,-48 341.75,-28 516,-28 516,-48"/>
<text xml:space="preserve" text-anchor="middle" x="428.88" y="-34.5" font-family="Helvetica,sans-Serif" font-size="10.00">Obstacles_Board::getAvailableMove</text>
</a>
</g>
</g>
<!-- Node2 -->
<g id="Node000002" class="node">
<title>Node2</title>
<g id="a_Node000002"><a xlink:href="$class_obstacles___a_i.html#ac9b20f46edf15c73cdcc6fe7a79ee34d" xlink:title="Determines the optimal move using minimax.">
<polygon fill="white" stroke="#666666" points="296,-68 172,-68 172,-48 296,-48 296,-68"/>
<text xml:space="preserve" text-anchor="middle" x="234" y="-54.5" font-family="Helvetica,sans-Serif" font-size="10.00">Obstacles_AI::bestMove</text>
</a>
</g>
</g>
<!-- Node1&#45;&gt;Node2 -->
<g id="edge1_Node000001_Node000002" class="edge">
<title>Node1&#45;&gt;Node2</title>
<g id="a_edge1_Node000001_Node000002"><a xlink:title=" ">
<path fill="none" stroke="#63b8ff" d="M329.93,-48.16C318.54,-49.34 307.17,-50.52 296.47,-51.63"/>
<polygon fill="#63b8ff" stroke="#63b8ff" points="330.22,-51.65 339.81,-47.13 329.5,-44.68 330.22,-51.65"/>
</a>
</g>
</g>
<!-- Node4 -->
<g id="Node000004" class="node">
<title>Node4</title>
<g id="a_Node000004"><a xlink:href="$class_obstacles___board.html#a6ffa3be3e7a967293e98834c04e93955" xlink:title="Attempts to place symbol s at (r, c).">
<polygon fill="white" stroke="#666666" points="305.75,-29 162.25,-29 162.25,-9 305.75,-9 305.75,-29"/>
<text xml:space="preserve" text-anchor="middle" x="234" y="-15.5" font-family="Helvetica,sans-Serif" font-size="10.00">Obstacles_Board::updateCell</text>
</a>
</g>
</g>
<!-- Node1&#45;&gt;Node4 -->
<g id="edge3_Node000001_Node000004" class="edge">
<title>Node1&#45;&gt;Node4</title>
<g id="a_edge3_Node000001_Node000004"><a xlink:title=" ">
<path fill="none" stroke="#63b8ff" d="M329.92,-28.35C321.85,-27.56 313.79,-26.76 305.98,-25.99"/>
<polygon fill="#63b8ff" stroke="#63b8ff" points="329.51,-31.83 339.8,-29.32 330.2,-24.86 329.51,-31.83"/>
</a>
</g>
</g>
<!-- Node3 -->
<g id="Node000003" class="node">
<title>Node3</title>
<g id="a_Node000003"><a xlink:href="$class_obstacles___u_i.html#aaf8a700063b544107b0ec92929b7242d" xlink:title="Obtains a move from a human or AI player.">
<polygon fill="white" stroke="#666666" points="125.5,-70 0.75,-70 0.75,-50 125.5,-50 125.5,-70"/>
<text xml:space="preserve" text-anchor="middle" x="63.12" y="-56.5" font-family="Helvetica,sans-Serif" font-size="10.00">Obstacles_UI::get_move</text>
</a>
</g>
</g>
<!-- Node2&#45;&gt;Node3 -->
<g id="edge2_Node000002_Node000003" class="edge">
<title>Node2&#45;&gt;Node3</title>
<g id="a_edge2_Node000002_Node000003"><a xlink:title=" ">
<path fill="none" stroke="#63b8ff" d="M160.22,-58.86C148.75,-59 136.99,-59.14 125.81,-59.27"/>
<polygon fill="#63b8ff" stroke="#63b8ff" points="160.08,-62.36 170.04,-58.75 160,-55.36 160.08,-62.36"/>
</a>
</g>
</g>
<!-- Node5 -->
<g id="Node000005" class="node">
<title>Node5</title>
<g id="a_Node000005"><a xlink:href="$class_obstacles___board.html#a51f3c83c61219c03b6c66231448b93b8" xlink:title="Applies a Move&lt;char&gt; object to the board.">
<polygon fill="white" stroke="#666666" points="126.25,-32 0,-32 0,0 126.25,0 126.25,-32"/>
<text xml:space="preserve" text-anchor="start" x="8" y="-18.5" font-family="Helvetica,sans-Serif" font-size="10.00">Obstacles_Board::update</text>
<text xml:space="preserve" text-anchor="middle" x="63.12" y="-6.5" font-family="Helvetica,sans-Serif" font-size="10.00">_board</text>
</a>
</g>
</g>
<!-- Node4&#45;&gt;Node5 -->
<g id="edge4_Node000004_Node000005" class="edge">
<title>Node4&#45;&gt;Node5</title>
<g id="a_edge4_Node000004_Node000005"><a xlink:title=" ">
<path fill="none" stroke="#63b8ff" d="M150.53,-17.54C142.48,-17.39 134.4,-17.25 126.6,-17.11"/>
<polygon fill="#63b8ff" stroke="#63b8ff" points="150.3,-21.03 160.36,-17.71 150.42,-14.03 150.3,-21.03"/>
</a>
</g>
</g>
</g>
</svg>
