<?xml version="1.0" encoding="UTF-8" standalone="no"?>
<!DOCTYPE svg PUBLIC "-//W3C//DTD SVG 1.1//EN"
 "http://www.w3.org/Graphics/SVG/1.1/DTD/svg11.dtd">
<!-- Generated by graphviz version 14.0.2 (20251019.1705)
 -->
<!-- Title: NeuralNetwork Pages: 1 -->
<svg width="110pt" height="996pt"
 viewBox="0.00 0.00 110.00 996.00" xmlns="http://www.w3.org/2000/svg" xmlns:xlink="http://www.w3.org/1999/xlink">
<g id="graph0" class="graph" transform="scale(1 1) rotate(0) translate(4 992)">
<title>NeuralNetwork</title>
<!-- Node1 -->
<g id="Node000001" class="node">
<title>Node1</title>
<g id="a_Node000001"><a xlink:title="Fully connected feedforward neural network using updated Layer class.">
<polygon fill="#999999" stroke="none" points="95.12,-148 5.88,-148 5.88,0 95.12,0 95.12,-148"/>
<text xml:space="preserve" text-anchor="start" x="17.88" y="-134.5" font-family="Helvetica,sans-Serif" font-size="10.00">NeuralNetwork</text>
<text xml:space="preserve" text-anchor="start" x="49" y="-118.5" font-family="Helvetica,sans-Serif" font-size="10.00"> </text>
<text xml:space="preserve" text-anchor="start" x="9.88" y="-102.5" font-family="Helvetica,sans-Serif" font-size="10.00">+</text>
<text xml:space="preserve" text-anchor="start" x="19.88" y="-102.5" font-family="Helvetica,sans-Serif" font-size="10.00">NeuralNetwork()</text>
<text xml:space="preserve" text-anchor="start" x="9.88" y="-86.5" font-family="Helvetica,sans-Serif" font-size="10.00">+</text>
<text xml:space="preserve" text-anchor="start" x="19.88" y="-86.5" font-family="Helvetica,sans-Serif" font-size="10.00">forward()</text>
<text xml:space="preserve" text-anchor="start" x="9.88" y="-70.5" font-family="Helvetica,sans-Serif" font-size="10.00">+</text>
<text xml:space="preserve" text-anchor="start" x="19.88" y="-70.5" font-family="Helvetica,sans-Serif" font-size="10.00">backward()</text>
<text xml:space="preserve" text-anchor="start" x="9.88" y="-54.5" font-family="Helvetica,sans-Serif" font-size="10.00">+</text>
<text xml:space="preserve" text-anchor="start" x="19.88" y="-54.5" font-family="Helvetica,sans-Serif" font-size="10.00">train()</text>
<text xml:space="preserve" text-anchor="start" x="9.88" y="-38.5" font-family="Helvetica,sans-Serif" font-size="10.00">+</text>
<text xml:space="preserve" text-anchor="start" x="19.88" y="-38.5" font-family="Helvetica,sans-Serif" font-size="10.00">predict()</text>
<text xml:space="preserve" text-anchor="start" x="9.88" y="-22.5" font-family="Helvetica,sans-Serif" font-size="10.00">+</text>
<text xml:space="preserve" text-anchor="start" x="19.88" y="-22.5" font-family="Helvetica,sans-Serif" font-size="10.00">save()</text>
<text xml:space="preserve" text-anchor="start" x="9.88" y="-6.5" font-family="Helvetica,sans-Serif" font-size="10.00">+</text>
<text xml:space="preserve" text-anchor="start" x="19.88" y="-6.5" font-family="Helvetica,sans-Serif" font-size="10.00">load()</text>
<polygon fill="#666666" stroke="#666666" points="5.88,-130 5.88,-130 95.12,-130 95.12,-130 5.88,-130"/>
<polygon fill="#666666" stroke="#666666" points="5.88,-114 5.88,-114 95.12,-114 95.12,-114 5.88,-114"/>
<polygon fill="none" stroke="#666666" points="5.88,0 5.88,-148 95.12,-148 95.12,0 5.88,0"/>
</a>
</g>
</g>
<!-- Node2 -->
<g id="Node000002" class="node">
<title>Node2</title>
<g id="a_Node000002"><a xlink:title=" ">
<polygon fill="white" stroke="none" points="98.75,-254 2.25,-254 2.25,-202 98.75,-202 98.75,-254"/>
<text xml:space="preserve" text-anchor="start" x="6.25" y="-240.5" font-family="Helvetica,sans-Serif" font-size="10.00">std::vector&lt; Layer &gt;</text>
<text xml:space="preserve" text-anchor="start" x="49" y="-224.5" font-family="Helvetica,sans-Serif" font-size="10.00"> </text>
<text xml:space="preserve" text-anchor="start" x="49" y="-208.5" font-family="Helvetica,sans-Serif" font-size="10.00"> </text>
<polygon fill="#666666" stroke="#666666" points="2.25,-236 2.25,-236 98.75,-236 98.75,-236 2.25,-236"/>
<polygon fill="#666666" stroke="#666666" points="2.25,-220 2.25,-220 98.75,-220 98.75,-220 2.25,-220"/>
<polygon fill="none" stroke="#666666" points="2.25,-202 2.25,-254 98.75,-254 98.75,-202 2.25,-202"/>
</a>
</g>
</g>
<!-- Node2&#45;&gt;Node1 -->
<g id="edge1_Node000001_Node000002" class="edge">
<title>Node2&#45;&gt;Node1</title>
<g id="a_edge1_Node000001_Node000002"><a xlink:title=" ">
<path fill="none" stroke="#63b8ff" d="M50.5,-202.24C50.5,-190.54 50.5,-175.81 50.5,-160.56"/>
<polygon fill="none" stroke="#63b8ff" points="50.5,-160.58 46.5,-154.58 50.5,-148.58 54.5,-154.58 50.5,-160.58"/>
</a>
</g>
<text xml:space="preserve" text-anchor="start" x="53.5" y="-171.5" font-family="Helvetica,sans-Serif" font-size="10.00" fill="grey">&#45;layers_</text>
</g>
<!-- Node3 -->
<g id="Node000003" class="node">
<title>Node3</title>
<g id="a_Node000003"><a xlink:href="$class_layer.html" xlink:title="Fully&#45;connected neural network layer (refactored for SOLID &amp; encapsulation).">
<polygon fill="white" stroke="none" points="94.75,-520 6.25,-520 6.25,-308 94.75,-308 94.75,-520"/>
<text xml:space="preserve" text-anchor="start" x="38.5" y="-506.5" font-family="Helvetica,sans-Serif" font-size="10.00">Layer</text>
<text xml:space="preserve" text-anchor="start" x="11.75" y="-490.5" font-family="Helvetica,sans-Serif" font-size="10.00">&#45;</text>
<text xml:space="preserve" text-anchor="start" x="20.25" y="-490.5" font-family="Helvetica,sans-Serif" font-size="10.00">inputSize_</text>
<text xml:space="preserve" text-anchor="start" x="11.75" y="-474.5" font-family="Helvetica,sans-Serif" font-size="10.00">&#45;</text>
<text xml:space="preserve" text-anchor="start" x="20.25" y="-474.5" font-family="Helvetica,sans-Serif" font-size="10.00">neuronCount_</text>
<text xml:space="preserve" text-anchor="start" x="11.75" y="-458.5" font-family="Helvetica,sans-Serif" font-size="10.00">&#45;</text>
<text xml:space="preserve" text-anchor="start" x="20.25" y="-458.5" font-family="Helvetica,sans-Serif" font-size="10.00">activationFunc_</text>
<text xml:space="preserve" text-anchor="start" x="11.75" y="-442.5" font-family="Helvetica,sans-Serif" font-size="10.00">&#45;</text>
<text xml:space="preserve" text-anchor="start" x="20.25" y="-442.5" font-family="Helvetica,sans-Serif" font-size="10.00">activationDeriv_</text>
<text xml:space="preserve" text-anchor="start" x="10.25" y="-426.5" font-family="Helvetica,sans-Serif" font-size="10.00">+</text>
<text xml:space="preserve" text-anchor="start" x="20.25" y="-426.5" font-family="Helvetica,sans-Serif" font-size="10.00">Layer()</text>
<text xml:space="preserve" text-anchor="start" x="10.25" y="-410.5" font-family="Helvetica,sans-Serif" font-size="10.00">+</text>
<text xml:space="preserve" text-anchor="start" x="20.25" y="-410.5" font-family="Helvetica,sans-Serif" font-size="10.00">forward()</text>
<text xml:space="preserve" text-anchor="start" x="10.25" y="-394.5" font-family="Helvetica,sans-Serif" font-size="10.00">+</text>
<text xml:space="preserve" text-anchor="start" x="20.25" y="-394.5" font-family="Helvetica,sans-Serif" font-size="10.00">backward()</text>
<text xml:space="preserve" text-anchor="start" x="10.25" y="-378.5" font-family="Helvetica,sans-Serif" font-size="10.00">+</text>
<text xml:space="preserve" text-anchor="start" x="20.25" y="-378.5" font-family="Helvetica,sans-Serif" font-size="10.00">output()</text>
<text xml:space="preserve" text-anchor="start" x="10.25" y="-362.5" font-family="Helvetica,sans-Serif" font-size="10.00">+</text>
<text xml:space="preserve" text-anchor="start" x="20.25" y="-362.5" font-family="Helvetica,sans-Serif" font-size="10.00">save()</text>
<text xml:space="preserve" text-anchor="start" x="10.25" y="-346.5" font-family="Helvetica,sans-Serif" font-size="10.00">+</text>
<text xml:space="preserve" text-anchor="start" x="20.25" y="-346.5" font-family="Helvetica,sans-Serif" font-size="10.00">load()</text>
<text xml:space="preserve" text-anchor="start" x="10.25" y="-330.5" font-family="Helvetica,sans-Serif" font-size="10.00">+</text>
<text xml:space="preserve" text-anchor="start" x="20.25" y="-330.5" font-family="Helvetica,sans-Serif" font-size="10.00">inputs()</text>
<text xml:space="preserve" text-anchor="start" x="10.25" y="-314.5" font-family="Helvetica,sans-Serif" font-size="10.00">+</text>
<text xml:space="preserve" text-anchor="start" x="20.25" y="-314.5" font-family="Helvetica,sans-Serif" font-size="10.00">neurons()</text>
<polygon fill="#666666" stroke="#666666" points="6.25,-502 6.25,-502 94.75,-502 94.75,-502 6.25,-502"/>
<polygon fill="#666666" stroke="#666666" points="6.25,-438 6.25,-438 18.25,-438 18.25,-438 6.25,-438"/>
<polygon fill="#666666" stroke="#666666" points="18.25,-438 18.25,-438 94.75,-438 94.75,-438 18.25,-438"/>
<polygon fill="none" stroke="#666666" points="6.25,-308 6.25,-520 94.75,-520 94.75,-308 6.25,-308"/>
</a>
</g>
</g>
<!-- Node3&#45;&gt;Node2 -->
<g id="edge2_Node000002_Node000003" class="edge">
<title>Node3&#45;&gt;Node2</title>
<g id="a_edge2_Node000002_Node000003"><a xlink:title=" ">
<path fill="none" stroke="#63b8ff" d="M50.5,-308.1C50.5,-293.32 50.5,-279 50.5,-266.7"/>
<polygon fill="none" stroke="#63b8ff" points="50.5,-266.64 46.5,-260.64 50.5,-254.64 54.5,-260.64 50.5,-266.64"/>
</a>
</g>
<text xml:space="preserve" text-anchor="start" x="53.5" y="-277.5" font-family="Helvetica,sans-Serif" font-size="10.00" fill="grey">+elements</text>
</g>
<!-- Node4 -->
<g id="Node000004" class="node">
<title>Node4</title>
<g id="a_Node000004"><a xlink:href="$class_matrix.html" xlink:title=" ">
<polygon fill="white" stroke="none" points="91.25,-882 9.75,-882 9.75,-638 91.25,-638 91.25,-882"/>
<text xml:space="preserve" text-anchor="start" x="13.75" y="-868.5" font-family="Helvetica,sans-Serif" font-size="10.00">Matrix&lt; double &gt;</text>
<text xml:space="preserve" text-anchor="start" x="17.44" y="-852.5" font-family="Helvetica,sans-Serif" font-size="10.00">+</text>
<text xml:space="preserve" text-anchor="start" x="31.12" y="-852.5" font-family="Helvetica,sans-Serif" font-size="10.00">rows</text>
<text xml:space="preserve" text-anchor="start" x="17.44" y="-836.5" font-family="Helvetica,sans-Serif" font-size="10.00">+</text>
<text xml:space="preserve" text-anchor="start" x="31.12" y="-836.5" font-family="Helvetica,sans-Serif" font-size="10.00">cols</text>
<text xml:space="preserve" text-anchor="start" x="17.44" y="-820.5" font-family="Helvetica,sans-Serif" font-size="10.00">+</text>
<text xml:space="preserve" text-anchor="start" x="31.12" y="-820.5" font-family="Helvetica,sans-Serif" font-size="10.00">Matrix()</text>
<text xml:space="preserve" text-anchor="start" x="17.44" y="-804.5" font-family="Helvetica,sans-Serif" font-size="10.00">+</text>
<text xml:space="preserve" text-anchor="start" x="31.12" y="-804.5" font-family="Helvetica,sans-Serif" font-size="10.00">operator()()</text>
<text xml:space="preserve" text-anchor="start" x="17.44" y="-788.5" font-family="Helvetica,sans-Serif" font-size="10.00">+</text>
<text xml:space="preserve" text-anchor="start" x="31.12" y="-788.5" font-family="Helvetica,sans-Serif" font-size="10.00">dataPtr()</text>
<text xml:space="preserve" text-anchor="start" x="17.44" y="-772.5" font-family="Helvetica,sans-Serif" font-size="10.00">+</text>
<text xml:space="preserve" text-anchor="start" x="31.12" y="-772.5" font-family="Helvetica,sans-Serif" font-size="10.00">apply()</text>
<text xml:space="preserve" text-anchor="start" x="17.44" y="-756.5" font-family="Helvetica,sans-Serif" font-size="10.00">+</text>
<text xml:space="preserve" text-anchor="start" x="31.12" y="-756.5" font-family="Helvetica,sans-Serif" font-size="10.00">hadamard()</text>
<text xml:space="preserve" text-anchor="start" x="17.44" y="-740.5" font-family="Helvetica,sans-Serif" font-size="10.00">+</text>
<text xml:space="preserve" text-anchor="start" x="31.12" y="-740.5" font-family="Helvetica,sans-Serif" font-size="10.00">operator+()</text>
<text xml:space="preserve" text-anchor="start" x="17.44" y="-724.5" font-family="Helvetica,sans-Serif" font-size="10.00">+</text>
<text xml:space="preserve" text-anchor="start" x="31.12" y="-724.5" font-family="Helvetica,sans-Serif" font-size="10.00">operator&#45;()</text>
<text xml:space="preserve" text-anchor="start" x="17.44" y="-708.5" font-family="Helvetica,sans-Serif" font-size="10.00">+</text>
<text xml:space="preserve" text-anchor="start" x="31.12" y="-708.5" font-family="Helvetica,sans-Serif" font-size="10.00">operator*()</text>
<text xml:space="preserve" text-anchor="start" x="17.44" y="-692.5" font-family="Helvetica,sans-Serif" font-size="10.00">+</text>
<text xml:space="preserve" text-anchor="start" x="31.12" y="-692.5" font-family="Helvetica,sans-Serif" font-size="10.00">transpose()</text>
<text xml:space="preserve" text-anchor="start" x="17.44" y="-676.5" font-family="Helvetica,sans-Serif" font-size="10.00">+</text>
<text xml:space="preserve" text-anchor="start" x="31.12" y="-676.5" font-family="Helvetica,sans-Serif" font-size="10.00">resize()</text>
<text xml:space="preserve" text-anchor="start" x="17.44" y="-660.5" font-family="Helvetica,sans-Serif" font-size="10.00">+</text>
<text xml:space="preserve" text-anchor="start" x="31.12" y="-660.5" font-family="Helvetica,sans-Serif" font-size="10.00">random()</text>
<text xml:space="preserve" text-anchor="start" x="17.44" y="-644.5" font-family="Helvetica,sans-Serif" font-size="10.00">+</text>
<text xml:space="preserve" text-anchor="start" x="31.12" y="-644.5" font-family="Helvetica,sans-Serif" font-size="10.00">multiply()</text>
<polygon fill="#666666" stroke="#666666" points="9.75,-864 9.75,-864 91.25,-864 91.25,-864 9.75,-864"/>
<polygon fill="#666666" stroke="#666666" points="9.75,-832 9.75,-832 29.12,-832 29.12,-832 9.75,-832"/>
<polygon fill="#666666" stroke="#666666" points="29.12,-832 29.12,-832 91.25,-832 91.25,-832 29.12,-832"/>
<polygon fill="none" stroke="#666666" points="9.75,-638 9.75,-882 91.25,-882 91.25,-638 9.75,-638"/>
</a>
</g>
</g>
<!-- Node4&#45;&gt;Node3 -->
<g id="edge3_Node000003_Node000004" class="edge">
<title>Node4&#45;&gt;Node3</title>
<g id="a_edge3_Node000003_Node000004"><a xlink:title=" ">
<path fill="none" stroke="#63b8ff" d="M50.5,-638.2C50.5,-603.96 50.5,-566.73 50.5,-532.67"/>
<polygon fill="none" stroke="#63b8ff" points="50.5,-532.69 46.5,-526.69 50.5,-520.69 54.5,-526.69 50.5,-532.69"/>
</a>
</g>
<text xml:space="preserve" text-anchor="start" x="53.5" y="-607.5" font-family="Helvetica,sans-Serif" font-size="10.00" fill="grey">&#45;A_</text>
<text xml:space="preserve" text-anchor="start" x="53.5" y="-591.5" font-family="Helvetica,sans-Serif" font-size="10.00" fill="grey">&#45;B_</text>
<text xml:space="preserve" text-anchor="start" x="53.5" y="-575.5" font-family="Helvetica,sans-Serif" font-size="10.00" fill="grey">&#45;W_</text>
<text xml:space="preserve" text-anchor="start" x="53.5" y="-559.5" font-family="Helvetica,sans-Serif" font-size="10.00" fill="grey">&#45;Z_</text>
<text xml:space="preserve" text-anchor="start" x="53.5" y="-543.5" font-family="Helvetica,sans-Serif" font-size="10.00" fill="grey">&#45;lastInput_</text>
</g>
<!-- Node5 -->
<g id="Node000005" class="node">
<title>Node5</title>
<g id="a_Node000005"><a xlink:title=" ">
<polygon fill="white" stroke="none" points="101,-988 0,-988 0,-936 101,-936 101,-988"/>
<text xml:space="preserve" text-anchor="start" x="4" y="-974.5" font-family="Helvetica,sans-Serif" font-size="10.00">std::vector&lt; double &gt;</text>
<text xml:space="preserve" text-anchor="start" x="14.81" y="-958.5" font-family="Helvetica,sans-Serif" font-size="10.00">+</text>
<text xml:space="preserve" text-anchor="start" x="35.62" y="-958.5" font-family="Helvetica,sans-Serif" font-size="10.00">elements</text>
<text xml:space="preserve" text-anchor="start" x="49" y="-942.5" font-family="Helvetica,sans-Serif" font-size="10.00"> </text>
<polygon fill="#666666" stroke="#666666" points="0,-970 0,-970 101,-970 101,-970 0,-970"/>
<polygon fill="#666666" stroke="#666666" points="0,-954 0,-954 33.62,-954 33.62,-954 0,-954"/>
<polygon fill="#666666" stroke="#666666" points="33.62,-954 33.62,-954 101,-954 101,-954 33.62,-954"/>
<polygon fill="none" stroke="#666666" points="0,-936 0,-988 101,-988 101,-936 0,-936"/>
</a>
</g>
</g>
<!-- Node5&#45;&gt;Node4 -->
<g id="edge4_Node000004_Node000005" class="edge">
<title>Node5&#45;&gt;Node4</title>
<g id="a_edge4_Node000004_Node000005"><a xlink:title=" ">
<path fill="none" stroke="#63b8ff" d="M50.5,-936.07C50.5,-924.67 50.5,-910.2 50.5,-894.48"/>
<polygon fill="none" stroke="#63b8ff" points="50.5,-894.54 46.5,-888.54 50.5,-882.54 54.5,-888.54 50.5,-894.54"/>
</a>
</g>
<text xml:space="preserve" text-anchor="start" x="53.5" y="-905.5" font-family="Helvetica,sans-Serif" font-size="10.00" fill="grey">+data</text>
</g>
</g>
</svg>
