<?xml version="1.0" encoding="UTF-8" standalone="no"?>
<!DOCTYPE svg PUBLIC "-//W3C//DTD SVG 1.1//EN"
 "http://www.w3.org/Graphics/SVG/1.1/DTD/svg11.dtd">
<!-- Generated by graphviz version 14.0.2 (20251019.1705)
 -->
<!-- Title: Word_XO_UI::Word_XO_UI Pages: 1 -->
<svg width="298pt" height="78pt"
 viewBox="0.00 0.00 298.00 78.00" xmlns="http://www.w3.org/2000/svg" xmlns:xlink="http://www.w3.org/1999/xlink">
<g id="graph0" class="graph" transform="scale(1 1) rotate(0) translate(4 74)">
<title>Word_XO_UI::Word_XO_UI</title>
<!-- Node1 -->
<g id="Node000001" class="node">
<title>Node1</title>
<g id="a_Node000001"><a xlink:title="Construct the UI.">
<polygon fill="#999999" stroke="#666666" points="137.5,-42 0,-42 0,-22 137.5,-22 137.5,-42"/>
<text xml:space="preserve" text-anchor="middle" x="68.75" y="-28.5" font-family="Helvetica,sans-Serif" font-size="10.00">Word_XO_UI::Word_XO_UI</text>
</a>
</g>
</g>
<!-- Node2 -->
<g id="Node000002" class="node">
<title>Node2</title>
<g id="a_Node000002"><a xlink:href="class_custom___u_i.html#a2c29c8de3af071eef76c43e972eca565" target="_top" xlink:title=" ">
<polygon fill="white" stroke="#666666" points="286.25,-70 177.25,-70 177.25,-38 286.25,-38 286.25,-70"/>
<text xml:space="preserve" text-anchor="start" x="185.25" y="-56.5" font-family="Helvetica,sans-Serif" font-size="10.00">Custom_UI&lt; char &gt;::</text>
<text xml:space="preserve" text-anchor="middle" x="231.75" y="-44.5" font-family="Helvetica,sans-Serif" font-size="10.00">Custom_UI</text>
</a>
</g>
</g>
<!-- Node1&#45;&gt;Node2 -->
<g id="edge1_Node000001_Node000002" class="edge">
<title>Node1&#45;&gt;Node2</title>
<g id="a_edge1_Node000001_Node000002"><a xlink:title=" ">
<path fill="none" stroke="#63b8ff" d="M137.56,-41.27C146.97,-42.55 156.62,-43.87 165.97,-45.15"/>
<polygon fill="#63b8ff" stroke="#63b8ff" points="165.31,-48.59 175.69,-46.48 166.26,-41.66 165.31,-48.59"/>
</a>
</g>
</g>
<!-- Node3 -->
<g id="Node000003" class="node">
<title>Node3</title>
<g id="a_Node000003"><a xlink:href="class_word___x_o___u_i.html#aa7b334632e44e14f71dff4a733fff232" target="_top" xlink:title="Evaluate potential characters for a board position.">
<polygon fill="white" stroke="#666666" points="290,-20 173.5,-20 173.5,0 290,0 290,-20"/>
<text xml:space="preserve" text-anchor="middle" x="231.75" y="-6.5" font-family="Helvetica,sans-Serif" font-size="10.00">Word_XO_UI::evaluate</text>
</a>
</g>
</g>
<!-- Node1&#45;&gt;Node3 -->
<g id="edge2_Node000001_Node000003" class="edge">
<title>Node1&#45;&gt;Node3</title>
<g id="a_edge2_Node000001_Node000003"><a xlink:title=" ">
<path fill="none" stroke="#63b8ff" d="M137.56,-22.73C145.62,-21.63 153.86,-20.51 161.93,-19.4"/>
<polygon fill="#63b8ff" stroke="#63b8ff" points="162.27,-22.89 171.71,-18.07 161.32,-15.95 162.27,-22.89"/>
</a>
</g>
</g>
</g>
</svg>
