<?xml version="1.0" encoding="UTF-8" standalone="no"?>
<!DOCTYPE svg PUBLIC "-//W3C//DTD SVG 1.1//EN"
 "http://www.w3.org/Graphics/SVG/1.1/DTD/svg11.dtd">
<!-- Generated by graphviz version 14.0.2 (20251019.1705)
 -->
<!-- Title: FOUR_Board::update_board Pages: 1 -->
<svg width="251pt" height="66pt"
 viewBox="0.00 0.00 251.00 66.00" xmlns="http://www.w3.org/2000/svg" xmlns:xlink="http://www.w3.org/1999/xlink">
<g id="graph0" class="graph" transform="scale(1 1) rotate(0) translate(4 62)">
<title>FOUR_Board::update_board</title>
<!-- Node1 -->
<g id="Node000001" class="node">
<title>Node1</title>
<g id="a_Node000001"><a xlink:title="Updates the board with the given move.">
<polygon fill="#999999" stroke="#666666" points="110.5,-45 0,-45 0,-13 110.5,-13 110.5,-45"/>
<text xml:space="preserve" text-anchor="start" x="8" y="-31.5" font-family="Helvetica,sans-Serif" font-size="10.00">FOUR_Board::update</text>
<text xml:space="preserve" text-anchor="middle" x="55.25" y="-19.5" font-family="Helvetica,sans-Serif" font-size="10.00">_board</text>
</a>
</g>
</g>
<!-- Node2 -->
<g id="Node000002" class="node">
<title>Node2</title>
<g id="a_Node000002"><a xlink:href="$class_move.html#a595bf740852c05a1cb425ef2640fd4ff" xlink:title="Get the move symbol.">
<polygon fill="white" stroke="#666666" points="242.75,-58 146.5,-58 146.5,-38 242.75,-38 242.75,-58"/>
<text xml:space="preserve" text-anchor="middle" x="194.62" y="-44.5" font-family="Helvetica,sans-Serif" font-size="10.00">Move::get_symbol</text>
</a>
</g>
</g>
<!-- Node1&#45;&gt;Node2 -->
<g id="edge1_Node000001_Node000002" class="edge">
<title>Node1&#45;&gt;Node2</title>
<g id="a_edge1_Node000001_Node000002"><a xlink:title=" ">
<path fill="none" stroke="#63b8ff" d="M110.94,-36.56C118.87,-37.66 127.07,-38.79 135.07,-39.9"/>
<polygon fill="#63b8ff" stroke="#63b8ff" points="134.33,-43.33 144.72,-41.24 135.29,-36.4 134.33,-43.33"/>
</a>
</g>
</g>
<!-- Node3 -->
<g id="Node000003" class="node">
<title>Node3</title>
<g id="a_Node000003"><a xlink:href="$class_move.html#a96469802a55c9083a1e93c7edec8a00c" xlink:title="Get column index.">
<polygon fill="white" stroke="#666666" points="229.62,-20 159.62,-20 159.62,0 229.62,0 229.62,-20"/>
<text xml:space="preserve" text-anchor="middle" x="194.62" y="-6.5" font-family="Helvetica,sans-Serif" font-size="10.00">Move::get_y</text>
</a>
</g>
</g>
<!-- Node1&#45;&gt;Node3 -->
<g id="edge2_Node000001_Node000003" class="edge">
<title>Node1&#45;&gt;Node3</title>
<g id="a_edge2_Node000001_Node000003"><a xlink:title=" ">
<path fill="none" stroke="#63b8ff" d="M110.94,-21.44C123.3,-19.73 136.29,-17.93 148.22,-16.28"/>
<polygon fill="#63b8ff" stroke="#63b8ff" points="148.35,-19.79 157.78,-14.96 147.39,-12.86 148.35,-19.79"/>
</a>
</g>
</g>
</g>
</svg>
