<?xml version="1.0" encoding="UTF-8" standalone="no"?>
<!DOCTYPE svg PUBLIC "-//W3C//DTD SVG 1.1//EN"
 "http://www.w3.org/Graphics/SVG/1.1/DTD/svg11.dtd">
<!-- Generated by graphviz version 14.0.2 (20251019.1705)
 -->
<!-- Title: Word_XO_UI::get_move Pages: 1 -->
<svg width="321pt" height="218pt"
 viewBox="0.00 0.00 321.00 218.00" xmlns="http://www.w3.org/2000/svg" xmlns:xlink="http://www.w3.org/1999/xlink">
<g id="graph0" class="graph" transform="scale(1 1) rotate(0) translate(4 214)">
<title>Word_XO_UI::get_move</title>
<!-- Node1 -->
<g id="Node000001" class="node">
<title>Node1</title>
<g id="a_Node000001"><a xlink:title="Get the next move from a player.">
<polygon fill="#999999" stroke="#666666" points="122.5,-115 0,-115 0,-95 122.5,-95 122.5,-115"/>
<text xml:space="preserve" text-anchor="middle" x="61.25" y="-101.5" font-family="Helvetica,sans-Serif" font-size="10.00">Word_XO_UI::get_move</text>
</a>
</g>
</g>
<!-- Node2 -->
<g id="Node000002" class="node">
<title>Node2</title>
<g id="a_Node000002"><a xlink:href="class_a_i.html#aaf1bf68e14319d295ffb34e6740a30ea" target="_top" xlink:title="Determines the optimal move using minimax.">
<polygon fill="white" stroke="#666666" points="273.12,-210 198.62,-210 198.62,-190 273.12,-190 273.12,-210"/>
<text xml:space="preserve" text-anchor="middle" x="235.88" y="-196.5" font-family="Helvetica,sans-Serif" font-size="10.00">AI::bestMove</text>
</a>
</g>
</g>
<!-- Node1&#45;&gt;Node2 -->
<g id="edge1_Node000001_Node000002" class="edge">
<title>Node1&#45;&gt;Node2</title>
<g id="a_edge1_Node000001_Node000002"><a xlink:title=" ">
<path fill="none" stroke="#63b8ff" d="M72.19,-115.29C88.62,-131.69 123.14,-163.65 158.5,-181 167.5,-185.42 177.62,-188.86 187.47,-191.53"/>
<polygon fill="#63b8ff" stroke="#63b8ff" points="186.39,-194.87 196.94,-193.86 188.07,-188.07 186.39,-194.87"/>
</a>
</g>
</g>
<!-- Node3 -->
<g id="Node000003" class="node">
<title>Node3</title>
<g id="a_Node000003"><a xlink:href="class_player.html#a508617eddfae8915d098102d480fc888" target="_top" xlink:title="Get a pointer to the game board.">
<polygon fill="white" stroke="#666666" points="290.38,-172 181.38,-172 181.38,-152 290.38,-152 290.38,-172"/>
<text xml:space="preserve" text-anchor="middle" x="235.88" y="-158.5" font-family="Helvetica,sans-Serif" font-size="10.00">Player::get_board_ptr</text>
</a>
</g>
</g>
<!-- Node1&#45;&gt;Node3 -->
<g id="edge2_Node000001_Node000003" class="edge">
<title>Node1&#45;&gt;Node3</title>
<g id="a_edge2_Node000001_Node000003"><a xlink:title=" ">
<path fill="none" stroke="#63b8ff" d="M86.06,-115.42C105.35,-123.61 133.35,-134.95 158.5,-143 164.67,-144.98 171.17,-146.87 177.67,-148.65"/>
<polygon fill="#63b8ff" stroke="#63b8ff" points="176.53,-151.97 187.09,-151.13 178.32,-145.2 176.53,-151.97"/>
</a>
</g>
</g>
<!-- Node4 -->
<g id="Node000004" class="node">
<title>Node4</title>
<g id="a_Node000004"><a xlink:href="class_player.html#aed2af19790ba73190e3ebeea589518e1" target="_top" xlink:title="Get the player&#39;s name.">
<polygon fill="white" stroke="#666666" points="282.12,-134 189.62,-134 189.62,-114 282.12,-114 282.12,-134"/>
<text xml:space="preserve" text-anchor="middle" x="235.88" y="-120.5" font-family="Helvetica,sans-Serif" font-size="10.00">Player::get_name</text>
</a>
</g>
</g>
<!-- Node1&#45;&gt;Node4 -->
<g id="edge3_Node000001_Node000004" class="edge">
<title>Node1&#45;&gt;Node4</title>
<g id="a_edge3_Node000001_Node000004"><a xlink:title=" ">
<path fill="none" stroke="#63b8ff" d="M122.63,-111.65C140.57,-113.62 160.17,-115.78 177.89,-117.73"/>
<polygon fill="#63b8ff" stroke="#63b8ff" points="177.4,-121.2 187.72,-118.81 178.17,-114.24 177.4,-121.2"/>
</a>
</g>
</g>
<!-- Node5 -->
<g id="Node000005" class="node">
<title>Node5</title>
<g id="a_Node000005"><a xlink:href="class_player.html#af56f0bf98c0423a3a75b0848607d03a4" target="_top" xlink:title="Get the player&#39;s symbol.">
<polygon fill="white" stroke="#666666" points="285.88,-96 185.88,-96 185.88,-76 285.88,-76 285.88,-96"/>
<text xml:space="preserve" text-anchor="middle" x="235.88" y="-82.5" font-family="Helvetica,sans-Serif" font-size="10.00">Player::get_symbol</text>
</a>
</g>
</g>
<!-- Node1&#45;&gt;Node5 -->
<g id="edge4_Node000001_Node000005" class="edge">
<title>Node1&#45;&gt;Node5</title>
<g id="a_edge4_Node000001_Node000005"><a xlink:title=" ">
<path fill="none" stroke="#63b8ff" d="M122.63,-98.35C139.29,-96.52 157.39,-94.53 174.08,-92.69"/>
<polygon fill="#63b8ff" stroke="#63b8ff" points="174.31,-96.19 183.87,-91.61 173.55,-89.23 174.31,-96.19"/>
</a>
</g>
</g>
<!-- Node6 -->
<g id="Node000006" class="node">
<title>Node6</title>
<g id="a_Node000006"><a xlink:href="class_player.html#a2df3bd299bf7aecfa2275ec6902a60f8" target="_top" xlink:title="Get player type (e.g., &#39;H&#39; or &#39;C&#39;).">
<polygon fill="white" stroke="#666666" points="279.5,-58 192.25,-58 192.25,-38 279.5,-38 279.5,-58"/>
<text xml:space="preserve" text-anchor="middle" x="235.88" y="-44.5" font-family="Helvetica,sans-Serif" font-size="10.00">Player::get_type</text>
</a>
</g>
</g>
<!-- Node1&#45;&gt;Node6 -->
<g id="edge5_Node000001_Node000006" class="edge">
<title>Node1&#45;&gt;Node6</title>
<g id="a_edge5_Node000001_Node000006"><a xlink:title=" ">
<path fill="none" stroke="#63b8ff" d="M86.06,-94.58C105.35,-86.39 133.35,-75.05 158.5,-67 165.67,-64.7 173.29,-62.52 180.84,-60.5"/>
<polygon fill="#63b8ff" stroke="#63b8ff" points="181.51,-63.94 190.31,-58.04 179.75,-57.16 181.51,-63.94"/>
</a>
</g>
</g>
<!-- Node7 -->
<g id="Node000007" class="node">
<title>Node7</title>
<g id="a_Node000007"><a xlink:href="class_word___x_o___board.html#ae2c43317ae2762748182e746c245fa68" target="_top" xlink:title="Set the last player who moved.">
<polygon fill="white" stroke="#666666" points="313.25,-20 158.5,-20 158.5,0 313.25,0 313.25,-20"/>
<text xml:space="preserve" text-anchor="middle" x="235.88" y="-6.5" font-family="Helvetica,sans-Serif" font-size="10.00">Word_XO_Board::setLastPlayer</text>
</a>
</g>
</g>
<!-- Node1&#45;&gt;Node7 -->
<g id="edge6_Node000001_Node000007" class="edge">
<title>Node1&#45;&gt;Node7</title>
<g id="a_edge6_Node000001_Node000007"><a xlink:title=" ">
<path fill="none" stroke="#63b8ff" d="M72.19,-94.71C88.62,-78.31 123.14,-46.35 158.5,-29 162.04,-27.26 165.76,-25.67 169.56,-24.23"/>
<polygon fill="#63b8ff" stroke="#63b8ff" points="170.68,-27.54 179.01,-20.99 168.42,-20.92 170.68,-27.54"/>
</a>
</g>
</g>
</g>
</svg>
