<?xml version="1.0" encoding="UTF-8" standalone="no"?>
<!DOCTYPE svg PUBLIC "-//W3C//DTD SVG 1.1//EN"
 "http://www.w3.org/Graphics/SVG/1.1/DTD/svg11.dtd">
<!-- Generated by graphviz version 14.0.2 (20251019.1705)
 -->
<!-- Title: SUS_AI::minimax Pages: 1 -->
<svg width="386pt" height="123pt"
 viewBox="0.00 0.00 386.00 123.00" xmlns="http://www.w3.org/2000/svg" xmlns:xlink="http://www.w3.org/1999/xlink">
<g id="graph0" class="graph" transform="scale(1 1) rotate(0) translate(4 119)">
<title>SUS_AI::minimax</title>
<!-- Node1 -->
<g id="Node000001" class="node">
<title>Node1</title>
<g id="a_Node000001"><a xlink:title="Minimax with alpha&#45;beta pruning.">
<polygon fill="#999999" stroke="#666666" points="94.75,-77 0,-77 0,-57 94.75,-57 94.75,-77"/>
<text xml:space="preserve" text-anchor="middle" x="47.38" y="-63.5" font-family="Helvetica,sans-Serif" font-size="10.00">SUS_AI::minimax</text>
</a>
</g>
</g>
<!-- Node1&#45;&gt;Node1 -->
<g id="edge8_Node000001_Node000001" class="edge">
<title>Node1&#45;&gt;Node1</title>
<g id="a_edge8_Node000001_Node000001"><a xlink:title=" ">
<path fill="none" stroke="#63b8ff" d="M25.29,-77.34C15.85,-85.98 23.21,-95 47.38,-95 60.59,-95 68.78,-92.3 71.94,-88.44"/>
<polygon fill="#63b8ff" stroke="#63b8ff" points="75.39,-87.81 69.79,-78.82 68.56,-89.34 75.39,-87.81"/>
</a>
</g>
</g>
<!-- Node2 -->
<g id="Node000002" class="node">
<title>Node2</title>
<g id="a_Node000002"><a xlink:href="class_s_u_s___a_i.html#a917f6a59b1707de463bfcaad41f0d560" target="_top" xlink:title="Evaluates the board state for the given player.">
<polygon fill="white" stroke="#666666" points="233.75,-96 139,-96 139,-76 233.75,-76 233.75,-96"/>
<text xml:space="preserve" text-anchor="middle" x="186.38" y="-82.5" font-family="Helvetica,sans-Serif" font-size="10.00">SUS_AI::evaluate</text>
</a>
</g>
</g>
<!-- Node1&#45;&gt;Node2 -->
<g id="edge1_Node000001_Node000002" class="edge">
<title>Node1&#45;&gt;Node2</title>
<g id="a_edge1_Node000001_Node000002"><a xlink:title=" ">
<path fill="none" stroke="#63b8ff" d="M95.14,-73.49C105.61,-74.94 116.84,-76.49 127.69,-78"/>
<polygon fill="#63b8ff" stroke="#63b8ff" points="126.94,-81.43 137.32,-79.34 127.9,-74.5 126.94,-81.43"/>
</a>
</g>
</g>
<!-- Node4 -->
<g id="Node000004" class="node">
<title>Node4</title>
<g id="a_Node000004"><a xlink:href="class_player.html#af56f0bf98c0423a3a75b0848607d03a4" target="_top" xlink:title="Get the player&#39;s symbol.">
<polygon fill="white" stroke="#666666" points="378,-115 278,-115 278,-95 378,-95 378,-115"/>
<text xml:space="preserve" text-anchor="middle" x="328" y="-101.5" font-family="Helvetica,sans-Serif" font-size="10.00">Player::get_symbol</text>
</a>
</g>
</g>
<!-- Node1&#45;&gt;Node4 -->
<g id="edge5_Node000001_Node000004" class="edge">
<title>Node1&#45;&gt;Node4</title>
<g id="a_edge5_Node000001_Node000004"><a xlink:title=" ">
<path fill="none" stroke="#63b8ff" d="M65.28,-77.45C81.41,-86.77 106.75,-99.73 130.75,-105 175.33,-114.79 226.99,-114.33 266.12,-111.67"/>
<polygon fill="#63b8ff" stroke="#63b8ff" points="266.36,-115.16 276.07,-110.92 265.83,-108.18 266.36,-115.16"/>
</a>
</g>
</g>
<!-- Node5 -->
<g id="Node000005" class="node">
<title>Node5</title>
<g id="a_Node000005"><a xlink:href="class_player.html#a508617eddfae8915d098102d480fc888" target="_top" xlink:title="Get a pointer to the game board.">
<polygon fill="white" stroke="#666666" points="240.88,-58 131.88,-58 131.88,-38 240.88,-38 240.88,-58"/>
<text xml:space="preserve" text-anchor="middle" x="186.38" y="-44.5" font-family="Helvetica,sans-Serif" font-size="10.00">Player::get_board_ptr</text>
</a>
</g>
</g>
<!-- Node1&#45;&gt;Node5 -->
<g id="edge4_Node000001_Node000005" class="edge">
<title>Node1&#45;&gt;Node5</title>
<g id="a_edge4_Node000001_Node000005"><a xlink:title=" ">
<path fill="none" stroke="#63b8ff" d="M95.14,-60.51C103.33,-59.38 111.99,-58.18 120.56,-56.99"/>
<polygon fill="#63b8ff" stroke="#63b8ff" points="120.83,-60.49 130.25,-55.64 119.87,-53.55 120.83,-60.49"/>
</a>
</g>
</g>
<!-- Node6 -->
<g id="Node000006" class="node">
<title>Node6</title>
<g id="a_Node000006"><a xlink:href="class_s_u_s___a_i.html#a223660856952277e2a8323ffb790bc53" target="_top" xlink:title="Checks if any empty cells remain.">
<polygon fill="white" stroke="#666666" points="242,-20 130.75,-20 130.75,0 242,0 242,-20"/>
<text xml:space="preserve" text-anchor="middle" x="186.38" y="-6.5" font-family="Helvetica,sans-Serif" font-size="10.00">SUS_AI::isMovesLeft</text>
</a>
</g>
</g>
<!-- Node1&#45;&gt;Node6 -->
<g id="edge6_Node000001_Node000006" class="edge">
<title>Node1&#45;&gt;Node6</title>
<g id="a_edge6_Node000001_Node000006"><a xlink:title=" ">
<path fill="none" stroke="#63b8ff" d="M69.46,-56.58C85.96,-48.6 109.57,-37.54 130.75,-29 134.66,-27.42 138.75,-25.85 142.87,-24.33"/>
<polygon fill="#63b8ff" stroke="#63b8ff" points="144.05,-27.62 152.27,-20.94 141.68,-21.04 144.05,-27.62"/>
</a>
</g>
</g>
<!-- Node3 -->
<g id="Node000003" class="node">
<title>Node3</title>
<g id="a_Node000003"><a xlink:href="class_board.html#a93558c58e60ca4291c6044828afd260b" target="_top" xlink:title="Return content of cell x, y in current board.">
<polygon fill="white" stroke="#666666" points="368.62,-39 287.38,-39 287.38,-19 368.62,-19 368.62,-39"/>
<text xml:space="preserve" text-anchor="middle" x="328" y="-25.5" font-family="Helvetica,sans-Serif" font-size="10.00">Board::get_cell</text>
</a>
</g>
</g>
<!-- Node2&#45;&gt;Node3 -->
<g id="edge2_Node000002_Node000003" class="edge">
<title>Node2&#45;&gt;Node3</title>
<g id="a_edge2_Node000002_Node000003"><a xlink:title=" ">
<path fill="none" stroke="#63b8ff" d="M219.03,-75.51C226.6,-72.85 234.63,-69.92 242,-67 259.7,-59.98 279.11,-51.37 294.91,-44.13"/>
<polygon fill="#63b8ff" stroke="#63b8ff" points="296.23,-47.37 303.83,-40 293.29,-41.02 296.23,-47.37"/>
</a>
</g>
</g>
<!-- Node2&#45;&gt;Node4 -->
<g id="edge3_Node000002_Node000004" class="edge">
<title>Node2&#45;&gt;Node4</title>
<g id="a_edge3_Node000002_Node000004"><a xlink:title=" ">
<path fill="none" stroke="#63b8ff" d="M233.87,-92.33C244.35,-93.75 255.62,-95.29 266.58,-96.78"/>
<polygon fill="#63b8ff" stroke="#63b8ff" points="265.96,-100.23 276.34,-98.11 266.9,-93.29 265.96,-100.23"/>
</a>
</g>
</g>
<!-- Node6&#45;&gt;Node3 -->
<g id="edge7_Node000006_Node000003" class="edge">
<title>Node6&#45;&gt;Node3</title>
<g id="a_edge7_Node000006_Node000003"><a xlink:title=" ">
<path fill="none" stroke="#63b8ff" d="M242.16,-17.45C253.27,-18.97 264.92,-20.55 275.9,-22.05"/>
<polygon fill="#63b8ff" stroke="#63b8ff" points="275.17,-25.48 285.55,-23.36 276.11,-18.54 275.17,-25.48"/>
</a>
</g>
</g>
</g>
</svg>
