<?xml version="1.0" encoding="UTF-8" standalone="no"?>
<!DOCTYPE svg PUBLIC "-//W3C//DTD SVG 1.1//EN"
 "http://www.w3.org/Graphics/SVG/1.1/DTD/svg11.dtd">
<!-- Generated by graphviz version 14.0.2 (20251019.1705)
 -->
<!-- Title: Layer::forward Pages: 1 -->
<svg width="317pt" height="28pt"
 viewBox="0.00 0.00 317.00 28.00" xmlns="http://www.w3.org/2000/svg" xmlns:xlink="http://www.w3.org/1999/xlink">
<g id="graph0" class="graph" transform="scale(1 1) rotate(0) translate(4 24)">
<title>Layer::forward</title>
<!-- Node1 -->
<g id="Node000001" class="node">
<title>Node1</title>
<g id="a_Node000001"><a xlink:title="Perform forward propagation through this layer.">
<polygon fill="#999999" stroke="#666666" points="78.25,-20 0,-20 0,0 78.25,0 78.25,-20"/>
<text xml:space="preserve" text-anchor="middle" x="39.12" y="-6.5" font-family="Helvetica,sans-Serif" font-size="10.00">Layer::forward</text>
</a>
</g>
</g>
<!-- Node2 -->
<g id="Node000002" class="node">
<title>Node2</title>
<g id="a_Node000002"><a xlink:href="class_matrix.html#a79fa5a3893939d8b399f86c6c1ff15a7" target="_top" xlink:title="Multiply preallocated matrices without allocations.">
<polygon fill="white" stroke="#666666" points="197,-20 114.25,-20 114.25,0 197,0 197,-20"/>
<text xml:space="preserve" text-anchor="middle" x="155.62" y="-6.5" font-family="Helvetica,sans-Serif" font-size="10.00">Matrix::multiply</text>
</a>
</g>
</g>
<!-- Node1&#45;&gt;Node2 -->
<g id="edge1_Node000001_Node000002" class="edge">
<title>Node1&#45;&gt;Node2</title>
<g id="a_edge1_Node000001_Node000002"><a xlink:title=" ">
<path fill="none" stroke="#63b8ff" d="M78.57,-10C86.34,-10 94.63,-10 102.78,-10"/>
<polygon fill="#63b8ff" stroke="#63b8ff" points="102.61,-13.5 112.61,-10 102.61,-6.5 102.61,-13.5"/>
</a>
</g>
</g>
<!-- Node3 -->
<g id="Node000003" class="node">
<title>Node3</title>
<g id="a_Node000003"><a xlink:href="class_matrix.html#a500ba010dab4b9ee8e0d1b6f73fcd926" target="_top" xlink:title="Construct a matrix of size (rows x cols).">
<polygon fill="white" stroke="#666666" points="309,-20 233,-20 233,0 309,0 309,-20"/>
<text xml:space="preserve" text-anchor="middle" x="271" y="-6.5" font-family="Helvetica,sans-Serif" font-size="10.00">Matrix::Matrix</text>
</a>
</g>
</g>
<!-- Node2&#45;&gt;Node3 -->
<g id="edge2_Node000002_Node000003" class="edge">
<title>Node2&#45;&gt;Node3</title>
<g id="a_edge2_Node000002_Node000003"><a xlink:title=" ">
<path fill="none" stroke="#63b8ff" d="M197.24,-10C205.01,-10 213.21,-10 221.21,-10"/>
<polygon fill="#63b8ff" stroke="#63b8ff" points="221.18,-13.5 231.18,-10 221.18,-6.5 221.18,-13.5"/>
</a>
</g>
</g>
</g>
</svg>
