<?xml version="1.0" encoding="UTF-8" standalone="no"?>
<!DOCTYPE svg PUBLIC "-//W3C//DTD SVG 1.1//EN"
 "http://www.w3.org/Graphics/SVG/1.1/DTD/svg11.dtd">
<!-- Generated by graphviz version 14.0.2 (20251019.1705)
 -->
<!-- Title: Player::get_name Pages: 1 -->
<svg width="340pt" height="370pt"
 viewBox="0.00 0.00 340.00 370.00" xmlns="http://www.w3.org/2000/svg" xmlns:xlink="http://www.w3.org/1999/xlink">
<g id="graph0" class="graph" transform="scale(1 1) rotate(0) translate(4 366)">
<title>Player::get_name</title>
<!-- Node1 -->
<g id="Node000001" class="node">
<title>Node1</title>
<g id="a_Node000001"><a xlink:title="Get the player&#39;s name.">
<polygon fill="#999999" stroke="#666666" points="332.25,-191 239.75,-191 239.75,-171 332.25,-171 332.25,-191"/>
<text xml:space="preserve" text-anchor="middle" x="286" y="-177.5" font-family="Helvetica,sans-Serif" font-size="10.00">Player::get_name</text>
</a>
</g>
</g>
<!-- Node2 -->
<g id="Node000002" class="node">
<title>Node2</title>
<g id="a_Node000002"><a xlink:href="class__4by4_x_o___u_i.html#adac352a59d82ec4c84219a2ee25bda3a" target="_top" xlink:title="Gets move input from human or AI.">
<polygon fill="white" stroke="#666666" points="198.88,-362 77.88,-362 77.88,-342 198.88,-342 198.88,-362"/>
<text xml:space="preserve" text-anchor="middle" x="138.38" y="-348.5" font-family="Helvetica,sans-Serif" font-size="10.00">_4by4XO_UI::get_move</text>
</a>
</g>
</g>
<!-- Node1&#45;&gt;Node2 -->
<g id="edge1_Node000001_Node000002" class="edge">
<title>Node1&#45;&gt;Node2</title>
<g id="a_edge1_Node000001_Node000002"><a xlink:title=" ">
<path fill="none" stroke="#63b8ff" d="M279.39,-202.3C269.62,-235.23 246.34,-298.32 203.75,-333 199.5,-336.46 194.65,-339.29 189.55,-341.6"/>
<polygon fill="#63b8ff" stroke="#63b8ff" points="282.75,-203.31 282.08,-192.73 276.01,-201.41 282.75,-203.31"/>
</a>
</g>
</g>
<!-- Node3 -->
<g id="Node000003" class="node">
<title>Node3</title>
<g id="a_Node000003"><a xlink:href="class_anti___x_o___u_i.html#a33e3fac8bd7d6e9e26eaa1a5df1ddd6f" target="_top" xlink:title="Retrieves the player&#39;s move (human, computer random, or AI).">
<polygon fill="white" stroke="#666666" points="197,-324 79.75,-324 79.75,-304 197,-304 197,-324"/>
<text xml:space="preserve" text-anchor="middle" x="138.38" y="-310.5" font-family="Helvetica,sans-Serif" font-size="10.00">Anti_XO_UI::get_move</text>
</a>
</g>
</g>
<!-- Node1&#45;&gt;Node3 -->
<g id="edge2_Node000001_Node000003" class="edge">
<title>Node1&#45;&gt;Node3</title>
<g id="a_edge2_Node000001_Node000003"><a xlink:title=" ">
<path fill="none" stroke="#63b8ff" d="M275.79,-201.33C263.16,-226.94 238.06,-270.55 203.75,-295 198.91,-298.45 193.44,-301.28 187.79,-303.6"/>
<polygon fill="#63b8ff" stroke="#63b8ff" points="278.79,-203.16 279.92,-192.63 272.47,-200.16 278.79,-203.16"/>
</a>
</g>
</g>
<!-- Node4 -->
<g id="Node000004" class="node">
<title>Node4</title>
<g id="a_Node000004"><a xlink:href="classdia___x_o___u_i.html#ac93aba1a10bbb189d2bc2597ccb9d7b4" target="_top" xlink:title="Ask the user (or AI) to make a move.">
<polygon fill="white" stroke="#666666" points="194.75,-286 82,-286 82,-266 194.75,-266 194.75,-286"/>
<text xml:space="preserve" text-anchor="middle" x="138.38" y="-272.5" font-family="Helvetica,sans-Serif" font-size="10.00">dia_XO_UI::get_move</text>
</a>
</g>
</g>
<!-- Node1&#45;&gt;Node4 -->
<g id="edge3_Node000001_Node000004" class="edge">
<title>Node1&#45;&gt;Node4</title>
<g id="a_edge3_Node000001_Node000004"><a xlink:title=" ">
<path fill="none" stroke="#63b8ff" d="M269.25,-200.13C254.12,-217.33 229.78,-242.11 203.75,-257 197.88,-260.36 191.37,-263.17 184.81,-265.51"/>
<polygon fill="#63b8ff" stroke="#63b8ff" points="271.83,-202.49 275.67,-192.62 266.51,-197.94 271.83,-202.49"/>
</a>
</g>
</g>
<!-- Node5 -->
<g id="Node000005" class="node">
<title>Node5</title>
<g id="a_Node000005"><a xlink:href="class_large___x_o___u_i.html#ad2c0d9d3cec8c1e35d42b2342a08bc7f" target="_top" xlink:title="Request a move from Human, Random, or AI player.">
<polygon fill="white" stroke="#666666" points="200.38,-248 76.38,-248 76.38,-228 200.38,-228 200.38,-248"/>
<text xml:space="preserve" text-anchor="middle" x="138.38" y="-234.5" font-family="Helvetica,sans-Serif" font-size="10.00">Large_XO_UI::get_move</text>
</a>
</g>
</g>
<!-- Node1&#45;&gt;Node5 -->
<g id="edge4_Node000001_Node000005" class="edge">
<title>Node1&#45;&gt;Node5</title>
<g id="a_edge4_Node000001_Node000005"><a xlink:title=" ">
<path fill="none" stroke="#63b8ff" d="M254.71,-196.49C239.63,-203.86 220.98,-212.47 203.75,-219 195.58,-222.1 186.67,-225.01 178.16,-227.58"/>
<polygon fill="#63b8ff" stroke="#63b8ff" points="256.24,-199.64 263.64,-192.06 253.13,-193.37 256.24,-199.64"/>
</a>
</g>
</g>
<!-- Node6 -->
<g id="Node000006" class="node">
<title>Node6</title>
<g id="a_Node000006"><a xlink:href="class_memory___u_i.html#ac381faa654aeb92bdba8c7356289dea2" target="_top" xlink:title="Obtains the next move from a player.">
<polygon fill="white" stroke="#666666" points="196.25,-210 80.5,-210 80.5,-190 196.25,-190 196.25,-210"/>
<text xml:space="preserve" text-anchor="middle" x="138.38" y="-196.5" font-family="Helvetica,sans-Serif" font-size="10.00">Memory_UI::get_move</text>
</a>
</g>
</g>
<!-- Node1&#45;&gt;Node6 -->
<g id="edge5_Node000001_Node000006" class="edge">
<title>Node1&#45;&gt;Node6</title>
<g id="a_edge5_Node000001_Node000006"><a xlink:title=" ">
<path fill="none" stroke="#63b8ff" d="M227.96,-188.44C217.69,-189.78 206.97,-191.18 196.69,-192.52"/>
<polygon fill="#63b8ff" stroke="#63b8ff" points="228.36,-191.92 237.82,-187.16 227.45,-184.98 228.36,-191.92"/>
</a>
</g>
</g>
<!-- Node7 -->
<g id="Node000007" class="node">
<title>Node7</title>
<g id="a_Node000007"><a xlink:href="class_obstacles___u_i.html#aaf8a700063b544107b0ec92929b7242d" target="_top" xlink:title="Obtains a move from a human or AI player.">
<polygon fill="white" stroke="#666666" points="200.75,-172 76,-172 76,-152 200.75,-152 200.75,-172"/>
<text xml:space="preserve" text-anchor="middle" x="138.38" y="-158.5" font-family="Helvetica,sans-Serif" font-size="10.00">Obstacles_UI::get_move</text>
</a>
</g>
</g>
<!-- Node1&#45;&gt;Node7 -->
<g id="edge6_Node000001_Node000007" class="edge">
<title>Node1&#45;&gt;Node7</title>
<g id="a_edge6_Node000001_Node000007"><a xlink:title=" ">
<path fill="none" stroke="#63b8ff" d="M227.99,-173.56C219.19,-172.41 210.07,-171.22 201.17,-170.06"/>
<polygon fill="#63b8ff" stroke="#63b8ff" points="227.45,-177.02 237.82,-174.84 228.36,-170.08 227.45,-177.02"/>
</a>
</g>
</g>
<!-- Node8 -->
<g id="Node000008" class="node">
<title>Node8</title>
<g id="a_Node000008"><a xlink:href="class_pyramid_x_o___u_i.html#a936b1fdabe80776e212110be108f811f" target="_top" xlink:title="Reads human move or requests AI move.">
<polygon fill="white" stroke="#666666" points="203.75,-134 73,-134 73,-114 203.75,-114 203.75,-134"/>
<text xml:space="preserve" text-anchor="middle" x="138.38" y="-120.5" font-family="Helvetica,sans-Serif" font-size="10.00">PyramidXO_UI::get_move</text>
</a>
</g>
</g>
<!-- Node1&#45;&gt;Node8 -->
<g id="edge7_Node000001_Node000008" class="edge">
<title>Node1&#45;&gt;Node8</title>
<g id="a_edge7_Node000001_Node000008"><a xlink:title=" ">
<path fill="none" stroke="#63b8ff" d="M254.71,-165.51C239.63,-158.14 220.98,-149.53 203.75,-143 195.58,-139.9 186.67,-136.99 178.16,-134.42"/>
<polygon fill="#63b8ff" stroke="#63b8ff" points="253.13,-168.63 263.64,-169.94 256.24,-162.36 253.13,-168.63"/>
</a>
</g>
</g>
<!-- Node9 -->
<g id="Node000009" class="node">
<title>Node9</title>
<g id="a_Node000009"><a xlink:href="class_s_u_s___u_i.html#a9c7a3c09a5e18a3d89f448ea93b6dea6" target="_top" xlink:title="Gets the next move from a human or AI.">
<polygon fill="white" stroke="#666666" points="189.12,-96 87.62,-96 87.62,-76 189.12,-76 189.12,-96"/>
<text xml:space="preserve" text-anchor="middle" x="138.38" y="-82.5" font-family="Helvetica,sans-Serif" font-size="10.00">SUS_UI::get_move</text>
</a>
</g>
</g>
<!-- Node1&#45;&gt;Node9 -->
<g id="edge8_Node000001_Node000009" class="edge">
<title>Node1&#45;&gt;Node9</title>
<g id="a_edge8_Node000001_Node000009"><a xlink:title=" ">
<path fill="none" stroke="#63b8ff" d="M269.25,-161.87C254.12,-144.67 229.78,-119.89 203.75,-105 197.88,-101.64 191.37,-98.83 184.81,-96.49"/>
<polygon fill="#63b8ff" stroke="#63b8ff" points="266.51,-164.06 275.67,-169.38 271.83,-159.51 266.51,-164.06"/>
</a>
</g>
</g>
<!-- Node10 -->
<g id="Node000010" class="node">
<title>Node10</title>
<g id="a_Node000010"><a xlink:href="class_word___x_o___u_i.html#aea1d068753433755a0c7eb45b06add23" target="_top" xlink:title="Retrieves the move from the current player.">
<polygon fill="white" stroke="#666666" points="199.62,-58 77.12,-58 77.12,-38 199.62,-38 199.62,-58"/>
<text xml:space="preserve" text-anchor="middle" x="138.38" y="-44.5" font-family="Helvetica,sans-Serif" font-size="10.00">Word_XO_UI::get_move</text>
</a>
</g>
</g>
<!-- Node1&#45;&gt;Node10 -->
<g id="edge9_Node000001_Node000010" class="edge">
<title>Node1&#45;&gt;Node10</title>
<g id="a_edge9_Node000001_Node000010"><a xlink:title=" ">
<path fill="none" stroke="#63b8ff" d="M275.79,-160.67C263.16,-135.06 238.06,-91.45 203.75,-67 198.91,-63.55 193.44,-60.72 187.79,-58.4"/>
<polygon fill="#63b8ff" stroke="#63b8ff" points="272.47,-161.84 279.92,-169.37 278.79,-158.84 272.47,-161.84"/>
</a>
</g>
</g>
<!-- Node11 -->
<g id="Node000011" class="node">
<title>Node11</title>
<g id="a_Node000011"><a xlink:href="class_game_manager.html#a71f46d5189dac5c773f608cea1b5a203" target="_top" xlink:title="Run the main game loop until someone wins or the game ends.">
<polygon fill="white" stroke="#666666" points="188,-20 88.75,-20 88.75,0 188,0 188,-20"/>
<text xml:space="preserve" text-anchor="middle" x="138.38" y="-6.5" font-family="Helvetica,sans-Serif" font-size="10.00">GameManager::run</text>
</a>
</g>
</g>
<!-- Node1&#45;&gt;Node11 -->
<g id="edge10_Node000001_Node000011" class="edge">
<title>Node1&#45;&gt;Node11</title>
<g id="a_edge10_Node000001_Node000011"><a xlink:title=" ">
<path fill="none" stroke="#63b8ff" d="M279.39,-159.7C269.62,-126.77 246.34,-63.68 203.75,-29 199.14,-25.25 193.81,-22.24 188.24,-19.82"/>
<polygon fill="#63b8ff" stroke="#63b8ff" points="276.01,-160.59 282.08,-169.27 282.75,-158.69 276.01,-160.59"/>
</a>
</g>
</g>
<!-- Node12 -->
<g id="Node000012" class="node">
<title>Node12</title>
<g id="a_Node000012"><a xlink:href="_the_game_8cpp.html#ae66f6b31b5ad750f1fe042a706a4e3d4" target="_top" xlink:title="Main function to run the X&#45;O game.">
<polygon fill="white" stroke="#666666" points="37,-20 0,-20 0,0 37,0 37,-20"/>
<text xml:space="preserve" text-anchor="middle" x="18.5" y="-6.5" font-family="Helvetica,sans-Serif" font-size="10.00">main</text>
</a>
</g>
</g>
<!-- Node11&#45;&gt;Node12 -->
<g id="edge11_Node000011_Node000012" class="edge">
<title>Node11&#45;&gt;Node12</title>
<g id="a_edge11_Node000011_Node000012"><a xlink:title=" ">
<path fill="none" stroke="#63b8ff" d="M77.29,-10C62.68,-10 48.18,-10 37.35,-10"/>
<polygon fill="#63b8ff" stroke="#63b8ff" points="76.9,-13.5 86.9,-10 76.9,-6.5 76.9,-13.5"/>
</a>
</g>
</g>
</g>
</svg>
