<?xml version="1.0" encoding="UTF-8" standalone="no"?>
<!DOCTYPE svg PUBLIC "-//W3C//DTD SVG 1.1//EN"
 "http://www.w3.org/Graphics/SVG/1.1/DTD/svg11.dtd">
<!-- Generated by graphviz version 14.0.2 (20251019.1705)
 -->
<!-- Title: Memory_AI::evaluate Pages: 1 -->
<svg width="565pt" height="46pt"
 viewBox="0.00 0.00 565.00 46.00" xmlns="http://www.w3.org/2000/svg" xmlns:xlink="http://www.w3.org/1999/xlink">
<g id="graph0" class="graph" transform="scale(1 1) rotate(0) translate(4 42)">
<title>Memory_AI::evaluate</title>
<!-- Node1 -->
<g id="Node000001" class="node">
<title>Node1</title>
<g id="a_Node000001"><a xlink:title="Evaluates the board state from AI perspective.">
<polygon fill="#999999" stroke="#666666" points="556.75,-20 447.75,-20 447.75,0 556.75,0 556.75,-20"/>
<text xml:space="preserve" text-anchor="middle" x="502.25" y="-6.5" font-family="Helvetica,sans-Serif" font-size="10.00">Memory_AI::evaluate</text>
</a>
</g>
</g>
<!-- Node2 -->
<g id="Node000002" class="node">
<title>Node2</title>
<g id="a_Node000002"><a xlink:href="class_memory___a_i.html#a011257fcbc9862c365fc6ffa25624aa9" target="_top" xlink:title="Minimax algorithm with alpha&#45;beta pruning.">
<polygon fill="white" stroke="#666666" points="411.75,-20 302.75,-20 302.75,0 411.75,0 411.75,-20"/>
<text xml:space="preserve" text-anchor="middle" x="357.25" y="-6.5" font-family="Helvetica,sans-Serif" font-size="10.00">Memory_AI::minimax</text>
</a>
</g>
</g>
<!-- Node1&#45;&gt;Node2 -->
<g id="edge1_Node000001_Node000002" class="edge">
<title>Node1&#45;&gt;Node2</title>
<g id="a_edge1_Node000001_Node000002"><a xlink:title=" ">
<path fill="none" stroke="#63b8ff" d="M436.31,-10C428.25,-10 420.08,-10 412.21,-10"/>
<polygon fill="#63b8ff" stroke="#63b8ff" points="436.08,-13.5 446.08,-10 436.08,-6.5 436.08,-13.5"/>
</a>
</g>
</g>
<!-- Node2&#45;&gt;Node2 -->
<g id="edge4_Node000002_Node000002" class="edge">
<title>Node2&#45;&gt;Node2</title>
<g id="a_edge4_Node000002_Node000002"><a xlink:title=" ">
<path fill="none" stroke="#63b8ff" d="M382.88,-31.44C379.58,-35.3 371.03,-38 357.25,-38 332.04,-38 324.37,-28.98 334.21,-20.34"/>
<polygon fill="#63b8ff" stroke="#63b8ff" points="386.31,-30.76 380.63,-21.81 379.49,-32.35 386.31,-30.76"/>
</a>
</g>
</g>
<!-- Node3 -->
<g id="Node000003" class="node">
<title>Node3</title>
<g id="a_Node000003"><a xlink:href="class_memory___a_i.html#a6bb44a40960586c692f1224bc15dc098" target="_top" xlink:title="Determines the optimal move for AI using minimax.">
<polygon fill="white" stroke="#666666" points="266.75,-20 151.75,-20 151.75,0 266.75,0 266.75,-20"/>
<text xml:space="preserve" text-anchor="middle" x="209.25" y="-6.5" font-family="Helvetica,sans-Serif" font-size="10.00">Memory_AI::bestMove</text>
</a>
</g>
</g>
<!-- Node2&#45;&gt;Node3 -->
<g id="edge2_Node000002_Node000003" class="edge">
<title>Node2&#45;&gt;Node3</title>
<g id="a_edge2_Node000002_Node000003"><a xlink:title=" ">
<path fill="none" stroke="#63b8ff" d="M291.05,-10C283,-10 274.82,-10 266.91,-10"/>
<polygon fill="#63b8ff" stroke="#63b8ff" points="290.79,-13.5 300.79,-10 290.79,-6.5 290.79,-13.5"/>
</a>
</g>
</g>
<!-- Node4 -->
<g id="Node000004" class="node">
<title>Node4</title>
<g id="a_Node000004"><a xlink:href="class_memory___u_i.html#ac381faa654aeb92bdba8c7356289dea2" target="_top" xlink:title="Obtains the next move from a player.">
<polygon fill="white" stroke="#666666" points="115.75,-20 0,-20 0,0 115.75,0 115.75,-20"/>
<text xml:space="preserve" text-anchor="middle" x="57.88" y="-6.5" font-family="Helvetica,sans-Serif" font-size="10.00">Memory_UI::get_move</text>
</a>
</g>
</g>
<!-- Node3&#45;&gt;Node4 -->
<g id="edge3_Node000003_Node000004" class="edge">
<title>Node3&#45;&gt;Node4</title>
<g id="a_edge3_Node000003_Node000004"><a xlink:title=" ">
<path fill="none" stroke="#63b8ff" d="M140.11,-10C132.09,-10 123.96,-10 116.11,-10"/>
<polygon fill="#63b8ff" stroke="#63b8ff" points="139.84,-13.5 149.84,-10 139.84,-6.5 139.84,-13.5"/>
</a>
</g>
</g>
</g>
</svg>
