<?xml version="1.0" encoding="UTF-8" standalone="no"?>
<!DOCTYPE svg PUBLIC "-//W3C//DTD SVG 1.1//EN"
 "http://www.w3.org/Graphics/SVG/1.1/DTD/svg11.dtd">
<!-- Generated by graphviz version 14.0.2 (20251019.1705)
 -->
<!-- Title: _4by4XO_Move Pages: 1 -->
<svg width="102pt" height="276pt"
 viewBox="0.00 0.00 102.00 276.00" xmlns="http://www.w3.org/2000/svg" xmlns:xlink="http://www.w3.org/1999/xlink">
<g id="graph0" class="graph" transform="scale(1 1) rotate(0) translate(4 272)">
<title>_4by4XO_Move</title>
<!-- Node1 -->
<g id="Node000001" class="node">
<title>Node1</title>
<g id="a_Node000001"><a xlink:title="Represents a move in the 4x4 sliding Tic&#45;Tac&#45;Toe game.">
<polygon fill="#999999" stroke="none" points="93.75,-100 0,-100 0,0 93.75,0 93.75,-100"/>
<text xml:space="preserve" text-anchor="start" x="12" y="-86.5" font-family="Helvetica,sans-Serif" font-size="10.00">_4by4XO_Move</text>
<text xml:space="preserve" text-anchor="start" x="5.5" y="-70.5" font-family="Helvetica,sans-Serif" font-size="10.00">&#45;</text>
<text xml:space="preserve" text-anchor="start" x="14" y="-70.5" font-family="Helvetica,sans-Serif" font-size="10.00">from_x</text>
<text xml:space="preserve" text-anchor="start" x="5.5" y="-54.5" font-family="Helvetica,sans-Serif" font-size="10.00">&#45;</text>
<text xml:space="preserve" text-anchor="start" x="14" y="-54.5" font-family="Helvetica,sans-Serif" font-size="10.00">from_y</text>
<text xml:space="preserve" text-anchor="start" x="4" y="-38.5" font-family="Helvetica,sans-Serif" font-size="10.00">+</text>
<text xml:space="preserve" text-anchor="start" x="14" y="-38.5" font-family="Helvetica,sans-Serif" font-size="10.00">_4by4XO_Move()</text>
<text xml:space="preserve" text-anchor="start" x="4" y="-22.5" font-family="Helvetica,sans-Serif" font-size="10.00">+</text>
<text xml:space="preserve" text-anchor="start" x="14" y="-22.5" font-family="Helvetica,sans-Serif" font-size="10.00">get_from_x()</text>
<text xml:space="preserve" text-anchor="start" x="4" y="-6.5" font-family="Helvetica,sans-Serif" font-size="10.00">+</text>
<text xml:space="preserve" text-anchor="start" x="14" y="-6.5" font-family="Helvetica,sans-Serif" font-size="10.00">get_from_y()</text>
<polygon fill="#666666" stroke="#666666" points="0,-82 0,-82 93.75,-82 93.75,-82 0,-82"/>
<polygon fill="#666666" stroke="#666666" points="0,-50 0,-50 12,-50 12,-50 0,-50"/>
<polygon fill="#666666" stroke="#666666" points="12,-50 12,-50 93.75,-50 93.75,-50 12,-50"/>
<polygon fill="none" stroke="#666666" points="0,0 0,-100 93.75,-100 93.75,0 0,0"/>
</a>
</g>
</g>
<!-- Node2 -->
<g id="Node000002" class="node">
<title>Node2</title>
<g id="a_Node000002"><a xlink:href="class_move.html" target="_top" xlink:title=" ">
<polygon fill="white" stroke="none" points="84,-268 9.75,-268 9.75,-136 84,-136 84,-268"/>
<text xml:space="preserve" text-anchor="start" x="16.5" y="-254.5" font-family="Helvetica,sans-Serif" font-size="10.00">Move&lt; char &gt;</text>
<text xml:space="preserve" text-anchor="start" x="15.25" y="-238.5" font-family="Helvetica,sans-Serif" font-size="10.00">&#45;</text>
<text xml:space="preserve" text-anchor="start" x="23.75" y="-238.5" font-family="Helvetica,sans-Serif" font-size="10.00">x</text>
<text xml:space="preserve" text-anchor="start" x="15.25" y="-222.5" font-family="Helvetica,sans-Serif" font-size="10.00">&#45;</text>
<text xml:space="preserve" text-anchor="start" x="23.75" y="-222.5" font-family="Helvetica,sans-Serif" font-size="10.00">y</text>
<text xml:space="preserve" text-anchor="start" x="15.25" y="-206.5" font-family="Helvetica,sans-Serif" font-size="10.00">&#45;</text>
<text xml:space="preserve" text-anchor="start" x="23.75" y="-206.5" font-family="Helvetica,sans-Serif" font-size="10.00">symbol</text>
<text xml:space="preserve" text-anchor="start" x="13.75" y="-190.5" font-family="Helvetica,sans-Serif" font-size="10.00">+</text>
<text xml:space="preserve" text-anchor="start" x="23.75" y="-190.5" font-family="Helvetica,sans-Serif" font-size="10.00">Move()</text>
<text xml:space="preserve" text-anchor="start" x="13.75" y="-174.5" font-family="Helvetica,sans-Serif" font-size="10.00">+</text>
<text xml:space="preserve" text-anchor="start" x="23.75" y="-174.5" font-family="Helvetica,sans-Serif" font-size="10.00">get_x()</text>
<text xml:space="preserve" text-anchor="start" x="13.75" y="-158.5" font-family="Helvetica,sans-Serif" font-size="10.00">+</text>
<text xml:space="preserve" text-anchor="start" x="23.75" y="-158.5" font-family="Helvetica,sans-Serif" font-size="10.00">get_y()</text>
<text xml:space="preserve" text-anchor="start" x="13.75" y="-142.5" font-family="Helvetica,sans-Serif" font-size="10.00">+</text>
<text xml:space="preserve" text-anchor="start" x="23.75" y="-142.5" font-family="Helvetica,sans-Serif" font-size="10.00">get_symbol()</text>
<polygon fill="#666666" stroke="#666666" points="9.75,-250 9.75,-250 84,-250 84,-250 9.75,-250"/>
<polygon fill="#666666" stroke="#666666" points="9.75,-202 9.75,-202 21.75,-202 21.75,-202 9.75,-202"/>
<polygon fill="#666666" stroke="#666666" points="21.75,-202 21.75,-202 84,-202 84,-202 21.75,-202"/>
<polygon fill="none" stroke="#666666" points="9.75,-136 9.75,-268 84,-268 84,-136 9.75,-136"/>
</a>
</g>
</g>
<!-- Node2&#45;&gt;Node1 -->
<g id="edge1_Node000001_Node000002" class="edge">
<title>Node2&#45;&gt;Node1</title>
<g id="a_edge1_Node000001_Node000002"><a xlink:title=" ">
<path fill="none" stroke="#63b8ff" d="M46.88,-124.58C46.88,-116.13 46.88,-107.71 46.88,-99.73"/>
<polygon fill="none" stroke="#63b8ff" points="43.38,-124.57 46.88,-134.57 50.38,-124.57 43.38,-124.57"/>
</a>
</g>
</g>
</g>
</svg>
