<?xml version="1.0" encoding="UTF-8" standalone="no"?>
<!DOCTYPE svg PUBLIC "-//W3C//DTD SVG 1.1//EN"
 "http://www.w3.org/Graphics/SVG/1.1/DTD/svg11.dtd">
<!-- Generated by graphviz version 14.0.2 (20251019.1705)
 -->
<!-- Title: Large_XO_AI::bestMove Pages: 1 -->
<svg width="574pt" height="104pt"
 viewBox="0.00 0.00 574.00 104.00" xmlns="http://www.w3.org/2000/svg" xmlns:xlink="http://www.w3.org/1999/xlink">
<g id="graph0" class="graph" transform="scale(1 1) rotate(0) translate(4 100)">
<title>Large_XO_AI::bestMove</title>
<!-- Node1 -->
<g id="Node000001" class="node">
<title>Node1</title>
<g id="a_Node000001"><a xlink:title="Compute the best move for the player.">
<polygon fill="#999999" stroke="#666666" points="123.25,-40 0,-40 0,-20 123.25,-20 123.25,-40"/>
<text xml:space="preserve" text-anchor="middle" x="61.62" y="-26.5" font-family="Helvetica,sans-Serif" font-size="10.00">Large_XO_AI::bestMove</text>
</a>
</g>
</g>
<!-- Node2 -->
<g id="Node000002" class="node">
<title>Node2</title>
<g id="a_Node000002"><a xlink:href="class_player.html#a508617eddfae8915d098102d480fc888" target="_top" xlink:title="Get a pointer to the game board.">
<polygon fill="white" stroke="#666666" points="425.62,-96 316.62,-96 316.62,-76 425.62,-76 425.62,-96"/>
<text xml:space="preserve" text-anchor="middle" x="371.12" y="-82.5" font-family="Helvetica,sans-Serif" font-size="10.00">Player::get_board_ptr</text>
</a>
</g>
</g>
<!-- Node1&#45;&gt;Node2 -->
<g id="edge1_Node000001_Node000002" class="edge">
<title>Node1&#45;&gt;Node2</title>
<g id="a_edge1_Node000001_Node000002"><a xlink:title=" ">
<path fill="none" stroke="#63b8ff" d="M84.72,-40.48C103.96,-49.1 132.83,-60.87 159.25,-67 207.2,-78.12 262.69,-82.8 304.7,-84.74"/>
<polygon fill="#63b8ff" stroke="#63b8ff" points="304.53,-88.24 314.67,-85.16 304.82,-81.24 304.53,-88.24"/>
</a>
</g>
</g>
<!-- Node3 -->
<g id="Node000003" class="node">
<title>Node3</title>
<g id="a_Node000003"><a xlink:href="class_player.html#af56f0bf98c0423a3a75b0848607d03a4" target="_top" xlink:title="Get the player&#39;s symbol.">
<polygon fill="white" stroke="#666666" points="565.75,-20 465.75,-20 465.75,0 565.75,0 565.75,-20"/>
<text xml:space="preserve" text-anchor="middle" x="515.75" y="-6.5" font-family="Helvetica,sans-Serif" font-size="10.00">Player::get_symbol</text>
</a>
</g>
</g>
<!-- Node1&#45;&gt;Node3 -->
<g id="edge2_Node000001_Node000003" class="edge">
<title>Node1&#45;&gt;Node3</title>
<g id="a_edge2_Node000001_Node000003"><a xlink:title=" ">
<path fill="none" stroke="#63b8ff" d="M106.62,-19.51C123.03,-16.08 141.9,-12.71 159.25,-11 262.38,-0.81 383.15,-3.56 454.06,-6.65"/>
<polygon fill="#63b8ff" stroke="#63b8ff" points="453.77,-10.14 463.92,-7.1 454.09,-3.15 453.77,-10.14"/>
</a>
</g>
</g>
<!-- Node4 -->
<g id="Node000004" class="node">
<title>Node4</title>
<g id="a_Node000004"><a xlink:href="class_large___x_o___a_i.html#afdd4990cd58293668dc8ba9660beb31b" target="_top" xlink:title="Minimax algorithm with alpha&#45;beta pruning.">
<polygon fill="white" stroke="#666666" points="276.5,-40 159.25,-40 159.25,-20 276.5,-20 276.5,-40"/>
<text xml:space="preserve" text-anchor="middle" x="217.88" y="-26.5" font-family="Helvetica,sans-Serif" font-size="10.00">Large_XO_AI::minimax</text>
</a>
</g>
</g>
<!-- Node1&#45;&gt;Node4 -->
<g id="edge3_Node000001_Node000004" class="edge">
<title>Node1&#45;&gt;Node4</title>
<g id="a_edge3_Node000001_Node000004"><a xlink:title=" ">
<path fill="none" stroke="#63b8ff" d="M123.59,-30C131.4,-30 139.44,-30 147.37,-30"/>
<polygon fill="#63b8ff" stroke="#63b8ff" points="147.36,-33.5 157.36,-30 147.36,-26.5 147.36,-33.5"/>
</a>
</g>
</g>
<!-- Node4&#45;&gt;Node2 -->
<g id="edge6_Node000004_Node000002" class="edge">
<title>Node4&#45;&gt;Node2</title>
<g id="a_edge6_Node000004_Node000002"><a xlink:title=" ">
<path fill="none" stroke="#63b8ff" d="M244.16,-40.45C262.91,-48.09 289.16,-58.55 312.5,-67 317.14,-68.68 322.01,-70.38 326.87,-72.04"/>
<polygon fill="#63b8ff" stroke="#63b8ff" points="325.37,-75.23 335.97,-75.09 327.6,-68.59 325.37,-75.23"/>
</a>
</g>
</g>
<!-- Node4&#45;&gt;Node3 -->
<g id="edge7_Node000004_Node000003" class="edge">
<title>Node4&#45;&gt;Node3</title>
<g id="a_edge7_Node000004_Node000003"><a xlink:title=" ">
<path fill="none" stroke="#63b8ff" d="M276.98,-26.07C328.14,-22.61 402.37,-17.6 454.24,-14.09"/>
<polygon fill="#63b8ff" stroke="#63b8ff" points="454.36,-17.59 464.1,-13.42 453.89,-10.61 454.36,-17.59"/>
</a>
</g>
</g>
<!-- Node4&#45;&gt;Node4 -->
<g id="edge8_Node000004_Node000004" class="edge">
<title>Node4&#45;&gt;Node4</title>
<g id="a_edge8_Node000004_Node000004"><a xlink:title=" ">
<path fill="none" stroke="#63b8ff" d="M193.53,-40.34C183.12,-48.98 191.24,-58 217.88,-58 232.44,-58 241.47,-55.3 244.96,-51.44"/>
<polygon fill="#63b8ff" stroke="#63b8ff" points="248.38,-50.68 242.59,-41.81 241.58,-52.36 248.38,-50.68"/>
</a>
</g>
</g>
<!-- Node5 -->
<g id="Node000005" class="node">
<title>Node5</title>
<g id="a_Node000005"><a xlink:href="class_large___x_o___a_i.html#a7369a7db6ac018c0480009ed8cec6d1b" target="_top" xlink:title="Evaluate a board using neural network + terminal heuristics.">
<polygon fill="white" stroke="#666666" points="429.75,-58 312.5,-58 312.5,-38 429.75,-38 429.75,-58"/>
<text xml:space="preserve" text-anchor="middle" x="371.12" y="-44.5" font-family="Helvetica,sans-Serif" font-size="10.00">Large_XO_AI::evaluate</text>
</a>
</g>
</g>
<!-- Node4&#45;&gt;Node5 -->
<g id="edge4_Node000004_Node000005" class="edge">
<title>Node4&#45;&gt;Node5</title>
<g id="a_edge4_Node000004_Node000005"><a xlink:title=" ">
<path fill="none" stroke="#63b8ff" d="M276.92,-36.91C284.85,-37.85 293.05,-38.83 301.14,-39.79"/>
<polygon fill="#63b8ff" stroke="#63b8ff" points="300.64,-43.26 310.98,-40.96 301.47,-36.3 300.64,-43.26"/>
</a>
</g>
</g>
<!-- Node5&#45;&gt;Node3 -->
<g id="edge5_Node000005_Node000003" class="edge">
<title>Node5&#45;&gt;Node3</title>
<g id="a_edge5_Node000005_Node000003"><a xlink:title=" ">
<path fill="none" stroke="#63b8ff" d="M411.48,-37.52C427.84,-33.15 447.04,-28.04 464.42,-23.41"/>
<polygon fill="#63b8ff" stroke="#63b8ff" points="465.3,-26.8 474.07,-20.84 463.5,-20.03 465.3,-26.8"/>
</a>
</g>
</g>
</g>
</svg>
