<?xml version="1.0" encoding="UTF-8" standalone="no"?>
<!DOCTYPE svg PUBLIC "-//W3C//DTD SVG 1.1//EN"
 "http://www.w3.org/Graphics/SVG/1.1/DTD/svg11.dtd">
<!-- Generated by graphviz version 14.0.2 (20251019.1705)
 -->
<!-- Title: Matrix::multiply Pages: 1 -->
<svg width="215pt" height="104pt"
 viewBox="0.00 0.00 215.00 104.00" xmlns="http://www.w3.org/2000/svg" xmlns:xlink="http://www.w3.org/1999/xlink">
<g id="graph0" class="graph" transform="scale(1 1) rotate(0) translate(4 100)">
<title>Matrix::multiply</title>
<!-- Node1 -->
<g id="Node000001" class="node">
<title>Node1</title>
<g id="a_Node000001"><a xlink:title="Optimized matrix multiplication into a preallocated matrix.">
<polygon fill="#999999" stroke="#666666" points="206.75,-58 124,-58 124,-38 206.75,-38 206.75,-58"/>
<text xml:space="preserve" text-anchor="middle" x="165.38" y="-44.5" font-family="Helvetica,sans-Serif" font-size="10.00">Matrix::multiply</text>
</a>
</g>
</g>
<!-- Node2 -->
<g id="Node000002" class="node">
<title>Node2</title>
<g id="a_Node000002"><a xlink:href="$class_layer.html#a54679a1ee804225a3d09a0685242070a" xlink:title="Backward propagation.">
<polygon fill="white" stroke="#666666" points="88,-96 0,-96 0,-76 88,-76 88,-96"/>
<text xml:space="preserve" text-anchor="middle" x="44" y="-82.5" font-family="Helvetica,sans-Serif" font-size="10.00">Layer::backward</text>
</a>
</g>
</g>
<!-- Node1&#45;&gt;Node2 -->
<g id="edge1_Node000001_Node000002" class="edge">
<title>Node1&#45;&gt;Node2</title>
<g id="a_edge1_Node000001_Node000002"><a xlink:title=" ">
<path fill="none" stroke="#63b8ff" d="M120.89,-61.84C106.67,-66.37 91.12,-71.32 77.83,-75.55"/>
<polygon fill="#63b8ff" stroke="#63b8ff" points="121.53,-65.31 130,-58.94 119.41,-58.64 121.53,-65.31"/>
</a>
</g>
</g>
<!-- Node3 -->
<g id="Node000003" class="node">
<title>Node3</title>
<g id="a_Node000003"><a xlink:href="$class_layer.html#aa1c9e50a099e7fad54c5681f83988d2a" xlink:title="Forward propagation.">
<polygon fill="white" stroke="#666666" points="83.12,-58 4.88,-58 4.88,-38 83.12,-38 83.12,-58"/>
<text xml:space="preserve" text-anchor="middle" x="44" y="-44.5" font-family="Helvetica,sans-Serif" font-size="10.00">Layer::forward</text>
</a>
</g>
</g>
<!-- Node1&#45;&gt;Node3 -->
<g id="edge2_Node000001_Node000003" class="edge">
<title>Node1&#45;&gt;Node3</title>
<g id="a_edge2_Node000001_Node000003"><a xlink:title=" ">
<path fill="none" stroke="#63b8ff" d="M112.12,-48C102.52,-48 92.66,-48 83.55,-48"/>
<polygon fill="#63b8ff" stroke="#63b8ff" points="112.11,-51.5 122.11,-48 112.11,-44.5 112.11,-51.5"/>
</a>
</g>
</g>
<!-- Node4 -->
<g id="Node000004" class="node">
<title>Node4</title>
<g id="a_Node000004"><a xlink:href="$class_matrix.html#a0d724ccde0d084d10f73366896c32c32" xlink:title="Right&#45;hand matrix multiplication: C = A * B.">
<polygon fill="white" stroke="#666666" points="88,-20 0,-20 0,0 88,0 88,-20"/>
<text xml:space="preserve" text-anchor="middle" x="44" y="-6.5" font-family="Helvetica,sans-Serif" font-size="10.00">Matrix::operator*</text>
</a>
</g>
</g>
<!-- Node1&#45;&gt;Node4 -->
<g id="edge3_Node000001_Node000004" class="edge">
<title>Node1&#45;&gt;Node4</title>
<g id="a_edge3_Node000001_Node000004"><a xlink:title=" ">
<path fill="none" stroke="#63b8ff" d="M120.89,-34.16C106.67,-29.63 91.12,-24.68 77.83,-20.45"/>
<polygon fill="#63b8ff" stroke="#63b8ff" points="119.41,-37.36 130,-37.06 121.53,-30.69 119.41,-37.36"/>
</a>
</g>
</g>
</g>
</svg>
