<?xml version="1.0" encoding="UTF-8" standalone="no"?>
<!DOCTYPE svg PUBLIC "-//W3C//DTD SVG 1.1//EN"
 "http://www.w3.org/Graphics/SVG/1.1/DTD/svg11.dtd">
<!-- Generated by graphviz version 14.0.2 (20251019.1705)
 -->
<!-- Title: Memory_AI::bestMove Pages: 1 -->
<svg width="413pt" height="113pt"
 viewBox="0.00 0.00 413.00 113.00" xmlns="http://www.w3.org/2000/svg" xmlns:xlink="http://www.w3.org/1999/xlink">
<g id="graph0" class="graph" transform="scale(1 1) rotate(0) translate(4 109)">
<title>Memory_AI::bestMove</title>
<!-- Node1 -->
<g id="Node000001" class="node">
<title>Node1</title>
<g id="a_Node000001"><a xlink:title="Determines the optimal move for AI using minimax.">
<polygon fill="#999999" stroke="#666666" points="115,-58 0,-58 0,-38 115,-38 115,-58"/>
<text xml:space="preserve" text-anchor="middle" x="57.5" y="-44.5" font-family="Helvetica,sans-Serif" font-size="10.00">Memory_AI::bestMove</text>
</a>
</g>
</g>
<!-- Node2 -->
<g id="Node000002" class="node">
<title>Node2</title>
<g id="a_Node000002"><a xlink:href="class_player.html#a508617eddfae8915d098102d480fc888" target="_top" xlink:title="Get a pointer to the game board.">
<polygon fill="white" stroke="#666666" points="405,-105 296,-105 296,-85 405,-85 405,-105"/>
<text xml:space="preserve" text-anchor="middle" x="350.5" y="-91.5" font-family="Helvetica,sans-Serif" font-size="10.00">Player::get_board_ptr</text>
</a>
</g>
</g>
<!-- Node1&#45;&gt;Node2 -->
<g id="edge1_Node000001_Node000002" class="edge">
<title>Node1&#45;&gt;Node2</title>
<g id="a_edge1_Node000001_Node000002"><a xlink:title=" ">
<path fill="none" stroke="#63b8ff" d="M78.82,-58.4C97.16,-67.23 125.15,-79.34 151,-85 194.78,-94.58 245.22,-97.01 284.31,-97.09"/>
<polygon fill="#63b8ff" stroke="#63b8ff" points="284.29,-100.59 294.28,-97.05 284.26,-93.59 284.29,-100.59"/>
</a>
</g>
</g>
<!-- Node3 -->
<g id="Node000003" class="node">
<title>Node3</title>
<g id="a_Node000003"><a xlink:href="class_player.html#af56f0bf98c0423a3a75b0848607d03a4" target="_top" xlink:title="Get the player&#39;s symbol.">
<polygon fill="white" stroke="#666666" points="400.5,-20 300.5,-20 300.5,0 400.5,0 400.5,-20"/>
<text xml:space="preserve" text-anchor="middle" x="350.5" y="-6.5" font-family="Helvetica,sans-Serif" font-size="10.00">Player::get_symbol</text>
</a>
</g>
</g>
<!-- Node1&#45;&gt;Node3 -->
<g id="edge2_Node000001_Node000003" class="edge">
<title>Node1&#45;&gt;Node3</title>
<g id="a_edge2_Node000001_Node000003"><a xlink:title=" ">
<path fill="none" stroke="#63b8ff" d="M104.44,-37.55C119.24,-34.46 135.76,-31.29 151,-29 197.12,-22.08 249.66,-17.18 289.1,-14.09"/>
<polygon fill="#63b8ff" stroke="#63b8ff" points="289.16,-17.6 298.87,-13.35 288.63,-10.62 289.16,-17.6"/>
</a>
</g>
</g>
<!-- Node4 -->
<g id="Node000004" class="node">
<title>Node4</title>
<g id="a_Node000004"><a xlink:href="class_memory___a_i.html#a011257fcbc9862c365fc6ffa25624aa9" target="_top" xlink:title="Minimax algorithm with alpha&#45;beta pruning.">
<polygon fill="white" stroke="#666666" points="260,-58 151,-58 151,-38 260,-38 260,-58"/>
<text xml:space="preserve" text-anchor="middle" x="205.5" y="-44.5" font-family="Helvetica,sans-Serif" font-size="10.00">Memory_AI::minimax</text>
</a>
</g>
</g>
<!-- Node1&#45;&gt;Node4 -->
<g id="edge3_Node000001_Node000004" class="edge">
<title>Node1&#45;&gt;Node4</title>
<g id="a_edge3_Node000001_Node000004"><a xlink:title=" ">
<path fill="none" stroke="#63b8ff" d="M115.37,-48C123.31,-48 131.52,-48 139.6,-48"/>
<polygon fill="#63b8ff" stroke="#63b8ff" points="139.38,-51.5 149.38,-48 139.38,-44.5 139.38,-51.5"/>
</a>
</g>
</g>
<!-- Node4&#45;&gt;Node2 -->
<g id="edge5_Node000004_Node000002" class="edge">
<title>Node4&#45;&gt;Node2</title>
<g id="a_edge5_Node000004_Node000002"><a xlink:title=" ">
<path fill="none" stroke="#63b8ff" d="M238.24,-58.43C258.51,-65.09 285.03,-73.81 307.1,-81.06"/>
<polygon fill="#63b8ff" stroke="#63b8ff" points="305.82,-84.33 316.41,-84.13 308.01,-77.68 305.82,-84.33"/>
</a>
</g>
</g>
<!-- Node4&#45;&gt;Node3 -->
<g id="edge6_Node000004_Node000003" class="edge">
<title>Node4&#45;&gt;Node3</title>
<g id="a_edge6_Node000004_Node000003"><a xlink:title=" ">
<path fill="none" stroke="#63b8ff" d="M245.95,-37.52C262.52,-33.11 281.98,-27.94 299.54,-23.28"/>
<polygon fill="#63b8ff" stroke="#63b8ff" points="299.95,-26.79 308.71,-20.84 298.15,-20.02 299.95,-26.79"/>
</a>
</g>
</g>
<!-- Node4&#45;&gt;Node4 -->
<g id="edge7_Node000004_Node000004" class="edge">
<title>Node4&#45;&gt;Node4</title>
<g id="a_edge7_Node000004_Node000004"><a xlink:title=" ">
<path fill="none" stroke="#63b8ff" d="M182.46,-58.34C172.62,-66.98 180.29,-76 205.5,-76 219.28,-76 227.83,-73.3 231.13,-69.44"/>
<polygon fill="#63b8ff" stroke="#63b8ff" points="234.56,-68.76 228.88,-59.81 227.74,-70.35 234.56,-68.76"/>
</a>
</g>
</g>
<!-- Node5 -->
<g id="Node000005" class="node">
<title>Node5</title>
<g id="a_Node000005"><a xlink:href="class_memory___a_i.html#a7ccc7a57734bc0259a07602a67bd9465" target="_top" xlink:title="Evaluates the board state from AI perspective.">
<polygon fill="white" stroke="#666666" points="405,-58 296,-58 296,-38 405,-38 405,-58"/>
<text xml:space="preserve" text-anchor="middle" x="350.5" y="-44.5" font-family="Helvetica,sans-Serif" font-size="10.00">Memory_AI::evaluate</text>
</a>
</g>
</g>
<!-- Node4&#45;&gt;Node5 -->
<g id="edge4_Node000004_Node000005" class="edge">
<title>Node4&#45;&gt;Node5</title>
<g id="a_edge4_Node000004_Node000005"><a xlink:title=" ">
<path fill="none" stroke="#63b8ff" d="M260.15,-48C268.02,-48 276.19,-48 284.26,-48"/>
<polygon fill="#63b8ff" stroke="#63b8ff" points="284.03,-51.5 294.03,-48 284.03,-44.5 284.03,-51.5"/>
</a>
</g>
</g>
</g>
</svg>
