<?xml version="1.0" encoding="UTF-8" standalone="no"?>
<!DOCTYPE svg PUBLIC "-//W3C//DTD SVG 1.1//EN"
 "http://www.w3.org/Graphics/SVG/1.1/DTD/svg11.dtd">
<!-- Generated by graphviz version 14.0.2 (20251019.1705)
 -->
<!-- Title: Ultimate_UI::get_move Pages: 1 -->
<svg width="423pt" height="104pt"
 viewBox="0.00 0.00 423.00 104.00" xmlns="http://www.w3.org/2000/svg" xmlns:xlink="http://www.w3.org/1999/xlink">
<g id="graph0" class="graph" transform="scale(1 1) rotate(0) translate(4 100)">
<title>Ultimate_UI::get_move</title>
<!-- Node1 -->
<g id="Node000001" class="node">
<title>Node1</title>
<g id="a_Node000001"><a xlink:title="Reads next move from human or AI.">
<polygon fill="#999999" stroke="#666666" points="117.25,-58 0,-58 0,-38 117.25,-38 117.25,-58"/>
<text xml:space="preserve" text-anchor="middle" x="58.62" y="-44.5" font-family="Helvetica,sans-Serif" font-size="10.00">Ultimate_UI::get_move</text>
</a>
</g>
</g>
<!-- Node2 -->
<g id="Node000002" class="node">
<title>Node2</title>
<g id="a_Node000002"><a xlink:href="$class_ultimate___a_i.html#aab4c93eccf27f6e37c89dc41f70c9742" xlink:title="Returns a random available move.">
<polygon fill="white" stroke="#666666" points="269.75,-96 153.25,-96 153.25,-76 269.75,-76 269.75,-96"/>
<text xml:space="preserve" text-anchor="middle" x="211.5" y="-82.5" font-family="Helvetica,sans-Serif" font-size="10.00">Ultimate_AI::bestMove</text>
</a>
</g>
</g>
<!-- Node1&#45;&gt;Node2 -->
<g id="edge1_Node000001_Node000002" class="edge">
<title>Node1&#45;&gt;Node2</title>
<g id="a_edge1_Node000001_Node000002"><a xlink:title=" ">
<path fill="none" stroke="#63b8ff" d="M101.25,-58.48C118.81,-62.91 139.46,-68.11 158.05,-72.79"/>
<polygon fill="#63b8ff" stroke="#63b8ff" points="156.99,-76.13 167.54,-75.18 158.7,-69.34 156.99,-76.13"/>
</a>
</g>
</g>
<!-- Node4 -->
<g id="Node000004" class="node">
<title>Node4</title>
<g id="a_Node000004"><a xlink:href="$class_player.html#af56f0bf98c0423a3a75b0848607d03a4" xlink:title="Get the player&#39;s symbol.">
<polygon fill="white" stroke="#666666" points="410.25,-58 310.25,-58 310.25,-38 410.25,-38 410.25,-58"/>
<text xml:space="preserve" text-anchor="middle" x="360.25" y="-44.5" font-family="Helvetica,sans-Serif" font-size="10.00">Player::get_symbol</text>
</a>
</g>
</g>
<!-- Node1&#45;&gt;Node4 -->
<g id="edge4_Node000001_Node000004" class="edge">
<title>Node1&#45;&gt;Node4</title>
<g id="a_edge4_Node000001_Node000004"><a xlink:title=" ">
<path fill="none" stroke="#63b8ff" d="M117.4,-48C169.52,-48 245.91,-48 298.84,-48"/>
<polygon fill="#63b8ff" stroke="#63b8ff" points="298.57,-51.5 308.57,-48 298.57,-44.5 298.57,-51.5"/>
</a>
</g>
</g>
<!-- Node5 -->
<g id="Node000005" class="node">
<title>Node5</title>
<g id="a_Node000005"><a xlink:href="$class_player.html#a2df3bd299bf7aecfa2275ec6902a60f8" xlink:title="Get player type (e.g., &#39;H&#39; or &#39;C&#39;).">
<polygon fill="white" stroke="#666666" points="255.12,-20 167.88,-20 167.88,0 255.12,0 255.12,-20"/>
<text xml:space="preserve" text-anchor="middle" x="211.5" y="-6.5" font-family="Helvetica,sans-Serif" font-size="10.00">Player::get_type</text>
</a>
</g>
</g>
<!-- Node1&#45;&gt;Node5 -->
<g id="edge5_Node000001_Node000005" class="edge">
<title>Node1&#45;&gt;Node5</title>
<g id="a_edge5_Node000001_Node000005"><a xlink:title=" ">
<path fill="none" stroke="#63b8ff" d="M101.25,-37.52C118.81,-33.09 139.46,-27.89 158.05,-23.21"/>
<polygon fill="#63b8ff" stroke="#63b8ff" points="158.7,-26.66 167.54,-20.82 156.99,-19.87 158.7,-26.66"/>
</a>
</g>
</g>
<!-- Node3 -->
<g id="Node000003" class="node">
<title>Node3</title>
<g id="a_Node000003"><a xlink:href="$class_player.html#a508617eddfae8915d098102d480fc888" xlink:title="Get a pointer to the game board.">
<polygon fill="white" stroke="#666666" points="414.75,-96 305.75,-96 305.75,-76 414.75,-76 414.75,-96"/>
<text xml:space="preserve" text-anchor="middle" x="360.25" y="-82.5" font-family="Helvetica,sans-Serif" font-size="10.00">Player::get_board_ptr</text>
</a>
</g>
</g>
<!-- Node2&#45;&gt;Node3 -->
<g id="edge2_Node000002_Node000003" class="edge">
<title>Node2&#45;&gt;Node3</title>
<g id="a_edge2_Node000002_Node000003"><a xlink:title=" ">
<path fill="none" stroke="#63b8ff" d="M270.08,-86C278.05,-86 286.28,-86 294.37,-86"/>
<polygon fill="#63b8ff" stroke="#63b8ff" points="294.15,-89.5 304.15,-86 294.15,-82.5 294.15,-89.5"/>
</a>
</g>
</g>
<!-- Node2&#45;&gt;Node4 -->
<g id="edge3_Node000002_Node000004" class="edge">
<title>Node2&#45;&gt;Node4</title>
<g id="a_edge3_Node000002_Node000004"><a xlink:title=" ">
<path fill="none" stroke="#63b8ff" d="M252.99,-75.52C269.99,-71.11 289.96,-65.94 307.98,-61.28"/>
<polygon fill="#63b8ff" stroke="#63b8ff" points="308.63,-64.72 317.43,-58.83 306.87,-57.95 308.63,-64.72"/>
</a>
</g>
</g>
</g>
</svg>
