<?xml version="1.0" encoding="UTF-8" standalone="no"?>
<!DOCTYPE svg PUBLIC "-//W3C//DTD SVG 1.1//EN"
 "http://www.w3.org/Graphics/SVG/1.1/DTD/svg11.dtd">
<!-- Generated by graphviz version 14.0.2 (20251019.1705)
 -->
<!-- Title: Layer::forward Pages: 1 -->
<svg width="317pt" height="66pt"
 viewBox="0.00 0.00 317.00 66.00" xmlns="http://www.w3.org/2000/svg" xmlns:xlink="http://www.w3.org/1999/xlink">
<g id="graph0" class="graph" transform="scale(1 1) rotate(0) translate(4 62)">
<title>Layer::forward</title>
<!-- Node1 -->
<g id="Node000001" class="node">
<title>Node1</title>
<g id="a_Node000001"><a xlink:title="Forward propagation.">
<polygon fill="#999999" stroke="#666666" points="78.25,-39 0,-39 0,-19 78.25,-19 78.25,-39"/>
<text xml:space="preserve" text-anchor="middle" x="39.12" y="-25.5" font-family="Helvetica,sans-Serif" font-size="10.00">Layer::forward</text>
</a>
</g>
</g>
<!-- Node2 -->
<g id="Node000002" class="node">
<title>Node2</title>
<g id="a_Node000002"><a xlink:href="$class_matrix.html#a79fa5a3893939d8b399f86c6c1ff15a7" xlink:title="Optimized matrix multiplication into a preallocated matrix.">
<polygon fill="white" stroke="#666666" points="197,-39 114.25,-39 114.25,-19 197,-19 197,-39"/>
<text xml:space="preserve" text-anchor="middle" x="155.62" y="-25.5" font-family="Helvetica,sans-Serif" font-size="10.00">Matrix::multiply</text>
</a>
</g>
</g>
<!-- Node1&#45;&gt;Node2 -->
<g id="edge1_Node000001_Node000002" class="edge">
<title>Node1&#45;&gt;Node2</title>
<g id="a_edge1_Node000001_Node000002"><a xlink:title=" ">
<path fill="none" stroke="#63b8ff" d="M78.57,-29C86.34,-29 94.63,-29 102.78,-29"/>
<polygon fill="#63b8ff" stroke="#63b8ff" points="102.61,-32.5 112.61,-29 102.61,-25.5 102.61,-32.5"/>
</a>
</g>
</g>
<!-- Node3 -->
<g id="Node000003" class="node">
<title>Node3</title>
<g id="a_Node000003"><a xlink:href="$class_matrix.html#a500ba010dab4b9ee8e0d1b6f73fcd926" xlink:title="Construct a matrix of size (rows x cols).">
<polygon fill="white" stroke="#666666" points="309,-58 233,-58 233,-38 309,-38 309,-58"/>
<text xml:space="preserve" text-anchor="middle" x="271" y="-44.5" font-family="Helvetica,sans-Serif" font-size="10.00">Matrix::Matrix</text>
</a>
</g>
</g>
<!-- Node2&#45;&gt;Node3 -->
<g id="edge2_Node000002_Node000003" class="edge">
<title>Node2&#45;&gt;Node3</title>
<g id="a_edge2_Node000002_Node000003"><a xlink:title=" ">
<path fill="none" stroke="#63b8ff" d="M197.24,-35.81C205.1,-37.12 213.41,-38.52 221.49,-39.87"/>
<polygon fill="#63b8ff" stroke="#63b8ff" points="220.76,-43.3 231.2,-41.5 221.92,-36.39 220.76,-43.3"/>
</a>
</g>
</g>
<!-- Node4 -->
<g id="Node000004" class="node">
<title>Node4</title>
<g id="a_Node000004"><a xlink:href="$class_matrix.html#afc76f95218a395ba7d12e2831d282acf" xlink:title="Resize matrix to (r x c) and reset all elements to zero.">
<polygon fill="white" stroke="#666666" points="308.62,-20 233.38,-20 233.38,0 308.62,0 308.62,-20"/>
<text xml:space="preserve" text-anchor="middle" x="271" y="-6.5" font-family="Helvetica,sans-Serif" font-size="10.00">Matrix::resize</text>
</a>
</g>
</g>
<!-- Node2&#45;&gt;Node4 -->
<g id="edge3_Node000002_Node000004" class="edge">
<title>Node2&#45;&gt;Node4</title>
<g id="a_edge3_Node000002_Node000004"><a xlink:title=" ">
<path fill="none" stroke="#63b8ff" d="M197.24,-22.19C205.18,-20.86 213.59,-19.45 221.75,-18.09"/>
<polygon fill="#63b8ff" stroke="#63b8ff" points="222.29,-21.54 231.58,-16.44 221.13,-14.64 222.29,-21.54"/>
</a>
</g>
</g>
</g>
</svg>
