<?xml version="1.0" encoding="UTF-8" standalone="no"?>
<!DOCTYPE svg PUBLIC "-//W3C//DTD SVG 1.1//EN"
 "http://www.w3.org/Graphics/SVG/1.1/DTD/svg11.dtd">
<!-- Generated by graphviz version 14.0.2 (20251019.1705)
 -->
<!-- Title: Matrix::multiply Pages: 1 -->
<svg width="215pt" height="66pt"
 viewBox="0.00 0.00 215.00 66.00" xmlns="http://www.w3.org/2000/svg" xmlns:xlink="http://www.w3.org/1999/xlink">
<g id="graph0" class="graph" transform="scale(1 1) rotate(0) translate(4 62)">
<title>Matrix::multiply</title>
<!-- Node1 -->
<g id="Node000001" class="node">
<title>Node1</title>
<g id="a_Node000001"><a xlink:title="Multiply preallocated matrices without allocations.">
<polygon fill="#999999" stroke="#666666" points="206.75,-39 124,-39 124,-19 206.75,-19 206.75,-39"/>
<text xml:space="preserve" text-anchor="middle" x="165.38" y="-25.5" font-family="Helvetica,sans-Serif" font-size="10.00">Matrix::multiply</text>
</a>
</g>
</g>
<!-- Node2 -->
<g id="Node000002" class="node">
<title>Node2</title>
<g id="a_Node000002"><a xlink:href="class_layer.html#a54679a1ee804225a3d09a0685242070a" target="_top" xlink:title="Perform backward propagation through this layer.">
<polygon fill="white" stroke="#666666" points="88,-58 0,-58 0,-38 88,-38 88,-58"/>
<text xml:space="preserve" text-anchor="middle" x="44" y="-44.5" font-family="Helvetica,sans-Serif" font-size="10.00">Layer::backward</text>
</a>
</g>
</g>
<!-- Node1&#45;&gt;Node2 -->
<g id="edge1_Node000001_Node000002" class="edge">
<title>Node1&#45;&gt;Node2</title>
<g id="a_edge1_Node000001_Node000002"><a xlink:title=" ">
<path fill="none" stroke="#63b8ff" d="M112.47,-37.26C104.45,-38.54 96.23,-39.85 88.42,-41.09"/>
<polygon fill="#63b8ff" stroke="#63b8ff" points="112.81,-40.75 122.13,-35.72 111.71,-33.84 112.81,-40.75"/>
</a>
</g>
</g>
<!-- Node3 -->
<g id="Node000003" class="node">
<title>Node3</title>
<g id="a_Node000003"><a xlink:href="class_layer.html#aa1c9e50a099e7fad54c5681f83988d2a" target="_top" xlink:title="Perform forward propagation through this layer.">
<polygon fill="white" stroke="#666666" points="83.12,-20 4.88,-20 4.88,0 83.12,0 83.12,-20"/>
<text xml:space="preserve" text-anchor="middle" x="44" y="-6.5" font-family="Helvetica,sans-Serif" font-size="10.00">Layer::forward</text>
</a>
</g>
</g>
<!-- Node1&#45;&gt;Node3 -->
<g id="edge2_Node000001_Node000003" class="edge">
<title>Node1&#45;&gt;Node3</title>
<g id="a_edge2_Node000001_Node000003"><a xlink:title=" ">
<path fill="none" stroke="#63b8ff" d="M112.43,-20.73C102.73,-19.19 92.76,-17.6 83.55,-16.14"/>
<polygon fill="#63b8ff" stroke="#63b8ff" points="111.71,-24.16 122.13,-22.28 112.81,-17.25 111.71,-24.16"/>
</a>
</g>
</g>
</g>
</svg>
