<?xml version="1.0" encoding="UTF-8" standalone="no"?>
<!DOCTYPE svg PUBLIC "-//W3C//DTD SVG 1.1//EN"
 "http://www.w3.org/Graphics/SVG/1.1/DTD/svg11.dtd">
<!-- Generated by graphviz version 14.0.2 (20251019.1705)
 -->
<!-- Title: FOUR_UI Pages: 1 -->
<svg width="135pt" height="508pt"
 viewBox="0.00 0.00 135.00 508.00" xmlns="http://www.w3.org/2000/svg" xmlns:xlink="http://www.w3.org/1999/xlink">
<g id="graph0" class="graph" transform="scale(1 1) rotate(0) translate(4 504)">
<title>FOUR_UI</title>
<!-- Node1 -->
<g id="Node000001" class="node">
<title>Node1</title>
<g id="a_Node000001"><a xlink:title="Handles UI and player interaction for Connect&#45;Four.">
<polygon fill="#999999" stroke="none" points="104.62,-116 22.12,-116 22.12,0 104.62,0 104.62,-116"/>
<text xml:space="preserve" text-anchor="start" x="41.25" y="-102.5" font-family="Helvetica,sans-Serif" font-size="10.00">FOUR_UI</text>
<text xml:space="preserve" text-anchor="start" x="27.62" y="-86.5" font-family="Helvetica,sans-Serif" font-size="10.00">&#45;</text>
<text xml:space="preserve" text-anchor="start" x="36.12" y="-86.5" font-family="Helvetica,sans-Serif" font-size="10.00">AI</text>
<text xml:space="preserve" text-anchor="start" x="27.62" y="-70.5" font-family="Helvetica,sans-Serif" font-size="10.00">&#45;</text>
<text xml:space="preserve" text-anchor="start" x="36.12" y="-70.5" font-family="Helvetica,sans-Serif" font-size="10.00">OOP</text>
<text xml:space="preserve" text-anchor="start" x="26.12" y="-54.5" font-family="Helvetica,sans-Serif" font-size="10.00">+</text>
<text xml:space="preserve" text-anchor="start" x="36.12" y="-54.5" font-family="Helvetica,sans-Serif" font-size="10.00">FOUR_UI()</text>
<text xml:space="preserve" text-anchor="start" x="26.12" y="-38.5" font-family="Helvetica,sans-Serif" font-size="10.00">+</text>
<text xml:space="preserve" text-anchor="start" x="36.12" y="-38.5" font-family="Helvetica,sans-Serif" font-size="10.00">~FOUR_UI()</text>
<text xml:space="preserve" text-anchor="start" x="26.12" y="-22.5" font-family="Helvetica,sans-Serif" font-size="10.00">+</text>
<text xml:space="preserve" text-anchor="start" x="36.12" y="-22.5" font-family="Helvetica,sans-Serif" font-size="10.00">create_player()</text>
<text xml:space="preserve" text-anchor="start" x="26.12" y="-6.5" font-family="Helvetica,sans-Serif" font-size="10.00">+</text>
<text xml:space="preserve" text-anchor="start" x="36.12" y="-6.5" font-family="Helvetica,sans-Serif" font-size="10.00">get_move()</text>
<polygon fill="#666666" stroke="#666666" points="22.12,-98 22.12,-98 104.62,-98 104.62,-98 22.12,-98"/>
<polygon fill="#666666" stroke="#666666" points="22.12,-66 22.12,-66 34.12,-66 34.12,-66 22.12,-66"/>
<polygon fill="#666666" stroke="#666666" points="34.12,-66 34.12,-66 104.62,-66 104.62,-66 34.12,-66"/>
<polygon fill="none" stroke="#666666" points="22.12,0 22.12,-116 104.62,-116 104.62,0 22.12,0"/>
</a>
</g>
</g>
<!-- Node2 -->
<g id="Node000002" class="node">
<title>Node2</title>
<g id="a_Node000002"><a xlink:href="$class_custom___u_i.html" xlink:title=" ">
<polygon fill="white" stroke="none" points="126.75,-284 0,-284 0,-152 126.75,-152 126.75,-284"/>
<text xml:space="preserve" text-anchor="start" x="19.88" y="-270.5" font-family="Helvetica,sans-Serif" font-size="10.00">Custom_UI&lt; char &gt;</text>
<text xml:space="preserve" text-anchor="start" x="61.88" y="-254.5" font-family="Helvetica,sans-Serif" font-size="10.00"> </text>
<text xml:space="preserve" text-anchor="start" x="4" y="-238.5" font-family="Helvetica,sans-Serif" font-size="10.00">+</text>
<text xml:space="preserve" text-anchor="start" x="14" y="-238.5" font-family="Helvetica,sans-Serif" font-size="10.00">Custom_UI()</text>
<text xml:space="preserve" text-anchor="start" x="4" y="-222.5" font-family="Helvetica,sans-Serif" font-size="10.00">+</text>
<text xml:space="preserve" text-anchor="start" x="14" y="-222.5" font-family="Helvetica,sans-Serif" font-size="10.00">display_message()</text>
<text xml:space="preserve" text-anchor="start" x="4" y="-206.5" font-family="Helvetica,sans-Serif" font-size="10.00">+</text>
<text xml:space="preserve" text-anchor="start" x="14" y="-206.5" font-family="Helvetica,sans-Serif" font-size="10.00">create_player()</text>
<text xml:space="preserve" text-anchor="start" x="4" y="-190.5" font-family="Helvetica,sans-Serif" font-size="10.00">+</text>
<text xml:space="preserve" text-anchor="start" x="14" y="-190.5" font-family="Helvetica,sans-Serif" font-size="10.00">setup_players()</text>
<text xml:space="preserve" text-anchor="start" x="4" y="-174.5" font-family="Helvetica,sans-Serif" font-size="10.00">+</text>
<text xml:space="preserve" text-anchor="start" x="14" y="-174.5" font-family="Helvetica,sans-Serif" font-size="10.00">display_board_matrix()</text>
<text xml:space="preserve" text-anchor="start" x="4.38" y="-158.5" font-family="Helvetica,sans-Serif" font-size="10.00">#</text>
<text xml:space="preserve" text-anchor="start" x="14" y="-158.5" font-family="Helvetica,sans-Serif" font-size="10.00">get_player_type_choice()</text>
<polygon fill="#666666" stroke="#666666" points="0,-266 0,-266 126.75,-266 126.75,-266 0,-266"/>
<polygon fill="#666666" stroke="#666666" points="0,-250 0,-250 126.75,-250 126.75,-250 0,-250"/>
<polygon fill="none" stroke="#666666" points="0,-152 0,-284 126.75,-284 126.75,-152 0,-152"/>
</a>
</g>
</g>
<!-- Node2&#45;&gt;Node1 -->
<g id="edge1_Node000001_Node000002" class="edge">
<title>Node2&#45;&gt;Node1</title>
<g id="a_edge1_Node000001_Node000002"><a xlink:title=" ">
<path fill="none" stroke="#63b8ff" d="M63.38,-140.84C63.38,-132.4 63.38,-123.91 63.38,-115.77"/>
<polygon fill="none" stroke="#63b8ff" points="59.88,-140.77 63.38,-150.77 66.88,-140.77 59.88,-140.77"/>
</a>
</g>
</g>
<!-- Node3 -->
<g id="Node000003" class="node">
<title>Node3</title>
<g id="a_Node000003"><a xlink:href="$class_u_i.html" xlink:title=" ">
<polygon fill="white" stroke="none" points="126.75,-500 0,-500 0,-320 126.75,-320 126.75,-500"/>
<text xml:space="preserve" text-anchor="start" x="39.75" y="-486.5" font-family="Helvetica,sans-Serif" font-size="10.00">UI&lt; char &gt;</text>
<text xml:space="preserve" text-anchor="start" x="4.38" y="-470.5" font-family="Helvetica,sans-Serif" font-size="10.00">#</text>
<text xml:space="preserve" text-anchor="start" x="14" y="-470.5" font-family="Helvetica,sans-Serif" font-size="10.00">cell_width</text>
<text xml:space="preserve" text-anchor="start" x="4" y="-454.5" font-family="Helvetica,sans-Serif" font-size="10.00">+</text>
<text xml:space="preserve" text-anchor="start" x="14" y="-454.5" font-family="Helvetica,sans-Serif" font-size="10.00">UI()</text>
<text xml:space="preserve" text-anchor="start" x="4" y="-438.5" font-family="Helvetica,sans-Serif" font-size="10.00">+</text>
<text xml:space="preserve" text-anchor="start" x="14" y="-438.5" font-family="Helvetica,sans-Serif" font-size="10.00">~UI()</text>
<text xml:space="preserve" text-anchor="start" x="4" y="-422.5" font-family="Helvetica,sans-Serif" font-size="10.00">+</text>
<text xml:space="preserve" text-anchor="start" x="14" y="-422.5" font-family="Helvetica,sans-Serif" font-size="10.00">display_message()</text>
<text xml:space="preserve" text-anchor="start" x="4" y="-406.5" font-family="Helvetica,sans-Serif" font-size="10.00">+</text>
<text xml:space="preserve" text-anchor="start" x="14" y="-406.5" font-family="Helvetica,sans-Serif" font-size="10.00">get_move()</text>
<text xml:space="preserve" text-anchor="start" x="4" y="-390.5" font-family="Helvetica,sans-Serif" font-size="10.00">+</text>
<text xml:space="preserve" text-anchor="start" x="14" y="-390.5" font-family="Helvetica,sans-Serif" font-size="10.00">setup_players()</text>
<text xml:space="preserve" text-anchor="start" x="4" y="-374.5" font-family="Helvetica,sans-Serif" font-size="10.00">+</text>
<text xml:space="preserve" text-anchor="start" x="14" y="-374.5" font-family="Helvetica,sans-Serif" font-size="10.00">create_player()</text>
<text xml:space="preserve" text-anchor="start" x="4" y="-358.5" font-family="Helvetica,sans-Serif" font-size="10.00">+</text>
<text xml:space="preserve" text-anchor="start" x="14" y="-358.5" font-family="Helvetica,sans-Serif" font-size="10.00">display_board_matrix()</text>
<text xml:space="preserve" text-anchor="start" x="4.38" y="-342.5" font-family="Helvetica,sans-Serif" font-size="10.00">#</text>
<text xml:space="preserve" text-anchor="start" x="14" y="-342.5" font-family="Helvetica,sans-Serif" font-size="10.00">get_player_name()</text>
<text xml:space="preserve" text-anchor="start" x="4.38" y="-326.5" font-family="Helvetica,sans-Serif" font-size="10.00">#</text>
<text xml:space="preserve" text-anchor="start" x="14" y="-326.5" font-family="Helvetica,sans-Serif" font-size="10.00">get_player_type_choice()</text>
<polygon fill="#666666" stroke="#666666" points="0,-482 0,-482 126.75,-482 126.75,-482 0,-482"/>
<polygon fill="#666666" stroke="#666666" points="0,-466 0,-466 12,-466 12,-466 0,-466"/>
<polygon fill="#666666" stroke="#666666" points="12,-466 12,-466 126.75,-466 126.75,-466 12,-466"/>
<polygon fill="none" stroke="#666666" points="0,-320 0,-500 126.75,-500 126.75,-320 0,-320"/>
</a>
</g>
</g>
<!-- Node3&#45;&gt;Node2 -->
<g id="edge2_Node000002_Node000003" class="edge">
<title>Node3&#45;&gt;Node2</title>
<g id="a_edge2_Node000002_Node000003"><a xlink:title=" ">
<path fill="none" stroke="#63b8ff" d="M63.38,-308.89C63.38,-300.36 63.38,-291.88 63.38,-283.73"/>
<polygon fill="none" stroke="#63b8ff" points="59.88,-308.61 63.38,-318.61 66.88,-308.61 59.88,-308.61"/>
</a>
</g>
</g>
</g>
</svg>
