<?xml version="1.0" encoding="UTF-8" standalone="no"?>
<!DOCTYPE svg PUBLIC "-//W3C//DTD SVG 1.1//EN"
 "http://www.w3.org/Graphics/SVG/1.1/DTD/svg11.dtd">
<!-- Generated by graphviz version 14.0.2 (20251019.1705)
 -->
<!-- Title: Anti_XO_UI::get_move Pages: 1 -->
<svg width="403pt" height="180pt"
 viewBox="0.00 0.00 403.00 180.00" xmlns="http://www.w3.org/2000/svg" xmlns:xlink="http://www.w3.org/1999/xlink">
<g id="graph0" class="graph" transform="scale(1 1) rotate(0) translate(4 176)">
<title>Anti_XO_UI::get_move</title>
<!-- Node1 -->
<g id="Node000001" class="node">
<title>Node1</title>
<g id="a_Node000001"><a xlink:title="Retrieves the player&#39;s move (human, computer random, or AI).">
<polygon fill="#999999" stroke="#666666" points="117.25,-77 0,-77 0,-57 117.25,-57 117.25,-77"/>
<text xml:space="preserve" text-anchor="middle" x="58.62" y="-63.5" font-family="Helvetica,sans-Serif" font-size="10.00">Anti_XO_UI::get_move</text>
</a>
</g>
</g>
<!-- Node2 -->
<g id="Node000002" class="node">
<title>Node2</title>
<g id="a_Node000002"><a xlink:href="$class_anti___a_i.html#acec0e9ad7768c964434b67ae2e9d354a" xlink:title="Computes the best move by selecting the least dangerous adjacent cell.">
<polygon fill="white" stroke="#666666" points="250.25,-134 153.25,-134 153.25,-114 250.25,-114 250.25,-134"/>
<text xml:space="preserve" text-anchor="middle" x="201.75" y="-120.5" font-family="Helvetica,sans-Serif" font-size="10.00">Anti_AI::bestMove</text>
</a>
</g>
</g>
<!-- Node1&#45;&gt;Node2 -->
<g id="edge1_Node000001_Node000002" class="edge">
<title>Node1&#45;&gt;Node2</title>
<g id="a_edge1_Node000001_Node000002"><a xlink:title=" ">
<path fill="none" stroke="#63b8ff" d="M85.51,-77.45C107.69,-86.41 139.88,-99.41 164.6,-109.4"/>
<polygon fill="#63b8ff" stroke="#63b8ff" points="163.04,-112.54 173.63,-113.04 165.66,-106.05 163.04,-112.54"/>
</a>
</g>
</g>
<!-- Node5 -->
<g id="Node000005" class="node">
<title>Node5</title>
<g id="a_Node000005"><a xlink:href="$class_player.html#af56f0bf98c0423a3a75b0848607d03a4" xlink:title="Get the player&#39;s symbol.">
<polygon fill="white" stroke="#666666" points="390.75,-96 290.75,-96 290.75,-76 390.75,-76 390.75,-96"/>
<text xml:space="preserve" text-anchor="middle" x="340.75" y="-82.5" font-family="Helvetica,sans-Serif" font-size="10.00">Player::get_symbol</text>
</a>
</g>
</g>
<!-- Node1&#45;&gt;Node5 -->
<g id="edge6_Node000001_Node000005" class="edge">
<title>Node1&#45;&gt;Node5</title>
<g id="a_edge6_Node000001_Node000005"><a xlink:title=" ">
<path fill="none" stroke="#63b8ff" d="M117.67,-70.94C164.89,-74.14 231.33,-78.65 279.22,-81.89"/>
<polygon fill="#63b8ff" stroke="#63b8ff" points="278.94,-85.38 289.15,-82.57 279.41,-78.4 278.94,-85.38"/>
</a>
</g>
</g>
<!-- Node6 -->
<g id="Node000006" class="node">
<title>Node6</title>
<g id="a_Node000006"><a xlink:href="$class_player.html#aed2af19790ba73190e3ebeea589518e1" xlink:title="Get the player&#39;s name.">
<polygon fill="white" stroke="#666666" points="248,-58 155.5,-58 155.5,-38 248,-38 248,-58"/>
<text xml:space="preserve" text-anchor="middle" x="201.75" y="-44.5" font-family="Helvetica,sans-Serif" font-size="10.00">Player::get_name</text>
</a>
</g>
</g>
<!-- Node1&#45;&gt;Node6 -->
<g id="edge5_Node000001_Node000006" class="edge">
<title>Node1&#45;&gt;Node6</title>
<g id="a_edge5_Node000001_Node000006"><a xlink:title=" ">
<path fill="none" stroke="#63b8ff" d="M117.43,-59.22C126.22,-58.03 135.28,-56.81 144.04,-55.63"/>
<polygon fill="#63b8ff" stroke="#63b8ff" points="144.4,-59.12 153.84,-54.32 143.46,-52.18 144.4,-59.12"/>
</a>
</g>
</g>
<!-- Node7 -->
<g id="Node000007" class="node">
<title>Node7</title>
<g id="a_Node000007"><a xlink:href="$class_player.html#a2df3bd299bf7aecfa2275ec6902a60f8" xlink:title="Get player type (e.g., &#39;H&#39; or &#39;C&#39;).">
<polygon fill="white" stroke="#666666" points="245.38,-20 158.12,-20 158.12,0 245.38,0 245.38,-20"/>
<text xml:space="preserve" text-anchor="middle" x="201.75" y="-6.5" font-family="Helvetica,sans-Serif" font-size="10.00">Player::get_type</text>
</a>
</g>
</g>
<!-- Node1&#45;&gt;Node7 -->
<g id="edge7_Node000001_Node000007" class="edge">
<title>Node1&#45;&gt;Node7</title>
<g id="a_edge7_Node000001_Node000007"><a xlink:title=" ">
<path fill="none" stroke="#63b8ff" d="M85.04,-56.64C103.87,-48.98 130.15,-38.31 153.25,-29 156.82,-27.56 160.54,-26.07 164.26,-24.58"/>
<polygon fill="#63b8ff" stroke="#63b8ff" points="165.22,-27.96 173.2,-20.99 162.62,-21.46 165.22,-27.96"/>
</a>
</g>
</g>
<!-- Node3 -->
<g id="Node000003" class="node">
<title>Node3</title>
<g id="a_Node000003"><a xlink:href="$class_anti___a_i.html#a7ab3874b1067c35ec41b8b34d1184f87" xlink:title="Checks that coordinates are within the board bounds.">
<polygon fill="white" stroke="#666666" points="386.25,-172 295.25,-172 295.25,-152 386.25,-152 386.25,-172"/>
<text xml:space="preserve" text-anchor="middle" x="340.75" y="-158.5" font-family="Helvetica,sans-Serif" font-size="10.00">Anti_AI::bounded</text>
</a>
</g>
</g>
<!-- Node2&#45;&gt;Node3 -->
<g id="edge2_Node000002_Node000003" class="edge">
<title>Node2&#45;&gt;Node3</title>
<g id="a_edge2_Node000002_Node000003"><a xlink:title=" ">
<path fill="none" stroke="#63b8ff" d="M240.55,-134.48C256.27,-138.85 274.71,-143.96 291.41,-148.59"/>
<polygon fill="#63b8ff" stroke="#63b8ff" points="290.04,-151.85 300.62,-151.15 291.92,-145.1 290.04,-151.85"/>
</a>
</g>
</g>
<!-- Node4 -->
<g id="Node000004" class="node">
<title>Node4</title>
<g id="a_Node000004"><a xlink:href="$class_player.html#a508617eddfae8915d098102d480fc888" xlink:title="Get a pointer to the game board.">
<polygon fill="white" stroke="#666666" points="395.25,-134 286.25,-134 286.25,-114 395.25,-114 395.25,-134"/>
<text xml:space="preserve" text-anchor="middle" x="340.75" y="-120.5" font-family="Helvetica,sans-Serif" font-size="10.00">Player::get_board_ptr</text>
</a>
</g>
</g>
<!-- Node2&#45;&gt;Node4 -->
<g id="edge3_Node000002_Node000004" class="edge">
<title>Node2&#45;&gt;Node4</title>
<g id="a_edge3_Node000002_Node000004"><a xlink:title=" ">
<path fill="none" stroke="#63b8ff" d="M250.67,-124C258.43,-124 266.58,-124 274.67,-124"/>
<polygon fill="#63b8ff" stroke="#63b8ff" points="274.5,-127.5 284.5,-124 274.5,-120.5 274.5,-127.5"/>
</a>
</g>
</g>
<!-- Node2&#45;&gt;Node5 -->
<g id="edge4_Node000002_Node000005" class="edge">
<title>Node2&#45;&gt;Node5</title>
<g id="a_edge4_Node000002_Node000005"><a xlink:title=" ">
<path fill="none" stroke="#63b8ff" d="M240.55,-113.52C256.27,-109.15 274.71,-104.04 291.41,-99.41"/>
<polygon fill="#63b8ff" stroke="#63b8ff" points="291.92,-102.9 300.62,-96.85 290.04,-96.15 291.92,-102.9"/>
</a>
</g>
</g>
</g>
</svg>
