<?xml version="1.0" encoding="UTF-8" standalone="no"?>
<!DOCTYPE svg PUBLIC "-//W3C//DTD SVG 1.1//EN"
 "http://www.w3.org/Graphics/SVG/1.1/DTD/svg11.dtd">
<!-- Generated by graphviz version 14.0.2 (20251019.1705)
 -->
<!-- Title: Word_XO_Board Pages: 1 -->
<svg width="258pt" height="1030pt"
 viewBox="0.00 0.00 258.00 1030.00" xmlns="http://www.w3.org/2000/svg" xmlns:xlink="http://www.w3.org/1999/xlink">
<g id="graph0" class="graph" transform="scale(1 1) rotate(0) translate(4 1026)">
<title>Word_XO_Board</title>
<!-- Node1 -->
<g id="Node000001" class="node">
<title>Node1</title>
<g id="a_Node000001"><a xlink:title="Game board implementation for the Word&#45;based Tic&#45;Tac&#45;Toe variant.">
<polygon fill="#999999" stroke="none" points="210.62,-372 113.88,-372 113.88,0 210.62,0 210.62,-372"/>
<text xml:space="preserve" text-anchor="start" x="125.88" y="-358.5" font-family="Helvetica,sans-Serif" font-size="10.00">Word_XO_Board</text>
<text xml:space="preserve" text-anchor="start" x="119.38" y="-342.5" font-family="Helvetica,sans-Serif" font-size="10.00">&#45;</text>
<text xml:space="preserve" text-anchor="start" x="127.88" y="-342.5" font-family="Helvetica,sans-Serif" font-size="10.00">nMoves</text>
<text xml:space="preserve" text-anchor="start" x="119.38" y="-326.5" font-family="Helvetica,sans-Serif" font-size="10.00">&#45;</text>
<text xml:space="preserve" text-anchor="start" x="127.88" y="-326.5" font-family="Helvetica,sans-Serif" font-size="10.00">emptyCell</text>
<text xml:space="preserve" text-anchor="start" x="117.88" y="-310.5" font-family="Helvetica,sans-Serif" font-size="10.00">+</text>
<text xml:space="preserve" text-anchor="start" x="127.88" y="-310.5" font-family="Helvetica,sans-Serif" font-size="10.00">Word_XO_Board()</text>
<text xml:space="preserve" text-anchor="start" x="117.88" y="-294.5" font-family="Helvetica,sans-Serif" font-size="10.00">+</text>
<text xml:space="preserve" text-anchor="start" x="127.88" y="-294.5" font-family="Helvetica,sans-Serif" font-size="10.00">getEmptyCell()</text>
<text xml:space="preserve" text-anchor="start" x="117.88" y="-278.5" font-family="Helvetica,sans-Serif" font-size="10.00">+</text>
<text xml:space="preserve" text-anchor="start" x="127.88" y="-278.5" font-family="Helvetica,sans-Serif" font-size="10.00">getMoveCount()</text>
<text xml:space="preserve" text-anchor="start" x="117.88" y="-262.5" font-family="Helvetica,sans-Serif" font-size="10.00">+</text>
<text xml:space="preserve" text-anchor="start" x="127.88" y="-262.5" font-family="Helvetica,sans-Serif" font-size="10.00">wordExist()</text>
<text xml:space="preserve" text-anchor="start" x="117.88" y="-246.5" font-family="Helvetica,sans-Serif" font-size="10.00">+</text>
<text xml:space="preserve" text-anchor="start" x="127.88" y="-246.5" font-family="Helvetica,sans-Serif" font-size="10.00">update_board()</text>
<text xml:space="preserve" text-anchor="start" x="117.88" y="-230.5" font-family="Helvetica,sans-Serif" font-size="10.00">+</text>
<text xml:space="preserve" text-anchor="start" x="127.88" y="-230.5" font-family="Helvetica,sans-Serif" font-size="10.00">setLastPlayer()</text>
<text xml:space="preserve" text-anchor="start" x="117.88" y="-214.5" font-family="Helvetica,sans-Serif" font-size="10.00">+</text>
<text xml:space="preserve" text-anchor="start" x="127.88" y="-214.5" font-family="Helvetica,sans-Serif" font-size="10.00">game_is_over()</text>
<text xml:space="preserve" text-anchor="start" x="117.88" y="-198.5" font-family="Helvetica,sans-Serif" font-size="10.00">+</text>
<text xml:space="preserve" text-anchor="start" x="127.88" y="-198.5" font-family="Helvetica,sans-Serif" font-size="10.00">is_win()</text>
<text xml:space="preserve" text-anchor="start" x="117.88" y="-182.5" font-family="Helvetica,sans-Serif" font-size="10.00">+</text>
<text xml:space="preserve" text-anchor="start" x="127.88" y="-182.5" font-family="Helvetica,sans-Serif" font-size="10.00">is_lose()</text>
<text xml:space="preserve" text-anchor="start" x="117.88" y="-166.5" font-family="Helvetica,sans-Serif" font-size="10.00">+</text>
<text xml:space="preserve" text-anchor="start" x="127.88" y="-166.5" font-family="Helvetica,sans-Serif" font-size="10.00">is_draw()</text>
<text xml:space="preserve" text-anchor="start" x="119" y="-150.5" font-family="Helvetica,sans-Serif" font-size="10.00">*</text>
<text xml:space="preserve" text-anchor="start" x="127.88" y="-150.5" font-family="Helvetica,sans-Serif" font-size="10.00">Word_XO_Board()</text>
<text xml:space="preserve" text-anchor="start" x="119" y="-134.5" font-family="Helvetica,sans-Serif" font-size="10.00">*</text>
<text xml:space="preserve" text-anchor="start" x="127.88" y="-134.5" font-family="Helvetica,sans-Serif" font-size="10.00">getEmptyCell()</text>
<text xml:space="preserve" text-anchor="start" x="119" y="-118.5" font-family="Helvetica,sans-Serif" font-size="10.00">*</text>
<text xml:space="preserve" text-anchor="start" x="127.88" y="-118.5" font-family="Helvetica,sans-Serif" font-size="10.00">getMoveCount()</text>
<text xml:space="preserve" text-anchor="start" x="119" y="-102.5" font-family="Helvetica,sans-Serif" font-size="10.00">*</text>
<text xml:space="preserve" text-anchor="start" x="127.88" y="-102.5" font-family="Helvetica,sans-Serif" font-size="10.00">wordExist()</text>
<text xml:space="preserve" text-anchor="start" x="119" y="-86.5" font-family="Helvetica,sans-Serif" font-size="10.00">*</text>
<text xml:space="preserve" text-anchor="start" x="127.88" y="-86.5" font-family="Helvetica,sans-Serif" font-size="10.00">update_board()</text>
<text xml:space="preserve" text-anchor="start" x="119" y="-70.5" font-family="Helvetica,sans-Serif" font-size="10.00">*</text>
<text xml:space="preserve" text-anchor="start" x="127.88" y="-70.5" font-family="Helvetica,sans-Serif" font-size="10.00">setLastPlayer()</text>
<text xml:space="preserve" text-anchor="start" x="119" y="-54.5" font-family="Helvetica,sans-Serif" font-size="10.00">*</text>
<text xml:space="preserve" text-anchor="start" x="127.88" y="-54.5" font-family="Helvetica,sans-Serif" font-size="10.00">game_is_over()</text>
<text xml:space="preserve" text-anchor="start" x="119" y="-38.5" font-family="Helvetica,sans-Serif" font-size="10.00">*</text>
<text xml:space="preserve" text-anchor="start" x="127.88" y="-38.5" font-family="Helvetica,sans-Serif" font-size="10.00">is_win()</text>
<text xml:space="preserve" text-anchor="start" x="119" y="-22.5" font-family="Helvetica,sans-Serif" font-size="10.00">*</text>
<text xml:space="preserve" text-anchor="start" x="127.88" y="-22.5" font-family="Helvetica,sans-Serif" font-size="10.00">is_lose()</text>
<text xml:space="preserve" text-anchor="start" x="119" y="-6.5" font-family="Helvetica,sans-Serif" font-size="10.00">*</text>
<text xml:space="preserve" text-anchor="start" x="127.88" y="-6.5" font-family="Helvetica,sans-Serif" font-size="10.00">is_draw()</text>
<polygon fill="#666666" stroke="#666666" points="113.88,-354 113.88,-354 210.62,-354 210.62,-354 113.88,-354"/>
<polygon fill="#666666" stroke="#666666" points="113.88,-322 113.88,-322 125.88,-322 125.88,-322 113.88,-322"/>
<polygon fill="#666666" stroke="#666666" points="125.88,-322 125.88,-322 210.62,-322 210.62,-322 125.88,-322"/>
<polygon fill="none" stroke="#666666" points="113.88,0 113.88,-372 210.62,-372 210.62,0 113.88,0"/>
</a>
</g>
</g>
<!-- Node2 -->
<g id="Node000002" class="node">
<title>Node2</title>
<g id="a_Node000002"><a xlink:href="$class_board.html" xlink:title=" ">
<polygon fill="white" stroke="none" points="249.75,-904 150.75,-904 150.75,-660 249.75,-660 249.75,-904"/>
<text xml:space="preserve" text-anchor="start" x="169.12" y="-890.5" font-family="Helvetica,sans-Serif" font-size="10.00">Board&lt; char &gt;</text>
<text xml:space="preserve" text-anchor="start" x="155.12" y="-874.5" font-family="Helvetica,sans-Serif" font-size="10.00">#</text>
<text xml:space="preserve" text-anchor="start" x="164.75" y="-874.5" font-family="Helvetica,sans-Serif" font-size="10.00">rows</text>
<text xml:space="preserve" text-anchor="start" x="155.12" y="-858.5" font-family="Helvetica,sans-Serif" font-size="10.00">#</text>
<text xml:space="preserve" text-anchor="start" x="164.75" y="-858.5" font-family="Helvetica,sans-Serif" font-size="10.00">columns</text>
<text xml:space="preserve" text-anchor="start" x="155.12" y="-842.5" font-family="Helvetica,sans-Serif" font-size="10.00">#</text>
<text xml:space="preserve" text-anchor="start" x="164.75" y="-842.5" font-family="Helvetica,sans-Serif" font-size="10.00">n_moves</text>
<text xml:space="preserve" text-anchor="start" x="154.75" y="-826.5" font-family="Helvetica,sans-Serif" font-size="10.00">+</text>
<text xml:space="preserve" text-anchor="start" x="164.75" y="-826.5" font-family="Helvetica,sans-Serif" font-size="10.00">Board()</text>
<text xml:space="preserve" text-anchor="start" x="154.75" y="-810.5" font-family="Helvetica,sans-Serif" font-size="10.00">+</text>
<text xml:space="preserve" text-anchor="start" x="164.75" y="-810.5" font-family="Helvetica,sans-Serif" font-size="10.00">~Board()</text>
<text xml:space="preserve" text-anchor="start" x="154.75" y="-794.5" font-family="Helvetica,sans-Serif" font-size="10.00">+</text>
<text xml:space="preserve" text-anchor="start" x="164.75" y="-794.5" font-family="Helvetica,sans-Serif" font-size="10.00">update_board()</text>
<text xml:space="preserve" text-anchor="start" x="154.75" y="-778.5" font-family="Helvetica,sans-Serif" font-size="10.00">+</text>
<text xml:space="preserve" text-anchor="start" x="164.75" y="-778.5" font-family="Helvetica,sans-Serif" font-size="10.00">is_win()</text>
<text xml:space="preserve" text-anchor="start" x="154.75" y="-762.5" font-family="Helvetica,sans-Serif" font-size="10.00">+</text>
<text xml:space="preserve" text-anchor="start" x="164.75" y="-762.5" font-family="Helvetica,sans-Serif" font-size="10.00">is_lose()</text>
<text xml:space="preserve" text-anchor="start" x="154.75" y="-746.5" font-family="Helvetica,sans-Serif" font-size="10.00">+</text>
<text xml:space="preserve" text-anchor="start" x="164.75" y="-746.5" font-family="Helvetica,sans-Serif" font-size="10.00">is_draw()</text>
<text xml:space="preserve" text-anchor="start" x="154.75" y="-730.5" font-family="Helvetica,sans-Serif" font-size="10.00">+</text>
<text xml:space="preserve" text-anchor="start" x="164.75" y="-730.5" font-family="Helvetica,sans-Serif" font-size="10.00">game_is_over()</text>
<text xml:space="preserve" text-anchor="start" x="154.75" y="-714.5" font-family="Helvetica,sans-Serif" font-size="10.00">+</text>
<text xml:space="preserve" text-anchor="start" x="164.75" y="-714.5" font-family="Helvetica,sans-Serif" font-size="10.00">get_board_matrix()</text>
<text xml:space="preserve" text-anchor="start" x="154.75" y="-698.5" font-family="Helvetica,sans-Serif" font-size="10.00">+</text>
<text xml:space="preserve" text-anchor="start" x="164.75" y="-698.5" font-family="Helvetica,sans-Serif" font-size="10.00">get_rows()</text>
<text xml:space="preserve" text-anchor="start" x="154.75" y="-682.5" font-family="Helvetica,sans-Serif" font-size="10.00">+</text>
<text xml:space="preserve" text-anchor="start" x="164.75" y="-682.5" font-family="Helvetica,sans-Serif" font-size="10.00">get_columns()</text>
<text xml:space="preserve" text-anchor="start" x="154.75" y="-666.5" font-family="Helvetica,sans-Serif" font-size="10.00">+</text>
<text xml:space="preserve" text-anchor="start" x="164.75" y="-666.5" font-family="Helvetica,sans-Serif" font-size="10.00">get_cell()</text>
<polygon fill="#666666" stroke="#666666" points="150.75,-886 150.75,-886 249.75,-886 249.75,-886 150.75,-886"/>
<polygon fill="#666666" stroke="#666666" points="150.75,-838 150.75,-838 162.75,-838 162.75,-838 150.75,-838"/>
<polygon fill="#666666" stroke="#666666" points="162.75,-838 162.75,-838 249.75,-838 249.75,-838 162.75,-838"/>
<polygon fill="none" stroke="#666666" points="150.75,-660 150.75,-904 249.75,-904 249.75,-660 150.75,-660"/>
</a>
</g>
</g>
<!-- Node2&#45;&gt;Node1 -->
<g id="edge1_Node000001_Node000002" class="edge">
<title>Node2&#45;&gt;Node1</title>
<g id="a_edge1_Node000001_Node000002"><a xlink:title=" ">
<path fill="none" stroke="#63b8ff" d="M217.78,-648.75C217.95,-646.48 218.11,-644.23 218.25,-642 225.46,-530.23 233.28,-500.99 218.25,-390 216.34,-375.87 213.71,-361.34 210.62,-346.84"/>
<polygon fill="none" stroke="#63b8ff" points="214.3,-648.41 216.97,-658.66 221.27,-648.98 214.3,-648.41"/>
</a>
</g>
</g>
<!-- Node7 -->
<g id="Node000007" class="node">
<title>Node7</title>
<g id="a_Node000007"><a xlink:href="$class_player.html" xlink:title=" ">
<polygon fill="white" stroke="none" points="203.88,-606 120.62,-606 120.62,-442 203.88,-442 203.88,-606"/>
<text xml:space="preserve" text-anchor="start" x="130" y="-592.5" font-family="Helvetica,sans-Serif" font-size="10.00">Player&lt; char &gt;</text>
<text xml:space="preserve" text-anchor="start" x="125" y="-576.5" font-family="Helvetica,sans-Serif" font-size="10.00">#</text>
<text xml:space="preserve" text-anchor="start" x="134.62" y="-576.5" font-family="Helvetica,sans-Serif" font-size="10.00">type</text>
<text xml:space="preserve" text-anchor="start" x="125" y="-560.5" font-family="Helvetica,sans-Serif" font-size="10.00">#</text>
<text xml:space="preserve" text-anchor="start" x="134.62" y="-560.5" font-family="Helvetica,sans-Serif" font-size="10.00">symbol</text>
<text xml:space="preserve" text-anchor="start" x="124.62" y="-544.5" font-family="Helvetica,sans-Serif" font-size="10.00">+</text>
<text xml:space="preserve" text-anchor="start" x="134.62" y="-544.5" font-family="Helvetica,sans-Serif" font-size="10.00">Player()</text>
<text xml:space="preserve" text-anchor="start" x="124.62" y="-528.5" font-family="Helvetica,sans-Serif" font-size="10.00">+</text>
<text xml:space="preserve" text-anchor="start" x="134.62" y="-528.5" font-family="Helvetica,sans-Serif" font-size="10.00">~Player()</text>
<text xml:space="preserve" text-anchor="start" x="124.62" y="-512.5" font-family="Helvetica,sans-Serif" font-size="10.00">+</text>
<text xml:space="preserve" text-anchor="start" x="134.62" y="-512.5" font-family="Helvetica,sans-Serif" font-size="10.00">get_name()</text>
<text xml:space="preserve" text-anchor="start" x="124.62" y="-496.5" font-family="Helvetica,sans-Serif" font-size="10.00">+</text>
<text xml:space="preserve" text-anchor="start" x="134.62" y="-496.5" font-family="Helvetica,sans-Serif" font-size="10.00">get_type()</text>
<text xml:space="preserve" text-anchor="start" x="124.62" y="-480.5" font-family="Helvetica,sans-Serif" font-size="10.00">+</text>
<text xml:space="preserve" text-anchor="start" x="134.62" y="-480.5" font-family="Helvetica,sans-Serif" font-size="10.00">get_symbol()</text>
<text xml:space="preserve" text-anchor="start" x="124.62" y="-464.5" font-family="Helvetica,sans-Serif" font-size="10.00">+</text>
<text xml:space="preserve" text-anchor="start" x="134.62" y="-464.5" font-family="Helvetica,sans-Serif" font-size="10.00">get_board_ptr()</text>
<text xml:space="preserve" text-anchor="start" x="124.62" y="-448.5" font-family="Helvetica,sans-Serif" font-size="10.00">+</text>
<text xml:space="preserve" text-anchor="start" x="134.62" y="-448.5" font-family="Helvetica,sans-Serif" font-size="10.00">set_board_ptr()</text>
<polygon fill="#666666" stroke="#666666" points="120.62,-588 120.62,-588 203.88,-588 203.88,-588 120.62,-588"/>
<polygon fill="#666666" stroke="#666666" points="120.62,-556 120.62,-556 132.62,-556 132.62,-556 120.62,-556"/>
<polygon fill="#666666" stroke="#666666" points="132.62,-556 132.62,-556 203.88,-556 203.88,-556 132.62,-556"/>
<polygon fill="none" stroke="#666666" points="120.62,-442 120.62,-606 203.88,-606 203.88,-442 120.62,-442"/>
</a>
</g>
</g>
<!-- Node2&#45;&gt;Node7 -->
<g id="edge8_Node000007_Node000002" class="edge">
<title>Node2&#45;&gt;Node7</title>
<g id="a_edge8_Node000007_Node000002"><a xlink:title=" ">
<path fill="none" stroke="#63b8ff" d="M173.1,-660.27C172.06,-654.1 171.1,-647.99 170.25,-642 169.18,-634.42 168.25,-626.54 167.44,-618.61"/>
<polygon fill="none" stroke="#63b8ff" points="167.44,-618.57 162.9,-612.96 166.32,-606.62 170.86,-612.22 167.44,-618.57"/>
</a>
</g>
<text xml:space="preserve" text-anchor="start" x="173.25" y="-629.5" font-family="Helvetica,sans-Serif" font-size="10.00" fill="grey">#boardPtr</text>
</g>
<!-- Node3 -->
<g id="Node000003" class="node">
<title>Node3</title>
<g id="a_Node000003"><a xlink:title=" ">
<polygon fill="white" stroke="none" points="245.5,-1022 155,-1022 155,-958 245.5,-958 245.5,-1022"/>
<text xml:space="preserve" text-anchor="start" x="159" y="-1008.5" font-family="Helvetica,sans-Serif" font-size="10.00">std::vector&lt; vector</text>
<text xml:space="preserve" text-anchor="start" x="177.38" y="-996.5" font-family="Helvetica,sans-Serif" font-size="10.00">&lt; char &gt; &gt;</text>
<text xml:space="preserve" text-anchor="start" x="167.19" y="-980.5" font-family="Helvetica,sans-Serif" font-size="10.00">+</text>
<text xml:space="preserve" text-anchor="start" x="185.38" y="-980.5" font-family="Helvetica,sans-Serif" font-size="10.00">elements</text>
<text xml:space="preserve" text-anchor="start" x="198.75" y="-964.5" font-family="Helvetica,sans-Serif" font-size="10.00"> </text>
<polygon fill="#666666" stroke="#666666" points="155,-992 155,-992 245.5,-992 245.5,-992 155,-992"/>
<polygon fill="#666666" stroke="#666666" points="155,-976 155,-976 183.38,-976 183.38,-976 155,-976"/>
<polygon fill="#666666" stroke="#666666" points="183.38,-976 183.38,-976 245.5,-976 245.5,-976 183.38,-976"/>
<polygon fill="none" stroke="#666666" points="155,-958 155,-1022 245.5,-1022 245.5,-958 155,-958"/>
</a>
</g>
</g>
<!-- Node3&#45;&gt;Node2 -->
<g id="edge2_Node000002_Node000003" class="edge">
<title>Node3&#45;&gt;Node2</title>
<g id="a_edge2_Node000002_Node000003"><a xlink:title=" ">
<path fill="none" stroke="#63b8ff" d="M200.25,-958.16C200.25,-946.41 200.25,-932.14 200.25,-916.88"/>
<polygon fill="none" stroke="#63b8ff" points="200.25,-916.75 196.25,-910.75 200.25,-904.75 204.25,-910.75 200.25,-916.75"/>
</a>
</g>
<text xml:space="preserve" text-anchor="start" x="203.25" y="-927.5" font-family="Helvetica,sans-Serif" font-size="10.00" fill="grey">#board</text>
</g>
<!-- Node4 -->
<g id="Node000004" class="node">
<title>Node4</title>
<g id="a_Node000004"><a xlink:title=" ">
<polygon fill="white" stroke="none" points="102.5,-550 0,-550 0,-498 102.5,-498 102.5,-550"/>
<text xml:space="preserve" text-anchor="start" x="4" y="-536.5" font-family="Helvetica,sans-Serif" font-size="10.00">std::set&lt; std::string &gt;</text>
<text xml:space="preserve" text-anchor="start" x="49.75" y="-520.5" font-family="Helvetica,sans-Serif" font-size="10.00"> </text>
<text xml:space="preserve" text-anchor="start" x="49.75" y="-504.5" font-family="Helvetica,sans-Serif" font-size="10.00"> </text>
<polygon fill="#666666" stroke="#666666" points="0,-532 0,-532 102.5,-532 102.5,-532 0,-532"/>
<polygon fill="#666666" stroke="#666666" points="0,-516 0,-516 102.5,-516 102.5,-516 0,-516"/>
<polygon fill="none" stroke="#666666" points="0,-498 0,-550 102.5,-550 102.5,-498 0,-498"/>
</a>
</g>
</g>
<!-- Node4&#45;&gt;Node1 -->
<g id="edge3_Node000001_Node000004" class="edge">
<title>Node4&#45;&gt;Node1</title>
<g id="a_edge3_Node000001_Node000004"><a xlink:title=" ">
<path fill="none" stroke="#63b8ff" d="M59.5,-498.02C70.38,-465.08 90.44,-404.36 109.97,-345.25"/>
<polygon fill="none" stroke="#63b8ff" points="109.95,-345.31 108.03,-338.36 113.71,-333.92 115.63,-340.87 109.95,-345.31"/>
</a>
</g>
<text xml:space="preserve" text-anchor="start" x="96.54" y="-411.5" font-family="Helvetica,sans-Serif" font-size="10.00" fill="grey">+dict</text>
<text xml:space="preserve" text-anchor="start" x="96.54" y="-395.5" font-family="Helvetica,sans-Serif" font-size="10.00" fill="grey">+revDict</text>
</g>
<!-- Node5 -->
<g id="Node000005" class="node">
<title>Node5</title>
<g id="a_Node000005"><a xlink:title=" ">
<polygon fill="white" stroke="none" points="82,-808 30.5,-808 30.5,-756 82,-756 82,-808"/>
<text xml:space="preserve" text-anchor="start" x="34.5" y="-794.5" font-family="Helvetica,sans-Serif" font-size="10.00">std::string</text>
<text xml:space="preserve" text-anchor="start" x="54.75" y="-778.5" font-family="Helvetica,sans-Serif" font-size="10.00"> </text>
<text xml:space="preserve" text-anchor="start" x="54.75" y="-762.5" font-family="Helvetica,sans-Serif" font-size="10.00"> </text>
<polygon fill="#666666" stroke="#666666" points="30.5,-790 30.5,-790 82,-790 82,-790 30.5,-790"/>
<polygon fill="#666666" stroke="#666666" points="30.5,-774 30.5,-774 82,-774 82,-774 30.5,-774"/>
<polygon fill="none" stroke="#666666" points="30.5,-756 30.5,-808 82,-808 82,-756 30.5,-756"/>
</a>
</g>
</g>
<!-- Node5&#45;&gt;Node4 -->
<g id="edge4_Node000004_Node000005" class="edge">
<title>Node5&#45;&gt;Node4</title>
<g id="a_edge4_Node000004_Node000005"><a xlink:title=" ">
<path fill="none" stroke="#63b8ff" d="M55.77,-756.45C54.89,-711.56 53.03,-615.93 51.99,-562.72"/>
<polygon fill="none" stroke="#63b8ff" points="51.99,-562.75 47.87,-556.83 51.75,-550.75 55.87,-556.67 51.99,-562.75"/>
</a>
</g>
<text xml:space="preserve" text-anchor="start" x="56.45" y="-629.5" font-family="Helvetica,sans-Serif" font-size="10.00" fill="grey">+keys</text>
</g>
<!-- Node5&#45;&gt;Node7 -->
<g id="edge7_Node000007_Node000005" class="edge">
<title>Node5&#45;&gt;Node7</title>
<g id="a_edge7_Node000007_Node000005"><a xlink:title=" ">
<path fill="none" stroke="#63b8ff" d="M66.41,-756.45C79.61,-724.59 103.37,-667.19 123.94,-617.52"/>
<polygon fill="none" stroke="#63b8ff" points="123.88,-617.66 122.48,-610.59 128.47,-606.58 129.87,-613.65 123.88,-617.66"/>
</a>
</g>
<text xml:space="preserve" text-anchor="start" x="121.74" y="-629.5" font-family="Helvetica,sans-Serif" font-size="10.00" fill="grey">#name</text>
</g>
<!-- Node6 -->
<g id="Node000006" class="node">
<title>Node6</title>
<g id="a_Node000006"><a xlink:title=" ">
<polygon fill="white" stroke="none" points="99.25,-1022 13.25,-1022 13.25,-958 99.25,-958 99.25,-1022"/>
<text xml:space="preserve" text-anchor="start" x="17.25" y="-1008.5" font-family="Helvetica,sans-Serif" font-size="10.00">std::basic_string&lt;</text>
<text xml:space="preserve" text-anchor="start" x="39.75" y="-996.5" font-family="Helvetica,sans-Serif" font-size="10.00"> Char &gt;</text>
<text xml:space="preserve" text-anchor="start" x="54.75" y="-980.5" font-family="Helvetica,sans-Serif" font-size="10.00"> </text>
<text xml:space="preserve" text-anchor="start" x="54.75" y="-964.5" font-family="Helvetica,sans-Serif" font-size="10.00"> </text>
<polygon fill="#666666" stroke="#666666" points="13.25,-992 13.25,-992 99.25,-992 99.25,-992 13.25,-992"/>
<polygon fill="#666666" stroke="#666666" points="13.25,-976 13.25,-976 99.25,-976 99.25,-976 13.25,-976"/>
<polygon fill="none" stroke="#666666" points="13.25,-958 13.25,-1022 99.25,-1022 99.25,-958 13.25,-958"/>
</a>
</g>
</g>
<!-- Node6&#45;&gt;Node5 -->
<g id="edge5_Node000005_Node000006" class="edge">
<title>Node6&#45;&gt;Node5</title>
<g id="a_edge5_Node000005_Node000006"><a xlink:title=" ">
<path fill="none" stroke="#63b8ff" d="M56.25,-946.69C56.25,-904.87 56.25,-842.3 56.25,-807.89"/>
<polygon fill="none" stroke="#63b8ff" points="52.75,-946.65 56.25,-956.65 59.75,-946.65 52.75,-946.65"/>
</a>
</g>
</g>
<!-- Node7&#45;&gt;Node1 -->
<g id="edge6_Node000001_Node000007" class="edge">
<title>Node7&#45;&gt;Node1</title>
<g id="a_edge6_Node000001_Node000007"><a xlink:title=" ">
<path fill="none" stroke="#63b8ff" d="M162.25,-442.09C162.25,-424.41 162.25,-404.94 162.25,-384.89"/>
<polygon fill="none" stroke="#63b8ff" points="162.25,-384.89 158.25,-378.89 162.25,-372.89 166.25,-378.89 162.25,-384.89"/>
</a>
</g>
<text xml:space="preserve" text-anchor="start" x="165.25" y="-403.5" font-family="Helvetica,sans-Serif" font-size="10.00" fill="grey">&#45;lastPlayer</text>
</g>
</g>
</svg>
