<?xml version="1.0" encoding="UTF-8" standalone="no"?>
<!DOCTYPE svg PUBLIC "-//W3C//DTD SVG 1.1//EN"
 "http://www.w3.org/Graphics/SVG/1.1/DTD/svg11.dtd">
<!-- Generated by graphviz version 14.0.2 (20251019.1705)
 -->
<!-- Title: Obstacles_Board::is_lose Pages: 1 -->
<svg width="460pt" height="53pt"
 viewBox="0.00 0.00 460.00 53.00" xmlns="http://www.w3.org/2000/svg" xmlns:xlink="http://www.w3.org/1999/xlink">
<g id="graph0" class="graph" transform="scale(1 1) rotate(0) translate(4 49)">
<title>Obstacles_Board::is_lose</title>
<!-- Node1 -->
<g id="Node000001" class="node">
<title>Node1</title>
<g id="a_Node000001"><a xlink:title="Checks if the given player has lost (opponent has 4&#45;in&#45;a&#45;row).">
<polygon fill="#999999" stroke="#666666" points="451.5,-39 323.75,-39 323.75,-19 451.5,-19 451.5,-39"/>
<text xml:space="preserve" text-anchor="middle" x="387.62" y="-25.5" font-family="Helvetica,sans-Serif" font-size="10.00">Obstacles_Board::is_lose</text>
</a>
</g>
</g>
<!-- Node2 -->
<g id="Node000002" class="node">
<title>Node2</title>
<g id="a_Node000002"><a xlink:href="$class_obstacles___board.html#aa1db0075134ef87705583442ca91ca4a" xlink:title="Determines whether the game is over for the given player.">
<polygon fill="white" stroke="#666666" points="121,-45 0,-45 0,-13 121,-13 121,-45"/>
<text xml:space="preserve" text-anchor="start" x="8" y="-31.5" font-family="Helvetica,sans-Serif" font-size="10.00">Obstacles_Board::game</text>
<text xml:space="preserve" text-anchor="middle" x="60.5" y="-19.5" font-family="Helvetica,sans-Serif" font-size="10.00">_is_over</text>
</a>
</g>
</g>
<!-- Node1&#45;&gt;Node2 -->
<g id="edge1_Node000001_Node000002" class="edge">
<title>Node1&#45;&gt;Node2</title>
<g id="a_edge1_Node000001_Node000002"><a xlink:title=" ">
<path fill="none" stroke="#63b8ff" d="M312.28,-29C254.43,-29 175.19,-29 121.38,-29"/>
<polygon fill="#63b8ff" stroke="#63b8ff" points="312.04,-32.5 322.04,-29 312.04,-25.5 312.04,-32.5"/>
</a>
</g>
</g>
<!-- Node3 -->
<g id="Node000003" class="node">
<title>Node3</title>
<g id="a_Node000003"><a xlink:href="$class_obstacles___board.html#a727f0d88ad486a7fb74142f590f7eda0" xlink:title="Checks for draw condition (board full and no winner).">
<polygon fill="white" stroke="#666666" points="287.75,-20 157,-20 157,0 287.75,0 287.75,-20"/>
<text xml:space="preserve" text-anchor="middle" x="222.38" y="-6.5" font-family="Helvetica,sans-Serif" font-size="10.00">Obstacles_Board::is_draw</text>
</a>
</g>
</g>
<!-- Node1&#45;&gt;Node3 -->
<g id="edge2_Node000001_Node000003" class="edge">
<title>Node1&#45;&gt;Node3</title>
<g id="a_edge2_Node000001_Node000003"><a xlink:title=" ">
<path fill="none" stroke="#63b8ff" d="M312.26,-20.34C304.23,-19.41 296.11,-18.47 288.21,-17.55"/>
<polygon fill="#63b8ff" stroke="#63b8ff" points="311.67,-23.8 322,-21.48 312.48,-16.85 311.67,-23.8"/>
</a>
</g>
</g>
<!-- Node3&#45;&gt;Node2 -->
<g id="edge3_Node000003_Node000002" class="edge">
<title>Node3&#45;&gt;Node2</title>
<g id="a_edge3_Node000003_Node000002"><a xlink:title=" ">
<path fill="none" stroke="#63b8ff" d="M145.46,-19.02C137.38,-19.98 129.25,-20.95 121.39,-21.88"/>
<polygon fill="#63b8ff" stroke="#63b8ff" points="145.79,-22.51 155.31,-17.85 144.96,-15.56 145.79,-22.51"/>
</a>
</g>
</g>
</g>
</svg>
