<?xml version="1.0" encoding="UTF-8" standalone="no"?>
<!DOCTYPE svg PUBLIC "-//W3C//DTD SVG 1.1//EN"
 "http://www.w3.org/Graphics/SVG/1.1/DTD/svg11.dtd">
<!-- Generated by graphviz version 14.0.2 (20251019.1705)
 -->
<!-- Title: XO_inf_AI::minimax Pages: 1 -->
<svg width="404pt" height="46pt"
 viewBox="0.00 0.00 404.00 46.00" xmlns="http://www.w3.org/2000/svg" xmlns:xlink="http://www.w3.org/1999/xlink">
<g id="graph0" class="graph" transform="scale(1 1) rotate(0) translate(4 42)">
<title>XO_inf_AI::minimax</title>
<!-- Node1 -->
<g id="Node000001" class="node">
<title>Node1</title>
<g id="a_Node000001"><a xlink:title="Minimax algorithm with alpha&#45;beta pruning.">
<polygon fill="#999999" stroke="#666666" points="396,-20 292.25,-20 292.25,0 396,0 396,-20"/>
<text xml:space="preserve" text-anchor="middle" x="344.12" y="-6.5" font-family="Helvetica,sans-Serif" font-size="10.00">XO_inf_AI::minimax</text>
</a>
</g>
</g>
<!-- Node1&#45;&gt;Node1 -->
<g id="edge3_Node000001_Node000001" class="edge">
<title>Node1&#45;&gt;Node1</title>
<g id="a_edge3_Node000001_Node000001"><a xlink:title=" ">
<path fill="none" stroke="#63b8ff" d="M369.36,-31.44C366.11,-35.3 357.7,-38 344.12,-38 319.31,-38 311.75,-28.98 321.44,-20.34"/>
<polygon fill="#63b8ff" stroke="#63b8ff" points="372.79,-30.78 367.15,-21.81 365.97,-32.34 372.79,-30.78"/>
</a>
</g>
</g>
<!-- Node2 -->
<g id="Node000002" class="node">
<title>Node2</title>
<g id="a_Node000002"><a xlink:href="$class_x_o__inf___a_i.html#ae6b676d72164332dcc6683ab22b73564" xlink:title="Determine the best move for AI.">
<polygon fill="white" stroke="#666666" points="256.25,-20 146.5,-20 146.5,0 256.25,0 256.25,-20"/>
<text xml:space="preserve" text-anchor="middle" x="201.38" y="-6.5" font-family="Helvetica,sans-Serif" font-size="10.00">XO_inf_AI::bestMove</text>
</a>
</g>
</g>
<!-- Node1&#45;&gt;Node2 -->
<g id="edge1_Node000001_Node000002" class="edge">
<title>Node1&#45;&gt;Node2</title>
<g id="a_edge1_Node000001_Node000002"><a xlink:title=" ">
<path fill="none" stroke="#63b8ff" d="M280.43,-10C272.49,-10 264.42,-10 256.63,-10"/>
<polygon fill="#63b8ff" stroke="#63b8ff" points="280.4,-13.5 290.4,-10 280.4,-6.5 280.4,-13.5"/>
</a>
</g>
</g>
<!-- Node3 -->
<g id="Node000003" class="node">
<title>Node3</title>
<g id="a_Node000003"><a xlink:href="$class_x_o__inf___u_i.html#aa6e70528ef40fcae94e64bdeb2ee9300" xlink:title="Get the next move from a player.">
<polygon fill="white" stroke="#666666" points="110.5,-20 0,-20 0,0 110.5,0 110.5,-20"/>
<text xml:space="preserve" text-anchor="middle" x="55.25" y="-6.5" font-family="Helvetica,sans-Serif" font-size="10.00">XO_inf_UI::get_move</text>
</a>
</g>
</g>
<!-- Node2&#45;&gt;Node3 -->
<g id="edge2_Node000002_Node000003" class="edge">
<title>Node2&#45;&gt;Node3</title>
<g id="a_edge2_Node000002_Node000003"><a xlink:title=" ">
<path fill="none" stroke="#63b8ff" d="M134.93,-10C126.8,-10 118.56,-10 110.63,-10"/>
<polygon fill="#63b8ff" stroke="#63b8ff" points="134.78,-13.5 144.78,-10 134.78,-6.5 134.78,-13.5"/>
</a>
</g>
</g>
</g>
</svg>
