<?xml version="1.0" encoding="UTF-8" standalone="no"?>
<!DOCTYPE svg PUBLIC "-//W3C//DTD SVG 1.1//EN"
 "http://www.w3.org/Graphics/SVG/1.1/DTD/svg11.dtd">
<!-- Generated by graphviz version 14.0.2 (20251019.1705)
 -->
<!-- Title: Four_AI::minimax Pages: 1 -->
<svg width="432pt" height="166pt"
 viewBox="0.00 0.00 432.00 166.00" xmlns="http://www.w3.org/2000/svg" xmlns:xlink="http://www.w3.org/1999/xlink">
<g id="graph0" class="graph" transform="scale(1 1) rotate(0) translate(4 161.68)">
<title>Four_AI::minimax</title>
<!-- Node1 -->
<g id="Node000001" class="node">
<title>Node1</title>
<g id="a_Node000001"><a xlink:title="Minimax with alpha&#45;beta pruning.">
<polygon fill="#999999" stroke="#666666" points="93.25,-96 0,-96 0,-76 93.25,-76 93.25,-96"/>
<text xml:space="preserve" text-anchor="middle" x="46.62" y="-82.5" font-family="Helvetica,sans-Serif" font-size="10.00">Four_AI::minimax</text>
</a>
</g>
</g>
<!-- Node1&#45;&gt;Node1 -->
<g id="edge10_Node000001_Node000001" class="edge">
<title>Node1&#45;&gt;Node1</title>
<g id="a_edge10_Node000001_Node000001"><a xlink:title=" ">
<path fill="none" stroke="#63b8ff" d="M20.9,-96.34C9.91,-104.98 18.49,-114 46.62,-114 62.01,-114 71.55,-111.3 75.24,-107.44"/>
<polygon fill="#63b8ff" stroke="#63b8ff" points="78.63,-106.6 72.73,-97.8 71.86,-108.36 78.63,-106.6"/>
</a>
</g>
</g>
<!-- Node2 -->
<g id="Node000002" class="node">
<title>Node2</title>
<g id="a_Node000002"><a xlink:href="$class_four___a_i.html#a5ebc2172189dad66489d15371d6f9c2f" xlink:title="Evaluates current board state.">
<polygon fill="white" stroke="#666666" points="255.12,-134 161.88,-134 161.88,-114 255.12,-114 255.12,-134"/>
<text xml:space="preserve" text-anchor="middle" x="208.5" y="-120.5" font-family="Helvetica,sans-Serif" font-size="10.00">Four_AI::evaluate</text>
</a>
</g>
</g>
<!-- Node1&#45;&gt;Node2 -->
<g id="edge1_Node000001_Node000002" class="edge">
<title>Node1&#45;&gt;Node2</title>
<g id="a_edge1_Node000001_Node000002"><a xlink:title=" ">
<path fill="none" stroke="#63b8ff" d="M91.73,-96.48C110.52,-100.95 132.63,-106.21 152.47,-110.92"/>
<polygon fill="#63b8ff" stroke="#63b8ff" points="151.52,-114.29 162.06,-113.2 153.14,-107.48 151.52,-114.29"/>
</a>
</g>
</g>
<!-- Node4 -->
<g id="Node000004" class="node">
<title>Node4</title>
<g id="a_Node000004"><a xlink:href="$class_player.html#af56f0bf98c0423a3a75b0848607d03a4" xlink:title="Get the player&#39;s symbol.">
<polygon fill="white" stroke="#666666" points="423.75,-153 323.75,-153 323.75,-133 423.75,-133 423.75,-153"/>
<text xml:space="preserve" text-anchor="middle" x="373.75" y="-139.5" font-family="Helvetica,sans-Serif" font-size="10.00">Player::get_symbol</text>
</a>
</g>
</g>
<!-- Node1&#45;&gt;Node4 -->
<g id="edge7_Node000001_Node000004" class="edge">
<title>Node1&#45;&gt;Node4</title>
<g id="a_edge7_Node000001_Node000004"><a xlink:title=" ">
<path fill="none" stroke="#63b8ff" d="M57.57,-96.08C71.9,-109.82 99.9,-133.77 129.25,-143 189.3,-161.89 261.87,-158.81 312.08,-152.92"/>
<polygon fill="#63b8ff" stroke="#63b8ff" points="312.41,-156.41 321.89,-151.69 311.53,-149.46 312.41,-156.41"/>
</a>
</g>
</g>
<!-- Node5 -->
<g id="Node000005" class="node">
<title>Node5</title>
<g id="a_Node000005"><a xlink:href="$class_player.html#a508617eddfae8915d098102d480fc888" xlink:title="Get a pointer to the game board.">
<polygon fill="white" stroke="#666666" points="263,-96 154,-96 154,-76 263,-76 263,-96"/>
<text xml:space="preserve" text-anchor="middle" x="208.5" y="-82.5" font-family="Helvetica,sans-Serif" font-size="10.00">Player::get_board_ptr</text>
</a>
</g>
</g>
<!-- Node1&#45;&gt;Node5 -->
<g id="edge4_Node000001_Node000005" class="edge">
<title>Node1&#45;&gt;Node5</title>
<g id="a_edge4_Node000001_Node000005"><a xlink:title=" ">
<path fill="none" stroke="#63b8ff" d="M93.44,-86C108.73,-86 126.08,-86 142.54,-86"/>
<polygon fill="#63b8ff" stroke="#63b8ff" points="142.25,-89.5 152.25,-86 142.25,-82.5 142.25,-89.5"/>
</a>
</g>
</g>
<!-- Node6 -->
<g id="Node000006" class="node">
<title>Node6</title>
<g id="a_Node000006"><a xlink:href="$class_four___a_i.html#a196ae82b79d74cd5e58654a16e11bf8a" xlink:title="Finds next open row in the given column.">
<polygon fill="white" stroke="#666666" points="287.75,-58 129.25,-58 129.25,-38 287.75,-38 287.75,-58"/>
<text xml:space="preserve" text-anchor="middle" x="208.5" y="-44.5" font-family="Helvetica,sans-Serif" font-size="10.00">Four_AI::get_next_available_row</text>
</a>
</g>
</g>
<!-- Node1&#45;&gt;Node6 -->
<g id="edge5_Node000001_Node000006" class="edge">
<title>Node1&#45;&gt;Node6</title>
<g id="a_edge5_Node000001_Node000006"><a xlink:title=" ">
<path fill="none" stroke="#63b8ff" d="M91.73,-75.52C110.52,-71.05 132.63,-65.79 152.47,-61.08"/>
<polygon fill="#63b8ff" stroke="#63b8ff" points="153.14,-64.52 162.06,-58.8 151.52,-57.71 153.14,-64.52"/>
</a>
</g>
</g>
<!-- Node7 -->
<g id="Node000007" class="node">
<title>Node7</title>
<g id="a_Node000007"><a xlink:href="$class_four___a_i.html#ae3dab4e81e6b102a9445d05b0c4d2aee" xlink:title="Checks if any moves are still available.">
<polygon fill="white" stroke="#666666" points="263.38,-20 153.62,-20 153.62,0 263.38,0 263.38,-20"/>
<text xml:space="preserve" text-anchor="middle" x="208.5" y="-6.5" font-family="Helvetica,sans-Serif" font-size="10.00">Four_AI::isMovesLeft</text>
</a>
</g>
</g>
<!-- Node1&#45;&gt;Node7 -->
<g id="edge8_Node000001_Node000007" class="edge">
<title>Node1&#45;&gt;Node7</title>
<g id="a_edge8_Node000001_Node000007"><a xlink:title=" ">
<path fill="none" stroke="#63b8ff" d="M59.47,-75.57C74.62,-62.76 102.15,-41.23 129.25,-29 133.48,-27.09 137.93,-25.36 142.46,-23.79"/>
<polygon fill="#63b8ff" stroke="#63b8ff" points="143.23,-27.22 151.72,-20.87 141.13,-20.54 143.23,-27.22"/>
</a>
</g>
</g>
<!-- Node3 -->
<g id="Node000003" class="node">
<title>Node3</title>
<g id="a_Node000003"><a xlink:href="$class_board.html#a93558c58e60ca4291c6044828afd260b" xlink:title="Return content of cell x, y in current board.">
<polygon fill="white" stroke="#666666" points="414.38,-58 333.12,-58 333.12,-38 414.38,-38 414.38,-58"/>
<text xml:space="preserve" text-anchor="middle" x="373.75" y="-44.5" font-family="Helvetica,sans-Serif" font-size="10.00">Board::get_cell</text>
</a>
</g>
</g>
<!-- Node2&#45;&gt;Node3 -->
<g id="edge2_Node000002_Node000003" class="edge">
<title>Node2&#45;&gt;Node3</title>
<g id="a_edge2_Node000002_Node000003"><a xlink:title=" ">
<path fill="none" stroke="#63b8ff" d="M255.5,-115.69C266.32,-112.96 277.64,-109.45 287.75,-105 311.13,-94.71 335.06,-78 351.55,-65.33"/>
<polygon fill="#63b8ff" stroke="#63b8ff" points="353.45,-68.28 359.15,-59.34 349.12,-62.78 353.45,-68.28"/>
</a>
</g>
</g>
<!-- Node2&#45;&gt;Node4 -->
<g id="edge3_Node000002_Node000004" class="edge">
<title>Node2&#45;&gt;Node4</title>
<g id="a_edge3_Node000002_Node000004"><a xlink:title=" ">
<path fill="none" stroke="#63b8ff" d="M255.41,-129.34C272.98,-131.39 293.3,-133.75 312.05,-135.94"/>
<polygon fill="#63b8ff" stroke="#63b8ff" points="311.64,-139.41 321.97,-137.09 312.44,-132.46 311.64,-139.41"/>
</a>
</g>
</g>
<!-- Node6&#45;&gt;Node3 -->
<g id="edge6_Node000006_Node000003" class="edge">
<title>Node6&#45;&gt;Node3</title>
<g id="a_edge6_Node000006_Node000003"><a xlink:title=" ">
<path fill="none" stroke="#63b8ff" d="M287.78,-48C299.2,-48 310.7,-48 321.4,-48"/>
<polygon fill="#63b8ff" stroke="#63b8ff" points="321.13,-51.5 331.13,-48 321.13,-44.5 321.13,-51.5"/>
</a>
</g>
</g>
<!-- Node7&#45;&gt;Node3 -->
<g id="edge9_Node000007_Node000003" class="edge">
<title>Node7&#45;&gt;Node3</title>
<g id="a_edge9_Node000007_Node000003"><a xlink:title=" ">
<path fill="none" stroke="#63b8ff" d="M254.54,-20.48C275.44,-25.35 300.37,-31.15 321.93,-36.17"/>
<polygon fill="#63b8ff" stroke="#63b8ff" points="320.86,-39.51 331.39,-38.37 322.44,-32.7 320.86,-39.51"/>
</a>
</g>
</g>
</g>
</svg>
