<?xml version="1.0" encoding="UTF-8" standalone="no"?>
<!DOCTYPE svg PUBLIC "-//W3C//DTD SVG 1.1//EN"
 "http://www.w3.org/Graphics/SVG/1.1/DTD/svg11.dtd">
<!-- Generated by graphviz version 14.0.2 (20251019.1705)
 -->
<!-- Title: PyramidXO_Board::game_is_over Pages: 1 -->
<svg width="611pt" height="53pt"
 viewBox="0.00 0.00 611.00 53.00" xmlns="http://www.w3.org/2000/svg" xmlns:xlink="http://www.w3.org/1999/xlink">
<g id="graph0" class="graph" transform="scale(1 1) rotate(0) translate(4 49)">
<title>PyramidXO_Board::game_is_over</title>
<!-- Node1 -->
<g id="Node000001" class="node">
<title>Node1</title>
<g id="a_Node000001"><a xlink:title="Checks whether the game is finished (win or draw).">
<polygon fill="#999999" stroke="#666666" points="127,-32 0,-32 0,0 127,0 127,-32"/>
<text xml:space="preserve" text-anchor="start" x="8" y="-18.5" font-family="Helvetica,sans-Serif" font-size="10.00">PyramidXO_Board::game</text>
<text xml:space="preserve" text-anchor="middle" x="63.5" y="-6.5" font-family="Helvetica,sans-Serif" font-size="10.00">_is_over</text>
</a>
</g>
</g>
<!-- Node2 -->
<g id="Node000002" class="node">
<title>Node2</title>
<g id="a_Node000002"><a xlink:href="$class_pyramid_x_o___board.html#a9d70812d00ba8e60e41e00a723f3a5f8" xlink:title="Checks if the game ended in a draw (all valid cells filled).">
<polygon fill="white" stroke="#666666" points="299.75,-45 163,-45 163,-25 299.75,-25 299.75,-45"/>
<text xml:space="preserve" text-anchor="middle" x="231.38" y="-31.5" font-family="Helvetica,sans-Serif" font-size="10.00">PyramidXO_Board::is_draw</text>
</a>
</g>
</g>
<!-- Node1&#45;&gt;Node2 -->
<g id="edge1_Node000001_Node000002" class="edge">
<title>Node1&#45;&gt;Node2</title>
<g id="a_edge1_Node000001_Node000002"><a xlink:title=" ">
<path fill="none" stroke="#63b8ff" d="M127.21,-23.18C135.07,-24.08 143.18,-25.01 151.25,-25.94"/>
<polygon fill="#63b8ff" stroke="#63b8ff" points="150.75,-29.4 161.09,-27.06 151.55,-22.45 150.75,-29.4"/>
</a>
</g>
</g>
<!-- Node3 -->
<g id="Node000003" class="node">
<title>Node3</title>
<g id="a_Node000003"><a xlink:href="$class_pyramid_x_o___board.html#a89fcf14259b6197ba9a6ba55cffd17c6" xlink:title="Checks if the player has won. Winning lines include horizontal, vertical, and diagonal triples.">
<polygon fill="white" stroke="#666666" points="466.5,-26 335.75,-26 335.75,-6 466.5,-6 466.5,-26"/>
<text xml:space="preserve" text-anchor="middle" x="401.12" y="-12.5" font-family="Helvetica,sans-Serif" font-size="10.00">PyramidXO_Board::is_win</text>
</a>
</g>
</g>
<!-- Node1&#45;&gt;Node3 -->
<g id="edge4_Node000001_Node000003" class="edge">
<title>Node1&#45;&gt;Node3</title>
<g id="a_edge4_Node000001_Node000003"><a xlink:title=" ">
<path fill="none" stroke="#63b8ff" d="M127.23,-16C183.02,-16 264.74,-16 324.2,-16"/>
<polygon fill="#63b8ff" stroke="#63b8ff" points="323.9,-19.5 333.9,-16 323.9,-12.5 323.9,-19.5"/>
</a>
</g>
</g>
<!-- Node2&#45;&gt;Node3 -->
<g id="edge2_Node000002_Node000003" class="edge">
<title>Node2&#45;&gt;Node3</title>
<g id="a_edge2_Node000002_Node000003"><a xlink:title=" ">
<path fill="none" stroke="#63b8ff" d="M300.12,-27.33C308.03,-26.43 316.14,-25.51 324.16,-24.6"/>
<polygon fill="#63b8ff" stroke="#63b8ff" points="324.34,-28.11 333.88,-23.5 323.55,-21.15 324.34,-28.11"/>
</a>
</g>
</g>
<!-- Node4 -->
<g id="Node000004" class="node">
<title>Node4</title>
<g id="a_Node000004"><a xlink:href="$class_player.html#af56f0bf98c0423a3a75b0848607d03a4" xlink:title="Get the player&#39;s symbol.">
<polygon fill="white" stroke="#666666" points="602.5,-26 502.5,-26 502.5,-6 602.5,-6 602.5,-26"/>
<text xml:space="preserve" text-anchor="middle" x="552.5" y="-12.5" font-family="Helvetica,sans-Serif" font-size="10.00">Player::get_symbol</text>
</a>
</g>
</g>
<!-- Node3&#45;&gt;Node4 -->
<g id="edge3_Node000003_Node000004" class="edge">
<title>Node3&#45;&gt;Node4</title>
<g id="a_edge3_Node000003_Node000004"><a xlink:title=" ">
<path fill="none" stroke="#63b8ff" d="M466.77,-16C474.72,-16 482.82,-16 490.71,-16"/>
<polygon fill="#63b8ff" stroke="#63b8ff" points="490.55,-19.5 500.55,-16 490.55,-12.5 490.55,-19.5"/>
</a>
</g>
</g>
</g>
</svg>
