<?xml version="1.0" encoding="UTF-8" standalone="no"?>
<!DOCTYPE svg PUBLIC "-//W3C//DTD SVG 1.1//EN"
 "http://www.w3.org/Graphics/SVG/1.1/DTD/svg11.dtd">
<!-- Generated by graphviz version 14.0.2 (20251019.1705)
 -->
<!-- Title: vector&lt; T &gt; Pages: 1 -->
<svg width="89pt" height="166pt"
 viewBox="0.00 0.00 89.00 166.00" xmlns="http://www.w3.org/2000/svg" xmlns:xlink="http://www.w3.org/1999/xlink">
<g id="graph0" class="graph" transform="scale(1 1) rotate(0) translate(4 162)">
<title>vector&lt; T &gt;</title>
<!-- Node1 -->
<g id="Node000001" class="node">
<title>Node1</title>
<g id="a_Node000001"><a xlink:title="STL class.">
<polygon fill="#999999" stroke="none" points="58.25,-52 0,-52 0,0 58.25,0 58.25,-52"/>
<text xml:space="preserve" text-anchor="start" x="4" y="-38.5" font-family="Helvetica,sans-Serif" font-size="10.00">vector&lt; T &gt;</text>
<text xml:space="preserve" text-anchor="start" x="27.62" y="-22.5" font-family="Helvetica,sans-Serif" font-size="10.00"> </text>
<text xml:space="preserve" text-anchor="start" x="27.62" y="-6.5" font-family="Helvetica,sans-Serif" font-size="10.00"> </text>
<polygon fill="#666666" stroke="#666666" points="0,-34 0,-34 58.25,-34 58.25,-34 0,-34"/>
<polygon fill="#666666" stroke="#666666" points="0,-18 0,-18 58.25,-18 58.25,-18 0,-18"/>
<polygon fill="none" stroke="#666666" points="0,0 0,-52 58.25,-52 58.25,0 0,0"/>
</a>
</g>
</g>
<!-- Node2 -->
<g id="Node000002" class="node">
<title>Node2</title>
<g id="a_Node000002"><a xlink:title=" ">
<polygon fill="white" stroke="none" points="36.12,-158 22.12,-158 22.12,-106 36.12,-106 36.12,-158"/>
<text xml:space="preserve" text-anchor="start" x="26.12" y="-144.5" font-family="Helvetica,sans-Serif" font-size="10.00">T</text>
<text xml:space="preserve" text-anchor="start" x="27.62" y="-128.5" font-family="Helvetica,sans-Serif" font-size="10.00"> </text>
<text xml:space="preserve" text-anchor="start" x="27.62" y="-112.5" font-family="Helvetica,sans-Serif" font-size="10.00"> </text>
<polygon fill="#666666" stroke="#666666" points="22.12,-140 22.12,-140 36.12,-140 36.12,-140 22.12,-140"/>
<polygon fill="#666666" stroke="#666666" points="22.12,-124 22.12,-124 36.12,-124 36.12,-124 22.12,-124"/>
<polygon fill="none" stroke="#666666" points="22.12,-106 22.12,-158 36.12,-158 36.12,-106 22.12,-106"/>
</a>
</g>
</g>
<!-- Node2&#45;&gt;Node1 -->
<g id="edge1_Node000001_Node000002" class="edge">
<title>Node2&#45;&gt;Node1</title>
<g id="a_edge1_Node000001_Node000002"><a xlink:title=" ">
<path fill="none" stroke="#63b8ff" d="M29.12,-106.09C29.12,-93.61 29.12,-78.25 29.12,-64.39"/>
<polygon fill="none" stroke="#63b8ff" points="29.13,-64.61 25.13,-58.61 29.13,-52.61 33.13,-58.61 29.13,-64.61"/>
</a>
</g>
<text xml:space="preserve" text-anchor="start" x="32.12" y="-75.5" font-family="Helvetica,sans-Serif" font-size="10.00" fill="grey">+elements</text>
</g>
</g>
</svg>
