<?xml version="1.0" encoding="UTF-8" standalone="no"?>
<!DOCTYPE svg PUBLIC "-//W3C//DTD SVG 1.1//EN"
 "http://www.w3.org/Graphics/SVG/1.1/DTD/svg11.dtd">
<!-- Generated by graphviz version 14.0.2 (20251019.1705)
 -->
<!-- Title: Move&lt; T &gt; Pages: 1 -->
<svg width="86pt" height="230pt"
 viewBox="0.00 0.00 86.00 230.00" xmlns="http://www.w3.org/2000/svg" xmlns:xlink="http://www.w3.org/1999/xlink">
<g id="graph0" class="graph" transform="scale(1 1) rotate(0) translate(4 226)">
<title>Move&lt; T &gt;</title>
<!-- Node1 -->
<g id="Node000001" class="node">
<title>Node1</title>
<g id="a_Node000001"><a xlink:title="Represents a single move in a board game.">
<polygon fill="#999999" stroke="none" points="74.25,-116 0,-116 0,0 74.25,0 74.25,-116"/>
<text xml:space="preserve" text-anchor="start" x="13.5" y="-102.5" font-family="Helvetica,sans-Serif" font-size="10.00">Move&lt; T &gt;</text>
<text xml:space="preserve" text-anchor="start" x="5.5" y="-86.5" font-family="Helvetica,sans-Serif" font-size="10.00">&#45;</text>
<text xml:space="preserve" text-anchor="start" x="14" y="-86.5" font-family="Helvetica,sans-Serif" font-size="10.00">x</text>
<text xml:space="preserve" text-anchor="start" x="5.5" y="-70.5" font-family="Helvetica,sans-Serif" font-size="10.00">&#45;</text>
<text xml:space="preserve" text-anchor="start" x="14" y="-70.5" font-family="Helvetica,sans-Serif" font-size="10.00">y</text>
<text xml:space="preserve" text-anchor="start" x="4" y="-54.5" font-family="Helvetica,sans-Serif" font-size="10.00">+</text>
<text xml:space="preserve" text-anchor="start" x="14" y="-54.5" font-family="Helvetica,sans-Serif" font-size="10.00">Move()</text>
<text xml:space="preserve" text-anchor="start" x="4" y="-38.5" font-family="Helvetica,sans-Serif" font-size="10.00">+</text>
<text xml:space="preserve" text-anchor="start" x="14" y="-38.5" font-family="Helvetica,sans-Serif" font-size="10.00">get_x()</text>
<text xml:space="preserve" text-anchor="start" x="4" y="-22.5" font-family="Helvetica,sans-Serif" font-size="10.00">+</text>
<text xml:space="preserve" text-anchor="start" x="14" y="-22.5" font-family="Helvetica,sans-Serif" font-size="10.00">get_y()</text>
<text xml:space="preserve" text-anchor="start" x="4" y="-6.5" font-family="Helvetica,sans-Serif" font-size="10.00">+</text>
<text xml:space="preserve" text-anchor="start" x="14" y="-6.5" font-family="Helvetica,sans-Serif" font-size="10.00">get_symbol()</text>
<polygon fill="#666666" stroke="#666666" points="0,-98 0,-98 74.25,-98 74.25,-98 0,-98"/>
<polygon fill="#666666" stroke="#666666" points="0,-66 0,-66 12,-66 12,-66 0,-66"/>
<polygon fill="#666666" stroke="#666666" points="12,-66 12,-66 74.25,-66 74.25,-66 12,-66"/>
<polygon fill="none" stroke="#666666" points="0,0 0,-116 74.25,-116 74.25,0 0,0"/>
</a>
</g>
</g>
<!-- Node2 -->
<g id="Node000002" class="node">
<title>Node2</title>
<g id="a_Node000002"><a xlink:title=" ">
<polygon fill="white" stroke="none" points="44.12,-222 30.12,-222 30.12,-170 44.12,-170 44.12,-222"/>
<text xml:space="preserve" text-anchor="start" x="34.12" y="-208.5" font-family="Helvetica,sans-Serif" font-size="10.00">T</text>
<text xml:space="preserve" text-anchor="start" x="35.62" y="-192.5" font-family="Helvetica,sans-Serif" font-size="10.00"> </text>
<text xml:space="preserve" text-anchor="start" x="35.62" y="-176.5" font-family="Helvetica,sans-Serif" font-size="10.00"> </text>
<polygon fill="#666666" stroke="#666666" points="30.12,-204 30.12,-204 44.12,-204 44.12,-204 30.12,-204"/>
<polygon fill="#666666" stroke="#666666" points="30.12,-188 30.12,-188 44.12,-188 44.12,-188 30.12,-188"/>
<polygon fill="none" stroke="#666666" points="30.12,-170 30.12,-222 44.12,-222 44.12,-170 30.12,-170"/>
</a>
</g>
</g>
<!-- Node2&#45;&gt;Node1 -->
<g id="edge1_Node000001_Node000002" class="edge">
<title>Node2&#45;&gt;Node1</title>
<g id="a_edge1_Node000001_Node000002"><a xlink:title=" ">
<path fill="none" stroke="#63b8ff" d="M37.12,-170.06C37.12,-158.31 37.12,-143.66 37.12,-128.89"/>
<polygon fill="none" stroke="#63b8ff" points="37.13,-128.84 33.13,-122.85 37.13,-116.84 41.13,-122.84 37.13,-128.84"/>
</a>
</g>
<text xml:space="preserve" text-anchor="start" x="40.12" y="-139.5" font-family="Helvetica,sans-Serif" font-size="10.00" fill="grey">&#45;symbol</text>
</g>
</g>
</svg>
