<?xml version="1.0" encoding="UTF-8" standalone="no"?>
<!DOCTYPE svg PUBLIC "-//W3C//DTD SVG 1.1//EN"
 "http://www.w3.org/Graphics/SVG/1.1/DTD/svg11.dtd">
<!-- Generated by graphviz version 14.0.2 (20251019.1705)
 -->
<!-- Title: Word_XO_Board Pages: 1 -->
<svg width="258pt" height="870pt"
 viewBox="0.00 0.00 258.00 870.00" xmlns="http://www.w3.org/2000/svg" xmlns:xlink="http://www.w3.org/1999/xlink">
<g id="graph0" class="graph" transform="scale(1 1) rotate(0) translate(4 866)">
<title>Word_XO_Board</title>
<!-- Node1 -->
<g id="Node000001" class="node">
<title>Node1</title>
<g id="a_Node000001"><a xlink:title="Game board for Word Tic&#45;Tac&#45;Toe.">
<polygon fill="#999999" stroke="none" points="210.62,-212 113.88,-212 113.88,0 210.62,0 210.62,-212"/>
<text xml:space="preserve" text-anchor="start" x="125.88" y="-198.5" font-family="Helvetica,sans-Serif" font-size="10.00">Word_XO_Board</text>
<text xml:space="preserve" text-anchor="start" x="119.38" y="-182.5" font-family="Helvetica,sans-Serif" font-size="10.00">&#45;</text>
<text xml:space="preserve" text-anchor="start" x="127.88" y="-182.5" font-family="Helvetica,sans-Serif" font-size="10.00">nMoves</text>
<text xml:space="preserve" text-anchor="start" x="119.38" y="-166.5" font-family="Helvetica,sans-Serif" font-size="10.00">&#45;</text>
<text xml:space="preserve" text-anchor="start" x="127.88" y="-166.5" font-family="Helvetica,sans-Serif" font-size="10.00">emptyCell</text>
<text xml:space="preserve" text-anchor="start" x="117.88" y="-150.5" font-family="Helvetica,sans-Serif" font-size="10.00">+</text>
<text xml:space="preserve" text-anchor="start" x="127.88" y="-150.5" font-family="Helvetica,sans-Serif" font-size="10.00">Word_XO_Board()</text>
<text xml:space="preserve" text-anchor="start" x="117.88" y="-134.5" font-family="Helvetica,sans-Serif" font-size="10.00">+</text>
<text xml:space="preserve" text-anchor="start" x="127.88" y="-134.5" font-family="Helvetica,sans-Serif" font-size="10.00">getEmptyCell()</text>
<text xml:space="preserve" text-anchor="start" x="117.88" y="-118.5" font-family="Helvetica,sans-Serif" font-size="10.00">+</text>
<text xml:space="preserve" text-anchor="start" x="127.88" y="-118.5" font-family="Helvetica,sans-Serif" font-size="10.00">getMoveCount()</text>
<text xml:space="preserve" text-anchor="start" x="117.88" y="-102.5" font-family="Helvetica,sans-Serif" font-size="10.00">+</text>
<text xml:space="preserve" text-anchor="start" x="127.88" y="-102.5" font-family="Helvetica,sans-Serif" font-size="10.00">wordExist()</text>
<text xml:space="preserve" text-anchor="start" x="117.88" y="-86.5" font-family="Helvetica,sans-Serif" font-size="10.00">+</text>
<text xml:space="preserve" text-anchor="start" x="127.88" y="-86.5" font-family="Helvetica,sans-Serif" font-size="10.00">update_board()</text>
<text xml:space="preserve" text-anchor="start" x="117.88" y="-70.5" font-family="Helvetica,sans-Serif" font-size="10.00">+</text>
<text xml:space="preserve" text-anchor="start" x="127.88" y="-70.5" font-family="Helvetica,sans-Serif" font-size="10.00">setLastPlayer()</text>
<text xml:space="preserve" text-anchor="start" x="117.88" y="-54.5" font-family="Helvetica,sans-Serif" font-size="10.00">+</text>
<text xml:space="preserve" text-anchor="start" x="127.88" y="-54.5" font-family="Helvetica,sans-Serif" font-size="10.00">game_is_over()</text>
<text xml:space="preserve" text-anchor="start" x="117.88" y="-38.5" font-family="Helvetica,sans-Serif" font-size="10.00">+</text>
<text xml:space="preserve" text-anchor="start" x="127.88" y="-38.5" font-family="Helvetica,sans-Serif" font-size="10.00">is_win()</text>
<text xml:space="preserve" text-anchor="start" x="117.88" y="-22.5" font-family="Helvetica,sans-Serif" font-size="10.00">+</text>
<text xml:space="preserve" text-anchor="start" x="127.88" y="-22.5" font-family="Helvetica,sans-Serif" font-size="10.00">is_lose()</text>
<text xml:space="preserve" text-anchor="start" x="117.88" y="-6.5" font-family="Helvetica,sans-Serif" font-size="10.00">+</text>
<text xml:space="preserve" text-anchor="start" x="127.88" y="-6.5" font-family="Helvetica,sans-Serif" font-size="10.00">is_draw()</text>
<polygon fill="#666666" stroke="#666666" points="113.88,-194 113.88,-194 210.62,-194 210.62,-194 113.88,-194"/>
<polygon fill="#666666" stroke="#666666" points="113.88,-162 113.88,-162 125.88,-162 125.88,-162 113.88,-162"/>
<polygon fill="#666666" stroke="#666666" points="125.88,-162 125.88,-162 210.62,-162 210.62,-162 125.88,-162"/>
<polygon fill="none" stroke="#666666" points="113.88,0 113.88,-212 210.62,-212 210.62,0 113.88,0"/>
</a>
</g>
</g>
<!-- Node2 -->
<g id="Node000002" class="node">
<title>Node2</title>
<g id="a_Node000002"><a xlink:href="class_board.html" target="_top" xlink:title=" ">
<polygon fill="white" stroke="none" points="249.75,-744 150.75,-744 150.75,-500 249.75,-500 249.75,-744"/>
<text xml:space="preserve" text-anchor="start" x="169.12" y="-730.5" font-family="Helvetica,sans-Serif" font-size="10.00">Board&lt; char &gt;</text>
<text xml:space="preserve" text-anchor="start" x="155.12" y="-714.5" font-family="Helvetica,sans-Serif" font-size="10.00">#</text>
<text xml:space="preserve" text-anchor="start" x="164.75" y="-714.5" font-family="Helvetica,sans-Serif" font-size="10.00">rows</text>
<text xml:space="preserve" text-anchor="start" x="155.12" y="-698.5" font-family="Helvetica,sans-Serif" font-size="10.00">#</text>
<text xml:space="preserve" text-anchor="start" x="164.75" y="-698.5" font-family="Helvetica,sans-Serif" font-size="10.00">columns</text>
<text xml:space="preserve" text-anchor="start" x="155.12" y="-682.5" font-family="Helvetica,sans-Serif" font-size="10.00">#</text>
<text xml:space="preserve" text-anchor="start" x="164.75" y="-682.5" font-family="Helvetica,sans-Serif" font-size="10.00">n_moves</text>
<text xml:space="preserve" text-anchor="start" x="154.75" y="-666.5" font-family="Helvetica,sans-Serif" font-size="10.00">+</text>
<text xml:space="preserve" text-anchor="start" x="164.75" y="-666.5" font-family="Helvetica,sans-Serif" font-size="10.00">Board()</text>
<text xml:space="preserve" text-anchor="start" x="154.75" y="-650.5" font-family="Helvetica,sans-Serif" font-size="10.00">+</text>
<text xml:space="preserve" text-anchor="start" x="164.75" y="-650.5" font-family="Helvetica,sans-Serif" font-size="10.00">~Board()</text>
<text xml:space="preserve" text-anchor="start" x="154.75" y="-634.5" font-family="Helvetica,sans-Serif" font-size="10.00">+</text>
<text xml:space="preserve" text-anchor="start" x="164.75" y="-634.5" font-family="Helvetica,sans-Serif" font-size="10.00">update_board()</text>
<text xml:space="preserve" text-anchor="start" x="154.75" y="-618.5" font-family="Helvetica,sans-Serif" font-size="10.00">+</text>
<text xml:space="preserve" text-anchor="start" x="164.75" y="-618.5" font-family="Helvetica,sans-Serif" font-size="10.00">is_win()</text>
<text xml:space="preserve" text-anchor="start" x="154.75" y="-602.5" font-family="Helvetica,sans-Serif" font-size="10.00">+</text>
<text xml:space="preserve" text-anchor="start" x="164.75" y="-602.5" font-family="Helvetica,sans-Serif" font-size="10.00">is_lose()</text>
<text xml:space="preserve" text-anchor="start" x="154.75" y="-586.5" font-family="Helvetica,sans-Serif" font-size="10.00">+</text>
<text xml:space="preserve" text-anchor="start" x="164.75" y="-586.5" font-family="Helvetica,sans-Serif" font-size="10.00">is_draw()</text>
<text xml:space="preserve" text-anchor="start" x="154.75" y="-570.5" font-family="Helvetica,sans-Serif" font-size="10.00">+</text>
<text xml:space="preserve" text-anchor="start" x="164.75" y="-570.5" font-family="Helvetica,sans-Serif" font-size="10.00">game_is_over()</text>
<text xml:space="preserve" text-anchor="start" x="154.75" y="-554.5" font-family="Helvetica,sans-Serif" font-size="10.00">+</text>
<text xml:space="preserve" text-anchor="start" x="164.75" y="-554.5" font-family="Helvetica,sans-Serif" font-size="10.00">get_board_matrix()</text>
<text xml:space="preserve" text-anchor="start" x="154.75" y="-538.5" font-family="Helvetica,sans-Serif" font-size="10.00">+</text>
<text xml:space="preserve" text-anchor="start" x="164.75" y="-538.5" font-family="Helvetica,sans-Serif" font-size="10.00">get_rows()</text>
<text xml:space="preserve" text-anchor="start" x="154.75" y="-522.5" font-family="Helvetica,sans-Serif" font-size="10.00">+</text>
<text xml:space="preserve" text-anchor="start" x="164.75" y="-522.5" font-family="Helvetica,sans-Serif" font-size="10.00">get_columns()</text>
<text xml:space="preserve" text-anchor="start" x="154.75" y="-506.5" font-family="Helvetica,sans-Serif" font-size="10.00">+</text>
<text xml:space="preserve" text-anchor="start" x="164.75" y="-506.5" font-family="Helvetica,sans-Serif" font-size="10.00">get_cell()</text>
<polygon fill="#666666" stroke="#666666" points="150.75,-726 150.75,-726 249.75,-726 249.75,-726 150.75,-726"/>
<polygon fill="#666666" stroke="#666666" points="150.75,-678 150.75,-678 162.75,-678 162.75,-678 150.75,-678"/>
<polygon fill="#666666" stroke="#666666" points="162.75,-678 162.75,-678 249.75,-678 249.75,-678 162.75,-678"/>
<polygon fill="none" stroke="#666666" points="150.75,-500 150.75,-744 249.75,-744 249.75,-500 150.75,-500"/>
</a>
</g>
</g>
<!-- Node2&#45;&gt;Node1 -->
<g id="edge1_Node000001_Node000002" class="edge">
<title>Node2&#45;&gt;Node1</title>
<g id="a_edge1_Node000001_Node000002"><a xlink:title=" ">
<path fill="none" stroke="#63b8ff" d="M223.09,-489.18C232.19,-412.69 236.68,-314.98 218.25,-230 216.31,-221.06 213.66,-211.98 210.57,-203.03"/>
<polygon fill="none" stroke="#63b8ff" points="219.65,-488.45 221.9,-498.8 226.6,-489.31 219.65,-488.45"/>
</a>
</g>
</g>
<!-- Node7 -->
<g id="Node000007" class="node">
<title>Node7</title>
<g id="a_Node000007"><a xlink:href="class_player.html" target="_top" xlink:title=" ">
<polygon fill="white" stroke="none" points="203.88,-446 120.62,-446 120.62,-282 203.88,-282 203.88,-446"/>
<text xml:space="preserve" text-anchor="start" x="130" y="-432.5" font-family="Helvetica,sans-Serif" font-size="10.00">Player&lt; char &gt;</text>
<text xml:space="preserve" text-anchor="start" x="125" y="-416.5" font-family="Helvetica,sans-Serif" font-size="10.00">#</text>
<text xml:space="preserve" text-anchor="start" x="134.62" y="-416.5" font-family="Helvetica,sans-Serif" font-size="10.00">type</text>
<text xml:space="preserve" text-anchor="start" x="125" y="-400.5" font-family="Helvetica,sans-Serif" font-size="10.00">#</text>
<text xml:space="preserve" text-anchor="start" x="134.62" y="-400.5" font-family="Helvetica,sans-Serif" font-size="10.00">symbol</text>
<text xml:space="preserve" text-anchor="start" x="124.62" y="-384.5" font-family="Helvetica,sans-Serif" font-size="10.00">+</text>
<text xml:space="preserve" text-anchor="start" x="134.62" y="-384.5" font-family="Helvetica,sans-Serif" font-size="10.00">Player()</text>
<text xml:space="preserve" text-anchor="start" x="124.62" y="-368.5" font-family="Helvetica,sans-Serif" font-size="10.00">+</text>
<text xml:space="preserve" text-anchor="start" x="134.62" y="-368.5" font-family="Helvetica,sans-Serif" font-size="10.00">~Player()</text>
<text xml:space="preserve" text-anchor="start" x="124.62" y="-352.5" font-family="Helvetica,sans-Serif" font-size="10.00">+</text>
<text xml:space="preserve" text-anchor="start" x="134.62" y="-352.5" font-family="Helvetica,sans-Serif" font-size="10.00">get_name()</text>
<text xml:space="preserve" text-anchor="start" x="124.62" y="-336.5" font-family="Helvetica,sans-Serif" font-size="10.00">+</text>
<text xml:space="preserve" text-anchor="start" x="134.62" y="-336.5" font-family="Helvetica,sans-Serif" font-size="10.00">get_type()</text>
<text xml:space="preserve" text-anchor="start" x="124.62" y="-320.5" font-family="Helvetica,sans-Serif" font-size="10.00">+</text>
<text xml:space="preserve" text-anchor="start" x="134.62" y="-320.5" font-family="Helvetica,sans-Serif" font-size="10.00">get_symbol()</text>
<text xml:space="preserve" text-anchor="start" x="124.62" y="-304.5" font-family="Helvetica,sans-Serif" font-size="10.00">+</text>
<text xml:space="preserve" text-anchor="start" x="134.62" y="-304.5" font-family="Helvetica,sans-Serif" font-size="10.00">get_board_ptr()</text>
<text xml:space="preserve" text-anchor="start" x="124.62" y="-288.5" font-family="Helvetica,sans-Serif" font-size="10.00">+</text>
<text xml:space="preserve" text-anchor="start" x="134.62" y="-288.5" font-family="Helvetica,sans-Serif" font-size="10.00">set_board_ptr()</text>
<polygon fill="#666666" stroke="#666666" points="120.62,-428 120.62,-428 203.88,-428 203.88,-428 120.62,-428"/>
<polygon fill="#666666" stroke="#666666" points="120.62,-396 120.62,-396 132.62,-396 132.62,-396 120.62,-396"/>
<polygon fill="#666666" stroke="#666666" points="132.62,-396 132.62,-396 203.88,-396 203.88,-396 132.62,-396"/>
<polygon fill="none" stroke="#666666" points="120.62,-282 120.62,-446 203.88,-446 203.88,-282 120.62,-282"/>
</a>
</g>
</g>
<!-- Node2&#45;&gt;Node7 -->
<g id="edge8_Node000007_Node000002" class="edge">
<title>Node2&#45;&gt;Node7</title>
<g id="a_edge8_Node000007_Node000002"><a xlink:title=" ">
<path fill="none" stroke="#63b8ff" d="M173.1,-500.27C172.06,-494.1 171.1,-487.99 170.25,-482 169.18,-474.42 168.25,-466.54 167.44,-458.61"/>
<polygon fill="none" stroke="#63b8ff" points="167.44,-458.57 162.9,-452.96 166.32,-446.62 170.86,-452.22 167.44,-458.57"/>
</a>
</g>
<text xml:space="preserve" text-anchor="start" x="173.25" y="-469.5" font-family="Helvetica,sans-Serif" font-size="10.00" fill="grey">#boardPtr</text>
</g>
<!-- Node3 -->
<g id="Node000003" class="node">
<title>Node3</title>
<g id="a_Node000003"><a xlink:title=" ">
<polygon fill="white" stroke="none" points="245.5,-862 155,-862 155,-798 245.5,-798 245.5,-862"/>
<text xml:space="preserve" text-anchor="start" x="159" y="-848.5" font-family="Helvetica,sans-Serif" font-size="10.00">std::vector&lt; vector</text>
<text xml:space="preserve" text-anchor="start" x="177.38" y="-836.5" font-family="Helvetica,sans-Serif" font-size="10.00">&lt; char &gt; &gt;</text>
<text xml:space="preserve" text-anchor="start" x="167.19" y="-820.5" font-family="Helvetica,sans-Serif" font-size="10.00">+</text>
<text xml:space="preserve" text-anchor="start" x="185.38" y="-820.5" font-family="Helvetica,sans-Serif" font-size="10.00">elements</text>
<text xml:space="preserve" text-anchor="start" x="198.75" y="-804.5" font-family="Helvetica,sans-Serif" font-size="10.00"> </text>
<polygon fill="#666666" stroke="#666666" points="155,-832 155,-832 245.5,-832 245.5,-832 155,-832"/>
<polygon fill="#666666" stroke="#666666" points="155,-816 155,-816 183.38,-816 183.38,-816 155,-816"/>
<polygon fill="#666666" stroke="#666666" points="183.38,-816 183.38,-816 245.5,-816 245.5,-816 183.38,-816"/>
<polygon fill="none" stroke="#666666" points="155,-798 155,-862 245.5,-862 245.5,-798 155,-798"/>
</a>
</g>
</g>
<!-- Node3&#45;&gt;Node2 -->
<g id="edge2_Node000002_Node000003" class="edge">
<title>Node3&#45;&gt;Node2</title>
<g id="a_edge2_Node000002_Node000003"><a xlink:title=" ">
<path fill="none" stroke="#63b8ff" d="M200.25,-798.16C200.25,-786.41 200.25,-772.14 200.25,-756.88"/>
<polygon fill="none" stroke="#63b8ff" points="200.25,-756.75 196.25,-750.75 200.25,-744.75 204.25,-750.75 200.25,-756.75"/>
</a>
</g>
<text xml:space="preserve" text-anchor="start" x="203.25" y="-767.5" font-family="Helvetica,sans-Serif" font-size="10.00" fill="grey">#board</text>
</g>
<!-- Node4 -->
<g id="Node000004" class="node">
<title>Node4</title>
<g id="a_Node000004"><a xlink:title=" ">
<polygon fill="white" stroke="none" points="102.5,-390 0,-390 0,-338 102.5,-338 102.5,-390"/>
<text xml:space="preserve" text-anchor="start" x="4" y="-376.5" font-family="Helvetica,sans-Serif" font-size="10.00">std::set&lt; std::string &gt;</text>
<text xml:space="preserve" text-anchor="start" x="49.75" y="-360.5" font-family="Helvetica,sans-Serif" font-size="10.00"> </text>
<text xml:space="preserve" text-anchor="start" x="49.75" y="-344.5" font-family="Helvetica,sans-Serif" font-size="10.00"> </text>
<polygon fill="#666666" stroke="#666666" points="0,-372 0,-372 102.5,-372 102.5,-372 0,-372"/>
<polygon fill="#666666" stroke="#666666" points="0,-356 0,-356 102.5,-356 102.5,-356 0,-356"/>
<polygon fill="none" stroke="#666666" points="0,-338 0,-390 102.5,-390 102.5,-338 0,-338"/>
</a>
</g>
</g>
<!-- Node4&#45;&gt;Node1 -->
<g id="edge3_Node000001_Node000004" class="edge">
<title>Node4&#45;&gt;Node1</title>
<g id="a_edge3_Node000001_Node000004"><a xlink:title=" ">
<path fill="none" stroke="#63b8ff" d="M61.89,-338.45C73.52,-311.63 93.01,-266.7 111.73,-223.52"/>
<polygon fill="none" stroke="#63b8ff" points="111.72,-223.54 110.43,-216.45 116.49,-212.53 117.77,-219.63 111.72,-223.54"/>
</a>
</g>
<text xml:space="preserve" text-anchor="start" x="109.75" y="-251.5" font-family="Helvetica,sans-Serif" font-size="10.00" fill="grey">+dict</text>
<text xml:space="preserve" text-anchor="start" x="109.75" y="-235.5" font-family="Helvetica,sans-Serif" font-size="10.00" fill="grey">+revDict</text>
</g>
<!-- Node5 -->
<g id="Node000005" class="node">
<title>Node5</title>
<g id="a_Node000005"><a xlink:title=" ">
<polygon fill="white" stroke="none" points="82,-648 30.5,-648 30.5,-596 82,-596 82,-648"/>
<text xml:space="preserve" text-anchor="start" x="34.5" y="-634.5" font-family="Helvetica,sans-Serif" font-size="10.00">std::string</text>
<text xml:space="preserve" text-anchor="start" x="54.75" y="-618.5" font-family="Helvetica,sans-Serif" font-size="10.00"> </text>
<text xml:space="preserve" text-anchor="start" x="54.75" y="-602.5" font-family="Helvetica,sans-Serif" font-size="10.00"> </text>
<polygon fill="#666666" stroke="#666666" points="30.5,-630 30.5,-630 82,-630 82,-630 30.5,-630"/>
<polygon fill="#666666" stroke="#666666" points="30.5,-614 30.5,-614 82,-614 82,-614 30.5,-614"/>
<polygon fill="none" stroke="#666666" points="30.5,-596 30.5,-648 82,-648 82,-596 30.5,-596"/>
</a>
</g>
</g>
<!-- Node5&#45;&gt;Node4 -->
<g id="edge4_Node000004_Node000005" class="edge">
<title>Node5&#45;&gt;Node4</title>
<g id="a_edge4_Node000004_Node000005"><a xlink:title=" ">
<path fill="none" stroke="#63b8ff" d="M55.77,-596.45C54.89,-551.56 53.03,-455.93 51.99,-402.72"/>
<polygon fill="none" stroke="#63b8ff" points="51.99,-402.75 47.87,-396.83 51.75,-390.75 55.87,-396.67 51.99,-402.75"/>
</a>
</g>
<text xml:space="preserve" text-anchor="start" x="56.45" y="-469.5" font-family="Helvetica,sans-Serif" font-size="10.00" fill="grey">+keys</text>
</g>
<!-- Node5&#45;&gt;Node7 -->
<g id="edge7_Node000007_Node000005" class="edge">
<title>Node5&#45;&gt;Node7</title>
<g id="a_edge7_Node000007_Node000005"><a xlink:title=" ">
<path fill="none" stroke="#63b8ff" d="M66.41,-596.45C79.61,-564.59 103.37,-507.19 123.94,-457.52"/>
<polygon fill="none" stroke="#63b8ff" points="123.88,-457.66 122.48,-450.59 128.47,-446.58 129.87,-453.65 123.88,-457.66"/>
</a>
</g>
<text xml:space="preserve" text-anchor="start" x="121.74" y="-469.5" font-family="Helvetica,sans-Serif" font-size="10.00" fill="grey">#name</text>
</g>
<!-- Node6 -->
<g id="Node000006" class="node">
<title>Node6</title>
<g id="a_Node000006"><a xlink:title=" ">
<polygon fill="white" stroke="none" points="99.25,-862 13.25,-862 13.25,-798 99.25,-798 99.25,-862"/>
<text xml:space="preserve" text-anchor="start" x="17.25" y="-848.5" font-family="Helvetica,sans-Serif" font-size="10.00">std::basic_string&lt;</text>
<text xml:space="preserve" text-anchor="start" x="39.75" y="-836.5" font-family="Helvetica,sans-Serif" font-size="10.00"> Char &gt;</text>
<text xml:space="preserve" text-anchor="start" x="54.75" y="-820.5" font-family="Helvetica,sans-Serif" font-size="10.00"> </text>
<text xml:space="preserve" text-anchor="start" x="54.75" y="-804.5" font-family="Helvetica,sans-Serif" font-size="10.00"> </text>
<polygon fill="#666666" stroke="#666666" points="13.25,-832 13.25,-832 99.25,-832 99.25,-832 13.25,-832"/>
<polygon fill="#666666" stroke="#666666" points="13.25,-816 13.25,-816 99.25,-816 99.25,-816 13.25,-816"/>
<polygon fill="none" stroke="#666666" points="13.25,-798 13.25,-862 99.25,-862 99.25,-798 13.25,-798"/>
</a>
</g>
</g>
<!-- Node6&#45;&gt;Node5 -->
<g id="edge5_Node000005_Node000006" class="edge">
<title>Node6&#45;&gt;Node5</title>
<g id="a_edge5_Node000005_Node000006"><a xlink:title=" ">
<path fill="none" stroke="#63b8ff" d="M56.25,-786.69C56.25,-744.87 56.25,-682.3 56.25,-647.89"/>
<polygon fill="none" stroke="#63b8ff" points="52.75,-786.65 56.25,-796.65 59.75,-786.65 52.75,-786.65"/>
</a>
</g>
</g>
<!-- Node7&#45;&gt;Node1 -->
<g id="edge6_Node000001_Node000007" class="edge">
<title>Node7&#45;&gt;Node1</title>
<g id="a_edge6_Node000001_Node000007"><a xlink:title=" ">
<path fill="none" stroke="#63b8ff" d="M162.25,-282C162.25,-263.82 162.25,-244.18 162.25,-224.84"/>
<polygon fill="none" stroke="#63b8ff" points="162.25,-224.77 158.25,-218.77 162.25,-212.77 166.25,-218.77 162.25,-224.77"/>
</a>
</g>
<text xml:space="preserve" text-anchor="start" x="165.25" y="-243.5" font-family="Helvetica,sans-Serif" font-size="10.00" fill="grey">&#45;lastPlayer</text>
</g>
</g>
</svg>
