<?xml version="1.0" encoding="UTF-8" standalone="no"?>
<!DOCTYPE svg PUBLIC "-//W3C//DTD SVG 1.1//EN"
 "http://www.w3.org/Graphics/SVG/1.1/DTD/svg11.dtd">
<!-- Generated by graphviz version 14.0.2 (20251019.1705)
 -->
<!-- Title: Large_XO_Board::is_win Pages: 1 -->
<svg width="306pt" height="116pt"
 viewBox="0.00 0.00 306.00 116.00" xmlns="http://www.w3.org/2000/svg" xmlns:xlink="http://www.w3.org/1999/xlink">
<g id="graph0" class="graph" transform="scale(1 1) rotate(0) translate(4 112)">
<title>Large_XO_Board::is_win</title>
<!-- Node1 -->
<g id="Node000001" class="node">
<title>Node1</title>
<g id="a_Node000001"><a xlink:title="Check if the player has a winning configuration.">
<polygon fill="#999999" stroke="#666666" points="124,-64 0,-64 0,-44 124,-44 124,-64"/>
<text xml:space="preserve" text-anchor="middle" x="62" y="-50.5" font-family="Helvetica,sans-Serif" font-size="10.00">Large_XO_Board::is_win</text>
</a>
</g>
</g>
<!-- Node2 -->
<g id="Node000002" class="node">
<title>Node2</title>
<g id="a_Node000002"><a xlink:href="class_large___x_o___board.html#a702183d127cd3db7920262aaf4d3106b" target="_top" xlink:title="Count all 3&#45;in&#45;a&#45;row patterns for a given symbol.">
<polygon fill="white" stroke="#666666" points="297.5,-108 160,-108 160,-88 297.5,-88 297.5,-108"/>
<text xml:space="preserve" text-anchor="middle" x="228.75" y="-94.5" font-family="Helvetica,sans-Serif" font-size="10.00">Large_XO_Board::countWin</text>
</a>
</g>
</g>
<!-- Node1&#45;&gt;Node2 -->
<g id="edge1_Node000001_Node000002" class="edge">
<title>Node1&#45;&gt;Node2</title>
<g id="a_edge1_Node000001_Node000002"><a xlink:title=" ">
<path fill="none" stroke="#63b8ff" d="M102.04,-64.43C124.74,-70.49 153.56,-78.19 177.88,-84.68"/>
<polygon fill="#63b8ff" stroke="#63b8ff" points="176.67,-87.98 187.24,-87.18 178.48,-81.22 176.67,-87.98"/>
</a>
</g>
</g>
<!-- Node3 -->
<g id="Node000003" class="node">
<title>Node3</title>
<g id="a_Node000003"><a xlink:href="class_large___x_o___board.html#ab0e7f4e0184eef658b5d8ebc303ffe09" target="_top" xlink:title="Check if the game is over (board full).">
<polygon fill="white" stroke="#666666" points="288.88,-70 168.62,-70 168.62,-38 288.88,-38 288.88,-70"/>
<text xml:space="preserve" text-anchor="start" x="176.62" y="-56.5" font-family="Helvetica,sans-Serif" font-size="10.00">Large_XO_Board::game</text>
<text xml:space="preserve" text-anchor="middle" x="228.75" y="-44.5" font-family="Helvetica,sans-Serif" font-size="10.00">_is_over</text>
</a>
</g>
</g>
<!-- Node1&#45;&gt;Node3 -->
<g id="edge2_Node000001_Node000003" class="edge">
<title>Node1&#45;&gt;Node3</title>
<g id="a_edge2_Node000001_Node000003"><a xlink:title=" ">
<path fill="none" stroke="#63b8ff" d="M124.35,-54C135.01,-54 146.17,-54 157.06,-54"/>
<polygon fill="#63b8ff" stroke="#63b8ff" points="156.75,-57.5 166.75,-54 156.75,-50.5 156.75,-57.5"/>
</a>
</g>
</g>
<!-- Node4 -->
<g id="Node000004" class="node">
<title>Node4</title>
<g id="a_Node000004"><a xlink:href="class_player.html#af56f0bf98c0423a3a75b0848607d03a4" target="_top" xlink:title="Get the player&#39;s symbol.">
<polygon fill="white" stroke="#666666" points="278.75,-20 178.75,-20 178.75,0 278.75,0 278.75,-20"/>
<text xml:space="preserve" text-anchor="middle" x="228.75" y="-6.5" font-family="Helvetica,sans-Serif" font-size="10.00">Player::get_symbol</text>
</a>
</g>
</g>
<!-- Node1&#45;&gt;Node4 -->
<g id="edge3_Node000001_Node000004" class="edge">
<title>Node1&#45;&gt;Node4</title>
<g id="a_edge3_Node000001_Node000004"><a xlink:title=" ">
<path fill="none" stroke="#63b8ff" d="M102.04,-43.57C124.74,-37.51 153.56,-29.81 177.88,-23.32"/>
<polygon fill="#63b8ff" stroke="#63b8ff" points="178.48,-26.78 187.24,-20.82 176.67,-20.02 178.48,-26.78"/>
</a>
</g>
</g>
</g>
</svg>
