<?xml version="1.0" encoding="UTF-8" standalone="no"?>
<!DOCTYPE svg PUBLIC "-//W3C//DTD SVG 1.1//EN"
 "http://www.w3.org/Graphics/SVG/1.1/DTD/svg11.dtd">
<!-- Generated by graphviz version 14.0.2 (20251019.1705)
 -->
<!-- Title: XO_inf_AI Pages: 1 -->
<svg width="77pt" height="244pt"
 viewBox="0.00 0.00 77.00 244.00" xmlns="http://www.w3.org/2000/svg" xmlns:xlink="http://www.w3.org/1999/xlink">
<g id="graph0" class="graph" transform="scale(1 1) rotate(0) translate(4 240)">
<title>XO_inf_AI</title>
<!-- Node1 -->
<g id="Node000001" class="node">
<title>Node1</title>
<g id="a_Node000001"><a xlink:title=" ">
<polygon fill="#999999" stroke="none" points="69,-100 0,-100 0,0 69,0 69,-100"/>
<text xml:space="preserve" text-anchor="start" x="12" y="-86.5" font-family="Helvetica,sans-Serif" font-size="10.00">XO_inf_AI</text>
<text xml:space="preserve" text-anchor="start" x="33" y="-70.5" font-family="Helvetica,sans-Serif" font-size="10.00"> </text>
<text xml:space="preserve" text-anchor="start" x="4" y="-54.5" font-family="Helvetica,sans-Serif" font-size="10.00">+</text>
<text xml:space="preserve" text-anchor="start" x="14" y="-54.5" font-family="Helvetica,sans-Serif" font-size="10.00">XO_inf_AI()</text>
<text xml:space="preserve" text-anchor="start" x="4" y="-38.5" font-family="Helvetica,sans-Serif" font-size="10.00">+</text>
<text xml:space="preserve" text-anchor="start" x="14" y="-38.5" font-family="Helvetica,sans-Serif" font-size="10.00">evaluate()</text>
<text xml:space="preserve" text-anchor="start" x="4" y="-22.5" font-family="Helvetica,sans-Serif" font-size="10.00">+</text>
<text xml:space="preserve" text-anchor="start" x="14" y="-22.5" font-family="Helvetica,sans-Serif" font-size="10.00">minimax()</text>
<text xml:space="preserve" text-anchor="start" x="4" y="-6.5" font-family="Helvetica,sans-Serif" font-size="10.00">+</text>
<text xml:space="preserve" text-anchor="start" x="14" y="-6.5" font-family="Helvetica,sans-Serif" font-size="10.00">bestMove()</text>
<polygon fill="#666666" stroke="#666666" points="0,-82 0,-82 69,-82 69,-82 0,-82"/>
<polygon fill="#666666" stroke="#666666" points="0,-66 0,-66 69,-66 69,-66 0,-66"/>
<polygon fill="none" stroke="#666666" points="0,0 0,-100 69,-100 69,0 0,0"/>
</a>
</g>
</g>
<!-- Node2 -->
<g id="Node000002" class="node">
<title>Node2</title>
<g id="a_Node000002"><a xlink:href="$class_a_i.html" xlink:title="AI Interface for all implementations in games.">
<polygon fill="white" stroke="none" points="67.88,-236 1.12,-236 1.12,-136 67.88,-136 67.88,-236"/>
<text xml:space="preserve" text-anchor="start" x="29.62" y="-222.5" font-family="Helvetica,sans-Serif" font-size="10.00">AI</text>
<text xml:space="preserve" text-anchor="start" x="33" y="-206.5" font-family="Helvetica,sans-Serif" font-size="10.00"> </text>
<text xml:space="preserve" text-anchor="start" x="5.12" y="-190.5" font-family="Helvetica,sans-Serif" font-size="10.00">+</text>
<text xml:space="preserve" text-anchor="start" x="15.12" y="-190.5" font-family="Helvetica,sans-Serif" font-size="10.00">evaluate()</text>
<text xml:space="preserve" text-anchor="start" x="5.12" y="-174.5" font-family="Helvetica,sans-Serif" font-size="10.00">+</text>
<text xml:space="preserve" text-anchor="start" x="15.12" y="-174.5" font-family="Helvetica,sans-Serif" font-size="10.00">minimax()</text>
<text xml:space="preserve" text-anchor="start" x="5.12" y="-158.5" font-family="Helvetica,sans-Serif" font-size="10.00">+</text>
<text xml:space="preserve" text-anchor="start" x="15.12" y="-158.5" font-family="Helvetica,sans-Serif" font-size="10.00">bestMove()</text>
<text xml:space="preserve" text-anchor="start" x="5.12" y="-142.5" font-family="Helvetica,sans-Serif" font-size="10.00">+</text>
<text xml:space="preserve" text-anchor="start" x="15.12" y="-142.5" font-family="Helvetica,sans-Serif" font-size="10.00">~AI()</text>
<polygon fill="#666666" stroke="#666666" points="1.12,-218 1.12,-218 67.88,-218 67.88,-218 1.12,-218"/>
<polygon fill="#666666" stroke="#666666" points="1.12,-202 1.12,-202 67.88,-202 67.88,-202 1.12,-202"/>
<polygon fill="none" stroke="#666666" points="1.12,-136 1.12,-236 67.88,-236 67.88,-136 1.12,-136"/>
</a>
</g>
</g>
<!-- Node2&#45;&gt;Node1 -->
<g id="edge1_Node000001_Node000002" class="edge">
<title>Node2&#45;&gt;Node1</title>
<g id="a_edge1_Node000001_Node000002"><a xlink:title=" ">
<path fill="none" stroke="#63b8ff" d="M34.5,-124.97C34.5,-116.6 34.5,-108.08 34.5,-99.94"/>
<polygon fill="none" stroke="#63b8ff" points="31,-124.73 34.5,-134.73 38,-124.73 31,-124.73"/>
</a>
</g>
</g>
</g>
</svg>
