<?xml version="1.0" encoding="UTF-8" standalone="no"?>
<!DOCTYPE svg PUBLIC "-//W3C//DTD SVG 1.1//EN"
 "http://www.w3.org/Graphics/SVG/1.1/DTD/svg11.dtd">
<!-- Generated by graphviz version 14.0.2 (20251019.1705)
 -->
<!-- Title: SUS_UI::setup_players Pages: 1 -->
<svg width="307pt" height="116pt"
 viewBox="0.00 0.00 307.00 116.00" xmlns="http://www.w3.org/2000/svg" xmlns:xlink="http://www.w3.org/1999/xlink">
<g id="graph0" class="graph" transform="scale(1 1) rotate(0) translate(4 112)">
<title>SUS_UI::setup_players</title>
<!-- Node1 -->
<g id="Node000001" class="node">
<title>Node1</title>
<g id="a_Node000001"><a xlink:title="Sets up two players.">
<polygon fill="#999999" stroke="#666666" points="119.5,-70 0,-70 0,-50 119.5,-50 119.5,-70"/>
<text xml:space="preserve" text-anchor="middle" x="59.75" y="-56.5" font-family="Helvetica,sans-Serif" font-size="10.00">SUS_UI::setup_players</text>
</a>
</g>
</g>
<!-- Node2 -->
<g id="Node000002" class="node">
<title>Node2</title>
<g id="a_Node000002"><a xlink:href="$class_s_u_s___u_i.html#ae510c6c91efc4a17d7dadb4282e00e84" xlink:title="Creates a player instance.">
<polygon fill="white" stroke="#666666" points="285.88,-108 168.62,-108 168.62,-88 285.88,-88 285.88,-108"/>
<text xml:space="preserve" text-anchor="middle" x="227.25" y="-94.5" font-family="Helvetica,sans-Serif" font-size="10.00">SUS_UI::create_player</text>
</a>
</g>
</g>
<!-- Node1&#45;&gt;Node2 -->
<g id="edge1_Node000001_Node000002" class="edge">
<title>Node1&#45;&gt;Node2</title>
<g id="a_edge1_Node000001_Node000002"><a xlink:title=" ">
<path fill="none" stroke="#63b8ff" d="M106.41,-70.48C125.95,-74.97 148.96,-80.25 169.57,-84.99"/>
<polygon fill="#63b8ff" stroke="#63b8ff" points="168.73,-88.38 179.26,-87.21 170.3,-81.56 168.73,-88.38"/>
</a>
</g>
</g>
<!-- Node3 -->
<g id="Node000003" class="node">
<title>Node3</title>
<g id="a_Node000003"><a xlink:href="$class_u_i.html#a7b1603de1f73fbb4006e4f00a27c44da" xlink:title=" ">
<polygon fill="white" stroke="#666666" points="299,-70 155.5,-70 155.5,-50 299,-50 299,-70"/>
<text xml:space="preserve" text-anchor="middle" x="227.25" y="-56.5" font-family="Helvetica,sans-Serif" font-size="10.00">UI&lt; char &gt;::get_player_name</text>
</a>
</g>
</g>
<!-- Node1&#45;&gt;Node3 -->
<g id="edge2_Node000001_Node000003" class="edge">
<title>Node1&#45;&gt;Node3</title>
<g id="a_edge2_Node000001_Node000003"><a xlink:title=" ">
<path fill="none" stroke="#63b8ff" d="M119.57,-60C127.4,-60 135.54,-60 143.68,-60"/>
<polygon fill="#63b8ff" stroke="#63b8ff" points="143.64,-63.5 153.64,-60 143.64,-56.5 143.64,-63.5"/>
</a>
</g>
</g>
<!-- Node4 -->
<g id="Node000004" class="node">
<title>Node4</title>
<g id="a_Node000004"><a xlink:href="$class_custom___u_i.html#afec2270d76585d04ce1365bd11e99c59" xlink:title=" ">
<polygon fill="white" stroke="#666666" points="286.62,-32 167.88,-32 167.88,0 286.62,0 286.62,-32"/>
<text xml:space="preserve" text-anchor="start" x="175.88" y="-18.5" font-family="Helvetica,sans-Serif" font-size="10.00">Custom_UI&lt; char &gt;::</text>
<text xml:space="preserve" text-anchor="middle" x="227.25" y="-6.5" font-family="Helvetica,sans-Serif" font-size="10.00">get_player_type_choice</text>
</a>
</g>
</g>
<!-- Node1&#45;&gt;Node4 -->
<g id="edge3_Node000001_Node000004" class="edge">
<title>Node1&#45;&gt;Node4</title>
<g id="a_edge3_Node000001_Node000004"><a xlink:title=" ">
<path fill="none" stroke="#63b8ff" d="M99.97,-49.57C116.91,-45.07 137.25,-39.66 156.61,-34.51"/>
<polygon fill="#63b8ff" stroke="#63b8ff" points="157.32,-37.95 166.08,-32 155.52,-31.18 157.32,-37.95"/>
</a>
</g>
</g>
</g>
</svg>
