<?xml version="1.0" encoding="UTF-8" standalone="no"?>
<!DOCTYPE svg PUBLIC "-//W3C//DTD SVG 1.1//EN"
 "http://www.w3.org/Graphics/SVG/1.1/DTD/svg11.dtd">
<!-- Generated by graphviz version 14.0.2 (20251019.1705)
 -->
<!-- Title: PyramidXO_UI::get_move Pages: 1 -->
<svg width="450pt" height="142pt"
 viewBox="0.00 0.00 450.00 142.00" xmlns="http://www.w3.org/2000/svg" xmlns:xlink="http://www.w3.org/1999/xlink">
<g id="graph0" class="graph" transform="scale(1 1) rotate(0) translate(4 138)">
<title>PyramidXO_UI::get_move</title>
<!-- Node1 -->
<g id="Node000001" class="node">
<title>Node1</title>
<g id="a_Node000001"><a xlink:title="Reads human move or requests AI move.">
<polygon fill="#999999" stroke="#666666" points="130.75,-77 0,-77 0,-57 130.75,-57 130.75,-77"/>
<text xml:space="preserve" text-anchor="middle" x="65.38" y="-63.5" font-family="Helvetica,sans-Serif" font-size="10.00">PyramidXO_UI::get_move</text>
</a>
</g>
</g>
<!-- Node2 -->
<g id="Node000002" class="node">
<title>Node2</title>
<g id="a_Node000002"><a xlink:href="$class_pyramid_x_o___a_i.html#a503de221d36f762812330be2aa1c0e5f" xlink:title="Generates a random valid move within the pyramid.">
<polygon fill="white" stroke="#666666" points="296.75,-134 166.75,-134 166.75,-114 296.75,-114 296.75,-134"/>
<text xml:space="preserve" text-anchor="middle" x="231.75" y="-120.5" font-family="Helvetica,sans-Serif" font-size="10.00">PyramidXO_AI::bestMove</text>
</a>
</g>
</g>
<!-- Node1&#45;&gt;Node2 -->
<g id="edge1_Node000001_Node000002" class="edge">
<title>Node1&#45;&gt;Node2</title>
<g id="a_edge1_Node000001_Node000002"><a xlink:title=" ">
<path fill="none" stroke="#63b8ff" d="M96.52,-77.45C122.74,-86.55 160.96,-99.8 189.91,-109.84"/>
<polygon fill="#63b8ff" stroke="#63b8ff" points="188.49,-113.05 199.08,-113.02 190.78,-106.44 188.49,-113.05"/>
</a>
</g>
</g>
<!-- Node4 -->
<g id="Node000004" class="node">
<title>Node4</title>
<g id="a_Node000004"><a xlink:href="$class_player.html#af56f0bf98c0423a3a75b0848607d03a4" xlink:title="Get the player&#39;s symbol.">
<polygon fill="white" stroke="#666666" points="437.25,-96 337.25,-96 337.25,-76 437.25,-76 437.25,-96"/>
<text xml:space="preserve" text-anchor="middle" x="387.25" y="-82.5" font-family="Helvetica,sans-Serif" font-size="10.00">Player::get_symbol</text>
</a>
</g>
</g>
<!-- Node1&#45;&gt;Node4 -->
<g id="edge5_Node000001_Node000004" class="edge">
<title>Node1&#45;&gt;Node4</title>
<g id="a_edge5_Node000001_Node000004"><a xlink:title=" ">
<path fill="none" stroke="#63b8ff" d="M131.11,-70.84C187.86,-74.22 269.76,-79.08 325.35,-82.38"/>
<polygon fill="#63b8ff" stroke="#63b8ff" points="325.09,-85.87 335.28,-82.97 325.5,-78.89 325.09,-85.87"/>
</a>
</g>
</g>
<!-- Node5 -->
<g id="Node000005" class="node">
<title>Node5</title>
<g id="a_Node000005"><a xlink:href="$class_player.html#aed2af19790ba73190e3ebeea589518e1" xlink:title="Get the player&#39;s name.">
<polygon fill="white" stroke="#666666" points="278,-58 185.5,-58 185.5,-38 278,-38 278,-58"/>
<text xml:space="preserve" text-anchor="middle" x="231.75" y="-44.5" font-family="Helvetica,sans-Serif" font-size="10.00">Player::get_name</text>
</a>
</g>
</g>
<!-- Node1&#45;&gt;Node5 -->
<g id="edge4_Node000001_Node000005" class="edge">
<title>Node1&#45;&gt;Node5</title>
<g id="a_edge4_Node000001_Node000005"><a xlink:title=" ">
<path fill="none" stroke="#63b8ff" d="M130.87,-59.55C145.06,-57.9 160,-56.18 173.86,-54.58"/>
<polygon fill="#63b8ff" stroke="#63b8ff" points="174.19,-58.06 183.72,-53.44 173.38,-51.11 174.19,-58.06"/>
</a>
</g>
</g>
<!-- Node6 -->
<g id="Node000006" class="node">
<title>Node6</title>
<g id="a_Node000006"><a xlink:href="$class_player.html#a2df3bd299bf7aecfa2275ec6902a60f8" xlink:title="Get player type (e.g., &#39;H&#39; or &#39;C&#39;).">
<polygon fill="white" stroke="#666666" points="275.38,-20 188.12,-20 188.12,0 275.38,0 275.38,-20"/>
<text xml:space="preserve" text-anchor="middle" x="231.75" y="-6.5" font-family="Helvetica,sans-Serif" font-size="10.00">Player::get_type</text>
</a>
</g>
</g>
<!-- Node1&#45;&gt;Node6 -->
<g id="edge6_Node000001_Node000006" class="edge">
<title>Node1&#45;&gt;Node6</title>
<g id="a_edge6_Node000001_Node000006"><a xlink:title=" ">
<path fill="none" stroke="#63b8ff" d="M92.18,-56.63C112.35,-48.68 141.15,-37.63 166.75,-29 171.9,-27.26 177.31,-25.52 182.72,-23.84"/>
<polygon fill="#63b8ff" stroke="#63b8ff" points="183.72,-27.2 192.27,-20.93 181.68,-20.5 183.72,-27.2"/>
</a>
</g>
</g>
<!-- Node3 -->
<g id="Node000003" class="node">
<title>Node3</title>
<g id="a_Node000003"><a xlink:href="$class_player.html#a508617eddfae8915d098102d480fc888" xlink:title="Get a pointer to the game board.">
<polygon fill="white" stroke="#666666" points="441.75,-134 332.75,-134 332.75,-114 441.75,-114 441.75,-134"/>
<text xml:space="preserve" text-anchor="middle" x="387.25" y="-120.5" font-family="Helvetica,sans-Serif" font-size="10.00">Player::get_board_ptr</text>
</a>
</g>
</g>
<!-- Node2&#45;&gt;Node3 -->
<g id="edge2_Node000002_Node000003" class="edge">
<title>Node2&#45;&gt;Node3</title>
<g id="a_edge2_Node000002_Node000003"><a xlink:title=" ">
<path fill="none" stroke="#63b8ff" d="M296.96,-124C304.91,-124 313.04,-124 321,-124"/>
<polygon fill="#63b8ff" stroke="#63b8ff" points="321,-127.5 331,-124 321,-120.5 321,-127.5"/>
</a>
</g>
</g>
<!-- Node2&#45;&gt;Node4 -->
<g id="edge3_Node000002_Node000004" class="edge">
<title>Node2&#45;&gt;Node4</title>
<g id="a_edge3_Node000002_Node000004"><a xlink:title=" ">
<path fill="none" stroke="#63b8ff" d="M275.1,-113.52C292.97,-109.09 313.97,-103.89 332.88,-99.21"/>
<polygon fill="#63b8ff" stroke="#63b8ff" points="333.7,-102.61 342.57,-96.81 332.02,-95.82 333.7,-102.61"/>
</a>
</g>
</g>
</g>
</svg>
