<?xml version="1.0" encoding="UTF-8" standalone="no"?>
<!DOCTYPE svg PUBLIC "-//W3C//DTD SVG 1.1//EN"
 "http://www.w3.org/Graphics/SVG/1.1/DTD/svg11.dtd">
<!-- Generated by graphviz version 14.0.2 (20251019.1705)
 -->
<!-- Title: PyramidXO_Board::update_board Pages: 1 -->
<svg width="273pt" height="104pt"
 viewBox="0.00 0.00 273.00 104.00" xmlns="http://www.w3.org/2000/svg" xmlns:xlink="http://www.w3.org/1999/xlink">
<g id="graph0" class="graph" transform="scale(1 1) rotate(0) translate(4 100)">
<title>PyramidXO_Board::update_board</title>
<!-- Node1 -->
<g id="Node000001" class="node">
<title>Node1</title>
<g id="a_Node000001"><a xlink:title="Attempts to place a symbol on the board.">
<polygon fill="#999999" stroke="#666666" points="132.25,-64 0,-64 0,-32 132.25,-32 132.25,-64"/>
<text xml:space="preserve" text-anchor="start" x="8" y="-50.5" font-family="Helvetica,sans-Serif" font-size="10.00">PyramidXO_Board::update</text>
<text xml:space="preserve" text-anchor="middle" x="66.12" y="-38.5" font-family="Helvetica,sans-Serif" font-size="10.00">_board</text>
</a>
</g>
</g>
<!-- Node2 -->
<g id="Node000002" class="node">
<title>Node2</title>
<g id="a_Node000002"><a xlink:href="class_move.html#a595bf740852c05a1cb425ef2640fd4ff" target="_top" xlink:title="Get the move symbol.">
<polygon fill="white" stroke="#666666" points="264.5,-96 168.25,-96 168.25,-76 264.5,-76 264.5,-96"/>
<text xml:space="preserve" text-anchor="middle" x="216.38" y="-82.5" font-family="Helvetica,sans-Serif" font-size="10.00">Move::get_symbol</text>
</a>
</g>
</g>
<!-- Node1&#45;&gt;Node2 -->
<g id="edge1_Node000001_Node000002" class="edge">
<title>Node1&#45;&gt;Node2</title>
<g id="a_edge1_Node000001_Node000002"><a xlink:title=" ">
<path fill="none" stroke="#63b8ff" d="M131.29,-64.45C142.09,-67.22 153.18,-70.06 163.62,-72.73"/>
<polygon fill="#63b8ff" stroke="#63b8ff" points="162.63,-76.09 173.18,-75.18 164.36,-69.31 162.63,-76.09"/>
</a>
</g>
</g>
<!-- Node3 -->
<g id="Node000003" class="node">
<title>Node3</title>
<g id="a_Node000003"><a xlink:href="class_move.html#a9d4f543a81e361f872d37bcfb64d5b55" target="_top" xlink:title="Get row index.">
<polygon fill="white" stroke="#666666" points="251.38,-58 181.38,-58 181.38,-38 251.38,-38 251.38,-58"/>
<text xml:space="preserve" text-anchor="middle" x="216.38" y="-44.5" font-family="Helvetica,sans-Serif" font-size="10.00">Move::get_x</text>
</a>
</g>
</g>
<!-- Node1&#45;&gt;Node3 -->
<g id="edge2_Node000001_Node000003" class="edge">
<title>Node1&#45;&gt;Node3</title>
<g id="a_edge2_Node000001_Node000003"><a xlink:title=" ">
<path fill="none" stroke="#63b8ff" d="M132.58,-48C145.15,-48 158.05,-48 169.82,-48"/>
<polygon fill="#63b8ff" stroke="#63b8ff" points="169.64,-51.5 179.64,-48 169.64,-44.5 169.64,-51.5"/>
</a>
</g>
</g>
<!-- Node4 -->
<g id="Node000004" class="node">
<title>Node4</title>
<g id="a_Node000004"><a xlink:href="class_move.html#a96469802a55c9083a1e93c7edec8a00c" target="_top" xlink:title="Get column index.">
<polygon fill="white" stroke="#666666" points="251.38,-20 181.38,-20 181.38,0 251.38,0 251.38,-20"/>
<text xml:space="preserve" text-anchor="middle" x="216.38" y="-6.5" font-family="Helvetica,sans-Serif" font-size="10.00">Move::get_y</text>
</a>
</g>
</g>
<!-- Node1&#45;&gt;Node4 -->
<g id="edge3_Node000001_Node000004" class="edge">
<title>Node1&#45;&gt;Node4</title>
<g id="a_edge3_Node000001_Node000004"><a xlink:title=" ">
<path fill="none" stroke="#63b8ff" d="M131.29,-31.55C144.35,-28.21 157.83,-24.75 170.07,-21.61"/>
<polygon fill="#63b8ff" stroke="#63b8ff" points="170.63,-25.08 179.45,-19.21 168.89,-18.3 170.63,-25.08"/>
</a>
</g>
</g>
</g>
</svg>
