<?xml version="1.0" encoding="UTF-8" standalone="no"?>
<!DOCTYPE svg PUBLIC "-//W3C//DTD SVG 1.1//EN"
 "http://www.w3.org/Graphics/SVG/1.1/DTD/svg11.dtd">
<!-- Generated by graphviz version 14.0.2 (20251019.1705)
 -->
<!-- Title: Anti_XO_Board::is_draw Pages: 1 -->
<svg width="424pt" height="28pt"
 viewBox="0.00 0.00 424.00 28.00" xmlns="http://www.w3.org/2000/svg" xmlns:xlink="http://www.w3.org/1999/xlink">
<g id="graph0" class="graph" transform="scale(1 1) rotate(0) translate(4 24)">
<title>Anti_XO_Board::is_draw</title>
<!-- Node1 -->
<g id="Node000001" class="node">
<title>Node1</title>
<g id="a_Node000001"><a xlink:title="Checks if the game is a draw (board full and no losing line).">
<polygon fill="#999999" stroke="#666666" points="123.25,-20 0,-20 0,0 123.25,0 123.25,-20"/>
<text xml:space="preserve" text-anchor="middle" x="61.62" y="-6.5" font-family="Helvetica,sans-Serif" font-size="10.00">Anti_XO_Board::is_draw</text>
</a>
</g>
</g>
<!-- Node2 -->
<g id="Node000002" class="node">
<title>Node2</title>
<g id="a_Node000002"><a xlink:href="class_anti___x_o___board.html#a5aac552832361a07465eaee44b5ead48" target="_top" xlink:title="Checks if the player loses by forming a 3&#45;in&#45;a&#45;row line.">
<polygon fill="white" stroke="#666666" points="279.5,-20 159.25,-20 159.25,0 279.5,0 279.5,-20"/>
<text xml:space="preserve" text-anchor="middle" x="219.38" y="-6.5" font-family="Helvetica,sans-Serif" font-size="10.00">Anti_XO_Board::is_lose</text>
</a>
</g>
</g>
<!-- Node1&#45;&gt;Node2 -->
<g id="edge1_Node000001_Node000002" class="edge">
<title>Node1&#45;&gt;Node2</title>
<g id="a_edge1_Node000001_Node000002"><a xlink:title=" ">
<path fill="none" stroke="#63b8ff" d="M123.73,-10C131.52,-10 139.54,-10 147.47,-10"/>
<polygon fill="#63b8ff" stroke="#63b8ff" points="147.46,-13.5 157.46,-10 147.46,-6.5 147.46,-13.5"/>
</a>
</g>
</g>
<!-- Node3 -->
<g id="Node000003" class="node">
<title>Node3</title>
<g id="a_Node000003"><a xlink:href="class_player.html#af56f0bf98c0423a3a75b0848607d03a4" target="_top" xlink:title="Get the player&#39;s symbol.">
<polygon fill="white" stroke="#666666" points="415.5,-20 315.5,-20 315.5,0 415.5,0 415.5,-20"/>
<text xml:space="preserve" text-anchor="middle" x="365.5" y="-6.5" font-family="Helvetica,sans-Serif" font-size="10.00">Player::get_symbol</text>
</a>
</g>
</g>
<!-- Node2&#45;&gt;Node3 -->
<g id="edge2_Node000002_Node000003" class="edge">
<title>Node2&#45;&gt;Node3</title>
<g id="a_edge2_Node000002_Node000003"><a xlink:title=" ">
<path fill="none" stroke="#63b8ff" d="M279.83,-10C287.75,-10 295.88,-10 303.82,-10"/>
<polygon fill="#63b8ff" stroke="#63b8ff" points="303.75,-13.5 313.75,-10 303.75,-6.5 303.75,-13.5"/>
</a>
</g>
</g>
</g>
</svg>
