<?xml version="1.0" encoding="UTF-8" standalone="no"?>
<!DOCTYPE svg PUBLIC "-//W3C//DTD SVG 1.1//EN"
 "http://www.w3.org/Graphics/SVG/1.1/DTD/svg11.dtd">
<!-- Generated by graphviz version 14.0.2 (20251019.1705)
 -->
<!-- Title: NeuralNetwork::forward Pages: 1 -->
<svg width="280pt" height="66pt"
 viewBox="0.00 0.00 280.00 66.00" xmlns="http://www.w3.org/2000/svg" xmlns:xlink="http://www.w3.org/1999/xlink">
<g id="graph0" class="graph" transform="scale(1 1) rotate(0) translate(4 62)">
<title>NeuralNetwork::forward</title>
<!-- Node1 -->
<g id="Node000001" class="node">
<title>Node1</title>
<g id="a_Node000001"><a xlink:title="Perform a forward pass through all layers.">
<polygon fill="#999999" stroke="#666666" points="272,-39 152.5,-39 152.5,-19 272,-19 272,-39"/>
<text xml:space="preserve" text-anchor="middle" x="212.25" y="-25.5" font-family="Helvetica,sans-Serif" font-size="10.00">NeuralNetwork::forward</text>
</a>
</g>
</g>
<!-- Node2 -->
<g id="Node000002" class="node">
<title>Node2</title>
<g id="a_Node000002"><a xlink:href="$class_neural_network.html#a408fd2b9cb8c83c4e50b54b2fd7c0b06" xlink:title="Predict output from a given input without performing weight updates.">
<polygon fill="white" stroke="#666666" points="116.5,-58 0,-58 0,-38 116.5,-38 116.5,-58"/>
<text xml:space="preserve" text-anchor="middle" x="58.25" y="-44.5" font-family="Helvetica,sans-Serif" font-size="10.00">NeuralNetwork::predict</text>
</a>
</g>
</g>
<!-- Node1&#45;&gt;Node2 -->
<g id="edge1_Node000001_Node000002" class="edge">
<title>Node1&#45;&gt;Node2</title>
<g id="a_edge1_Node000001_Node000002"><a xlink:title=" ">
<path fill="none" stroke="#63b8ff" d="M140.7,-37.82C132.61,-38.83 124.43,-39.85 116.55,-40.84"/>
<polygon fill="#63b8ff" stroke="#63b8ff" points="141.06,-41.3 150.55,-36.59 140.19,-34.36 141.06,-41.3"/>
</a>
</g>
</g>
<!-- Node3 -->
<g id="Node000003" class="node">
<title>Node3</title>
<g id="a_Node000003"><a xlink:href="$class_neural_network.html#a407ef851e7e66d12054d1940c815a2bf" xlink:title="Train the network on a single input&#45;output pair.">
<polygon fill="white" stroke="#666666" points="111.25,-20 5.25,-20 5.25,0 111.25,0 111.25,-20"/>
<text xml:space="preserve" text-anchor="middle" x="58.25" y="-6.5" font-family="Helvetica,sans-Serif" font-size="10.00">NeuralNetwork::train</text>
</a>
</g>
</g>
<!-- Node1&#45;&gt;Node3 -->
<g id="edge2_Node000001_Node000003" class="edge">
<title>Node1&#45;&gt;Node3</title>
<g id="a_edge2_Node000001_Node000003"><a xlink:title=" ">
<path fill="none" stroke="#63b8ff" d="M140.66,-20.18C130.88,-18.95 120.98,-17.72 111.61,-16.55"/>
<polygon fill="#63b8ff" stroke="#63b8ff" points="140.19,-23.64 150.55,-21.41 141.06,-16.7 140.19,-23.64"/>
</a>
</g>
</g>
</g>
</svg>
