<?xml version="1.0" encoding="UTF-8" standalone="no"?>
<!DOCTYPE svg PUBLIC "-//W3C//DTD SVG 1.1//EN"
 "http://www.w3.org/Graphics/SVG/1.1/DTD/svg11.dtd">
<!-- Generated by graphviz version 14.0.2 (20251019.1705)
 -->
<!-- Title: Obstacles_UI::get_move Pages: 1 -->
<svg width="503pt" height="180pt"
 viewBox="0.00 0.00 503.00 180.00" xmlns="http://www.w3.org/2000/svg" xmlns:xlink="http://www.w3.org/1999/xlink">
<g id="graph0" class="graph" transform="scale(1 1) rotate(0) translate(4 176)">
<title>Obstacles_UI::get_move</title>
<!-- Node1 -->
<g id="Node000001" class="node">
<title>Node1</title>
<g id="a_Node000001"><a xlink:title="Obtains a move from a human or AI player.">
<polygon fill="#999999" stroke="#666666" points="124.75,-96 0,-96 0,-76 124.75,-76 124.75,-96"/>
<text xml:space="preserve" text-anchor="middle" x="62.38" y="-82.5" font-family="Helvetica,sans-Serif" font-size="10.00">Obstacles_UI::get_move</text>
</a>
</g>
</g>
<!-- Node2 -->
<g id="Node000002" class="node">
<title>Node2</title>
<g id="a_Node000002"><a xlink:href="$class_obstacles___a_i.html#ac9b20f46edf15c73cdcc6fe7a79ee34d" xlink:title="Determines the optimal move using minimax.">
<polygon fill="white" stroke="#666666" points="284.75,-134 160.75,-134 160.75,-114 284.75,-114 284.75,-134"/>
<text xml:space="preserve" text-anchor="middle" x="222.75" y="-120.5" font-family="Helvetica,sans-Serif" font-size="10.00">Obstacles_AI::bestMove</text>
</a>
</g>
</g>
<!-- Node1&#45;&gt;Node2 -->
<g id="edge1_Node000001_Node000002" class="edge">
<title>Node1&#45;&gt;Node2</title>
<g id="a_edge1_Node000001_Node000002"><a xlink:title=" ">
<path fill="none" stroke="#63b8ff" d="M107.07,-96.48C125.68,-100.95 147.59,-106.21 167.24,-110.92"/>
<polygon fill="#63b8ff" stroke="#63b8ff" points="166.18,-114.27 176.72,-113.2 167.82,-107.46 166.18,-114.27"/>
</a>
</g>
</g>
<!-- Node3 -->
<g id="Node000003" class="node">
<title>Node3</title>
<g id="a_Node000003"><a xlink:href="$class_player.html#a508617eddfae8915d098102d480fc888" xlink:title="Get a pointer to the game board.">
<polygon fill="white" stroke="#666666" points="462.38,-172 353.38,-172 353.38,-152 462.38,-152 462.38,-172"/>
<text xml:space="preserve" text-anchor="middle" x="407.88" y="-158.5" font-family="Helvetica,sans-Serif" font-size="10.00">Player::get_board_ptr</text>
</a>
</g>
</g>
<!-- Node1&#45;&gt;Node3 -->
<g id="edge5_Node000001_Node000003" class="edge">
<title>Node1&#45;&gt;Node3</title>
<g id="a_edge5_Node000001_Node000003"><a xlink:title=" ">
<path fill="none" stroke="#63b8ff" d="M76.63,-96.43C94.54,-109.88 128.03,-132.76 160.75,-143 220.13,-161.59 291.33,-165.2 341.83,-164.85"/>
<polygon fill="#63b8ff" stroke="#63b8ff" points="341.78,-168.35 351.73,-164.72 341.68,-161.35 341.78,-168.35"/>
</a>
</g>
</g>
<!-- Node4 -->
<g id="Node000004" class="node">
<title>Node4</title>
<g id="a_Node000004"><a xlink:href="$class_player.html#af56f0bf98c0423a3a75b0848607d03a4" xlink:title="Get the player&#39;s symbol.">
<polygon fill="white" stroke="#666666" points="457.88,-96 357.88,-96 357.88,-76 457.88,-76 457.88,-96"/>
<text xml:space="preserve" text-anchor="middle" x="407.88" y="-82.5" font-family="Helvetica,sans-Serif" font-size="10.00">Player::get_symbol</text>
</a>
</g>
</g>
<!-- Node1&#45;&gt;Node4 -->
<g id="edge7_Node000001_Node000004" class="edge">
<title>Node1&#45;&gt;Node4</title>
<g id="a_edge7_Node000001_Node000004"><a xlink:title=" ">
<path fill="none" stroke="#63b8ff" d="M125.18,-86C187.83,-86 284.13,-86 346.32,-86"/>
<polygon fill="#63b8ff" stroke="#63b8ff" points="346.01,-89.5 356.01,-86 346.01,-82.5 346.01,-89.5"/>
</a>
</g>
</g>
<!-- Node6 -->
<g id="Node000006" class="node">
<title>Node6</title>
<g id="a_Node000006"><a xlink:href="$class_player.html#aed2af19790ba73190e3ebeea589518e1" xlink:title="Get the player&#39;s name.">
<polygon fill="white" stroke="#666666" points="269,-58 176.5,-58 176.5,-38 269,-38 269,-58"/>
<text xml:space="preserve" text-anchor="middle" x="222.75" y="-44.5" font-family="Helvetica,sans-Serif" font-size="10.00">Player::get_name</text>
</a>
</g>
</g>
<!-- Node1&#45;&gt;Node6 -->
<g id="edge6_Node000001_Node000006" class="edge">
<title>Node1&#45;&gt;Node6</title>
<g id="a_edge6_Node000001_Node000006"><a xlink:title=" ">
<path fill="none" stroke="#63b8ff" d="M107.07,-75.52C125.68,-71.05 147.59,-65.79 167.24,-61.08"/>
<polygon fill="#63b8ff" stroke="#63b8ff" points="167.82,-64.54 176.72,-58.8 166.18,-57.73 167.82,-64.54"/>
</a>
</g>
</g>
<!-- Node7 -->
<g id="Node000007" class="node">
<title>Node7</title>
<g id="a_Node000007"><a xlink:href="$class_player.html#a2df3bd299bf7aecfa2275ec6902a60f8" xlink:title="Get player type (e.g., &#39;H&#39; or &#39;C&#39;).">
<polygon fill="white" stroke="#666666" points="266.38,-20 179.12,-20 179.12,0 266.38,0 266.38,-20"/>
<text xml:space="preserve" text-anchor="middle" x="222.75" y="-6.5" font-family="Helvetica,sans-Serif" font-size="10.00">Player::get_type</text>
</a>
</g>
</g>
<!-- Node1&#45;&gt;Node7 -->
<g id="edge8_Node000001_Node000007" class="edge">
<title>Node1&#45;&gt;Node7</title>
<g id="a_edge8_Node000001_Node000007"><a xlink:title=" ">
<path fill="none" stroke="#63b8ff" d="M78.65,-75.58C97.34,-63.17 130.29,-42.45 160.75,-29 164.58,-27.31 168.6,-25.71 172.68,-24.2"/>
<polygon fill="#63b8ff" stroke="#63b8ff" points="173.78,-27.52 182.08,-20.94 171.49,-20.91 173.78,-27.52"/>
</a>
</g>
</g>
<!-- Node2&#45;&gt;Node3 -->
<g id="edge2_Node000002_Node000003" class="edge">
<title>Node2&#45;&gt;Node3</title>
<g id="a_edge2_Node000002_Node000003"><a xlink:title=" ">
<path fill="none" stroke="#63b8ff" d="M274.27,-134.48C296.29,-139.05 322.3,-144.45 345.42,-149.25"/>
<polygon fill="#63b8ff" stroke="#63b8ff" points="344.53,-152.64 355.03,-151.24 345.95,-145.78 344.53,-152.64"/>
</a>
</g>
</g>
<!-- Node2&#45;&gt;Node4 -->
<g id="edge3_Node000002_Node000004" class="edge">
<title>Node2&#45;&gt;Node4</title>
<g id="a_edge3_Node000002_Node000004"><a xlink:title=" ">
<path fill="none" stroke="#63b8ff" d="M274.27,-113.52C296.56,-108.89 322.95,-103.42 346.28,-98.57"/>
<polygon fill="#63b8ff" stroke="#63b8ff" points="346.9,-102.02 355.98,-96.56 345.48,-95.17 346.9,-102.02"/>
</a>
</g>
</g>
<!-- Node5 -->
<g id="Node000005" class="node">
<title>Node5</title>
<g id="a_Node000005"><a xlink:href="$class_obstacles___board.html#adb1a8948e269860fabdae535c6418972" xlink:title="Returns a list of all legal moves.">
<polygon fill="white" stroke="#666666" points="495,-134 320.75,-134 320.75,-114 495,-114 495,-134"/>
<text xml:space="preserve" text-anchor="middle" x="407.88" y="-120.5" font-family="Helvetica,sans-Serif" font-size="10.00">Obstacles_Board::getAvailableMove</text>
</a>
</g>
</g>
<!-- Node2&#45;&gt;Node5 -->
<g id="edge4_Node000002_Node000005" class="edge">
<title>Node2&#45;&gt;Node5</title>
<g id="a_edge4_Node000002_Node000005"><a xlink:title=" ">
<path fill="none" stroke="#63b8ff" d="M285.24,-124C292.94,-124 300.95,-124 309.03,-124"/>
<polygon fill="#63b8ff" stroke="#63b8ff" points="308.97,-127.5 318.97,-124 308.97,-120.5 308.97,-127.5"/>
</a>
</g>
</g>
</g>
</svg>
