<?xml version="1.0" encoding="UTF-8" standalone="no"?>
<!DOCTYPE svg PUBLIC "-//W3C//DTD SVG 1.1//EN"
 "http://www.w3.org/Graphics/SVG/1.1/DTD/svg11.dtd">
<!-- Generated by graphviz version 14.0.2 (20251019.1705)
 -->
<!-- Title: Ultimate_Board::is_draw Pages: 1 -->
<svg width="421pt" height="78pt"
 viewBox="0.00 0.00 421.00 78.00" xmlns="http://www.w3.org/2000/svg" xmlns:xlink="http://www.w3.org/1999/xlink">
<g id="graph0" class="graph" transform="scale(1 1) rotate(0) translate(4 74)">
<title>Ultimate_Board::is_draw</title>
<!-- Node1 -->
<g id="Node000001" class="node">
<title>Node1</title>
<g id="a_Node000001"><a xlink:title="Checks if the game ended in a draw.">
<polygon fill="#999999" stroke="#666666" points="123.25,-42 0,-42 0,-22 123.25,-22 123.25,-42"/>
<text xml:space="preserve" text-anchor="middle" x="61.62" y="-28.5" font-family="Helvetica,sans-Serif" font-size="10.00">Ultimate_Board::is_draw</text>
</a>
</g>
</g>
<!-- Node2 -->
<g id="Node000002" class="node">
<title>Node2</title>
<g id="a_Node000002"><a xlink:href="class_ultimate___board.html#a891824859cdfd590dafb52250a27148c" target="_top" xlink:title="Checks if all small boards are completed.">
<polygon fill="white" stroke="#666666" points="270.5,-70 165.25,-70 165.25,-38 270.5,-38 270.5,-70"/>
<text xml:space="preserve" text-anchor="start" x="173.25" y="-56.5" font-family="Helvetica,sans-Serif" font-size="10.00">Ultimate_Board::all</text>
<text xml:space="preserve" text-anchor="middle" x="217.88" y="-44.5" font-family="Helvetica,sans-Serif" font-size="10.00">_small_boards_done</text>
</a>
</g>
</g>
<!-- Node1&#45;&gt;Node2 -->
<g id="edge1_Node000001_Node000002" class="edge">
<title>Node1&#45;&gt;Node2</title>
<g id="a_edge1_Node000001_Node000002"><a xlink:title=" ">
<path fill="none" stroke="#63b8ff" d="M123.59,-40.69C133.39,-42.09 143.56,-43.54 153.43,-44.95"/>
<polygon fill="#63b8ff" stroke="#63b8ff" points="152.93,-48.41 163.32,-46.36 153.92,-41.49 152.93,-48.41"/>
</a>
</g>
</g>
<!-- Node3 -->
<g id="Node000003" class="node">
<title>Node3</title>
<g id="a_Node000003"><a xlink:href="class_ultimate___board.html#a34b9605914ffff40dde2acb0be08f857" target="_top" xlink:title="Checks if the player has won the game.">
<polygon fill="white" stroke="#666666" points="276.5,-20 159.25,-20 159.25,0 276.5,0 276.5,-20"/>
<text xml:space="preserve" text-anchor="middle" x="217.88" y="-6.5" font-family="Helvetica,sans-Serif" font-size="10.00">Ultimate_Board::is_win</text>
</a>
</g>
</g>
<!-- Node1&#45;&gt;Node3 -->
<g id="edge2_Node000001_Node000003" class="edge">
<title>Node1&#45;&gt;Node3</title>
<g id="a_edge2_Node000001_Node000003"><a xlink:title=" ">
<path fill="none" stroke="#63b8ff" d="M123.59,-23.31C131.49,-22.18 139.62,-21.02 147.64,-19.87"/>
<polygon fill="#63b8ff" stroke="#63b8ff" points="147.96,-23.36 157.37,-18.49 146.98,-16.43 147.96,-23.36"/>
</a>
</g>
</g>
<!-- Node4 -->
<g id="Node000004" class="node">
<title>Node4</title>
<g id="a_Node000004"><a xlink:href="class_player.html#af56f0bf98c0423a3a75b0848607d03a4" target="_top" xlink:title="Get the player&#39;s symbol.">
<polygon fill="white" stroke="#666666" points="412.5,-20 312.5,-20 312.5,0 412.5,0 412.5,-20"/>
<text xml:space="preserve" text-anchor="middle" x="362.5" y="-6.5" font-family="Helvetica,sans-Serif" font-size="10.00">Player::get_symbol</text>
</a>
</g>
</g>
<!-- Node3&#45;&gt;Node4 -->
<g id="edge3_Node000003_Node000004" class="edge">
<title>Node3&#45;&gt;Node4</title>
<g id="a_edge3_Node000003_Node000004"><a xlink:title=" ">
<path fill="none" stroke="#63b8ff" d="M276.89,-10C284.76,-10 292.86,-10 300.78,-10"/>
<polygon fill="#63b8ff" stroke="#63b8ff" points="300.7,-13.5 310.7,-10 300.7,-6.5 300.7,-13.5"/>
</a>
</g>
</g>
</g>
</svg>
