<?xml version="1.0" encoding="UTF-8" standalone="no"?>
<!DOCTYPE svg PUBLIC "-//W3C//DTD SVG 1.1//EN"
 "http://www.w3.org/Graphics/SVG/1.1/DTD/svg11.dtd">
<!-- Generated by graphviz version 14.0.2 (20251019.1705)
 -->
<!-- Title: _4by4XO_Board Pages: 1 -->
<svg width="107pt" height="436pt"
 viewBox="0.00 0.00 107.00 436.00" xmlns="http://www.w3.org/2000/svg" xmlns:xlink="http://www.w3.org/1999/xlink">
<g id="graph0" class="graph" transform="scale(1 1) rotate(0) translate(4 432)">
<title>_4by4XO_Board</title>
<!-- Node1 -->
<g id="Node000001" class="node">
<title>Node1</title>
<g id="a_Node000001"><a xlink:title="4x4 game board implementation for sliding XO.">
<polygon fill="#999999" stroke="none" points="97.12,-132 1.88,-132 1.88,0 97.12,0 97.12,-132"/>
<text xml:space="preserve" text-anchor="start" x="13.88" y="-118.5" font-family="Helvetica,sans-Serif" font-size="10.00">_4by4XO_Board</text>
<text xml:space="preserve" text-anchor="start" x="48" y="-102.5" font-family="Helvetica,sans-Serif" font-size="10.00"> </text>
<text xml:space="preserve" text-anchor="start" x="5.88" y="-86.5" font-family="Helvetica,sans-Serif" font-size="10.00">+</text>
<text xml:space="preserve" text-anchor="start" x="15.88" y="-86.5" font-family="Helvetica,sans-Serif" font-size="10.00">_4by4XO_Board()</text>
<text xml:space="preserve" text-anchor="start" x="5.88" y="-70.5" font-family="Helvetica,sans-Serif" font-size="10.00">+</text>
<text xml:space="preserve" text-anchor="start" x="15.88" y="-70.5" font-family="Helvetica,sans-Serif" font-size="10.00">update_board()</text>
<text xml:space="preserve" text-anchor="start" x="5.88" y="-54.5" font-family="Helvetica,sans-Serif" font-size="10.00">+</text>
<text xml:space="preserve" text-anchor="start" x="15.88" y="-54.5" font-family="Helvetica,sans-Serif" font-size="10.00">is_win()</text>
<text xml:space="preserve" text-anchor="start" x="5.88" y="-38.5" font-family="Helvetica,sans-Serif" font-size="10.00">+</text>
<text xml:space="preserve" text-anchor="start" x="15.88" y="-38.5" font-family="Helvetica,sans-Serif" font-size="10.00">is_lose()</text>
<text xml:space="preserve" text-anchor="start" x="5.88" y="-22.5" font-family="Helvetica,sans-Serif" font-size="10.00">+</text>
<text xml:space="preserve" text-anchor="start" x="15.88" y="-22.5" font-family="Helvetica,sans-Serif" font-size="10.00">is_draw()</text>
<text xml:space="preserve" text-anchor="start" x="5.88" y="-6.5" font-family="Helvetica,sans-Serif" font-size="10.00">+</text>
<text xml:space="preserve" text-anchor="start" x="15.88" y="-6.5" font-family="Helvetica,sans-Serif" font-size="10.00">game_is_over()</text>
<polygon fill="#666666" stroke="#666666" points="1.88,-114 1.88,-114 97.12,-114 97.12,-114 1.88,-114"/>
<polygon fill="#666666" stroke="#666666" points="1.88,-98 1.88,-98 97.12,-98 97.12,-98 1.88,-98"/>
<polygon fill="none" stroke="#666666" points="1.88,0 1.88,-132 97.12,-132 97.12,0 1.88,0"/>
</a>
</g>
</g>
<!-- Node2 -->
<g id="Node000002" class="node">
<title>Node2</title>
<g id="a_Node000002"><a xlink:href="$class_board.html" xlink:title=" ">
<polygon fill="white" stroke="none" points="99,-428 0,-428 0,-168 99,-168 99,-428"/>
<text xml:space="preserve" text-anchor="start" x="18.38" y="-414.5" font-family="Helvetica,sans-Serif" font-size="10.00">Board&lt; char &gt;</text>
<text xml:space="preserve" text-anchor="start" x="4.38" y="-398.5" font-family="Helvetica,sans-Serif" font-size="10.00">#</text>
<text xml:space="preserve" text-anchor="start" x="14" y="-398.5" font-family="Helvetica,sans-Serif" font-size="10.00">rows</text>
<text xml:space="preserve" text-anchor="start" x="4.38" y="-382.5" font-family="Helvetica,sans-Serif" font-size="10.00">#</text>
<text xml:space="preserve" text-anchor="start" x="14" y="-382.5" font-family="Helvetica,sans-Serif" font-size="10.00">columns</text>
<text xml:space="preserve" text-anchor="start" x="4.38" y="-366.5" font-family="Helvetica,sans-Serif" font-size="10.00">#</text>
<text xml:space="preserve" text-anchor="start" x="14" y="-366.5" font-family="Helvetica,sans-Serif" font-size="10.00">board</text>
<text xml:space="preserve" text-anchor="start" x="4.38" y="-350.5" font-family="Helvetica,sans-Serif" font-size="10.00">#</text>
<text xml:space="preserve" text-anchor="start" x="14" y="-350.5" font-family="Helvetica,sans-Serif" font-size="10.00">n_moves</text>
<text xml:space="preserve" text-anchor="start" x="4" y="-334.5" font-family="Helvetica,sans-Serif" font-size="10.00">+</text>
<text xml:space="preserve" text-anchor="start" x="14" y="-334.5" font-family="Helvetica,sans-Serif" font-size="10.00">Board()</text>
<text xml:space="preserve" text-anchor="start" x="4" y="-318.5" font-family="Helvetica,sans-Serif" font-size="10.00">+</text>
<text xml:space="preserve" text-anchor="start" x="14" y="-318.5" font-family="Helvetica,sans-Serif" font-size="10.00">~Board()</text>
<text xml:space="preserve" text-anchor="start" x="4" y="-302.5" font-family="Helvetica,sans-Serif" font-size="10.00">+</text>
<text xml:space="preserve" text-anchor="start" x="14" y="-302.5" font-family="Helvetica,sans-Serif" font-size="10.00">update_board()</text>
<text xml:space="preserve" text-anchor="start" x="4" y="-286.5" font-family="Helvetica,sans-Serif" font-size="10.00">+</text>
<text xml:space="preserve" text-anchor="start" x="14" y="-286.5" font-family="Helvetica,sans-Serif" font-size="10.00">is_win()</text>
<text xml:space="preserve" text-anchor="start" x="4" y="-270.5" font-family="Helvetica,sans-Serif" font-size="10.00">+</text>
<text xml:space="preserve" text-anchor="start" x="14" y="-270.5" font-family="Helvetica,sans-Serif" font-size="10.00">is_lose()</text>
<text xml:space="preserve" text-anchor="start" x="4" y="-254.5" font-family="Helvetica,sans-Serif" font-size="10.00">+</text>
<text xml:space="preserve" text-anchor="start" x="14" y="-254.5" font-family="Helvetica,sans-Serif" font-size="10.00">is_draw()</text>
<text xml:space="preserve" text-anchor="start" x="4" y="-238.5" font-family="Helvetica,sans-Serif" font-size="10.00">+</text>
<text xml:space="preserve" text-anchor="start" x="14" y="-238.5" font-family="Helvetica,sans-Serif" font-size="10.00">game_is_over()</text>
<text xml:space="preserve" text-anchor="start" x="4" y="-222.5" font-family="Helvetica,sans-Serif" font-size="10.00">+</text>
<text xml:space="preserve" text-anchor="start" x="14" y="-222.5" font-family="Helvetica,sans-Serif" font-size="10.00">get_board_matrix()</text>
<text xml:space="preserve" text-anchor="start" x="4" y="-206.5" font-family="Helvetica,sans-Serif" font-size="10.00">+</text>
<text xml:space="preserve" text-anchor="start" x="14" y="-206.5" font-family="Helvetica,sans-Serif" font-size="10.00">get_rows()</text>
<text xml:space="preserve" text-anchor="start" x="4" y="-190.5" font-family="Helvetica,sans-Serif" font-size="10.00">+</text>
<text xml:space="preserve" text-anchor="start" x="14" y="-190.5" font-family="Helvetica,sans-Serif" font-size="10.00">get_columns()</text>
<text xml:space="preserve" text-anchor="start" x="4" y="-174.5" font-family="Helvetica,sans-Serif" font-size="10.00">+</text>
<text xml:space="preserve" text-anchor="start" x="14" y="-174.5" font-family="Helvetica,sans-Serif" font-size="10.00">get_cell()</text>
<polygon fill="#666666" stroke="#666666" points="0,-410 0,-410 99,-410 99,-410 0,-410"/>
<polygon fill="#666666" stroke="#666666" points="0,-346 0,-346 12,-346 12,-346 0,-346"/>
<polygon fill="#666666" stroke="#666666" points="12,-346 12,-346 99,-346 99,-346 12,-346"/>
<polygon fill="none" stroke="#666666" points="0,-168 0,-428 99,-428 99,-168 0,-168"/>
</a>
</g>
</g>
<!-- Node2&#45;&gt;Node1 -->
<g id="edge1_Node000001_Node000002" class="edge">
<title>Node2&#45;&gt;Node1</title>
<g id="a_edge1_Node000001_Node000002"><a xlink:title=" ">
<path fill="none" stroke="#63b8ff" d="M49.5,-156.85C49.5,-148.27 49.5,-139.89 49.5,-131.92"/>
<polygon fill="none" stroke="#63b8ff" points="46,-156.7 49.5,-166.7 53,-156.7 46,-156.7"/>
</a>
</g>
</g>
</g>
</svg>
