<?xml version="1.0" encoding="UTF-8" standalone="no"?>
<!DOCTYPE svg PUBLIC "-//W3C//DTD SVG 1.1//EN"
 "http://www.w3.org/Graphics/SVG/1.1/DTD/svg11.dtd">
<!-- Generated by graphviz version 14.0.2 (20251019.1705)
 -->
<!-- Title: GameManager&lt; T &gt; Pages: 1 -->
<svg width="103pt" height="108pt"
 viewBox="0.00 0.00 103.00 108.00" xmlns="http://www.w3.org/2000/svg" xmlns:xlink="http://www.w3.org/1999/xlink">
<g id="graph0" class="graph" transform="scale(1 1) rotate(0) translate(4 104)">
<title>GameManager&lt; T &gt;</title>
<!-- Node1 -->
<g id="Node000001" class="node">
<title>Node1</title>
<g id="a_Node000001"><a xlink:title="Controls the flow of a board game between two players.">
<polygon fill="#999999" stroke="none" points="95,-100 0,-100 0,0 95,0 95,-100"/>
<text xml:space="preserve" text-anchor="start" x="4" y="-86.5" font-family="Helvetica,sans-Serif" font-size="10.00">GameManager&lt; T &gt;</text>
<text xml:space="preserve" text-anchor="start" x="7.31" y="-70.5" font-family="Helvetica,sans-Serif" font-size="10.00">&#45;</text>
<text xml:space="preserve" text-anchor="start" x="17.62" y="-70.5" font-family="Helvetica,sans-Serif" font-size="10.00">boardPtr</text>
<text xml:space="preserve" text-anchor="start" x="7.31" y="-54.5" font-family="Helvetica,sans-Serif" font-size="10.00">&#45;</text>
<text xml:space="preserve" text-anchor="start" x="17.62" y="-54.5" font-family="Helvetica,sans-Serif" font-size="10.00">players</text>
<text xml:space="preserve" text-anchor="start" x="7.31" y="-38.5" font-family="Helvetica,sans-Serif" font-size="10.00">&#45;</text>
<text xml:space="preserve" text-anchor="start" x="17.62" y="-38.5" font-family="Helvetica,sans-Serif" font-size="10.00">ui</text>
<text xml:space="preserve" text-anchor="start" x="5.81" y="-22.5" font-family="Helvetica,sans-Serif" font-size="10.00">+</text>
<text xml:space="preserve" text-anchor="start" x="17.62" y="-22.5" font-family="Helvetica,sans-Serif" font-size="10.00">GameManager()</text>
<text xml:space="preserve" text-anchor="start" x="5.81" y="-6.5" font-family="Helvetica,sans-Serif" font-size="10.00">+</text>
<text xml:space="preserve" text-anchor="start" x="17.62" y="-6.5" font-family="Helvetica,sans-Serif" font-size="10.00">run()</text>
<polygon fill="#666666" stroke="#666666" points="0,-82 0,-82 95,-82 95,-82 0,-82"/>
<polygon fill="#666666" stroke="#666666" points="0,-34 0,-34 15.62,-34 15.62,-34 0,-34"/>
<polygon fill="#666666" stroke="#666666" points="15.62,-34 15.62,-34 95,-34 95,-34 15.62,-34"/>
<polygon fill="none" stroke="#666666" points="0,0 0,-100 95,-100 95,0 0,0"/>
</a>
</g>
</g>
</g>
</svg>
