<?xml version="1.0" encoding="UTF-8" standalone="no"?>
<!DOCTYPE svg PUBLIC "-//W3C//DTD SVG 1.1//EN"
 "http://www.w3.org/Graphics/SVG/1.1/DTD/svg11.dtd">
<!-- Generated by graphviz version 14.0.2 (20251019.1705)
 -->
<!-- Title: _4by4XO_Board::game_is_over Pages: 1 -->
<svg width="424pt" height="66pt"
 viewBox="0.00 0.00 424.00 66.00" xmlns="http://www.w3.org/2000/svg" xmlns:xlink="http://www.w3.org/1999/xlink">
<g id="graph0" class="graph" transform="scale(1 1) rotate(0) translate(4 62)">
<title>_4by4XO_Board::game_is_over</title>
<!-- Node1 -->
<g id="Node000001" class="node">
<title>Node1</title>
<g id="a_Node000001"><a xlink:title="Checks if game is over (win or draw).">
<polygon fill="#999999" stroke="#666666" points="117.25,-45 0,-45 0,-13 117.25,-13 117.25,-45"/>
<text xml:space="preserve" text-anchor="start" x="8" y="-31.5" font-family="Helvetica,sans-Serif" font-size="10.00">_4by4XO_Board::game</text>
<text xml:space="preserve" text-anchor="middle" x="58.62" y="-19.5" font-family="Helvetica,sans-Serif" font-size="10.00">_is_over</text>
</a>
</g>
</g>
<!-- Node2 -->
<g id="Node000002" class="node">
<title>Node2</title>
<g id="a_Node000002"><a xlink:href="$class__4by4_x_o___board.html#a6bfc8e59c0a02d0b7fec895adc8e3145" xlink:title="Considers the game a draw if too many moves occur without a win.">
<polygon fill="white" stroke="#666666" points="280.25,-58 153.25,-58 153.25,-38 280.25,-38 280.25,-58"/>
<text xml:space="preserve" text-anchor="middle" x="216.75" y="-44.5" font-family="Helvetica,sans-Serif" font-size="10.00">_4by4XO_Board::is_draw</text>
</a>
</g>
</g>
<!-- Node1&#45;&gt;Node2 -->
<g id="edge1_Node000001_Node000002" class="edge">
<title>Node1&#45;&gt;Node2</title>
<g id="a_edge1_Node000001_Node000002"><a xlink:title=" ">
<path fill="none" stroke="#63b8ff" d="M117.32,-36.02C125.17,-36.98 133.32,-37.97 141.41,-38.95"/>
<polygon fill="#63b8ff" stroke="#63b8ff" points="140.93,-42.42 151.28,-40.15 141.78,-35.47 140.93,-42.42"/>
</a>
</g>
</g>
<!-- Node3 -->
<g id="Node000003" class="node">
<title>Node3</title>
<g id="a_Node000003"><a xlink:href="$class__4by4_x_o___board.html#a59d90acea4284a823877a5dddf3dc1f4" xlink:title="Checks if the given player has 3 consecutive symbols.">
<polygon fill="white" stroke="#666666" points="277.25,-20 156.25,-20 156.25,0 277.25,0 277.25,-20"/>
<text xml:space="preserve" text-anchor="middle" x="216.75" y="-6.5" font-family="Helvetica,sans-Serif" font-size="10.00">_4by4XO_Board::is_win</text>
</a>
</g>
</g>
<!-- Node1&#45;&gt;Node3 -->
<g id="edge2_Node000001_Node000003" class="edge">
<title>Node1&#45;&gt;Node3</title>
<g id="a_edge2_Node000001_Node000003"><a xlink:title=" ">
<path fill="none" stroke="#63b8ff" d="M117.32,-21.98C126.27,-20.89 135.61,-19.75 144.82,-18.63"/>
<polygon fill="#63b8ff" stroke="#63b8ff" points="144.94,-22.14 154.44,-17.46 144.09,-15.19 144.94,-22.14"/>
</a>
</g>
</g>
<!-- Node4 -->
<g id="Node000004" class="node">
<title>Node4</title>
<g id="a_Node000004"><a xlink:href="$class_player.html#af56f0bf98c0423a3a75b0848607d03a4" xlink:title="Get the player&#39;s symbol.">
<polygon fill="white" stroke="#666666" points="416.25,-20 316.25,-20 316.25,0 416.25,0 416.25,-20"/>
<text xml:space="preserve" text-anchor="middle" x="366.25" y="-6.5" font-family="Helvetica,sans-Serif" font-size="10.00">Player::get_symbol</text>
</a>
</g>
</g>
<!-- Node3&#45;&gt;Node4 -->
<g id="edge3_Node000003_Node000004" class="edge">
<title>Node3&#45;&gt;Node4</title>
<g id="a_edge3_Node000003_Node000004"><a xlink:title=" ">
<path fill="none" stroke="#63b8ff" d="M277.74,-10C286.62,-10 295.77,-10 304.65,-10"/>
<polygon fill="#63b8ff" stroke="#63b8ff" points="304.62,-13.5 314.62,-10 304.62,-6.5 304.62,-13.5"/>
</a>
</g>
</g>
</g>
</svg>
