<?xml version="1.0" encoding="UTF-8" standalone="no"?>
<!DOCTYPE svg PUBLIC "-//W3C//DTD SVG 1.1//EN"
 "http://www.w3.org/Graphics/SVG/1.1/DTD/svg11.dtd">
<!-- Generated by graphviz version 14.0.2 (20251019.1705)
 -->
<!-- Title: Large_XO_Board::is_lose Pages: 1 -->
<svg width="309pt" height="116pt"
 viewBox="0.00 0.00 309.00 116.00" xmlns="http://www.w3.org/2000/svg" xmlns:xlink="http://www.w3.org/1999/xlink">
<g id="graph0" class="graph" transform="scale(1 1) rotate(0) translate(4 112)">
<title>Large_XO_Board::is_lose</title>
<!-- Node1 -->
<g id="Node000001" class="node">
<title>Node1</title>
<g id="a_Node000001"><a xlink:title="Check if the player has lost.">
<polygon fill="#999999" stroke="#666666" points="127,-64 0,-64 0,-44 127,-44 127,-64"/>
<text xml:space="preserve" text-anchor="middle" x="63.5" y="-50.5" font-family="Helvetica,sans-Serif" font-size="10.00">Large_XO_Board::is_lose</text>
</a>
</g>
</g>
<!-- Node2 -->
<g id="Node000002" class="node">
<title>Node2</title>
<g id="a_Node000002"><a xlink:href="class_large___x_o___board.html#a702183d127cd3db7920262aaf4d3106b" target="_top" xlink:title="Count all 3&#45;in&#45;a&#45;row patterns for a given symbol.">
<polygon fill="white" stroke="#666666" points="300.5,-108 163,-108 163,-88 300.5,-88 300.5,-108"/>
<text xml:space="preserve" text-anchor="middle" x="231.75" y="-94.5" font-family="Helvetica,sans-Serif" font-size="10.00">Large_XO_Board::countWin</text>
</a>
</g>
</g>
<!-- Node1&#45;&gt;Node2 -->
<g id="edge1_Node000001_Node000002" class="edge">
<title>Node1&#45;&gt;Node2</title>
<g id="a_edge1_Node000001_Node000002"><a xlink:title=" ">
<path fill="none" stroke="#63b8ff" d="M103.9,-64.43C126.8,-70.49 155.88,-78.19 180.43,-84.68"/>
<polygon fill="#63b8ff" stroke="#63b8ff" points="179.32,-88.01 189.88,-87.18 181.11,-81.24 179.32,-88.01"/>
</a>
</g>
</g>
<!-- Node3 -->
<g id="Node000003" class="node">
<title>Node3</title>
<g id="a_Node000003"><a xlink:href="class_large___x_o___board.html#ab0e7f4e0184eef658b5d8ebc303ffe09" target="_top" xlink:title="Check if the game is over (board full).">
<polygon fill="white" stroke="#666666" points="291.88,-70 171.62,-70 171.62,-38 291.88,-38 291.88,-70"/>
<text xml:space="preserve" text-anchor="start" x="179.62" y="-56.5" font-family="Helvetica,sans-Serif" font-size="10.00">Large_XO_Board::game</text>
<text xml:space="preserve" text-anchor="middle" x="231.75" y="-44.5" font-family="Helvetica,sans-Serif" font-size="10.00">_is_over</text>
</a>
</g>
</g>
<!-- Node1&#45;&gt;Node3 -->
<g id="edge2_Node000001_Node000003" class="edge">
<title>Node1&#45;&gt;Node3</title>
<g id="a_edge2_Node000001_Node000003"><a xlink:title=" ">
<path fill="none" stroke="#63b8ff" d="M127.35,-54C138.07,-54 149.26,-54 160.16,-54"/>
<polygon fill="#63b8ff" stroke="#63b8ff" points="159.86,-57.5 169.86,-54 159.86,-50.5 159.86,-57.5"/>
</a>
</g>
</g>
<!-- Node4 -->
<g id="Node000004" class="node">
<title>Node4</title>
<g id="a_Node000004"><a xlink:href="class_player.html#af56f0bf98c0423a3a75b0848607d03a4" target="_top" xlink:title="Get the player&#39;s symbol.">
<polygon fill="white" stroke="#666666" points="281.75,-20 181.75,-20 181.75,0 281.75,0 281.75,-20"/>
<text xml:space="preserve" text-anchor="middle" x="231.75" y="-6.5" font-family="Helvetica,sans-Serif" font-size="10.00">Player::get_symbol</text>
</a>
</g>
</g>
<!-- Node1&#45;&gt;Node4 -->
<g id="edge3_Node000001_Node000004" class="edge">
<title>Node1&#45;&gt;Node4</title>
<g id="a_edge3_Node000001_Node000004"><a xlink:title=" ">
<path fill="none" stroke="#63b8ff" d="M103.9,-43.57C126.8,-37.51 155.88,-29.81 180.43,-23.32"/>
<polygon fill="#63b8ff" stroke="#63b8ff" points="181.11,-26.76 189.88,-20.82 179.32,-19.99 181.11,-26.76"/>
</a>
</g>
</g>
</g>
</svg>
