<?xml version="1.0" encoding="UTF-8" standalone="no"?>
<!DOCTYPE svg PUBLIC "-//W3C//DTD SVG 1.1//EN"
 "http://www.w3.org/Graphics/SVG/1.1/DTD/svg11.dtd">
<!-- Generated by graphviz version 14.0.2 (20251019.1705)
 -->
<!-- Title: FOUR_UI::get_move Pages: 1 -->
<svg width="712pt" height="294pt"
 viewBox="0.00 0.00 712.00 294.00" xmlns="http://www.w3.org/2000/svg" xmlns:xlink="http://www.w3.org/1999/xlink">
<g id="graph0" class="graph" transform="scale(1 1) rotate(0) translate(4 290)">
<title>FOUR_UI::get_move</title>
<!-- Node1 -->
<g id="Node000001" class="node">
<title>Node1</title>
<g id="a_Node000001"><a xlink:title="Gets the move from a human, computer, or AI player.">
<polygon fill="#999999" stroke="#666666" points="109,-58 0,-58 0,-38 109,-38 109,-58"/>
<text xml:space="preserve" text-anchor="middle" x="54.5" y="-44.5" font-family="Helvetica,sans-Serif" font-size="10.00">FOUR_UI::get_move</text>
</a>
</g>
</g>
<!-- Node2 -->
<g id="Node000002" class="node">
<title>Node2</title>
<g id="a_Node000002"><a xlink:href="$class_four___a_i.html#a12661d165899365f9a5031ec04814e44" xlink:title="Computes the best possible move for the AI.">
<polygon fill="white" stroke="#666666" points="244.25,-134 145,-134 145,-114 244.25,-114 244.25,-134"/>
<text xml:space="preserve" text-anchor="middle" x="194.62" y="-120.5" font-family="Helvetica,sans-Serif" font-size="10.00">Four_AI::bestMove</text>
</a>
</g>
</g>
<!-- Node1&#45;&gt;Node2 -->
<g id="edge1_Node000001_Node000002" class="edge">
<title>Node1&#45;&gt;Node2</title>
<g id="a_edge1_Node000001_Node000002"><a xlink:title=" ">
<path fill="none" stroke="#63b8ff" d="M74.42,-58.41C97.77,-71.26 137.71,-93.24 164.87,-108.18"/>
<polygon fill="#63b8ff" stroke="#63b8ff" points="163.16,-111.23 173.61,-112.99 166.54,-105.1 163.16,-111.23"/>
</a>
</g>
</g>
<!-- Node6 -->
<g id="Node000006" class="node">
<title>Node6</title>
<g id="a_Node000006"><a xlink:href="$class_player.html#af56f0bf98c0423a3a75b0848607d03a4" xlink:title="Get the player&#39;s symbol.">
<polygon fill="white" stroke="#666666" points="704,-134 604,-134 604,-114 704,-114 704,-134"/>
<text xml:space="preserve" text-anchor="middle" x="654" y="-120.5" font-family="Helvetica,sans-Serif" font-size="10.00">Player::get_symbol</text>
</a>
</g>
</g>
<!-- Node1&#45;&gt;Node6 -->
<g id="edge16_Node000001_Node000006" class="edge">
<title>Node1&#45;&gt;Node6</title>
<g id="a_edge16_Node000001_Node000006"><a xlink:title=" ">
<path fill="none" stroke="#63b8ff" d="M109.21,-49.07C203.18,-51.82 403.1,-61.58 568,-96 584,-99.34 601.2,-104.66 615.92,-109.77"/>
<polygon fill="#63b8ff" stroke="#63b8ff" points="614.6,-113.02 625.2,-113.1 616.96,-106.43 614.6,-113.02"/>
</a>
</g>
</g>
<!-- Node10 -->
<g id="Node000010" class="node">
<title>Node10</title>
<g id="a_Node000010"><a xlink:href="$class_player.html#a2df3bd299bf7aecfa2275ec6902a60f8" xlink:title="Get player type (e.g., &#39;H&#39; or &#39;C&#39;).">
<polygon fill="white" stroke="#666666" points="238.25,-20 151,-20 151,0 238.25,0 238.25,-20"/>
<text xml:space="preserve" text-anchor="middle" x="194.62" y="-6.5" font-family="Helvetica,sans-Serif" font-size="10.00">Player::get_type</text>
</a>
</g>
</g>
<!-- Node1&#45;&gt;Node10 -->
<g id="edge17_Node000001_Node000010" class="edge">
<title>Node1&#45;&gt;Node10</title>
<g id="a_edge17_Node000001_Node000010"><a xlink:title=" ">
<path fill="none" stroke="#63b8ff" d="M93.61,-37.52C109.46,-33.15 128.06,-28.04 144.88,-23.41"/>
<polygon fill="#63b8ff" stroke="#63b8ff" points="145.47,-26.88 154.18,-20.85 143.61,-20.13 145.47,-26.88"/>
</a>
</g>
</g>
<!-- Node3 -->
<g id="Node000003" class="node">
<title>Node3</title>
<g id="a_Node000003"><a xlink:href="$class_player.html#a508617eddfae8915d098102d480fc888" xlink:title="Get a pointer to the game board.">
<polygon fill="white" stroke="#666666" points="543.25,-134 434.25,-134 434.25,-114 543.25,-114 543.25,-134"/>
<text xml:space="preserve" text-anchor="middle" x="488.75" y="-120.5" font-family="Helvetica,sans-Serif" font-size="10.00">Player::get_board_ptr</text>
</a>
</g>
</g>
<!-- Node2&#45;&gt;Node3 -->
<g id="edge2_Node000002_Node000003" class="edge">
<title>Node2&#45;&gt;Node3</title>
<g id="a_edge2_Node000002_Node000003"><a xlink:title=" ">
<path fill="none" stroke="#63b8ff" d="M244.52,-124C293.32,-124 368.61,-124 422.49,-124"/>
<polygon fill="#63b8ff" stroke="#63b8ff" points="422.47,-127.5 432.47,-124 422.47,-120.5 422.47,-127.5"/>
</a>
</g>
</g>
<!-- Node4 -->
<g id="Node000004" class="node">
<title>Node4</title>
<g id="a_Node000004"><a xlink:href="$class_four___a_i.html#a196ae82b79d74cd5e58654a16e11bf8a" xlink:title="Finds next open row in the given column.">
<polygon fill="white" stroke="#666666" points="568,-286 409.5,-286 409.5,-266 568,-266 568,-286"/>
<text xml:space="preserve" text-anchor="middle" x="488.75" y="-272.5" font-family="Helvetica,sans-Serif" font-size="10.00">Four_AI::get_next_available_row</text>
</a>
</g>
</g>
<!-- Node2&#45;&gt;Node4 -->
<g id="edge3_Node000002_Node000004" class="edge">
<title>Node2&#45;&gt;Node4</title>
<g id="a_edge3_Node000002_Node000004"><a xlink:title=" ">
<path fill="none" stroke="#63b8ff" d="M202.8,-134.34C216.04,-152.71 246.13,-191.16 280.25,-213 319.61,-238.19 369.58,-253.76 410.62,-263.12"/>
<polygon fill="#63b8ff" stroke="#63b8ff" points="409.67,-266.5 420.19,-265.22 411.17,-259.66 409.67,-266.5"/>
</a>
</g>
</g>
<!-- Node2&#45;&gt;Node6 -->
<g id="edge5_Node000002_Node000006" class="edge">
<title>Node2&#45;&gt;Node6</title>
<g id="a_edge5_Node000002_Node000006"><a xlink:title=" ">
<path fill="none" stroke="#63b8ff" d="M244.57,-116.51C315.9,-106.72 452.51,-92.25 568,-105 579.73,-106.3 592.21,-108.57 603.89,-111.1"/>
<polygon fill="#63b8ff" stroke="#63b8ff" points="602.79,-114.44 613.32,-113.25 604.35,-107.61 602.79,-114.44"/>
</a>
</g>
</g>
<!-- Node7 -->
<g id="Node000007" class="node">
<title>Node7</title>
<g id="a_Node000007"><a xlink:href="$class_four___a_i.html#a2be9e32c580e8aa22c530ab4c9920317" xlink:title="Minimax with alpha&#45;beta pruning.">
<polygon fill="white" stroke="#666666" points="373.5,-186 280.25,-186 280.25,-166 373.5,-166 373.5,-186"/>
<text xml:space="preserve" text-anchor="middle" x="326.88" y="-172.5" font-family="Helvetica,sans-Serif" font-size="10.00">Four_AI::minimax</text>
</a>
</g>
</g>
<!-- Node2&#45;&gt;Node7 -->
<g id="edge6_Node000002_Node000007" class="edge">
<title>Node2&#45;&gt;Node7</title>
<g id="a_edge6_Node000002_Node000007"><a xlink:title=" ">
<path fill="none" stroke="#63b8ff" d="M221.67,-134.4C241.1,-142.16 267.9,-152.86 289.46,-161.46"/>
<polygon fill="#63b8ff" stroke="#63b8ff" points="287.88,-164.6 298.47,-165.06 290.48,-158.1 287.88,-164.6"/>
</a>
</g>
</g>
<!-- Node5 -->
<g id="Node000005" class="node">
<title>Node5</title>
<g id="a_Node000005"><a xlink:href="$class_board.html#a93558c58e60ca4291c6044828afd260b" xlink:title="Return content of cell x, y in current board.">
<polygon fill="white" stroke="#666666" points="694.62,-248 613.38,-248 613.38,-228 694.62,-228 694.62,-248"/>
<text xml:space="preserve" text-anchor="middle" x="654" y="-234.5" font-family="Helvetica,sans-Serif" font-size="10.00">Board::get_cell</text>
</a>
</g>
</g>
<!-- Node4&#45;&gt;Node5 -->
<g id="edge4_Node000004_Node000005" class="edge">
<title>Node4&#45;&gt;Node5</title>
<g id="a_edge4_Node000004_Node000005"><a xlink:title=" ">
<path fill="none" stroke="#63b8ff" d="M534.79,-265.52C555.69,-260.65 580.62,-254.85 602.18,-249.83"/>
<polygon fill="#63b8ff" stroke="#63b8ff" points="602.69,-253.3 611.64,-247.63 601.11,-246.49 602.69,-253.3"/>
</a>
</g>
</g>
<!-- Node7&#45;&gt;Node3 -->
<g id="edge10_Node000007_Node000003" class="edge">
<title>Node7&#45;&gt;Node3</title>
<g id="a_edge10_Node000007_Node000003"><a xlink:title=" ">
<path fill="none" stroke="#63b8ff" d="M357.65,-165.52C373.08,-160.16 392.26,-153.6 409.5,-148 420.03,-144.58 431.4,-141.02 442.13,-137.72"/>
<polygon fill="#63b8ff" stroke="#63b8ff" points="443.02,-141.1 451.56,-134.83 440.97,-134.41 443.02,-141.1"/>
</a>
</g>
</g>
<!-- Node7&#45;&gt;Node4 -->
<g id="edge11_Node000007_Node000004" class="edge">
<title>Node7&#45;&gt;Node4</title>
<g id="a_edge11_Node000007_Node000004"><a xlink:title=" ">
<path fill="none" stroke="#63b8ff" d="M335.16,-186.23C348.08,-203.58 376.74,-238.68 409.5,-257 412.36,-258.6 415.35,-260.06 418.43,-261.41"/>
<polygon fill="#63b8ff" stroke="#63b8ff" points="417.14,-264.66 427.73,-264.98 419.64,-258.13 417.14,-264.66"/>
</a>
</g>
</g>
<!-- Node7&#45;&gt;Node6 -->
<g id="edge12_Node000007_Node000006" class="edge">
<title>Node7&#45;&gt;Node6</title>
<g id="a_edge12_Node000007_Node000006"><a xlink:title=" ">
<path fill="none" stroke="#63b8ff" d="M373.64,-170.86C422.09,-165.15 500.7,-155.12 568,-143 577.84,-141.23 588.27,-139.1 598.32,-136.93"/>
<polygon fill="#63b8ff" stroke="#63b8ff" points="598.98,-140.37 607.98,-134.79 597.47,-133.53 598.98,-140.37"/>
</a>
</g>
</g>
<!-- Node7&#45;&gt;Node7 -->
<g id="edge15_Node000007_Node000007" class="edge">
<title>Node7&#45;&gt;Node7</title>
<g id="a_edge15_Node000007_Node000007"><a xlink:title=" ">
<path fill="none" stroke="#63b8ff" d="M305.86,-186.34C296.88,-194.98 303.89,-204 326.88,-204 339.45,-204 347.24,-201.3 350.25,-197.44"/>
<polygon fill="#63b8ff" stroke="#63b8ff" points="353.71,-196.87 348.2,-187.82 346.86,-198.33 353.71,-196.87"/>
</a>
</g>
</g>
<!-- Node8 -->
<g id="Node000008" class="node">
<title>Node8</title>
<g id="a_Node000008"><a xlink:href="$class_four___a_i.html#a5ebc2172189dad66489d15371d6f9c2f" xlink:title="Evaluates current board state.">
<polygon fill="white" stroke="#666666" points="535.38,-210 442.12,-210 442.12,-190 535.38,-190 535.38,-210"/>
<text xml:space="preserve" text-anchor="middle" x="488.75" y="-196.5" font-family="Helvetica,sans-Serif" font-size="10.00">Four_AI::evaluate</text>
</a>
</g>
</g>
<!-- Node7&#45;&gt;Node8 -->
<g id="edge7_Node000007_Node000008" class="edge">
<title>Node7&#45;&gt;Node8</title>
<g id="a_edge7_Node000007_Node000008"><a xlink:title=" ">
<path fill="none" stroke="#63b8ff" d="M373.69,-182.88C391.34,-185.53 411.72,-188.59 430.33,-191.38"/>
<polygon fill="#63b8ff" stroke="#63b8ff" points="429.75,-194.83 440.16,-192.86 430.79,-187.91 429.75,-194.83"/>
</a>
</g>
</g>
<!-- Node9 -->
<g id="Node000009" class="node">
<title>Node9</title>
<g id="a_Node000009"><a xlink:href="$class_four___a_i.html#ae3dab4e81e6b102a9445d05b0c4d2aee" xlink:title="Checks if any moves are still available.">
<polygon fill="white" stroke="#666666" points="543.62,-248 433.88,-248 433.88,-228 543.62,-228 543.62,-248"/>
<text xml:space="preserve" text-anchor="middle" x="488.75" y="-234.5" font-family="Helvetica,sans-Serif" font-size="10.00">Four_AI::isMovesLeft</text>
</a>
</g>
</g>
<!-- Node7&#45;&gt;Node9 -->
<g id="edge13_Node000007_Node000009" class="edge">
<title>Node7&#45;&gt;Node9</title>
<g id="a_edge13_Node000007_Node000009"><a xlink:title=" ">
<path fill="none" stroke="#63b8ff" d="M344.5,-186.33C360.61,-195.95 385.98,-210.11 409.5,-219 414.76,-220.99 420.3,-222.82 425.9,-224.5"/>
<polygon fill="#63b8ff" stroke="#63b8ff" points="424.65,-227.78 435.23,-227.12 426.55,-221.05 424.65,-227.78"/>
</a>
</g>
</g>
<!-- Node8&#45;&gt;Node5 -->
<g id="edge8_Node000008_Node000005" class="edge">
<title>Node8&#45;&gt;Node5</title>
<g id="a_edge8_Node000008_Node000005"><a xlink:title=" ">
<path fill="none" stroke="#63b8ff" d="M534.79,-210.48C555.69,-215.35 580.62,-221.15 602.18,-226.17"/>
<polygon fill="#63b8ff" stroke="#63b8ff" points="601.11,-229.51 611.64,-228.37 602.69,-222.7 601.11,-229.51"/>
</a>
</g>
</g>
<!-- Node8&#45;&gt;Node6 -->
<g id="edge9_Node000008_Node000006" class="edge">
<title>Node8&#45;&gt;Node6</title>
<g id="a_edge9_Node000008_Node000006"><a xlink:title=" ">
<path fill="none" stroke="#63b8ff" d="M530.67,-189.56C542.92,-185.88 556.21,-181.31 568,-176 589.68,-166.23 612.59,-151.96 629.15,-140.84"/>
<polygon fill="#63b8ff" stroke="#63b8ff" points="631.05,-143.78 637.33,-135.24 627.1,-138 631.05,-143.78"/>
</a>
</g>
</g>
<!-- Node9&#45;&gt;Node5 -->
<g id="edge14_Node000009_Node000005" class="edge">
<title>Node9&#45;&gt;Node5</title>
<g id="a_edge14_Node000009_Node000005"><a xlink:title=" ">
<path fill="none" stroke="#63b8ff" d="M544.11,-238C562.69,-238 583.39,-238 601.72,-238"/>
<polygon fill="#63b8ff" stroke="#63b8ff" points="601.56,-241.5 611.56,-238 601.56,-234.5 601.56,-241.5"/>
</a>
</g>
</g>
</g>
</svg>
