<?xml version="1.0" encoding="UTF-8" standalone="no"?>
<!DOCTYPE svg PUBLIC "-//W3C//DTD SVG 1.1//EN"
 "http://www.w3.org/Graphics/SVG/1.1/DTD/svg11.dtd">
<!-- Generated by graphviz version 14.0.2 (20251019.1705)
 -->
<!-- Title: Word_XO_Board::wordExist Pages: 1 -->
<svg width="627pt" height="66pt"
 viewBox="0.00 0.00 627.00 66.00" xmlns="http://www.w3.org/2000/svg" xmlns:xlink="http://www.w3.org/1999/xlink">
<g id="graph0" class="graph" transform="scale(1 1) rotate(0) translate(4 62)">
<title>Word_XO_Board::wordExist</title>
<!-- Node1 -->
<g id="Node000001" class="node">
<title>Node1</title>
<g id="a_Node000001"><a xlink:title="Checks if any valid word is currently formed on the board.">
<polygon fill="#999999" stroke="#666666" points="619,-39 480.75,-39 480.75,-19 619,-19 619,-39"/>
<text xml:space="preserve" text-anchor="middle" x="549.88" y="-25.5" font-family="Helvetica,sans-Serif" font-size="10.00">Word_XO_Board::wordExist</text>
</a>
</g>
</g>
<!-- Node2 -->
<g id="Node000002" class="node">
<title>Node2</title>
<g id="a_Node000002"><a xlink:href="$class_word___x_o___board.html#ad8b61980c76bb5bb7427737b517e3972" xlink:title="Checks if the specified player has lost.">
<polygon fill="white" stroke="#666666" points="444.75,-58 319.25,-58 319.25,-38 444.75,-38 444.75,-58"/>
<text xml:space="preserve" text-anchor="middle" x="382" y="-44.5" font-family="Helvetica,sans-Serif" font-size="10.00">Word_XO_Board::is_lose</text>
</a>
</g>
</g>
<!-- Node1&#45;&gt;Node2 -->
<g id="edge1_Node000001_Node000002" class="edge">
<title>Node1&#45;&gt;Node2</title>
<g id="a_edge1_Node000001_Node000002"><a xlink:title=" ">
<path fill="none" stroke="#63b8ff" d="M469.13,-38.13C461.07,-39.06 452.98,-39.98 445.15,-40.88"/>
<polygon fill="#63b8ff" stroke="#63b8ff" points="469.41,-41.63 478.95,-37.01 468.61,-34.67 469.41,-41.63"/>
</a>
</g>
</g>
<!-- Node5 -->
<g id="Node000005" class="node">
<title>Node5</title>
<g id="a_Node000005"><a xlink:href="$class_word___x_o___board.html#acd3b0a4f466b07fe90f1485b876d58fb" xlink:title="Checks if the specified player has won.">
<polygon fill="white" stroke="#666666" points="443.25,-20 320.75,-20 320.75,0 443.25,0 443.25,-20"/>
<text xml:space="preserve" text-anchor="middle" x="382" y="-6.5" font-family="Helvetica,sans-Serif" font-size="10.00">Word_XO_Board::is_win</text>
</a>
</g>
</g>
<!-- Node1&#45;&gt;Node5 -->
<g id="edge5_Node000001_Node000005" class="edge">
<title>Node1&#45;&gt;Node5</title>
<g id="a_edge5_Node000001_Node000005"><a xlink:title=" ">
<path fill="none" stroke="#63b8ff" d="M469.18,-19.87C460.57,-18.89 451.91,-17.89 443.58,-16.94"/>
<polygon fill="#63b8ff" stroke="#63b8ff" points="468.61,-23.33 478.95,-20.99 469.41,-16.37 468.61,-23.33"/>
</a>
</g>
</g>
<!-- Node3 -->
<g id="Node000003" class="node">
<title>Node3</title>
<g id="a_Node000003"><a xlink:href="$class_word___x_o___board.html#a9ce0369f486035a8216b9b2063efe7fd" xlink:title="Determines whether the game has reached a terminal state.">
<polygon fill="white" stroke="#666666" points="118.75,-45 0,-45 0,-13 118.75,-13 118.75,-45"/>
<text xml:space="preserve" text-anchor="start" x="8" y="-31.5" font-family="Helvetica,sans-Serif" font-size="10.00">Word_XO_Board::game</text>
<text xml:space="preserve" text-anchor="middle" x="59.38" y="-19.5" font-family="Helvetica,sans-Serif" font-size="10.00">_is_over</text>
</a>
</g>
</g>
<!-- Node2&#45;&gt;Node3 -->
<g id="edge2_Node000002_Node000003" class="edge">
<title>Node2&#45;&gt;Node3</title>
<g id="a_edge2_Node000002_Node000003"><a xlink:title=" ">
<path fill="none" stroke="#63b8ff" d="M307.63,-51.68C263.26,-52.98 205.63,-53.07 154.75,-48 143.11,-46.84 130.78,-44.89 119,-42.68"/>
<polygon fill="#63b8ff" stroke="#63b8ff" points="307.5,-55.18 317.38,-51.36 307.28,-48.18 307.5,-55.18"/>
</a>
</g>
</g>
<!-- Node4 -->
<g id="Node000004" class="node">
<title>Node4</title>
<g id="a_Node000004"><a xlink:href="$class_word___x_o___board.html#af33032e635ec76b4f8b13b0658b772a0" xlink:title="Determines whether the game ended in a draw.">
<polygon fill="white" stroke="#666666" points="283.25,-39 154.75,-39 154.75,-19 283.25,-19 283.25,-39"/>
<text xml:space="preserve" text-anchor="middle" x="219" y="-25.5" font-family="Helvetica,sans-Serif" font-size="10.00">Word_XO_Board::is_draw</text>
</a>
</g>
</g>
<!-- Node2&#45;&gt;Node4 -->
<g id="edge3_Node000002_Node000004" class="edge">
<title>Node2&#45;&gt;Node4</title>
<g id="a_edge3_Node000002_Node000004"><a xlink:title=" ">
<path fill="none" stroke="#63b8ff" d="M307.57,-39.33C299.59,-38.39 291.52,-37.44 283.68,-36.51"/>
<polygon fill="#63b8ff" stroke="#63b8ff" points="306.91,-42.78 317.25,-40.48 307.73,-35.83 306.91,-42.78"/>
</a>
</g>
</g>
<!-- Node4&#45;&gt;Node3 -->
<g id="edge4_Node000004_Node000003" class="edge">
<title>Node4&#45;&gt;Node3</title>
<g id="a_edge4_Node000004_Node000003"><a xlink:title=" ">
<path fill="none" stroke="#63b8ff" d="M143.07,-29C135.05,-29 126.97,-29 119.17,-29"/>
<polygon fill="#63b8ff" stroke="#63b8ff" points="142.83,-32.5 152.83,-29 142.83,-25.5 142.83,-32.5"/>
</a>
</g>
</g>
<!-- Node5&#45;&gt;Node3 -->
<g id="edge6_Node000005_Node000003" class="edge">
<title>Node5&#45;&gt;Node3</title>
<g id="a_edge6_Node000005_Node000003"><a xlink:title=" ">
<path fill="none" stroke="#63b8ff" d="M309.03,-6.37C264.48,-5.02 206.17,-4.88 154.75,-10 143.11,-11.16 130.78,-13.11 119,-15.32"/>
<polygon fill="#63b8ff" stroke="#63b8ff" points="308.72,-9.86 318.83,-6.69 308.95,-2.86 308.72,-9.86"/>
</a>
</g>
</g>
<!-- Node5&#45;&gt;Node4 -->
<g id="edge7_Node000005_Node000004" class="edge">
<title>Node5&#45;&gt;Node4</title>
<g id="a_edge7_Node000005_Node000004"><a xlink:title=" ">
<path fill="none" stroke="#63b8ff" d="M309.44,-18.45C300.86,-19.46 292.16,-20.48 283.71,-21.48"/>
<polygon fill="#63b8ff" stroke="#63b8ff" points="309.57,-21.95 319.09,-17.31 308.75,-15 309.57,-21.95"/>
</a>
</g>
</g>
</g>
</svg>
