<?xml version="1.0" encoding="UTF-8" standalone="no"?>
<!DOCTYPE svg PUBLIC "-//W3C//DTD SVG 1.1//EN"
 "http://www.w3.org/Graphics/SVG/1.1/DTD/svg11.dtd">
<!-- Generated by graphviz version 14.0.2 (20251019.1705)
 -->
<!-- Title: Memory_Board::game_is_over Pages: 1 -->
<svg width="569pt" height="66pt"
 viewBox="0.00 0.00 569.00 66.00" xmlns="http://www.w3.org/2000/svg" xmlns:xlink="http://www.w3.org/1999/xlink">
<g id="graph0" class="graph" transform="scale(1 1) rotate(0) translate(4 62)">
<title>Memory_Board::game_is_over</title>
<!-- Node1 -->
<g id="Node000001" class="node">
<title>Node1</title>
<g id="a_Node000001"><a xlink:title="Check if the game is over.">
<polygon fill="#999999" stroke="#666666" points="112,-45 0,-45 0,-13 112,-13 112,-45"/>
<text xml:space="preserve" text-anchor="start" x="8" y="-31.5" font-family="Helvetica,sans-Serif" font-size="10.00">Memory_Board::game</text>
<text xml:space="preserve" text-anchor="middle" x="56" y="-19.5" font-family="Helvetica,sans-Serif" font-size="10.00">_is_over</text>
</a>
</g>
</g>
<!-- Node2 -->
<g id="Node000002" class="node">
<title>Node2</title>
<g id="a_Node000002"><a xlink:href="$class_memory___board.html#ad80149de055f8902191f1124d23619df" xlink:title="Check if the game ended in a draw.">
<polygon fill="white" stroke="#666666" points="269.75,-39 148,-39 148,-19 269.75,-19 269.75,-39"/>
<text xml:space="preserve" text-anchor="middle" x="208.88" y="-25.5" font-family="Helvetica,sans-Serif" font-size="10.00">Memory_Board::is_draw</text>
</a>
</g>
</g>
<!-- Node1&#45;&gt;Node2 -->
<g id="edge1_Node000001_Node000002" class="edge">
<title>Node1&#45;&gt;Node2</title>
<g id="a_edge1_Node000001_Node000002"><a xlink:title=" ">
<path fill="none" stroke="#63b8ff" d="M112.32,-29C120.15,-29 128.3,-29 136.38,-29"/>
<polygon fill="#63b8ff" stroke="#63b8ff" points="136.22,-32.5 146.22,-29 136.22,-25.5 136.22,-32.5"/>
</a>
</g>
</g>
<!-- Node3 -->
<g id="Node000003" class="node">
<title>Node3</title>
<g id="a_Node000003"><a xlink:href="$class_memory___board.html#a0c40062fe9f07b532ad893747d5d47e5" xlink:title="Check if a player has lost.">
<polygon fill="white" stroke="#666666" points="424.5,-58 305.75,-58 305.75,-38 424.5,-38 424.5,-58"/>
<text xml:space="preserve" text-anchor="middle" x="365.12" y="-44.5" font-family="Helvetica,sans-Serif" font-size="10.00">Memory_Board::is_lose</text>
</a>
</g>
</g>
<!-- Node1&#45;&gt;Node3 -->
<g id="edge6_Node000001_Node000003" class="edge">
<title>Node1&#45;&gt;Node3</title>
<g id="a_edge6_Node000001_Node000003"><a xlink:title=" ">
<path fill="none" stroke="#63b8ff" d="M112.06,-42.39C123.85,-44.72 136.28,-46.79 148,-48 196.55,-53.01 251.56,-52.93 293.93,-51.64"/>
<polygon fill="#63b8ff" stroke="#63b8ff" points="293.86,-55.14 303.74,-51.31 293.62,-48.15 293.86,-55.14"/>
</a>
</g>
</g>
<!-- Node5 -->
<g id="Node000005" class="node">
<title>Node5</title>
<g id="a_Node000005"><a xlink:href="$class_memory___board.html#a8ebd3f4825d7a3ac78cc77ef85738de9" xlink:title="Check if a player has won.">
<polygon fill="white" stroke="#666666" points="423,-20 307.25,-20 307.25,0 423,0 423,-20"/>
<text xml:space="preserve" text-anchor="middle" x="365.12" y="-6.5" font-family="Helvetica,sans-Serif" font-size="10.00">Memory_Board::is_win</text>
</a>
</g>
</g>
<!-- Node1&#45;&gt;Node5 -->
<g id="edge7_Node000001_Node000005" class="edge">
<title>Node1&#45;&gt;Node5</title>
<g id="a_edge7_Node000001_Node000005"><a xlink:title=" ">
<path fill="none" stroke="#63b8ff" d="M112.06,-15.61C123.85,-13.28 136.28,-11.21 148,-10 197.23,-4.92 253.11,-5.07 295.71,-6.42"/>
<polygon fill="#63b8ff" stroke="#63b8ff" points="295.45,-9.91 305.57,-6.76 295.7,-2.91 295.45,-9.91"/>
</a>
</g>
</g>
<!-- Node2&#45;&gt;Node3 -->
<g id="edge2_Node000002_Node000003" class="edge">
<title>Node2&#45;&gt;Node3</title>
<g id="a_edge2_Node000002_Node000003"><a xlink:title=" ">
<path fill="none" stroke="#63b8ff" d="M269.95,-36.4C277.89,-37.38 286.08,-38.39 294.16,-39.38"/>
<polygon fill="#63b8ff" stroke="#63b8ff" points="293.62,-42.84 303.97,-40.59 294.48,-35.89 293.62,-42.84"/>
</a>
</g>
</g>
<!-- Node2&#45;&gt;Node5 -->
<g id="edge4_Node000002_Node000005" class="edge">
<title>Node2&#45;&gt;Node5</title>
<g id="a_edge4_Node000002_Node000005"><a xlink:title=" ">
<path fill="none" stroke="#63b8ff" d="M269.95,-21.6C278.42,-20.56 287.18,-19.48 295.79,-18.42"/>
<polygon fill="#63b8ff" stroke="#63b8ff" points="295.99,-21.92 305.49,-17.22 295.13,-14.97 295.99,-21.92"/>
</a>
</g>
</g>
<!-- Node4 -->
<g id="Node000004" class="node">
<title>Node4</title>
<g id="a_Node000004"><a xlink:href="$class_player.html#af56f0bf98c0423a3a75b0848607d03a4" xlink:title="Get the player&#39;s symbol.">
<polygon fill="white" stroke="#666666" points="560.5,-39 460.5,-39 460.5,-19 560.5,-19 560.5,-39"/>
<text xml:space="preserve" text-anchor="middle" x="510.5" y="-25.5" font-family="Helvetica,sans-Serif" font-size="10.00">Player::get_symbol</text>
</a>
</g>
</g>
<!-- Node3&#45;&gt;Node4 -->
<g id="edge3_Node000003_Node000004" class="edge">
<title>Node3&#45;&gt;Node4</title>
<g id="a_edge3_Node000003_Node000004"><a xlink:title=" ">
<path fill="none" stroke="#63b8ff" d="M424.85,-40.22C432.84,-39.16 441.06,-38.07 449.07,-37.01"/>
<polygon fill="#63b8ff" stroke="#63b8ff" points="449.29,-40.51 458.74,-35.73 448.37,-33.57 449.29,-40.51"/>
</a>
</g>
</g>
<!-- Node5&#45;&gt;Node4 -->
<g id="edge5_Node000005_Node000004" class="edge">
<title>Node5&#45;&gt;Node4</title>
<g id="a_edge5_Node000005_Node000004"><a xlink:title=" ">
<path fill="none" stroke="#63b8ff" d="M423.2,-17.56C431.58,-18.67 440.23,-19.82 448.68,-20.94"/>
<polygon fill="#63b8ff" stroke="#63b8ff" points="448.15,-24.4 458.52,-22.24 449.07,-17.46 448.15,-24.4"/>
</a>
</g>
</g>
</g>
</svg>
