<?xml version="1.0" encoding="UTF-8" standalone="no"?>
<!DOCTYPE svg PUBLIC "-//W3C//DTD SVG 1.1//EN"
 "http://www.w3.org/Graphics/SVG/1.1/DTD/svg11.dtd">
<!-- Generated by graphviz version 14.0.2 (20251019.1705)
 -->
<!-- Title: Word_XO_Board::is_win Pages: 1 -->
<svg width="450pt" height="53pt"
 viewBox="0.00 0.00 450.00 53.00" xmlns="http://www.w3.org/2000/svg" xmlns:xlink="http://www.w3.org/1999/xlink">
<g id="graph0" class="graph" transform="scale(1 1) rotate(0) translate(4 49)">
<title>Word_XO_Board::is_win</title>
<!-- Node1 -->
<g id="Node000001" class="node">
<title>Node1</title>
<g id="a_Node000001"><a xlink:title="Checks if the specified player has won.">
<polygon fill="#999999" stroke="#666666" points="441.75,-39 319.25,-39 319.25,-19 441.75,-19 441.75,-39"/>
<text xml:space="preserve" text-anchor="middle" x="380.5" y="-25.5" font-family="Helvetica,sans-Serif" font-size="10.00">Word_XO_Board::is_win</text>
</a>
</g>
</g>
<!-- Node2 -->
<g id="Node000002" class="node">
<title>Node2</title>
<g id="a_Node000002"><a xlink:href="$class_word___x_o___board.html#a9ce0369f486035a8216b9b2063efe7fd" xlink:title="Determines whether the game has reached a terminal state.">
<polygon fill="white" stroke="#666666" points="118.75,-45 0,-45 0,-13 118.75,-13 118.75,-45"/>
<text xml:space="preserve" text-anchor="start" x="8" y="-31.5" font-family="Helvetica,sans-Serif" font-size="10.00">Word_XO_Board::game</text>
<text xml:space="preserve" text-anchor="middle" x="59.38" y="-19.5" font-family="Helvetica,sans-Serif" font-size="10.00">_is_over</text>
</a>
</g>
</g>
<!-- Node1&#45;&gt;Node2 -->
<g id="edge1_Node000001_Node000002" class="edge">
<title>Node1&#45;&gt;Node2</title>
<g id="a_edge1_Node000001_Node000002"><a xlink:title=" ">
<path fill="none" stroke="#63b8ff" d="M307.67,-29C250.8,-29 172.36,-29 119.18,-29"/>
<polygon fill="#63b8ff" stroke="#63b8ff" points="307.59,-32.5 317.59,-29 307.59,-25.5 307.59,-32.5"/>
</a>
</g>
</g>
<!-- Node3 -->
<g id="Node000003" class="node">
<title>Node3</title>
<g id="a_Node000003"><a xlink:href="$class_word___x_o___board.html#af33032e635ec76b4f8b13b0658b772a0" xlink:title="Determines whether the game ended in a draw.">
<polygon fill="white" stroke="#666666" points="283.25,-20 154.75,-20 154.75,0 283.25,0 283.25,-20"/>
<text xml:space="preserve" text-anchor="middle" x="219" y="-6.5" font-family="Helvetica,sans-Serif" font-size="10.00">Word_XO_Board::is_draw</text>
</a>
</g>
</g>
<!-- Node1&#45;&gt;Node3 -->
<g id="edge2_Node000001_Node000003" class="edge">
<title>Node1&#45;&gt;Node3</title>
<g id="a_edge2_Node000001_Node000003"><a xlink:title=" ">
<path fill="none" stroke="#63b8ff" d="M307.86,-20.47C299.77,-19.5 291.56,-18.52 283.58,-17.57"/>
<polygon fill="#63b8ff" stroke="#63b8ff" points="307.35,-23.93 317.7,-21.64 308.18,-16.98 307.35,-23.93"/>
</a>
</g>
</g>
<!-- Node3&#45;&gt;Node2 -->
<g id="edge3_Node000003_Node000002" class="edge">
<title>Node3&#45;&gt;Node2</title>
<g id="a_edge3_Node000003_Node000002"><a xlink:title=" ">
<path fill="none" stroke="#63b8ff" d="M143.07,-19.03C135.05,-20 126.97,-20.97 119.17,-21.91"/>
<polygon fill="#63b8ff" stroke="#63b8ff" points="143.33,-22.53 152.84,-17.85 142.49,-15.58 143.33,-22.53"/>
</a>
</g>
</g>
</g>
</svg>
