<?xml version="1.0" encoding="UTF-8" standalone="no"?>
<!DOCTYPE svg PUBLIC "-//W3C//DTD SVG 1.1//EN"
 "http://www.w3.org/Graphics/SVG/1.1/DTD/svg11.dtd">
<!-- Generated by graphviz version 14.0.2 (20251019.1705)
 -->
<!-- Title: Ultimate_Board::is_win Pages: 1 -->
<svg width="434pt" height="53pt"
 viewBox="0.00 0.00 434.00 53.00" xmlns="http://www.w3.org/2000/svg" xmlns:xlink="http://www.w3.org/1999/xlink">
<g id="graph0" class="graph" transform="scale(1 1) rotate(0) translate(4 49)">
<title>Ultimate_Board::is_win</title>
<!-- Node1 -->
<g id="Node000001" class="node">
<title>Node1</title>
<g id="a_Node000001"><a xlink:title="Checks if the player has won the game.">
<polygon fill="#999999" stroke="#666666" points="426,-39 308.75,-39 308.75,-19 426,-19 426,-39"/>
<text xml:space="preserve" text-anchor="middle" x="367.38" y="-25.5" font-family="Helvetica,sans-Serif" font-size="10.00">Ultimate_Board::is_win</text>
</a>
</g>
</g>
<!-- Node2 -->
<g id="Node000002" class="node">
<title>Node2</title>
<g id="a_Node000002"><a xlink:href="class_ultimate___board.html#adb5f3ecf194dae9f85a680f384422151" target="_top" xlink:title="Determines whether the game has ended.">
<polygon fill="white" stroke="#666666" points="113.5,-45 0,-45 0,-13 113.5,-13 113.5,-45"/>
<text xml:space="preserve" text-anchor="start" x="8" y="-31.5" font-family="Helvetica,sans-Serif" font-size="10.00">Ultimate_Board::game</text>
<text xml:space="preserve" text-anchor="middle" x="56.75" y="-19.5" font-family="Helvetica,sans-Serif" font-size="10.00">_is_over</text>
</a>
</g>
</g>
<!-- Node1&#45;&gt;Node2 -->
<g id="edge1_Node000001_Node000002" class="edge">
<title>Node1&#45;&gt;Node2</title>
<g id="a_edge1_Node000001_Node000002"><a xlink:title=" ">
<path fill="none" stroke="#63b8ff" d="M296.88,-29C241.65,-29 165.4,-29 113.98,-29"/>
<polygon fill="#63b8ff" stroke="#63b8ff" points="296.81,-32.5 306.81,-29 296.81,-25.5 296.81,-32.5"/>
</a>
</g>
</g>
<!-- Node3 -->
<g id="Node000003" class="node">
<title>Node3</title>
<g id="a_Node000003"><a xlink:href="class_ultimate___board.html#a5737c7a2126711b10d5996eb07644fb1" target="_top" xlink:title="Checks if the game ended in a draw.">
<polygon fill="white" stroke="#666666" points="272.75,-20 149.5,-20 149.5,0 272.75,0 272.75,-20"/>
<text xml:space="preserve" text-anchor="middle" x="211.12" y="-6.5" font-family="Helvetica,sans-Serif" font-size="10.00">Ultimate_Board::is_draw</text>
</a>
</g>
</g>
<!-- Node1&#45;&gt;Node3 -->
<g id="edge2_Node000001_Node000003" class="edge">
<title>Node1&#45;&gt;Node3</title>
<g id="a_edge2_Node000001_Node000003"><a xlink:title=" ">
<path fill="none" stroke="#63b8ff" d="M297.26,-20.49C289.22,-19.5 281.07,-18.49 273.16,-17.52"/>
<polygon fill="#63b8ff" stroke="#63b8ff" points="296.64,-23.94 307,-21.69 297.5,-16.99 296.64,-23.94"/>
</a>
</g>
</g>
<!-- Node3&#45;&gt;Node2 -->
<g id="edge3_Node000003_Node000002" class="edge">
<title>Node3&#45;&gt;Node2</title>
<g id="a_edge3_Node000003_Node000002"><a xlink:title=" ">
<path fill="none" stroke="#63b8ff" d="M137.78,-19.02C129.76,-20.02 121.7,-21.03 113.93,-22"/>
<polygon fill="#63b8ff" stroke="#63b8ff" points="138.03,-22.52 147.52,-17.81 137.17,-15.57 138.03,-22.52"/>
</a>
</g>
</g>
</g>
</svg>
