<?xml version="1.0" encoding="UTF-8" standalone="no"?>
<!DOCTYPE svg PUBLIC "-//W3C//DTD SVG 1.1//EN"
 "http://www.w3.org/Graphics/SVG/1.1/DTD/svg11.dtd">
<!-- Generated by graphviz version 14.0.2 (20251019.1705)
 -->
<!-- Title: Anti_XO_Board::update_board Pages: 1 -->
<svg width="259pt" height="104pt"
 viewBox="0.00 0.00 259.00 104.00" xmlns="http://www.w3.org/2000/svg" xmlns:xlink="http://www.w3.org/1999/xlink">
<g id="graph0" class="graph" transform="scale(1 1) rotate(0) translate(4 100)">
<title>Anti_XO_Board::update_board</title>
<!-- Node1 -->
<g id="Node000001" class="node">
<title>Node1</title>
<g id="a_Node000001"><a xlink:title="Places a symbol on the board if the position is valid and empty.">
<polygon fill="#999999" stroke="#666666" points="118.75,-64 0,-64 0,-32 118.75,-32 118.75,-64"/>
<text xml:space="preserve" text-anchor="start" x="8" y="-50.5" font-family="Helvetica,sans-Serif" font-size="10.00">Anti_XO_Board::update</text>
<text xml:space="preserve" text-anchor="middle" x="59.38" y="-38.5" font-family="Helvetica,sans-Serif" font-size="10.00">_board</text>
</a>
</g>
</g>
<!-- Node2 -->
<g id="Node000002" class="node">
<title>Node2</title>
<g id="a_Node000002"><a xlink:href="$class_move.html#a595bf740852c05a1cb425ef2640fd4ff" xlink:title="Get the move symbol.">
<polygon fill="white" stroke="#666666" points="251,-96 154.75,-96 154.75,-76 251,-76 251,-96"/>
<text xml:space="preserve" text-anchor="middle" x="202.88" y="-82.5" font-family="Helvetica,sans-Serif" font-size="10.00">Move::get_symbol</text>
</a>
</g>
</g>
<!-- Node1&#45;&gt;Node2 -->
<g id="edge1_Node000001_Node000002" class="edge">
<title>Node1&#45;&gt;Node2</title>
<g id="a_edge1_Node000001_Node000002"><a xlink:title=" ">
<path fill="none" stroke="#63b8ff" d="M119.15,-63.79C130.09,-66.72 141.41,-69.76 152.05,-72.62"/>
<polygon fill="#63b8ff" stroke="#63b8ff" points="150.8,-75.91 161.37,-75.12 152.62,-69.15 150.8,-75.91"/>
</a>
</g>
</g>
<!-- Node3 -->
<g id="Node000003" class="node">
<title>Node3</title>
<g id="a_Node000003"><a xlink:href="$class_move.html#a9d4f543a81e361f872d37bcfb64d5b55" xlink:title="Get row index.">
<polygon fill="white" stroke="#666666" points="237.88,-58 167.88,-58 167.88,-38 237.88,-38 237.88,-58"/>
<text xml:space="preserve" text-anchor="middle" x="202.88" y="-44.5" font-family="Helvetica,sans-Serif" font-size="10.00">Move::get_x</text>
</a>
</g>
</g>
<!-- Node1&#45;&gt;Node3 -->
<g id="edge2_Node000001_Node000003" class="edge">
<title>Node1&#45;&gt;Node3</title>
<g id="a_edge2_Node000001_Node000003"><a xlink:title=" ">
<path fill="none" stroke="#63b8ff" d="M119.15,-48C131.57,-48 144.49,-48 156.33,-48"/>
<polygon fill="#63b8ff" stroke="#63b8ff" points="156.23,-51.5 166.23,-48 156.23,-44.5 156.23,-51.5"/>
</a>
</g>
</g>
<!-- Node4 -->
<g id="Node000004" class="node">
<title>Node4</title>
<g id="a_Node000004"><a xlink:href="$class_move.html#a96469802a55c9083a1e93c7edec8a00c" xlink:title="Get column index.">
<polygon fill="white" stroke="#666666" points="237.88,-20 167.88,-20 167.88,0 237.88,0 237.88,-20"/>
<text xml:space="preserve" text-anchor="middle" x="202.88" y="-6.5" font-family="Helvetica,sans-Serif" font-size="10.00">Move::get_y</text>
</a>
</g>
</g>
<!-- Node1&#45;&gt;Node4 -->
<g id="edge3_Node000001_Node000004" class="edge">
<title>Node1&#45;&gt;Node4</title>
<g id="a_edge3_Node000001_Node000004"><a xlink:title=" ">
<path fill="none" stroke="#63b8ff" d="M119.15,-32.21C131.7,-28.85 144.76,-25.34 156.7,-22.13"/>
<polygon fill="#63b8ff" stroke="#63b8ff" points="157.54,-25.53 166.29,-19.56 155.72,-18.77 157.54,-25.53"/>
</a>
</g>
</g>
</g>
</svg>
