<?xml version="1.0" encoding="UTF-8" standalone="no"?>
<!DOCTYPE svg PUBLIC "-//W3C//DTD SVG 1.1//EN"
 "http://www.w3.org/Graphics/SVG/1.1/DTD/svg11.dtd">
<!-- Generated by graphviz version 14.0.2 (20251019.1705)
 -->
<!-- Title: Memory_UI::get_move Pages: 1 -->
<svg width="565pt" height="227pt"
 viewBox="0.00 0.00 565.00 227.00" xmlns="http://www.w3.org/2000/svg" xmlns:xlink="http://www.w3.org/1999/xlink">
<g id="graph0" class="graph" transform="scale(1 1) rotate(0) translate(4 223)">
<title>Memory_UI::get_move</title>
<!-- Node1 -->
<g id="Node000001" class="node">
<title>Node1</title>
<g id="a_Node000001"><a xlink:title="Obtains the next move from a player.">
<polygon fill="#999999" stroke="#666666" points="115.75,-77 0,-77 0,-57 115.75,-57 115.75,-77"/>
<text xml:space="preserve" text-anchor="middle" x="57.88" y="-63.5" font-family="Helvetica,sans-Serif" font-size="10.00">Memory_UI::get_move</text>
</a>
</g>
</g>
<!-- Node2 -->
<g id="Node000002" class="node">
<title>Node2</title>
<g id="a_Node000002"><a xlink:href="class_memory___a_i.html#a6bb44a40960586c692f1224bc15dc098" target="_top" xlink:title="Determines the optimal move for AI using minimax.">
<polygon fill="white" stroke="#666666" points="266.75,-153 151.75,-153 151.75,-133 266.75,-133 266.75,-153"/>
<text xml:space="preserve" text-anchor="middle" x="209.25" y="-139.5" font-family="Helvetica,sans-Serif" font-size="10.00">Memory_AI::bestMove</text>
</a>
</g>
</g>
<!-- Node1&#45;&gt;Node2 -->
<g id="edge1_Node000001_Node000002" class="edge">
<title>Node1&#45;&gt;Node2</title>
<g id="a_edge1_Node000001_Node000002"><a xlink:title=" ">
<path fill="none" stroke="#63b8ff" d="M79.33,-77.41C104.81,-90.37 148.55,-112.63 177.93,-127.57"/>
<polygon fill="#63b8ff" stroke="#63b8ff" points="176.19,-130.62 186.69,-132.03 179.37,-124.38 176.19,-130.62"/>
</a>
</g>
</g>
<!-- Node4 -->
<g id="Node000004" class="node">
<title>Node4</title>
<g id="a_Node000004"><a xlink:href="class_player.html#af56f0bf98c0423a3a75b0848607d03a4" target="_top" xlink:title="Get the player&#39;s symbol.">
<polygon fill="white" stroke="#666666" points="552.25,-134 452.25,-134 452.25,-114 552.25,-114 552.25,-134"/>
<text xml:space="preserve" text-anchor="middle" x="502.25" y="-120.5" font-family="Helvetica,sans-Serif" font-size="10.00">Player::get_symbol</text>
</a>
</g>
</g>
<!-- Node1&#45;&gt;Node4 -->
<g id="edge10_Node000001_Node000004" class="edge">
<title>Node1&#45;&gt;Node4</title>
<g id="a_edge10_Node000001_Node000004"><a xlink:title=" ">
<path fill="none" stroke="#63b8ff" d="M115.8,-74.34C199.47,-85.12 354.96,-105.15 440.66,-116.19"/>
<polygon fill="#63b8ff" stroke="#63b8ff" points="440.16,-119.66 450.52,-117.46 441.05,-112.71 440.16,-119.66"/>
</a>
</g>
</g>
<!-- Node7 -->
<g id="Node000007" class="node">
<title>Node7</title>
<g id="a_Node000007"><a xlink:href="class_player.html#aed2af19790ba73190e3ebeea589518e1" target="_top" xlink:title="Get the player&#39;s name.">
<polygon fill="white" stroke="#666666" points="255.5,-58 163,-58 163,-38 255.5,-38 255.5,-58"/>
<text xml:space="preserve" text-anchor="middle" x="209.25" y="-44.5" font-family="Helvetica,sans-Serif" font-size="10.00">Player::get_name</text>
</a>
</g>
</g>
<!-- Node1&#45;&gt;Node7 -->
<g id="edge9_Node000001_Node000007" class="edge">
<title>Node1&#45;&gt;Node7</title>
<g id="a_edge9_Node000001_Node000007"><a xlink:title=" ">
<path fill="none" stroke="#63b8ff" d="M116.2,-59.71C127.8,-58.23 139.99,-56.68 151.57,-55.21"/>
<polygon fill="#63b8ff" stroke="#63b8ff" points="151.92,-58.69 161.4,-53.96 151.04,-51.75 151.92,-58.69"/>
</a>
</g>
</g>
<!-- Node8 -->
<g id="Node000008" class="node">
<title>Node8</title>
<g id="a_Node000008"><a xlink:href="class_player.html#a2df3bd299bf7aecfa2275ec6902a60f8" target="_top" xlink:title="Get player type (e.g., &#39;H&#39; or &#39;C&#39;).">
<polygon fill="white" stroke="#666666" points="252.88,-20 165.62,-20 165.62,0 252.88,0 252.88,-20"/>
<text xml:space="preserve" text-anchor="middle" x="209.25" y="-6.5" font-family="Helvetica,sans-Serif" font-size="10.00">Player::get_type</text>
</a>
</g>
</g>
<!-- Node1&#45;&gt;Node8 -->
<g id="edge11_Node000001_Node000008" class="edge">
<title>Node1&#45;&gt;Node8</title>
<g id="a_edge11_Node000001_Node000008"><a xlink:title=" ">
<path fill="none" stroke="#63b8ff" d="M83.15,-56.57C101.79,-48.68 128.24,-37.75 151.75,-29 156.11,-27.38 160.69,-25.73 165.27,-24.13"/>
<polygon fill="#63b8ff" stroke="#63b8ff" points="166.1,-27.55 174.42,-20.99 163.83,-20.93 166.1,-27.55"/>
</a>
</g>
</g>
<!-- Node3 -->
<g id="Node000003" class="node">
<title>Node3</title>
<g id="a_Node000003"><a xlink:href="class_player.html#a508617eddfae8915d098102d480fc888" target="_top" xlink:title="Get a pointer to the game board.">
<polygon fill="white" stroke="#666666" points="556.75,-219 447.75,-219 447.75,-199 556.75,-199 556.75,-219"/>
<text xml:space="preserve" text-anchor="middle" x="502.25" y="-205.5" font-family="Helvetica,sans-Serif" font-size="10.00">Player::get_board_ptr</text>
</a>
</g>
</g>
<!-- Node2&#45;&gt;Node3 -->
<g id="edge2_Node000002_Node000003" class="edge">
<title>Node2&#45;&gt;Node3</title>
<g id="a_edge2_Node000002_Node000003"><a xlink:title=" ">
<path fill="none" stroke="#63b8ff" d="M222.74,-153.38C239.65,-166.74 271.34,-189.37 302.75,-199 345.84,-212.2 396.63,-214.54 436.05,-213.66"/>
<polygon fill="#63b8ff" stroke="#63b8ff" points="435.97,-217.16 445.86,-213.36 435.75,-210.16 435.97,-217.16"/>
</a>
</g>
</g>
<!-- Node2&#45;&gt;Node4 -->
<g id="edge3_Node000002_Node000004" class="edge">
<title>Node2&#45;&gt;Node4</title>
<g id="a_edge3_Node000002_Node000004"><a xlink:title=" ">
<path fill="none" stroke="#63b8ff" d="M267.05,-139.29C317.02,-136.03 389.58,-131.29 440.66,-127.96"/>
<polygon fill="#63b8ff" stroke="#63b8ff" points="440.6,-131.47 450.35,-127.32 440.14,-124.48 440.6,-131.47"/>
</a>
</g>
</g>
<!-- Node5 -->
<g id="Node000005" class="node">
<title>Node5</title>
<g id="a_Node000005"><a xlink:href="class_memory___a_i.html#a011257fcbc9862c365fc6ffa25624aa9" target="_top" xlink:title="Minimax algorithm with alpha&#45;beta pruning.">
<polygon fill="white" stroke="#666666" points="411.75,-172 302.75,-172 302.75,-152 411.75,-152 411.75,-172"/>
<text xml:space="preserve" text-anchor="middle" x="357.25" y="-158.5" font-family="Helvetica,sans-Serif" font-size="10.00">Memory_AI::minimax</text>
</a>
</g>
</g>
<!-- Node2&#45;&gt;Node5 -->
<g id="edge4_Node000002_Node000005" class="edge">
<title>Node2&#45;&gt;Node5</title>
<g id="a_edge4_Node000002_Node000005"><a xlink:title=" ">
<path fill="none" stroke="#63b8ff" d="M267.12,-150.4C275.06,-151.43 283.27,-152.5 291.35,-153.55"/>
<polygon fill="#63b8ff" stroke="#63b8ff" points="290.78,-157.01 301.15,-154.83 291.68,-150.07 290.78,-157.01"/>
</a>
</g>
</g>
<!-- Node5&#45;&gt;Node3 -->
<g id="edge6_Node000005_Node000003" class="edge">
<title>Node5&#45;&gt;Node3</title>
<g id="a_edge6_Node000005_Node000003"><a xlink:title=" ">
<path fill="none" stroke="#63b8ff" d="M389.99,-172.43C410.26,-179.09 436.78,-187.81 458.85,-195.06"/>
<polygon fill="#63b8ff" stroke="#63b8ff" points="457.57,-198.33 468.16,-198.13 459.76,-191.68 457.57,-198.33"/>
</a>
</g>
</g>
<!-- Node5&#45;&gt;Node4 -->
<g id="edge7_Node000005_Node000004" class="edge">
<title>Node5&#45;&gt;Node4</title>
<g id="a_edge7_Node000005_Node000004"><a xlink:title=" ">
<path fill="none" stroke="#63b8ff" d="M397.7,-151.52C414.27,-147.11 433.73,-141.94 451.29,-137.28"/>
<polygon fill="#63b8ff" stroke="#63b8ff" points="451.7,-140.79 460.46,-134.84 449.9,-134.02 451.7,-140.79"/>
</a>
</g>
</g>
<!-- Node5&#45;&gt;Node5 -->
<g id="edge8_Node000005_Node000005" class="edge">
<title>Node5&#45;&gt;Node5</title>
<g id="a_edge8_Node000005_Node000005"><a xlink:title=" ">
<path fill="none" stroke="#63b8ff" d="M334.21,-172.34C324.37,-180.98 332.04,-190 357.25,-190 371.03,-190 379.58,-187.3 382.88,-183.44"/>
<polygon fill="#63b8ff" stroke="#63b8ff" points="386.31,-182.76 380.63,-173.81 379.49,-184.35 386.31,-182.76"/>
</a>
</g>
</g>
<!-- Node6 -->
<g id="Node000006" class="node">
<title>Node6</title>
<g id="a_Node000006"><a xlink:href="class_memory___a_i.html#a7ccc7a57734bc0259a07602a67bd9465" target="_top" xlink:title="Evaluates the board state from AI perspective.">
<polygon fill="white" stroke="#666666" points="556.75,-172 447.75,-172 447.75,-152 556.75,-152 556.75,-172"/>
<text xml:space="preserve" text-anchor="middle" x="502.25" y="-158.5" font-family="Helvetica,sans-Serif" font-size="10.00">Memory_AI::evaluate</text>
</a>
</g>
</g>
<!-- Node5&#45;&gt;Node6 -->
<g id="edge5_Node000005_Node000006" class="edge">
<title>Node5&#45;&gt;Node6</title>
<g id="a_edge5_Node000005_Node000006"><a xlink:title=" ">
<path fill="none" stroke="#63b8ff" d="M411.9,-162C419.77,-162 427.94,-162 436.01,-162"/>
<polygon fill="#63b8ff" stroke="#63b8ff" points="435.78,-165.5 445.78,-162 435.78,-158.5 435.78,-165.5"/>
</a>
</g>
</g>
</g>
</svg>
