<?xml version="1.0" encoding="UTF-8" standalone="no"?>
<!DOCTYPE svg PUBLIC "-//W3C//DTD SVG 1.1//EN"
 "http://www.w3.org/Graphics/SVG/1.1/DTD/svg11.dtd">
<!-- Generated by graphviz version 14.0.2 (20251019.1705)
 -->
<!-- Title: Four_AI::get_next_available_row Pages: 1 -->
<svg width="576pt" height="57pt"
 viewBox="0.00 0.00 576.00 57.00" xmlns="http://www.w3.org/2000/svg" xmlns:xlink="http://www.w3.org/1999/xlink">
<g id="graph0" class="graph" transform="scale(1 1) rotate(0) translate(4 52.5)">
<title>Four_AI::get_next_available_row</title>
<!-- Node1 -->
<g id="Node000001" class="node">
<title>Node1</title>
<g id="a_Node000001"><a xlink:title="Finds next open row in the given column.">
<polygon fill="#999999" stroke="#666666" points="568,-48 409.5,-48 409.5,-28 568,-28 568,-48"/>
<text xml:space="preserve" text-anchor="middle" x="488.75" y="-34.5" font-family="Helvetica,sans-Serif" font-size="10.00">Four_AI::get_next_available_row</text>
</a>
</g>
</g>
<!-- Node2 -->
<g id="Node000002" class="node">
<title>Node2</title>
<g id="a_Node000002"><a xlink:href="$class_four___a_i.html#a12661d165899365f9a5031ec04814e44" xlink:title="Computes the best possible move for the AI.">
<polygon fill="white" stroke="#666666" points="244.25,-48 145,-48 145,-28 244.25,-28 244.25,-48"/>
<text xml:space="preserve" text-anchor="middle" x="194.62" y="-34.5" font-family="Helvetica,sans-Serif" font-size="10.00">Four_AI::bestMove</text>
</a>
</g>
</g>
<!-- Node1&#45;&gt;Node2 -->
<g id="edge1_Node000001_Node000002" class="edge">
<title>Node1&#45;&gt;Node2</title>
<g id="a_edge1_Node000001_Node000002"><a xlink:title=" ">
<path fill="none" stroke="#63b8ff" d="M397.9,-45.75C389.66,-46.26 381.43,-46.69 373.5,-47 332.09,-48.63 321.64,-49.19 280.25,-47 268.59,-46.38 256.07,-45.29 244.33,-44.07"/>
<polygon fill="#63b8ff" stroke="#63b8ff" points="397.87,-49.26 407.62,-45.11 397.41,-42.27 397.87,-49.26"/>
</a>
</g>
</g>
<!-- Node4 -->
<g id="Node000004" class="node">
<title>Node4</title>
<g id="a_Node000004"><a xlink:href="$class_four___a_i.html#a2be9e32c580e8aa22c530ab4c9920317" xlink:title="Minimax with alpha&#45;beta pruning.">
<polygon fill="white" stroke="#666666" points="373.5,-20 280.25,-20 280.25,0 373.5,0 373.5,-20"/>
<text xml:space="preserve" text-anchor="middle" x="326.88" y="-6.5" font-family="Helvetica,sans-Serif" font-size="10.00">Four_AI::minimax</text>
</a>
</g>
</g>
<!-- Node1&#45;&gt;Node4 -->
<g id="edge3_Node000001_Node000004" class="edge">
<title>Node1&#45;&gt;Node4</title>
<g id="a_edge3_Node000001_Node000004"><a xlink:title=" ">
<path fill="none" stroke="#63b8ff" d="M417.14,-25.63C402.51,-23.07 387.45,-20.43 373.96,-18.07"/>
<polygon fill="#63b8ff" stroke="#63b8ff" points="416.27,-29.04 426.73,-27.31 417.48,-22.14 416.27,-29.04"/>
</a>
</g>
</g>
<!-- Node3 -->
<g id="Node000003" class="node">
<title>Node3</title>
<g id="a_Node000003"><a xlink:href="$class_f_o_u_r___u_i.html#a5b8d7e6afd5b983620fd00bf954564d7" xlink:title="Gets the move from a human, computer, or AI player.">
<polygon fill="white" stroke="#666666" points="109,-48 0,-48 0,-28 109,-28 109,-48"/>
<text xml:space="preserve" text-anchor="middle" x="54.5" y="-34.5" font-family="Helvetica,sans-Serif" font-size="10.00">FOUR_UI::get_move</text>
</a>
</g>
</g>
<!-- Node2&#45;&gt;Node3 -->
<g id="edge2_Node000002_Node000003" class="edge">
<title>Node2&#45;&gt;Node3</title>
<g id="a_edge2_Node000002_Node000003"><a xlink:title=" ">
<path fill="none" stroke="#63b8ff" d="M133.03,-38C125.07,-38 116.95,-38 109.12,-38"/>
<polygon fill="#63b8ff" stroke="#63b8ff" points="133.02,-41.5 143.02,-38 133.02,-34.5 133.02,-41.5"/>
</a>
</g>
</g>
<!-- Node4&#45;&gt;Node2 -->
<g id="edge4_Node000004_Node000002" class="edge">
<title>Node4&#45;&gt;Node2</title>
<g id="a_edge4_Node000004_Node000002"><a xlink:title=" ">
<path fill="none" stroke="#63b8ff" d="M268.89,-22.25C260.67,-24.02 252.27,-25.82 244.22,-27.55"/>
<polygon fill="#63b8ff" stroke="#63b8ff" points="269.43,-25.71 278.47,-20.19 267.96,-18.87 269.43,-25.71"/>
</a>
</g>
</g>
<!-- Node4&#45;&gt;Node4 -->
<g id="edge5_Node000004_Node000004" class="edge">
<title>Node4&#45;&gt;Node4</title>
<g id="a_edge5_Node000004_Node000004"><a xlink:title=" ">
<path fill="none" stroke="#63b8ff" d="M350.25,-31.44C347.24,-35.3 339.45,-38 326.88,-38 303.89,-38 296.88,-28.98 305.86,-20.34"/>
<polygon fill="#63b8ff" stroke="#63b8ff" points="353.71,-30.87 348.2,-21.82 346.86,-32.33 353.71,-30.87"/>
</a>
</g>
</g>
</g>
</svg>
