<?xml version="1.0" encoding="UTF-8" standalone="no"?>
<!DOCTYPE svg PUBLIC "-//W3C//DTD SVG 1.1//EN"
 "http://www.w3.org/Graphics/SVG/1.1/DTD/svg11.dtd">
<!-- Generated by graphviz version 14.0.2 (20251019.1705)
 -->
<!-- Title: XO_NUM_Board Pages: 1 -->
<svg width="216pt" height="572pt"
 viewBox="0.00 0.00 216.00 572.00" xmlns="http://www.w3.org/2000/svg" xmlns:xlink="http://www.w3.org/1999/xlink">
<g id="graph0" class="graph" transform="scale(1 1) rotate(0) translate(4 568)">
<title>XO_NUM_Board</title>
<!-- Node1 -->
<g id="Node000001" class="node">
<title>Node1</title>
<g id="a_Node000001"><a xlink:title="Numerical Tic&#45;Tac&#45;Toe board.">
<polygon fill="#999999" stroke="none" points="182.25,-132 84.75,-132 84.75,0 182.25,0 182.25,-132"/>
<text xml:space="preserve" text-anchor="start" x="96.75" y="-118.5" font-family="Helvetica,sans-Serif" font-size="10.00">XO_NUM_Board</text>
<text xml:space="preserve" text-anchor="start" x="90.25" y="-102.5" font-family="Helvetica,sans-Serif" font-size="10.00">&#45;</text>
<text xml:space="preserve" text-anchor="start" x="98.75" y="-102.5" font-family="Helvetica,sans-Serif" font-size="10.00">blank_symbol</text>
<text xml:space="preserve" text-anchor="start" x="88.75" y="-86.5" font-family="Helvetica,sans-Serif" font-size="10.00">+</text>
<text xml:space="preserve" text-anchor="start" x="98.75" y="-86.5" font-family="Helvetica,sans-Serif" font-size="10.00">XO_NUM_Board()</text>
<text xml:space="preserve" text-anchor="start" x="88.75" y="-70.5" font-family="Helvetica,sans-Serif" font-size="10.00">+</text>
<text xml:space="preserve" text-anchor="start" x="98.75" y="-70.5" font-family="Helvetica,sans-Serif" font-size="10.00">update_board()</text>
<text xml:space="preserve" text-anchor="start" x="88.75" y="-54.5" font-family="Helvetica,sans-Serif" font-size="10.00">+</text>
<text xml:space="preserve" text-anchor="start" x="98.75" y="-54.5" font-family="Helvetica,sans-Serif" font-size="10.00">is_win()</text>
<text xml:space="preserve" text-anchor="start" x="88.75" y="-38.5" font-family="Helvetica,sans-Serif" font-size="10.00">+</text>
<text xml:space="preserve" text-anchor="start" x="98.75" y="-38.5" font-family="Helvetica,sans-Serif" font-size="10.00">is_lose()</text>
<text xml:space="preserve" text-anchor="start" x="88.75" y="-22.5" font-family="Helvetica,sans-Serif" font-size="10.00">+</text>
<text xml:space="preserve" text-anchor="start" x="98.75" y="-22.5" font-family="Helvetica,sans-Serif" font-size="10.00">is_draw()</text>
<text xml:space="preserve" text-anchor="start" x="88.75" y="-6.5" font-family="Helvetica,sans-Serif" font-size="10.00">+</text>
<text xml:space="preserve" text-anchor="start" x="98.75" y="-6.5" font-family="Helvetica,sans-Serif" font-size="10.00">game_is_over()</text>
<polygon fill="#666666" stroke="#666666" points="84.75,-114 84.75,-114 182.25,-114 182.25,-114 84.75,-114"/>
<polygon fill="#666666" stroke="#666666" points="84.75,-98 84.75,-98 96.75,-98 96.75,-98 84.75,-98"/>
<polygon fill="#666666" stroke="#666666" points="96.75,-98 96.75,-98 182.25,-98 182.25,-98 96.75,-98"/>
<polygon fill="none" stroke="#666666" points="84.75,0 84.75,-132 182.25,-132 182.25,0 84.75,0"/>
</a>
</g>
</g>
<!-- Node2 -->
<g id="Node000002" class="node">
<title>Node2</title>
<g id="a_Node000002"><a xlink:href="$class_board.html" xlink:title=" ">
<polygon fill="white" stroke="none" points="99,-446 0,-446 0,-202 99,-202 99,-446"/>
<text xml:space="preserve" text-anchor="start" x="18.38" y="-432.5" font-family="Helvetica,sans-Serif" font-size="10.00">Board&lt; char &gt;</text>
<text xml:space="preserve" text-anchor="start" x="4.38" y="-416.5" font-family="Helvetica,sans-Serif" font-size="10.00">#</text>
<text xml:space="preserve" text-anchor="start" x="14" y="-416.5" font-family="Helvetica,sans-Serif" font-size="10.00">rows</text>
<text xml:space="preserve" text-anchor="start" x="4.38" y="-400.5" font-family="Helvetica,sans-Serif" font-size="10.00">#</text>
<text xml:space="preserve" text-anchor="start" x="14" y="-400.5" font-family="Helvetica,sans-Serif" font-size="10.00">columns</text>
<text xml:space="preserve" text-anchor="start" x="4.38" y="-384.5" font-family="Helvetica,sans-Serif" font-size="10.00">#</text>
<text xml:space="preserve" text-anchor="start" x="14" y="-384.5" font-family="Helvetica,sans-Serif" font-size="10.00">n_moves</text>
<text xml:space="preserve" text-anchor="start" x="4" y="-368.5" font-family="Helvetica,sans-Serif" font-size="10.00">+</text>
<text xml:space="preserve" text-anchor="start" x="14" y="-368.5" font-family="Helvetica,sans-Serif" font-size="10.00">Board()</text>
<text xml:space="preserve" text-anchor="start" x="4" y="-352.5" font-family="Helvetica,sans-Serif" font-size="10.00">+</text>
<text xml:space="preserve" text-anchor="start" x="14" y="-352.5" font-family="Helvetica,sans-Serif" font-size="10.00">~Board()</text>
<text xml:space="preserve" text-anchor="start" x="4" y="-336.5" font-family="Helvetica,sans-Serif" font-size="10.00">+</text>
<text xml:space="preserve" text-anchor="start" x="14" y="-336.5" font-family="Helvetica,sans-Serif" font-size="10.00">update_board()</text>
<text xml:space="preserve" text-anchor="start" x="4" y="-320.5" font-family="Helvetica,sans-Serif" font-size="10.00">+</text>
<text xml:space="preserve" text-anchor="start" x="14" y="-320.5" font-family="Helvetica,sans-Serif" font-size="10.00">is_win()</text>
<text xml:space="preserve" text-anchor="start" x="4" y="-304.5" font-family="Helvetica,sans-Serif" font-size="10.00">+</text>
<text xml:space="preserve" text-anchor="start" x="14" y="-304.5" font-family="Helvetica,sans-Serif" font-size="10.00">is_lose()</text>
<text xml:space="preserve" text-anchor="start" x="4" y="-288.5" font-family="Helvetica,sans-Serif" font-size="10.00">+</text>
<text xml:space="preserve" text-anchor="start" x="14" y="-288.5" font-family="Helvetica,sans-Serif" font-size="10.00">is_draw()</text>
<text xml:space="preserve" text-anchor="start" x="4" y="-272.5" font-family="Helvetica,sans-Serif" font-size="10.00">+</text>
<text xml:space="preserve" text-anchor="start" x="14" y="-272.5" font-family="Helvetica,sans-Serif" font-size="10.00">game_is_over()</text>
<text xml:space="preserve" text-anchor="start" x="4" y="-256.5" font-family="Helvetica,sans-Serif" font-size="10.00">+</text>
<text xml:space="preserve" text-anchor="start" x="14" y="-256.5" font-family="Helvetica,sans-Serif" font-size="10.00">get_board_matrix()</text>
<text xml:space="preserve" text-anchor="start" x="4" y="-240.5" font-family="Helvetica,sans-Serif" font-size="10.00">+</text>
<text xml:space="preserve" text-anchor="start" x="14" y="-240.5" font-family="Helvetica,sans-Serif" font-size="10.00">get_rows()</text>
<text xml:space="preserve" text-anchor="start" x="4" y="-224.5" font-family="Helvetica,sans-Serif" font-size="10.00">+</text>
<text xml:space="preserve" text-anchor="start" x="14" y="-224.5" font-family="Helvetica,sans-Serif" font-size="10.00">get_columns()</text>
<text xml:space="preserve" text-anchor="start" x="4" y="-208.5" font-family="Helvetica,sans-Serif" font-size="10.00">+</text>
<text xml:space="preserve" text-anchor="start" x="14" y="-208.5" font-family="Helvetica,sans-Serif" font-size="10.00">get_cell()</text>
<polygon fill="#666666" stroke="#666666" points="0,-428 0,-428 99,-428 99,-428 0,-428"/>
<polygon fill="#666666" stroke="#666666" points="0,-380 0,-380 12,-380 12,-380 0,-380"/>
<polygon fill="#666666" stroke="#666666" points="12,-380 12,-380 99,-380 99,-380 12,-380"/>
<polygon fill="none" stroke="#666666" points="0,-202 0,-446 99,-446 99,-202 0,-202"/>
</a>
</g>
</g>
<!-- Node2&#45;&gt;Node1 -->
<g id="edge1_Node000001_Node000002" class="edge">
<title>Node2&#45;&gt;Node1</title>
<g id="a_edge1_Node000001_Node000002"><a xlink:title=" ">
<path fill="none" stroke="#63b8ff" d="M92.7,-191.33C99.48,-170.69 106.21,-150.18 112.19,-131.95"/>
<polygon fill="none" stroke="#63b8ff" points="89.43,-190.09 89.64,-200.68 96.08,-192.27 89.43,-190.09"/>
</a>
</g>
</g>
<!-- Node3 -->
<g id="Node000003" class="node">
<title>Node3</title>
<g id="a_Node000003"><a xlink:title=" ">
<polygon fill="white" stroke="none" points="94.75,-564 4.25,-564 4.25,-500 94.75,-500 94.75,-564"/>
<text xml:space="preserve" text-anchor="start" x="8.25" y="-550.5" font-family="Helvetica,sans-Serif" font-size="10.00">std::vector&lt; vector</text>
<text xml:space="preserve" text-anchor="start" x="26.62" y="-538.5" font-family="Helvetica,sans-Serif" font-size="10.00">&lt; char &gt; &gt;</text>
<text xml:space="preserve" text-anchor="start" x="16.44" y="-522.5" font-family="Helvetica,sans-Serif" font-size="10.00">+</text>
<text xml:space="preserve" text-anchor="start" x="34.62" y="-522.5" font-family="Helvetica,sans-Serif" font-size="10.00">elements</text>
<text xml:space="preserve" text-anchor="start" x="48" y="-506.5" font-family="Helvetica,sans-Serif" font-size="10.00"> </text>
<polygon fill="#666666" stroke="#666666" points="4.25,-534 4.25,-534 94.75,-534 94.75,-534 4.25,-534"/>
<polygon fill="#666666" stroke="#666666" points="4.25,-518 4.25,-518 32.62,-518 32.62,-518 4.25,-518"/>
<polygon fill="#666666" stroke="#666666" points="32.62,-518 32.62,-518 94.75,-518 94.75,-518 32.62,-518"/>
<polygon fill="none" stroke="#666666" points="4.25,-500 4.25,-564 94.75,-564 94.75,-500 4.25,-500"/>
</a>
</g>
</g>
<!-- Node3&#45;&gt;Node2 -->
<g id="edge2_Node000002_Node000003" class="edge">
<title>Node3&#45;&gt;Node2</title>
<g id="a_edge2_Node000002_Node000003"><a xlink:title=" ">
<path fill="none" stroke="#63b8ff" d="M49.5,-500.16C49.5,-488.41 49.5,-474.14 49.5,-458.88"/>
<polygon fill="none" stroke="#63b8ff" points="49.5,-458.75 45.5,-452.75 49.5,-446.75 53.5,-452.75 49.5,-458.75"/>
</a>
</g>
<text xml:space="preserve" text-anchor="start" x="52.5" y="-469.5" font-family="Helvetica,sans-Serif" font-size="10.00" fill="grey">#board</text>
</g>
<!-- Node4 -->
<g id="Node000004" class="node">
<title>Node4</title>
<g id="a_Node000004"><a xlink:title=" ">
<polygon fill="white" stroke="none" points="208.12,-350 116.88,-350 116.88,-298 208.12,-298 208.12,-350"/>
<text xml:space="preserve" text-anchor="start" x="120.88" y="-336.5" font-family="Helvetica,sans-Serif" font-size="10.00">std::vector&lt; char &gt;</text>
<text xml:space="preserve" text-anchor="start" x="129.25" y="-320.5" font-family="Helvetica,sans-Serif" font-size="10.00">+</text>
<text xml:space="preserve" text-anchor="start" x="147.62" y="-320.5" font-family="Helvetica,sans-Serif" font-size="10.00">elements</text>
<text xml:space="preserve" text-anchor="start" x="161" y="-304.5" font-family="Helvetica,sans-Serif" font-size="10.00"> </text>
<polygon fill="#666666" stroke="#666666" points="116.88,-332 116.88,-332 208.12,-332 208.12,-332 116.88,-332"/>
<polygon fill="#666666" stroke="#666666" points="116.88,-316 116.88,-316 145.62,-316 145.62,-316 116.88,-316"/>
<polygon fill="#666666" stroke="#666666" points="145.62,-316 145.62,-316 208.12,-316 208.12,-316 145.62,-316"/>
<polygon fill="none" stroke="#666666" points="116.88,-298 116.88,-350 208.12,-350 208.12,-298 116.88,-298"/>
</a>
</g>
</g>
<!-- Node4&#45;&gt;Node1 -->
<g id="edge3_Node000001_Node000004" class="edge">
<title>Node4&#45;&gt;Node1</title>
<g id="a_edge3_Node000001_Node000004"><a xlink:title=" ">
<path fill="none" stroke="#63b8ff" d="M159.72,-298.45C155.74,-263.36 148.26,-197.3 142.3,-144.7"/>
<polygon fill="none" stroke="#63b8ff" points="142.31,-144.81 137.66,-139.3 140.96,-132.89 145.61,-138.4 142.31,-144.81"/>
</a>
</g>
<text xml:space="preserve" text-anchor="start" x="149.26" y="-171.5" font-family="Helvetica,sans-Serif" font-size="10.00" fill="grey">+even</text>
<text xml:space="preserve" text-anchor="start" x="149.26" y="-155.5" font-family="Helvetica,sans-Serif" font-size="10.00" fill="grey">+odd</text>
</g>
</g>
</svg>
