<?xml version="1.0" encoding="UTF-8" standalone="no"?>
<!DOCTYPE svg PUBLIC "-//W3C//DTD SVG 1.1//EN"
 "http://www.w3.org/Graphics/SVG/1.1/DTD/svg11.dtd">
<!-- Generated by graphviz version 14.0.2 (20251019.1705)
 -->
<!-- Title: UI::setup_players Pages: 1 -->
<svg width="244pt" height="116pt"
 viewBox="0.00 0.00 244.00 116.00" xmlns="http://www.w3.org/2000/svg" xmlns:xlink="http://www.w3.org/1999/xlink">
<g id="graph0" class="graph" transform="scale(1 1) rotate(0) translate(4 112)">
<title>UI::setup_players</title>
<!-- Node1 -->
<g id="Node000001" class="node">
<title>Node1</title>
<g id="a_Node000001"><a xlink:title="Set up players for the game.">
<polygon fill="#999999" stroke="#666666" points="93.25,-70 0,-70 0,-50 93.25,-50 93.25,-70"/>
<text xml:space="preserve" text-anchor="middle" x="46.62" y="-56.5" font-family="Helvetica,sans-Serif" font-size="10.00">UI::setup_players</text>
</a>
</g>
</g>
<!-- Node2 -->
<g id="Node000002" class="node">
<title>Node2</title>
<g id="a_Node000002"><a xlink:href="$class_u_i.html#a94561e0bb4bbcbe5ff71ca6d751922df" xlink:title="Create a player object based on input name, symbol, and type.">
<polygon fill="white" stroke="#666666" points="228.12,-108 137.12,-108 137.12,-88 228.12,-88 228.12,-108"/>
<text xml:space="preserve" text-anchor="middle" x="182.62" y="-94.5" font-family="Helvetica,sans-Serif" font-size="10.00">UI::create_player</text>
</a>
</g>
</g>
<!-- Node1&#45;&gt;Node2 -->
<g id="edge1_Node000001_Node000002" class="edge">
<title>Node1&#45;&gt;Node2</title>
<g id="a_edge1_Node000001_Node000002"><a xlink:title=" ">
<path fill="none" stroke="#63b8ff" d="M84.6,-70.48C99.83,-74.8 117.67,-79.86 133.87,-84.46"/>
<polygon fill="#63b8ff" stroke="#63b8ff" points="132.74,-87.78 143.32,-87.14 134.65,-81.04 132.74,-87.78"/>
</a>
</g>
</g>
<!-- Node3 -->
<g id="Node000003" class="node">
<title>Node3</title>
<g id="a_Node000003"><a xlink:href="$class_u_i.html#a7b1603de1f73fbb4006e4f00a27c44da" xlink:title="Ask the user for the player&#39;s name.">
<polygon fill="white" stroke="#666666" points="236,-70 129.25,-70 129.25,-50 236,-50 236,-70"/>
<text xml:space="preserve" text-anchor="middle" x="182.62" y="-56.5" font-family="Helvetica,sans-Serif" font-size="10.00">UI::get_player_name</text>
</a>
</g>
</g>
<!-- Node1&#45;&gt;Node3 -->
<g id="edge2_Node000001_Node000003" class="edge">
<title>Node1&#45;&gt;Node3</title>
<g id="a_edge2_Node000001_Node000003"><a xlink:title=" ">
<path fill="none" stroke="#63b8ff" d="M93.74,-60C101.46,-60 109.59,-60 117.66,-60"/>
<polygon fill="#63b8ff" stroke="#63b8ff" points="117.47,-63.5 127.47,-60 117.47,-56.5 117.47,-63.5"/>
</a>
</g>
</g>
<!-- Node4 -->
<g id="Node000004" class="node">
<title>Node4</title>
<g id="a_Node000004"><a xlink:href="$class_u_i.html#ac3d45fea2bbcaa0372d8e5101e116ca1" xlink:title="Ask the user to choose the player type from a list.">
<polygon fill="white" stroke="#666666" points="233.38,-32 131.88,-32 131.88,0 233.38,0 233.38,-32"/>
<text xml:space="preserve" text-anchor="start" x="139.88" y="-18.5" font-family="Helvetica,sans-Serif" font-size="10.00">UI::get_player_type</text>
<text xml:space="preserve" text-anchor="middle" x="182.62" y="-6.5" font-family="Helvetica,sans-Serif" font-size="10.00">_choice</text>
</a>
</g>
</g>
<!-- Node1&#45;&gt;Node4 -->
<g id="edge3_Node000001_Node000004" class="edge">
<title>Node1&#45;&gt;Node4</title>
<g id="a_edge3_Node000001_Node000004"><a xlink:title=" ">
<path fill="none" stroke="#63b8ff" d="M79.38,-49.57C91.78,-45.5 106.42,-40.69 120.7,-36.01"/>
<polygon fill="#63b8ff" stroke="#63b8ff" points="121.65,-39.38 130.06,-32.93 119.47,-32.73 121.65,-39.38"/>
</a>
</g>
</g>
</g>
</svg>
