<?xml version="1.0" encoding="UTF-8" standalone="no"?>
<!DOCTYPE svg PUBLIC "-//W3C//DTD SVG 1.1//EN"
 "http://www.w3.org/Graphics/SVG/1.1/DTD/svg11.dtd">
<!-- Generated by graphviz version 14.0.2 (20251019.1705)
 -->
<!-- Title: FOUR_Board::game_is_over Pages: 1 -->
<svg width="582pt" height="47pt"
 viewBox="0.00 0.00 582.00 47.00" xmlns="http://www.w3.org/2000/svg" xmlns:xlink="http://www.w3.org/1999/xlink">
<g id="graph0" class="graph" transform="scale(1 1) rotate(0) translate(4 43)">
<title>FOUR_Board::game_is_over</title>
<!-- Node1 -->
<g id="Node000001" class="node">
<title>Node1</title>
<g id="a_Node000001"><a xlink:title="Checks whether the game ended (win or draw).">
<polygon fill="#999999" stroke="#666666" points="142,-20 0,-20 0,0 142,0 142,-20"/>
<text xml:space="preserve" text-anchor="middle" x="71" y="-6.5" font-family="Helvetica,sans-Serif" font-size="10.00">FOUR_Board::game_is_over</text>
</a>
</g>
</g>
<!-- Node2 -->
<g id="Node000002" class="node">
<title>Node2</title>
<g id="a_Node000002"><a xlink:href="$class_f_o_u_r___board.html#a85921de4da3bb3dba9dae1a21fc4bc5f" xlink:title="Checks if the game resulted in a draw.">
<polygon fill="white" stroke="#666666" points="293,-39 178,-39 178,-19 293,-19 293,-39"/>
<text xml:space="preserve" text-anchor="middle" x="235.5" y="-25.5" font-family="Helvetica,sans-Serif" font-size="10.00">FOUR_Board::is_draw</text>
</a>
</g>
</g>
<!-- Node1&#45;&gt;Node2 -->
<g id="edge1_Node000001_Node000002" class="edge">
<title>Node1&#45;&gt;Node2</title>
<g id="a_edge1_Node000001_Node000002"><a xlink:title=" ">
<path fill="none" stroke="#63b8ff" d="M142.33,-18.22C150.38,-19.16 158.57,-20.12 166.58,-21.06"/>
<polygon fill="#63b8ff" stroke="#63b8ff" points="165.91,-24.5 176.25,-22.19 166.73,-17.55 165.91,-24.5"/>
</a>
</g>
</g>
<!-- Node3 -->
<g id="Node000003" class="node">
<title>Node3</title>
<g id="a_Node000003"><a xlink:href="$class_f_o_u_r___board.html#a3dac17aae77d0128b2a75fd002eed42b" xlink:title="Checks if the given player has won.">
<polygon fill="white" stroke="#666666" points="438,-20 329,-20 329,0 438,0 438,-20"/>
<text xml:space="preserve" text-anchor="middle" x="383.5" y="-6.5" font-family="Helvetica,sans-Serif" font-size="10.00">FOUR_Board::is_win</text>
</a>
</g>
</g>
<!-- Node1&#45;&gt;Node3 -->
<g id="edge4_Node000001_Node000003" class="edge">
<title>Node1&#45;&gt;Node3</title>
<g id="a_edge4_Node000001_Node000003"><a xlink:title=" ">
<path fill="none" stroke="#63b8ff" d="M142.46,-10C195.02,-10 266.3,-10 317.5,-10"/>
<polygon fill="#63b8ff" stroke="#63b8ff" points="317.24,-13.5 327.24,-10 317.24,-6.5 317.24,-13.5"/>
</a>
</g>
</g>
<!-- Node2&#45;&gt;Node3 -->
<g id="edge2_Node000002_Node000003" class="edge">
<title>Node2&#45;&gt;Node3</title>
<g id="a_edge2_Node000002_Node000003"><a xlink:title=" ">
<path fill="none" stroke="#63b8ff" d="M293.37,-21.6C301.31,-20.57 309.52,-19.5 317.6,-18.45"/>
<polygon fill="#63b8ff" stroke="#63b8ff" points="317.93,-21.93 327.4,-17.17 317.03,-14.99 317.93,-21.93"/>
</a>
</g>
</g>
<!-- Node4 -->
<g id="Node000004" class="node">
<title>Node4</title>
<g id="a_Node000004"><a xlink:href="$class_player.html#af56f0bf98c0423a3a75b0848607d03a4" xlink:title="Get the player&#39;s symbol.">
<polygon fill="white" stroke="#666666" points="574,-20 474,-20 474,0 574,0 574,-20"/>
<text xml:space="preserve" text-anchor="middle" x="524" y="-6.5" font-family="Helvetica,sans-Serif" font-size="10.00">Player::get_symbol</text>
</a>
</g>
</g>
<!-- Node3&#45;&gt;Node4 -->
<g id="edge3_Node000003_Node000004" class="edge">
<title>Node3&#45;&gt;Node4</title>
<g id="a_edge3_Node000003_Node000004"><a xlink:title=" ">
<path fill="none" stroke="#63b8ff" d="M438.44,-10C446.39,-10 454.63,-10 462.7,-10"/>
<polygon fill="#63b8ff" stroke="#63b8ff" points="462.43,-13.5 472.43,-10 462.43,-6.5 462.43,-13.5"/>
</a>
</g>
</g>
</g>
</svg>
