<?xml version="1.0" encoding="UTF-8" standalone="no"?>
<!DOCTYPE svg PUBLIC "-//W3C//DTD SVG 1.1//EN"
 "http://www.w3.org/Graphics/SVG/1.1/DTD/svg11.dtd">
<!-- Generated by graphviz version 14.0.2 (20251019.1705)
 -->
<!-- Title: PyramidXO_Board::is_win Pages: 1 -->
<svg width="475pt" height="53pt"
 viewBox="0.00 0.00 475.00 53.00" xmlns="http://www.w3.org/2000/svg" xmlns:xlink="http://www.w3.org/1999/xlink">
<g id="graph0" class="graph" transform="scale(1 1) rotate(0) translate(4 49)">
<title>PyramidXO_Board::is_win</title>
<!-- Node1 -->
<g id="Node000001" class="node">
<title>Node1</title>
<g id="a_Node000001"><a xlink:title="Checks if the player has won.">
<polygon fill="#999999" stroke="#666666" points="466.5,-39 335.75,-39 335.75,-19 466.5,-19 466.5,-39"/>
<text xml:space="preserve" text-anchor="middle" x="401.12" y="-25.5" font-family="Helvetica,sans-Serif" font-size="10.00">PyramidXO_Board::is_win</text>
</a>
</g>
</g>
<!-- Node2 -->
<g id="Node000002" class="node">
<title>Node2</title>
<g id="a_Node000002"><a xlink:href="class_pyramid_x_o___board.html#a450eb010988099eaa06a498cb0b57368" target="_top" xlink:title="Checks whether the game is finished (win or draw).">
<polygon fill="white" stroke="#666666" points="127,-45 0,-45 0,-13 127,-13 127,-45"/>
<text xml:space="preserve" text-anchor="start" x="8" y="-31.5" font-family="Helvetica,sans-Serif" font-size="10.00">PyramidXO_Board::game</text>
<text xml:space="preserve" text-anchor="middle" x="63.5" y="-19.5" font-family="Helvetica,sans-Serif" font-size="10.00">_is_over</text>
</a>
</g>
</g>
<!-- Node1&#45;&gt;Node2 -->
<g id="edge1_Node000001_Node000002" class="edge">
<title>Node1&#45;&gt;Node2</title>
<g id="a_edge1_Node000001_Node000002"><a xlink:title=" ">
<path fill="none" stroke="#63b8ff" d="M324.21,-29C264.77,-29 183.1,-29 127.31,-29"/>
<polygon fill="#63b8ff" stroke="#63b8ff" points="323.9,-32.5 333.9,-29 323.9,-25.5 323.9,-32.5"/>
</a>
</g>
</g>
<!-- Node3 -->
<g id="Node000003" class="node">
<title>Node3</title>
<g id="a_Node000003"><a xlink:href="class_pyramid_x_o___board.html#a9d70812d00ba8e60e41e00a723f3a5f8" target="_top" xlink:title="Checks if the game ended in a draw.">
<polygon fill="white" stroke="#666666" points="299.75,-20 163,-20 163,0 299.75,0 299.75,-20"/>
<text xml:space="preserve" text-anchor="middle" x="231.38" y="-6.5" font-family="Helvetica,sans-Serif" font-size="10.00">PyramidXO_Board::is_draw</text>
</a>
</g>
</g>
<!-- Node1&#45;&gt;Node3 -->
<g id="edge2_Node000001_Node000003" class="edge">
<title>Node1&#45;&gt;Node3</title>
<g id="a_edge2_Node000001_Node000003"><a xlink:title=" ">
<path fill="none" stroke="#63b8ff" d="M324.07,-20.39C316.08,-19.48 308,-18.57 300.11,-17.67"/>
<polygon fill="#63b8ff" stroke="#63b8ff" points="323.43,-23.84 333.76,-21.48 324.22,-16.88 323.43,-23.84"/>
</a>
</g>
</g>
<!-- Node3&#45;&gt;Node2 -->
<g id="edge3_Node000003_Node000002" class="edge">
<title>Node3&#45;&gt;Node2</title>
<g id="a_edge3_Node000003_Node000002"><a xlink:title=" ">
<path fill="none" stroke="#63b8ff" d="M151.52,-19.03C143.41,-19.96 135.26,-20.9 127.36,-21.8"/>
<polygon fill="#63b8ff" stroke="#63b8ff" points="151.87,-22.52 161.4,-17.9 151.07,-15.56 151.87,-22.52"/>
</a>
</g>
</g>
</g>
</svg>
