<?xml version="1.0" encoding="UTF-8" standalone="no"?>
<!DOCTYPE svg PUBLIC "-//W3C//DTD SVG 1.1//EN"
 "http://www.w3.org/Graphics/SVG/1.1/DTD/svg11.dtd">
<!-- Generated by graphviz version 14.0.2 (20251019.1705)
 -->
<!-- Title: XO_NUM_Board::update_board Pages: 1 -->
<svg width="265pt" height="104pt"
 viewBox="0.00 0.00 265.00 104.00" xmlns="http://www.w3.org/2000/svg" xmlns:xlink="http://www.w3.org/1999/xlink">
<g id="graph0" class="graph" transform="scale(1 1) rotate(0) translate(4 100)">
<title>XO_NUM_Board::update_board</title>
<!-- Node1 -->
<g id="Node000001" class="node">
<title>Node1</title>
<g id="a_Node000001"><a xlink:title="Applies or undoes a move.">
<polygon fill="#999999" stroke="#666666" points="124.75,-64 0,-64 0,-32 124.75,-32 124.75,-64"/>
<text xml:space="preserve" text-anchor="start" x="8" y="-50.5" font-family="Helvetica,sans-Serif" font-size="10.00">XO_NUM_Board::update</text>
<text xml:space="preserve" text-anchor="middle" x="62.38" y="-38.5" font-family="Helvetica,sans-Serif" font-size="10.00">_board</text>
</a>
</g>
</g>
<!-- Node2 -->
<g id="Node000002" class="node">
<title>Node2</title>
<g id="a_Node000002"><a xlink:href="$class_move.html#a595bf740852c05a1cb425ef2640fd4ff" xlink:title="Get the move symbol.">
<polygon fill="white" stroke="#666666" points="257,-96 160.75,-96 160.75,-76 257,-76 257,-96"/>
<text xml:space="preserve" text-anchor="middle" x="208.88" y="-82.5" font-family="Helvetica,sans-Serif" font-size="10.00">Move::get_symbol</text>
</a>
</g>
</g>
<!-- Node1&#45;&gt;Node2 -->
<g id="edge1_Node000001_Node000002" class="edge">
<title>Node1&#45;&gt;Node2</title>
<g id="a_edge1_Node000001_Node000002"><a xlink:title=" ">
<path fill="none" stroke="#63b8ff" d="M125.08,-64.23C135.78,-67.04 146.8,-69.94 157.16,-72.66"/>
<polygon fill="#63b8ff" stroke="#63b8ff" points="156.09,-76 166.65,-75.16 157.87,-69.23 156.09,-76"/>
</a>
</g>
</g>
<!-- Node3 -->
<g id="Node000003" class="node">
<title>Node3</title>
<g id="a_Node000003"><a xlink:href="$class_move.html#a9d4f543a81e361f872d37bcfb64d5b55" xlink:title="Get row index.">
<polygon fill="white" stroke="#666666" points="243.88,-58 173.88,-58 173.88,-38 243.88,-38 243.88,-58"/>
<text xml:space="preserve" text-anchor="middle" x="208.88" y="-44.5" font-family="Helvetica,sans-Serif" font-size="10.00">Move::get_x</text>
</a>
</g>
</g>
<!-- Node1&#45;&gt;Node3 -->
<g id="edge2_Node000001_Node000003" class="edge">
<title>Node1&#45;&gt;Node3</title>
<g id="a_edge2_Node000001_Node000003"><a xlink:title=" ">
<path fill="none" stroke="#63b8ff" d="M125.08,-48C137.5,-48 150.35,-48 162.12,-48"/>
<polygon fill="#63b8ff" stroke="#63b8ff" points="161.95,-51.5 171.95,-48 161.95,-44.5 161.95,-51.5"/>
</a>
</g>
</g>
<!-- Node4 -->
<g id="Node000004" class="node">
<title>Node4</title>
<g id="a_Node000004"><a xlink:href="$class_move.html#a96469802a55c9083a1e93c7edec8a00c" xlink:title="Get column index.">
<polygon fill="white" stroke="#666666" points="243.88,-20 173.88,-20 173.88,0 243.88,0 243.88,-20"/>
<text xml:space="preserve" text-anchor="middle" x="208.88" y="-6.5" font-family="Helvetica,sans-Serif" font-size="10.00">Move::get_y</text>
</a>
</g>
</g>
<!-- Node1&#45;&gt;Node4 -->
<g id="edge3_Node000001_Node000004" class="edge">
<title>Node1&#45;&gt;Node4</title>
<g id="a_edge3_Node000001_Node000004"><a xlink:title=" ">
<path fill="none" stroke="#63b8ff" d="M125.08,-31.77C137.63,-28.47 150.62,-25.06 162.49,-21.94"/>
<polygon fill="#63b8ff" stroke="#63b8ff" points="163.22,-25.36 172,-19.43 161.44,-18.59 163.22,-25.36"/>
</a>
</g>
</g>
</g>
</svg>
