<?xml version="1.0" encoding="UTF-8" standalone="no"?>
<!DOCTYPE svg PUBLIC "-//W3C//DTD SVG 1.1//EN"
 "http://www.w3.org/Graphics/SVG/1.1/DTD/svg11.dtd">
<!-- Generated by graphviz version 14.0.2 (20251019.1705)
 -->
<!-- Title: Large_XO_UI Pages: 1 -->
<svg width="512pt" height="1842pt"
 viewBox="0.00 0.00 512.00 1842.00" xmlns="http://www.w3.org/2000/svg" xmlns:xlink="http://www.w3.org/1999/xlink">
<g id="graph0" class="graph" transform="scale(1 1) rotate(0) translate(4 1838)">
<title>Large_XO_UI</title>
<!-- Node1 -->
<g id="Node000001" class="node">
<title>Node1</title>
<g id="a_Node000001"><a xlink:title="UI for 5x5 Tic&#45;Tac&#45;Toe (human and AI interaction).">
<polygon fill="#999999" stroke="none" points="304.5,-100 188.25,-100 188.25,0 304.5,0 304.5,-100"/>
<text xml:space="preserve" text-anchor="start" x="216.75" y="-86.5" font-family="Helvetica,sans-Serif" font-size="10.00">Large_XO_UI</text>
<text xml:space="preserve" text-anchor="start" x="244.88" y="-70.5" font-family="Helvetica,sans-Serif" font-size="10.00"> </text>
<text xml:space="preserve" text-anchor="start" x="192.25" y="-54.5" font-family="Helvetica,sans-Serif" font-size="10.00">+</text>
<text xml:space="preserve" text-anchor="start" x="202.25" y="-54.5" font-family="Helvetica,sans-Serif" font-size="10.00">Large_XO_UI()</text>
<text xml:space="preserve" text-anchor="start" x="192.25" y="-38.5" font-family="Helvetica,sans-Serif" font-size="10.00">+</text>
<text xml:space="preserve" text-anchor="start" x="202.25" y="-38.5" font-family="Helvetica,sans-Serif" font-size="10.00">~Large_XO_UI()</text>
<text xml:space="preserve" text-anchor="start" x="192.25" y="-22.5" font-family="Helvetica,sans-Serif" font-size="10.00">+</text>
<text xml:space="preserve" text-anchor="start" x="202.25" y="-22.5" font-family="Helvetica,sans-Serif" font-size="10.00">get_move()</text>
<text xml:space="preserve" text-anchor="start" x="192.25" y="-6.5" font-family="Helvetica,sans-Serif" font-size="10.00">+</text>
<text xml:space="preserve" text-anchor="start" x="202.25" y="-6.5" font-family="Helvetica,sans-Serif" font-size="10.00">display_board_matrix()</text>
<polygon fill="#666666" stroke="#666666" points="188.25,-82 188.25,-82 304.5,-82 304.5,-82 188.25,-82"/>
<polygon fill="#666666" stroke="#666666" points="188.25,-66 188.25,-66 304.5,-66 304.5,-66 188.25,-66"/>
<polygon fill="none" stroke="#666666" points="188.25,0 188.25,-100 304.5,-100 304.5,0 188.25,0"/>
</a>
</g>
</g>
<!-- Node2 -->
<g id="Node000002" class="node">
<title>Node2</title>
<g id="a_Node000002"><a xlink:href="$class_custom___u_i.html" xlink:title=" ">
<polygon fill="white" stroke="none" points="156.75,-374 30,-374 30,-242 156.75,-242 156.75,-374"/>
<text xml:space="preserve" text-anchor="start" x="49.88" y="-360.5" font-family="Helvetica,sans-Serif" font-size="10.00">Custom_UI&lt; char &gt;</text>
<text xml:space="preserve" text-anchor="start" x="91.88" y="-344.5" font-family="Helvetica,sans-Serif" font-size="10.00"> </text>
<text xml:space="preserve" text-anchor="start" x="34" y="-328.5" font-family="Helvetica,sans-Serif" font-size="10.00">+</text>
<text xml:space="preserve" text-anchor="start" x="44" y="-328.5" font-family="Helvetica,sans-Serif" font-size="10.00">Custom_UI()</text>
<text xml:space="preserve" text-anchor="start" x="34" y="-312.5" font-family="Helvetica,sans-Serif" font-size="10.00">+</text>
<text xml:space="preserve" text-anchor="start" x="44" y="-312.5" font-family="Helvetica,sans-Serif" font-size="10.00">display_message()</text>
<text xml:space="preserve" text-anchor="start" x="34" y="-296.5" font-family="Helvetica,sans-Serif" font-size="10.00">+</text>
<text xml:space="preserve" text-anchor="start" x="44" y="-296.5" font-family="Helvetica,sans-Serif" font-size="10.00">create_player()</text>
<text xml:space="preserve" text-anchor="start" x="34" y="-280.5" font-family="Helvetica,sans-Serif" font-size="10.00">+</text>
<text xml:space="preserve" text-anchor="start" x="44" y="-280.5" font-family="Helvetica,sans-Serif" font-size="10.00">setup_players()</text>
<text xml:space="preserve" text-anchor="start" x="34" y="-264.5" font-family="Helvetica,sans-Serif" font-size="10.00">+</text>
<text xml:space="preserve" text-anchor="start" x="44" y="-264.5" font-family="Helvetica,sans-Serif" font-size="10.00">display_board_matrix()</text>
<text xml:space="preserve" text-anchor="start" x="34.38" y="-248.5" font-family="Helvetica,sans-Serif" font-size="10.00">#</text>
<text xml:space="preserve" text-anchor="start" x="44" y="-248.5" font-family="Helvetica,sans-Serif" font-size="10.00">get_player_type_choice()</text>
<polygon fill="#666666" stroke="#666666" points="30,-356 30,-356 156.75,-356 156.75,-356 30,-356"/>
<polygon fill="#666666" stroke="#666666" points="30,-340 30,-340 156.75,-340 156.75,-340 30,-340"/>
<polygon fill="none" stroke="#666666" points="30,-242 30,-374 156.75,-374 156.75,-242 30,-242"/>
</a>
</g>
</g>
<!-- Node2&#45;&gt;Node1 -->
<g id="edge1_Node000001_Node000002" class="edge">
<title>Node2&#45;&gt;Node1</title>
<g id="a_edge1_Node000001_Node000002"><a xlink:title=" ">
<path fill="none" stroke="#63b8ff" d="M138.04,-232.27C163.58,-189.53 194.89,-137.14 217.27,-99.69"/>
<polygon fill="none" stroke="#63b8ff" points="135.08,-230.39 132.96,-240.77 141.09,-233.98 135.08,-230.39"/>
</a>
</g>
</g>
<!-- Node3 -->
<g id="Node000003" class="node">
<title>Node3</title>
<g id="a_Node000003"><a xlink:href="$class_u_i.html" xlink:title=" ">
<polygon fill="white" stroke="none" points="126.75,-760 0,-760 0,-580 126.75,-580 126.75,-760"/>
<text xml:space="preserve" text-anchor="start" x="39.75" y="-746.5" font-family="Helvetica,sans-Serif" font-size="10.00">UI&lt; char &gt;</text>
<text xml:space="preserve" text-anchor="start" x="4.38" y="-730.5" font-family="Helvetica,sans-Serif" font-size="10.00">#</text>
<text xml:space="preserve" text-anchor="start" x="14" y="-730.5" font-family="Helvetica,sans-Serif" font-size="10.00">cell_width</text>
<text xml:space="preserve" text-anchor="start" x="4" y="-714.5" font-family="Helvetica,sans-Serif" font-size="10.00">+</text>
<text xml:space="preserve" text-anchor="start" x="14" y="-714.5" font-family="Helvetica,sans-Serif" font-size="10.00">UI()</text>
<text xml:space="preserve" text-anchor="start" x="4" y="-698.5" font-family="Helvetica,sans-Serif" font-size="10.00">+</text>
<text xml:space="preserve" text-anchor="start" x="14" y="-698.5" font-family="Helvetica,sans-Serif" font-size="10.00">~UI()</text>
<text xml:space="preserve" text-anchor="start" x="4" y="-682.5" font-family="Helvetica,sans-Serif" font-size="10.00">+</text>
<text xml:space="preserve" text-anchor="start" x="14" y="-682.5" font-family="Helvetica,sans-Serif" font-size="10.00">display_message()</text>
<text xml:space="preserve" text-anchor="start" x="4" y="-666.5" font-family="Helvetica,sans-Serif" font-size="10.00">+</text>
<text xml:space="preserve" text-anchor="start" x="14" y="-666.5" font-family="Helvetica,sans-Serif" font-size="10.00">get_move()</text>
<text xml:space="preserve" text-anchor="start" x="4" y="-650.5" font-family="Helvetica,sans-Serif" font-size="10.00">+</text>
<text xml:space="preserve" text-anchor="start" x="14" y="-650.5" font-family="Helvetica,sans-Serif" font-size="10.00">setup_players()</text>
<text xml:space="preserve" text-anchor="start" x="4" y="-634.5" font-family="Helvetica,sans-Serif" font-size="10.00">+</text>
<text xml:space="preserve" text-anchor="start" x="14" y="-634.5" font-family="Helvetica,sans-Serif" font-size="10.00">create_player()</text>
<text xml:space="preserve" text-anchor="start" x="4" y="-618.5" font-family="Helvetica,sans-Serif" font-size="10.00">+</text>
<text xml:space="preserve" text-anchor="start" x="14" y="-618.5" font-family="Helvetica,sans-Serif" font-size="10.00">display_board_matrix()</text>
<text xml:space="preserve" text-anchor="start" x="4.38" y="-602.5" font-family="Helvetica,sans-Serif" font-size="10.00">#</text>
<text xml:space="preserve" text-anchor="start" x="14" y="-602.5" font-family="Helvetica,sans-Serif" font-size="10.00">get_player_name()</text>
<text xml:space="preserve" text-anchor="start" x="4.38" y="-586.5" font-family="Helvetica,sans-Serif" font-size="10.00">#</text>
<text xml:space="preserve" text-anchor="start" x="14" y="-586.5" font-family="Helvetica,sans-Serif" font-size="10.00">get_player_type_choice()</text>
<polygon fill="#666666" stroke="#666666" points="0,-742 0,-742 126.75,-742 126.75,-742 0,-742"/>
<polygon fill="#666666" stroke="#666666" points="0,-726 0,-726 12,-726 12,-726 0,-726"/>
<polygon fill="#666666" stroke="#666666" points="12,-726 12,-726 126.75,-726 126.75,-726 12,-726"/>
<polygon fill="none" stroke="#666666" points="0,-580 0,-760 126.75,-760 126.75,-580 0,-580"/>
</a>
</g>
</g>
<!-- Node3&#45;&gt;Node2 -->
<g id="edge2_Node000002_Node000003" class="edge">
<title>Node3&#45;&gt;Node2</title>
<g id="a_edge2_Node000002_Node000003"><a xlink:title=" ">
<path fill="none" stroke="#63b8ff" d="M71.74,-568.57C76.94,-506.26 83.46,-428.01 87.97,-373.81"/>
<polygon fill="none" stroke="#63b8ff" points="68.26,-568.25 70.92,-578.5 75.23,-568.83 68.26,-568.25"/>
</a>
</g>
</g>
<!-- Node4 -->
<g id="Node000004" class="node">
<title>Node4</title>
<g id="a_Node000004"><a xlink:href="$class_large___x_o___a_i.html" xlink:title="AI for 5x5 Tic&#45;Tac&#45;Toe using Minimax + Neural Network heuristic.">
<polygon fill="white" stroke="none" points="287.62,-366 205.12,-366 205.12,-250 287.62,-250 287.62,-366"/>
<text xml:space="preserve" text-anchor="start" x="217.12" y="-352.5" font-family="Helvetica,sans-Serif" font-size="10.00">Large_XO_AI</text>
<text xml:space="preserve" text-anchor="start" x="210.62" y="-336.5" font-family="Helvetica,sans-Serif" font-size="10.00">&#45;</text>
<text xml:space="preserve" text-anchor="start" x="219.12" y="-336.5" font-family="Helvetica,sans-Serif" font-size="10.00">aiSymbol</text>
<text xml:space="preserve" text-anchor="start" x="210.62" y="-320.5" font-family="Helvetica,sans-Serif" font-size="10.00">&#45;</text>
<text xml:space="preserve" text-anchor="start" x="219.12" y="-320.5" font-family="Helvetica,sans-Serif" font-size="10.00">oppSymbol</text>
<text xml:space="preserve" text-anchor="start" x="209.12" y="-304.5" font-family="Helvetica,sans-Serif" font-size="10.00">+</text>
<text xml:space="preserve" text-anchor="start" x="219.12" y="-304.5" font-family="Helvetica,sans-Serif" font-size="10.00">Large_XO_AI()</text>
<text xml:space="preserve" text-anchor="start" x="209.12" y="-288.5" font-family="Helvetica,sans-Serif" font-size="10.00">+</text>
<text xml:space="preserve" text-anchor="start" x="219.12" y="-288.5" font-family="Helvetica,sans-Serif" font-size="10.00">evaluate()</text>
<text xml:space="preserve" text-anchor="start" x="209.12" y="-272.5" font-family="Helvetica,sans-Serif" font-size="10.00">+</text>
<text xml:space="preserve" text-anchor="start" x="219.12" y="-272.5" font-family="Helvetica,sans-Serif" font-size="10.00">minimax()</text>
<text xml:space="preserve" text-anchor="start" x="209.12" y="-256.5" font-family="Helvetica,sans-Serif" font-size="10.00">+</text>
<text xml:space="preserve" text-anchor="start" x="219.12" y="-256.5" font-family="Helvetica,sans-Serif" font-size="10.00">bestMove()</text>
<polygon fill="#666666" stroke="#666666" points="205.12,-348 205.12,-348 287.62,-348 287.62,-348 205.12,-348"/>
<polygon fill="#666666" stroke="#666666" points="205.12,-316 205.12,-316 217.12,-316 217.12,-316 205.12,-316"/>
<polygon fill="#666666" stroke="#666666" points="217.12,-316 217.12,-316 287.62,-316 287.62,-316 217.12,-316"/>
<polygon fill="none" stroke="#666666" points="205.12,-250 205.12,-366 287.62,-366 287.62,-250 205.12,-250"/>
</a>
</g>
</g>
<!-- Node4&#45;&gt;Node1 -->
<g id="edge3_Node000001_Node000004" class="edge">
<title>Node4&#45;&gt;Node1</title>
<g id="a_edge3_Node000001_Node000004"><a xlink:title=" ">
<path fill="none" stroke="#63b8ff" d="M246.38,-250.19C246.38,-209.42 246.38,-154.54 246.38,-112.71"/>
<polygon fill="none" stroke="#63b8ff" points="246.38,-112.8 242.38,-106.8 246.38,-100.8 250.38,-106.8 246.38,-112.8"/>
</a>
</g>
<text xml:space="preserve" text-anchor="start" x="249.38" y="-123.5" font-family="Helvetica,sans-Serif" font-size="10.00" fill="grey">&#45;AI</text>
</g>
<!-- Node5 -->
<g id="Node000005" class="node">
<title>Node5</title>
<g id="a_Node000005"><a xlink:href="$class_a_i.html" xlink:title="AI Interface for all implementations in games.">
<polygon fill="white" stroke="none" points="211.75,-720 145,-720 145,-620 211.75,-620 211.75,-720"/>
<text xml:space="preserve" text-anchor="start" x="173.5" y="-706.5" font-family="Helvetica,sans-Serif" font-size="10.00">AI</text>
<text xml:space="preserve" text-anchor="start" x="176.88" y="-690.5" font-family="Helvetica,sans-Serif" font-size="10.00"> </text>
<text xml:space="preserve" text-anchor="start" x="149" y="-674.5" font-family="Helvetica,sans-Serif" font-size="10.00">+</text>
<text xml:space="preserve" text-anchor="start" x="159" y="-674.5" font-family="Helvetica,sans-Serif" font-size="10.00">evaluate()</text>
<text xml:space="preserve" text-anchor="start" x="149" y="-658.5" font-family="Helvetica,sans-Serif" font-size="10.00">+</text>
<text xml:space="preserve" text-anchor="start" x="159" y="-658.5" font-family="Helvetica,sans-Serif" font-size="10.00">minimax()</text>
<text xml:space="preserve" text-anchor="start" x="149" y="-642.5" font-family="Helvetica,sans-Serif" font-size="10.00">+</text>
<text xml:space="preserve" text-anchor="start" x="159" y="-642.5" font-family="Helvetica,sans-Serif" font-size="10.00">bestMove()</text>
<text xml:space="preserve" text-anchor="start" x="149" y="-626.5" font-family="Helvetica,sans-Serif" font-size="10.00">+</text>
<text xml:space="preserve" text-anchor="start" x="159" y="-626.5" font-family="Helvetica,sans-Serif" font-size="10.00">~AI()</text>
<polygon fill="#666666" stroke="#666666" points="145,-702 145,-702 211.75,-702 211.75,-702 145,-702"/>
<polygon fill="#666666" stroke="#666666" points="145,-686 145,-686 211.75,-686 211.75,-686 145,-686"/>
<polygon fill="none" stroke="#666666" points="145,-620 145,-720 211.75,-720 211.75,-620 145,-620"/>
</a>
</g>
</g>
<!-- Node5&#45;&gt;Node4 -->
<g id="edge4_Node000004_Node000005" class="edge">
<title>Node5&#45;&gt;Node4</title>
<g id="a_edge4_Node000004_Node000005"><a xlink:title=" ">
<path fill="none" stroke="#63b8ff" d="M189.75,-608.76C202.54,-541.09 223.13,-432.08 235.64,-365.83"/>
<polygon fill="none" stroke="#63b8ff" points="186.31,-608.11 187.9,-618.59 193.19,-609.41 186.31,-608.11"/>
</a>
</g>
</g>
<!-- Node6 -->
<g id="Node000006" class="node">
<title>Node6</title>
<g id="a_Node000006"><a xlink:title=" ">
<polygon fill="white" stroke="none" points="386.62,-696 230.12,-696 230.12,-644 386.62,-644 386.62,-696"/>
<text xml:space="preserve" text-anchor="start" x="234.12" y="-682.5" font-family="Helvetica,sans-Serif" font-size="10.00">std::shared_ptr&lt; NeuralNetwork &gt;</text>
<text xml:space="preserve" text-anchor="start" x="306.88" y="-666.5" font-family="Helvetica,sans-Serif" font-size="10.00"> </text>
<text xml:space="preserve" text-anchor="start" x="256.19" y="-650.5" font-family="Helvetica,sans-Serif" font-size="10.00">+</text>
<text xml:space="preserve" text-anchor="start" x="288.25" y="-650.5" font-family="Helvetica,sans-Serif" font-size="10.00">operator&#45;&gt;()</text>
<polygon fill="#666666" stroke="#666666" points="230.12,-678 230.12,-678 386.62,-678 386.62,-678 230.12,-678"/>
<polygon fill="#666666" stroke="#666666" points="230.12,-662 230.12,-662 386.62,-662 386.62,-662 230.12,-662"/>
<polygon fill="none" stroke="#666666" points="230.12,-644 230.12,-696 386.62,-696 386.62,-644 230.12,-644"/>
</a>
</g>
</g>
<!-- Node6&#45;&gt;Node4 -->
<g id="edge5_Node000004_Node000006" class="edge">
<title>Node6&#45;&gt;Node4</title>
<g id="a_edge5_Node000004_Node000006"><a xlink:title=" ">
<path fill="none" stroke="#63b8ff" d="M304.11,-644.26C294.81,-590.25 272.41,-460.17 258.4,-378.84"/>
<polygon fill="none" stroke="#63b8ff" points="258.38,-378.69 253.42,-373.46 256.34,-366.86 261.3,-372.1 258.38,-378.69"/>
</a>
</g>
<text xml:space="preserve" text-anchor="start" x="285.93" y="-517.5" font-family="Helvetica,sans-Serif" font-size="10.00" fill="grey">&#45;NN</text>
<text xml:space="preserve" text-anchor="start" x="285.93" y="-501.5" font-family="Helvetica,sans-Serif" font-size="10.00" fill="grey">&#45;NNO</text>
<text xml:space="preserve" text-anchor="start" x="285.93" y="-485.5" font-family="Helvetica,sans-Serif" font-size="10.00" fill="grey">&#45;NNX</text>
</g>
<!-- Node7 -->
<g id="Node000007" class="node">
<title>Node7</title>
<g id="a_Node000007"><a xlink:href="$class_neural_network.html" xlink:title="Fully connected feedforward neural network using updated Layer class.">
<polygon fill="white" stroke="none" points="353,-994 263.75,-994 263.75,-846 353,-846 353,-994"/>
<text xml:space="preserve" text-anchor="start" x="275.75" y="-980.5" font-family="Helvetica,sans-Serif" font-size="10.00">NeuralNetwork</text>
<text xml:space="preserve" text-anchor="start" x="306.88" y="-964.5" font-family="Helvetica,sans-Serif" font-size="10.00"> </text>
<text xml:space="preserve" text-anchor="start" x="267.75" y="-948.5" font-family="Helvetica,sans-Serif" font-size="10.00">+</text>
<text xml:space="preserve" text-anchor="start" x="277.75" y="-948.5" font-family="Helvetica,sans-Serif" font-size="10.00">NeuralNetwork()</text>
<text xml:space="preserve" text-anchor="start" x="267.75" y="-932.5" font-family="Helvetica,sans-Serif" font-size="10.00">+</text>
<text xml:space="preserve" text-anchor="start" x="277.75" y="-932.5" font-family="Helvetica,sans-Serif" font-size="10.00">forward()</text>
<text xml:space="preserve" text-anchor="start" x="267.75" y="-916.5" font-family="Helvetica,sans-Serif" font-size="10.00">+</text>
<text xml:space="preserve" text-anchor="start" x="277.75" y="-916.5" font-family="Helvetica,sans-Serif" font-size="10.00">backward()</text>
<text xml:space="preserve" text-anchor="start" x="267.75" y="-900.5" font-family="Helvetica,sans-Serif" font-size="10.00">+</text>
<text xml:space="preserve" text-anchor="start" x="277.75" y="-900.5" font-family="Helvetica,sans-Serif" font-size="10.00">train()</text>
<text xml:space="preserve" text-anchor="start" x="267.75" y="-884.5" font-family="Helvetica,sans-Serif" font-size="10.00">+</text>
<text xml:space="preserve" text-anchor="start" x="277.75" y="-884.5" font-family="Helvetica,sans-Serif" font-size="10.00">predict()</text>
<text xml:space="preserve" text-anchor="start" x="267.75" y="-868.5" font-family="Helvetica,sans-Serif" font-size="10.00">+</text>
<text xml:space="preserve" text-anchor="start" x="277.75" y="-868.5" font-family="Helvetica,sans-Serif" font-size="10.00">save()</text>
<text xml:space="preserve" text-anchor="start" x="267.75" y="-852.5" font-family="Helvetica,sans-Serif" font-size="10.00">+</text>
<text xml:space="preserve" text-anchor="start" x="277.75" y="-852.5" font-family="Helvetica,sans-Serif" font-size="10.00">load()</text>
<polygon fill="#666666" stroke="#666666" points="263.75,-976 263.75,-976 353,-976 353,-976 263.75,-976"/>
<polygon fill="#666666" stroke="#666666" points="263.75,-960 263.75,-960 353,-960 353,-960 263.75,-960"/>
<polygon fill="none" stroke="#666666" points="263.75,-846 263.75,-994 353,-994 353,-846 263.75,-846"/>
</a>
</g>
</g>
<!-- Node7&#45;&gt;Node6 -->
<g id="edge6_Node000006_Node000007" class="edge">
<title>Node7&#45;&gt;Node6</title>
<g id="a_edge6_Node000006_Node000007"><a xlink:title=" ">
<path fill="none" stroke="#63b8ff" d="M308.38,-846.27C308.38,-801.15 308.38,-745.04 308.38,-708.65"/>
<polygon fill="none" stroke="#63b8ff" points="308.38,-708.63 304.38,-702.63 308.38,-696.63 312.38,-702.63 308.38,-708.63"/>
</a>
</g>
<text xml:space="preserve" text-anchor="start" x="311.38" y="-815.5" font-family="Helvetica,sans-Serif" font-size="10.00" fill="grey">+ptr</text>
</g>
<!-- Node8 -->
<g id="Node000008" class="node">
<title>Node8</title>
<g id="a_Node000008"><a xlink:title=" ">
<polygon fill="white" stroke="none" points="356.62,-1100 260.12,-1100 260.12,-1048 356.62,-1048 356.62,-1100"/>
<text xml:space="preserve" text-anchor="start" x="264.12" y="-1086.5" font-family="Helvetica,sans-Serif" font-size="10.00">std::vector&lt; Layer &gt;</text>
<text xml:space="preserve" text-anchor="start" x="306.88" y="-1070.5" font-family="Helvetica,sans-Serif" font-size="10.00"> </text>
<text xml:space="preserve" text-anchor="start" x="306.88" y="-1054.5" font-family="Helvetica,sans-Serif" font-size="10.00"> </text>
<polygon fill="#666666" stroke="#666666" points="260.12,-1082 260.12,-1082 356.62,-1082 356.62,-1082 260.12,-1082"/>
<polygon fill="#666666" stroke="#666666" points="260.12,-1066 260.12,-1066 356.62,-1066 356.62,-1066 260.12,-1066"/>
<polygon fill="none" stroke="#666666" points="260.12,-1048 260.12,-1100 356.62,-1100 356.62,-1048 260.12,-1048"/>
</a>
</g>
</g>
<!-- Node8&#45;&gt;Node7 -->
<g id="edge7_Node000007_Node000008" class="edge">
<title>Node8&#45;&gt;Node7</title>
<g id="a_edge7_Node000007_Node000008"><a xlink:title=" ">
<path fill="none" stroke="#63b8ff" d="M308.38,-1048.24C308.38,-1036.54 308.38,-1021.81 308.38,-1006.56"/>
<polygon fill="none" stroke="#63b8ff" points="308.38,-1006.58 304.38,-1000.58 308.38,-994.58 312.38,-1000.58 308.38,-1006.58"/>
</a>
</g>
<text xml:space="preserve" text-anchor="start" x="311.38" y="-1017.5" font-family="Helvetica,sans-Serif" font-size="10.00" fill="grey">&#45;layers_</text>
</g>
<!-- Node9 -->
<g id="Node000009" class="node">
<title>Node9</title>
<g id="a_Node000009"><a xlink:href="$class_layer.html" xlink:title="Fully&#45;connected neural network layer (refactored for SOLID &amp; encapsulation).">
<polygon fill="white" stroke="none" points="352.62,-1366 264.12,-1366 264.12,-1154 352.62,-1154 352.62,-1366"/>
<text xml:space="preserve" text-anchor="start" x="296.38" y="-1352.5" font-family="Helvetica,sans-Serif" font-size="10.00">Layer</text>
<text xml:space="preserve" text-anchor="start" x="269.62" y="-1336.5" font-family="Helvetica,sans-Serif" font-size="10.00">&#45;</text>
<text xml:space="preserve" text-anchor="start" x="278.12" y="-1336.5" font-family="Helvetica,sans-Serif" font-size="10.00">inputSize_</text>
<text xml:space="preserve" text-anchor="start" x="269.62" y="-1320.5" font-family="Helvetica,sans-Serif" font-size="10.00">&#45;</text>
<text xml:space="preserve" text-anchor="start" x="278.12" y="-1320.5" font-family="Helvetica,sans-Serif" font-size="10.00">neuronCount_</text>
<text xml:space="preserve" text-anchor="start" x="269.62" y="-1304.5" font-family="Helvetica,sans-Serif" font-size="10.00">&#45;</text>
<text xml:space="preserve" text-anchor="start" x="278.12" y="-1304.5" font-family="Helvetica,sans-Serif" font-size="10.00">activationFunc_</text>
<text xml:space="preserve" text-anchor="start" x="269.62" y="-1288.5" font-family="Helvetica,sans-Serif" font-size="10.00">&#45;</text>
<text xml:space="preserve" text-anchor="start" x="278.12" y="-1288.5" font-family="Helvetica,sans-Serif" font-size="10.00">activationDeriv_</text>
<text xml:space="preserve" text-anchor="start" x="268.12" y="-1272.5" font-family="Helvetica,sans-Serif" font-size="10.00">+</text>
<text xml:space="preserve" text-anchor="start" x="278.12" y="-1272.5" font-family="Helvetica,sans-Serif" font-size="10.00">Layer()</text>
<text xml:space="preserve" text-anchor="start" x="268.12" y="-1256.5" font-family="Helvetica,sans-Serif" font-size="10.00">+</text>
<text xml:space="preserve" text-anchor="start" x="278.12" y="-1256.5" font-family="Helvetica,sans-Serif" font-size="10.00">forward()</text>
<text xml:space="preserve" text-anchor="start" x="268.12" y="-1240.5" font-family="Helvetica,sans-Serif" font-size="10.00">+</text>
<text xml:space="preserve" text-anchor="start" x="278.12" y="-1240.5" font-family="Helvetica,sans-Serif" font-size="10.00">backward()</text>
<text xml:space="preserve" text-anchor="start" x="268.12" y="-1224.5" font-family="Helvetica,sans-Serif" font-size="10.00">+</text>
<text xml:space="preserve" text-anchor="start" x="278.12" y="-1224.5" font-family="Helvetica,sans-Serif" font-size="10.00">output()</text>
<text xml:space="preserve" text-anchor="start" x="268.12" y="-1208.5" font-family="Helvetica,sans-Serif" font-size="10.00">+</text>
<text xml:space="preserve" text-anchor="start" x="278.12" y="-1208.5" font-family="Helvetica,sans-Serif" font-size="10.00">save()</text>
<text xml:space="preserve" text-anchor="start" x="268.12" y="-1192.5" font-family="Helvetica,sans-Serif" font-size="10.00">+</text>
<text xml:space="preserve" text-anchor="start" x="278.12" y="-1192.5" font-family="Helvetica,sans-Serif" font-size="10.00">load()</text>
<text xml:space="preserve" text-anchor="start" x="268.12" y="-1176.5" font-family="Helvetica,sans-Serif" font-size="10.00">+</text>
<text xml:space="preserve" text-anchor="start" x="278.12" y="-1176.5" font-family="Helvetica,sans-Serif" font-size="10.00">inputs()</text>
<text xml:space="preserve" text-anchor="start" x="268.12" y="-1160.5" font-family="Helvetica,sans-Serif" font-size="10.00">+</text>
<text xml:space="preserve" text-anchor="start" x="278.12" y="-1160.5" font-family="Helvetica,sans-Serif" font-size="10.00">neurons()</text>
<polygon fill="#666666" stroke="#666666" points="264.12,-1348 264.12,-1348 352.62,-1348 352.62,-1348 264.12,-1348"/>
<polygon fill="#666666" stroke="#666666" points="264.12,-1284 264.12,-1284 276.12,-1284 276.12,-1284 264.12,-1284"/>
<polygon fill="#666666" stroke="#666666" points="276.12,-1284 276.12,-1284 352.62,-1284 352.62,-1284 276.12,-1284"/>
<polygon fill="none" stroke="#666666" points="264.12,-1154 264.12,-1366 352.62,-1366 352.62,-1154 264.12,-1154"/>
</a>
</g>
</g>
<!-- Node9&#45;&gt;Node8 -->
<g id="edge8_Node000008_Node000009" class="edge">
<title>Node9&#45;&gt;Node8</title>
<g id="a_edge8_Node000008_Node000009"><a xlink:title=" ">
<path fill="none" stroke="#63b8ff" d="M308.38,-1154.1C308.38,-1139.32 308.38,-1125 308.38,-1112.7"/>
<polygon fill="none" stroke="#63b8ff" points="308.38,-1112.64 304.38,-1106.64 308.38,-1100.64 312.38,-1106.64 308.38,-1112.64"/>
</a>
</g>
<text xml:space="preserve" text-anchor="start" x="311.38" y="-1123.5" font-family="Helvetica,sans-Serif" font-size="10.00" fill="grey">+elements</text>
</g>
<!-- Node10 -->
<g id="Node000010" class="node">
<title>Node10</title>
<g id="a_Node000010"><a xlink:href="$class_matrix.html" xlink:title=" ">
<polygon fill="white" stroke="none" points="349.12,-1728 267.62,-1728 267.62,-1484 349.12,-1484 349.12,-1728"/>
<text xml:space="preserve" text-anchor="start" x="271.62" y="-1714.5" font-family="Helvetica,sans-Serif" font-size="10.00">Matrix&lt; double &gt;</text>
<text xml:space="preserve" text-anchor="start" x="275.31" y="-1698.5" font-family="Helvetica,sans-Serif" font-size="10.00">+</text>
<text xml:space="preserve" text-anchor="start" x="289" y="-1698.5" font-family="Helvetica,sans-Serif" font-size="10.00">rows</text>
<text xml:space="preserve" text-anchor="start" x="275.31" y="-1682.5" font-family="Helvetica,sans-Serif" font-size="10.00">+</text>
<text xml:space="preserve" text-anchor="start" x="289" y="-1682.5" font-family="Helvetica,sans-Serif" font-size="10.00">cols</text>
<text xml:space="preserve" text-anchor="start" x="275.31" y="-1666.5" font-family="Helvetica,sans-Serif" font-size="10.00">+</text>
<text xml:space="preserve" text-anchor="start" x="289" y="-1666.5" font-family="Helvetica,sans-Serif" font-size="10.00">Matrix()</text>
<text xml:space="preserve" text-anchor="start" x="275.31" y="-1650.5" font-family="Helvetica,sans-Serif" font-size="10.00">+</text>
<text xml:space="preserve" text-anchor="start" x="289" y="-1650.5" font-family="Helvetica,sans-Serif" font-size="10.00">operator()()</text>
<text xml:space="preserve" text-anchor="start" x="275.31" y="-1634.5" font-family="Helvetica,sans-Serif" font-size="10.00">+</text>
<text xml:space="preserve" text-anchor="start" x="289" y="-1634.5" font-family="Helvetica,sans-Serif" font-size="10.00">dataPtr()</text>
<text xml:space="preserve" text-anchor="start" x="275.31" y="-1618.5" font-family="Helvetica,sans-Serif" font-size="10.00">+</text>
<text xml:space="preserve" text-anchor="start" x="289" y="-1618.5" font-family="Helvetica,sans-Serif" font-size="10.00">apply()</text>
<text xml:space="preserve" text-anchor="start" x="275.31" y="-1602.5" font-family="Helvetica,sans-Serif" font-size="10.00">+</text>
<text xml:space="preserve" text-anchor="start" x="289" y="-1602.5" font-family="Helvetica,sans-Serif" font-size="10.00">hadamard()</text>
<text xml:space="preserve" text-anchor="start" x="275.31" y="-1586.5" font-family="Helvetica,sans-Serif" font-size="10.00">+</text>
<text xml:space="preserve" text-anchor="start" x="289" y="-1586.5" font-family="Helvetica,sans-Serif" font-size="10.00">operator+()</text>
<text xml:space="preserve" text-anchor="start" x="275.31" y="-1570.5" font-family="Helvetica,sans-Serif" font-size="10.00">+</text>
<text xml:space="preserve" text-anchor="start" x="289" y="-1570.5" font-family="Helvetica,sans-Serif" font-size="10.00">operator&#45;()</text>
<text xml:space="preserve" text-anchor="start" x="275.31" y="-1554.5" font-family="Helvetica,sans-Serif" font-size="10.00">+</text>
<text xml:space="preserve" text-anchor="start" x="289" y="-1554.5" font-family="Helvetica,sans-Serif" font-size="10.00">operator*()</text>
<text xml:space="preserve" text-anchor="start" x="275.31" y="-1538.5" font-family="Helvetica,sans-Serif" font-size="10.00">+</text>
<text xml:space="preserve" text-anchor="start" x="289" y="-1538.5" font-family="Helvetica,sans-Serif" font-size="10.00">transpose()</text>
<text xml:space="preserve" text-anchor="start" x="275.31" y="-1522.5" font-family="Helvetica,sans-Serif" font-size="10.00">+</text>
<text xml:space="preserve" text-anchor="start" x="289" y="-1522.5" font-family="Helvetica,sans-Serif" font-size="10.00">resize()</text>
<text xml:space="preserve" text-anchor="start" x="275.31" y="-1506.5" font-family="Helvetica,sans-Serif" font-size="10.00">+</text>
<text xml:space="preserve" text-anchor="start" x="289" y="-1506.5" font-family="Helvetica,sans-Serif" font-size="10.00">random()</text>
<text xml:space="preserve" text-anchor="start" x="275.31" y="-1490.5" font-family="Helvetica,sans-Serif" font-size="10.00">+</text>
<text xml:space="preserve" text-anchor="start" x="289" y="-1490.5" font-family="Helvetica,sans-Serif" font-size="10.00">multiply()</text>
<polygon fill="#666666" stroke="#666666" points="267.62,-1710 267.62,-1710 349.12,-1710 349.12,-1710 267.62,-1710"/>
<polygon fill="#666666" stroke="#666666" points="267.62,-1678 267.62,-1678 287,-1678 287,-1678 267.62,-1678"/>
<polygon fill="#666666" stroke="#666666" points="287,-1678 287,-1678 349.12,-1678 349.12,-1678 287,-1678"/>
<polygon fill="none" stroke="#666666" points="267.62,-1484 267.62,-1728 349.12,-1728 349.12,-1484 267.62,-1484"/>
</a>
</g>
</g>
<!-- Node10&#45;&gt;Node9 -->
<g id="edge9_Node000009_Node000010" class="edge">
<title>Node10&#45;&gt;Node9</title>
<g id="a_edge9_Node000009_Node000010"><a xlink:title=" ">
<path fill="none" stroke="#63b8ff" d="M308.38,-1484.2C308.38,-1449.96 308.38,-1412.73 308.38,-1378.67"/>
<polygon fill="none" stroke="#63b8ff" points="308.38,-1378.69 304.38,-1372.69 308.38,-1366.69 312.38,-1372.69 308.38,-1378.69"/>
</a>
</g>
<text xml:space="preserve" text-anchor="start" x="311.38" y="-1453.5" font-family="Helvetica,sans-Serif" font-size="10.00" fill="grey">&#45;A_</text>
<text xml:space="preserve" text-anchor="start" x="311.38" y="-1437.5" font-family="Helvetica,sans-Serif" font-size="10.00" fill="grey">&#45;B_</text>
<text xml:space="preserve" text-anchor="start" x="311.38" y="-1421.5" font-family="Helvetica,sans-Serif" font-size="10.00" fill="grey">&#45;W_</text>
<text xml:space="preserve" text-anchor="start" x="311.38" y="-1405.5" font-family="Helvetica,sans-Serif" font-size="10.00" fill="grey">&#45;Z_</text>
<text xml:space="preserve" text-anchor="start" x="311.38" y="-1389.5" font-family="Helvetica,sans-Serif" font-size="10.00" fill="grey">&#45;lastInput_</text>
</g>
<!-- Node11 -->
<g id="Node000011" class="node">
<title>Node11</title>
<g id="a_Node000011"><a xlink:title=" ">
<polygon fill="white" stroke="none" points="358.88,-1834 257.88,-1834 257.88,-1782 358.88,-1782 358.88,-1834"/>
<text xml:space="preserve" text-anchor="start" x="261.88" y="-1820.5" font-family="Helvetica,sans-Serif" font-size="10.00">std::vector&lt; double &gt;</text>
<text xml:space="preserve" text-anchor="start" x="272.69" y="-1804.5" font-family="Helvetica,sans-Serif" font-size="10.00">+</text>
<text xml:space="preserve" text-anchor="start" x="293.5" y="-1804.5" font-family="Helvetica,sans-Serif" font-size="10.00">elements</text>
<text xml:space="preserve" text-anchor="start" x="306.88" y="-1788.5" font-family="Helvetica,sans-Serif" font-size="10.00"> </text>
<polygon fill="#666666" stroke="#666666" points="257.88,-1816 257.88,-1816 358.88,-1816 358.88,-1816 257.88,-1816"/>
<polygon fill="#666666" stroke="#666666" points="257.88,-1800 257.88,-1800 291.5,-1800 291.5,-1800 257.88,-1800"/>
<polygon fill="#666666" stroke="#666666" points="291.5,-1800 291.5,-1800 358.88,-1800 358.88,-1800 291.5,-1800"/>
<polygon fill="none" stroke="#666666" points="257.88,-1782 257.88,-1834 358.88,-1834 358.88,-1782 257.88,-1782"/>
</a>
</g>
</g>
<!-- Node11&#45;&gt;Node10 -->
<g id="edge10_Node000010_Node000011" class="edge">
<title>Node11&#45;&gt;Node10</title>
<g id="a_edge10_Node000010_Node000011"><a xlink:title=" ">
<path fill="none" stroke="#63b8ff" d="M308.38,-1782.07C308.38,-1770.67 308.38,-1756.2 308.38,-1740.48"/>
<polygon fill="none" stroke="#63b8ff" points="308.38,-1740.54 304.38,-1734.54 308.38,-1728.54 312.38,-1734.54 308.38,-1740.54"/>
</a>
</g>
<text xml:space="preserve" text-anchor="start" x="311.38" y="-1751.5" font-family="Helvetica,sans-Serif" font-size="10.00" fill="grey">+data</text>
</g>
<!-- Node12 -->
<g id="Node000012" class="node">
<title>Node12</title>
<g id="a_Node000012"><a xlink:href="$class_large___x_o___board.html" xlink:title="5x5 Tic&#45;Tac&#45;Toe board implementation using a bitboard for fast evaluation.">
<polygon fill="white" stroke="none" points="418.5,-462 320.25,-462 320.25,-154 418.5,-154 418.5,-462"/>
<text xml:space="preserve" text-anchor="start" x="332.25" y="-448.5" font-family="Helvetica,sans-Serif" font-size="10.00">Large_XO_Board</text>
<text xml:space="preserve" text-anchor="start" x="325.75" y="-432.5" font-family="Helvetica,sans-Serif" font-size="10.00">&#45;</text>
<text xml:space="preserve" text-anchor="start" x="334.25" y="-432.5" font-family="Helvetica,sans-Serif" font-size="10.00">boardX</text>
<text xml:space="preserve" text-anchor="start" x="325.75" y="-416.5" font-family="Helvetica,sans-Serif" font-size="10.00">&#45;</text>
<text xml:space="preserve" text-anchor="start" x="334.25" y="-416.5" font-family="Helvetica,sans-Serif" font-size="10.00">boardO</text>
<text xml:space="preserve" text-anchor="start" x="325.75" y="-400.5" font-family="Helvetica,sans-Serif" font-size="10.00">&#45;</text>
<text xml:space="preserve" text-anchor="start" x="334.25" y="-400.5" font-family="Helvetica,sans-Serif" font-size="10.00">boardXO</text>
<text xml:space="preserve" text-anchor="start" x="325.75" y="-384.5" font-family="Helvetica,sans-Serif" font-size="10.00">&#45;</text>
<text xml:space="preserve" text-anchor="start" x="334.25" y="-384.5" font-family="Helvetica,sans-Serif" font-size="10.00">emptyCell</text>
<text xml:space="preserve" text-anchor="start" x="325.75" y="-368.5" font-family="Helvetica,sans-Serif" font-size="10.00">&#45;</text>
<text xml:space="preserve" text-anchor="start" x="334.25" y="-368.5" font-family="Helvetica,sans-Serif" font-size="10.00">nMoves</text>
<text xml:space="preserve" text-anchor="start" x="325.75" y="-352.5" font-family="Helvetica,sans-Serif" font-size="10.00">&#45;</text>
<text xml:space="preserve" text-anchor="start" x="334.25" y="-352.5" font-family="Helvetica,sans-Serif" font-size="10.00">win3Masks</text>
<text xml:space="preserve" text-anchor="start" x="324.25" y="-336.5" font-family="Helvetica,sans-Serif" font-size="10.00">+</text>
<text xml:space="preserve" text-anchor="start" x="334.25" y="-336.5" font-family="Helvetica,sans-Serif" font-size="10.00">Large_XO_Board()</text>
<text xml:space="preserve" text-anchor="start" x="324.25" y="-320.5" font-family="Helvetica,sans-Serif" font-size="10.00">+</text>
<text xml:space="preserve" text-anchor="start" x="334.25" y="-320.5" font-family="Helvetica,sans-Serif" font-size="10.00">getCell()</text>
<text xml:space="preserve" text-anchor="start" x="324.25" y="-304.5" font-family="Helvetica,sans-Serif" font-size="10.00">+</text>
<text xml:space="preserve" text-anchor="start" x="334.25" y="-304.5" font-family="Helvetica,sans-Serif" font-size="10.00">getEmptyCell()</text>
<text xml:space="preserve" text-anchor="start" x="324.25" y="-288.5" font-family="Helvetica,sans-Serif" font-size="10.00">+</text>
<text xml:space="preserve" text-anchor="start" x="334.25" y="-288.5" font-family="Helvetica,sans-Serif" font-size="10.00">getMoveCount()</text>
<text xml:space="preserve" text-anchor="start" x="324.25" y="-272.5" font-family="Helvetica,sans-Serif" font-size="10.00">+</text>
<text xml:space="preserve" text-anchor="start" x="334.25" y="-272.5" font-family="Helvetica,sans-Serif" font-size="10.00">updateCell()</text>
<text xml:space="preserve" text-anchor="start" x="324.25" y="-256.5" font-family="Helvetica,sans-Serif" font-size="10.00">+</text>
<text xml:space="preserve" text-anchor="start" x="334.25" y="-256.5" font-family="Helvetica,sans-Serif" font-size="10.00">update_board()</text>
<text xml:space="preserve" text-anchor="start" x="324.25" y="-240.5" font-family="Helvetica,sans-Serif" font-size="10.00">+</text>
<text xml:space="preserve" text-anchor="start" x="334.25" y="-240.5" font-family="Helvetica,sans-Serif" font-size="10.00">game_is_over()</text>
<text xml:space="preserve" text-anchor="start" x="324.25" y="-224.5" font-family="Helvetica,sans-Serif" font-size="10.00">+</text>
<text xml:space="preserve" text-anchor="start" x="334.25" y="-224.5" font-family="Helvetica,sans-Serif" font-size="10.00">is_win()</text>
<text xml:space="preserve" text-anchor="start" x="324.25" y="-208.5" font-family="Helvetica,sans-Serif" font-size="10.00">+</text>
<text xml:space="preserve" text-anchor="start" x="334.25" y="-208.5" font-family="Helvetica,sans-Serif" font-size="10.00">is_lose()</text>
<text xml:space="preserve" text-anchor="start" x="324.25" y="-192.5" font-family="Helvetica,sans-Serif" font-size="10.00">+</text>
<text xml:space="preserve" text-anchor="start" x="334.25" y="-192.5" font-family="Helvetica,sans-Serif" font-size="10.00">is_draw()</text>
<text xml:space="preserve" text-anchor="start" x="324.25" y="-176.5" font-family="Helvetica,sans-Serif" font-size="10.00">+</text>
<text xml:space="preserve" text-anchor="start" x="334.25" y="-176.5" font-family="Helvetica,sans-Serif" font-size="10.00">countWin()</text>
<text xml:space="preserve" text-anchor="start" x="324.25" y="-160.5" font-family="Helvetica,sans-Serif" font-size="10.00">+</text>
<text xml:space="preserve" text-anchor="start" x="334.25" y="-160.5" font-family="Helvetica,sans-Serif" font-size="10.00">encode()</text>
<polygon fill="#666666" stroke="#666666" points="320.25,-444 320.25,-444 418.5,-444 418.5,-444 320.25,-444"/>
<polygon fill="#666666" stroke="#666666" points="320.25,-348 320.25,-348 332.25,-348 332.25,-348 320.25,-348"/>
<polygon fill="#666666" stroke="#666666" points="332.25,-348 332.25,-348 418.5,-348 418.5,-348 332.25,-348"/>
<polygon fill="none" stroke="#666666" points="320.25,-154 320.25,-462 418.5,-462 418.5,-154 320.25,-154"/>
</a>
</g>
</g>
<!-- Node12&#45;&gt;Node1 -->
<g id="edge11_Node000001_Node000012" class="edge">
<title>Node12&#45;&gt;Node1</title>
<g id="a_edge11_Node000001_Node000012"><a xlink:title=" ">
<path fill="none" stroke="#63b8ff" d="M320.39,-204.08C312.38,-187.33 304.16,-170.18 296.38,-154 289.74,-140.22 282.58,-125.41 275.8,-111.45"/>
<polygon fill="none" stroke="#63b8ff" points="275.86,-111.56 269.64,-107.91 270.62,-100.77 276.84,-104.42 275.86,-111.56"/>
</a>
</g>
<text xml:space="preserve" text-anchor="start" x="289.85" y="-123.5" font-family="Helvetica,sans-Serif" font-size="10.00" fill="grey">&#45;board</text>
</g>
<!-- Node13 -->
<g id="Node000013" class="node">
<title>Node13</title>
<g id="a_Node000013"><a xlink:href="$class_board.html" xlink:title=" ">
<polygon fill="white" stroke="none" points="503.88,-792 404.88,-792 404.88,-548 503.88,-548 503.88,-792"/>
<text xml:space="preserve" text-anchor="start" x="423.25" y="-778.5" font-family="Helvetica,sans-Serif" font-size="10.00">Board&lt; char &gt;</text>
<text xml:space="preserve" text-anchor="start" x="409.25" y="-762.5" font-family="Helvetica,sans-Serif" font-size="10.00">#</text>
<text xml:space="preserve" text-anchor="start" x="418.88" y="-762.5" font-family="Helvetica,sans-Serif" font-size="10.00">rows</text>
<text xml:space="preserve" text-anchor="start" x="409.25" y="-746.5" font-family="Helvetica,sans-Serif" font-size="10.00">#</text>
<text xml:space="preserve" text-anchor="start" x="418.88" y="-746.5" font-family="Helvetica,sans-Serif" font-size="10.00">columns</text>
<text xml:space="preserve" text-anchor="start" x="409.25" y="-730.5" font-family="Helvetica,sans-Serif" font-size="10.00">#</text>
<text xml:space="preserve" text-anchor="start" x="418.88" y="-730.5" font-family="Helvetica,sans-Serif" font-size="10.00">n_moves</text>
<text xml:space="preserve" text-anchor="start" x="408.88" y="-714.5" font-family="Helvetica,sans-Serif" font-size="10.00">+</text>
<text xml:space="preserve" text-anchor="start" x="418.88" y="-714.5" font-family="Helvetica,sans-Serif" font-size="10.00">Board()</text>
<text xml:space="preserve" text-anchor="start" x="408.88" y="-698.5" font-family="Helvetica,sans-Serif" font-size="10.00">+</text>
<text xml:space="preserve" text-anchor="start" x="418.88" y="-698.5" font-family="Helvetica,sans-Serif" font-size="10.00">~Board()</text>
<text xml:space="preserve" text-anchor="start" x="408.88" y="-682.5" font-family="Helvetica,sans-Serif" font-size="10.00">+</text>
<text xml:space="preserve" text-anchor="start" x="418.88" y="-682.5" font-family="Helvetica,sans-Serif" font-size="10.00">update_board()</text>
<text xml:space="preserve" text-anchor="start" x="408.88" y="-666.5" font-family="Helvetica,sans-Serif" font-size="10.00">+</text>
<text xml:space="preserve" text-anchor="start" x="418.88" y="-666.5" font-family="Helvetica,sans-Serif" font-size="10.00">is_win()</text>
<text xml:space="preserve" text-anchor="start" x="408.88" y="-650.5" font-family="Helvetica,sans-Serif" font-size="10.00">+</text>
<text xml:space="preserve" text-anchor="start" x="418.88" y="-650.5" font-family="Helvetica,sans-Serif" font-size="10.00">is_lose()</text>
<text xml:space="preserve" text-anchor="start" x="408.88" y="-634.5" font-family="Helvetica,sans-Serif" font-size="10.00">+</text>
<text xml:space="preserve" text-anchor="start" x="418.88" y="-634.5" font-family="Helvetica,sans-Serif" font-size="10.00">is_draw()</text>
<text xml:space="preserve" text-anchor="start" x="408.88" y="-618.5" font-family="Helvetica,sans-Serif" font-size="10.00">+</text>
<text xml:space="preserve" text-anchor="start" x="418.88" y="-618.5" font-family="Helvetica,sans-Serif" font-size="10.00">game_is_over()</text>
<text xml:space="preserve" text-anchor="start" x="408.88" y="-602.5" font-family="Helvetica,sans-Serif" font-size="10.00">+</text>
<text xml:space="preserve" text-anchor="start" x="418.88" y="-602.5" font-family="Helvetica,sans-Serif" font-size="10.00">get_board_matrix()</text>
<text xml:space="preserve" text-anchor="start" x="408.88" y="-586.5" font-family="Helvetica,sans-Serif" font-size="10.00">+</text>
<text xml:space="preserve" text-anchor="start" x="418.88" y="-586.5" font-family="Helvetica,sans-Serif" font-size="10.00">get_rows()</text>
<text xml:space="preserve" text-anchor="start" x="408.88" y="-570.5" font-family="Helvetica,sans-Serif" font-size="10.00">+</text>
<text xml:space="preserve" text-anchor="start" x="418.88" y="-570.5" font-family="Helvetica,sans-Serif" font-size="10.00">get_columns()</text>
<text xml:space="preserve" text-anchor="start" x="408.88" y="-554.5" font-family="Helvetica,sans-Serif" font-size="10.00">+</text>
<text xml:space="preserve" text-anchor="start" x="418.88" y="-554.5" font-family="Helvetica,sans-Serif" font-size="10.00">get_cell()</text>
<polygon fill="#666666" stroke="#666666" points="404.88,-774 404.88,-774 503.88,-774 503.88,-774 404.88,-774"/>
<polygon fill="#666666" stroke="#666666" points="404.88,-726 404.88,-726 416.88,-726 416.88,-726 404.88,-726"/>
<polygon fill="#666666" stroke="#666666" points="416.88,-726 416.88,-726 503.88,-726 503.88,-726 416.88,-726"/>
<polygon fill="none" stroke="#666666" points="404.88,-548 404.88,-792 503.88,-792 503.88,-548 404.88,-548"/>
</a>
</g>
</g>
<!-- Node13&#45;&gt;Node12 -->
<g id="edge12_Node000012_Node000013" class="edge">
<title>Node13&#45;&gt;Node12</title>
<g id="a_edge12_Node000012_Node000013"><a xlink:title=" ">
<path fill="none" stroke="#63b8ff" d="M423.21,-536.99C417.44,-512.55 411.37,-486.84 405.46,-461.84"/>
<polygon fill="none" stroke="#63b8ff" points="419.78,-537.72 425.49,-546.65 426.6,-536.11 419.78,-537.72"/>
</a>
</g>
</g>
<!-- Node14 -->
<g id="Node000014" class="node">
<title>Node14</title>
<g id="a_Node000014"><a xlink:title=" ">
<polygon fill="white" stroke="none" points="499.62,-952 409.12,-952 409.12,-888 499.62,-888 499.62,-952"/>
<text xml:space="preserve" text-anchor="start" x="413.12" y="-938.5" font-family="Helvetica,sans-Serif" font-size="10.00">std::vector&lt; vector</text>
<text xml:space="preserve" text-anchor="start" x="431.5" y="-926.5" font-family="Helvetica,sans-Serif" font-size="10.00">&lt; char &gt; &gt;</text>
<text xml:space="preserve" text-anchor="start" x="421.31" y="-910.5" font-family="Helvetica,sans-Serif" font-size="10.00">+</text>
<text xml:space="preserve" text-anchor="start" x="439.5" y="-910.5" font-family="Helvetica,sans-Serif" font-size="10.00">elements</text>
<text xml:space="preserve" text-anchor="start" x="452.88" y="-894.5" font-family="Helvetica,sans-Serif" font-size="10.00"> </text>
<polygon fill="#666666" stroke="#666666" points="409.12,-922 409.12,-922 499.62,-922 499.62,-922 409.12,-922"/>
<polygon fill="#666666" stroke="#666666" points="409.12,-906 409.12,-906 437.5,-906 437.5,-906 409.12,-906"/>
<polygon fill="#666666" stroke="#666666" points="437.5,-906 437.5,-906 499.62,-906 499.62,-906 437.5,-906"/>
<polygon fill="none" stroke="#666666" points="409.12,-888 409.12,-952 499.62,-952 499.62,-888 409.12,-888"/>
</a>
</g>
</g>
<!-- Node14&#45;&gt;Node13 -->
<g id="edge13_Node000013_Node000014" class="edge">
<title>Node14&#45;&gt;Node13</title>
<g id="a_edge13_Node000013_Node000014"><a xlink:title=" ">
<path fill="none" stroke="#63b8ff" d="M454.38,-888.09C454.38,-866.52 454.38,-836.1 454.38,-804.83"/>
<polygon fill="none" stroke="#63b8ff" points="454.38,-804.79 450.38,-798.79 454.38,-792.79 458.38,-798.79 454.38,-804.79"/>
</a>
</g>
<text xml:space="preserve" text-anchor="start" x="457.38" y="-815.5" font-family="Helvetica,sans-Serif" font-size="10.00" fill="grey">#board</text>
</g>
</g>
</svg>
