<?xml version="1.0" encoding="UTF-8" standalone="no"?>
<!DOCTYPE svg PUBLIC "-//W3C//DTD SVG 1.1//EN"
 "http://www.w3.org/Graphics/SVG/1.1/DTD/svg11.dtd">
<!-- Generated by graphviz version 14.0.2 (20251019.1705)
 -->
<!-- Title: XO_NUM_AI::bestMove Pages: 1 -->
<svg width="276pt" height="66pt"
 viewBox="0.00 0.00 276.00 66.00" xmlns="http://www.w3.org/2000/svg" xmlns:xlink="http://www.w3.org/1999/xlink">
<g id="graph0" class="graph" transform="scale(1 1) rotate(0) translate(4 62)">
<title>XO_NUM_AI::bestMove</title>
<!-- Node1 -->
<g id="Node000001" class="node">
<title>Node1</title>
<g id="a_Node000001"><a xlink:title="Compute the best move.">
<polygon fill="#999999" stroke="#666666" points="122.5,-39 0,-39 0,-19 122.5,-19 122.5,-39"/>
<text xml:space="preserve" text-anchor="middle" x="61.25" y="-25.5" font-family="Helvetica,sans-Serif" font-size="10.00">XO_NUM_AI::bestMove</text>
</a>
</g>
</g>
<!-- Node2 -->
<g id="Node000002" class="node">
<title>Node2</title>
<g id="a_Node000002"><a xlink:href="class_player.html#a508617eddfae8915d098102d480fc888" target="_top" xlink:title="Get a pointer to the game board.">
<polygon fill="white" stroke="#666666" points="267.5,-58 158.5,-58 158.5,-38 267.5,-38 267.5,-58"/>
<text xml:space="preserve" text-anchor="middle" x="213" y="-44.5" font-family="Helvetica,sans-Serif" font-size="10.00">Player::get_board_ptr</text>
</a>
</g>
</g>
<!-- Node1&#45;&gt;Node2 -->
<g id="edge1_Node000001_Node000002" class="edge">
<title>Node1&#45;&gt;Node2</title>
<g id="a_edge1_Node000001_Node000002"><a xlink:title=" ">
<path fill="none" stroke="#63b8ff" d="M122.73,-36.67C130.67,-37.68 138.84,-38.72 146.86,-39.74"/>
<polygon fill="#63b8ff" stroke="#63b8ff" points="146.19,-43.18 156.55,-40.97 147.07,-36.23 146.19,-43.18"/>
</a>
</g>
</g>
<!-- Node3 -->
<g id="Node000003" class="node">
<title>Node3</title>
<g id="a_Node000003"><a xlink:href="class_player.html#af56f0bf98c0423a3a75b0848607d03a4" target="_top" xlink:title="Get the player&#39;s symbol.">
<polygon fill="white" stroke="#666666" points="263,-20 163,-20 163,0 263,0 263,-20"/>
<text xml:space="preserve" text-anchor="middle" x="213" y="-6.5" font-family="Helvetica,sans-Serif" font-size="10.00">Player::get_symbol</text>
</a>
</g>
</g>
<!-- Node1&#45;&gt;Node3 -->
<g id="edge2_Node000001_Node000003" class="edge">
<title>Node1&#45;&gt;Node3</title>
<g id="a_edge2_Node000001_Node000003"><a xlink:title=" ">
<path fill="none" stroke="#63b8ff" d="M122.73,-21.33C132.19,-20.13 141.98,-18.88 151.44,-17.68"/>
<polygon fill="#63b8ff" stroke="#63b8ff" points="151.81,-21.17 161.29,-16.43 150.93,-14.22 151.81,-21.17"/>
</a>
</g>
</g>
</g>
</svg>
