<?xml version="1.0" encoding="UTF-8" standalone="no"?>
<!DOCTYPE svg PUBLIC "-//W3C//DTD SVG 1.1//EN"
 "http://www.w3.org/Graphics/SVG/1.1/DTD/svg11.dtd">
<!-- Generated by graphviz version 14.0.2 (20251019.1705)
 -->
<!-- Title: Anti_XO_Board::is_lose Pages: 1 -->
<svg width="437pt" height="53pt"
 viewBox="0.00 0.00 437.00 53.00" xmlns="http://www.w3.org/2000/svg" xmlns:xlink="http://www.w3.org/1999/xlink">
<g id="graph0" class="graph" transform="scale(1 1) rotate(0) translate(4 49)">
<title>Anti_XO_Board::is_lose</title>
<!-- Node1 -->
<g id="Node000001" class="node">
<title>Node1</title>
<g id="a_Node000001"><a xlink:title="Checks if the player loses by forming a 3&#45;in&#45;a&#45;row line.">
<polygon fill="#999999" stroke="#666666" points="429,-39 308.75,-39 308.75,-19 429,-19 429,-39"/>
<text xml:space="preserve" text-anchor="middle" x="368.88" y="-25.5" font-family="Helvetica,sans-Serif" font-size="10.00">Anti_XO_Board::is_lose</text>
</a>
</g>
</g>
<!-- Node2 -->
<g id="Node000002" class="node">
<title>Node2</title>
<g id="a_Node000002"><a xlink:href="$class_anti___x_o___board.html#adcaa9a00867940eefbbb22447e014437" xlink:title="Checks if the game is over (lose or draw).">
<polygon fill="white" stroke="#666666" points="113.5,-45 0,-45 0,-13 113.5,-13 113.5,-45"/>
<text xml:space="preserve" text-anchor="start" x="8" y="-31.5" font-family="Helvetica,sans-Serif" font-size="10.00">Anti_XO_Board::game</text>
<text xml:space="preserve" text-anchor="middle" x="56.75" y="-19.5" font-family="Helvetica,sans-Serif" font-size="10.00">_is_over</text>
</a>
</g>
</g>
<!-- Node1&#45;&gt;Node2 -->
<g id="edge1_Node000001_Node000002" class="edge">
<title>Node1&#45;&gt;Node2</title>
<g id="a_edge1_Node000001_Node000002"><a xlink:title=" ">
<path fill="none" stroke="#63b8ff" d="M297.27,-29C241.69,-29 165.29,-29 113.84,-29"/>
<polygon fill="#63b8ff" stroke="#63b8ff" points="296.93,-32.5 306.93,-29 296.93,-25.5 296.93,-32.5"/>
</a>
</g>
</g>
<!-- Node3 -->
<g id="Node000003" class="node">
<title>Node3</title>
<g id="a_Node000003"><a xlink:href="$class_anti___x_o___board.html#ab8080f9ad2f80291242e192ba90ec7f6" xlink:title="Checks if the game is a draw (board full and no losing line).">
<polygon fill="white" stroke="#666666" points="272.75,-20 149.5,-20 149.5,0 272.75,0 272.75,-20"/>
<text xml:space="preserve" text-anchor="middle" x="211.12" y="-6.5" font-family="Helvetica,sans-Serif" font-size="10.00">Anti_XO_Board::is_draw</text>
</a>
</g>
</g>
<!-- Node1&#45;&gt;Node3 -->
<g id="edge2_Node000001_Node000003" class="edge">
<title>Node1&#45;&gt;Node3</title>
<g id="a_edge2_Node000001_Node000003"><a xlink:title=" ">
<path fill="none" stroke="#63b8ff" d="M297.25,-20.38C289.19,-19.4 281.02,-18.4 273.1,-17.44"/>
<polygon fill="#63b8ff" stroke="#63b8ff" points="296.7,-23.84 307.05,-21.58 297.54,-16.89 296.7,-23.84"/>
</a>
</g>
</g>
<!-- Node3&#45;&gt;Node2 -->
<g id="edge3_Node000003_Node000002" class="edge">
<title>Node3&#45;&gt;Node2</title>
<g id="a_edge3_Node000003_Node000002"><a xlink:title=" ">
<path fill="none" stroke="#63b8ff" d="M137.78,-19.02C129.76,-20.02 121.7,-21.03 113.93,-22"/>
<polygon fill="#63b8ff" stroke="#63b8ff" points="138.03,-22.52 147.52,-17.81 137.17,-15.57 138.03,-22.52"/>
</a>
</g>
</g>
</g>
</svg>
