<?xml version="1.0" encoding="UTF-8" standalone="no"?>
<!DOCTYPE svg PUBLIC "-//W3C//DTD SVG 1.1//EN"
 "http://www.w3.org/Graphics/SVG/1.1/DTD/svg11.dtd">
<!-- Generated by graphviz version 14.0.2 (20251019.1705)
 -->
<!-- Title: Move::get_symbol Pages: 1 -->
<svg width="411pt" height="628pt"
 viewBox="0.00 0.00 411.00 628.00" xmlns="http://www.w3.org/2000/svg" xmlns:xlink="http://www.w3.org/1999/xlink">
<g id="graph0" class="graph" transform="scale(1 1) rotate(0) translate(4 624)">
<title>Move::get_symbol</title>
<!-- Node1 -->
<g id="Node000001" class="node">
<title>Node1</title>
<g id="a_Node000001"><a xlink:title="Get the move symbol.">
<polygon fill="#999999" stroke="#666666" points="402.75,-314 306.5,-314 306.5,-294 402.75,-294 402.75,-314"/>
<text xml:space="preserve" text-anchor="middle" x="354.62" y="-300.5" font-family="Helvetica,sans-Serif" font-size="10.00">Move::get_symbol</text>
</a>
</g>
</g>
<!-- Node2 -->
<g id="Node000002" class="node">
<title>Node2</title>
<g id="a_Node000002"><a xlink:href="class__4by4_x_o___board.html#a9de9274fa6d3d65ec2e6899fb465b693" target="_top" xlink:title="Applies a sliding move.">
<polygon fill="white" stroke="#666666" points="265.62,-620 143.12,-620 143.12,-588 265.62,-588 265.62,-620"/>
<text xml:space="preserve" text-anchor="start" x="151.12" y="-606.5" font-family="Helvetica,sans-Serif" font-size="10.00">_4by4XO_Board::update</text>
<text xml:space="preserve" text-anchor="middle" x="204.38" y="-594.5" font-family="Helvetica,sans-Serif" font-size="10.00">_board</text>
</a>
</g>
</g>
<!-- Node1&#45;&gt;Node2 -->
<g id="edge1_Node000001_Node000002" class="edge">
<title>Node1&#45;&gt;Node2</title>
<g id="a_edge1_Node000001_Node000002"><a xlink:title=" ">
<path fill="none" stroke="#63b8ff" d="M353.24,-325.75C351.18,-376.75 339.07,-505.23 270.5,-579 267.45,-582.28 263.92,-585.14 260.11,-587.62"/>
<polygon fill="#63b8ff" stroke="#63b8ff" points="356.74,-325.9 353.54,-315.8 349.74,-325.69 356.74,-325.9"/>
</a>
</g>
</g>
<!-- Node3 -->
<g id="Node000003" class="node">
<title>Node3</title>
<g id="a_Node000003"><a xlink:href="class_anti___x_o___board.html#a6357022946ed7c926c80a780006abec3" target="_top" xlink:title="Places a symbol on the board if the position is valid and empty.">
<polygon fill="white" stroke="#666666" points="263.75,-570 145,-570 145,-538 263.75,-538 263.75,-570"/>
<text xml:space="preserve" text-anchor="start" x="153" y="-556.5" font-family="Helvetica,sans-Serif" font-size="10.00">Anti_XO_Board::update</text>
<text xml:space="preserve" text-anchor="middle" x="204.38" y="-544.5" font-family="Helvetica,sans-Serif" font-size="10.00">_board</text>
</a>
</g>
</g>
<!-- Node1&#45;&gt;Node3 -->
<g id="edge2_Node000001_Node000003" class="edge">
<title>Node1&#45;&gt;Node3</title>
<g id="a_edge2_Node000001_Node000003"><a xlink:title=" ">
<path fill="none" stroke="#63b8ff" d="M351.57,-325.31C346.22,-369.27 328.02,-470.75 270.5,-529 267.27,-532.27 263.56,-535.13 259.59,-537.61"/>
<polygon fill="#63b8ff" stroke="#63b8ff" points="355.02,-325.9 352.63,-315.58 348.06,-325.14 355.02,-325.9"/>
</a>
</g>
</g>
<!-- Node4 -->
<g id="Node000004" class="node">
<title>Node4</title>
<g id="a_Node000004"><a xlink:href="classdia___x_o___board.html#ac08c083372516dd786e53e4a87bac34f" target="_top" xlink:title="Attempts to place a symbol on the board.">
<polygon fill="white" stroke="#666666" points="261.5,-520 147.25,-520 147.25,-488 261.5,-488 261.5,-520"/>
<text xml:space="preserve" text-anchor="start" x="155.25" y="-506.5" font-family="Helvetica,sans-Serif" font-size="10.00">dia_XO_Board::update</text>
<text xml:space="preserve" text-anchor="middle" x="204.38" y="-494.5" font-family="Helvetica,sans-Serif" font-size="10.00">_board</text>
</a>
</g>
</g>
<!-- Node1&#45;&gt;Node4 -->
<g id="edge3_Node000001_Node000004" class="edge">
<title>Node1&#45;&gt;Node4</title>
<g id="a_edge3_Node000001_Node000004"><a xlink:title=" ">
<path fill="none" stroke="#63b8ff" d="M348.95,-325.48C339.94,-361.92 316.86,-436.07 270.5,-479 266.95,-482.29 262.91,-485.16 258.64,-487.67"/>
<polygon fill="#63b8ff" stroke="#63b8ff" points="352.35,-326.28 351.21,-315.75 345.53,-324.69 352.35,-326.28"/>
</a>
</g>
</g>
<!-- Node5 -->
<g id="Node000005" class="node">
<title>Node5</title>
<g id="a_Node000005"><a xlink:href="class_f_o_u_r___board.html#ae90ac8610d88429264d3f467ad5a6919" target="_top" xlink:title="Applies a move to the board.">
<polygon fill="white" stroke="#666666" points="259.62,-470 149.12,-470 149.12,-438 259.62,-438 259.62,-470"/>
<text xml:space="preserve" text-anchor="start" x="157.12" y="-456.5" font-family="Helvetica,sans-Serif" font-size="10.00">FOUR_Board::update</text>
<text xml:space="preserve" text-anchor="middle" x="204.38" y="-444.5" font-family="Helvetica,sans-Serif" font-size="10.00">_board</text>
</a>
</g>
</g>
<!-- Node1&#45;&gt;Node5 -->
<g id="edge4_Node000001_Node000005" class="edge">
<title>Node1&#45;&gt;Node5</title>
<g id="a_edge4_Node000001_Node000005"><a xlink:title=" ">
<path fill="none" stroke="#63b8ff" d="M344.81,-324.65C332.13,-352.07 306.28,-400.35 270.5,-429 266.44,-432.26 261.9,-435.12 257.16,-437.64"/>
<polygon fill="#63b8ff" stroke="#63b8ff" points="347.93,-326.24 348.81,-315.68 341.54,-323.39 347.93,-326.24"/>
</a>
</g>
</g>
<!-- Node6 -->
<g id="Node000006" class="node">
<title>Node6</title>
<g id="a_Node000006"><a xlink:href="class_large___x_o___board.html#ab7c22478765191720a9068b68f492891" target="_top" xlink:title="Update board using a Move object.">
<polygon fill="white" stroke="#666666" points="267.12,-420 141.62,-420 141.62,-388 267.12,-388 267.12,-420"/>
<text xml:space="preserve" text-anchor="start" x="149.62" y="-406.5" font-family="Helvetica,sans-Serif" font-size="10.00">Large_XO_Board::update</text>
<text xml:space="preserve" text-anchor="middle" x="204.38" y="-394.5" font-family="Helvetica,sans-Serif" font-size="10.00">_board</text>
</a>
</g>
</g>
<!-- Node1&#45;&gt;Node6 -->
<g id="edge5_Node000001_Node000006" class="edge">
<title>Node1&#45;&gt;Node6</title>
<g id="a_edge5_Node000001_Node000006"><a xlink:title=" ">
<path fill="none" stroke="#63b8ff" d="M336.83,-322.65C321.04,-339.26 296.08,-363.31 270.5,-379 265.34,-382.17 259.71,-385.05 253.99,-387.64"/>
<polygon fill="#63b8ff" stroke="#63b8ff" points="339.33,-325.1 343.57,-315.39 334.2,-320.33 339.33,-325.1"/>
</a>
</g>
</g>
<!-- Node7 -->
<g id="Node000007" class="node">
<title>Node7</title>
<g id="a_Node000007"><a xlink:href="class_memory___board.html#ab21d9e1025f3a8ae29dd17a5fb368462" target="_top" xlink:title="Applies a move to the board.">
<polygon fill="white" stroke="#666666" points="263,-370 145.75,-370 145.75,-338 263,-338 263,-370"/>
<text xml:space="preserve" text-anchor="start" x="153.75" y="-356.5" font-family="Helvetica,sans-Serif" font-size="10.00">Memory_Board::update</text>
<text xml:space="preserve" text-anchor="middle" x="204.38" y="-344.5" font-family="Helvetica,sans-Serif" font-size="10.00">_board</text>
</a>
</g>
</g>
<!-- Node1&#45;&gt;Node7 -->
<g id="edge6_Node000001_Node000007" class="edge">
<title>Node1&#45;&gt;Node7</title>
<g id="a_edge6_Node000001_Node000007"><a xlink:title=" ">
<path fill="none" stroke="#63b8ff" d="M311.84,-318.09C293.92,-324.14 272.85,-331.24 254.21,-337.53"/>
<polygon fill="#63b8ff" stroke="#63b8ff" points="312.76,-321.48 321.11,-314.97 310.52,-314.84 312.76,-321.48"/>
</a>
</g>
</g>
<!-- Node8 -->
<g id="Node000008" class="node">
<title>Node8</title>
<g id="a_Node000008"><a xlink:href="class_obstacles___board.html#a51f3c83c61219c03b6c66231448b93b8" target="_top" xlink:title="Applies a Move&lt;char&gt; to the board.">
<polygon fill="white" stroke="#666666" points="267.5,-320 141.25,-320 141.25,-288 267.5,-288 267.5,-320"/>
<text xml:space="preserve" text-anchor="start" x="149.25" y="-306.5" font-family="Helvetica,sans-Serif" font-size="10.00">Obstacles_Board::update</text>
<text xml:space="preserve" text-anchor="middle" x="204.38" y="-294.5" font-family="Helvetica,sans-Serif" font-size="10.00">_board</text>
</a>
</g>
</g>
<!-- Node1&#45;&gt;Node8 -->
<g id="edge7_Node000001_Node000008" class="edge">
<title>Node1&#45;&gt;Node8</title>
<g id="a_edge7_Node000001_Node000008"><a xlink:title=" ">
<path fill="none" stroke="#63b8ff" d="M294.89,-304C286.03,-304 276.87,-304 267.94,-304"/>
<polygon fill="#63b8ff" stroke="#63b8ff" points="294.8,-307.5 304.8,-304 294.8,-300.5 294.8,-307.5"/>
</a>
</g>
</g>
<!-- Node9 -->
<g id="Node000009" class="node">
<title>Node9</title>
<g id="a_Node000009"><a xlink:href="class_pyramid_x_o___board.html#a42ef6d7d850224be477c2a0a40508dd3" target="_top" xlink:title="Attempts to place a symbol on the board.">
<polygon fill="white" stroke="#666666" points="270.5,-270 138.25,-270 138.25,-238 270.5,-238 270.5,-270"/>
<text xml:space="preserve" text-anchor="start" x="146.25" y="-256.5" font-family="Helvetica,sans-Serif" font-size="10.00">PyramidXO_Board::update</text>
<text xml:space="preserve" text-anchor="middle" x="204.38" y="-244.5" font-family="Helvetica,sans-Serif" font-size="10.00">_board</text>
</a>
</g>
</g>
<!-- Node1&#45;&gt;Node9 -->
<g id="edge8_Node000001_Node000009" class="edge">
<title>Node1&#45;&gt;Node9</title>
<g id="a_edge8_Node000001_Node000009"><a xlink:title=" ">
<path fill="none" stroke="#63b8ff" d="M311.84,-289.91C293.92,-283.86 272.85,-276.76 254.21,-270.47"/>
<polygon fill="#63b8ff" stroke="#63b8ff" points="310.52,-293.16 321.11,-293.03 312.76,-286.52 310.52,-293.16"/>
</a>
</g>
</g>
<!-- Node10 -->
<g id="Node000010" class="node">
<title>Node10</title>
<g id="a_Node000010"><a xlink:href="class_s_u_s___board.html#a22679cdc9a91a17fea898c66ad821e45" target="_top" xlink:title="Applies or undoes a move on the board.">
<polygon fill="white" stroke="#666666" points="270.5,-220 138.25,-220 138.25,-200 270.5,-200 270.5,-220"/>
<text xml:space="preserve" text-anchor="middle" x="204.38" y="-206.5" font-family="Helvetica,sans-Serif" font-size="10.00">SUS_Board::update_board</text>
</a>
</g>
</g>
<!-- Node1&#45;&gt;Node10 -->
<g id="edge9_Node000001_Node000010" class="edge">
<title>Node1&#45;&gt;Node10</title>
<g id="a_edge9_Node000001_Node000010"><a xlink:title=" ">
<path fill="none" stroke="#63b8ff" d="M337.38,-285.13C321.81,-268.16 296.85,-243.7 270.5,-229 264.43,-225.61 257.7,-222.78 250.94,-220.42"/>
<polygon fill="#63b8ff" stroke="#63b8ff" points="334.73,-287.42 344,-292.55 339.95,-282.75 334.73,-287.42"/>
</a>
</g>
</g>
<!-- Node11 -->
<g id="Node000011" class="node">
<title>Node11</title>
<g id="a_Node000011"><a xlink:href="class_ultimate___board.html#a9339ec67859e01c726adf55a8a77db72" target="_top" xlink:title="Apply or undo a move on the board.">
<polygon fill="white" stroke="#666666" points="263.75,-182 145,-182 145,-150 263.75,-150 263.75,-182"/>
<text xml:space="preserve" text-anchor="start" x="153" y="-168.5" font-family="Helvetica,sans-Serif" font-size="10.00">Ultimate_Board::update</text>
<text xml:space="preserve" text-anchor="middle" x="204.38" y="-156.5" font-family="Helvetica,sans-Serif" font-size="10.00">_board</text>
</a>
</g>
</g>
<!-- Node1&#45;&gt;Node11 -->
<g id="edge10_Node000001_Node000011" class="edge">
<title>Node1&#45;&gt;Node11</title>
<g id="a_edge10_Node000001_Node000011"><a xlink:title=" ">
<path fill="none" stroke="#63b8ff" d="M343.34,-283.56C329.79,-258.53 303.75,-216.36 270.5,-191 266.26,-187.77 261.56,-184.91 256.67,-182.39"/>
<polygon fill="#63b8ff" stroke="#63b8ff" points="340.22,-285.15 347.96,-292.39 346.42,-281.91 340.22,-285.15"/>
</a>
</g>
</g>
<!-- Node12 -->
<g id="Node000012" class="node">
<title>Node12</title>
<g id="a_Node000012"><a xlink:href="class_word___x_o___board.html#a6eba0fb4c22b625af2000afd4fb4400d" target="_top" xlink:title="Apply a move to the board.">
<polygon fill="white" stroke="#666666" points="266.38,-132 142.38,-132 142.38,-100 266.38,-100 266.38,-132"/>
<text xml:space="preserve" text-anchor="start" x="150.38" y="-118.5" font-family="Helvetica,sans-Serif" font-size="10.00">Word_XO_Board::update</text>
<text xml:space="preserve" text-anchor="middle" x="204.38" y="-106.5" font-family="Helvetica,sans-Serif" font-size="10.00">_board</text>
</a>
</g>
</g>
<!-- Node1&#45;&gt;Node12 -->
<g id="edge11_Node000001_Node000012" class="edge">
<title>Node1&#45;&gt;Node12</title>
<g id="a_edge11_Node000001_Node000012"><a xlink:title=" ">
<path fill="none" stroke="#63b8ff" d="M348.11,-282.55C338.2,-248.11 314.24,-180.37 270.5,-141 266.9,-137.76 262.83,-134.92 258.54,-132.44"/>
<polygon fill="#63b8ff" stroke="#63b8ff" points="344.72,-283.44 350.73,-292.16 351.47,-281.59 344.72,-283.44"/>
</a>
</g>
</g>
<!-- Node14 -->
<g id="Node000014" class="node">
<title>Node14</title>
<g id="a_Node000014"><a xlink:href="class_x_o__inf___board.html#ad8c2e867524a221c9e51c5b71806e509" target="_top" xlink:title="Apply a move to the board.">
<polygon fill="white" stroke="#666666" points="260.38,-82 148.38,-82 148.38,-50 260.38,-50 260.38,-82"/>
<text xml:space="preserve" text-anchor="start" x="156.38" y="-68.5" font-family="Helvetica,sans-Serif" font-size="10.00">XO_inf_Board::update</text>
<text xml:space="preserve" text-anchor="middle" x="204.38" y="-56.5" font-family="Helvetica,sans-Serif" font-size="10.00">_board</text>
</a>
</g>
</g>
<!-- Node1&#45;&gt;Node14 -->
<g id="edge13_Node000001_Node000014" class="edge">
<title>Node1&#45;&gt;Node14</title>
<g id="a_edge13_Node000001_Node000014"><a xlink:title=" ">
<path fill="none" stroke="#63b8ff" d="M351,-282.36C344.76,-239.97 325.2,-145.4 270.5,-91 267.24,-87.75 263.51,-84.92 259.52,-82.45"/>
<polygon fill="#63b8ff" stroke="#63b8ff" points="347.5,-282.58 352.31,-292.02 354.44,-281.64 347.5,-282.58"/>
</a>
</g>
</g>
<!-- Node15 -->
<g id="Node000015" class="node">
<title>Node15</title>
<g id="a_Node000015"><a xlink:href="class_x_o___n_u_m___board.html#af7ec62268666ef6dd7bd90219172522e" target="_top" xlink:title="Apply or undo a move on the board.">
<polygon fill="white" stroke="#666666" points="266.75,-32 142,-32 142,0 266.75,0 266.75,-32"/>
<text xml:space="preserve" text-anchor="start" x="150" y="-18.5" font-family="Helvetica,sans-Serif" font-size="10.00">XO_NUM_Board::update</text>
<text xml:space="preserve" text-anchor="middle" x="204.38" y="-6.5" font-family="Helvetica,sans-Serif" font-size="10.00">_board</text>
</a>
</g>
</g>
<!-- Node1&#45;&gt;Node15 -->
<g id="edge14_Node000001_Node000015" class="edge">
<title>Node1&#45;&gt;Node15</title>
<g id="a_edge14_Node000001_Node000015"><a xlink:title=" ">
<path fill="none" stroke="#63b8ff" d="M352.88,-282.19C350.03,-232.73 336.33,-110.94 270.5,-41 267.43,-37.74 263.88,-34.9 260.07,-32.42"/>
<polygon fill="#63b8ff" stroke="#63b8ff" points="349.38,-282.29 353.34,-292.12 356.37,-281.96 349.38,-282.29"/>
</a>
</g>
</g>
<!-- Node13 -->
<g id="Node000013" class="node">
<title>Node13</title>
<g id="a_Node000013"><a xlink:href="class_word___a_i.html#abadf0c9ca0a9e14ba6e21f463c11a11f" target="_top" xlink:title="Compute the best move for a player.">
<polygon fill="white" stroke="#666666" points="102.25,-126 0,-126 0,-106 102.25,-106 102.25,-126"/>
<text xml:space="preserve" text-anchor="middle" x="51.12" y="-112.5" font-family="Helvetica,sans-Serif" font-size="10.00">Word_AI::bestMove</text>
</a>
</g>
</g>
<!-- Node12&#45;&gt;Node13 -->
<g id="edge12_Node000012_Node000013" class="edge">
<title>Node12&#45;&gt;Node13</title>
<g id="a_edge12_Node000012_Node000013"><a xlink:title=" ">
<path fill="none" stroke="#63b8ff" d="M130.98,-116C121.28,-116 111.51,-116 102.3,-116"/>
<polygon fill="#63b8ff" stroke="#63b8ff" points="130.78,-119.5 140.78,-116 130.78,-112.5 130.78,-119.5"/>
</a>
</g>
</g>
</g>
</svg>
