<?xml version="1.0" encoding="UTF-8" standalone="no"?>
<!DOCTYPE svg PUBLIC "-//W3C//DTD SVG 1.1//EN"
 "http://www.w3.org/Graphics/SVG/1.1/DTD/svg11.dtd">
<!-- Generated by graphviz version 14.0.2 (20251019.1705)
 -->
<!-- Title: Matrix::Matrix Pages: 1 -->
<svg width="340pt" height="332pt"
 viewBox="0.00 0.00 340.00 332.00" xmlns="http://www.w3.org/2000/svg" xmlns:xlink="http://www.w3.org/1999/xlink">
<g id="graph0" class="graph" transform="scale(1 1) rotate(0) translate(4 328)">
<title>Matrix::Matrix</title>
<!-- Node1 -->
<g id="Node000001" class="node">
<title>Node1</title>
<g id="a_Node000001"><a xlink:title="Construct a matrix of size (rows x cols).">
<polygon fill="#999999" stroke="#666666" points="332.25,-172 256.25,-172 256.25,-152 332.25,-152 332.25,-172"/>
<text xml:space="preserve" text-anchor="middle" x="294.25" y="-158.5" font-family="Helvetica,sans-Serif" font-size="10.00">Matrix::Matrix</text>
</a>
</g>
</g>
<!-- Node2 -->
<g id="Node000002" class="node">
<title>Node2</title>
<g id="a_Node000002"><a xlink:href="class_matrix.html#a3055050ff4e15b30c072bbe26842f405" target="_top" xlink:title="In&#45;place Hadamard (element&#45;wise) product: this = this ⊙ other.">
<polygon fill="white" stroke="#666666" points="218,-324 126.25,-324 126.25,-304 218,-304 218,-324"/>
<text xml:space="preserve" text-anchor="middle" x="172.12" y="-310.5" font-family="Helvetica,sans-Serif" font-size="10.00">Matrix::hadamard</text>
</a>
</g>
</g>
<!-- Node1&#45;&gt;Node2 -->
<g id="edge1_Node000001_Node000002" class="edge">
<title>Node1&#45;&gt;Node2</title>
<g id="a_edge1_Node000001_Node000002"><a xlink:title=" ">
<path fill="none" stroke="#63b8ff" d="M286.75,-183.03C276.82,-211.95 255.24,-263.94 220.25,-295 216.42,-298.4 211.91,-301.23 207.22,-303.58"/>
<polygon fill="#63b8ff" stroke="#63b8ff" points="290.05,-184.21 289.83,-173.62 283.39,-182.03 290.05,-184.21"/>
</a>
</g>
</g>
<!-- Node3 -->
<g id="Node000003" class="node">
<title>Node3</title>
<g id="a_Node000003"><a xlink:href="class_matrix.html#a79fa5a3893939d8b399f86c6c1ff15a7" target="_top" xlink:title="Multiply preallocated matrices without allocations.">
<polygon fill="white" stroke="#666666" points="213.5,-286 130.75,-286 130.75,-266 213.5,-266 213.5,-286"/>
<text xml:space="preserve" text-anchor="middle" x="172.12" y="-272.5" font-family="Helvetica,sans-Serif" font-size="10.00">Matrix::multiply</text>
</a>
</g>
</g>
<!-- Node1&#45;&gt;Node3 -->
<g id="edge2_Node000001_Node000003" class="edge">
<title>Node1&#45;&gt;Node3</title>
<g id="a_edge2_Node000001_Node000003"><a xlink:title=" ">
<path fill="none" stroke="#63b8ff" d="M282.15,-182.19C269.6,-203.39 247.34,-236.43 220.25,-257 215.89,-260.31 210.88,-263.13 205.79,-265.5"/>
<polygon fill="#63b8ff" stroke="#63b8ff" points="285.12,-184.05 287.06,-173.63 279.05,-180.57 285.12,-184.05"/>
</a>
</g>
</g>
<!-- Node6 -->
<g id="Node000006" class="node">
<title>Node6</title>
<g id="a_Node000006"><a xlink:href="class_matrix.html#a0d724ccde0d084d10f73366896c32c32" target="_top" xlink:title="Matrix multiplication: C = A * B.">
<polygon fill="white" stroke="#666666" points="216.12,-248 128.12,-248 128.12,-228 216.12,-228 216.12,-248"/>
<text xml:space="preserve" text-anchor="middle" x="172.12" y="-234.5" font-family="Helvetica,sans-Serif" font-size="10.00">Matrix::operator*</text>
</a>
</g>
</g>
<!-- Node1&#45;&gt;Node6 -->
<g id="edge5_Node000001_Node000006" class="edge">
<title>Node1&#45;&gt;Node6</title>
<g id="a_edge5_Node000001_Node000006"><a xlink:title=" ">
<path fill="none" stroke="#63b8ff" d="M273.71,-179.72C259.6,-191.89 239.67,-207.8 220.25,-219 214.75,-222.17 208.61,-225.06 202.64,-227.58"/>
<polygon fill="#63b8ff" stroke="#63b8ff" points="275.76,-182.59 280.95,-173.35 271.13,-177.33 275.76,-182.59"/>
</a>
</g>
</g>
<!-- Node7 -->
<g id="Node000007" class="node">
<title>Node7</title>
<g id="a_Node000007"><a xlink:href="class_matrix.html#ad2a786f018631a09111b0ce0b3a97dbf" target="_top" xlink:title="Scalar multiplication.">
<polygon fill="white" stroke="#666666" points="216.12,-210 128.12,-210 128.12,-190 216.12,-190 216.12,-210"/>
<text xml:space="preserve" text-anchor="middle" x="172.12" y="-196.5" font-family="Helvetica,sans-Serif" font-size="10.00">Matrix::operator*</text>
</a>
</g>
</g>
<!-- Node1&#45;&gt;Node7 -->
<g id="edge6_Node000001_Node000007" class="edge">
<title>Node1&#45;&gt;Node7</title>
<g id="a_edge6_Node000001_Node000007"><a xlink:title=" ">
<path fill="none" stroke="#63b8ff" d="M249.49,-175.84C235.18,-180.37 219.54,-185.32 206.16,-189.55"/>
<polygon fill="#63b8ff" stroke="#63b8ff" points="250.19,-179.29 258.66,-172.94 248.07,-172.62 250.19,-179.29"/>
</a>
</g>
</g>
<!-- Node8 -->
<g id="Node000008" class="node">
<title>Node8</title>
<g id="a_Node000008"><a xlink:href="class_matrix.html#a94950736fd85d672147d33bbe64e5d0d" target="_top" xlink:title="Matrix addition.">
<polygon fill="white" stroke="#666666" points="217.25,-172 127,-172 127,-152 217.25,-152 217.25,-172"/>
<text xml:space="preserve" text-anchor="middle" x="172.12" y="-158.5" font-family="Helvetica,sans-Serif" font-size="10.00">Matrix::operator+</text>
</a>
</g>
</g>
<!-- Node1&#45;&gt;Node8 -->
<g id="edge7_Node000001_Node000008" class="edge">
<title>Node1&#45;&gt;Node8</title>
<g id="a_edge7_Node000001_Node000008"><a xlink:title=" ">
<path fill="none" stroke="#63b8ff" d="M244.49,-162C235.6,-162 226.37,-162 217.62,-162"/>
<polygon fill="#63b8ff" stroke="#63b8ff" points="244.39,-165.5 254.39,-162 244.39,-158.5 244.39,-165.5"/>
</a>
</g>
</g>
<!-- Node9 -->
<g id="Node000009" class="node">
<title>Node9</title>
<g id="a_Node000009"><a xlink:href="class_matrix.html#ab7dc0cc55a49ddaa88bf4a6028ad76f0" target="_top" xlink:title="Matrix subtraction.">
<polygon fill="white" stroke="#666666" points="215.75,-134 128.5,-134 128.5,-114 215.75,-114 215.75,-134"/>
<text xml:space="preserve" text-anchor="middle" x="172.12" y="-120.5" font-family="Helvetica,sans-Serif" font-size="10.00">Matrix::operator&#45;</text>
</a>
</g>
</g>
<!-- Node1&#45;&gt;Node9 -->
<g id="edge8_Node000001_Node000009" class="edge">
<title>Node1&#45;&gt;Node9</title>
<g id="a_edge8_Node000001_Node000009"><a xlink:title=" ">
<path fill="none" stroke="#63b8ff" d="M249.49,-148.16C235.18,-143.63 219.54,-138.68 206.16,-134.45"/>
<polygon fill="#63b8ff" stroke="#63b8ff" points="248.07,-151.38 258.66,-151.06 250.19,-144.71 248.07,-151.38"/>
</a>
</g>
</g>
<!-- Node10 -->
<g id="Node000010" class="node">
<title>Node10</title>
<g id="a_Node000010"><a xlink:href="class_matrix.html#a95102bd4b0960b1a4c282c2e7685c84c" target="_top" xlink:title="Stream output for debugging.">
<polygon fill="white" stroke="#666666" points="220.25,-96 124,-96 124,-76 220.25,-76 220.25,-96"/>
<text xml:space="preserve" text-anchor="middle" x="172.12" y="-82.5" font-family="Helvetica,sans-Serif" font-size="10.00">Matrix::operator&lt;&lt;</text>
</a>
</g>
</g>
<!-- Node1&#45;&gt;Node10 -->
<g id="edge9_Node000001_Node000010" class="edge">
<title>Node1&#45;&gt;Node10</title>
<g id="a_edge9_Node000001_Node000010"><a xlink:title=" ">
<path fill="none" stroke="#63b8ff" d="M273.71,-144.28C259.6,-132.11 239.67,-116.2 220.25,-105 214.75,-101.83 208.61,-98.94 202.64,-96.42"/>
<polygon fill="#63b8ff" stroke="#63b8ff" points="271.13,-146.67 280.95,-150.65 275.76,-141.41 271.13,-146.67"/>
</a>
</g>
</g>
<!-- Node11 -->
<g id="Node000011" class="node">
<title>Node11</title>
<g id="a_Node000011"><a xlink:href="class_matrix.html#a1bf314e696c1a7a1963aec05af5f5d13" target="_top" xlink:title="Create a matrix filled with uniform random values in [min, max].">
<polygon fill="white" stroke="#666666" points="212.75,-58 131.5,-58 131.5,-38 212.75,-38 212.75,-58"/>
<text xml:space="preserve" text-anchor="middle" x="172.12" y="-44.5" font-family="Helvetica,sans-Serif" font-size="10.00">Matrix::random</text>
</a>
</g>
</g>
<!-- Node1&#45;&gt;Node11 -->
<g id="edge10_Node000001_Node000011" class="edge">
<title>Node1&#45;&gt;Node11</title>
<g id="a_edge10_Node000001_Node000011"><a xlink:title=" ">
<path fill="none" stroke="#63b8ff" d="M282.15,-141.81C269.6,-120.61 247.34,-87.57 220.25,-67 215.89,-63.69 210.88,-60.87 205.79,-58.5"/>
<polygon fill="#63b8ff" stroke="#63b8ff" points="279.05,-143.43 287.06,-150.37 285.12,-139.95 279.05,-143.43"/>
</a>
</g>
</g>
<!-- Node12 -->
<g id="Node000012" class="node">
<title>Node12</title>
<g id="a_Node000012"><a xlink:href="class_matrix.html#a650078c4e68d8c618e56c55951997470" target="_top" xlink:title="Transpose of the matrix.">
<polygon fill="white" stroke="#666666" points="218,-20 126.25,-20 126.25,0 218,0 218,-20"/>
<text xml:space="preserve" text-anchor="middle" x="172.12" y="-6.5" font-family="Helvetica,sans-Serif" font-size="10.00">Matrix::transpose</text>
</a>
</g>
</g>
<!-- Node1&#45;&gt;Node12 -->
<g id="edge11_Node000001_Node000012" class="edge">
<title>Node1&#45;&gt;Node12</title>
<g id="a_edge11_Node000001_Node000012"><a xlink:title=" ">
<path fill="none" stroke="#63b8ff" d="M286.75,-140.97C276.82,-112.05 255.24,-60.06 220.25,-29 216.42,-25.6 211.91,-22.77 207.22,-20.42"/>
<polygon fill="#63b8ff" stroke="#63b8ff" points="283.39,-141.97 289.83,-150.38 290.05,-139.79 283.39,-141.97"/>
</a>
</g>
</g>
<!-- Node4 -->
<g id="Node000004" class="node">
<title>Node4</title>
<g id="a_Node000004"><a xlink:href="class_layer.html#a54679a1ee804225a3d09a0685242070a" target="_top" xlink:title="Perform backward propagation through this layer.">
<polygon fill="white" stroke="#666666" points="88,-305 0,-305 0,-285 88,-285 88,-305"/>
<text xml:space="preserve" text-anchor="middle" x="44" y="-291.5" font-family="Helvetica,sans-Serif" font-size="10.00">Layer::backward</text>
</a>
</g>
</g>
<!-- Node3&#45;&gt;Node4 -->
<g id="edge3_Node000003_Node000004" class="edge">
<title>Node3&#45;&gt;Node4</title>
<g id="a_edge3_Node000003_Node000004"><a xlink:title=" ">
<path fill="none" stroke="#63b8ff" d="M119.46,-283.78C109.05,-285.35 98.21,-286.98 88.13,-288.5"/>
<polygon fill="#63b8ff" stroke="#63b8ff" points="119.66,-287.29 129.03,-282.34 118.62,-280.37 119.66,-287.29"/>
</a>
</g>
</g>
<!-- Node5 -->
<g id="Node000005" class="node">
<title>Node5</title>
<g id="a_Node000005"><a xlink:href="class_layer.html#aa1c9e50a099e7fad54c5681f83988d2a" target="_top" xlink:title="Perform forward propagation through this layer.">
<polygon fill="white" stroke="#666666" points="83.12,-267 4.88,-267 4.88,-247 83.12,-247 83.12,-267"/>
<text xml:space="preserve" text-anchor="middle" x="44" y="-253.5" font-family="Helvetica,sans-Serif" font-size="10.00">Layer::forward</text>
</a>
</g>
</g>
<!-- Node3&#45;&gt;Node5 -->
<g id="edge4_Node000003_Node000005" class="edge">
<title>Node3&#45;&gt;Node5</title>
<g id="a_edge4_Node000003_Node000005"><a xlink:title=" ">
<path fill="none" stroke="#63b8ff" d="M119.25,-268.18C107.24,-266.38 94.68,-264.48 83.38,-262.78"/>
<polygon fill="#63b8ff" stroke="#63b8ff" points="118.62,-271.63 129.03,-269.66 119.66,-264.71 118.62,-271.63"/>
</a>
</g>
</g>
</g>
</svg>
