<?xml version="1.0" encoding="UTF-8" standalone="no"?>
<!DOCTYPE svg PUBLIC "-//W3C//DTD SVG 1.1//EN"
 "http://www.w3.org/Graphics/SVG/1.1/DTD/svg11.dtd">
<!-- Generated by graphviz version 14.0.2 (20251019.1705)
 -->
<!-- Title: Large_XO_AI Pages: 1 -->
<svg width="250pt" height="1352pt"
 viewBox="0.00 0.00 250.00 1352.00" xmlns="http://www.w3.org/2000/svg" xmlns:xlink="http://www.w3.org/1999/xlink">
<g id="graph0" class="graph" transform="scale(1 1) rotate(0) translate(4 1348)">
<title>Large_XO_AI</title>
<!-- Node1 -->
<g id="Node000001" class="node">
<title>Node1</title>
<g id="a_Node000001"><a xlink:title="AI for 5x5 Tic&#45;Tac&#45;Toe using Minimax + Neural Network heuristic.">
<polygon fill="#999999" stroke="none" points="90.62,-116 8.12,-116 8.12,0 90.62,0 90.62,-116"/>
<text xml:space="preserve" text-anchor="start" x="20.12" y="-102.5" font-family="Helvetica,sans-Serif" font-size="10.00">Large_XO_AI</text>
<text xml:space="preserve" text-anchor="start" x="13.62" y="-86.5" font-family="Helvetica,sans-Serif" font-size="10.00">&#45;</text>
<text xml:space="preserve" text-anchor="start" x="22.12" y="-86.5" font-family="Helvetica,sans-Serif" font-size="10.00">aiSymbol</text>
<text xml:space="preserve" text-anchor="start" x="13.62" y="-70.5" font-family="Helvetica,sans-Serif" font-size="10.00">&#45;</text>
<text xml:space="preserve" text-anchor="start" x="22.12" y="-70.5" font-family="Helvetica,sans-Serif" font-size="10.00">oppSymbol</text>
<text xml:space="preserve" text-anchor="start" x="12.12" y="-54.5" font-family="Helvetica,sans-Serif" font-size="10.00">+</text>
<text xml:space="preserve" text-anchor="start" x="22.12" y="-54.5" font-family="Helvetica,sans-Serif" font-size="10.00">Large_XO_AI()</text>
<text xml:space="preserve" text-anchor="start" x="12.12" y="-38.5" font-family="Helvetica,sans-Serif" font-size="10.00">+</text>
<text xml:space="preserve" text-anchor="start" x="22.12" y="-38.5" font-family="Helvetica,sans-Serif" font-size="10.00">evaluate()</text>
<text xml:space="preserve" text-anchor="start" x="12.12" y="-22.5" font-family="Helvetica,sans-Serif" font-size="10.00">+</text>
<text xml:space="preserve" text-anchor="start" x="22.12" y="-22.5" font-family="Helvetica,sans-Serif" font-size="10.00">minimax()</text>
<text xml:space="preserve" text-anchor="start" x="12.12" y="-6.5" font-family="Helvetica,sans-Serif" font-size="10.00">+</text>
<text xml:space="preserve" text-anchor="start" x="22.12" y="-6.5" font-family="Helvetica,sans-Serif" font-size="10.00">bestMove()</text>
<polygon fill="#666666" stroke="#666666" points="8.12,-98 8.12,-98 90.62,-98 90.62,-98 8.12,-98"/>
<polygon fill="#666666" stroke="#666666" points="8.12,-66 8.12,-66 20.12,-66 20.12,-66 8.12,-66"/>
<polygon fill="#666666" stroke="#666666" points="20.12,-66 20.12,-66 90.62,-66 90.62,-66 20.12,-66"/>
<polygon fill="none" stroke="#666666" points="8.12,0 8.12,-116 90.62,-116 90.62,0 8.12,0"/>
</a>
</g>
</g>
<!-- Node2 -->
<g id="Node000002" class="node">
<title>Node2</title>
<g id="a_Node000002"><a xlink:href="class_a_i.html" target="_top" xlink:title="AI Interface for all implementations in games.">
<polygon fill="white" stroke="none" points="66.75,-302 0,-302 0,-202 66.75,-202 66.75,-302"/>
<text xml:space="preserve" text-anchor="start" x="28.5" y="-288.5" font-family="Helvetica,sans-Serif" font-size="10.00">AI</text>
<text xml:space="preserve" text-anchor="start" x="31.88" y="-272.5" font-family="Helvetica,sans-Serif" font-size="10.00"> </text>
<text xml:space="preserve" text-anchor="start" x="4" y="-256.5" font-family="Helvetica,sans-Serif" font-size="10.00">+</text>
<text xml:space="preserve" text-anchor="start" x="14" y="-256.5" font-family="Helvetica,sans-Serif" font-size="10.00">evaluate()</text>
<text xml:space="preserve" text-anchor="start" x="4" y="-240.5" font-family="Helvetica,sans-Serif" font-size="10.00">+</text>
<text xml:space="preserve" text-anchor="start" x="14" y="-240.5" font-family="Helvetica,sans-Serif" font-size="10.00">minimax()</text>
<text xml:space="preserve" text-anchor="start" x="4" y="-224.5" font-family="Helvetica,sans-Serif" font-size="10.00">+</text>
<text xml:space="preserve" text-anchor="start" x="14" y="-224.5" font-family="Helvetica,sans-Serif" font-size="10.00">bestMove()</text>
<text xml:space="preserve" text-anchor="start" x="4" y="-208.5" font-family="Helvetica,sans-Serif" font-size="10.00">+</text>
<text xml:space="preserve" text-anchor="start" x="14" y="-208.5" font-family="Helvetica,sans-Serif" font-size="10.00">~AI()</text>
<polygon fill="#666666" stroke="#666666" points="0,-284 0,-284 66.75,-284 66.75,-284 0,-284"/>
<polygon fill="#666666" stroke="#666666" points="0,-268 0,-268 66.75,-268 66.75,-268 0,-268"/>
<polygon fill="none" stroke="#666666" points="0,-202 0,-302 66.75,-302 66.75,-202 0,-202"/>
</a>
</g>
</g>
<!-- Node2&#45;&gt;Node1 -->
<g id="edge1_Node000001_Node000002" class="edge">
<title>Node2&#45;&gt;Node1</title>
<g id="a_edge1_Node000001_Node000002"><a xlink:title=" ">
<path fill="none" stroke="#63b8ff" d="M38.41,-190.6C40.4,-166.65 42.69,-139.26 44.65,-115.69"/>
<polygon fill="none" stroke="#63b8ff" points="34.92,-190.29 37.58,-200.55 41.9,-190.87 34.92,-190.29"/>
</a>
</g>
</g>
<!-- Node3 -->
<g id="Node000003" class="node">
<title>Node3</title>
<g id="a_Node000003"><a xlink:title=" ">
<polygon fill="white" stroke="none" points="241.62,-278 85.12,-278 85.12,-226 241.62,-226 241.62,-278"/>
<text xml:space="preserve" text-anchor="start" x="89.12" y="-264.5" font-family="Helvetica,sans-Serif" font-size="10.00">std::shared_ptr&lt; NeuralNetwork &gt;</text>
<text xml:space="preserve" text-anchor="start" x="161.88" y="-248.5" font-family="Helvetica,sans-Serif" font-size="10.00"> </text>
<text xml:space="preserve" text-anchor="start" x="111.19" y="-232.5" font-family="Helvetica,sans-Serif" font-size="10.00">+</text>
<text xml:space="preserve" text-anchor="start" x="143.25" y="-232.5" font-family="Helvetica,sans-Serif" font-size="10.00">operator&#45;&gt;()</text>
<polygon fill="#666666" stroke="#666666" points="85.12,-260 85.12,-260 241.62,-260 241.62,-260 85.12,-260"/>
<polygon fill="#666666" stroke="#666666" points="85.12,-244 85.12,-244 241.62,-244 241.62,-244 85.12,-244"/>
<polygon fill="none" stroke="#666666" points="85.12,-226 85.12,-278 241.62,-278 241.62,-226 85.12,-226"/>
</a>
</g>
</g>
<!-- Node3&#45;&gt;Node1 -->
<g id="edge2_Node000001_Node000003" class="edge">
<title>Node3&#45;&gt;Node1</title>
<g id="a_edge2_Node000001_Node000003"><a xlink:title=" ">
<path fill="none" stroke="#63b8ff" d="M148.7,-226.29C133.84,-201.25 110.17,-161.38 89.66,-126.85"/>
<polygon fill="none" stroke="#63b8ff" points="89.72,-126.94 83.21,-123.83 83.59,-116.62 90.09,-119.74 89.72,-126.94"/>
</a>
</g>
<text xml:space="preserve" text-anchor="start" x="126.25" y="-171.5" font-family="Helvetica,sans-Serif" font-size="10.00" fill="grey">&#45;NN</text>
<text xml:space="preserve" text-anchor="start" x="126.25" y="-155.5" font-family="Helvetica,sans-Serif" font-size="10.00" fill="grey">&#45;NNO</text>
<text xml:space="preserve" text-anchor="start" x="126.25" y="-139.5" font-family="Helvetica,sans-Serif" font-size="10.00" fill="grey">&#45;NNX</text>
</g>
<!-- Node4 -->
<g id="Node000004" class="node">
<title>Node4</title>
<g id="a_Node000004"><a xlink:href="class_neural_network.html" target="_top" xlink:title="Fully&#45;connected feedforward neural network using Layer objects.">
<polygon fill="white" stroke="none" points="208,-504 118.75,-504 118.75,-356 208,-356 208,-504"/>
<text xml:space="preserve" text-anchor="start" x="130.75" y="-490.5" font-family="Helvetica,sans-Serif" font-size="10.00">NeuralNetwork</text>
<text xml:space="preserve" text-anchor="start" x="161.88" y="-474.5" font-family="Helvetica,sans-Serif" font-size="10.00"> </text>
<text xml:space="preserve" text-anchor="start" x="122.75" y="-458.5" font-family="Helvetica,sans-Serif" font-size="10.00">+</text>
<text xml:space="preserve" text-anchor="start" x="132.75" y="-458.5" font-family="Helvetica,sans-Serif" font-size="10.00">NeuralNetwork()</text>
<text xml:space="preserve" text-anchor="start" x="122.75" y="-442.5" font-family="Helvetica,sans-Serif" font-size="10.00">+</text>
<text xml:space="preserve" text-anchor="start" x="132.75" y="-442.5" font-family="Helvetica,sans-Serif" font-size="10.00">forward()</text>
<text xml:space="preserve" text-anchor="start" x="122.75" y="-426.5" font-family="Helvetica,sans-Serif" font-size="10.00">+</text>
<text xml:space="preserve" text-anchor="start" x="132.75" y="-426.5" font-family="Helvetica,sans-Serif" font-size="10.00">backward()</text>
<text xml:space="preserve" text-anchor="start" x="122.75" y="-410.5" font-family="Helvetica,sans-Serif" font-size="10.00">+</text>
<text xml:space="preserve" text-anchor="start" x="132.75" y="-410.5" font-family="Helvetica,sans-Serif" font-size="10.00">train()</text>
<text xml:space="preserve" text-anchor="start" x="122.75" y="-394.5" font-family="Helvetica,sans-Serif" font-size="10.00">+</text>
<text xml:space="preserve" text-anchor="start" x="132.75" y="-394.5" font-family="Helvetica,sans-Serif" font-size="10.00">predict()</text>
<text xml:space="preserve" text-anchor="start" x="122.75" y="-378.5" font-family="Helvetica,sans-Serif" font-size="10.00">+</text>
<text xml:space="preserve" text-anchor="start" x="132.75" y="-378.5" font-family="Helvetica,sans-Serif" font-size="10.00">save()</text>
<text xml:space="preserve" text-anchor="start" x="122.75" y="-362.5" font-family="Helvetica,sans-Serif" font-size="10.00">+</text>
<text xml:space="preserve" text-anchor="start" x="132.75" y="-362.5" font-family="Helvetica,sans-Serif" font-size="10.00">load()</text>
<polygon fill="#666666" stroke="#666666" points="118.75,-486 118.75,-486 208,-486 208,-486 118.75,-486"/>
<polygon fill="#666666" stroke="#666666" points="118.75,-470 118.75,-470 208,-470 208,-470 118.75,-470"/>
<polygon fill="none" stroke="#666666" points="118.75,-356 118.75,-504 208,-504 208,-356 118.75,-356"/>
</a>
</g>
</g>
<!-- Node4&#45;&gt;Node3 -->
<g id="edge3_Node000003_Node000004" class="edge">
<title>Node4&#45;&gt;Node3</title>
<g id="a_edge3_Node000003_Node000004"><a xlink:title=" ">
<path fill="none" stroke="#63b8ff" d="M163.38,-356.14C163.38,-333.62 163.38,-309.73 163.38,-290.62"/>
<polygon fill="none" stroke="#63b8ff" points="163.38,-290.54 159.38,-284.54 163.38,-278.54 167.38,-284.54 163.38,-290.54"/>
</a>
</g>
<text xml:space="preserve" text-anchor="start" x="166.38" y="-325.5" font-family="Helvetica,sans-Serif" font-size="10.00" fill="grey">+ptr</text>
</g>
<!-- Node5 -->
<g id="Node000005" class="node">
<title>Node5</title>
<g id="a_Node000005"><a xlink:title=" ">
<polygon fill="white" stroke="none" points="211.62,-610 115.12,-610 115.12,-558 211.62,-558 211.62,-610"/>
<text xml:space="preserve" text-anchor="start" x="119.12" y="-596.5" font-family="Helvetica,sans-Serif" font-size="10.00">std::vector&lt; Layer &gt;</text>
<text xml:space="preserve" text-anchor="start" x="161.88" y="-580.5" font-family="Helvetica,sans-Serif" font-size="10.00"> </text>
<text xml:space="preserve" text-anchor="start" x="161.88" y="-564.5" font-family="Helvetica,sans-Serif" font-size="10.00"> </text>
<polygon fill="#666666" stroke="#666666" points="115.12,-592 115.12,-592 211.62,-592 211.62,-592 115.12,-592"/>
<polygon fill="#666666" stroke="#666666" points="115.12,-576 115.12,-576 211.62,-576 211.62,-576 115.12,-576"/>
<polygon fill="none" stroke="#666666" points="115.12,-558 115.12,-610 211.62,-610 211.62,-558 115.12,-558"/>
</a>
</g>
</g>
<!-- Node5&#45;&gt;Node4 -->
<g id="edge4_Node000004_Node000005" class="edge">
<title>Node5&#45;&gt;Node4</title>
<g id="a_edge4_Node000004_Node000005"><a xlink:title=" ">
<path fill="none" stroke="#63b8ff" d="M163.38,-558.24C163.38,-546.54 163.38,-531.81 163.38,-516.56"/>
<polygon fill="none" stroke="#63b8ff" points="163.38,-516.58 159.38,-510.58 163.38,-504.58 167.38,-510.58 163.38,-516.58"/>
</a>
</g>
<text xml:space="preserve" text-anchor="start" x="166.38" y="-527.5" font-family="Helvetica,sans-Serif" font-size="10.00" fill="grey">&#45;layers_</text>
</g>
<!-- Node6 -->
<g id="Node000006" class="node">
<title>Node6</title>
<g id="a_Node000006"><a xlink:href="class_layer.html" target="_top" xlink:title="Fully&#45;connected (dense) neural network layer.">
<polygon fill="white" stroke="none" points="207.62,-876 119.12,-876 119.12,-664 207.62,-664 207.62,-876"/>
<text xml:space="preserve" text-anchor="start" x="151.38" y="-862.5" font-family="Helvetica,sans-Serif" font-size="10.00">Layer</text>
<text xml:space="preserve" text-anchor="start" x="124.62" y="-846.5" font-family="Helvetica,sans-Serif" font-size="10.00">&#45;</text>
<text xml:space="preserve" text-anchor="start" x="133.12" y="-846.5" font-family="Helvetica,sans-Serif" font-size="10.00">inputSize_</text>
<text xml:space="preserve" text-anchor="start" x="124.62" y="-830.5" font-family="Helvetica,sans-Serif" font-size="10.00">&#45;</text>
<text xml:space="preserve" text-anchor="start" x="133.12" y="-830.5" font-family="Helvetica,sans-Serif" font-size="10.00">neuronCount_</text>
<text xml:space="preserve" text-anchor="start" x="124.62" y="-814.5" font-family="Helvetica,sans-Serif" font-size="10.00">&#45;</text>
<text xml:space="preserve" text-anchor="start" x="133.12" y="-814.5" font-family="Helvetica,sans-Serif" font-size="10.00">activationFunc_</text>
<text xml:space="preserve" text-anchor="start" x="124.62" y="-798.5" font-family="Helvetica,sans-Serif" font-size="10.00">&#45;</text>
<text xml:space="preserve" text-anchor="start" x="133.12" y="-798.5" font-family="Helvetica,sans-Serif" font-size="10.00">activationDeriv_</text>
<text xml:space="preserve" text-anchor="start" x="123.12" y="-782.5" font-family="Helvetica,sans-Serif" font-size="10.00">+</text>
<text xml:space="preserve" text-anchor="start" x="133.12" y="-782.5" font-family="Helvetica,sans-Serif" font-size="10.00">Layer()</text>
<text xml:space="preserve" text-anchor="start" x="123.12" y="-766.5" font-family="Helvetica,sans-Serif" font-size="10.00">+</text>
<text xml:space="preserve" text-anchor="start" x="133.12" y="-766.5" font-family="Helvetica,sans-Serif" font-size="10.00">forward()</text>
<text xml:space="preserve" text-anchor="start" x="123.12" y="-750.5" font-family="Helvetica,sans-Serif" font-size="10.00">+</text>
<text xml:space="preserve" text-anchor="start" x="133.12" y="-750.5" font-family="Helvetica,sans-Serif" font-size="10.00">backward()</text>
<text xml:space="preserve" text-anchor="start" x="123.12" y="-734.5" font-family="Helvetica,sans-Serif" font-size="10.00">+</text>
<text xml:space="preserve" text-anchor="start" x="133.12" y="-734.5" font-family="Helvetica,sans-Serif" font-size="10.00">output()</text>
<text xml:space="preserve" text-anchor="start" x="123.12" y="-718.5" font-family="Helvetica,sans-Serif" font-size="10.00">+</text>
<text xml:space="preserve" text-anchor="start" x="133.12" y="-718.5" font-family="Helvetica,sans-Serif" font-size="10.00">save()</text>
<text xml:space="preserve" text-anchor="start" x="123.12" y="-702.5" font-family="Helvetica,sans-Serif" font-size="10.00">+</text>
<text xml:space="preserve" text-anchor="start" x="133.12" y="-702.5" font-family="Helvetica,sans-Serif" font-size="10.00">load()</text>
<text xml:space="preserve" text-anchor="start" x="123.12" y="-686.5" font-family="Helvetica,sans-Serif" font-size="10.00">+</text>
<text xml:space="preserve" text-anchor="start" x="133.12" y="-686.5" font-family="Helvetica,sans-Serif" font-size="10.00">inputs()</text>
<text xml:space="preserve" text-anchor="start" x="123.12" y="-670.5" font-family="Helvetica,sans-Serif" font-size="10.00">+</text>
<text xml:space="preserve" text-anchor="start" x="133.12" y="-670.5" font-family="Helvetica,sans-Serif" font-size="10.00">neurons()</text>
<polygon fill="#666666" stroke="#666666" points="119.12,-858 119.12,-858 207.62,-858 207.62,-858 119.12,-858"/>
<polygon fill="#666666" stroke="#666666" points="119.12,-794 119.12,-794 131.12,-794 131.12,-794 119.12,-794"/>
<polygon fill="#666666" stroke="#666666" points="131.12,-794 131.12,-794 207.62,-794 207.62,-794 131.12,-794"/>
<polygon fill="none" stroke="#666666" points="119.12,-664 119.12,-876 207.62,-876 207.62,-664 119.12,-664"/>
</a>
</g>
</g>
<!-- Node6&#45;&gt;Node5 -->
<g id="edge5_Node000005_Node000006" class="edge">
<title>Node6&#45;&gt;Node5</title>
<g id="a_edge5_Node000005_Node000006"><a xlink:title=" ">
<path fill="none" stroke="#63b8ff" d="M163.38,-664.1C163.38,-649.32 163.38,-635 163.38,-622.7"/>
<polygon fill="none" stroke="#63b8ff" points="163.38,-622.64 159.38,-616.64 163.38,-610.64 167.38,-616.64 163.38,-622.64"/>
</a>
</g>
<text xml:space="preserve" text-anchor="start" x="166.38" y="-633.5" font-family="Helvetica,sans-Serif" font-size="10.00" fill="grey">+elements</text>
</g>
<!-- Node7 -->
<g id="Node000007" class="node">
<title>Node7</title>
<g id="a_Node000007"><a xlink:href="class_matrix.html" target="_top" xlink:title=" ">
<polygon fill="white" stroke="none" points="204.12,-1238 122.62,-1238 122.62,-994 204.12,-994 204.12,-1238"/>
<text xml:space="preserve" text-anchor="start" x="126.62" y="-1224.5" font-family="Helvetica,sans-Serif" font-size="10.00">Matrix&lt; double &gt;</text>
<text xml:space="preserve" text-anchor="start" x="130.31" y="-1208.5" font-family="Helvetica,sans-Serif" font-size="10.00">+</text>
<text xml:space="preserve" text-anchor="start" x="144" y="-1208.5" font-family="Helvetica,sans-Serif" font-size="10.00">rows</text>
<text xml:space="preserve" text-anchor="start" x="130.31" y="-1192.5" font-family="Helvetica,sans-Serif" font-size="10.00">+</text>
<text xml:space="preserve" text-anchor="start" x="144" y="-1192.5" font-family="Helvetica,sans-Serif" font-size="10.00">cols</text>
<text xml:space="preserve" text-anchor="start" x="130.31" y="-1176.5" font-family="Helvetica,sans-Serif" font-size="10.00">+</text>
<text xml:space="preserve" text-anchor="start" x="144" y="-1176.5" font-family="Helvetica,sans-Serif" font-size="10.00">Matrix()</text>
<text xml:space="preserve" text-anchor="start" x="130.31" y="-1160.5" font-family="Helvetica,sans-Serif" font-size="10.00">+</text>
<text xml:space="preserve" text-anchor="start" x="144" y="-1160.5" font-family="Helvetica,sans-Serif" font-size="10.00">operator()()</text>
<text xml:space="preserve" text-anchor="start" x="130.31" y="-1144.5" font-family="Helvetica,sans-Serif" font-size="10.00">+</text>
<text xml:space="preserve" text-anchor="start" x="144" y="-1144.5" font-family="Helvetica,sans-Serif" font-size="10.00">dataPtr()</text>
<text xml:space="preserve" text-anchor="start" x="130.31" y="-1128.5" font-family="Helvetica,sans-Serif" font-size="10.00">+</text>
<text xml:space="preserve" text-anchor="start" x="144" y="-1128.5" font-family="Helvetica,sans-Serif" font-size="10.00">apply()</text>
<text xml:space="preserve" text-anchor="start" x="130.31" y="-1112.5" font-family="Helvetica,sans-Serif" font-size="10.00">+</text>
<text xml:space="preserve" text-anchor="start" x="144" y="-1112.5" font-family="Helvetica,sans-Serif" font-size="10.00">hadamard()</text>
<text xml:space="preserve" text-anchor="start" x="130.31" y="-1096.5" font-family="Helvetica,sans-Serif" font-size="10.00">+</text>
<text xml:space="preserve" text-anchor="start" x="144" y="-1096.5" font-family="Helvetica,sans-Serif" font-size="10.00">operator+()</text>
<text xml:space="preserve" text-anchor="start" x="130.31" y="-1080.5" font-family="Helvetica,sans-Serif" font-size="10.00">+</text>
<text xml:space="preserve" text-anchor="start" x="144" y="-1080.5" font-family="Helvetica,sans-Serif" font-size="10.00">operator&#45;()</text>
<text xml:space="preserve" text-anchor="start" x="130.31" y="-1064.5" font-family="Helvetica,sans-Serif" font-size="10.00">+</text>
<text xml:space="preserve" text-anchor="start" x="144" y="-1064.5" font-family="Helvetica,sans-Serif" font-size="10.00">operator*()</text>
<text xml:space="preserve" text-anchor="start" x="130.31" y="-1048.5" font-family="Helvetica,sans-Serif" font-size="10.00">+</text>
<text xml:space="preserve" text-anchor="start" x="144" y="-1048.5" font-family="Helvetica,sans-Serif" font-size="10.00">transpose()</text>
<text xml:space="preserve" text-anchor="start" x="130.31" y="-1032.5" font-family="Helvetica,sans-Serif" font-size="10.00">+</text>
<text xml:space="preserve" text-anchor="start" x="144" y="-1032.5" font-family="Helvetica,sans-Serif" font-size="10.00">resize()</text>
<text xml:space="preserve" text-anchor="start" x="130.31" y="-1016.5" font-family="Helvetica,sans-Serif" font-size="10.00">+</text>
<text xml:space="preserve" text-anchor="start" x="144" y="-1016.5" font-family="Helvetica,sans-Serif" font-size="10.00">random()</text>
<text xml:space="preserve" text-anchor="start" x="130.31" y="-1000.5" font-family="Helvetica,sans-Serif" font-size="10.00">+</text>
<text xml:space="preserve" text-anchor="start" x="144" y="-1000.5" font-family="Helvetica,sans-Serif" font-size="10.00">multiply()</text>
<polygon fill="#666666" stroke="#666666" points="122.62,-1220 122.62,-1220 204.12,-1220 204.12,-1220 122.62,-1220"/>
<polygon fill="#666666" stroke="#666666" points="122.62,-1188 122.62,-1188 142,-1188 142,-1188 122.62,-1188"/>
<polygon fill="#666666" stroke="#666666" points="142,-1188 142,-1188 204.12,-1188 204.12,-1188 142,-1188"/>
<polygon fill="none" stroke="#666666" points="122.62,-994 122.62,-1238 204.12,-1238 204.12,-994 122.62,-994"/>
</a>
</g>
</g>
<!-- Node7&#45;&gt;Node6 -->
<g id="edge6_Node000006_Node000007" class="edge">
<title>Node7&#45;&gt;Node6</title>
<g id="a_edge6_Node000006_Node000007"><a xlink:title=" ">
<path fill="none" stroke="#63b8ff" d="M163.38,-994.2C163.38,-959.96 163.38,-922.73 163.38,-888.67"/>
<polygon fill="none" stroke="#63b8ff" points="163.38,-888.69 159.38,-882.69 163.38,-876.69 167.38,-882.69 163.38,-888.69"/>
</a>
</g>
<text xml:space="preserve" text-anchor="start" x="166.38" y="-963.5" font-family="Helvetica,sans-Serif" font-size="10.00" fill="grey">&#45;A_</text>
<text xml:space="preserve" text-anchor="start" x="166.38" y="-947.5" font-family="Helvetica,sans-Serif" font-size="10.00" fill="grey">&#45;B_</text>
<text xml:space="preserve" text-anchor="start" x="166.38" y="-931.5" font-family="Helvetica,sans-Serif" font-size="10.00" fill="grey">&#45;W_</text>
<text xml:space="preserve" text-anchor="start" x="166.38" y="-915.5" font-family="Helvetica,sans-Serif" font-size="10.00" fill="grey">&#45;Z_</text>
<text xml:space="preserve" text-anchor="start" x="166.38" y="-899.5" font-family="Helvetica,sans-Serif" font-size="10.00" fill="grey">&#45;lastInput_</text>
</g>
<!-- Node8 -->
<g id="Node000008" class="node">
<title>Node8</title>
<g id="a_Node000008"><a xlink:title=" ">
<polygon fill="white" stroke="none" points="213.88,-1344 112.88,-1344 112.88,-1292 213.88,-1292 213.88,-1344"/>
<text xml:space="preserve" text-anchor="start" x="116.88" y="-1330.5" font-family="Helvetica,sans-Serif" font-size="10.00">std::vector&lt; double &gt;</text>
<text xml:space="preserve" text-anchor="start" x="127.69" y="-1314.5" font-family="Helvetica,sans-Serif" font-size="10.00">+</text>
<text xml:space="preserve" text-anchor="start" x="148.5" y="-1314.5" font-family="Helvetica,sans-Serif" font-size="10.00">elements</text>
<text xml:space="preserve" text-anchor="start" x="161.88" y="-1298.5" font-family="Helvetica,sans-Serif" font-size="10.00"> </text>
<polygon fill="#666666" stroke="#666666" points="112.88,-1326 112.88,-1326 213.88,-1326 213.88,-1326 112.88,-1326"/>
<polygon fill="#666666" stroke="#666666" points="112.88,-1310 112.88,-1310 146.5,-1310 146.5,-1310 112.88,-1310"/>
<polygon fill="#666666" stroke="#666666" points="146.5,-1310 146.5,-1310 213.88,-1310 213.88,-1310 146.5,-1310"/>
<polygon fill="none" stroke="#666666" points="112.88,-1292 112.88,-1344 213.88,-1344 213.88,-1292 112.88,-1292"/>
</a>
</g>
</g>
<!-- Node8&#45;&gt;Node7 -->
<g id="edge7_Node000007_Node000008" class="edge">
<title>Node8&#45;&gt;Node7</title>
<g id="a_edge7_Node000007_Node000008"><a xlink:title=" ">
<path fill="none" stroke="#63b8ff" d="M163.38,-1292.07C163.38,-1280.67 163.38,-1266.2 163.38,-1250.48"/>
<polygon fill="none" stroke="#63b8ff" points="163.38,-1250.54 159.38,-1244.54 163.38,-1238.54 167.38,-1244.54 163.38,-1250.54"/>
</a>
</g>
<text xml:space="preserve" text-anchor="start" x="166.38" y="-1261.5" font-family="Helvetica,sans-Serif" font-size="10.00" fill="grey">+data</text>
</g>
</g>
</svg>
