<?xml version="1.0" encoding="UTF-8" standalone="no"?>
<!DOCTYPE svg PUBLIC "-//W3C//DTD SVG 1.1//EN"
 "http://www.w3.org/Graphics/SVG/1.1/DTD/svg11.dtd">
<!-- Generated by graphviz version 14.0.2 (20251019.1705)
 -->
<!-- Title: Custom_UI::setup_players Pages: 1 -->
<svg width="308pt" height="116pt"
 viewBox="0.00 0.00 308.00 116.00" xmlns="http://www.w3.org/2000/svg" xmlns:xlink="http://www.w3.org/1999/xlink">
<g id="graph0" class="graph" transform="scale(1 1) rotate(0) translate(4 112)">
<title>Custom_UI::setup_players</title>
<!-- Node1 -->
<g id="Node000001" class="node">
<title>Node1</title>
<g id="a_Node000001"><a xlink:title="Setup X and O players.">
<polygon fill="#999999" stroke="#666666" points="133,-70 0,-70 0,-50 133,-50 133,-70"/>
<text xml:space="preserve" text-anchor="middle" x="66.5" y="-56.5" font-family="Helvetica,sans-Serif" font-size="10.00">Custom_UI::setup_players</text>
</a>
</g>
</g>
<!-- Node2 -->
<g id="Node000002" class="node">
<title>Node2</title>
<g id="a_Node000002"><a xlink:href="$class_custom___u_i.html#abf6a27d1c9d321ee62bb496615561b1a" xlink:title="Create a player based on name, symbol, and type.">
<polygon fill="white" stroke="#666666" points="299.75,-108 169,-108 169,-88 299.75,-88 299.75,-108"/>
<text xml:space="preserve" text-anchor="middle" x="234.38" y="-94.5" font-family="Helvetica,sans-Serif" font-size="10.00">Custom_UI::create_player</text>
</a>
</g>
</g>
<!-- Node1&#45;&gt;Node2 -->
<g id="edge1_Node000001_Node000002" class="edge">
<title>Node1&#45;&gt;Node2</title>
<g id="a_edge1_Node000001_Node000002"><a xlink:title=" ">
<path fill="none" stroke="#63b8ff" d="M113.27,-70.48C132.85,-74.97 155.91,-80.25 176.57,-84.99"/>
<polygon fill="#63b8ff" stroke="#63b8ff" points="175.75,-88.39 186.28,-87.21 177.32,-81.57 175.75,-88.39"/>
</a>
</g>
</g>
<!-- Node3 -->
<g id="Node000003" class="node">
<title>Node3</title>
<g id="a_Node000003"><a xlink:href="$class_u_i.html#a7b1603de1f73fbb4006e4f00a27c44da" xlink:title="Ask the user for the player&#39;s name.">
<polygon fill="white" stroke="#666666" points="287.75,-70 181,-70 181,-50 287.75,-50 287.75,-70"/>
<text xml:space="preserve" text-anchor="middle" x="234.38" y="-56.5" font-family="Helvetica,sans-Serif" font-size="10.00">UI::get_player_name</text>
</a>
</g>
</g>
<!-- Node1&#45;&gt;Node3 -->
<g id="edge2_Node000001_Node000003" class="edge">
<title>Node1&#45;&gt;Node3</title>
<g id="a_edge2_Node000001_Node000003"><a xlink:title=" ">
<path fill="none" stroke="#63b8ff" d="M133.06,-60C145,-60 157.44,-60 169.34,-60"/>
<polygon fill="#63b8ff" stroke="#63b8ff" points="169.03,-63.5 179.03,-60 169.03,-56.5 169.03,-63.5"/>
</a>
</g>
</g>
<!-- Node4 -->
<g id="Node000004" class="node">
<title>Node4</title>
<g id="a_Node000004"><a xlink:href="$class_custom___u_i.html#afec2270d76585d04ce1365bd11e99c59" xlink:title="Ask the user to choose a player type and validate input.">
<polygon fill="white" stroke="#666666" points="293,-32 175.75,-32 175.75,0 293,0 293,-32"/>
<text xml:space="preserve" text-anchor="start" x="183.75" y="-18.5" font-family="Helvetica,sans-Serif" font-size="10.00">Custom_UI::get_player</text>
<text xml:space="preserve" text-anchor="middle" x="234.38" y="-6.5" font-family="Helvetica,sans-Serif" font-size="10.00">_type_choice</text>
</a>
</g>
</g>
<!-- Node1&#45;&gt;Node4 -->
<g id="edge3_Node000001_Node000004" class="edge">
<title>Node1&#45;&gt;Node4</title>
<g id="a_edge3_Node000001_Node000004"><a xlink:title=" ">
<path fill="none" stroke="#63b8ff" d="M106.81,-49.57C124.03,-45.01 144.75,-39.51 164.4,-34.3"/>
<polygon fill="#63b8ff" stroke="#63b8ff" points="165.26,-37.69 174.03,-31.74 163.47,-30.92 165.26,-37.69"/>
</a>
</g>
</g>
</g>
</svg>
