<?xml version="1.0" encoding="UTF-8" standalone="no"?>
<!DOCTYPE svg PUBLIC "-//W3C//DTD SVG 1.1//EN"
 "http://www.w3.org/Graphics/SVG/1.1/DTD/svg11.dtd">
<!-- Generated by graphviz version 14.0.2 (20251019.1705)
 -->
<!-- Title: Word_XO_Board::is_draw Pages: 1 -->
<svg width="472pt" height="66pt"
 viewBox="0.00 0.00 472.00 66.00" xmlns="http://www.w3.org/2000/svg" xmlns:xlink="http://www.w3.org/1999/xlink">
<g id="graph0" class="graph" transform="scale(1 1) rotate(0) translate(4 62)">
<title>Word_XO_Board::is_draw</title>
<!-- Node1 -->
<g id="Node000001" class="node">
<title>Node1</title>
<g id="a_Node000001"><a xlink:title="Check if the game ended in a draw.">
<polygon fill="#999999" stroke="#666666" points="128.5,-39 0,-39 0,-19 128.5,-19 128.5,-39"/>
<text xml:space="preserve" text-anchor="middle" x="64.25" y="-25.5" font-family="Helvetica,sans-Serif" font-size="10.00">Word_XO_Board::is_draw</text>
</a>
</g>
</g>
<!-- Node2 -->
<g id="Node000002" class="node">
<title>Node2</title>
<g id="a_Node000002"><a xlink:href="class_word___x_o___board.html#ad8b61980c76bb5bb7427737b517e3972" target="_top" xlink:title="Check if a player has lost.">
<polygon fill="white" stroke="#666666" points="290,-58 164.5,-58 164.5,-38 290,-38 290,-58"/>
<text xml:space="preserve" text-anchor="middle" x="227.25" y="-44.5" font-family="Helvetica,sans-Serif" font-size="10.00">Word_XO_Board::is_lose</text>
</a>
</g>
</g>
<!-- Node1&#45;&gt;Node2 -->
<g id="edge1_Node000001_Node000002" class="edge">
<title>Node1&#45;&gt;Node2</title>
<g id="a_edge1_Node000001_Node000002"><a xlink:title=" ">
<path fill="none" stroke="#63b8ff" d="M128.88,-36.51C136.77,-37.44 144.88,-38.4 152.9,-39.34"/>
<polygon fill="#63b8ff" stroke="#63b8ff" points="152.29,-42.8 162.63,-40.49 153.11,-35.84 152.29,-42.8"/>
</a>
</g>
</g>
<!-- Node4 -->
<g id="Node000004" class="node">
<title>Node4</title>
<g id="a_Node000004"><a xlink:href="class_word___x_o___board.html#acd3b0a4f466b07fe90f1485b876d58fb" target="_top" xlink:title="Check if a player has won.">
<polygon fill="white" stroke="#666666" points="288.5,-20 166,-20 166,0 288.5,0 288.5,-20"/>
<text xml:space="preserve" text-anchor="middle" x="227.25" y="-6.5" font-family="Helvetica,sans-Serif" font-size="10.00">Word_XO_Board::is_win</text>
</a>
</g>
</g>
<!-- Node1&#45;&gt;Node4 -->
<g id="edge3_Node000001_Node000004" class="edge">
<title>Node1&#45;&gt;Node4</title>
<g id="a_edge3_Node000001_Node000004"><a xlink:title=" ">
<path fill="none" stroke="#63b8ff" d="M128.88,-21.49C137.22,-20.51 145.81,-19.49 154.28,-18.49"/>
<polygon fill="#63b8ff" stroke="#63b8ff" points="154.68,-21.97 164.2,-17.32 153.86,-15.02 154.68,-21.97"/>
</a>
</g>
</g>
<!-- Node3 -->
<g id="Node000003" class="node">
<title>Node3</title>
<g id="a_Node000003"><a xlink:href="class_word___x_o___board.html#a9c29ef4e7ba4a134a7137ad88414ed49" target="_top" xlink:title="Check if any valid word exists on the board.">
<polygon fill="white" stroke="#666666" points="464.25,-39 326,-39 326,-19 464.25,-19 464.25,-39"/>
<text xml:space="preserve" text-anchor="middle" x="395.12" y="-25.5" font-family="Helvetica,sans-Serif" font-size="10.00">Word_XO_Board::wordExist</text>
</a>
</g>
</g>
<!-- Node2&#45;&gt;Node3 -->
<g id="edge2_Node000002_Node000003" class="edge">
<title>Node2&#45;&gt;Node3</title>
<g id="a_edge2_Node000002_Node000003"><a xlink:title=" ">
<path fill="none" stroke="#63b8ff" d="M290.49,-40.87C298.3,-39.98 306.37,-39.05 314.4,-38.13"/>
<polygon fill="#63b8ff" stroke="#63b8ff" points="314.66,-41.63 324.19,-37.01 313.86,-34.67 314.66,-41.63"/>
</a>
</g>
</g>
<!-- Node4&#45;&gt;Node3 -->
<g id="edge4_Node000004_Node000003" class="edge">
<title>Node4&#45;&gt;Node3</title>
<g id="a_edge4_Node000004_Node000003"><a xlink:title=" ">
<path fill="none" stroke="#63b8ff" d="M288.6,-16.91C296.98,-17.87 305.68,-18.87 314.34,-19.86"/>
<polygon fill="#63b8ff" stroke="#63b8ff" points="313.83,-23.33 324.16,-20.99 314.63,-16.37 313.83,-23.33"/>
</a>
</g>
</g>
</g>
</svg>
