<?xml version="1.0" encoding="UTF-8" standalone="no"?>
<!DOCTYPE svg PUBLIC "-//W3C//DTD SVG 1.1//EN"
 "http://www.w3.org/Graphics/SVG/1.1/DTD/svg11.dtd">
<!-- Generated by graphviz version 14.0.2 (20251019.1705)
 -->
<!-- Title: Four_AI::evaluate Pages: 1 -->
<svg width="237pt" height="66pt"
 viewBox="0.00 0.00 237.00 66.00" xmlns="http://www.w3.org/2000/svg" xmlns:xlink="http://www.w3.org/1999/xlink">
<g id="graph0" class="graph" transform="scale(1 1) rotate(0) translate(4 62)">
<title>Four_AI::evaluate</title>
<!-- Node1 -->
<g id="Node000001" class="node">
<title>Node1</title>
<g id="a_Node000001"><a xlink:title="Evaluates current board state.">
<polygon fill="#999999" stroke="#666666" points="93.25,-39 0,-39 0,-19 93.25,-19 93.25,-39"/>
<text xml:space="preserve" text-anchor="middle" x="46.62" y="-25.5" font-family="Helvetica,sans-Serif" font-size="10.00">Four_AI::evaluate</text>
</a>
</g>
</g>
<!-- Node2 -->
<g id="Node000002" class="node">
<title>Node2</title>
<g id="a_Node000002"><a xlink:href="$class_board.html#a93558c58e60ca4291c6044828afd260b" xlink:title="Return content of cell x, y in current board.">
<polygon fill="white" stroke="#666666" points="219.88,-58 138.62,-58 138.62,-38 219.88,-38 219.88,-58"/>
<text xml:space="preserve" text-anchor="middle" x="179.25" y="-44.5" font-family="Helvetica,sans-Serif" font-size="10.00">Board::get_cell</text>
</a>
</g>
</g>
<!-- Node1&#45;&gt;Node2 -->
<g id="edge1_Node000001_Node000002" class="edge">
<title>Node1&#45;&gt;Node2</title>
<g id="a_edge1_Node000001_Node000002"><a xlink:title=" ">
<path fill="none" stroke="#63b8ff" d="M93.68,-35.7C104.47,-37.27 116.04,-38.95 127.04,-40.55"/>
<polygon fill="#63b8ff" stroke="#63b8ff" points="126.35,-43.99 136.75,-41.96 127.36,-37.06 126.35,-43.99"/>
</a>
</g>
</g>
<!-- Node3 -->
<g id="Node000003" class="node">
<title>Node3</title>
<g id="a_Node000003"><a xlink:href="$class_player.html#af56f0bf98c0423a3a75b0848607d03a4" xlink:title="Get the player&#39;s symbol.">
<polygon fill="white" stroke="#666666" points="229.25,-20 129.25,-20 129.25,0 229.25,0 229.25,-20"/>
<text xml:space="preserve" text-anchor="middle" x="179.25" y="-6.5" font-family="Helvetica,sans-Serif" font-size="10.00">Player::get_symbol</text>
</a>
</g>
</g>
<!-- Node1&#45;&gt;Node3 -->
<g id="edge2_Node000001_Node000003" class="edge">
<title>Node1&#45;&gt;Node3</title>
<g id="a_edge2_Node000001_Node000003"><a xlink:title=" ">
<path fill="none" stroke="#63b8ff" d="M93.68,-22.3C101.47,-21.17 109.66,-19.98 117.75,-18.8"/>
<polygon fill="#63b8ff" stroke="#63b8ff" points="118.18,-22.27 127.57,-17.37 117.17,-15.35 118.18,-22.27"/>
</a>
</g>
</g>
</g>
</svg>
