<?xml version="1.0" encoding="UTF-8" standalone="no"?>
<!DOCTYPE svg PUBLIC "-//W3C//DTD SVG 1.1//EN"
 "http://www.w3.org/Graphics/SVG/1.1/DTD/svg11.dtd">
<!-- Generated by graphviz version 14.0.2 (20251019.1705)
 -->
<!-- Title: Word_XO_UI Pages: 1 -->
<svg width="254pt" height="512pt"
 viewBox="0.00 0.00 254.00 512.00" xmlns="http://www.w3.org/2000/svg" xmlns:xlink="http://www.w3.org/1999/xlink">
<g id="graph0" class="graph" transform="scale(1 1) rotate(0) translate(4 508)">
<title>Word_XO_UI</title>
<!-- Node1 -->
<g id="Node000001" class="node">
<title>Node1</title>
<g id="a_Node000001"><a xlink:title="User interface for Word Tic&#45;Tac&#45;Toe.">
<polygon fill="#999999" stroke="none" points="169.25,-84 87.5,-84 87.5,0 169.25,0 169.25,-84"/>
<text xml:space="preserve" text-anchor="start" x="99.5" y="-70.5" font-family="Helvetica,sans-Serif" font-size="10.00">Word_XO_UI</text>
<text xml:space="preserve" text-anchor="start" x="126.88" y="-54.5" font-family="Helvetica,sans-Serif" font-size="10.00"> </text>
<text xml:space="preserve" text-anchor="start" x="91.5" y="-38.5" font-family="Helvetica,sans-Serif" font-size="10.00">+</text>
<text xml:space="preserve" text-anchor="start" x="101.5" y="-38.5" font-family="Helvetica,sans-Serif" font-size="10.00">Word_XO_UI()</text>
<text xml:space="preserve" text-anchor="start" x="91.5" y="-22.5" font-family="Helvetica,sans-Serif" font-size="10.00">+</text>
<text xml:space="preserve" text-anchor="start" x="101.5" y="-22.5" font-family="Helvetica,sans-Serif" font-size="10.00">get_move()</text>
<text xml:space="preserve" text-anchor="start" x="91.5" y="-6.5" font-family="Helvetica,sans-Serif" font-size="10.00">+</text>
<text xml:space="preserve" text-anchor="start" x="101.5" y="-6.5" font-family="Helvetica,sans-Serif" font-size="10.00">evaluate()</text>
<polygon fill="#666666" stroke="#666666" points="87.5,-66 87.5,-66 169.25,-66 169.25,-66 87.5,-66"/>
<polygon fill="#666666" stroke="#666666" points="87.5,-50 87.5,-50 169.25,-50 169.25,-50 87.5,-50"/>
<polygon fill="none" stroke="#666666" points="87.5,0 87.5,-84 169.25,-84 169.25,0 87.5,0"/>
</a>
</g>
</g>
<!-- Node2 -->
<g id="Node000002" class="node">
<title>Node2</title>
<g id="a_Node000002"><a xlink:href="class_custom___u_i.html" target="_top" xlink:title=" ">
<polygon fill="white" stroke="none" points="126.75,-270 0,-270 0,-138 126.75,-138 126.75,-270"/>
<text xml:space="preserve" text-anchor="start" x="19.88" y="-256.5" font-family="Helvetica,sans-Serif" font-size="10.00">Custom_UI&lt; char &gt;</text>
<text xml:space="preserve" text-anchor="start" x="61.88" y="-240.5" font-family="Helvetica,sans-Serif" font-size="10.00"> </text>
<text xml:space="preserve" text-anchor="start" x="4" y="-224.5" font-family="Helvetica,sans-Serif" font-size="10.00">+</text>
<text xml:space="preserve" text-anchor="start" x="14" y="-224.5" font-family="Helvetica,sans-Serif" font-size="10.00">Custom_UI()</text>
<text xml:space="preserve" text-anchor="start" x="4" y="-208.5" font-family="Helvetica,sans-Serif" font-size="10.00">+</text>
<text xml:space="preserve" text-anchor="start" x="14" y="-208.5" font-family="Helvetica,sans-Serif" font-size="10.00">display_message()</text>
<text xml:space="preserve" text-anchor="start" x="4" y="-192.5" font-family="Helvetica,sans-Serif" font-size="10.00">+</text>
<text xml:space="preserve" text-anchor="start" x="14" y="-192.5" font-family="Helvetica,sans-Serif" font-size="10.00">create_player()</text>
<text xml:space="preserve" text-anchor="start" x="4" y="-176.5" font-family="Helvetica,sans-Serif" font-size="10.00">+</text>
<text xml:space="preserve" text-anchor="start" x="14" y="-176.5" font-family="Helvetica,sans-Serif" font-size="10.00">setup_players()</text>
<text xml:space="preserve" text-anchor="start" x="4" y="-160.5" font-family="Helvetica,sans-Serif" font-size="10.00">+</text>
<text xml:space="preserve" text-anchor="start" x="14" y="-160.5" font-family="Helvetica,sans-Serif" font-size="10.00">display_board_matrix()</text>
<text xml:space="preserve" text-anchor="start" x="4.38" y="-144.5" font-family="Helvetica,sans-Serif" font-size="10.00">#</text>
<text xml:space="preserve" text-anchor="start" x="14" y="-144.5" font-family="Helvetica,sans-Serif" font-size="10.00">get_player_type_choice()</text>
<polygon fill="#666666" stroke="#666666" points="0,-252 0,-252 126.75,-252 126.75,-252 0,-252"/>
<polygon fill="#666666" stroke="#666666" points="0,-236 0,-236 126.75,-236 126.75,-236 0,-236"/>
<polygon fill="none" stroke="#666666" points="0,-138 0,-270 126.75,-270 126.75,-138 0,-138"/>
</a>
</g>
</g>
<!-- Node2&#45;&gt;Node1 -->
<g id="edge1_Node000001_Node000002" class="edge">
<title>Node2&#45;&gt;Node1</title>
<g id="a_edge1_Node000001_Node000002"><a xlink:title=" ">
<path fill="none" stroke="#63b8ff" d="M93.86,-127.95C100.03,-112.78 106.28,-97.38 111.75,-83.93"/>
<polygon fill="none" stroke="#63b8ff" points="90.72,-126.4 90.2,-136.98 97.2,-129.03 90.72,-126.4"/>
</a>
</g>
</g>
<!-- Node3 -->
<g id="Node000003" class="node">
<title>Node3</title>
<g id="a_Node000003"><a xlink:href="class_u_i.html" target="_top" xlink:title=" ">
<polygon fill="white" stroke="none" points="126.75,-504 0,-504 0,-324 126.75,-324 126.75,-504"/>
<text xml:space="preserve" text-anchor="start" x="39.75" y="-490.5" font-family="Helvetica,sans-Serif" font-size="10.00">UI&lt; char &gt;</text>
<text xml:space="preserve" text-anchor="start" x="4.38" y="-474.5" font-family="Helvetica,sans-Serif" font-size="10.00">#</text>
<text xml:space="preserve" text-anchor="start" x="14" y="-474.5" font-family="Helvetica,sans-Serif" font-size="10.00">cell_width</text>
<text xml:space="preserve" text-anchor="start" x="4" y="-458.5" font-family="Helvetica,sans-Serif" font-size="10.00">+</text>
<text xml:space="preserve" text-anchor="start" x="14" y="-458.5" font-family="Helvetica,sans-Serif" font-size="10.00">UI()</text>
<text xml:space="preserve" text-anchor="start" x="4" y="-442.5" font-family="Helvetica,sans-Serif" font-size="10.00">+</text>
<text xml:space="preserve" text-anchor="start" x="14" y="-442.5" font-family="Helvetica,sans-Serif" font-size="10.00">~UI()</text>
<text xml:space="preserve" text-anchor="start" x="4" y="-426.5" font-family="Helvetica,sans-Serif" font-size="10.00">+</text>
<text xml:space="preserve" text-anchor="start" x="14" y="-426.5" font-family="Helvetica,sans-Serif" font-size="10.00">display_message()</text>
<text xml:space="preserve" text-anchor="start" x="4" y="-410.5" font-family="Helvetica,sans-Serif" font-size="10.00">+</text>
<text xml:space="preserve" text-anchor="start" x="14" y="-410.5" font-family="Helvetica,sans-Serif" font-size="10.00">get_move()</text>
<text xml:space="preserve" text-anchor="start" x="4" y="-394.5" font-family="Helvetica,sans-Serif" font-size="10.00">+</text>
<text xml:space="preserve" text-anchor="start" x="14" y="-394.5" font-family="Helvetica,sans-Serif" font-size="10.00">setup_players()</text>
<text xml:space="preserve" text-anchor="start" x="4" y="-378.5" font-family="Helvetica,sans-Serif" font-size="10.00">+</text>
<text xml:space="preserve" text-anchor="start" x="14" y="-378.5" font-family="Helvetica,sans-Serif" font-size="10.00">create_player()</text>
<text xml:space="preserve" text-anchor="start" x="4" y="-362.5" font-family="Helvetica,sans-Serif" font-size="10.00">+</text>
<text xml:space="preserve" text-anchor="start" x="14" y="-362.5" font-family="Helvetica,sans-Serif" font-size="10.00">display_board_matrix()</text>
<text xml:space="preserve" text-anchor="start" x="4.38" y="-346.5" font-family="Helvetica,sans-Serif" font-size="10.00">#</text>
<text xml:space="preserve" text-anchor="start" x="14" y="-346.5" font-family="Helvetica,sans-Serif" font-size="10.00">get_player_name()</text>
<text xml:space="preserve" text-anchor="start" x="4.38" y="-330.5" font-family="Helvetica,sans-Serif" font-size="10.00">#</text>
<text xml:space="preserve" text-anchor="start" x="14" y="-330.5" font-family="Helvetica,sans-Serif" font-size="10.00">get_player_type_choice()</text>
<polygon fill="#666666" stroke="#666666" points="0,-486 0,-486 126.75,-486 126.75,-486 0,-486"/>
<polygon fill="#666666" stroke="#666666" points="0,-470 0,-470 12,-470 12,-470 0,-470"/>
<polygon fill="#666666" stroke="#666666" points="12,-470 12,-470 126.75,-470 126.75,-470 12,-470"/>
<polygon fill="none" stroke="#666666" points="0,-324 0,-504 126.75,-504 126.75,-324 0,-324"/>
</a>
</g>
</g>
<!-- Node3&#45;&gt;Node2 -->
<g id="edge2_Node000002_Node000003" class="edge">
<title>Node3&#45;&gt;Node2</title>
<g id="a_edge2_Node000002_Node000003"><a xlink:title=" ">
<path fill="none" stroke="#63b8ff" d="M63.38,-313.02C63.38,-298.38 63.38,-283.62 63.38,-269.92"/>
<polygon fill="none" stroke="#63b8ff" points="59.88,-312.67 63.38,-322.67 66.88,-312.67 59.88,-312.67"/>
</a>
</g>
</g>
<!-- Node4 -->
<g id="Node000004" class="node">
<title>Node4</title>
<g id="a_Node000004"><a xlink:title=" ">
<polygon fill="white" stroke="none" points="243.75,-236 145,-236 145,-172 243.75,-172 243.75,-236"/>
<text xml:space="preserve" text-anchor="start" x="149" y="-222.5" font-family="Helvetica,sans-Serif" font-size="10.00">std::vector&lt; std::pair</text>
<text xml:space="preserve" text-anchor="start" x="163.25" y="-210.5" font-family="Helvetica,sans-Serif" font-size="10.00">&lt; int, char &gt; &gt;</text>
<text xml:space="preserve" text-anchor="start" x="192.88" y="-194.5" font-family="Helvetica,sans-Serif" font-size="10.00"> </text>
<text xml:space="preserve" text-anchor="start" x="192.88" y="-178.5" font-family="Helvetica,sans-Serif" font-size="10.00"> </text>
<polygon fill="#666666" stroke="#666666" points="145,-206 145,-206 243.75,-206 243.75,-206 145,-206"/>
<polygon fill="#666666" stroke="#666666" points="145,-190 145,-190 243.75,-190 243.75,-190 145,-190"/>
<polygon fill="none" stroke="#666666" points="145,-172 145,-236 243.75,-236 243.75,-172 145,-172"/>
</a>
</g>
</g>
<!-- Node4&#45;&gt;Node1 -->
<g id="edge3_Node000001_Node000004" class="edge">
<title>Node4&#45;&gt;Node1</title>
<g id="a_edge3_Node000001_Node000004"><a xlink:title=" ">
<path fill="none" stroke="#63b8ff" d="M181.65,-172.15C172.73,-150.53 160.59,-121.1 150.15,-95.79"/>
<polygon fill="none" stroke="#63b8ff" points="150.1,-95.68 144.12,-91.66 145.53,-84.58 151.51,-88.6 150.1,-95.68"/>
</a>
</g>
<text xml:space="preserve" text-anchor="start" x="162.4" y="-107.5" font-family="Helvetica,sans-Serif" font-size="10.00" fill="grey">+score</text>
</g>
<!-- Node5 -->
<g id="Node000005" class="node">
<title>Node5</title>
<g id="a_Node000005"><a xlink:title=" ">
<polygon fill="white" stroke="none" points="242.62,-448 146.12,-448 146.12,-380 242.62,-380 242.62,-448"/>
<text xml:space="preserve" text-anchor="start" x="150.12" y="-434.5" font-family="Helvetica,sans-Serif" font-size="10.00">std::pair&lt; int, char &gt;</text>
<text xml:space="preserve" text-anchor="start" x="155.88" y="-418.5" font-family="Helvetica,sans-Serif" font-size="10.00">+</text>
<text xml:space="preserve" text-anchor="start" x="171.62" y="-418.5" font-family="Helvetica,sans-Serif" font-size="10.00">first_type</text>
<text xml:space="preserve" text-anchor="start" x="155.88" y="-402.5" font-family="Helvetica,sans-Serif" font-size="10.00">+</text>
<text xml:space="preserve" text-anchor="start" x="171.62" y="-402.5" font-family="Helvetica,sans-Serif" font-size="10.00">second_type</text>
<text xml:space="preserve" text-anchor="start" x="192.88" y="-386.5" font-family="Helvetica,sans-Serif" font-size="10.00"> </text>
<polygon fill="#666666" stroke="#666666" points="146.12,-430 146.12,-430 242.62,-430 242.62,-430 146.12,-430"/>
<polygon fill="#666666" stroke="#666666" points="146.12,-398 146.12,-398 169.62,-398 169.62,-398 146.12,-398"/>
<polygon fill="#666666" stroke="#666666" points="169.62,-398 169.62,-398 242.62,-398 242.62,-398 169.62,-398"/>
<polygon fill="none" stroke="#666666" points="146.12,-380 146.12,-448 242.62,-448 242.62,-380 146.12,-380"/>
</a>
</g>
</g>
<!-- Node5&#45;&gt;Node4 -->
<g id="edge4_Node000004_Node000005" class="edge">
<title>Node5&#45;&gt;Node4</title>
<g id="a_edge4_Node000004_Node000005"><a xlink:title=" ">
<path fill="none" stroke="#63b8ff" d="M194.38,-380.04C194.38,-344.51 194.38,-287.79 194.38,-248.59"/>
<polygon fill="none" stroke="#63b8ff" points="194.38,-248.67 190.38,-242.67 194.38,-236.67 198.38,-242.67 194.38,-248.67"/>
</a>
</g>
<text xml:space="preserve" text-anchor="start" x="197.38" y="-293.5" font-family="Helvetica,sans-Serif" font-size="10.00" fill="grey">+elements</text>
</g>
</g>
</svg>
