<?xml version="1.0" encoding="UTF-8" standalone="no"?>
<!DOCTYPE svg PUBLIC "-//W3C//DTD SVG 1.1//EN"
 "http://www.w3.org/Graphics/SVG/1.1/DTD/svg11.dtd">
<!-- Generated by graphviz version 14.0.2 (20251019.1705)
 -->
<!-- Title: Ultimate_Board Pages: 1 -->
<svg width="214pt" height="619pt"
 viewBox="0.00 0.00 214.00 619.00" xmlns="http://www.w3.org/2000/svg" xmlns:xlink="http://www.w3.org/1999/xlink">
<g id="graph0" class="graph" transform="scale(1 1) rotate(0) translate(4 615)">
<title>Ultimate_Board</title>
<!-- Node1 -->
<g id="Node000001" class="node">
<title>Node1</title>
<g id="a_Node000001"><a xlink:title="Represents a 9x9 Ultimate Tic&#45;Tac&#45;Toe board.">
<polygon fill="#999999" stroke="none" points="128.75,-212 5.75,-212 5.75,0 128.75,0 128.75,-212"/>
<text xml:space="preserve" text-anchor="start" x="33.5" y="-198.5" font-family="Helvetica,sans-Serif" font-size="10.00">Ultimate_Board</text>
<text xml:space="preserve" text-anchor="start" x="11.25" y="-182.5" font-family="Helvetica,sans-Serif" font-size="10.00">&#45;</text>
<text xml:space="preserve" text-anchor="start" x="19.75" y="-182.5" font-family="Helvetica,sans-Serif" font-size="10.00">blank_symbol</text>
<text xml:space="preserve" text-anchor="start" x="11.25" y="-166.5" font-family="Helvetica,sans-Serif" font-size="10.00">&#45;</text>
<text xml:space="preserve" text-anchor="start" x="19.75" y="-166.5" font-family="Helvetica,sans-Serif" font-size="10.00">small_board</text>
<text xml:space="preserve" text-anchor="start" x="11.25" y="-150.5" font-family="Helvetica,sans-Serif" font-size="10.00">&#45;</text>
<text xml:space="preserve" text-anchor="start" x="19.75" y="-150.5" font-family="Helvetica,sans-Serif" font-size="10.00">full</text>
<text xml:space="preserve" text-anchor="start" x="11.25" y="-134.5" font-family="Helvetica,sans-Serif" font-size="10.00">&#45;</text>
<text xml:space="preserve" text-anchor="start" x="19.75" y="-134.5" font-family="Helvetica,sans-Serif" font-size="10.00">win</text>
<text xml:space="preserve" text-anchor="start" x="9.75" y="-118.5" font-family="Helvetica,sans-Serif" font-size="10.00">+</text>
<text xml:space="preserve" text-anchor="start" x="19.75" y="-118.5" font-family="Helvetica,sans-Serif" font-size="10.00">Ultimate_Board()</text>
<text xml:space="preserve" text-anchor="start" x="9.75" y="-102.5" font-family="Helvetica,sans-Serif" font-size="10.00">+</text>
<text xml:space="preserve" text-anchor="start" x="19.75" y="-102.5" font-family="Helvetica,sans-Serif" font-size="10.00">update_board()</text>
<text xml:space="preserve" text-anchor="start" x="9.75" y="-86.5" font-family="Helvetica,sans-Serif" font-size="10.00">+</text>
<text xml:space="preserve" text-anchor="start" x="19.75" y="-86.5" font-family="Helvetica,sans-Serif" font-size="10.00">is_win()</text>
<text xml:space="preserve" text-anchor="start" x="9.75" y="-70.5" font-family="Helvetica,sans-Serif" font-size="10.00">+</text>
<text xml:space="preserve" text-anchor="start" x="19.75" y="-70.5" font-family="Helvetica,sans-Serif" font-size="10.00">is_draw()</text>
<text xml:space="preserve" text-anchor="start" x="9.75" y="-54.5" font-family="Helvetica,sans-Serif" font-size="10.00">+</text>
<text xml:space="preserve" text-anchor="start" x="19.75" y="-54.5" font-family="Helvetica,sans-Serif" font-size="10.00">is_lose()</text>
<text xml:space="preserve" text-anchor="start" x="9.75" y="-38.5" font-family="Helvetica,sans-Serif" font-size="10.00">+</text>
<text xml:space="preserve" text-anchor="start" x="19.75" y="-38.5" font-family="Helvetica,sans-Serif" font-size="10.00">game_is_over()</text>
<text xml:space="preserve" text-anchor="start" x="9.75" y="-22.5" font-family="Helvetica,sans-Serif" font-size="10.00">+</text>
<text xml:space="preserve" text-anchor="start" x="19.75" y="-22.5" font-family="Helvetica,sans-Serif" font-size="10.00">small_board_check()</text>
<text xml:space="preserve" text-anchor="start" x="9.75" y="-6.5" font-family="Helvetica,sans-Serif" font-size="10.00">+</text>
<text xml:space="preserve" text-anchor="start" x="19.75" y="-6.5" font-family="Helvetica,sans-Serif" font-size="10.00">all_small_boards_done()</text>
<polygon fill="#666666" stroke="#666666" points="5.75,-194 5.75,-194 128.75,-194 128.75,-194 5.75,-194"/>
<polygon fill="#666666" stroke="#666666" points="5.75,-130 5.75,-130 17.75,-130 17.75,-130 5.75,-130"/>
<polygon fill="#666666" stroke="#666666" points="17.75,-130 17.75,-130 128.75,-130 128.75,-130 17.75,-130"/>
<polygon fill="none" stroke="#666666" points="5.75,0 5.75,-212 128.75,-212 128.75,0 5.75,0"/>
</a>
</g>
</g>
<!-- Node2 -->
<g id="Node000002" class="node">
<title>Node2</title>
<g id="a_Node000002"><a xlink:href="$class_board.html" xlink:title=" ">
<polygon fill="white" stroke="none" points="205.75,-493 106.75,-493 106.75,-249 205.75,-249 205.75,-493"/>
<text xml:space="preserve" text-anchor="start" x="125.12" y="-479.5" font-family="Helvetica,sans-Serif" font-size="10.00">Board&lt; char &gt;</text>
<text xml:space="preserve" text-anchor="start" x="111.12" y="-463.5" font-family="Helvetica,sans-Serif" font-size="10.00">#</text>
<text xml:space="preserve" text-anchor="start" x="120.75" y="-463.5" font-family="Helvetica,sans-Serif" font-size="10.00">rows</text>
<text xml:space="preserve" text-anchor="start" x="111.12" y="-447.5" font-family="Helvetica,sans-Serif" font-size="10.00">#</text>
<text xml:space="preserve" text-anchor="start" x="120.75" y="-447.5" font-family="Helvetica,sans-Serif" font-size="10.00">columns</text>
<text xml:space="preserve" text-anchor="start" x="111.12" y="-431.5" font-family="Helvetica,sans-Serif" font-size="10.00">#</text>
<text xml:space="preserve" text-anchor="start" x="120.75" y="-431.5" font-family="Helvetica,sans-Serif" font-size="10.00">n_moves</text>
<text xml:space="preserve" text-anchor="start" x="110.75" y="-415.5" font-family="Helvetica,sans-Serif" font-size="10.00">+</text>
<text xml:space="preserve" text-anchor="start" x="120.75" y="-415.5" font-family="Helvetica,sans-Serif" font-size="10.00">Board()</text>
<text xml:space="preserve" text-anchor="start" x="110.75" y="-399.5" font-family="Helvetica,sans-Serif" font-size="10.00">+</text>
<text xml:space="preserve" text-anchor="start" x="120.75" y="-399.5" font-family="Helvetica,sans-Serif" font-size="10.00">~Board()</text>
<text xml:space="preserve" text-anchor="start" x="110.75" y="-383.5" font-family="Helvetica,sans-Serif" font-size="10.00">+</text>
<text xml:space="preserve" text-anchor="start" x="120.75" y="-383.5" font-family="Helvetica,sans-Serif" font-size="10.00">update_board()</text>
<text xml:space="preserve" text-anchor="start" x="110.75" y="-367.5" font-family="Helvetica,sans-Serif" font-size="10.00">+</text>
<text xml:space="preserve" text-anchor="start" x="120.75" y="-367.5" font-family="Helvetica,sans-Serif" font-size="10.00">is_win()</text>
<text xml:space="preserve" text-anchor="start" x="110.75" y="-351.5" font-family="Helvetica,sans-Serif" font-size="10.00">+</text>
<text xml:space="preserve" text-anchor="start" x="120.75" y="-351.5" font-family="Helvetica,sans-Serif" font-size="10.00">is_lose()</text>
<text xml:space="preserve" text-anchor="start" x="110.75" y="-335.5" font-family="Helvetica,sans-Serif" font-size="10.00">+</text>
<text xml:space="preserve" text-anchor="start" x="120.75" y="-335.5" font-family="Helvetica,sans-Serif" font-size="10.00">is_draw()</text>
<text xml:space="preserve" text-anchor="start" x="110.75" y="-319.5" font-family="Helvetica,sans-Serif" font-size="10.00">+</text>
<text xml:space="preserve" text-anchor="start" x="120.75" y="-319.5" font-family="Helvetica,sans-Serif" font-size="10.00">game_is_over()</text>
<text xml:space="preserve" text-anchor="start" x="110.75" y="-303.5" font-family="Helvetica,sans-Serif" font-size="10.00">+</text>
<text xml:space="preserve" text-anchor="start" x="120.75" y="-303.5" font-family="Helvetica,sans-Serif" font-size="10.00">get_board_matrix()</text>
<text xml:space="preserve" text-anchor="start" x="110.75" y="-287.5" font-family="Helvetica,sans-Serif" font-size="10.00">+</text>
<text xml:space="preserve" text-anchor="start" x="120.75" y="-287.5" font-family="Helvetica,sans-Serif" font-size="10.00">get_rows()</text>
<text xml:space="preserve" text-anchor="start" x="110.75" y="-271.5" font-family="Helvetica,sans-Serif" font-size="10.00">+</text>
<text xml:space="preserve" text-anchor="start" x="120.75" y="-271.5" font-family="Helvetica,sans-Serif" font-size="10.00">get_columns()</text>
<text xml:space="preserve" text-anchor="start" x="110.75" y="-255.5" font-family="Helvetica,sans-Serif" font-size="10.00">+</text>
<text xml:space="preserve" text-anchor="start" x="120.75" y="-255.5" font-family="Helvetica,sans-Serif" font-size="10.00">get_cell()</text>
<polygon fill="#666666" stroke="#666666" points="106.75,-475 106.75,-475 205.75,-475 205.75,-475 106.75,-475"/>
<polygon fill="#666666" stroke="#666666" points="106.75,-427 106.75,-427 118.75,-427 118.75,-427 106.75,-427"/>
<polygon fill="#666666" stroke="#666666" points="118.75,-427 118.75,-427 205.75,-427 205.75,-427 118.75,-427"/>
<polygon fill="none" stroke="#666666" points="106.75,-249 106.75,-493 205.75,-493 205.75,-249 106.75,-249"/>
</a>
</g>
</g>
<!-- Node2&#45;&gt;Node1 -->
<g id="edge1_Node000001_Node000002" class="edge">
<title>Node2&#45;&gt;Node1</title>
<g id="a_edge1_Node000001_Node000002"><a xlink:title=" ">
<path fill="none" stroke="#63b8ff" d="M111.8,-238.66C108.74,-229.61 105.68,-220.55 102.67,-211.67"/>
<polygon fill="none" stroke="#63b8ff" points="108.39,-239.49 114.91,-247.84 115.02,-237.25 108.39,-239.49"/>
</a>
</g>
</g>
<!-- Node3 -->
<g id="Node000003" class="node">
<title>Node3</title>
<g id="a_Node000003"><a xlink:title=" ">
<polygon fill="white" stroke="none" points="90.5,-611 0,-611 0,-547 90.5,-547 90.5,-611"/>
<text xml:space="preserve" text-anchor="start" x="4" y="-597.5" font-family="Helvetica,sans-Serif" font-size="10.00">std::vector&lt; vector</text>
<text xml:space="preserve" text-anchor="start" x="22.38" y="-585.5" font-family="Helvetica,sans-Serif" font-size="10.00">&lt; char &gt; &gt;</text>
<text xml:space="preserve" text-anchor="start" x="12.19" y="-569.5" font-family="Helvetica,sans-Serif" font-size="10.00">+</text>
<text xml:space="preserve" text-anchor="start" x="30.38" y="-569.5" font-family="Helvetica,sans-Serif" font-size="10.00">elements</text>
<text xml:space="preserve" text-anchor="start" x="43.75" y="-553.5" font-family="Helvetica,sans-Serif" font-size="10.00"> </text>
<polygon fill="#666666" stroke="#666666" points="0,-581 0,-581 90.5,-581 90.5,-581 0,-581"/>
<polygon fill="#666666" stroke="#666666" points="0,-565 0,-565 28.38,-565 28.38,-565 0,-565"/>
<polygon fill="#666666" stroke="#666666" points="28.38,-565 28.38,-565 90.5,-565 90.5,-565 28.38,-565"/>
<polygon fill="none" stroke="#666666" points="0,-547 0,-611 90.5,-611 90.5,-547 0,-547"/>
</a>
</g>
</g>
<!-- Node3&#45;&gt;Node1 -->
<g id="edge3_Node000001_Node000003" class="edge">
<title>Node3&#45;&gt;Node1</title>
<g id="a_edge3_Node000001_Node000003"><a xlink:title=" ">
<path fill="none" stroke="#63b8ff" d="M42.45,-547.34C41.11,-531.19 39.66,-511.04 39,-493 35.02,-384.63 28.37,-356.92 39,-249 39.79,-240.94 40.83,-232.67 42.05,-224.35"/>
<polygon fill="none" stroke="#63b8ff" points="42.03,-224.48 39,-217.93 43.87,-212.62 46.9,-219.16 42.03,-224.48"/>
</a>
</g>
<text xml:space="preserve" text-anchor="start" x="42" y="-367.5" font-family="Helvetica,sans-Serif" font-size="10.00" fill="grey">&#45;large_board</text>
</g>
<!-- Node3&#45;&gt;Node2 -->
<g id="edge2_Node000002_Node000003" class="edge">
<title>Node3&#45;&gt;Node2</title>
<g id="a_edge2_Node000002_Node000003"><a xlink:title=" ">
<path fill="none" stroke="#63b8ff" d="M62.36,-547.39C71.33,-531.25 82.46,-511.1 92.25,-493 95.07,-487.79 97.95,-482.44 100.84,-477.04"/>
<polygon fill="none" stroke="#63b8ff" points="100.72,-477.27 100.02,-470.09 106.38,-466.69 107.08,-473.87 100.72,-477.27"/>
</a>
</g>
<text xml:space="preserve" text-anchor="start" x="85.07" y="-516.5" font-family="Helvetica,sans-Serif" font-size="10.00" fill="grey">#board</text>
</g>
</g>
</svg>
