<?xml version="1.0" encoding="UTF-8" standalone="no"?>
<!DOCTYPE svg PUBLIC "-//W3C//DTD SVG 1.1//EN"
 "http://www.w3.org/Graphics/SVG/1.1/DTD/svg11.dtd">
<!-- Generated by graphviz version 14.0.2 (20251019.1705)
 -->
<!-- Title: Memory_Board::is_draw Pages: 1 -->
<svg width="421pt" height="66pt"
 viewBox="0.00 0.00 421.00 66.00" xmlns="http://www.w3.org/2000/svg" xmlns:xlink="http://www.w3.org/1999/xlink">
<g id="graph0" class="graph" transform="scale(1 1) rotate(0) translate(4 62)">
<title>Memory_Board::is_draw</title>
<!-- Node1 -->
<g id="Node000001" class="node">
<title>Node1</title>
<g id="a_Node000001"><a xlink:title="Check if the game ended in a draw.">
<polygon fill="#999999" stroke="#666666" points="121.75,-39 0,-39 0,-19 121.75,-19 121.75,-39"/>
<text xml:space="preserve" text-anchor="middle" x="60.88" y="-25.5" font-family="Helvetica,sans-Serif" font-size="10.00">Memory_Board::is_draw</text>
</a>
</g>
</g>
<!-- Node2 -->
<g id="Node000002" class="node">
<title>Node2</title>
<g id="a_Node000002"><a xlink:href="$class_memory___board.html#a0c40062fe9f07b532ad893747d5d47e5" xlink:title="Check if a player has lost.">
<polygon fill="white" stroke="#666666" points="276.5,-58 157.75,-58 157.75,-38 276.5,-38 276.5,-58"/>
<text xml:space="preserve" text-anchor="middle" x="217.12" y="-44.5" font-family="Helvetica,sans-Serif" font-size="10.00">Memory_Board::is_lose</text>
</a>
</g>
</g>
<!-- Node1&#45;&gt;Node2 -->
<g id="edge1_Node000001_Node000002" class="edge">
<title>Node1&#45;&gt;Node2</title>
<g id="a_edge1_Node000001_Node000002"><a xlink:title=" ">
<path fill="none" stroke="#63b8ff" d="M121.95,-36.4C129.89,-37.38 138.08,-38.39 146.16,-39.38"/>
<polygon fill="#63b8ff" stroke="#63b8ff" points="145.62,-42.84 155.97,-40.59 146.48,-35.89 145.62,-42.84"/>
</a>
</g>
</g>
<!-- Node4 -->
<g id="Node000004" class="node">
<title>Node4</title>
<g id="a_Node000004"><a xlink:href="$class_memory___board.html#a8ebd3f4825d7a3ac78cc77ef85738de9" xlink:title="Check if a player has won.">
<polygon fill="white" stroke="#666666" points="275,-20 159.25,-20 159.25,0 275,0 275,-20"/>
<text xml:space="preserve" text-anchor="middle" x="217.12" y="-6.5" font-family="Helvetica,sans-Serif" font-size="10.00">Memory_Board::is_win</text>
</a>
</g>
</g>
<!-- Node1&#45;&gt;Node4 -->
<g id="edge3_Node000001_Node000004" class="edge">
<title>Node1&#45;&gt;Node4</title>
<g id="a_edge3_Node000001_Node000004"><a xlink:title=" ">
<path fill="none" stroke="#63b8ff" d="M121.95,-21.6C130.42,-20.56 139.18,-19.48 147.79,-18.42"/>
<polygon fill="#63b8ff" stroke="#63b8ff" points="147.99,-21.92 157.49,-17.22 147.13,-14.97 147.99,-21.92"/>
</a>
</g>
</g>
<!-- Node3 -->
<g id="Node000003" class="node">
<title>Node3</title>
<g id="a_Node000003"><a xlink:href="$class_player.html#af56f0bf98c0423a3a75b0848607d03a4" xlink:title="Get the player&#39;s symbol.">
<polygon fill="white" stroke="#666666" points="412.5,-39 312.5,-39 312.5,-19 412.5,-19 412.5,-39"/>
<text xml:space="preserve" text-anchor="middle" x="362.5" y="-25.5" font-family="Helvetica,sans-Serif" font-size="10.00">Player::get_symbol</text>
</a>
</g>
</g>
<!-- Node2&#45;&gt;Node3 -->
<g id="edge2_Node000002_Node000003" class="edge">
<title>Node2&#45;&gt;Node3</title>
<g id="a_edge2_Node000002_Node000003"><a xlink:title=" ">
<path fill="none" stroke="#63b8ff" d="M276.85,-40.22C284.84,-39.16 293.06,-38.07 301.07,-37.01"/>
<polygon fill="#63b8ff" stroke="#63b8ff" points="301.29,-40.51 310.74,-35.73 300.37,-33.57 301.29,-40.51"/>
</a>
</g>
</g>
<!-- Node4&#45;&gt;Node3 -->
<g id="edge4_Node000004_Node000003" class="edge">
<title>Node4&#45;&gt;Node3</title>
<g id="a_edge4_Node000004_Node000003"><a xlink:title=" ">
<path fill="none" stroke="#63b8ff" d="M275.2,-17.56C283.58,-18.67 292.23,-19.82 300.68,-20.94"/>
<polygon fill="#63b8ff" stroke="#63b8ff" points="300.15,-24.4 310.52,-22.24 301.07,-17.46 300.15,-24.4"/>
</a>
</g>
</g>
</g>
</svg>
