<?xml version="1.0" encoding="UTF-8" standalone="no"?>
<!DOCTYPE svg PUBLIC "-//W3C//DTD SVG 1.1//EN"
 "http://www.w3.org/Graphics/SVG/1.1/DTD/svg11.dtd">
<!-- Generated by graphviz version 14.0.2 (20251019.1705)
 -->
<!-- Title: XO_inf_UI::get_move Pages: 1 -->
<svg width="549pt" height="199pt"
 viewBox="0.00 0.00 549.00 199.00" xmlns="http://www.w3.org/2000/svg" xmlns:xlink="http://www.w3.org/1999/xlink">
<g id="graph0" class="graph" transform="scale(1 1) rotate(0) translate(4 194.75)">
<title>XO_inf_UI::get_move</title>
<!-- Node1 -->
<g id="Node000001" class="node">
<title>Node1</title>
<g id="a_Node000001"><a xlink:title="Retrieve a player&#39;s move input.">
<polygon fill="#999999" stroke="#666666" points="110.5,-86 0,-86 0,-66 110.5,-66 110.5,-86"/>
<text xml:space="preserve" text-anchor="middle" x="55.25" y="-72.5" font-family="Helvetica,sans-Serif" font-size="10.00">XO_inf_UI::get_move</text>
</a>
</g>
</g>
<!-- Node2 -->
<g id="Node000002" class="node">
<title>Node2</title>
<g id="a_Node000002"><a xlink:href="class_x_o__inf___a_i.html#ae6b676d72164332dcc6683ab22b73564" target="_top" xlink:title="Determine the best move for the AI.">
<polygon fill="white" stroke="#666666" points="256.25,-115 146.5,-115 146.5,-95 256.25,-95 256.25,-115"/>
<text xml:space="preserve" text-anchor="middle" x="201.38" y="-101.5" font-family="Helvetica,sans-Serif" font-size="10.00">XO_inf_AI::bestMove</text>
</a>
</g>
</g>
<!-- Node1&#45;&gt;Node2 -->
<g id="edge1_Node000001_Node000002" class="edge">
<title>Node1&#45;&gt;Node2</title>
<g id="a_edge1_Node000001_Node000002"><a xlink:title=" ">
<path fill="none" stroke="#63b8ff" d="M108.28,-86.47C117.67,-88.36 127.55,-90.35 137.22,-92.29"/>
<polygon fill="#63b8ff" stroke="#63b8ff" points="136.44,-95.71 146.94,-94.25 137.82,-88.84 136.44,-95.71"/>
</a>
</g>
</g>
<!-- Node3 -->
<g id="Node000003" class="node">
<title>Node3</title>
<g id="a_Node000003"><a xlink:href="class_player.html#a508617eddfae8915d098102d480fc888" target="_top" xlink:title="Get a pointer to the game board.">
<polygon fill="white" stroke="#666666" points="541,-96 432,-96 432,-76 541,-76 541,-96"/>
<text xml:space="preserve" text-anchor="middle" x="486.5" y="-82.5" font-family="Helvetica,sans-Serif" font-size="10.00">Player::get_board_ptr</text>
</a>
</g>
</g>
<!-- Node1&#45;&gt;Node3 -->
<g id="edge9_Node000001_Node000003" class="edge">
<title>Node1&#45;&gt;Node3</title>
<g id="a_edge9_Node000001_Node000003"><a xlink:title=" ">
<path fill="none" stroke="#63b8ff" d="M110.61,-77.27C189.55,-79.11 335.69,-82.51 420.31,-84.48"/>
<polygon fill="#63b8ff" stroke="#63b8ff" points="419.98,-87.97 430.06,-84.71 420.15,-80.98 419.98,-87.97"/>
</a>
</g>
</g>
<!-- Node4 -->
<g id="Node000004" class="node">
<title>Node4</title>
<g id="a_Node000004"><a xlink:href="class_player.html#af56f0bf98c0423a3a75b0848607d03a4" target="_top" xlink:title="Get the player&#39;s symbol.">
<polygon fill="white" stroke="#666666" points="536.5,-190 436.5,-190 436.5,-170 536.5,-170 536.5,-190"/>
<text xml:space="preserve" text-anchor="middle" x="486.5" y="-176.5" font-family="Helvetica,sans-Serif" font-size="10.00">Player::get_symbol</text>
</a>
</g>
</g>
<!-- Node1&#45;&gt;Node4 -->
<g id="edge10_Node000001_Node000004" class="edge">
<title>Node1&#45;&gt;Node4</title>
<g id="a_edge10_Node000001_Node000004"><a xlink:title=" ">
<path fill="none" stroke="#63b8ff" d="M71.95,-86.38C108.59,-109.87 203.4,-166.43 292.25,-184 336.14,-192.68 386.74,-191.23 425.15,-187.85"/>
<polygon fill="#63b8ff" stroke="#63b8ff" points="425.02,-191.38 434.64,-186.95 424.35,-184.41 425.02,-191.38"/>
</a>
</g>
</g>
<!-- Node7 -->
<g id="Node000007" class="node">
<title>Node7</title>
<g id="a_Node000007"><a xlink:href="class_player.html#a2df3bd299bf7aecfa2275ec6902a60f8" target="_top" xlink:title="Get player type (e.g., &#39;H&#39; or &#39;C&#39;).">
<polygon fill="white" stroke="#666666" points="245,-20 157.75,-20 157.75,0 245,0 245,-20"/>
<text xml:space="preserve" text-anchor="middle" x="201.38" y="-6.5" font-family="Helvetica,sans-Serif" font-size="10.00">Player::get_type</text>
</a>
</g>
</g>
<!-- Node1&#45;&gt;Node7 -->
<g id="edge11_Node000001_Node000007" class="edge">
<title>Node1&#45;&gt;Node7</title>
<g id="a_edge11_Node000001_Node000007"><a xlink:title=" ">
<path fill="none" stroke="#63b8ff" d="M78.46,-65.54C96.7,-56.98 123.22,-44.6 146.5,-34 152.98,-31.05 159.92,-27.93 166.59,-24.95"/>
<polygon fill="#63b8ff" stroke="#63b8ff" points="167.64,-28.31 175.35,-21.05 164.79,-21.92 167.64,-28.31"/>
</a>
</g>
</g>
<!-- Node2&#45;&gt;Node3 -->
<g id="edge2_Node000002_Node000003" class="edge">
<title>Node2&#45;&gt;Node3</title>
<g id="a_edge2_Node000002_Node000003"><a xlink:title=" ">
<path fill="none" stroke="#63b8ff" d="M256.63,-101.36C303.4,-98.22 371.04,-93.68 420.66,-90.35"/>
<polygon fill="#63b8ff" stroke="#63b8ff" points="420.66,-93.86 430.4,-89.7 420.19,-86.88 420.66,-93.86"/>
</a>
</g>
</g>
<!-- Node2&#45;&gt;Node4 -->
<g id="edge3_Node000002_Node000004" class="edge">
<title>Node2&#45;&gt;Node4</title>
<g id="a_edge3_Node000002_Node000004"><a xlink:title=" ">
<path fill="none" stroke="#63b8ff" d="M214.81,-115.39C231.33,-128.54 261.96,-150.71 292.25,-161 335.1,-175.56 386.15,-180.08 425.02,-181.08"/>
<polygon fill="#63b8ff" stroke="#63b8ff" points="424.58,-184.57 434.64,-181.25 424.71,-177.57 424.58,-184.57"/>
</a>
</g>
</g>
<!-- Node5 -->
<g id="Node000005" class="node">
<title>Node5</title>
<g id="a_Node000005"><a xlink:href="class_x_o__inf___a_i.html#aa88a72848990b6506c7f4d544937837b" target="_top" xlink:title="Minimax search algorithm with alpha&#45;beta pruning.">
<polygon fill="white" stroke="#666666" points="396,-134 292.25,-134 292.25,-114 396,-114 396,-134"/>
<text xml:space="preserve" text-anchor="middle" x="344.12" y="-120.5" font-family="Helvetica,sans-Serif" font-size="10.00">XO_inf_AI::minimax</text>
</a>
</g>
</g>
<!-- Node2&#45;&gt;Node5 -->
<g id="edge4_Node000002_Node000005" class="edge">
<title>Node2&#45;&gt;Node5</title>
<g id="a_edge4_Node000002_Node000005"><a xlink:title=" ">
<path fill="none" stroke="#63b8ff" d="M256.39,-112.29C264.29,-113.36 272.49,-114.46 280.55,-115.55"/>
<polygon fill="#63b8ff" stroke="#63b8ff" points="279.92,-119 290.3,-116.87 280.86,-112.06 279.92,-119"/>
</a>
</g>
</g>
<!-- Node5&#45;&gt;Node3 -->
<g id="edge6_Node000005_Node000003" class="edge">
<title>Node5&#45;&gt;Node3</title>
<g id="a_edge6_Node000005_Node000003"><a xlink:title=" ">
<path fill="none" stroke="#63b8ff" d="M383.85,-113.52C399.96,-109.15 418.86,-104.04 435.96,-99.41"/>
<polygon fill="#63b8ff" stroke="#63b8ff" points="436.7,-102.84 445.44,-96.85 434.87,-96.08 436.7,-102.84"/>
</a>
</g>
</g>
<!-- Node5&#45;&gt;Node4 -->
<g id="edge7_Node000005_Node000004" class="edge">
<title>Node5&#45;&gt;Node4</title>
<g id="a_edge7_Node000005_Node000004"><a xlink:title=" ">
<path fill="none" stroke="#63b8ff" d="M371.2,-134.4C393.06,-143.12 424.53,-155.68 448.92,-165.41"/>
<polygon fill="#63b8ff" stroke="#63b8ff" points="447.57,-168.64 458.16,-169.09 450.17,-162.14 447.57,-168.64"/>
</a>
</g>
</g>
<!-- Node5&#45;&gt;Node5 -->
<g id="edge8_Node000005_Node000005" class="edge">
<title>Node5&#45;&gt;Node5</title>
<g id="a_edge8_Node000005_Node000005"><a xlink:title=" ">
<path fill="none" stroke="#63b8ff" d="M321.5,-134.34C311.84,-142.98 319.38,-152 344.12,-152 357.66,-152 366.05,-149.3 369.29,-145.44"/>
<polygon fill="#63b8ff" stroke="#63b8ff" points="372.73,-144.78 367.08,-135.81 365.9,-146.34 372.73,-144.78"/>
</a>
</g>
</g>
<!-- Node6 -->
<g id="Node000006" class="node">
<title>Node6</title>
<g id="a_Node000006"><a xlink:href="class_x_o__inf___a_i.html#aa7814af19ba079b0bf71770ffa438b4b" target="_top" xlink:title="Evaluate the score of the board state.">
<polygon fill="white" stroke="#666666" points="538.38,-134 434.62,-134 434.62,-114 538.38,-114 538.38,-134"/>
<text xml:space="preserve" text-anchor="middle" x="486.5" y="-120.5" font-family="Helvetica,sans-Serif" font-size="10.00">XO_inf_AI::evaluate</text>
</a>
</g>
</g>
<!-- Node5&#45;&gt;Node6 -->
<g id="edge5_Node000005_Node000006" class="edge">
<title>Node5&#45;&gt;Node6</title>
<g id="a_edge5_Node000005_Node000006"><a xlink:title=" ">
<path fill="none" stroke="#63b8ff" d="M396.2,-124C404.91,-124 414.04,-124 423.01,-124"/>
<polygon fill="#63b8ff" stroke="#63b8ff" points="422.71,-127.5 432.71,-124 422.71,-120.5 422.71,-127.5"/>
</a>
</g>
</g>
</g>
</svg>
