<?xml version="1.0" encoding="UTF-8" standalone="no"?>
<!DOCTYPE svg PUBLIC "-//W3C//DTD SVG 1.1//EN"
 "http://www.w3.org/Graphics/SVG/1.1/DTD/svg11.dtd">
<!-- Generated by graphviz version 14.0.2 (20251019.1705)
 -->
<!-- Title: Ultimate_AI Pages: 1 -->
<svg width="84pt" height="244pt"
 viewBox="0.00 0.00 84.00 244.00" xmlns="http://www.w3.org/2000/svg" xmlns:xlink="http://www.w3.org/1999/xlink">
<g id="graph0" class="graph" transform="scale(1 1) rotate(0) translate(4 240)">
<title>Ultimate_AI</title>
<!-- Node1 -->
<g id="Node000001" class="node">
<title>Node1</title>
<g id="a_Node000001"><a xlink:title="AI controller for Ultimate Tic&#45;Tac&#45;Toe (random move selection).">
<polygon fill="#999999" stroke="none" points="75.75,-100 0,-100 0,0 75.75,0 75.75,-100"/>
<text xml:space="preserve" text-anchor="start" x="12" y="-86.5" font-family="Helvetica,sans-Serif" font-size="10.00">Ultimate_AI</text>
<text xml:space="preserve" text-anchor="start" x="36.38" y="-70.5" font-family="Helvetica,sans-Serif" font-size="10.00"> </text>
<text xml:space="preserve" text-anchor="start" x="4" y="-54.5" font-family="Helvetica,sans-Serif" font-size="10.00">+</text>
<text xml:space="preserve" text-anchor="start" x="14" y="-54.5" font-family="Helvetica,sans-Serif" font-size="10.00">Ultimate_AI()</text>
<text xml:space="preserve" text-anchor="start" x="4" y="-38.5" font-family="Helvetica,sans-Serif" font-size="10.00">+</text>
<text xml:space="preserve" text-anchor="start" x="14" y="-38.5" font-family="Helvetica,sans-Serif" font-size="10.00">evaluate()</text>
<text xml:space="preserve" text-anchor="start" x="4" y="-22.5" font-family="Helvetica,sans-Serif" font-size="10.00">+</text>
<text xml:space="preserve" text-anchor="start" x="14" y="-22.5" font-family="Helvetica,sans-Serif" font-size="10.00">minimax()</text>
<text xml:space="preserve" text-anchor="start" x="4" y="-6.5" font-family="Helvetica,sans-Serif" font-size="10.00">+</text>
<text xml:space="preserve" text-anchor="start" x="14" y="-6.5" font-family="Helvetica,sans-Serif" font-size="10.00">bestMove()</text>
<polygon fill="#666666" stroke="#666666" points="0,-82 0,-82 75.75,-82 75.75,-82 0,-82"/>
<polygon fill="#666666" stroke="#666666" points="0,-66 0,-66 75.75,-66 75.75,-66 0,-66"/>
<polygon fill="none" stroke="#666666" points="0,0 0,-100 75.75,-100 75.75,0 0,0"/>
</a>
</g>
</g>
<!-- Node2 -->
<g id="Node000002" class="node">
<title>Node2</title>
<g id="a_Node000002"><a xlink:href="class_a_i.html" target="_top" xlink:title="AI Interface for all implementations in games.">
<polygon fill="white" stroke="none" points="71.25,-236 4.5,-236 4.5,-136 71.25,-136 71.25,-236"/>
<text xml:space="preserve" text-anchor="start" x="33" y="-222.5" font-family="Helvetica,sans-Serif" font-size="10.00">AI</text>
<text xml:space="preserve" text-anchor="start" x="36.38" y="-206.5" font-family="Helvetica,sans-Serif" font-size="10.00"> </text>
<text xml:space="preserve" text-anchor="start" x="8.5" y="-190.5" font-family="Helvetica,sans-Serif" font-size="10.00">+</text>
<text xml:space="preserve" text-anchor="start" x="18.5" y="-190.5" font-family="Helvetica,sans-Serif" font-size="10.00">evaluate()</text>
<text xml:space="preserve" text-anchor="start" x="8.5" y="-174.5" font-family="Helvetica,sans-Serif" font-size="10.00">+</text>
<text xml:space="preserve" text-anchor="start" x="18.5" y="-174.5" font-family="Helvetica,sans-Serif" font-size="10.00">minimax()</text>
<text xml:space="preserve" text-anchor="start" x="8.5" y="-158.5" font-family="Helvetica,sans-Serif" font-size="10.00">+</text>
<text xml:space="preserve" text-anchor="start" x="18.5" y="-158.5" font-family="Helvetica,sans-Serif" font-size="10.00">bestMove()</text>
<text xml:space="preserve" text-anchor="start" x="8.5" y="-142.5" font-family="Helvetica,sans-Serif" font-size="10.00">+</text>
<text xml:space="preserve" text-anchor="start" x="18.5" y="-142.5" font-family="Helvetica,sans-Serif" font-size="10.00">~AI()</text>
<polygon fill="#666666" stroke="#666666" points="4.5,-218 4.5,-218 71.25,-218 71.25,-218 4.5,-218"/>
<polygon fill="#666666" stroke="#666666" points="4.5,-202 4.5,-202 71.25,-202 71.25,-202 4.5,-202"/>
<polygon fill="none" stroke="#666666" points="4.5,-136 4.5,-236 71.25,-236 71.25,-136 4.5,-136"/>
</a>
</g>
</g>
<!-- Node2&#45;&gt;Node1 -->
<g id="edge1_Node000001_Node000002" class="edge">
<title>Node2&#45;&gt;Node1</title>
<g id="a_edge1_Node000001_Node000002"><a xlink:title=" ">
<path fill="none" stroke="#63b8ff" d="M37.88,-124.97C37.88,-116.6 37.88,-108.08 37.88,-99.94"/>
<polygon fill="none" stroke="#63b8ff" points="34.38,-124.73 37.88,-134.73 41.38,-124.73 34.38,-124.73"/>
</a>
</g>
</g>
</g>
</svg>
