<?xml version="1.0" encoding="UTF-8" standalone="no"?>
<!DOCTYPE svg PUBLIC "-//W3C//DTD SVG 1.1//EN"
 "http://www.w3.org/Graphics/SVG/1.1/DTD/svg11.dtd">
<!-- Generated by graphviz version 14.0.2 (20251019.1705)
 -->
<!-- Title: XO_inf_AI::minimax Pages: 1 -->
<svg width="257pt" height="104pt"
 viewBox="0.00 0.00 257.00 104.00" xmlns="http://www.w3.org/2000/svg" xmlns:xlink="http://www.w3.org/1999/xlink">
<g id="graph0" class="graph" transform="scale(1 1) rotate(0) translate(4 100)">
<title>XO_inf_AI::minimax</title>
<!-- Node1 -->
<g id="Node000001" class="node">
<title>Node1</title>
<g id="a_Node000001"><a xlink:title="Minimax search algorithm with alpha&#45;beta pruning.">
<polygon fill="#999999" stroke="#666666" points="103.75,-58 0,-58 0,-38 103.75,-38 103.75,-58"/>
<text xml:space="preserve" text-anchor="middle" x="51.88" y="-44.5" font-family="Helvetica,sans-Serif" font-size="10.00">XO_inf_AI::minimax</text>
</a>
</g>
</g>
<!-- Node1&#45;&gt;Node1 -->
<g id="edge4_Node000001_Node000001" class="edge">
<title>Node1&#45;&gt;Node1</title>
<g id="a_edge4_Node000001_Node000001"><a xlink:title=" ">
<path fill="none" stroke="#63b8ff" d="M29.25,-58.34C19.59,-66.98 27.13,-76 51.88,-76 65.41,-76 73.8,-73.3 77.04,-69.44"/>
<polygon fill="#63b8ff" stroke="#63b8ff" points="80.48,-68.78 74.83,-59.81 73.65,-70.34 80.48,-68.78"/>
</a>
</g>
</g>
<!-- Node2 -->
<g id="Node000002" class="node">
<title>Node2</title>
<g id="a_Node000002"><a xlink:href="class_x_o__inf___a_i.html#aa7814af19ba079b0bf71770ffa438b4b" target="_top" xlink:title="Evaluate the score of the board state.">
<polygon fill="white" stroke="#666666" points="246.12,-96 142.38,-96 142.38,-76 246.12,-76 246.12,-96"/>
<text xml:space="preserve" text-anchor="middle" x="194.25" y="-82.5" font-family="Helvetica,sans-Serif" font-size="10.00">XO_inf_AI::evaluate</text>
</a>
</g>
</g>
<!-- Node1&#45;&gt;Node2 -->
<g id="edge1_Node000001_Node000002" class="edge">
<title>Node1&#45;&gt;Node2</title>
<g id="a_edge1_Node000001_Node000002"><a xlink:title=" ">
<path fill="none" stroke="#63b8ff" d="M91.6,-58.48C107.71,-62.85 126.61,-67.96 143.71,-72.59"/>
<polygon fill="#63b8ff" stroke="#63b8ff" points="142.62,-75.92 153.19,-75.15 144.45,-69.16 142.62,-75.92"/>
</a>
</g>
</g>
<!-- Node3 -->
<g id="Node000003" class="node">
<title>Node3</title>
<g id="a_Node000003"><a xlink:href="class_player.html#a508617eddfae8915d098102d480fc888" target="_top" xlink:title="Get a pointer to the game board.">
<polygon fill="white" stroke="#666666" points="248.75,-58 139.75,-58 139.75,-38 248.75,-38 248.75,-58"/>
<text xml:space="preserve" text-anchor="middle" x="194.25" y="-44.5" font-family="Helvetica,sans-Serif" font-size="10.00">Player::get_board_ptr</text>
</a>
</g>
</g>
<!-- Node1&#45;&gt;Node3 -->
<g id="edge2_Node000001_Node000003" class="edge">
<title>Node1&#45;&gt;Node3</title>
<g id="a_edge2_Node000001_Node000003"><a xlink:title=" ">
<path fill="none" stroke="#63b8ff" d="M103.95,-48C111.84,-48 120.07,-48 128.21,-48"/>
<polygon fill="#63b8ff" stroke="#63b8ff" points="128.1,-51.5 138.1,-48 128.1,-44.5 128.1,-51.5"/>
</a>
</g>
</g>
<!-- Node4 -->
<g id="Node000004" class="node">
<title>Node4</title>
<g id="a_Node000004"><a xlink:href="class_player.html#af56f0bf98c0423a3a75b0848607d03a4" target="_top" xlink:title="Get the player&#39;s symbol.">
<polygon fill="white" stroke="#666666" points="244.25,-20 144.25,-20 144.25,0 244.25,0 244.25,-20"/>
<text xml:space="preserve" text-anchor="middle" x="194.25" y="-6.5" font-family="Helvetica,sans-Serif" font-size="10.00">Player::get_symbol</text>
</a>
</g>
</g>
<!-- Node1&#45;&gt;Node4 -->
<g id="edge3_Node000001_Node000004" class="edge">
<title>Node1&#45;&gt;Node4</title>
<g id="a_edge3_Node000001_Node000004"><a xlink:title=" ">
<path fill="none" stroke="#63b8ff" d="M91.6,-37.52C107.71,-33.15 126.61,-28.04 143.71,-23.41"/>
<polygon fill="#63b8ff" stroke="#63b8ff" points="144.45,-26.84 153.19,-20.85 142.62,-20.08 144.45,-26.84"/>
</a>
</g>
</g>
</g>
</svg>
