<?xml version="1.0" encoding="UTF-8" standalone="no"?>
<!DOCTYPE svg PUBLIC "-//W3C//DTD SVG 1.1//EN"
 "http://www.w3.org/Graphics/SVG/1.1/DTD/svg11.dtd">
<!-- Generated by graphviz version 14.0.2 (20251019.1705)
 -->
<!-- Title: Layer Pages: 1 -->
<svg width="110pt" height="688pt"
 viewBox="0.00 0.00 110.00 688.00" xmlns="http://www.w3.org/2000/svg" xmlns:xlink="http://www.w3.org/1999/xlink">
<g id="graph0" class="graph" transform="scale(1 1) rotate(0) translate(4 684)">
<title>Layer</title>
<!-- Node1 -->
<g id="Node000001" class="node">
<title>Node1</title>
<g id="a_Node000001"><a xlink:title="Fully&#45;connected (dense) neural network layer.">
<polygon fill="#999999" stroke="none" points="94.75,-212 6.25,-212 6.25,0 94.75,0 94.75,-212"/>
<text xml:space="preserve" text-anchor="start" x="38.5" y="-198.5" font-family="Helvetica,sans-Serif" font-size="10.00">Layer</text>
<text xml:space="preserve" text-anchor="start" x="11.75" y="-182.5" font-family="Helvetica,sans-Serif" font-size="10.00">&#45;</text>
<text xml:space="preserve" text-anchor="start" x="20.25" y="-182.5" font-family="Helvetica,sans-Serif" font-size="10.00">inputSize_</text>
<text xml:space="preserve" text-anchor="start" x="11.75" y="-166.5" font-family="Helvetica,sans-Serif" font-size="10.00">&#45;</text>
<text xml:space="preserve" text-anchor="start" x="20.25" y="-166.5" font-family="Helvetica,sans-Serif" font-size="10.00">neuronCount_</text>
<text xml:space="preserve" text-anchor="start" x="11.75" y="-150.5" font-family="Helvetica,sans-Serif" font-size="10.00">&#45;</text>
<text xml:space="preserve" text-anchor="start" x="20.25" y="-150.5" font-family="Helvetica,sans-Serif" font-size="10.00">activationFunc_</text>
<text xml:space="preserve" text-anchor="start" x="11.75" y="-134.5" font-family="Helvetica,sans-Serif" font-size="10.00">&#45;</text>
<text xml:space="preserve" text-anchor="start" x="20.25" y="-134.5" font-family="Helvetica,sans-Serif" font-size="10.00">activationDeriv_</text>
<text xml:space="preserve" text-anchor="start" x="10.25" y="-118.5" font-family="Helvetica,sans-Serif" font-size="10.00">+</text>
<text xml:space="preserve" text-anchor="start" x="20.25" y="-118.5" font-family="Helvetica,sans-Serif" font-size="10.00">Layer()</text>
<text xml:space="preserve" text-anchor="start" x="10.25" y="-102.5" font-family="Helvetica,sans-Serif" font-size="10.00">+</text>
<text xml:space="preserve" text-anchor="start" x="20.25" y="-102.5" font-family="Helvetica,sans-Serif" font-size="10.00">forward()</text>
<text xml:space="preserve" text-anchor="start" x="10.25" y="-86.5" font-family="Helvetica,sans-Serif" font-size="10.00">+</text>
<text xml:space="preserve" text-anchor="start" x="20.25" y="-86.5" font-family="Helvetica,sans-Serif" font-size="10.00">backward()</text>
<text xml:space="preserve" text-anchor="start" x="10.25" y="-70.5" font-family="Helvetica,sans-Serif" font-size="10.00">+</text>
<text xml:space="preserve" text-anchor="start" x="20.25" y="-70.5" font-family="Helvetica,sans-Serif" font-size="10.00">output()</text>
<text xml:space="preserve" text-anchor="start" x="10.25" y="-54.5" font-family="Helvetica,sans-Serif" font-size="10.00">+</text>
<text xml:space="preserve" text-anchor="start" x="20.25" y="-54.5" font-family="Helvetica,sans-Serif" font-size="10.00">save()</text>
<text xml:space="preserve" text-anchor="start" x="10.25" y="-38.5" font-family="Helvetica,sans-Serif" font-size="10.00">+</text>
<text xml:space="preserve" text-anchor="start" x="20.25" y="-38.5" font-family="Helvetica,sans-Serif" font-size="10.00">load()</text>
<text xml:space="preserve" text-anchor="start" x="10.25" y="-22.5" font-family="Helvetica,sans-Serif" font-size="10.00">+</text>
<text xml:space="preserve" text-anchor="start" x="20.25" y="-22.5" font-family="Helvetica,sans-Serif" font-size="10.00">inputs()</text>
<text xml:space="preserve" text-anchor="start" x="10.25" y="-6.5" font-family="Helvetica,sans-Serif" font-size="10.00">+</text>
<text xml:space="preserve" text-anchor="start" x="20.25" y="-6.5" font-family="Helvetica,sans-Serif" font-size="10.00">neurons()</text>
<polygon fill="#666666" stroke="#666666" points="6.25,-194 6.25,-194 94.75,-194 94.75,-194 6.25,-194"/>
<polygon fill="#666666" stroke="#666666" points="6.25,-130 6.25,-130 18.25,-130 18.25,-130 6.25,-130"/>
<polygon fill="#666666" stroke="#666666" points="18.25,-130 18.25,-130 94.75,-130 94.75,-130 18.25,-130"/>
<polygon fill="none" stroke="#666666" points="6.25,0 6.25,-212 94.75,-212 94.75,0 6.25,0"/>
</a>
</g>
</g>
<!-- Node2 -->
<g id="Node000002" class="node">
<title>Node2</title>
<g id="a_Node000002"><a xlink:href="class_matrix.html" target="_top" xlink:title=" ">
<polygon fill="white" stroke="none" points="91.25,-574 9.75,-574 9.75,-330 91.25,-330 91.25,-574"/>
<text xml:space="preserve" text-anchor="start" x="13.75" y="-560.5" font-family="Helvetica,sans-Serif" font-size="10.00">Matrix&lt; double &gt;</text>
<text xml:space="preserve" text-anchor="start" x="17.44" y="-544.5" font-family="Helvetica,sans-Serif" font-size="10.00">+</text>
<text xml:space="preserve" text-anchor="start" x="31.12" y="-544.5" font-family="Helvetica,sans-Serif" font-size="10.00">rows</text>
<text xml:space="preserve" text-anchor="start" x="17.44" y="-528.5" font-family="Helvetica,sans-Serif" font-size="10.00">+</text>
<text xml:space="preserve" text-anchor="start" x="31.12" y="-528.5" font-family="Helvetica,sans-Serif" font-size="10.00">cols</text>
<text xml:space="preserve" text-anchor="start" x="17.44" y="-512.5" font-family="Helvetica,sans-Serif" font-size="10.00">+</text>
<text xml:space="preserve" text-anchor="start" x="31.12" y="-512.5" font-family="Helvetica,sans-Serif" font-size="10.00">Matrix()</text>
<text xml:space="preserve" text-anchor="start" x="17.44" y="-496.5" font-family="Helvetica,sans-Serif" font-size="10.00">+</text>
<text xml:space="preserve" text-anchor="start" x="31.12" y="-496.5" font-family="Helvetica,sans-Serif" font-size="10.00">operator()()</text>
<text xml:space="preserve" text-anchor="start" x="17.44" y="-480.5" font-family="Helvetica,sans-Serif" font-size="10.00">+</text>
<text xml:space="preserve" text-anchor="start" x="31.12" y="-480.5" font-family="Helvetica,sans-Serif" font-size="10.00">dataPtr()</text>
<text xml:space="preserve" text-anchor="start" x="17.44" y="-464.5" font-family="Helvetica,sans-Serif" font-size="10.00">+</text>
<text xml:space="preserve" text-anchor="start" x="31.12" y="-464.5" font-family="Helvetica,sans-Serif" font-size="10.00">apply()</text>
<text xml:space="preserve" text-anchor="start" x="17.44" y="-448.5" font-family="Helvetica,sans-Serif" font-size="10.00">+</text>
<text xml:space="preserve" text-anchor="start" x="31.12" y="-448.5" font-family="Helvetica,sans-Serif" font-size="10.00">hadamard()</text>
<text xml:space="preserve" text-anchor="start" x="17.44" y="-432.5" font-family="Helvetica,sans-Serif" font-size="10.00">+</text>
<text xml:space="preserve" text-anchor="start" x="31.12" y="-432.5" font-family="Helvetica,sans-Serif" font-size="10.00">operator+()</text>
<text xml:space="preserve" text-anchor="start" x="17.44" y="-416.5" font-family="Helvetica,sans-Serif" font-size="10.00">+</text>
<text xml:space="preserve" text-anchor="start" x="31.12" y="-416.5" font-family="Helvetica,sans-Serif" font-size="10.00">operator&#45;()</text>
<text xml:space="preserve" text-anchor="start" x="17.44" y="-400.5" font-family="Helvetica,sans-Serif" font-size="10.00">+</text>
<text xml:space="preserve" text-anchor="start" x="31.12" y="-400.5" font-family="Helvetica,sans-Serif" font-size="10.00">operator*()</text>
<text xml:space="preserve" text-anchor="start" x="17.44" y="-384.5" font-family="Helvetica,sans-Serif" font-size="10.00">+</text>
<text xml:space="preserve" text-anchor="start" x="31.12" y="-384.5" font-family="Helvetica,sans-Serif" font-size="10.00">transpose()</text>
<text xml:space="preserve" text-anchor="start" x="17.44" y="-368.5" font-family="Helvetica,sans-Serif" font-size="10.00">+</text>
<text xml:space="preserve" text-anchor="start" x="31.12" y="-368.5" font-family="Helvetica,sans-Serif" font-size="10.00">resize()</text>
<text xml:space="preserve" text-anchor="start" x="17.44" y="-352.5" font-family="Helvetica,sans-Serif" font-size="10.00">+</text>
<text xml:space="preserve" text-anchor="start" x="31.12" y="-352.5" font-family="Helvetica,sans-Serif" font-size="10.00">random()</text>
<text xml:space="preserve" text-anchor="start" x="17.44" y="-336.5" font-family="Helvetica,sans-Serif" font-size="10.00">+</text>
<text xml:space="preserve" text-anchor="start" x="31.12" y="-336.5" font-family="Helvetica,sans-Serif" font-size="10.00">multiply()</text>
<polygon fill="#666666" stroke="#666666" points="9.75,-556 9.75,-556 91.25,-556 91.25,-556 9.75,-556"/>
<polygon fill="#666666" stroke="#666666" points="9.75,-524 9.75,-524 29.12,-524 29.12,-524 9.75,-524"/>
<polygon fill="#666666" stroke="#666666" points="29.12,-524 29.12,-524 91.25,-524 91.25,-524 29.12,-524"/>
<polygon fill="none" stroke="#666666" points="9.75,-330 9.75,-574 91.25,-574 91.25,-330 9.75,-330"/>
</a>
</g>
</g>
<!-- Node2&#45;&gt;Node1 -->
<g id="edge1_Node000001_Node000002" class="edge">
<title>Node2&#45;&gt;Node1</title>
<g id="a_edge1_Node000001_Node000002"><a xlink:title=" ">
<path fill="none" stroke="#63b8ff" d="M50.5,-330.2C50.5,-295.96 50.5,-258.73 50.5,-224.67"/>
<polygon fill="none" stroke="#63b8ff" points="50.5,-224.69 46.5,-218.69 50.5,-212.69 54.5,-218.69 50.5,-224.69"/>
</a>
</g>
<text xml:space="preserve" text-anchor="start" x="53.5" y="-299.5" font-family="Helvetica,sans-Serif" font-size="10.00" fill="grey">&#45;A_</text>
<text xml:space="preserve" text-anchor="start" x="53.5" y="-283.5" font-family="Helvetica,sans-Serif" font-size="10.00" fill="grey">&#45;B_</text>
<text xml:space="preserve" text-anchor="start" x="53.5" y="-267.5" font-family="Helvetica,sans-Serif" font-size="10.00" fill="grey">&#45;W_</text>
<text xml:space="preserve" text-anchor="start" x="53.5" y="-251.5" font-family="Helvetica,sans-Serif" font-size="10.00" fill="grey">&#45;Z_</text>
<text xml:space="preserve" text-anchor="start" x="53.5" y="-235.5" font-family="Helvetica,sans-Serif" font-size="10.00" fill="grey">&#45;lastInput_</text>
</g>
<!-- Node3 -->
<g id="Node000003" class="node">
<title>Node3</title>
<g id="a_Node000003"><a xlink:title=" ">
<polygon fill="white" stroke="none" points="101,-680 0,-680 0,-628 101,-628 101,-680"/>
<text xml:space="preserve" text-anchor="start" x="4" y="-666.5" font-family="Helvetica,sans-Serif" font-size="10.00">std::vector&lt; double &gt;</text>
<text xml:space="preserve" text-anchor="start" x="14.81" y="-650.5" font-family="Helvetica,sans-Serif" font-size="10.00">+</text>
<text xml:space="preserve" text-anchor="start" x="35.62" y="-650.5" font-family="Helvetica,sans-Serif" font-size="10.00">elements</text>
<text xml:space="preserve" text-anchor="start" x="49" y="-634.5" font-family="Helvetica,sans-Serif" font-size="10.00"> </text>
<polygon fill="#666666" stroke="#666666" points="0,-662 0,-662 101,-662 101,-662 0,-662"/>
<polygon fill="#666666" stroke="#666666" points="0,-646 0,-646 33.62,-646 33.62,-646 0,-646"/>
<polygon fill="#666666" stroke="#666666" points="33.62,-646 33.62,-646 101,-646 101,-646 33.62,-646"/>
<polygon fill="none" stroke="#666666" points="0,-628 0,-680 101,-680 101,-628 0,-628"/>
</a>
</g>
</g>
<!-- Node3&#45;&gt;Node2 -->
<g id="edge2_Node000002_Node000003" class="edge">
<title>Node3&#45;&gt;Node2</title>
<g id="a_edge2_Node000002_Node000003"><a xlink:title=" ">
<path fill="none" stroke="#63b8ff" d="M50.5,-628.07C50.5,-616.67 50.5,-602.2 50.5,-586.48"/>
<polygon fill="none" stroke="#63b8ff" points="50.5,-586.54 46.5,-580.54 50.5,-574.54 54.5,-580.54 50.5,-586.54"/>
</a>
</g>
<text xml:space="preserve" text-anchor="start" x="53.5" y="-597.5" font-family="Helvetica,sans-Serif" font-size="10.00" fill="grey">+data</text>
</g>
</g>
</svg>
