<?xml version="1.0" encoding="UTF-8" standalone="no"?>
<!DOCTYPE svg PUBLIC "-//W3C//DTD SVG 1.1//EN"
 "http://www.w3.org/Graphics/SVG/1.1/DTD/svg11.dtd">
<!-- Generated by graphviz version 14.0.2 (20251019.1705)
 -->
<!-- Title: Matrix::multiply Pages: 1 -->
<svg width="203pt" height="66pt"
 viewBox="0.00 0.00 203.00 66.00" xmlns="http://www.w3.org/2000/svg" xmlns:xlink="http://www.w3.org/1999/xlink">
<g id="graph0" class="graph" transform="scale(1 1) rotate(0) translate(4 62)">
<title>Matrix::multiply</title>
<!-- Node1 -->
<g id="Node000001" class="node">
<title>Node1</title>
<g id="a_Node000001"><a xlink:title="Optimized matrix multiplication into a preallocated matrix.">
<polygon fill="#999999" stroke="#666666" points="82.75,-39 0,-39 0,-19 82.75,-19 82.75,-39"/>
<text xml:space="preserve" text-anchor="middle" x="41.38" y="-25.5" font-family="Helvetica,sans-Serif" font-size="10.00">Matrix::multiply</text>
</a>
</g>
</g>
<!-- Node2 -->
<g id="Node000002" class="node">
<title>Node2</title>
<g id="a_Node000002"><a xlink:href="$class_matrix.html#a500ba010dab4b9ee8e0d1b6f73fcd926" xlink:title="Construct a matrix of size (rows x cols).">
<polygon fill="white" stroke="#666666" points="194.75,-58 118.75,-58 118.75,-38 194.75,-38 194.75,-58"/>
<text xml:space="preserve" text-anchor="middle" x="156.75" y="-44.5" font-family="Helvetica,sans-Serif" font-size="10.00">Matrix::Matrix</text>
</a>
</g>
</g>
<!-- Node1&#45;&gt;Node2 -->
<g id="edge1_Node000001_Node000002" class="edge">
<title>Node1&#45;&gt;Node2</title>
<g id="a_edge1_Node000001_Node000002"><a xlink:title=" ">
<path fill="none" stroke="#63b8ff" d="M82.99,-35.81C90.85,-37.12 99.16,-38.52 107.24,-39.87"/>
<polygon fill="#63b8ff" stroke="#63b8ff" points="106.51,-43.3 116.95,-41.5 107.67,-36.39 106.51,-43.3"/>
</a>
</g>
</g>
<!-- Node3 -->
<g id="Node000003" class="node">
<title>Node3</title>
<g id="a_Node000003"><a xlink:href="$class_matrix.html#afc76f95218a395ba7d12e2831d282acf" xlink:title="Resize matrix to (r x c) and reset all elements to zero.">
<polygon fill="white" stroke="#666666" points="194.38,-20 119.12,-20 119.12,0 194.38,0 194.38,-20"/>
<text xml:space="preserve" text-anchor="middle" x="156.75" y="-6.5" font-family="Helvetica,sans-Serif" font-size="10.00">Matrix::resize</text>
</a>
</g>
</g>
<!-- Node1&#45;&gt;Node3 -->
<g id="edge2_Node000001_Node000003" class="edge">
<title>Node1&#45;&gt;Node3</title>
<g id="a_edge2_Node000001_Node000003"><a xlink:title=" ">
<path fill="none" stroke="#63b8ff" d="M82.99,-22.19C90.93,-20.86 99.34,-19.45 107.5,-18.09"/>
<polygon fill="#63b8ff" stroke="#63b8ff" points="108.04,-21.54 117.33,-16.44 106.88,-14.64 108.04,-21.54"/>
</a>
</g>
</g>
</g>
</svg>
