<?xml version="1.0" encoding="UTF-8" standalone="no"?>
<!DOCTYPE svg PUBLIC "-//W3C//DTD SVG 1.1//EN"
 "http://www.w3.org/Graphics/SVG/1.1/DTD/svg11.dtd">
<!-- Generated by graphviz version 14.0.2 (20251019.1705)
 -->
<!-- Title: Large_XO_Board::countWin Pages: 1 -->
<svg width="312pt" height="104pt"
 viewBox="0.00 0.00 312.00 104.00" xmlns="http://www.w3.org/2000/svg" xmlns:xlink="http://www.w3.org/1999/xlink">
<g id="graph0" class="graph" transform="scale(1 1) rotate(0) translate(4 100)">
<title>Large_XO_Board::countWin</title>
<!-- Node1 -->
<g id="Node000001" class="node">
<title>Node1</title>
<g id="a_Node000001"><a xlink:title="Count all 3&#45;in&#45;a&#45;row patterns for a given symbol.">
<polygon fill="#999999" stroke="#666666" points="303.5,-58 166,-58 166,-38 303.5,-38 303.5,-58"/>
<text xml:space="preserve" text-anchor="middle" x="234.75" y="-44.5" font-family="Helvetica,sans-Serif" font-size="10.00">Large_XO_Board::countWin</text>
</a>
</g>
</g>
<!-- Node2 -->
<g id="Node000002" class="node">
<title>Node2</title>
<g id="a_Node000002"><a xlink:href="$class_large___x_o___board.html#ab9958dd9ac2cc2fa4a9e8ca69c825eca" xlink:title="Determine if the game is a draw.">
<polygon fill="white" stroke="#666666" points="130,-96 0,-96 0,-76 130,-76 130,-96"/>
<text xml:space="preserve" text-anchor="middle" x="65" y="-82.5" font-family="Helvetica,sans-Serif" font-size="10.00">Large_XO_Board::is_draw</text>
</a>
</g>
</g>
<!-- Node1&#45;&gt;Node2 -->
<g id="edge1_Node000001_Node000002" class="edge">
<title>Node1&#45;&gt;Node2</title>
<g id="a_edge1_Node000001_Node000002"><a xlink:title=" ">
<path fill="none" stroke="#63b8ff" d="M176.43,-60.98C155.45,-65.74 132.01,-71.05 112.13,-75.55"/>
<polygon fill="#63b8ff" stroke="#63b8ff" points="177.01,-64.44 185.99,-58.82 175.47,-57.61 177.01,-64.44"/>
</a>
</g>
</g>
<!-- Node3 -->
<g id="Node000003" class="node">
<title>Node3</title>
<g id="a_Node000003"><a xlink:href="$class_large___x_o___board.html#ab546459599944b257767a2436dc0b139" xlink:title="Determine if a player loses.">
<polygon fill="white" stroke="#666666" points="128.5,-58 1.5,-58 1.5,-38 128.5,-38 128.5,-58"/>
<text xml:space="preserve" text-anchor="middle" x="65" y="-44.5" font-family="Helvetica,sans-Serif" font-size="10.00">Large_XO_Board::is_lose</text>
</a>
</g>
</g>
<!-- Node1&#45;&gt;Node3 -->
<g id="edge2_Node000001_Node000003" class="edge">
<title>Node1&#45;&gt;Node3</title>
<g id="a_edge2_Node000001_Node000003"><a xlink:title=" ">
<path fill="none" stroke="#63b8ff" d="M154.02,-48C145.54,-48 137.01,-48 128.76,-48"/>
<polygon fill="#63b8ff" stroke="#63b8ff" points="154.01,-51.5 164.01,-48 154.01,-44.5 154.01,-51.5"/>
</a>
</g>
</g>
<!-- Node4 -->
<g id="Node000004" class="node">
<title>Node4</title>
<g id="a_Node000004"><a xlink:href="$class_large___x_o___board.html#a8a5b964f4860fe06b0cdf19285acc998" xlink:title="Determine if a player wins (based on 3&#45;in&#45;a&#45;row counts).">
<polygon fill="white" stroke="#666666" points="127,-20 3,-20 3,0 127,0 127,-20"/>
<text xml:space="preserve" text-anchor="middle" x="65" y="-6.5" font-family="Helvetica,sans-Serif" font-size="10.00">Large_XO_Board::is_win</text>
</a>
</g>
</g>
<!-- Node1&#45;&gt;Node4 -->
<g id="edge3_Node000001_Node000004" class="edge">
<title>Node1&#45;&gt;Node4</title>
<g id="a_edge3_Node000001_Node000004"><a xlink:title=" ">
<path fill="none" stroke="#63b8ff" d="M176.43,-35.02C155.45,-30.26 132.01,-24.95 112.13,-20.45"/>
<polygon fill="#63b8ff" stroke="#63b8ff" points="175.47,-38.39 185.99,-37.18 177.01,-31.56 175.47,-38.39"/>
</a>
</g>
</g>
</g>
</svg>
