<?xml version="1.0" encoding="UTF-8" standalone="no"?>
<!DOCTYPE svg PUBLIC "-//W3C//DTD SVG 1.1//EN"
 "http://www.w3.org/Graphics/SVG/1.1/DTD/svg11.dtd">
<!-- Generated by graphviz version 14.0.2 (20251019.1705)
 -->
<!-- Title: Move::get_x Pages: 1 -->
<svg width="385pt" height="578pt"
 viewBox="0.00 0.00 385.00 578.00" xmlns="http://www.w3.org/2000/svg" xmlns:xlink="http://www.w3.org/1999/xlink">
<g id="graph0" class="graph" transform="scale(1 1) rotate(0) translate(4 574)">
<title>Move::get_x</title>
<!-- Node1 -->
<g id="Node000001" class="node">
<title>Node1</title>
<g id="a_Node000001"><a xlink:title="Get row index.">
<polygon fill="#999999" stroke="#666666" points="376.5,-289 306.5,-289 306.5,-269 376.5,-269 376.5,-289"/>
<text xml:space="preserve" text-anchor="middle" x="341.5" y="-275.5" font-family="Helvetica,sans-Serif" font-size="10.00">Move::get_x</text>
</a>
</g>
</g>
<!-- Node2 -->
<g id="Node000002" class="node">
<title>Node2</title>
<g id="a_Node000002"><a xlink:href="$class__4by4_x_o___board.html#a9de9274fa6d3d65ec2e6899fb465b693" xlink:title="Applies a move to the board.">
<polygon fill="white" stroke="#666666" points="265.62,-570 143.12,-570 143.12,-538 265.62,-538 265.62,-570"/>
<text xml:space="preserve" text-anchor="start" x="151.12" y="-556.5" font-family="Helvetica,sans-Serif" font-size="10.00">_4by4XO_Board::update</text>
<text xml:space="preserve" text-anchor="middle" x="204.38" y="-544.5" font-family="Helvetica,sans-Serif" font-size="10.00">_board</text>
</a>
</g>
</g>
<!-- Node1&#45;&gt;Node2 -->
<g id="edge1_Node000001_Node000002" class="edge">
<title>Node1&#45;&gt;Node2</title>
<g id="a_edge1_Node000001_Node000002"><a xlink:title=" ">
<path fill="none" stroke="#63b8ff" d="M340.62,-300.63C339.71,-348.13 330.96,-462.6 270.5,-529 267.48,-532.31 263.98,-535.19 260.19,-537.69"/>
<polygon fill="#63b8ff" stroke="#63b8ff" points="344.12,-300.88 340.69,-290.86 337.12,-300.83 344.12,-300.88"/>
</a>
</g>
</g>
<!-- Node3 -->
<g id="Node000003" class="node">
<title>Node3</title>
<g id="a_Node000003"><a xlink:href="$class_anti___x_o___board.html#a6357022946ed7c926c80a780006abec3" xlink:title="Places a symbol on the board if the position is valid and empty.">
<polygon fill="white" stroke="#666666" points="263.75,-520 145,-520 145,-488 263.75,-488 263.75,-520"/>
<text xml:space="preserve" text-anchor="start" x="153" y="-506.5" font-family="Helvetica,sans-Serif" font-size="10.00">Anti_XO_Board::update</text>
<text xml:space="preserve" text-anchor="middle" x="204.38" y="-494.5" font-family="Helvetica,sans-Serif" font-size="10.00">_board</text>
</a>
</g>
</g>
<!-- Node1&#45;&gt;Node3 -->
<g id="edge2_Node000001_Node000003" class="edge">
<title>Node1&#45;&gt;Node3</title>
<g id="a_edge2_Node000001_Node000003"><a xlink:title=" ">
<path fill="none" stroke="#63b8ff" d="M338.8,-300.62C334.5,-340.98 319.74,-428.26 270.5,-479 267.29,-482.3 263.61,-485.18 259.65,-487.67"/>
<polygon fill="#63b8ff" stroke="#63b8ff" points="342.27,-301.06 339.72,-290.78 335.3,-300.41 342.27,-301.06"/>
</a>
</g>
</g>
<!-- Node4 -->
<g id="Node000004" class="node">
<title>Node4</title>
<g id="a_Node000004"><a xlink:href="$classdia___x_o___board.html#ac08c083372516dd786e53e4a87bac34f" xlink:title="Update the board with a new move.">
<polygon fill="white" stroke="#666666" points="261.5,-470 147.25,-470 147.25,-438 261.5,-438 261.5,-470"/>
<text xml:space="preserve" text-anchor="start" x="155.25" y="-456.5" font-family="Helvetica,sans-Serif" font-size="10.00">dia_XO_Board::update</text>
<text xml:space="preserve" text-anchor="middle" x="204.38" y="-444.5" font-family="Helvetica,sans-Serif" font-size="10.00">_board</text>
</a>
</g>
</g>
<!-- Node1&#45;&gt;Node4 -->
<g id="edge3_Node000001_Node000004" class="edge">
<title>Node1&#45;&gt;Node4</title>
<g id="a_edge3_Node000001_Node000004"><a xlink:title=" ">
<path fill="none" stroke="#63b8ff" d="M335.91,-300.49C327.97,-332.66 308.73,-393.36 270.5,-429 267.05,-432.22 263.13,-435.04 258.98,-437.51"/>
<polygon fill="#63b8ff" stroke="#63b8ff" points="339.31,-301.32 338.15,-290.79 332.49,-299.74 339.31,-301.32"/>
</a>
</g>
</g>
<!-- Node5 -->
<g id="Node000005" class="node">
<title>Node5</title>
<g id="a_Node000005"><a xlink:href="$class_large___x_o___board.html#ab7c22478765191720a9068b68f492891" xlink:title="Update board using a Move object (overrides base class).">
<polygon fill="white" stroke="#666666" points="267.12,-420 141.62,-420 141.62,-388 267.12,-388 267.12,-420"/>
<text xml:space="preserve" text-anchor="start" x="149.62" y="-406.5" font-family="Helvetica,sans-Serif" font-size="10.00">Large_XO_Board::update</text>
<text xml:space="preserve" text-anchor="middle" x="204.38" y="-394.5" font-family="Helvetica,sans-Serif" font-size="10.00">_board</text>
</a>
</g>
</g>
<!-- Node1&#45;&gt;Node5 -->
<g id="edge4_Node000001_Node000005" class="edge">
<title>Node1&#45;&gt;Node5</title>
<g id="a_edge4_Node000001_Node000005"><a xlink:title=" ">
<path fill="none" stroke="#63b8ff" d="M330.9,-299.37C319.41,-321.74 298.21,-357.34 270.5,-379 266.4,-382.21 261.83,-385.04 257.08,-387.54"/>
<polygon fill="#63b8ff" stroke="#63b8ff" points="333.91,-301.17 335.2,-290.66 327.64,-298.07 333.91,-301.17"/>
</a>
</g>
</g>
<!-- Node6 -->
<g id="Node000006" class="node">
<title>Node6</title>
<g id="a_Node000006"><a xlink:href="$class_memory___board.html#ab21d9e1025f3a8ae29dd17a5fb368462" xlink:title="Update the board with a new move.">
<polygon fill="white" stroke="#666666" points="263,-370 145.75,-370 145.75,-338 263,-338 263,-370"/>
<text xml:space="preserve" text-anchor="start" x="153.75" y="-356.5" font-family="Helvetica,sans-Serif" font-size="10.00">Memory_Board::update</text>
<text xml:space="preserve" text-anchor="middle" x="204.38" y="-344.5" font-family="Helvetica,sans-Serif" font-size="10.00">_board</text>
</a>
</g>
</g>
<!-- Node1&#45;&gt;Node6 -->
<g id="edge5_Node000001_Node000006" class="edge">
<title>Node1&#45;&gt;Node6</title>
<g id="a_edge5_Node000001_Node000006"><a xlink:title=" ">
<path fill="none" stroke="#63b8ff" d="M319.35,-296.26C305.92,-306.67 287.86,-319.67 270.5,-329 264.85,-332.04 258.74,-334.89 252.62,-337.51"/>
<polygon fill="#63b8ff" stroke="#63b8ff" points="321.38,-299.13 327.05,-290.18 317.03,-293.64 321.38,-299.13"/>
</a>
</g>
</g>
<!-- Node7 -->
<g id="Node000007" class="node">
<title>Node7</title>
<g id="a_Node000007"><a xlink:href="$class_obstacles___board.html#a51f3c83c61219c03b6c66231448b93b8" xlink:title="Applies a Move&lt;char&gt; object to the board.">
<polygon fill="white" stroke="#666666" points="267.5,-320 141.25,-320 141.25,-288 267.5,-288 267.5,-320"/>
<text xml:space="preserve" text-anchor="start" x="149.25" y="-306.5" font-family="Helvetica,sans-Serif" font-size="10.00">Obstacles_Board::update</text>
<text xml:space="preserve" text-anchor="middle" x="204.38" y="-294.5" font-family="Helvetica,sans-Serif" font-size="10.00">_board</text>
</a>
</g>
</g>
<!-- Node1&#45;&gt;Node7 -->
<g id="edge6_Node000001_Node000007" class="edge">
<title>Node1&#45;&gt;Node7</title>
<g id="a_edge6_Node000001_Node000007"><a xlink:title=" ">
<path fill="none" stroke="#63b8ff" d="M294.97,-287.42C286.26,-289.03 277,-290.75 267.87,-292.44"/>
<polygon fill="#63b8ff" stroke="#63b8ff" points="295.37,-290.91 304.56,-285.65 294.09,-284.03 295.37,-290.91"/>
</a>
</g>
</g>
<!-- Node8 -->
<g id="Node000008" class="node">
<title>Node8</title>
<g id="a_Node000008"><a xlink:href="$class_pyramid_x_o___board.html#a42ef6d7d850224be477c2a0a40508dd3" xlink:title="Attempts to place a symbol on the board.">
<polygon fill="white" stroke="#666666" points="270.5,-270 138.25,-270 138.25,-238 270.5,-238 270.5,-270"/>
<text xml:space="preserve" text-anchor="start" x="146.25" y="-256.5" font-family="Helvetica,sans-Serif" font-size="10.00">PyramidXO_Board::update</text>
<text xml:space="preserve" text-anchor="middle" x="204.38" y="-244.5" font-family="Helvetica,sans-Serif" font-size="10.00">_board</text>
</a>
</g>
</g>
<!-- Node1&#45;&gt;Node8 -->
<g id="edge7_Node000001_Node000008" class="edge">
<title>Node1&#45;&gt;Node8</title>
<g id="a_edge7_Node000001_Node000008"><a xlink:title=" ">
<path fill="none" stroke="#63b8ff" d="M294.73,-270.53C287.02,-269.1 278.88,-267.6 270.78,-266.1"/>
<polygon fill="#63b8ff" stroke="#63b8ff" points="294.09,-273.97 304.56,-272.35 295.37,-267.09 294.09,-273.97"/>
</a>
</g>
</g>
<!-- Node9 -->
<g id="Node000009" class="node">
<title>Node9</title>
<g id="a_Node000009"><a xlink:href="$class_s_u_s___board.html#a5cf8d1ad2da90ed50b77a7f5d91342f4" xlink:title="Applies or undoes a move on the board.">
<polygon fill="white" stroke="#666666" points="270.5,-220 138.25,-220 138.25,-200 270.5,-200 270.5,-220"/>
<text xml:space="preserve" text-anchor="middle" x="204.38" y="-206.5" font-family="Helvetica,sans-Serif" font-size="10.00">SUS_Board::update_board</text>
</a>
</g>
</g>
<!-- Node1&#45;&gt;Node9 -->
<g id="edge8_Node000001_Node000009" class="edge">
<title>Node1&#45;&gt;Node9</title>
<g id="a_edge8_Node000001_Node000009"><a xlink:title=" ">
<path fill="none" stroke="#63b8ff" d="M320.1,-261.61C306.72,-250.95 288.45,-237.71 270.5,-229 263.72,-225.71 256.26,-222.87 248.88,-220.47"/>
<polygon fill="#63b8ff" stroke="#63b8ff" points="317.77,-264.23 327.73,-267.86 322.21,-258.82 317.77,-264.23"/>
</a>
</g>
</g>
<!-- Node10 -->
<g id="Node000010" class="node">
<title>Node10</title>
<g id="a_Node000010"><a xlink:href="$class_ultimate___board.html#a9339ec67859e01c726adf55a8a77db72" xlink:title="Applies or undoes a move.">
<polygon fill="white" stroke="#666666" points="263.75,-182 145,-182 145,-150 263.75,-150 263.75,-182"/>
<text xml:space="preserve" text-anchor="start" x="153" y="-168.5" font-family="Helvetica,sans-Serif" font-size="10.00">Ultimate_Board::update</text>
<text xml:space="preserve" text-anchor="middle" x="204.38" y="-156.5" font-family="Helvetica,sans-Serif" font-size="10.00">_board</text>
</a>
</g>
</g>
<!-- Node1&#45;&gt;Node10 -->
<g id="edge9_Node000001_Node000010" class="edge">
<title>Node1&#45;&gt;Node10</title>
<g id="a_edge9_Node000001_Node000010"><a xlink:title=" ">
<path fill="none" stroke="#63b8ff" d="M328.86,-258.75C316.6,-239.03 295.61,-209.41 270.5,-191 266.1,-187.78 261.24,-184.92 256.21,-182.39"/>
<polygon fill="#63b8ff" stroke="#63b8ff" points="325.81,-260.48 333.96,-267.26 331.82,-256.88 325.81,-260.48"/>
</a>
</g>
</g>
<!-- Node11 -->
<g id="Node000011" class="node">
<title>Node11</title>
<g id="a_Node000011"><a xlink:href="$class_word___x_o___board.html#a6eba0fb4c22b625af2000afd4fb4400d" xlink:title="Validates and applies a move to the board.">
<polygon fill="white" stroke="#666666" points="266.38,-132 142.38,-132 142.38,-100 266.38,-100 266.38,-132"/>
<text xml:space="preserve" text-anchor="start" x="150.38" y="-118.5" font-family="Helvetica,sans-Serif" font-size="10.00">Word_XO_Board::update</text>
<text xml:space="preserve" text-anchor="middle" x="204.38" y="-106.5" font-family="Helvetica,sans-Serif" font-size="10.00">_board</text>
</a>
</g>
</g>
<!-- Node1&#45;&gt;Node11 -->
<g id="edge10_Node000001_Node000011" class="edge">
<title>Node1&#45;&gt;Node11</title>
<g id="a_edge10_Node000001_Node000011"><a xlink:title=" ">
<path fill="none" stroke="#63b8ff" d="M335.05,-257.95C326.27,-228.03 306.27,-173.26 270.5,-141 266.9,-137.76 262.84,-134.91 258.54,-132.43"/>
<polygon fill="#63b8ff" stroke="#63b8ff" points="331.6,-258.61 337.64,-267.32 338.34,-256.75 331.6,-258.61"/>
</a>
</g>
</g>
<!-- Node13 -->
<g id="Node000013" class="node">
<title>Node13</title>
<g id="a_Node000013"><a xlink:href="$class_x_o__inf___board.html#ad8c2e867524a221c9e51c5b71806e509" xlink:title="Apply or undo a move on the board.">
<polygon fill="white" stroke="#666666" points="260.38,-82 148.38,-82 148.38,-50 260.38,-50 260.38,-82"/>
<text xml:space="preserve" text-anchor="start" x="156.38" y="-68.5" font-family="Helvetica,sans-Serif" font-size="10.00">XO_inf_Board::update</text>
<text xml:space="preserve" text-anchor="middle" x="204.38" y="-56.5" font-family="Helvetica,sans-Serif" font-size="10.00">_board</text>
</a>
</g>
</g>
<!-- Node1&#45;&gt;Node13 -->
<g id="edge12_Node000001_Node000013" class="edge">
<title>Node1&#45;&gt;Node13</title>
<g id="a_edge12_Node000001_Node000013"><a xlink:title=" ">
<path fill="none" stroke="#63b8ff" d="M338.26,-257.62C333.14,-219.21 317.17,-138.14 270.5,-91 267.26,-87.73 263.55,-84.88 259.58,-82.4"/>
<polygon fill="#63b8ff" stroke="#63b8ff" points="334.77,-257.88 339.43,-267.4 341.72,-257.05 334.77,-257.88"/>
</a>
</g>
</g>
<!-- Node14 -->
<g id="Node000014" class="node">
<title>Node14</title>
<g id="a_Node000014"><a xlink:href="$class_x_o___n_u_m___board.html#af7ec62268666ef6dd7bd90219172522e" xlink:title="Applies or undoes a move.">
<polygon fill="white" stroke="#666666" points="266.75,-32 142,-32 142,0 266.75,0 266.75,-32"/>
<text xml:space="preserve" text-anchor="start" x="150" y="-18.5" font-family="Helvetica,sans-Serif" font-size="10.00">XO_NUM_Board::update</text>
<text xml:space="preserve" text-anchor="middle" x="204.38" y="-6.5" font-family="Helvetica,sans-Serif" font-size="10.00">_board</text>
</a>
</g>
</g>
<!-- Node1&#45;&gt;Node14 -->
<g id="edge13_Node000001_Node000014" class="edge">
<title>Node1&#45;&gt;Node14</title>
<g id="a_edge13_Node000001_Node000014"><a xlink:title=" ">
<path fill="none" stroke="#63b8ff" d="M340.25,-257.49C338.57,-211.69 328.3,-103.65 270.5,-41 267.46,-37.71 263.94,-34.84 260.14,-32.35"/>
<polygon fill="#63b8ff" stroke="#63b8ff" points="336.75,-257.47 340.5,-267.38 343.75,-257.3 336.75,-257.47"/>
</a>
</g>
</g>
<!-- Node12 -->
<g id="Node000012" class="node">
<title>Node12</title>
<g id="a_Node000012"><a xlink:href="$class_word___a_i.html#abadf0c9ca0a9e14ba6e21f463c11a11f" xlink:title="Computes and returns the optimal move.">
<polygon fill="white" stroke="#666666" points="102.25,-126 0,-126 0,-106 102.25,-106 102.25,-126"/>
<text xml:space="preserve" text-anchor="middle" x="51.12" y="-112.5" font-family="Helvetica,sans-Serif" font-size="10.00">Word_AI::bestMove</text>
</a>
</g>
</g>
<!-- Node11&#45;&gt;Node12 -->
<g id="edge11_Node000011_Node000012" class="edge">
<title>Node11&#45;&gt;Node12</title>
<g id="a_edge11_Node000011_Node000012"><a xlink:title=" ">
<path fill="none" stroke="#63b8ff" d="M130.98,-116C121.28,-116 111.51,-116 102.3,-116"/>
<polygon fill="#63b8ff" stroke="#63b8ff" points="130.78,-119.5 140.78,-116 130.78,-112.5 130.78,-119.5"/>
</a>
</g>
</g>
</g>
</svg>
