<?xml version="1.0" encoding="UTF-8" standalone="no"?>
<!DOCTYPE svg PUBLIC "-//W3C//DTD SVG 1.1//EN"
 "http://www.w3.org/Graphics/SVG/1.1/DTD/svg11.dtd">
<!-- Generated by graphviz version 14.0.2 (20251019.1705)
 -->
<!-- Title: XO_inf_Board::update_board Pages: 1 -->
<svg width="252pt" height="104pt"
 viewBox="0.00 0.00 252.00 104.00" xmlns="http://www.w3.org/2000/svg" xmlns:xlink="http://www.w3.org/1999/xlink">
<g id="graph0" class="graph" transform="scale(1 1) rotate(0) translate(4 100)">
<title>XO_inf_Board::update_board</title>
<!-- Node1 -->
<g id="Node000001" class="node">
<title>Node1</title>
<g id="a_Node000001"><a xlink:title="Apply a move to the board.">
<polygon fill="#999999" stroke="#666666" points="112,-64 0,-64 0,-32 112,-32 112,-64"/>
<text xml:space="preserve" text-anchor="start" x="8" y="-50.5" font-family="Helvetica,sans-Serif" font-size="10.00">XO_inf_Board::update</text>
<text xml:space="preserve" text-anchor="middle" x="56" y="-38.5" font-family="Helvetica,sans-Serif" font-size="10.00">_board</text>
</a>
</g>
</g>
<!-- Node2 -->
<g id="Node000002" class="node">
<title>Node2</title>
<g id="a_Node000002"><a xlink:href="class_move.html#a595bf740852c05a1cb425ef2640fd4ff" target="_top" xlink:title="Get the move symbol.">
<polygon fill="white" stroke="#666666" points="244.25,-96 148,-96 148,-76 244.25,-76 244.25,-96"/>
<text xml:space="preserve" text-anchor="middle" x="196.12" y="-82.5" font-family="Helvetica,sans-Serif" font-size="10.00">Move::get_symbol</text>
</a>
</g>
</g>
<!-- Node1&#45;&gt;Node2 -->
<g id="edge1_Node000001_Node000002" class="edge">
<title>Node1&#45;&gt;Node2</title>
<g id="a_edge1_Node000001_Node000002"><a xlink:title=" ">
<path fill="none" stroke="#63b8ff" d="M112.38,-63.24C123.53,-66.3 135.16,-69.5 146.07,-72.5"/>
<polygon fill="#63b8ff" stroke="#63b8ff" points="145.09,-75.86 155.66,-75.14 146.95,-69.12 145.09,-75.86"/>
</a>
</g>
</g>
<!-- Node3 -->
<g id="Node000003" class="node">
<title>Node3</title>
<g id="a_Node000003"><a xlink:href="class_move.html#a9d4f543a81e361f872d37bcfb64d5b55" target="_top" xlink:title="Get row index.">
<polygon fill="white" stroke="#666666" points="231.12,-58 161.12,-58 161.12,-38 231.12,-38 231.12,-58"/>
<text xml:space="preserve" text-anchor="middle" x="196.12" y="-44.5" font-family="Helvetica,sans-Serif" font-size="10.00">Move::get_x</text>
</a>
</g>
</g>
<!-- Node1&#45;&gt;Node3 -->
<g id="edge2_Node000001_Node000003" class="edge">
<title>Node1&#45;&gt;Node3</title>
<g id="a_edge2_Node000001_Node000003"><a xlink:title=" ">
<path fill="none" stroke="#63b8ff" d="M112.38,-48C124.66,-48 137.53,-48 149.36,-48"/>
<polygon fill="#63b8ff" stroke="#63b8ff" points="149.28,-51.5 159.28,-48 149.28,-44.5 149.28,-51.5"/>
</a>
</g>
</g>
<!-- Node4 -->
<g id="Node000004" class="node">
<title>Node4</title>
<g id="a_Node000004"><a xlink:href="class_move.html#a96469802a55c9083a1e93c7edec8a00c" target="_top" xlink:title="Get column index.">
<polygon fill="white" stroke="#666666" points="231.12,-20 161.12,-20 161.12,0 231.12,0 231.12,-20"/>
<text xml:space="preserve" text-anchor="middle" x="196.12" y="-6.5" font-family="Helvetica,sans-Serif" font-size="10.00">Move::get_y</text>
</a>
</g>
</g>
<!-- Node1&#45;&gt;Node4 -->
<g id="edge3_Node000001_Node000004" class="edge">
<title>Node1&#45;&gt;Node4</title>
<g id="a_edge3_Node000001_Node000004"><a xlink:title=" ">
<path fill="none" stroke="#63b8ff" d="M112.38,-32.76C124.78,-29.35 137.8,-25.77 149.73,-22.49"/>
<polygon fill="#63b8ff" stroke="#63b8ff" points="150.62,-25.87 159.34,-19.85 148.77,-19.12 150.62,-25.87"/>
</a>
</g>
</g>
</g>
</svg>
