<?xml version="1.0" encoding="UTF-8" standalone="no"?>
<!DOCTYPE svg PUBLIC "-//W3C//DTD SVG 1.1//EN"
 "http://www.w3.org/Graphics/SVG/1.1/DTD/svg11.dtd">
<!-- Generated by graphviz version 14.0.2 (20251019.1705)
 -->
<!-- Title: Word_AI::bestMove Pages: 1 -->
<svg width="437pt" height="224pt"
 viewBox="0.00 0.00 437.00 224.00" xmlns="http://www.w3.org/2000/svg" xmlns:xlink="http://www.w3.org/1999/xlink">
<g id="graph0" class="graph" transform="scale(1 1) rotate(0) translate(4 220)">
<title>Word_AI::bestMove</title>
<!-- Node1 -->
<g id="Node000001" class="node">
<title>Node1</title>
<g id="a_Node000001"><a xlink:title="Computes and returns the optimal move.">
<polygon fill="#999999" stroke="#666666" points="102.25,-140 0,-140 0,-120 102.25,-120 102.25,-140"/>
<text xml:space="preserve" text-anchor="middle" x="51.12" y="-126.5" font-family="Helvetica,sans-Serif" font-size="10.00">Word_AI::bestMove</text>
</a>
</g>
</g>
<!-- Node2 -->
<g id="Node000002" class="node">
<title>Node2</title>
<g id="a_Node000002"><a xlink:href="$class_player.html#a508617eddfae8915d098102d480fc888" xlink:title="Get a pointer to the game board.">
<polygon fill="white" stroke="#666666" points="272,-216 163,-216 163,-196 272,-196 272,-216"/>
<text xml:space="preserve" text-anchor="middle" x="217.5" y="-202.5" font-family="Helvetica,sans-Serif" font-size="10.00">Player::get_board_ptr</text>
</a>
</g>
</g>
<!-- Node1&#45;&gt;Node2 -->
<g id="edge1_Node000001_Node000002" class="edge">
<title>Node1&#45;&gt;Node2</title>
<g id="a_edge1_Node000001_Node000002"><a xlink:title=" ">
<path fill="none" stroke="#63b8ff" d="M64.73,-140.4C80.82,-153.18 109.98,-174.67 138.25,-187 142.57,-188.89 147.12,-190.61 151.75,-192.17"/>
<polygon fill="#63b8ff" stroke="#63b8ff" points="150.62,-195.48 161.2,-195.09 152.68,-188.8 150.62,-195.48"/>
</a>
</g>
</g>
<!-- Node3 -->
<g id="Node000003" class="node">
<title>Node3</title>
<g id="a_Node000003"><a xlink:href="$class_board.html#a93558c58e60ca4291c6044828afd260b" xlink:title="Return content of cell x, y in current board.">
<polygon fill="white" stroke="#666666" points="258.12,-178 176.88,-178 176.88,-158 258.12,-158 258.12,-178"/>
<text xml:space="preserve" text-anchor="middle" x="217.5" y="-164.5" font-family="Helvetica,sans-Serif" font-size="10.00">Board::get_cell</text>
</a>
</g>
</g>
<!-- Node1&#45;&gt;Node3 -->
<g id="edge2_Node000001_Node000003" class="edge">
<title>Node1&#45;&gt;Node3</title>
<g id="a_edge2_Node000001_Node000003"><a xlink:title=" ">
<path fill="none" stroke="#63b8ff" d="M97.48,-140.48C118.6,-145.37 143.81,-151.2 165.58,-156.23"/>
<polygon fill="#63b8ff" stroke="#63b8ff" points="164.61,-159.6 175.14,-158.44 166.18,-152.78 164.61,-159.6"/>
</a>
</g>
</g>
<!-- Node4 -->
<g id="Node000004" class="node">
<title>Node4</title>
<g id="a_Node000004"><a xlink:href="$class_word___x_o___board.html#a1fa0932270c921458e31e24ed4d473e5" xlink:title="Returns the symbol representing an unoccupied cell.">
<polygon fill="white" stroke="#666666" points="294.5,-140 140.5,-140 140.5,-120 294.5,-120 294.5,-140"/>
<text xml:space="preserve" text-anchor="middle" x="217.5" y="-126.5" font-family="Helvetica,sans-Serif" font-size="10.00">Word_XO_Board::getEmptyCell</text>
</a>
</g>
</g>
<!-- Node1&#45;&gt;Node4 -->
<g id="edge3_Node000001_Node000004" class="edge">
<title>Node1&#45;&gt;Node4</title>
<g id="a_edge3_Node000001_Node000004"><a xlink:title=" ">
<path fill="none" stroke="#63b8ff" d="M102.34,-130C110.77,-130 119.73,-130 128.78,-130"/>
<polygon fill="#63b8ff" stroke="#63b8ff" points="128.75,-133.5 138.75,-130 128.75,-126.5 128.75,-133.5"/>
</a>
</g>
</g>
<!-- Node5 -->
<g id="Node000005" class="node">
<title>Node5</title>
<g id="a_Node000005"><a xlink:href="$class_word___x_o___board.html#a3bd8d50441fb2bb14988faa4baa7b98b" xlink:title="Retrieves the number of moves made so far.">
<polygon fill="white" stroke="#666666" points="296.75,-102 138.25,-102 138.25,-82 296.75,-82 296.75,-102"/>
<text xml:space="preserve" text-anchor="middle" x="217.5" y="-88.5" font-family="Helvetica,sans-Serif" font-size="10.00">Word_XO_Board::getMoveCount</text>
</a>
</g>
</g>
<!-- Node1&#45;&gt;Node5 -->
<g id="edge4_Node000001_Node000005" class="edge">
<title>Node1&#45;&gt;Node5</title>
<g id="a_edge4_Node000001_Node000005"><a xlink:title=" ">
<path fill="none" stroke="#63b8ff" d="M97.48,-119.52C116.88,-115.03 139.74,-109.75 160.21,-105.01"/>
<polygon fill="#63b8ff" stroke="#63b8ff" points="160.87,-108.45 169.82,-102.79 159.29,-101.63 160.87,-108.45"/>
</a>
</g>
</g>
<!-- Node6 -->
<g id="Node000006" class="node">
<title>Node6</title>
<g id="a_Node000006"><a xlink:href="$class_word___x_o___board.html#a6eba0fb4c22b625af2000afd4fb4400d" xlink:title="Validates and applies a move to the board.">
<polygon fill="white" stroke="#666666" points="279.5,-64 155.5,-64 155.5,-32 279.5,-32 279.5,-64"/>
<text xml:space="preserve" text-anchor="start" x="163.5" y="-50.5" font-family="Helvetica,sans-Serif" font-size="10.00">Word_XO_Board::update</text>
<text xml:space="preserve" text-anchor="middle" x="217.5" y="-38.5" font-family="Helvetica,sans-Serif" font-size="10.00">_board</text>
</a>
</g>
</g>
<!-- Node1&#45;&gt;Node6 -->
<g id="edge5_Node000001_Node000006" class="edge">
<title>Node1&#45;&gt;Node6</title>
<g id="a_edge5_Node000001_Node000006"><a xlink:title=" ">
<path fill="none" stroke="#63b8ff" d="M65.16,-119.7C81.46,-107.23 110.6,-86.25 138.25,-73 141.53,-71.43 144.93,-69.92 148.4,-68.48"/>
<polygon fill="#63b8ff" stroke="#63b8ff" points="149.49,-71.81 157.54,-64.92 146.95,-65.29 149.49,-71.81"/>
</a>
</g>
</g>
<!-- Node7 -->
<g id="Node000007" class="node">
<title>Node7</title>
<g id="a_Node000007"><a xlink:href="$class_move.html#a595bf740852c05a1cb425ef2640fd4ff" xlink:title="Get the move symbol.">
<polygon fill="white" stroke="#666666" points="429,-96 332.75,-96 332.75,-76 429,-76 429,-96"/>
<text xml:space="preserve" text-anchor="middle" x="380.88" y="-82.5" font-family="Helvetica,sans-Serif" font-size="10.00">Move::get_symbol</text>
</a>
</g>
</g>
<!-- Node6&#45;&gt;Node7 -->
<g id="edge6_Node000006_Node000007" class="edge">
<title>Node6&#45;&gt;Node7</title>
<g id="a_edge6_Node000006_Node000007"><a xlink:title=" ">
<path fill="none" stroke="#63b8ff" d="M279.97,-62.47C294.59,-65.92 310.1,-69.57 324.43,-72.94"/>
<polygon fill="#63b8ff" stroke="#63b8ff" points="323.62,-76.35 334.16,-75.23 325.23,-69.54 323.62,-76.35"/>
</a>
</g>
</g>
<!-- Node8 -->
<g id="Node000008" class="node">
<title>Node8</title>
<g id="a_Node000008"><a xlink:href="$class_move.html#a9d4f543a81e361f872d37bcfb64d5b55" xlink:title="Get row index.">
<polygon fill="white" stroke="#666666" points="415.88,-58 345.88,-58 345.88,-38 415.88,-38 415.88,-58"/>
<text xml:space="preserve" text-anchor="middle" x="380.88" y="-44.5" font-family="Helvetica,sans-Serif" font-size="10.00">Move::get_x</text>
</a>
</g>
</g>
<!-- Node6&#45;&gt;Node8 -->
<g id="edge7_Node000006_Node000008" class="edge">
<title>Node6&#45;&gt;Node8</title>
<g id="a_edge7_Node000006_Node000008"><a xlink:title=" ">
<path fill="none" stroke="#63b8ff" d="M279.97,-48C298.06,-48 317.52,-48 334.42,-48"/>
<polygon fill="#63b8ff" stroke="#63b8ff" points="334.15,-51.5 344.15,-48 334.15,-44.5 334.15,-51.5"/>
</a>
</g>
</g>
<!-- Node9 -->
<g id="Node000009" class="node">
<title>Node9</title>
<g id="a_Node000009"><a xlink:href="$class_move.html#a96469802a55c9083a1e93c7edec8a00c" xlink:title="Get column index.">
<polygon fill="white" stroke="#666666" points="415.88,-20 345.88,-20 345.88,0 415.88,0 415.88,-20"/>
<text xml:space="preserve" text-anchor="middle" x="380.88" y="-6.5" font-family="Helvetica,sans-Serif" font-size="10.00">Move::get_y</text>
</a>
</g>
</g>
<!-- Node6&#45;&gt;Node9 -->
<g id="edge8_Node000006_Node000009" class="edge">
<title>Node6&#45;&gt;Node9</title>
<g id="a_edge8_Node000006_Node000009"><a xlink:title=" ">
<path fill="none" stroke="#63b8ff" d="M279.97,-33.53C298.24,-29.22 317.9,-24.59 334.91,-20.59"/>
<polygon fill="#63b8ff" stroke="#63b8ff" points="335.25,-24.1 344.19,-18.4 333.65,-17.29 335.25,-24.1"/>
</a>
</g>
</g>
</g>
</svg>
