<?xml version="1.0" encoding="UTF-8" standalone="no"?>
<!DOCTYPE svg PUBLIC "-//W3C//DTD SVG 1.1//EN"
 "http://www.w3.org/Graphics/SVG/1.1/DTD/svg11.dtd">
<!-- Generated by graphviz version 14.0.2 (20251019.1705)
 -->
<!-- Title: Large_XO_UI::get_move Pages: 1 -->
<svg width="277pt" height="142pt"
 viewBox="0.00 0.00 277.00 142.00" xmlns="http://www.w3.org/2000/svg" xmlns:xlink="http://www.w3.org/1999/xlink">
<g id="graph0" class="graph" transform="scale(1 1) rotate(0) translate(4 138)">
<title>Large_XO_UI::get_move</title>
<!-- Node1 -->
<g id="Node000001" class="node">
<title>Node1</title>
<g id="a_Node000001"><a xlink:title="Request a move from Human, Random, or AI player.">
<polygon fill="#999999" stroke="#666666" points="124,-77 0,-77 0,-57 124,-57 124,-77"/>
<text xml:space="preserve" text-anchor="middle" x="62" y="-63.5" font-family="Helvetica,sans-Serif" font-size="10.00">Large_XO_UI::get_move</text>
</a>
</g>
</g>
<!-- Node2 -->
<g id="Node000002" class="node">
<title>Node2</title>
<g id="a_Node000002"><a xlink:href="$class_player.html#a508617eddfae8915d098102d480fc888" xlink:title="Get a pointer to the game board.">
<polygon fill="white" stroke="#666666" points="269,-134 160,-134 160,-114 269,-114 269,-134"/>
<text xml:space="preserve" text-anchor="middle" x="214.5" y="-120.5" font-family="Helvetica,sans-Serif" font-size="10.00">Player::get_board_ptr</text>
</a>
</g>
</g>
<!-- Node1&#45;&gt;Node2 -->
<g id="edge1_Node000001_Node000002" class="edge">
<title>Node1&#45;&gt;Node2</title>
<g id="a_edge1_Node000001_Node000002"><a xlink:title=" ">
<path fill="none" stroke="#63b8ff" d="M88.85,-77.39C108.34,-85.16 135.77,-95.95 160,-105 164.14,-106.55 168.47,-108.13 172.8,-109.7"/>
<polygon fill="#63b8ff" stroke="#63b8ff" points="171.43,-112.92 182.02,-113.01 173.79,-106.34 171.43,-112.92"/>
</a>
</g>
</g>
<!-- Node3 -->
<g id="Node000003" class="node">
<title>Node3</title>
<g id="a_Node000003"><a xlink:href="$class_player.html#aed2af19790ba73190e3ebeea589518e1" xlink:title="Get the player&#39;s name.">
<polygon fill="white" stroke="#666666" points="260.75,-96 168.25,-96 168.25,-76 260.75,-76 260.75,-96"/>
<text xml:space="preserve" text-anchor="middle" x="214.5" y="-82.5" font-family="Helvetica,sans-Serif" font-size="10.00">Player::get_name</text>
</a>
</g>
</g>
<!-- Node1&#45;&gt;Node3 -->
<g id="edge2_Node000001_Node000003" class="edge">
<title>Node1&#45;&gt;Node3</title>
<g id="a_edge2_Node000001_Node000003"><a xlink:title=" ">
<path fill="none" stroke="#63b8ff" d="M124.21,-74.73C134.97,-76.09 146.13,-77.49 156.75,-78.84"/>
<polygon fill="#63b8ff" stroke="#63b8ff" points="156.18,-82.29 166.54,-80.07 157.05,-75.35 156.18,-82.29"/>
</a>
</g>
</g>
<!-- Node4 -->
<g id="Node000004" class="node">
<title>Node4</title>
<g id="a_Node000004"><a xlink:href="$class_player.html#af56f0bf98c0423a3a75b0848607d03a4" xlink:title="Get the player&#39;s symbol.">
<polygon fill="white" stroke="#666666" points="264.5,-58 164.5,-58 164.5,-38 264.5,-38 264.5,-58"/>
<text xml:space="preserve" text-anchor="middle" x="214.5" y="-44.5" font-family="Helvetica,sans-Serif" font-size="10.00">Player::get_symbol</text>
</a>
</g>
</g>
<!-- Node1&#45;&gt;Node4 -->
<g id="edge3_Node000001_Node000004" class="edge">
<title>Node1&#45;&gt;Node4</title>
<g id="a_edge3_Node000001_Node000004"><a xlink:title=" ">
<path fill="none" stroke="#63b8ff" d="M124.21,-59.27C133.7,-58.07 143.5,-56.84 152.97,-55.64"/>
<polygon fill="#63b8ff" stroke="#63b8ff" points="153.34,-59.12 162.82,-54.4 152.46,-52.18 153.34,-59.12"/>
</a>
</g>
</g>
<!-- Node5 -->
<g id="Node000005" class="node">
<title>Node5</title>
<g id="a_Node000005"><a xlink:href="$class_player.html#a2df3bd299bf7aecfa2275ec6902a60f8" xlink:title="Get player type (e.g., &#39;H&#39; or &#39;C&#39;).">
<polygon fill="white" stroke="#666666" points="258.12,-20 170.88,-20 170.88,0 258.12,0 258.12,-20"/>
<text xml:space="preserve" text-anchor="middle" x="214.5" y="-6.5" font-family="Helvetica,sans-Serif" font-size="10.00">Player::get_type</text>
</a>
</g>
</g>
<!-- Node1&#45;&gt;Node5 -->
<g id="edge4_Node000001_Node000005" class="edge">
<title>Node1&#45;&gt;Node5</title>
<g id="a_edge4_Node000001_Node000005"><a xlink:title=" ">
<path fill="none" stroke="#63b8ff" d="M88.85,-56.61C108.34,-48.84 135.77,-38.05 160,-29 164.14,-27.45 168.47,-25.87 172.8,-24.3"/>
<polygon fill="#63b8ff" stroke="#63b8ff" points="173.79,-27.66 182.02,-20.99 171.43,-21.08 173.79,-27.66"/>
</a>
</g>
</g>
</g>
</svg>
