<?xml version="1.0" encoding="UTF-8" standalone="no"?>
<!DOCTYPE svg PUBLIC "-//W3C//DTD SVG 1.1//EN"
 "http://www.w3.org/Graphics/SVG/1.1/DTD/svg11.dtd">
<!-- Generated by graphviz version 14.0.2 (20251019.1705)
 -->
<!-- Title: Custom_UI&lt; T &gt; Pages: 1 -->
<svg width="135pt" height="388pt"
 viewBox="0.00 0.00 135.00 388.00" xmlns="http://www.w3.org/2000/svg" xmlns:xlink="http://www.w3.org/1999/xlink">
<g id="graph0" class="graph" transform="scale(1 1) rotate(0) translate(4 384)">
<title>Custom_UI&lt; T &gt;</title>
<!-- Node1 -->
<g id="Node000001" class="node">
<title>Node1</title>
<g id="a_Node000001"><a xlink:title="Provides a customizable UI supporting multiple player types.">
<polygon fill="#999999" stroke="none" points="126.75,-148 0,-148 0,0 126.75,0 126.75,-148"/>
<text xml:space="preserve" text-anchor="start" x="26.62" y="-134.5" font-family="Helvetica,sans-Serif" font-size="10.00">Custom_UI&lt; T &gt;</text>
<text xml:space="preserve" text-anchor="start" x="61.88" y="-118.5" font-family="Helvetica,sans-Serif" font-size="10.00"> </text>
<text xml:space="preserve" text-anchor="start" x="4" y="-102.5" font-family="Helvetica,sans-Serif" font-size="10.00">+</text>
<text xml:space="preserve" text-anchor="start" x="14" y="-102.5" font-family="Helvetica,sans-Serif" font-size="10.00">Custom_UI()</text>
<text xml:space="preserve" text-anchor="start" x="4" y="-86.5" font-family="Helvetica,sans-Serif" font-size="10.00">+</text>
<text xml:space="preserve" text-anchor="start" x="14" y="-86.5" font-family="Helvetica,sans-Serif" font-size="10.00">Custom_UI()</text>
<text xml:space="preserve" text-anchor="start" x="4" y="-70.5" font-family="Helvetica,sans-Serif" font-size="10.00">+</text>
<text xml:space="preserve" text-anchor="start" x="14" y="-70.5" font-family="Helvetica,sans-Serif" font-size="10.00">display_message()</text>
<text xml:space="preserve" text-anchor="start" x="4" y="-54.5" font-family="Helvetica,sans-Serif" font-size="10.00">+</text>
<text xml:space="preserve" text-anchor="start" x="14" y="-54.5" font-family="Helvetica,sans-Serif" font-size="10.00">create_player()</text>
<text xml:space="preserve" text-anchor="start" x="4" y="-38.5" font-family="Helvetica,sans-Serif" font-size="10.00">+</text>
<text xml:space="preserve" text-anchor="start" x="14" y="-38.5" font-family="Helvetica,sans-Serif" font-size="10.00">setup_players()</text>
<text xml:space="preserve" text-anchor="start" x="4" y="-22.5" font-family="Helvetica,sans-Serif" font-size="10.00">+</text>
<text xml:space="preserve" text-anchor="start" x="14" y="-22.5" font-family="Helvetica,sans-Serif" font-size="10.00">display_board_matrix()</text>
<text xml:space="preserve" text-anchor="start" x="4.38" y="-6.5" font-family="Helvetica,sans-Serif" font-size="10.00">#</text>
<text xml:space="preserve" text-anchor="start" x="14" y="-6.5" font-family="Helvetica,sans-Serif" font-size="10.00">get_player_type_choice()</text>
<polygon fill="#666666" stroke="#666666" points="0,-130 0,-130 126.75,-130 126.75,-130 0,-130"/>
<polygon fill="#666666" stroke="#666666" points="0,-114 0,-114 126.75,-114 126.75,-114 0,-114"/>
<polygon fill="none" stroke="#666666" points="0,0 0,-148 126.75,-148 126.75,0 0,0"/>
</a>
</g>
</g>
<!-- Node2 -->
<g id="Node000002" class="node">
<title>Node2</title>
<g id="a_Node000002"><a xlink:href="$class_u_i.html" xlink:title="Base class for handling user interface and input/output.">
<polygon fill="white" stroke="none" points="126.75,-380 0,-380 0,-184 126.75,-184 126.75,-380"/>
<text xml:space="preserve" text-anchor="start" x="46.5" y="-366.5" font-family="Helvetica,sans-Serif" font-size="10.00">UI&lt; T &gt;</text>
<text xml:space="preserve" text-anchor="start" x="4.38" y="-350.5" font-family="Helvetica,sans-Serif" font-size="10.00">#</text>
<text xml:space="preserve" text-anchor="start" x="14" y="-350.5" font-family="Helvetica,sans-Serif" font-size="10.00">cell_width</text>
<text xml:space="preserve" text-anchor="start" x="4" y="-334.5" font-family="Helvetica,sans-Serif" font-size="10.00">+</text>
<text xml:space="preserve" text-anchor="start" x="14" y="-334.5" font-family="Helvetica,sans-Serif" font-size="10.00">UI()</text>
<text xml:space="preserve" text-anchor="start" x="4" y="-318.5" font-family="Helvetica,sans-Serif" font-size="10.00">+</text>
<text xml:space="preserve" text-anchor="start" x="14" y="-318.5" font-family="Helvetica,sans-Serif" font-size="10.00">UI()</text>
<text xml:space="preserve" text-anchor="start" x="4" y="-302.5" font-family="Helvetica,sans-Serif" font-size="10.00">+</text>
<text xml:space="preserve" text-anchor="start" x="14" y="-302.5" font-family="Helvetica,sans-Serif" font-size="10.00">~UI()</text>
<text xml:space="preserve" text-anchor="start" x="4" y="-286.5" font-family="Helvetica,sans-Serif" font-size="10.00">+</text>
<text xml:space="preserve" text-anchor="start" x="14" y="-286.5" font-family="Helvetica,sans-Serif" font-size="10.00">display_message()</text>
<text xml:space="preserve" text-anchor="start" x="4" y="-270.5" font-family="Helvetica,sans-Serif" font-size="10.00">+</text>
<text xml:space="preserve" text-anchor="start" x="14" y="-270.5" font-family="Helvetica,sans-Serif" font-size="10.00">get_move()</text>
<text xml:space="preserve" text-anchor="start" x="4" y="-254.5" font-family="Helvetica,sans-Serif" font-size="10.00">+</text>
<text xml:space="preserve" text-anchor="start" x="14" y="-254.5" font-family="Helvetica,sans-Serif" font-size="10.00">setup_players()</text>
<text xml:space="preserve" text-anchor="start" x="4" y="-238.5" font-family="Helvetica,sans-Serif" font-size="10.00">+</text>
<text xml:space="preserve" text-anchor="start" x="14" y="-238.5" font-family="Helvetica,sans-Serif" font-size="10.00">create_player()</text>
<text xml:space="preserve" text-anchor="start" x="4" y="-222.5" font-family="Helvetica,sans-Serif" font-size="10.00">+</text>
<text xml:space="preserve" text-anchor="start" x="14" y="-222.5" font-family="Helvetica,sans-Serif" font-size="10.00">display_board_matrix()</text>
<text xml:space="preserve" text-anchor="start" x="4.38" y="-206.5" font-family="Helvetica,sans-Serif" font-size="10.00">#</text>
<text xml:space="preserve" text-anchor="start" x="14" y="-206.5" font-family="Helvetica,sans-Serif" font-size="10.00">get_player_name()</text>
<text xml:space="preserve" text-anchor="start" x="4.38" y="-190.5" font-family="Helvetica,sans-Serif" font-size="10.00">#</text>
<text xml:space="preserve" text-anchor="start" x="14" y="-190.5" font-family="Helvetica,sans-Serif" font-size="10.00">get_player_type_choice()</text>
<polygon fill="#666666" stroke="#666666" points="0,-362 0,-362 126.75,-362 126.75,-362 0,-362"/>
<polygon fill="#666666" stroke="#666666" points="0,-346 0,-346 12,-346 12,-346 0,-346"/>
<polygon fill="#666666" stroke="#666666" points="12,-346 12,-346 126.75,-346 126.75,-346 12,-346"/>
<polygon fill="none" stroke="#666666" points="0,-184 0,-380 126.75,-380 126.75,-184 0,-184"/>
</a>
</g>
</g>
<!-- Node2&#45;&gt;Node1 -->
<g id="edge1_Node000001_Node000002" class="edge">
<title>Node2&#45;&gt;Node1</title>
<g id="a_edge1_Node000001_Node000002"><a xlink:title=" ">
<path fill="none" stroke="#63b8ff" d="M63.38,-172.57C63.38,-164.18 63.38,-155.83 63.38,-147.75"/>
<polygon fill="none" stroke="#63b8ff" points="59.88,-172.52 63.38,-182.52 66.88,-172.52 59.88,-172.52"/>
</a>
</g>
</g>
</g>
</svg>
