<?xml version="1.0" encoding="UTF-8" standalone="no"?>
<!DOCTYPE svg PUBLIC "-//W3C//DTD SVG 1.1//EN"
 "http://www.w3.org/Graphics/SVG/1.1/DTD/svg11.dtd">
<!-- Generated by graphviz version 14.0.2 (20251019.1705)
 -->
<!-- Title: Matrix::resize Pages: 1 -->
<svg width="371pt" height="104pt"
 viewBox="0.00 0.00 371.00 104.00" xmlns="http://www.w3.org/2000/svg" xmlns:xlink="http://www.w3.org/1999/xlink">
<g id="graph0" class="graph" transform="scale(1 1) rotate(0) translate(4 100)">
<title>Matrix::resize</title>
<!-- Node1 -->
<g id="Node000001" class="node">
<title>Node1</title>
<g id="a_Node000001"><a xlink:title="Resize matrix to (r x c) and reset all elements to zero.">
<polygon fill="#999999" stroke="#666666" points="363,-77 287.75,-77 287.75,-57 363,-57 363,-77"/>
<text xml:space="preserve" text-anchor="middle" x="325.38" y="-63.5" font-family="Helvetica,sans-Serif" font-size="10.00">Matrix::resize</text>
</a>
</g>
</g>
<!-- Node2 -->
<g id="Node000002" class="node">
<title>Node2</title>
<g id="a_Node000002"><a xlink:href="$class_large___x_o___board.html#a7d0f28af0a33808c512269ee6cad1970" xlink:title="Encode board state into a matrix for the neural network. AI = +1, Opponent = &#45;1, Empty = 0.">
<polygon fill="white" stroke="#666666" points="251.75,-96 124,-96 124,-76 251.75,-76 251.75,-96"/>
<text xml:space="preserve" text-anchor="middle" x="187.88" y="-82.5" font-family="Helvetica,sans-Serif" font-size="10.00">Large_XO_Board::encode</text>
</a>
</g>
</g>
<!-- Node1&#45;&gt;Node2 -->
<g id="edge1_Node000001_Node000002" class="edge">
<title>Node1&#45;&gt;Node2</title>
<g id="a_edge1_Node000001_Node000002"><a xlink:title=" ">
<path fill="none" stroke="#63b8ff" d="M275.98,-73.79C268.26,-74.87 260.17,-76 252.17,-77.12"/>
<polygon fill="#63b8ff" stroke="#63b8ff" points="276.43,-77.26 285.85,-72.4 275.46,-70.32 276.43,-77.26"/>
</a>
</g>
</g>
<!-- Node3 -->
<g id="Node000003" class="node">
<title>Node3</title>
<g id="a_Node000003"><a xlink:href="$class_matrix.html#a79fa5a3893939d8b399f86c6c1ff15a7" xlink:title="Optimized matrix multiplication into a preallocated matrix.">
<polygon fill="white" stroke="#666666" points="229.25,-58 146.5,-58 146.5,-38 229.25,-38 229.25,-58"/>
<text xml:space="preserve" text-anchor="middle" x="187.88" y="-44.5" font-family="Helvetica,sans-Serif" font-size="10.00">Matrix::multiply</text>
</a>
</g>
</g>
<!-- Node1&#45;&gt;Node3 -->
<g id="edge2_Node000001_Node000003" class="edge">
<title>Node1&#45;&gt;Node3</title>
<g id="a_edge2_Node000001_Node000003"><a xlink:title=" ">
<path fill="none" stroke="#63b8ff" d="M276.07,-60.23C260.89,-58.1 244.28,-55.77 229.67,-53.72"/>
<polygon fill="#63b8ff" stroke="#63b8ff" points="275.46,-63.68 285.85,-61.6 276.43,-56.74 275.46,-63.68"/>
</a>
</g>
</g>
<!-- Node4 -->
<g id="Node000004" class="node">
<title>Node4</title>
<g id="a_Node000004"><a xlink:href="$class_layer.html#a54679a1ee804225a3d09a0685242070a" xlink:title="Backward propagation.">
<polygon fill="white" stroke="#666666" points="88,-96 0,-96 0,-76 88,-76 88,-96"/>
<text xml:space="preserve" text-anchor="middle" x="44" y="-82.5" font-family="Helvetica,sans-Serif" font-size="10.00">Layer::backward</text>
</a>
</g>
</g>
<!-- Node3&#45;&gt;Node4 -->
<g id="edge3_Node000003_Node000004" class="edge">
<title>Node3&#45;&gt;Node4</title>
<g id="a_edge3_Node000003_Node000004"><a xlink:title=" ">
<path fill="none" stroke="#63b8ff" d="M136.67,-61.45C119.38,-66.08 100.28,-71.19 84.02,-75.55"/>
<polygon fill="#63b8ff" stroke="#63b8ff" points="137.52,-64.84 146.27,-58.88 135.7,-58.08 137.52,-64.84"/>
</a>
</g>
</g>
<!-- Node5 -->
<g id="Node000005" class="node">
<title>Node5</title>
<g id="a_Node000005"><a xlink:href="$class_layer.html#aa1c9e50a099e7fad54c5681f83988d2a" xlink:title="Forward propagation.">
<polygon fill="white" stroke="#666666" points="83.12,-58 4.88,-58 4.88,-38 83.12,-38 83.12,-58"/>
<text xml:space="preserve" text-anchor="middle" x="44" y="-44.5" font-family="Helvetica,sans-Serif" font-size="10.00">Layer::forward</text>
</a>
</g>
</g>
<!-- Node3&#45;&gt;Node5 -->
<g id="edge4_Node000003_Node000005" class="edge">
<title>Node3&#45;&gt;Node5</title>
<g id="a_edge4_Node000003_Node000005"><a xlink:title=" ">
<path fill="none" stroke="#63b8ff" d="M134.72,-48C117.67,-48 99.05,-48 83.23,-48"/>
<polygon fill="#63b8ff" stroke="#63b8ff" points="134.71,-51.5 144.71,-48 134.71,-44.5 134.71,-51.5"/>
</a>
</g>
</g>
<!-- Node6 -->
<g id="Node000006" class="node">
<title>Node6</title>
<g id="a_Node000006"><a xlink:href="$class_matrix.html#a0d724ccde0d084d10f73366896c32c32" xlink:title="Right&#45;hand matrix multiplication: C = A * B.">
<polygon fill="white" stroke="#666666" points="88,-20 0,-20 0,0 88,0 88,-20"/>
<text xml:space="preserve" text-anchor="middle" x="44" y="-6.5" font-family="Helvetica,sans-Serif" font-size="10.00">Matrix::operator*</text>
</a>
</g>
</g>
<!-- Node3&#45;&gt;Node6 -->
<g id="edge5_Node000003_Node000006" class="edge">
<title>Node3&#45;&gt;Node6</title>
<g id="a_edge5_Node000003_Node000006"><a xlink:title=" ">
<path fill="none" stroke="#63b8ff" d="M136.67,-34.55C119.38,-29.92 100.28,-24.81 84.02,-20.45"/>
<polygon fill="#63b8ff" stroke="#63b8ff" points="135.7,-37.92 146.27,-37.12 137.52,-31.16 135.7,-37.92"/>
</a>
</g>
</g>
</g>
</svg>
