<?xml version="1.0" encoding="UTF-8" standalone="no"?>
<!DOCTYPE svg PUBLIC "-//W3C//DTD SVG 1.1//EN"
 "http://www.w3.org/Graphics/SVG/1.1/DTD/svg11.dtd">
<!-- Generated by graphviz version 14.0.2 (20251019.1705)
 -->
<!-- Title: UI::get_player_name Pages: 1 -->
<svg width="357pt" height="66pt"
 viewBox="0.00 0.00 357.00 66.00" xmlns="http://www.w3.org/2000/svg" xmlns:xlink="http://www.w3.org/1999/xlink">
<g id="graph0" class="graph" transform="scale(1 1) rotate(0) translate(4 62)">
<title>UI::get_player_name</title>
<!-- Node1 -->
<g id="Node000001" class="node">
<title>Node1</title>
<g id="a_Node000001"><a xlink:title="Ask the user for the player&#39;s name.">
<polygon fill="#999999" stroke="#666666" points="348.75,-39 242,-39 242,-19 348.75,-19 348.75,-39"/>
<text xml:space="preserve" text-anchor="middle" x="295.38" y="-25.5" font-family="Helvetica,sans-Serif" font-size="10.00">UI::get_player_name</text>
</a>
</g>
</g>
<!-- Node2 -->
<g id="Node000002" class="node">
<title>Node2</title>
<g id="a_Node000002"><a xlink:href="class_custom___u_i.html#ab2ade5587921f466e8839a1d9055bbb6" target="_top" xlink:title="Setup X and O players.">
<polygon fill="white" stroke="#666666" points="206,-58 73,-58 73,-38 206,-38 206,-58"/>
<text xml:space="preserve" text-anchor="middle" x="139.5" y="-44.5" font-family="Helvetica,sans-Serif" font-size="10.00">Custom_UI::setup_players</text>
</a>
</g>
</g>
<!-- Node1&#45;&gt;Node2 -->
<g id="edge1_Node000001_Node000002" class="edge">
<title>Node1&#45;&gt;Node2</title>
<g id="a_edge1_Node000001_Node000002"><a xlink:title=" ">
<path fill="none" stroke="#63b8ff" d="M230.68,-36.86C222.66,-37.85 214.45,-38.87 206.39,-39.86"/>
<polygon fill="#63b8ff" stroke="#63b8ff" points="230.85,-40.37 240.35,-35.67 229.99,-33.42 230.85,-40.37"/>
</a>
</g>
</g>
<!-- Node3 -->
<g id="Node000003" class="node">
<title>Node3</title>
<g id="a_Node000003"><a xlink:href="class_u_i.html#a6966a040c995b2292e5edddaa94f889a" target="_top" xlink:title="Set up players for the game.">
<polygon fill="white" stroke="#666666" points="186.12,-20 92.88,-20 92.88,0 186.12,0 186.12,-20"/>
<text xml:space="preserve" text-anchor="middle" x="139.5" y="-6.5" font-family="Helvetica,sans-Serif" font-size="10.00">UI::setup_players</text>
</a>
</g>
</g>
<!-- Node1&#45;&gt;Node3 -->
<g id="edge2_Node000001_Node000003" class="edge">
<title>Node1&#45;&gt;Node3</title>
<g id="a_edge2_Node000001_Node000003"><a xlink:title=" ">
<path fill="none" stroke="#63b8ff" d="M230.71,-21.14C215.93,-19.31 200.47,-17.41 186.61,-15.69"/>
<polygon fill="#63b8ff" stroke="#63b8ff" points="229.99,-24.58 240.35,-22.33 230.85,-17.63 229.99,-24.58"/>
</a>
</g>
</g>
<!-- Node4 -->
<g id="Node000004" class="node">
<title>Node4</title>
<g id="a_Node000004"><a xlink:href="_the_game_8cpp.html#ae66f6b31b5ad750f1fe042a706a4e3d4" target="_top" xlink:title="Main function to run the X&#45;O game.">
<polygon fill="white" stroke="#666666" points="37,-20 0,-20 0,0 37,0 37,-20"/>
<text xml:space="preserve" text-anchor="middle" x="18.5" y="-6.5" font-family="Helvetica,sans-Serif" font-size="10.00">main</text>
</a>
</g>
</g>
<!-- Node3&#45;&gt;Node4 -->
<g id="edge3_Node000003_Node000004" class="edge">
<title>Node3&#45;&gt;Node4</title>
<g id="a_edge3_Node000003_Node000004"><a xlink:title=" ">
<path fill="none" stroke="#63b8ff" d="M81.06,-10C65.23,-10 49.2,-10 37.47,-10"/>
<polygon fill="#63b8ff" stroke="#63b8ff" points="80.98,-13.5 90.98,-10 80.98,-6.5 80.98,-13.5"/>
</a>
</g>
</g>
</g>
</svg>
