<?xml version="1.0" encoding="UTF-8" standalone="no"?>
<!DOCTYPE svg PUBLIC "-//W3C//DTD SVG 1.1//EN"
 "http://www.w3.org/Graphics/SVG/1.1/DTD/svg11.dtd">
<!-- Generated by graphviz version 14.0.2 (20251019.1705)
 -->
<!-- Title: XO_inf_Board Pages: 1 -->
<svg width="339pt" height="592pt"
 viewBox="0.00 0.00 339.00 592.00" xmlns="http://www.w3.org/2000/svg" xmlns:xlink="http://www.w3.org/1999/xlink">
<g id="graph0" class="graph" transform="scale(1 1) rotate(0) translate(4 588)">
<title>XO_inf_Board</title>
<!-- Node1 -->
<g id="Node000001" class="node">
<title>Node1</title>
<g id="a_Node000001"><a xlink:title="Board class for infinite Tic&#45;Tac&#45;Toe.">
<polygon fill="#999999" stroke="none" points="208.88,-148 124.12,-148 124.12,0 208.88,0 208.88,-148"/>
<text xml:space="preserve" text-anchor="start" x="136.12" y="-134.5" font-family="Helvetica,sans-Serif" font-size="10.00">XO_inf_Board</text>
<text xml:space="preserve" text-anchor="start" x="129.62" y="-118.5" font-family="Helvetica,sans-Serif" font-size="10.00">&#45;</text>
<text xml:space="preserve" text-anchor="start" x="138.12" y="-118.5" font-family="Helvetica,sans-Serif" font-size="10.00">blank_symbol</text>
<text xml:space="preserve" text-anchor="start" x="129.62" y="-102.5" font-family="Helvetica,sans-Serif" font-size="10.00">&#45;</text>
<text xml:space="preserve" text-anchor="start" x="138.12" y="-102.5" font-family="Helvetica,sans-Serif" font-size="10.00">cnt</text>
<text xml:space="preserve" text-anchor="start" x="128.12" y="-86.5" font-family="Helvetica,sans-Serif" font-size="10.00">+</text>
<text xml:space="preserve" text-anchor="start" x="138.12" y="-86.5" font-family="Helvetica,sans-Serif" font-size="10.00">XO_inf_Board()</text>
<text xml:space="preserve" text-anchor="start" x="128.12" y="-70.5" font-family="Helvetica,sans-Serif" font-size="10.00">+</text>
<text xml:space="preserve" text-anchor="start" x="138.12" y="-70.5" font-family="Helvetica,sans-Serif" font-size="10.00">update_board()</text>
<text xml:space="preserve" text-anchor="start" x="128.12" y="-54.5" font-family="Helvetica,sans-Serif" font-size="10.00">+</text>
<text xml:space="preserve" text-anchor="start" x="138.12" y="-54.5" font-family="Helvetica,sans-Serif" font-size="10.00">is_win()</text>
<text xml:space="preserve" text-anchor="start" x="128.12" y="-38.5" font-family="Helvetica,sans-Serif" font-size="10.00">+</text>
<text xml:space="preserve" text-anchor="start" x="138.12" y="-38.5" font-family="Helvetica,sans-Serif" font-size="10.00">is_lose()</text>
<text xml:space="preserve" text-anchor="start" x="128.12" y="-22.5" font-family="Helvetica,sans-Serif" font-size="10.00">+</text>
<text xml:space="preserve" text-anchor="start" x="138.12" y="-22.5" font-family="Helvetica,sans-Serif" font-size="10.00">is_draw()</text>
<text xml:space="preserve" text-anchor="start" x="128.12" y="-6.5" font-family="Helvetica,sans-Serif" font-size="10.00">+</text>
<text xml:space="preserve" text-anchor="start" x="138.12" y="-6.5" font-family="Helvetica,sans-Serif" font-size="10.00">game_is_over()</text>
<polygon fill="#666666" stroke="#666666" points="124.12,-130 124.12,-130 208.88,-130 208.88,-130 124.12,-130"/>
<polygon fill="#666666" stroke="#666666" points="124.12,-98 124.12,-98 136.12,-98 136.12,-98 124.12,-98"/>
<polygon fill="#666666" stroke="#666666" points="136.12,-98 136.12,-98 208.88,-98 208.88,-98 136.12,-98"/>
<polygon fill="none" stroke="#666666" points="124.12,0 124.12,-148 208.88,-148 208.88,0 124.12,0"/>
</a>
</g>
</g>
<!-- Node2 -->
<g id="Node000002" class="node">
<title>Node2</title>
<g id="a_Node000002"><a xlink:href="class_board.html" target="_top" xlink:title=" ">
<polygon fill="white" stroke="none" points="99,-446 0,-446 0,-202 99,-202 99,-446"/>
<text xml:space="preserve" text-anchor="start" x="18.38" y="-432.5" font-family="Helvetica,sans-Serif" font-size="10.00">Board&lt; char &gt;</text>
<text xml:space="preserve" text-anchor="start" x="4.38" y="-416.5" font-family="Helvetica,sans-Serif" font-size="10.00">#</text>
<text xml:space="preserve" text-anchor="start" x="14" y="-416.5" font-family="Helvetica,sans-Serif" font-size="10.00">rows</text>
<text xml:space="preserve" text-anchor="start" x="4.38" y="-400.5" font-family="Helvetica,sans-Serif" font-size="10.00">#</text>
<text xml:space="preserve" text-anchor="start" x="14" y="-400.5" font-family="Helvetica,sans-Serif" font-size="10.00">columns</text>
<text xml:space="preserve" text-anchor="start" x="4.38" y="-384.5" font-family="Helvetica,sans-Serif" font-size="10.00">#</text>
<text xml:space="preserve" text-anchor="start" x="14" y="-384.5" font-family="Helvetica,sans-Serif" font-size="10.00">n_moves</text>
<text xml:space="preserve" text-anchor="start" x="4" y="-368.5" font-family="Helvetica,sans-Serif" font-size="10.00">+</text>
<text xml:space="preserve" text-anchor="start" x="14" y="-368.5" font-family="Helvetica,sans-Serif" font-size="10.00">Board()</text>
<text xml:space="preserve" text-anchor="start" x="4" y="-352.5" font-family="Helvetica,sans-Serif" font-size="10.00">+</text>
<text xml:space="preserve" text-anchor="start" x="14" y="-352.5" font-family="Helvetica,sans-Serif" font-size="10.00">~Board()</text>
<text xml:space="preserve" text-anchor="start" x="4" y="-336.5" font-family="Helvetica,sans-Serif" font-size="10.00">+</text>
<text xml:space="preserve" text-anchor="start" x="14" y="-336.5" font-family="Helvetica,sans-Serif" font-size="10.00">update_board()</text>
<text xml:space="preserve" text-anchor="start" x="4" y="-320.5" font-family="Helvetica,sans-Serif" font-size="10.00">+</text>
<text xml:space="preserve" text-anchor="start" x="14" y="-320.5" font-family="Helvetica,sans-Serif" font-size="10.00">is_win()</text>
<text xml:space="preserve" text-anchor="start" x="4" y="-304.5" font-family="Helvetica,sans-Serif" font-size="10.00">+</text>
<text xml:space="preserve" text-anchor="start" x="14" y="-304.5" font-family="Helvetica,sans-Serif" font-size="10.00">is_lose()</text>
<text xml:space="preserve" text-anchor="start" x="4" y="-288.5" font-family="Helvetica,sans-Serif" font-size="10.00">+</text>
<text xml:space="preserve" text-anchor="start" x="14" y="-288.5" font-family="Helvetica,sans-Serif" font-size="10.00">is_draw()</text>
<text xml:space="preserve" text-anchor="start" x="4" y="-272.5" font-family="Helvetica,sans-Serif" font-size="10.00">+</text>
<text xml:space="preserve" text-anchor="start" x="14" y="-272.5" font-family="Helvetica,sans-Serif" font-size="10.00">game_is_over()</text>
<text xml:space="preserve" text-anchor="start" x="4" y="-256.5" font-family="Helvetica,sans-Serif" font-size="10.00">+</text>
<text xml:space="preserve" text-anchor="start" x="14" y="-256.5" font-family="Helvetica,sans-Serif" font-size="10.00">get_board_matrix()</text>
<text xml:space="preserve" text-anchor="start" x="4" y="-240.5" font-family="Helvetica,sans-Serif" font-size="10.00">+</text>
<text xml:space="preserve" text-anchor="start" x="14" y="-240.5" font-family="Helvetica,sans-Serif" font-size="10.00">get_rows()</text>
<text xml:space="preserve" text-anchor="start" x="4" y="-224.5" font-family="Helvetica,sans-Serif" font-size="10.00">+</text>
<text xml:space="preserve" text-anchor="start" x="14" y="-224.5" font-family="Helvetica,sans-Serif" font-size="10.00">get_columns()</text>
<text xml:space="preserve" text-anchor="start" x="4" y="-208.5" font-family="Helvetica,sans-Serif" font-size="10.00">+</text>
<text xml:space="preserve" text-anchor="start" x="14" y="-208.5" font-family="Helvetica,sans-Serif" font-size="10.00">get_cell()</text>
<polygon fill="#666666" stroke="#666666" points="0,-428 0,-428 99,-428 99,-428 0,-428"/>
<polygon fill="#666666" stroke="#666666" points="0,-380 0,-380 12,-380 12,-380 0,-380"/>
<polygon fill="#666666" stroke="#666666" points="12,-380 12,-380 99,-380 99,-380 12,-380"/>
<polygon fill="none" stroke="#666666" points="0,-202 0,-446 99,-446 99,-202 0,-202"/>
</a>
</g>
</g>
<!-- Node2&#45;&gt;Node1 -->
<g id="edge1_Node000001_Node000002" class="edge">
<title>Node2&#45;&gt;Node1</title>
<g id="a_edge1_Node000001_Node000002"><a xlink:title=" ">
<path fill="none" stroke="#63b8ff" d="M103.81,-207.88C113.44,-187.46 123.23,-166.72 132.11,-147.89"/>
<polygon fill="none" stroke="#63b8ff" points="100.7,-206.28 99.59,-216.82 107.03,-209.27 100.7,-206.28"/>
</a>
</g>
</g>
<!-- Node3 -->
<g id="Node000003" class="node">
<title>Node3</title>
<g id="a_Node000003"><a xlink:title=" ">
<polygon fill="white" stroke="none" points="94.75,-574 4.25,-574 4.25,-510 94.75,-510 94.75,-574"/>
<text xml:space="preserve" text-anchor="start" x="8.25" y="-560.5" font-family="Helvetica,sans-Serif" font-size="10.00">std::vector&lt; vector</text>
<text xml:space="preserve" text-anchor="start" x="26.62" y="-548.5" font-family="Helvetica,sans-Serif" font-size="10.00">&lt; char &gt; &gt;</text>
<text xml:space="preserve" text-anchor="start" x="16.44" y="-532.5" font-family="Helvetica,sans-Serif" font-size="10.00">+</text>
<text xml:space="preserve" text-anchor="start" x="34.62" y="-532.5" font-family="Helvetica,sans-Serif" font-size="10.00">elements</text>
<text xml:space="preserve" text-anchor="start" x="48" y="-516.5" font-family="Helvetica,sans-Serif" font-size="10.00"> </text>
<polygon fill="#666666" stroke="#666666" points="4.25,-544 4.25,-544 94.75,-544 94.75,-544 4.25,-544"/>
<polygon fill="#666666" stroke="#666666" points="4.25,-528 4.25,-528 32.62,-528 32.62,-528 4.25,-528"/>
<polygon fill="#666666" stroke="#666666" points="32.62,-528 32.62,-528 94.75,-528 94.75,-528 32.62,-528"/>
<polygon fill="none" stroke="#666666" points="4.25,-510 4.25,-574 94.75,-574 94.75,-510 4.25,-510"/>
</a>
</g>
</g>
<!-- Node3&#45;&gt;Node2 -->
<g id="edge2_Node000002_Node000003" class="edge">
<title>Node3&#45;&gt;Node2</title>
<g id="a_edge2_Node000002_Node000003"><a xlink:title=" ">
<path fill="none" stroke="#63b8ff" d="M49.5,-510.05C49.5,-495.86 49.5,-477.97 49.5,-458.93"/>
<polygon fill="none" stroke="#63b8ff" points="49.5,-458.85 45.5,-452.85 49.5,-446.85 53.5,-452.85 49.5,-458.85"/>
</a>
</g>
<text xml:space="preserve" text-anchor="start" x="52.5" y="-469.5" font-family="Helvetica,sans-Serif" font-size="10.00" fill="grey">#board</text>
</g>
<!-- Node4 -->
<g id="Node000004" class="node">
<title>Node4</title>
<g id="a_Node000004"><a xlink:title=" ">
<polygon fill="white" stroke="none" points="216.25,-350 116.75,-350 116.75,-298 216.25,-298 216.25,-350"/>
<text xml:space="preserve" text-anchor="start" x="120.75" y="-336.5" font-family="Helvetica,sans-Serif" font-size="10.00">std::deque&lt; Vertex &gt;</text>
<text xml:space="preserve" text-anchor="start" x="165" y="-320.5" font-family="Helvetica,sans-Serif" font-size="10.00"> </text>
<text xml:space="preserve" text-anchor="start" x="165" y="-304.5" font-family="Helvetica,sans-Serif" font-size="10.00"> </text>
<polygon fill="#666666" stroke="#666666" points="116.75,-332 116.75,-332 216.25,-332 216.25,-332 116.75,-332"/>
<polygon fill="#666666" stroke="#666666" points="116.75,-316 116.75,-316 216.25,-316 216.25,-316 116.75,-316"/>
<polygon fill="none" stroke="#666666" points="116.75,-298 116.75,-350 216.25,-350 216.25,-298 116.75,-298"/>
</a>
</g>
</g>
<!-- Node4&#45;&gt;Node1 -->
<g id="edge3_Node000001_Node000004" class="edge">
<title>Node4&#45;&gt;Node1</title>
<g id="a_edge3_Node000001_Node000004"><a xlink:title=" ">
<path fill="none" stroke="#63b8ff" d="M166.5,-298.31C166.5,-266.43 166.5,-209.26 166.5,-160.75"/>
<polygon fill="none" stroke="#63b8ff" points="166.5,-160.88 162.5,-154.88 166.5,-148.88 170.5,-154.88 166.5,-160.88"/>
</a>
</g>
<text xml:space="preserve" text-anchor="start" x="169.5" y="-171.5" font-family="Helvetica,sans-Serif" font-size="10.00" fill="grey">&#45;history</text>
</g>
<!-- Node5 -->
<g id="Node000005" class="node">
<title>Node5</title>
<g id="a_Node000005"><a xlink:href="struct_vertex.html" target="_top" xlink:title="Represents a single move on the board.">
<polygon fill="white" stroke="none" points="238.25,-584 188.75,-584 188.75,-500 238.25,-500 238.25,-584"/>
<text xml:space="preserve" text-anchor="start" x="199.62" y="-570.5" font-family="Helvetica,sans-Serif" font-size="10.00">Vertex</text>
<text xml:space="preserve" text-anchor="start" x="192.75" y="-554.5" font-family="Helvetica,sans-Serif" font-size="10.00">+</text>
<text xml:space="preserve" text-anchor="start" x="202.75" y="-554.5" font-family="Helvetica,sans-Serif" font-size="10.00">x</text>
<text xml:space="preserve" text-anchor="start" x="192.75" y="-538.5" font-family="Helvetica,sans-Serif" font-size="10.00">+</text>
<text xml:space="preserve" text-anchor="start" x="202.75" y="-538.5" font-family="Helvetica,sans-Serif" font-size="10.00">y</text>
<text xml:space="preserve" text-anchor="start" x="192.75" y="-522.5" font-family="Helvetica,sans-Serif" font-size="10.00">+</text>
<text xml:space="preserve" text-anchor="start" x="202.75" y="-522.5" font-family="Helvetica,sans-Serif" font-size="10.00">symbol</text>
<text xml:space="preserve" text-anchor="start" x="212" y="-506.5" font-family="Helvetica,sans-Serif" font-size="10.00"> </text>
<polygon fill="#666666" stroke="#666666" points="188.75,-566 188.75,-566 238.25,-566 238.25,-566 188.75,-566"/>
<polygon fill="#666666" stroke="#666666" points="188.75,-518 188.75,-518 200.75,-518 200.75,-518 188.75,-518"/>
<polygon fill="#666666" stroke="#666666" points="200.75,-518 200.75,-518 238.25,-518 238.25,-518 200.75,-518"/>
<polygon fill="none" stroke="#666666" points="188.75,-500 188.75,-584 238.25,-584 238.25,-500 188.75,-500"/>
</a>
</g>
</g>
<!-- Node5&#45;&gt;Node4 -->
<g id="edge4_Node000004_Node000005" class="edge">
<title>Node5&#45;&gt;Node4</title>
<g id="a_edge4_Node000004_Node000005"><a xlink:title=" ">
<path fill="none" stroke="#63b8ff" d="M202.23,-500.14C200.66,-494.08 199.12,-487.89 197.75,-482 188.3,-441.38 179.19,-394.44 173.27,-362.54"/>
<polygon fill="none" stroke="#63b8ff" points="173.27,-362.54 168.25,-357.36 171.1,-350.74 176.12,-355.91 173.27,-362.54"/>
</a>
</g>
<text xml:space="preserve" text-anchor="start" x="200.75" y="-469.5" font-family="Helvetica,sans-Serif" font-size="10.00" fill="grey">+elements</text>
</g>
<!-- Node6 -->
<g id="Node000006" class="node">
<title>Node6</title>
<g id="a_Node000006"><a xlink:title=" ">
<polygon fill="white" stroke="none" points="331.12,-350 233.88,-350 233.88,-298 331.12,-298 331.12,-350"/>
<text xml:space="preserve" text-anchor="start" x="237.88" y="-336.5" font-family="Helvetica,sans-Serif" font-size="10.00">std::stack&lt; Vertex &gt;</text>
<text xml:space="preserve" text-anchor="start" x="281" y="-320.5" font-family="Helvetica,sans-Serif" font-size="10.00"> </text>
<text xml:space="preserve" text-anchor="start" x="281" y="-304.5" font-family="Helvetica,sans-Serif" font-size="10.00"> </text>
<polygon fill="#666666" stroke="#666666" points="233.88,-332 233.88,-332 331.12,-332 331.12,-332 233.88,-332"/>
<polygon fill="#666666" stroke="#666666" points="233.88,-316 233.88,-316 331.12,-316 331.12,-316 233.88,-316"/>
<polygon fill="none" stroke="#666666" points="233.88,-298 233.88,-350 331.12,-350 331.12,-298 233.88,-298"/>
</a>
</g>
</g>
<!-- Node5&#45;&gt;Node6 -->
<g id="edge6_Node000006_Node000005" class="edge">
<title>Node5&#45;&gt;Node6</title>
<g id="a_edge6_Node000006_Node000005"><a xlink:title=" ">
<path fill="none" stroke="#63b8ff" d="M238.18,-504.87C242.43,-497.53 246.45,-489.7 249.5,-482 265,-442.92 273.69,-395.35 278.22,-362.88"/>
<polygon fill="none" stroke="#63b8ff" points="278.23,-362.75 275.05,-356.28 279.79,-350.85 282.98,-357.32 278.23,-362.75"/>
</a>
</g>
<text xml:space="preserve" text-anchor="start" x="258.44" y="-469.5" font-family="Helvetica,sans-Serif" font-size="10.00" fill="grey">+elements</text>
</g>
<!-- Node6&#45;&gt;Node1 -->
<g id="edge5_Node000001_Node000006" class="edge">
<title>Node6&#45;&gt;Node1</title>
<g id="a_edge5_Node000001_Node000006"><a xlink:title=" ">
<path fill="none" stroke="#63b8ff" d="M270.95,-298.31C255.91,-266.16 228.84,-208.29 206.03,-159.52"/>
<polygon fill="none" stroke="#63b8ff" points="206.1,-159.67 199.94,-155.93 201.02,-148.8 207.18,-152.54 206.1,-159.67"/>
</a>
</g>
<text xml:space="preserve" text-anchor="start" x="217.11" y="-171.5" font-family="Helvetica,sans-Serif" font-size="10.00" fill="grey">&#45;undoHistory</text>
</g>
</g>
</svg>
