<?xml version="1.0" encoding="UTF-8" standalone="no"?>
<!DOCTYPE svg PUBLIC "-//W3C//DTD SVG 1.1//EN"
 "http://www.w3.org/Graphics/SVG/1.1/DTD/svg11.dtd">
<!-- Generated by graphviz version 14.0.2 (20251019.1705)
 -->
<!-- Title: Obstacles_UI Pages: 1 -->
<svg width="254pt" height="853pt"
 viewBox="0.00 0.00 254.00 853.00" xmlns="http://www.w3.org/2000/svg" xmlns:xlink="http://www.w3.org/1999/xlink">
<g id="graph0" class="graph" transform="scale(1 1) rotate(0) translate(4 849)">
<title>Obstacles_UI</title>
<!-- Node1 -->
<g id="Node000001" class="node">
<title>Node1</title>
<g id="a_Node000001"><a xlink:title=" ">
<polygon fill="#999999" stroke="none" points="162.5,-100 46.25,-100 46.25,0 162.5,0 162.5,-100"/>
<text xml:space="preserve" text-anchor="start" x="74.38" y="-86.5" font-family="Helvetica,sans-Serif" font-size="10.00">Obstacles_UI</text>
<text xml:space="preserve" text-anchor="start" x="102.88" y="-70.5" font-family="Helvetica,sans-Serif" font-size="10.00"> </text>
<text xml:space="preserve" text-anchor="start" x="50.25" y="-54.5" font-family="Helvetica,sans-Serif" font-size="10.00">+</text>
<text xml:space="preserve" text-anchor="start" x="60.25" y="-54.5" font-family="Helvetica,sans-Serif" font-size="10.00">Obstacles_UI()</text>
<text xml:space="preserve" text-anchor="start" x="50.25" y="-38.5" font-family="Helvetica,sans-Serif" font-size="10.00">+</text>
<text xml:space="preserve" text-anchor="start" x="60.25" y="-38.5" font-family="Helvetica,sans-Serif" font-size="10.00">~Obstacles_UI()</text>
<text xml:space="preserve" text-anchor="start" x="50.25" y="-22.5" font-family="Helvetica,sans-Serif" font-size="10.00">+</text>
<text xml:space="preserve" text-anchor="start" x="60.25" y="-22.5" font-family="Helvetica,sans-Serif" font-size="10.00">get_move()</text>
<text xml:space="preserve" text-anchor="start" x="50.25" y="-6.5" font-family="Helvetica,sans-Serif" font-size="10.00">+</text>
<text xml:space="preserve" text-anchor="start" x="60.25" y="-6.5" font-family="Helvetica,sans-Serif" font-size="10.00">display_board_matrix()</text>
<polygon fill="#666666" stroke="#666666" points="46.25,-82 46.25,-82 162.5,-82 162.5,-82 46.25,-82"/>
<polygon fill="#666666" stroke="#666666" points="46.25,-66 46.25,-66 162.5,-66 162.5,-66 46.25,-66"/>
<polygon fill="none" stroke="#666666" points="46.25,0 46.25,-100 162.5,-100 162.5,0 46.25,0"/>
</a>
</g>
</g>
<!-- Node2 -->
<g id="Node000002" class="node">
<title>Node2</title>
<g id="a_Node000002"><a xlink:href="$class_u_i.html" xlink:title=" ">
<polygon fill="white" stroke="none" points="126.75,-390 0,-390 0,-210 126.75,-210 126.75,-390"/>
<text xml:space="preserve" text-anchor="start" x="39.75" y="-376.5" font-family="Helvetica,sans-Serif" font-size="10.00">UI&lt; char &gt;</text>
<text xml:space="preserve" text-anchor="start" x="4.38" y="-360.5" font-family="Helvetica,sans-Serif" font-size="10.00">#</text>
<text xml:space="preserve" text-anchor="start" x="14" y="-360.5" font-family="Helvetica,sans-Serif" font-size="10.00">cell_width</text>
<text xml:space="preserve" text-anchor="start" x="4" y="-344.5" font-family="Helvetica,sans-Serif" font-size="10.00">+</text>
<text xml:space="preserve" text-anchor="start" x="14" y="-344.5" font-family="Helvetica,sans-Serif" font-size="10.00">UI()</text>
<text xml:space="preserve" text-anchor="start" x="4" y="-328.5" font-family="Helvetica,sans-Serif" font-size="10.00">+</text>
<text xml:space="preserve" text-anchor="start" x="14" y="-328.5" font-family="Helvetica,sans-Serif" font-size="10.00">~UI()</text>
<text xml:space="preserve" text-anchor="start" x="4" y="-312.5" font-family="Helvetica,sans-Serif" font-size="10.00">+</text>
<text xml:space="preserve" text-anchor="start" x="14" y="-312.5" font-family="Helvetica,sans-Serif" font-size="10.00">display_message()</text>
<text xml:space="preserve" text-anchor="start" x="4" y="-296.5" font-family="Helvetica,sans-Serif" font-size="10.00">+</text>
<text xml:space="preserve" text-anchor="start" x="14" y="-296.5" font-family="Helvetica,sans-Serif" font-size="10.00">get_move()</text>
<text xml:space="preserve" text-anchor="start" x="4" y="-280.5" font-family="Helvetica,sans-Serif" font-size="10.00">+</text>
<text xml:space="preserve" text-anchor="start" x="14" y="-280.5" font-family="Helvetica,sans-Serif" font-size="10.00">setup_players()</text>
<text xml:space="preserve" text-anchor="start" x="4" y="-264.5" font-family="Helvetica,sans-Serif" font-size="10.00">+</text>
<text xml:space="preserve" text-anchor="start" x="14" y="-264.5" font-family="Helvetica,sans-Serif" font-size="10.00">create_player()</text>
<text xml:space="preserve" text-anchor="start" x="4" y="-248.5" font-family="Helvetica,sans-Serif" font-size="10.00">+</text>
<text xml:space="preserve" text-anchor="start" x="14" y="-248.5" font-family="Helvetica,sans-Serif" font-size="10.00">display_board_matrix()</text>
<text xml:space="preserve" text-anchor="start" x="4.38" y="-232.5" font-family="Helvetica,sans-Serif" font-size="10.00">#</text>
<text xml:space="preserve" text-anchor="start" x="14" y="-232.5" font-family="Helvetica,sans-Serif" font-size="10.00">get_player_name()</text>
<text xml:space="preserve" text-anchor="start" x="4.38" y="-216.5" font-family="Helvetica,sans-Serif" font-size="10.00">#</text>
<text xml:space="preserve" text-anchor="start" x="14" y="-216.5" font-family="Helvetica,sans-Serif" font-size="10.00">get_player_type_choice()</text>
<polygon fill="#666666" stroke="#666666" points="0,-372 0,-372 126.75,-372 126.75,-372 0,-372"/>
<polygon fill="#666666" stroke="#666666" points="0,-356 0,-356 12,-356 12,-356 0,-356"/>
<polygon fill="#666666" stroke="#666666" points="12,-356 12,-356 126.75,-356 126.75,-356 12,-356"/>
<polygon fill="none" stroke="#666666" points="0,-210 0,-390 126.75,-390 126.75,-210 0,-210"/>
</a>
</g>
</g>
<!-- Node2&#45;&gt;Node1 -->
<g id="edge1_Node000001_Node000002" class="edge">
<title>Node2&#45;&gt;Node1</title>
<g id="a_edge1_Node000001_Node000002"><a xlink:title=" ">
<path fill="none" stroke="#63b8ff" d="M79.88,-199.18C85.53,-165.01 91.6,-128.3 96.28,-99.97"/>
<polygon fill="none" stroke="#63b8ff" points="76.49,-198.24 78.31,-208.67 83.39,-199.38 76.49,-198.24"/>
</a>
</g>
</g>
<!-- Node3 -->
<g id="Node000003" class="node">
<title>Node3</title>
<g id="a_Node000003"><a xlink:href="$class_obstacles___board.html" xlink:title=" ">
<polygon fill="white" stroke="none" points="246,-446 144.75,-446 144.75,-154 246,-154 246,-446"/>
<text xml:space="preserve" text-anchor="start" x="157.88" y="-432.5" font-family="Helvetica,sans-Serif" font-size="10.00">Obstacles_Board</text>
<text xml:space="preserve" text-anchor="start" x="150.25" y="-416.5" font-family="Helvetica,sans-Serif" font-size="10.00">&#45;</text>
<text xml:space="preserve" text-anchor="start" x="158.75" y="-416.5" font-family="Helvetica,sans-Serif" font-size="10.00">boardX</text>
<text xml:space="preserve" text-anchor="start" x="150.25" y="-400.5" font-family="Helvetica,sans-Serif" font-size="10.00">&#45;</text>
<text xml:space="preserve" text-anchor="start" x="158.75" y="-400.5" font-family="Helvetica,sans-Serif" font-size="10.00">boardO</text>
<text xml:space="preserve" text-anchor="start" x="150.25" y="-384.5" font-family="Helvetica,sans-Serif" font-size="10.00">&#45;</text>
<text xml:space="preserve" text-anchor="start" x="158.75" y="-384.5" font-family="Helvetica,sans-Serif" font-size="10.00">boardTraps</text>
<text xml:space="preserve" text-anchor="start" x="150.25" y="-368.5" font-family="Helvetica,sans-Serif" font-size="10.00">&#45;</text>
<text xml:space="preserve" text-anchor="start" x="158.75" y="-368.5" font-family="Helvetica,sans-Serif" font-size="10.00">emptyCell</text>
<text xml:space="preserve" text-anchor="start" x="150.25" y="-352.5" font-family="Helvetica,sans-Serif" font-size="10.00">&#45;</text>
<text xml:space="preserve" text-anchor="start" x="158.75" y="-352.5" font-family="Helvetica,sans-Serif" font-size="10.00">nMoves</text>
<text xml:space="preserve" text-anchor="start" x="150.25" y="-336.5" font-family="Helvetica,sans-Serif" font-size="10.00">&#45;</text>
<text xml:space="preserve" text-anchor="start" x="158.75" y="-336.5" font-family="Helvetica,sans-Serif" font-size="10.00">win4Masks</text>
<text xml:space="preserve" text-anchor="start" x="148.75" y="-320.5" font-family="Helvetica,sans-Serif" font-size="10.00">+</text>
<text xml:space="preserve" text-anchor="start" x="158.75" y="-320.5" font-family="Helvetica,sans-Serif" font-size="10.00">Obstacles_Board()</text>
<text xml:space="preserve" text-anchor="start" x="148.75" y="-304.5" font-family="Helvetica,sans-Serif" font-size="10.00">+</text>
<text xml:space="preserve" text-anchor="start" x="158.75" y="-304.5" font-family="Helvetica,sans-Serif" font-size="10.00">getCell()</text>
<text xml:space="preserve" text-anchor="start" x="148.75" y="-288.5" font-family="Helvetica,sans-Serif" font-size="10.00">+</text>
<text xml:space="preserve" text-anchor="start" x="158.75" y="-288.5" font-family="Helvetica,sans-Serif" font-size="10.00">getEmptyCell()</text>
<text xml:space="preserve" text-anchor="start" x="148.75" y="-272.5" font-family="Helvetica,sans-Serif" font-size="10.00">+</text>
<text xml:space="preserve" text-anchor="start" x="158.75" y="-272.5" font-family="Helvetica,sans-Serif" font-size="10.00">getAvailableMove()</text>
<text xml:space="preserve" text-anchor="start" x="148.75" y="-256.5" font-family="Helvetica,sans-Serif" font-size="10.00">+</text>
<text xml:space="preserve" text-anchor="start" x="158.75" y="-256.5" font-family="Helvetica,sans-Serif" font-size="10.00">getMoveCount()</text>
<text xml:space="preserve" text-anchor="start" x="148.75" y="-240.5" font-family="Helvetica,sans-Serif" font-size="10.00">+</text>
<text xml:space="preserve" text-anchor="start" x="158.75" y="-240.5" font-family="Helvetica,sans-Serif" font-size="10.00">updateCell()</text>
<text xml:space="preserve" text-anchor="start" x="148.75" y="-224.5" font-family="Helvetica,sans-Serif" font-size="10.00">+</text>
<text xml:space="preserve" text-anchor="start" x="158.75" y="-224.5" font-family="Helvetica,sans-Serif" font-size="10.00">update_board()</text>
<text xml:space="preserve" text-anchor="start" x="148.75" y="-208.5" font-family="Helvetica,sans-Serif" font-size="10.00">+</text>
<text xml:space="preserve" text-anchor="start" x="158.75" y="-208.5" font-family="Helvetica,sans-Serif" font-size="10.00">game_is_over()</text>
<text xml:space="preserve" text-anchor="start" x="148.75" y="-192.5" font-family="Helvetica,sans-Serif" font-size="10.00">+</text>
<text xml:space="preserve" text-anchor="start" x="158.75" y="-192.5" font-family="Helvetica,sans-Serif" font-size="10.00">is_win()</text>
<text xml:space="preserve" text-anchor="start" x="148.75" y="-176.5" font-family="Helvetica,sans-Serif" font-size="10.00">+</text>
<text xml:space="preserve" text-anchor="start" x="158.75" y="-176.5" font-family="Helvetica,sans-Serif" font-size="10.00">is_lose()</text>
<text xml:space="preserve" text-anchor="start" x="148.75" y="-160.5" font-family="Helvetica,sans-Serif" font-size="10.00">+</text>
<text xml:space="preserve" text-anchor="start" x="158.75" y="-160.5" font-family="Helvetica,sans-Serif" font-size="10.00">is_draw()</text>
<polygon fill="#666666" stroke="#666666" points="144.75,-428 144.75,-428 246,-428 246,-428 144.75,-428"/>
<polygon fill="#666666" stroke="#666666" points="144.75,-332 144.75,-332 156.75,-332 156.75,-332 144.75,-332"/>
<polygon fill="#666666" stroke="#666666" points="156.75,-332 156.75,-332 246,-332 246,-332 156.75,-332"/>
<polygon fill="none" stroke="#666666" points="144.75,-154 144.75,-446 246,-446 246,-154 144.75,-154"/>
</a>
</g>
</g>
<!-- Node3&#45;&gt;Node1 -->
<g id="edge2_Node000001_Node000003" class="edge">
<title>Node3&#45;&gt;Node1</title>
<g id="a_edge2_Node000001_Node000003"><a xlink:title=" ">
<path fill="none" stroke="#63b8ff" d="M144.82,-161.22C138.46,-143.89 132.23,-126.92 126.65,-111.7"/>
<polygon fill="none" stroke="#63b8ff" points="126.76,-112 120.93,-107.74 122.62,-100.73 128.45,-104.99 126.76,-112"/>
</a>
</g>
<text xml:space="preserve" text-anchor="start" x="136.81" y="-123.5" font-family="Helvetica,sans-Serif" font-size="10.00" fill="grey">&#45;board</text>
</g>
<!-- Node4 -->
<g id="Node000004" class="node">
<title>Node4</title>
<g id="a_Node000004"><a xlink:href="$class_board.html" xlink:title=" ">
<polygon fill="white" stroke="none" points="244.88,-727 145.88,-727 145.88,-483 244.88,-483 244.88,-727"/>
<text xml:space="preserve" text-anchor="start" x="164.25" y="-713.5" font-family="Helvetica,sans-Serif" font-size="10.00">Board&lt; char &gt;</text>
<text xml:space="preserve" text-anchor="start" x="150.25" y="-697.5" font-family="Helvetica,sans-Serif" font-size="10.00">#</text>
<text xml:space="preserve" text-anchor="start" x="159.88" y="-697.5" font-family="Helvetica,sans-Serif" font-size="10.00">rows</text>
<text xml:space="preserve" text-anchor="start" x="150.25" y="-681.5" font-family="Helvetica,sans-Serif" font-size="10.00">#</text>
<text xml:space="preserve" text-anchor="start" x="159.88" y="-681.5" font-family="Helvetica,sans-Serif" font-size="10.00">columns</text>
<text xml:space="preserve" text-anchor="start" x="150.25" y="-665.5" font-family="Helvetica,sans-Serif" font-size="10.00">#</text>
<text xml:space="preserve" text-anchor="start" x="159.88" y="-665.5" font-family="Helvetica,sans-Serif" font-size="10.00">n_moves</text>
<text xml:space="preserve" text-anchor="start" x="149.88" y="-649.5" font-family="Helvetica,sans-Serif" font-size="10.00">+</text>
<text xml:space="preserve" text-anchor="start" x="159.88" y="-649.5" font-family="Helvetica,sans-Serif" font-size="10.00">Board()</text>
<text xml:space="preserve" text-anchor="start" x="149.88" y="-633.5" font-family="Helvetica,sans-Serif" font-size="10.00">+</text>
<text xml:space="preserve" text-anchor="start" x="159.88" y="-633.5" font-family="Helvetica,sans-Serif" font-size="10.00">~Board()</text>
<text xml:space="preserve" text-anchor="start" x="149.88" y="-617.5" font-family="Helvetica,sans-Serif" font-size="10.00">+</text>
<text xml:space="preserve" text-anchor="start" x="159.88" y="-617.5" font-family="Helvetica,sans-Serif" font-size="10.00">update_board()</text>
<text xml:space="preserve" text-anchor="start" x="149.88" y="-601.5" font-family="Helvetica,sans-Serif" font-size="10.00">+</text>
<text xml:space="preserve" text-anchor="start" x="159.88" y="-601.5" font-family="Helvetica,sans-Serif" font-size="10.00">is_win()</text>
<text xml:space="preserve" text-anchor="start" x="149.88" y="-585.5" font-family="Helvetica,sans-Serif" font-size="10.00">+</text>
<text xml:space="preserve" text-anchor="start" x="159.88" y="-585.5" font-family="Helvetica,sans-Serif" font-size="10.00">is_lose()</text>
<text xml:space="preserve" text-anchor="start" x="149.88" y="-569.5" font-family="Helvetica,sans-Serif" font-size="10.00">+</text>
<text xml:space="preserve" text-anchor="start" x="159.88" y="-569.5" font-family="Helvetica,sans-Serif" font-size="10.00">is_draw()</text>
<text xml:space="preserve" text-anchor="start" x="149.88" y="-553.5" font-family="Helvetica,sans-Serif" font-size="10.00">+</text>
<text xml:space="preserve" text-anchor="start" x="159.88" y="-553.5" font-family="Helvetica,sans-Serif" font-size="10.00">game_is_over()</text>
<text xml:space="preserve" text-anchor="start" x="149.88" y="-537.5" font-family="Helvetica,sans-Serif" font-size="10.00">+</text>
<text xml:space="preserve" text-anchor="start" x="159.88" y="-537.5" font-family="Helvetica,sans-Serif" font-size="10.00">get_board_matrix()</text>
<text xml:space="preserve" text-anchor="start" x="149.88" y="-521.5" font-family="Helvetica,sans-Serif" font-size="10.00">+</text>
<text xml:space="preserve" text-anchor="start" x="159.88" y="-521.5" font-family="Helvetica,sans-Serif" font-size="10.00">get_rows()</text>
<text xml:space="preserve" text-anchor="start" x="149.88" y="-505.5" font-family="Helvetica,sans-Serif" font-size="10.00">+</text>
<text xml:space="preserve" text-anchor="start" x="159.88" y="-505.5" font-family="Helvetica,sans-Serif" font-size="10.00">get_columns()</text>
<text xml:space="preserve" text-anchor="start" x="149.88" y="-489.5" font-family="Helvetica,sans-Serif" font-size="10.00">+</text>
<text xml:space="preserve" text-anchor="start" x="159.88" y="-489.5" font-family="Helvetica,sans-Serif" font-size="10.00">get_cell()</text>
<polygon fill="#666666" stroke="#666666" points="145.88,-709 145.88,-709 244.88,-709 244.88,-709 145.88,-709"/>
<polygon fill="#666666" stroke="#666666" points="145.88,-661 145.88,-661 157.88,-661 157.88,-661 145.88,-661"/>
<polygon fill="#666666" stroke="#666666" points="157.88,-661 157.88,-661 244.88,-661 244.88,-661 157.88,-661"/>
<polygon fill="none" stroke="#666666" points="145.88,-483 145.88,-727 244.88,-727 244.88,-483 145.88,-483"/>
</a>
</g>
</g>
<!-- Node4&#45;&gt;Node3 -->
<g id="edge3_Node000003_Node000004" class="edge">
<title>Node4&#45;&gt;Node3</title>
<g id="a_edge3_Node000003_Node000004"><a xlink:title=" ">
<path fill="none" stroke="#63b8ff" d="M195.38,-472.07C195.38,-463.42 195.38,-454.69 195.38,-445.98"/>
<polygon fill="none" stroke="#63b8ff" points="191.88,-471.86 195.38,-481.86 198.88,-471.86 191.88,-471.86"/>
</a>
</g>
</g>
<!-- Node5 -->
<g id="Node000005" class="node">
<title>Node5</title>
<g id="a_Node000005"><a xlink:title=" ">
<polygon fill="white" stroke="none" points="240.62,-845 150.12,-845 150.12,-781 240.62,-781 240.62,-845"/>
<text xml:space="preserve" text-anchor="start" x="154.12" y="-831.5" font-family="Helvetica,sans-Serif" font-size="10.00">std::vector&lt; vector</text>
<text xml:space="preserve" text-anchor="start" x="172.5" y="-819.5" font-family="Helvetica,sans-Serif" font-size="10.00">&lt; char &gt; &gt;</text>
<text xml:space="preserve" text-anchor="start" x="162.31" y="-803.5" font-family="Helvetica,sans-Serif" font-size="10.00">+</text>
<text xml:space="preserve" text-anchor="start" x="180.5" y="-803.5" font-family="Helvetica,sans-Serif" font-size="10.00">elements</text>
<text xml:space="preserve" text-anchor="start" x="193.88" y="-787.5" font-family="Helvetica,sans-Serif" font-size="10.00"> </text>
<polygon fill="#666666" stroke="#666666" points="150.12,-815 150.12,-815 240.62,-815 240.62,-815 150.12,-815"/>
<polygon fill="#666666" stroke="#666666" points="150.12,-799 150.12,-799 178.5,-799 178.5,-799 150.12,-799"/>
<polygon fill="#666666" stroke="#666666" points="178.5,-799 178.5,-799 240.62,-799 240.62,-799 178.5,-799"/>
<polygon fill="none" stroke="#666666" points="150.12,-781 150.12,-845 240.62,-845 240.62,-781 150.12,-781"/>
</a>
</g>
</g>
<!-- Node5&#45;&gt;Node4 -->
<g id="edge4_Node000004_Node000005" class="edge">
<title>Node5&#45;&gt;Node4</title>
<g id="a_edge4_Node000004_Node000005"><a xlink:title=" ">
<path fill="none" stroke="#63b8ff" d="M195.38,-781.16C195.38,-769.41 195.38,-755.14 195.38,-739.88"/>
<polygon fill="none" stroke="#63b8ff" points="195.38,-739.75 191.38,-733.75 195.38,-727.75 199.38,-733.75 195.38,-739.75"/>
</a>
</g>
<text xml:space="preserve" text-anchor="start" x="198.38" y="-750.5" font-family="Helvetica,sans-Serif" font-size="10.00" fill="grey">#board</text>
</g>
</g>
</svg>
