<?xml version="1.0" encoding="UTF-8" standalone="no"?>
<!DOCTYPE svg PUBLIC "-//W3C//DTD SVG 1.1//EN"
 "http://www.w3.org/Graphics/SVG/1.1/DTD/svg11.dtd">
<!-- Generated by graphviz version 14.0.2 (20251019.1705)
 -->
<!-- Title: Player::get_type Pages: 1 -->
<svg width="262pt" height="484pt"
 viewBox="0.00 0.00 262.00 484.00" xmlns="http://www.w3.org/2000/svg" xmlns:xlink="http://www.w3.org/1999/xlink">
<g id="graph0" class="graph" transform="scale(1 1) rotate(0) translate(4 480)">
<title>Player::get_type</title>
<!-- Node1 -->
<g id="Node000001" class="node">
<title>Node1</title>
<g id="a_Node000001"><a xlink:title="Get player type (e.g., &#39;H&#39; or &#39;C&#39;).">
<polygon fill="#999999" stroke="#666666" points="254,-248 166.75,-248 166.75,-228 254,-228 254,-248"/>
<text xml:space="preserve" text-anchor="middle" x="210.38" y="-234.5" font-family="Helvetica,sans-Serif" font-size="10.00">Player::get_type</text>
</a>
</g>
</g>
<!-- Node2 -->
<g id="Node000002" class="node">
<title>Node2</title>
<g id="a_Node000002"><a xlink:href="class__4by4_x_o___u_i.html#adac352a59d82ec4c84219a2ee25bda3a" target="_top" xlink:title="Gets a move from human or AI.">
<polygon fill="white" stroke="#666666" points="125.88,-476 4.88,-476 4.88,-456 125.88,-456 125.88,-476"/>
<text xml:space="preserve" text-anchor="middle" x="65.38" y="-462.5" font-family="Helvetica,sans-Serif" font-size="10.00">_4by4XO_UI::get_move</text>
</a>
</g>
</g>
<!-- Node1&#45;&gt;Node2 -->
<g id="edge1_Node000001_Node000002" class="edge">
<title>Node1&#45;&gt;Node2</title>
<g id="a_edge1_Node000001_Node000002"><a xlink:title=" ">
<path fill="none" stroke="#63b8ff" d="M207.46,-259.87C202.57,-302.23 185.81,-395.81 130.75,-447 127.08,-450.41 122.83,-453.21 118.29,-455.51"/>
<polygon fill="#63b8ff" stroke="#63b8ff" points="210.94,-260.28 208.47,-249.98 203.97,-259.57 210.94,-260.28"/>
</a>
</g>
</g>
<!-- Node3 -->
<g id="Node000003" class="node">
<title>Node3</title>
<g id="a_Node000003"><a xlink:href="class_anti___x_o___u_i.html#a33e3fac8bd7d6e9e26eaa1a5df1ddd6f" target="_top" xlink:title="Retrieves the next move from human or AI.">
<polygon fill="white" stroke="#666666" points="124,-438 6.75,-438 6.75,-418 124,-418 124,-438"/>
<text xml:space="preserve" text-anchor="middle" x="65.38" y="-424.5" font-family="Helvetica,sans-Serif" font-size="10.00">Anti_XO_UI::get_move</text>
</a>
</g>
</g>
<!-- Node1&#45;&gt;Node3 -->
<g id="edge2_Node000001_Node000003" class="edge">
<title>Node1&#45;&gt;Node3</title>
<g id="a_edge2_Node000001_Node000003"><a xlink:title=" ">
<path fill="none" stroke="#63b8ff" d="M205.49,-259.36C197.8,-295.54 177.16,-368.83 130.75,-409 126.79,-412.43 122.22,-415.24 117.4,-417.55"/>
<polygon fill="#63b8ff" stroke="#63b8ff" points="208.89,-260.2 207.4,-249.71 202.03,-258.84 208.89,-260.2"/>
</a>
</g>
</g>
<!-- Node4 -->
<g id="Node000004" class="node">
<title>Node4</title>
<g id="a_Node000004"><a xlink:href="classdia___x_o___u_i.html#ac93aba1a10bbb189d2bc2597ccb9d7b4" target="_top" xlink:title="Obtains the next move from human or AI.">
<polygon fill="white" stroke="#666666" points="121.75,-400 9,-400 9,-380 121.75,-380 121.75,-400"/>
<text xml:space="preserve" text-anchor="middle" x="65.38" y="-386.5" font-family="Helvetica,sans-Serif" font-size="10.00">dia_XO_UI::get_move</text>
</a>
</g>
</g>
<!-- Node1&#45;&gt;Node4 -->
<g id="edge3_Node000001_Node000004" class="edge">
<title>Node1&#45;&gt;Node4</title>
<g id="a_edge3_Node000001_Node000004"><a xlink:title=" ">
<path fill="none" stroke="#63b8ff" d="M202.49,-259.14C191.82,-288.57 168.5,-341.58 130.75,-371 126.34,-374.44 121.32,-377.25 116.07,-379.56"/>
<polygon fill="#63b8ff" stroke="#63b8ff" points="205.73,-260.46 205.69,-249.87 199.12,-258.18 205.73,-260.46"/>
</a>
</g>
</g>
<!-- Node5 -->
<g id="Node000005" class="node">
<title>Node5</title>
<g id="a_Node000005"><a xlink:href="class_f_o_u_r___u_i.html#a5b8d7e6afd5b983620fd00bf954564d7" target="_top" xlink:title="Obtains the next move from a human, computer, or AI player.">
<polygon fill="white" stroke="#666666" points="119.88,-362 10.88,-362 10.88,-342 119.88,-342 119.88,-362"/>
<text xml:space="preserve" text-anchor="middle" x="65.38" y="-348.5" font-family="Helvetica,sans-Serif" font-size="10.00">FOUR_UI::get_move</text>
</a>
</g>
</g>
<!-- Node1&#45;&gt;Node5 -->
<g id="edge4_Node000001_Node000005" class="edge">
<title>Node1&#45;&gt;Node5</title>
<g id="a_edge4_Node000001_Node000005"><a xlink:title=" ">
<path fill="none" stroke="#63b8ff" d="M197.84,-258.06C184.41,-279.66 160.25,-313.53 130.75,-333 125.59,-336.4 119.82,-339.21 113.89,-341.52"/>
<polygon fill="#63b8ff" stroke="#63b8ff" points="200.77,-259.97 202.92,-249.59 194.77,-256.36 200.77,-259.97"/>
</a>
</g>
</g>
<!-- Node6 -->
<g id="Node000006" class="node">
<title>Node6</title>
<g id="a_Node000006"><a xlink:href="class_large___x_o___u_i.html#ad2c0d9d3cec8c1e35d42b2342a08bc7f" target="_top" xlink:title="Request a move from human or AI player.">
<polygon fill="white" stroke="#666666" points="127.38,-324 3.38,-324 3.38,-304 127.38,-304 127.38,-324"/>
<text xml:space="preserve" text-anchor="middle" x="65.38" y="-310.5" font-family="Helvetica,sans-Serif" font-size="10.00">Large_XO_UI::get_move</text>
</a>
</g>
</g>
<!-- Node1&#45;&gt;Node6 -->
<g id="edge5_Node000001_Node000006" class="edge">
<title>Node1&#45;&gt;Node6</title>
<g id="a_edge5_Node000001_Node000006"><a xlink:title=" ">
<path fill="none" stroke="#63b8ff" d="M189.14,-255.66C173.95,-268.14 152.17,-284.46 130.75,-295 124.06,-298.29 116.69,-301.13 109.4,-303.52"/>
<polygon fill="#63b8ff" stroke="#63b8ff" points="191.13,-258.56 196.53,-249.44 186.62,-253.21 191.13,-258.56"/>
</a>
</g>
</g>
<!-- Node7 -->
<g id="Node000007" class="node">
<title>Node7</title>
<g id="a_Node000007"><a xlink:href="class_memory___u_i.html#ac381faa654aeb92bdba8c7356289dea2" target="_top" xlink:title="Obtains the next move from a player.">
<polygon fill="white" stroke="#666666" points="123.25,-286 7.5,-286 7.5,-266 123.25,-266 123.25,-286"/>
<text xml:space="preserve" text-anchor="middle" x="65.38" y="-272.5" font-family="Helvetica,sans-Serif" font-size="10.00">Memory_UI::get_move</text>
</a>
</g>
</g>
<!-- Node1&#45;&gt;Node7 -->
<g id="edge6_Node000001_Node000007" class="edge">
<title>Node1&#45;&gt;Node7</title>
<g id="a_edge6_Node000001_Node000007"><a xlink:title=" ">
<path fill="none" stroke="#63b8ff" d="M159.27,-251.31C141.71,-255.98 122.25,-261.15 105.7,-265.55"/>
<polygon fill="#63b8ff" stroke="#63b8ff" points="159.69,-254.82 168.46,-248.87 157.89,-248.06 159.69,-254.82"/>
</a>
</g>
</g>
<!-- Node8 -->
<g id="Node000008" class="node">
<title>Node8</title>
<g id="a_Node000008"><a xlink:href="class_obstacles___u_i.html#aaf8a700063b544107b0ec92929b7242d" target="_top" xlink:title="Obtains a move from a human or AI player.">
<polygon fill="white" stroke="#666666" points="127.75,-248 3,-248 3,-228 127.75,-228 127.75,-248"/>
<text xml:space="preserve" text-anchor="middle" x="65.38" y="-234.5" font-family="Helvetica,sans-Serif" font-size="10.00">Obstacles_UI::get_move</text>
</a>
</g>
</g>
<!-- Node1&#45;&gt;Node8 -->
<g id="edge7_Node000001_Node000008" class="edge">
<title>Node1&#45;&gt;Node8</title>
<g id="a_edge7_Node000001_Node000008"><a xlink:title=" ">
<path fill="none" stroke="#63b8ff" d="M155.1,-238C146.25,-238 137.03,-238 128.02,-238"/>
<polygon fill="#63b8ff" stroke="#63b8ff" points="154.96,-241.5 164.96,-238 154.96,-234.5 154.96,-241.5"/>
</a>
</g>
</g>
<!-- Node9 -->
<g id="Node000009" class="node">
<title>Node9</title>
<g id="a_Node000009"><a xlink:href="class_pyramid_x_o___u_i.html#a936b1fdabe80776e212110be108f811f" target="_top" xlink:title="Reads human move or requests AI move.">
<polygon fill="white" stroke="#666666" points="130.75,-210 0,-210 0,-190 130.75,-190 130.75,-210"/>
<text xml:space="preserve" text-anchor="middle" x="65.38" y="-196.5" font-family="Helvetica,sans-Serif" font-size="10.00">PyramidXO_UI::get_move</text>
</a>
</g>
</g>
<!-- Node1&#45;&gt;Node9 -->
<g id="edge8_Node000001_Node000009" class="edge">
<title>Node1&#45;&gt;Node9</title>
<g id="a_edge8_Node000001_Node000009"><a xlink:title=" ">
<path fill="none" stroke="#63b8ff" d="M159.27,-224.69C141.71,-220.02 122.25,-214.85 105.7,-210.45"/>
<polygon fill="#63b8ff" stroke="#63b8ff" points="157.89,-227.94 168.46,-227.13 159.69,-221.18 157.89,-227.94"/>
</a>
</g>
</g>
<!-- Node10 -->
<g id="Node000010" class="node">
<title>Node10</title>
<g id="a_Node000010"><a xlink:href="class_s_u_s___u_i.html#a9c7a3c09a5e18a3d89f448ea93b6dea6" target="_top" xlink:title="Retrieves the next move.">
<polygon fill="white" stroke="#666666" points="116.12,-172 14.62,-172 14.62,-152 116.12,-152 116.12,-172"/>
<text xml:space="preserve" text-anchor="middle" x="65.38" y="-158.5" font-family="Helvetica,sans-Serif" font-size="10.00">SUS_UI::get_move</text>
</a>
</g>
</g>
<!-- Node1&#45;&gt;Node10 -->
<g id="edge9_Node000001_Node000010" class="edge">
<title>Node1&#45;&gt;Node10</title>
<g id="a_edge9_Node000001_Node000010"><a xlink:title=" ">
<path fill="none" stroke="#63b8ff" d="M189.14,-220.34C173.95,-207.86 152.17,-191.54 130.75,-181 124.06,-177.71 116.69,-174.87 109.4,-172.48"/>
<polygon fill="#63b8ff" stroke="#63b8ff" points="186.62,-222.79 196.53,-226.56 191.13,-217.44 186.62,-222.79"/>
</a>
</g>
</g>
<!-- Node11 -->
<g id="Node000011" class="node">
<title>Node11</title>
<g id="a_Node000011"><a xlink:href="class_ultimate___u_i.html#a4c3e6b4f77e281d67a946df1620ef822" target="_top" xlink:title="Retrieve the next move from a player.">
<polygon fill="white" stroke="#666666" points="124,-134 6.75,-134 6.75,-114 124,-114 124,-134"/>
<text xml:space="preserve" text-anchor="middle" x="65.38" y="-120.5" font-family="Helvetica,sans-Serif" font-size="10.00">Ultimate_UI::get_move</text>
</a>
</g>
</g>
<!-- Node1&#45;&gt;Node11 -->
<g id="edge10_Node000001_Node000011" class="edge">
<title>Node1&#45;&gt;Node11</title>
<g id="a_edge10_Node000001_Node000011"><a xlink:title=" ">
<path fill="none" stroke="#63b8ff" d="M197.84,-217.94C184.41,-196.34 160.25,-162.47 130.75,-143 125.59,-139.6 119.82,-136.79 113.89,-134.48"/>
<polygon fill="#63b8ff" stroke="#63b8ff" points="194.77,-219.64 202.92,-226.41 200.77,-216.03 194.77,-219.64"/>
</a>
</g>
</g>
<!-- Node12 -->
<g id="Node000012" class="node">
<title>Node12</title>
<g id="a_Node000012"><a xlink:href="class_word___x_o___u_i.html#aea1d068753433755a0c7eb45b06add23" target="_top" xlink:title="Get the next move from a player.">
<polygon fill="white" stroke="#666666" points="126.62,-96 4.12,-96 4.12,-76 126.62,-76 126.62,-96"/>
<text xml:space="preserve" text-anchor="middle" x="65.38" y="-82.5" font-family="Helvetica,sans-Serif" font-size="10.00">Word_XO_UI::get_move</text>
</a>
</g>
</g>
<!-- Node1&#45;&gt;Node12 -->
<g id="edge11_Node000001_Node000012" class="edge">
<title>Node1&#45;&gt;Node12</title>
<g id="a_edge11_Node000001_Node000012"><a xlink:title=" ">
<path fill="none" stroke="#63b8ff" d="M202.49,-216.86C191.82,-187.43 168.5,-134.42 130.75,-105 126.34,-101.56 121.32,-98.75 116.07,-96.44"/>
<polygon fill="#63b8ff" stroke="#63b8ff" points="199.12,-217.82 205.69,-226.13 205.73,-215.54 199.12,-217.82"/>
</a>
</g>
</g>
<!-- Node13 -->
<g id="Node000013" class="node">
<title>Node13</title>
<g id="a_Node000013"><a xlink:href="class_x_o__inf___u_i.html#a58e2808d59a15ba3c05a07f3b3f25486" target="_top" xlink:title="Retrieve a player&#39;s move input.">
<polygon fill="white" stroke="#666666" points="120.62,-58 10.12,-58 10.12,-38 120.62,-38 120.62,-58"/>
<text xml:space="preserve" text-anchor="middle" x="65.38" y="-44.5" font-family="Helvetica,sans-Serif" font-size="10.00">XO_inf_UI::get_move</text>
</a>
</g>
</g>
<!-- Node1&#45;&gt;Node13 -->
<g id="edge12_Node000001_Node000013" class="edge">
<title>Node1&#45;&gt;Node13</title>
<g id="a_edge12_Node000001_Node000013"><a xlink:title=" ">
<path fill="none" stroke="#63b8ff" d="M205.49,-216.64C197.8,-180.46 177.16,-107.17 130.75,-67 126.79,-63.57 122.22,-60.76 117.4,-58.45"/>
<polygon fill="#63b8ff" stroke="#63b8ff" points="202.03,-217.16 207.4,-226.29 208.89,-215.8 202.03,-217.16"/>
</a>
</g>
</g>
<!-- Node14 -->
<g id="Node000014" class="node">
<title>Node14</title>
<g id="a_Node000014"><a xlink:href="class_x_o___n_u_m___u_i.html#a6937463483d95c20fce215d4b9c6afa4" target="_top" xlink:title="Get the next move.">
<polygon fill="white" stroke="#666666" points="127,-20 3.75,-20 3.75,0 127,0 127,-20"/>
<text xml:space="preserve" text-anchor="middle" x="65.38" y="-6.5" font-family="Helvetica,sans-Serif" font-size="10.00">XO_NUM_UI::get_move</text>
</a>
</g>
</g>
<!-- Node1&#45;&gt;Node14 -->
<g id="edge13_Node000001_Node000014" class="edge">
<title>Node1&#45;&gt;Node14</title>
<g id="a_edge13_Node000001_Node000014"><a xlink:title=" ">
<path fill="none" stroke="#63b8ff" d="M207.46,-216.13C202.57,-173.77 185.81,-80.19 130.75,-29 127.08,-25.59 122.83,-22.79 118.29,-20.49"/>
<polygon fill="#63b8ff" stroke="#63b8ff" points="203.97,-216.43 208.47,-226.02 210.94,-215.72 203.97,-216.43"/>
</a>
</g>
</g>
</g>
</svg>
