<?xml version="1.0" encoding="UTF-8" standalone="no"?>
<!DOCTYPE svg PUBLIC "-//W3C//DTD SVG 1.1//EN"
 "http://www.w3.org/Graphics/SVG/1.1/DTD/svg11.dtd">
<!-- Generated by graphviz version 14.0.2 (20251019.1705)
 -->
<!-- Title: SUS_AI::bestMove Pages: 1 -->
<svg width="523pt" height="166pt"
 viewBox="0.00 0.00 523.00 166.00" xmlns="http://www.w3.org/2000/svg" xmlns:xlink="http://www.w3.org/1999/xlink">
<g id="graph0" class="graph" transform="scale(1 1) rotate(0) translate(4 162.06)">
<title>SUS_AI::bestMove</title>
<!-- Node1 -->
<g id="Node000001" class="node">
<title>Node1</title>
<g id="a_Node000001"><a xlink:title="Computes the best move for the player.">
<polygon fill="#999999" stroke="#666666" points="100.75,-134 0,-134 0,-114 100.75,-114 100.75,-134"/>
<text xml:space="preserve" text-anchor="middle" x="50.38" y="-120.5" font-family="Helvetica,sans-Serif" font-size="10.00">SUS_AI::bestMove</text>
</a>
</g>
</g>
<!-- Node2 -->
<g id="Node000002" class="node">
<title>Node2</title>
<g id="a_Node000002"><a xlink:href="class_player.html#a508617eddfae8915d098102d480fc888" target="_top" xlink:title="Get a pointer to the game board.">
<polygon fill="white" stroke="#666666" points="377.62,-134 268.62,-134 268.62,-114 377.62,-114 377.62,-134"/>
<text xml:space="preserve" text-anchor="middle" x="323.12" y="-120.5" font-family="Helvetica,sans-Serif" font-size="10.00">Player::get_board_ptr</text>
</a>
</g>
</g>
<!-- Node1&#45;&gt;Node2 -->
<g id="edge1_Node000001_Node000002" class="edge">
<title>Node1&#45;&gt;Node2</title>
<g id="a_edge1_Node000001_Node000002"><a xlink:title=" ">
<path fill="none" stroke="#63b8ff" d="M101.03,-124C144.76,-124 208.74,-124 256.64,-124"/>
<polygon fill="#63b8ff" stroke="#63b8ff" points="256.62,-127.5 266.62,-124 256.62,-120.5 256.62,-127.5"/>
</a>
</g>
</g>
<!-- Node3 -->
<g id="Node000003" class="node">
<title>Node3</title>
<g id="a_Node000003"><a xlink:href="class_player.html#af56f0bf98c0423a3a75b0848607d03a4" target="_top" xlink:title="Get the player&#39;s symbol.">
<polygon fill="white" stroke="#666666" points="514.75,-96 414.75,-96 414.75,-76 514.75,-76 514.75,-96"/>
<text xml:space="preserve" text-anchor="middle" x="464.75" y="-82.5" font-family="Helvetica,sans-Serif" font-size="10.00">Player::get_symbol</text>
</a>
</g>
</g>
<!-- Node1&#45;&gt;Node3 -->
<g id="edge2_Node000001_Node000003" class="edge">
<title>Node1&#45;&gt;Node3</title>
<g id="a_edge2_Node000001_Node000003"><a xlink:title=" ">
<path fill="none" stroke="#63b8ff" d="M88.95,-134.46C150.87,-149.89 277.58,-173.78 378.75,-143 403.9,-135.35 428.37,-117.5 444.55,-103.8"/>
<polygon fill="#63b8ff" stroke="#63b8ff" points="446.72,-106.55 451.92,-97.32 442.1,-101.29 446.72,-106.55"/>
</a>
</g>
</g>
<!-- Node4 -->
<g id="Node000004" class="node">
<title>Node4</title>
<g id="a_Node000004"><a xlink:href="class_s_u_s___a_i.html#a9cd1ee590918406034aae1d0ebc43b46" target="_top" xlink:title="Minimax with alpha&#45;beta pruning.">
<polygon fill="white" stroke="#666666" points="231.5,-78 136.75,-78 136.75,-58 231.5,-58 231.5,-78"/>
<text xml:space="preserve" text-anchor="middle" x="184.12" y="-64.5" font-family="Helvetica,sans-Serif" font-size="10.00">SUS_AI::minimax</text>
</a>
</g>
</g>
<!-- Node1&#45;&gt;Node4 -->
<g id="edge3_Node000001_Node000004" class="edge">
<title>Node1&#45;&gt;Node4</title>
<g id="a_edge3_Node000001_Node000004"><a xlink:title=" ">
<path fill="none" stroke="#63b8ff" d="M75.85,-113.6C96.28,-104.91 125.64,-92.43 148.48,-82.72"/>
<polygon fill="#63b8ff" stroke="#63b8ff" points="149.56,-86.07 157.39,-78.94 146.82,-79.63 149.56,-86.07"/>
</a>
</g>
</g>
<!-- Node4&#45;&gt;Node2 -->
<g id="edge7_Node000004_Node000002" class="edge">
<title>Node4&#45;&gt;Node2</title>
<g id="a_edge7_Node000004_Node000002"><a xlink:title=" ">
<path fill="none" stroke="#63b8ff" d="M210.57,-78.4C231.91,-87.12 262.62,-99.68 286.42,-109.41"/>
<polygon fill="#63b8ff" stroke="#63b8ff" points="284.83,-112.54 295.41,-113.08 287.48,-106.06 284.83,-112.54"/>
</a>
</g>
</g>
<!-- Node4&#45;&gt;Node3 -->
<g id="edge8_Node000004_Node000003" class="edge">
<title>Node4&#45;&gt;Node3</title>
<g id="a_edge8_Node000004_Node000003"><a xlink:title=" ">
<path fill="none" stroke="#63b8ff" d="M231.76,-71.01C278.86,-74.06 351.81,-78.77 403.32,-82.1"/>
<polygon fill="#63b8ff" stroke="#63b8ff" points="402.9,-85.58 413.1,-82.73 403.35,-78.59 402.9,-85.58"/>
</a>
</g>
</g>
<!-- Node4&#45;&gt;Node4 -->
<g id="edge11_Node000004_Node000004" class="edge">
<title>Node4&#45;&gt;Node4</title>
<g id="a_edge11_Node000004_Node000004"><a xlink:title=" ">
<path fill="none" stroke="#63b8ff" d="M162.87,-78.34C153.79,-86.98 160.88,-96 184.12,-96 196.84,-96 204.72,-93.3 207.76,-89.44"/>
<polygon fill="#63b8ff" stroke="#63b8ff" points="211.22,-88.86 205.69,-79.82 204.38,-90.33 211.22,-88.86"/>
</a>
</g>
</g>
<!-- Node5 -->
<g id="Node000005" class="node">
<title>Node5</title>
<g id="a_Node000005"><a xlink:href="class_s_u_s___a_i.html#a917f6a59b1707de463bfcaad41f0d560" target="_top" xlink:title="Evaluates the board state for the given player.">
<polygon fill="white" stroke="#666666" points="370.5,-58 275.75,-58 275.75,-38 370.5,-38 370.5,-58"/>
<text xml:space="preserve" text-anchor="middle" x="323.12" y="-44.5" font-family="Helvetica,sans-Serif" font-size="10.00">SUS_AI::evaluate</text>
</a>
</g>
</g>
<!-- Node4&#45;&gt;Node5 -->
<g id="edge4_Node000004_Node000005" class="edge">
<title>Node4&#45;&gt;Node5</title>
<g id="a_edge4_Node000004_Node000005"><a xlink:title=" ">
<path fill="none" stroke="#63b8ff" d="M231.89,-61.17C242.36,-59.64 253.59,-58.01 264.44,-56.42"/>
<polygon fill="#63b8ff" stroke="#63b8ff" points="264.68,-59.92 274.07,-55.01 263.67,-53 264.68,-59.92"/>
</a>
</g>
</g>
<!-- Node7 -->
<g id="Node000007" class="node">
<title>Node7</title>
<g id="a_Node000007"><a xlink:href="class_s_u_s___a_i.html#a223660856952277e2a8323ffb790bc53" target="_top" xlink:title="Checks if any empty cells remain.">
<polygon fill="white" stroke="#666666" points="378.75,-20 267.5,-20 267.5,0 378.75,0 378.75,-20"/>
<text xml:space="preserve" text-anchor="middle" x="323.12" y="-6.5" font-family="Helvetica,sans-Serif" font-size="10.00">SUS_AI::isMovesLeft</text>
</a>
</g>
</g>
<!-- Node4&#45;&gt;Node7 -->
<g id="edge9_Node000004_Node000007" class="edge">
<title>Node4&#45;&gt;Node7</title>
<g id="a_edge9_Node000004_Node000007"><a xlink:title=" ">
<path fill="none" stroke="#63b8ff" d="M205.5,-57.6C222.01,-49.36 245.97,-37.81 267.5,-29 271.35,-27.42 275.39,-25.86 279.45,-24.35"/>
<polygon fill="#63b8ff" stroke="#63b8ff" points="280.5,-27.69 288.71,-21 278.12,-21.1 280.5,-27.69"/>
</a>
</g>
</g>
<!-- Node5&#45;&gt;Node3 -->
<g id="edge6_Node000005_Node000003" class="edge">
<title>Node5&#45;&gt;Node3</title>
<g id="a_edge6_Node000005_Node000003"><a xlink:title=" ">
<path fill="none" stroke="#63b8ff" d="M362.65,-58.48C378.67,-62.85 397.47,-67.96 414.48,-72.59"/>
<polygon fill="#63b8ff" stroke="#63b8ff" points="413.32,-75.9 423.89,-75.15 415.16,-69.15 413.32,-75.9"/>
</a>
</g>
</g>
<!-- Node6 -->
<g id="Node000006" class="node">
<title>Node6</title>
<g id="a_Node000006"><a xlink:href="class_board.html#a93558c58e60ca4291c6044828afd260b" target="_top" xlink:title="Return content of cell x, y in current board.">
<polygon fill="white" stroke="#666666" points="505.38,-39 424.12,-39 424.12,-19 505.38,-19 505.38,-39"/>
<text xml:space="preserve" text-anchor="middle" x="464.75" y="-25.5" font-family="Helvetica,sans-Serif" font-size="10.00">Board::get_cell</text>
</a>
</g>
</g>
<!-- Node5&#45;&gt;Node6 -->
<g id="edge5_Node000005_Node000006" class="edge">
<title>Node5&#45;&gt;Node6</title>
<g id="a_edge5_Node000005_Node000006"><a xlink:title=" ">
<path fill="none" stroke="#63b8ff" d="M370.62,-41.67C384.13,-39.83 398.96,-37.82 412.73,-35.94"/>
<polygon fill="#63b8ff" stroke="#63b8ff" points="413.06,-39.43 422.5,-34.61 412.12,-32.49 413.06,-39.43"/>
</a>
</g>
</g>
<!-- Node7&#45;&gt;Node6 -->
<g id="edge10_Node000007_Node000006" class="edge">
<title>Node7&#45;&gt;Node6</title>
<g id="a_edge10_Node000007_Node000006"><a xlink:title=" ">
<path fill="none" stroke="#63b8ff" d="M378.91,-17.45C390.02,-18.97 401.67,-20.55 412.65,-22.05"/>
<polygon fill="#63b8ff" stroke="#63b8ff" points="411.92,-25.48 422.3,-23.36 412.86,-18.54 411.92,-25.48"/>
</a>
</g>
</g>
</g>
</svg>
