<?xml version="1.0" encoding="UTF-8" standalone="no"?>
<!DOCTYPE svg PUBLIC "-//W3C//DTD SVG 1.1//EN"
 "http://www.w3.org/Graphics/SVG/1.1/DTD/svg11.dtd">
<!-- Generated by graphviz version 14.0.2 (20251019.1705)
 -->
<!-- Title: NeuralNetwork::train Pages: 1 -->
<svg width="279pt" height="66pt"
 viewBox="0.00 0.00 279.00 66.00" xmlns="http://www.w3.org/2000/svg" xmlns:xlink="http://www.w3.org/1999/xlink">
<g id="graph0" class="graph" transform="scale(1 1) rotate(0) translate(4 62)">
<title>NeuralNetwork::train</title>
<!-- Node1 -->
<g id="Node000001" class="node">
<title>Node1</title>
<g id="a_Node000001"><a xlink:title="Train the network on a single input&#45;output pair.">
<polygon fill="#999999" stroke="#666666" points="106,-39 0,-39 0,-19 106,-19 106,-39"/>
<text xml:space="preserve" text-anchor="middle" x="53" y="-25.5" font-family="Helvetica,sans-Serif" font-size="10.00">NeuralNetwork::train</text>
</a>
</g>
</g>
<!-- Node2 -->
<g id="Node000002" class="node">
<title>Node2</title>
<g id="a_Node000002"><a xlink:href="class_neural_network.html#a0bed8373877d2f1711e75560a353507c" target="_top" xlink:title="Perform backward propagation through all layers and update weights.">
<polygon fill="white" stroke="#666666" points="271.25,-58 142,-58 142,-38 271.25,-38 271.25,-58"/>
<text xml:space="preserve" text-anchor="middle" x="206.62" y="-44.5" font-family="Helvetica,sans-Serif" font-size="10.00">NeuralNetwork::backward</text>
</a>
</g>
</g>
<!-- Node1&#45;&gt;Node2 -->
<g id="edge1_Node000001_Node000002" class="edge">
<title>Node1&#45;&gt;Node2</title>
<g id="a_edge1_Node000001_Node000002"><a xlink:title=" ">
<path fill="none" stroke="#63b8ff" d="M106.18,-35.54C113.92,-36.51 122.03,-37.53 130.14,-38.54"/>
<polygon fill="#63b8ff" stroke="#63b8ff" points="129.69,-42.01 140.05,-39.78 130.57,-35.07 129.69,-42.01"/>
</a>
</g>
</g>
<!-- Node3 -->
<g id="Node000003" class="node">
<title>Node3</title>
<g id="a_Node000003"><a xlink:href="class_neural_network.html#a00324c4e6ef12c3ca7904b38bd85330f" target="_top" xlink:title="Perform a forward pass through all layers.">
<polygon fill="white" stroke="#666666" points="266.38,-20 146.88,-20 146.88,0 266.38,0 266.38,-20"/>
<text xml:space="preserve" text-anchor="middle" x="206.62" y="-6.5" font-family="Helvetica,sans-Serif" font-size="10.00">NeuralNetwork::forward</text>
</a>
</g>
</g>
<!-- Node1&#45;&gt;Node3 -->
<g id="edge2_Node000001_Node000003" class="edge">
<title>Node1&#45;&gt;Node3</title>
<g id="a_edge2_Node000001_Node000003"><a xlink:title=" ">
<path fill="none" stroke="#63b8ff" d="M106.18,-22.46C115.54,-21.29 125.43,-20.05 135.2,-18.82"/>
<polygon fill="#63b8ff" stroke="#63b8ff" points="135.59,-22.3 145.08,-17.59 134.72,-15.36 135.59,-22.3"/>
</a>
</g>
</g>
</g>
</svg>
