<?xml version="1.0" encoding="UTF-8" standalone="no"?>
<!DOCTYPE svg PUBLIC "-//W3C//DTD SVG 1.1//EN"
 "http://www.w3.org/Graphics/SVG/1.1/DTD/svg11.dtd">
<!-- Generated by graphviz version 14.0.2 (20251019.1705)
 -->
<!-- Title: Four_AI::bestMove Pages: 1 -->
<svg width="567pt" height="181pt"
 viewBox="0.00 0.00 567.00 181.00" xmlns="http://www.w3.org/2000/svg" xmlns:xlink="http://www.w3.org/1999/xlink">
<g id="graph0" class="graph" transform="scale(1 1) rotate(0) translate(4 176.85)">
<title>Four_AI::bestMove</title>
<!-- Node1 -->
<g id="Node000001" class="node">
<title>Node1</title>
<g id="a_Node000001"><a xlink:title="Computes the best possible move for the AI.">
<polygon fill="#999999" stroke="#666666" points="99.25,-106.85 0,-106.85 0,-86.85 99.25,-86.85 99.25,-106.85"/>
<text xml:space="preserve" text-anchor="middle" x="49.62" y="-93.35" font-family="Helvetica,sans-Serif" font-size="10.00">Four_AI::bestMove</text>
</a>
</g>
</g>
<!-- Node2 -->
<g id="Node000002" class="node">
<title>Node2</title>
<g id="a_Node000002"><a xlink:href="class_player.html#a508617eddfae8915d098102d480fc888" target="_top" xlink:title="Get a pointer to the game board.">
<polygon fill="white" stroke="#666666" points="398.25,-172.85 289.25,-172.85 289.25,-152.85 398.25,-152.85 398.25,-172.85"/>
<text xml:space="preserve" text-anchor="middle" x="343.75" y="-159.35" font-family="Helvetica,sans-Serif" font-size="10.00">Player::get_board_ptr</text>
</a>
</g>
</g>
<!-- Node1&#45;&gt;Node2 -->
<g id="edge1_Node000001_Node000002" class="edge">
<title>Node1&#45;&gt;Node2</title>
<g id="a_edge1_Node000001_Node000002"><a xlink:title=" ">
<path fill="none" stroke="#63b8ff" d="M80.13,-107.24C96.28,-112.68 116.71,-119.16 135.25,-123.85 182.52,-135.78 236.68,-145.84 277.81,-152.75"/>
<polygon fill="#63b8ff" stroke="#63b8ff" points="277.12,-156.19 287.55,-154.37 278.26,-149.28 277.12,-156.19"/>
</a>
</g>
</g>
<!-- Node3 -->
<g id="Node000003" class="node">
<title>Node3</title>
<g id="a_Node000003"><a xlink:href="class_four___a_i.html#a196ae82b79d74cd5e58654a16e11bf8a" target="_top" xlink:title="Finds the next open row in a given column.">
<polygon fill="white" stroke="#666666" points="423,-134.85 264.5,-134.85 264.5,-114.85 423,-114.85 423,-134.85"/>
<text xml:space="preserve" text-anchor="middle" x="343.75" y="-121.35" font-family="Helvetica,sans-Serif" font-size="10.00">Four_AI::get_next_available_row</text>
</a>
</g>
</g>
<!-- Node1&#45;&gt;Node3 -->
<g id="edge2_Node000001_Node000003" class="edge">
<title>Node1&#45;&gt;Node3</title>
<g id="a_edge2_Node000001_Node000003"><a xlink:title=" ">
<path fill="none" stroke="#63b8ff" d="M99.39,-102.16C111.13,-103.4 123.63,-104.7 135.25,-105.85 173.91,-109.67 216.65,-113.63 253.24,-116.94"/>
<polygon fill="#63b8ff" stroke="#63b8ff" points="252.61,-120.4 262.88,-117.81 253.24,-113.42 252.61,-120.4"/>
</a>
</g>
</g>
<!-- Node5 -->
<g id="Node000005" class="node">
<title>Node5</title>
<g id="a_Node000005"><a xlink:href="class_player.html#af56f0bf98c0423a3a75b0848607d03a4" target="_top" xlink:title="Get the player&#39;s symbol.">
<polygon fill="white" stroke="#666666" points="559,-20.85 459,-20.85 459,-0.85 559,-0.85 559,-20.85"/>
<text xml:space="preserve" text-anchor="middle" x="509" y="-7.35" font-family="Helvetica,sans-Serif" font-size="10.00">Player::get_symbol</text>
</a>
</g>
</g>
<!-- Node1&#45;&gt;Node5 -->
<g id="edge4_Node000001_Node000005" class="edge">
<title>Node1&#45;&gt;Node5</title>
<g id="a_edge4_Node000001_Node000005"><a xlink:title=" ">
<path fill="none" stroke="#63b8ff" d="M67.35,-86.38C84.1,-76.19 110.82,-60.68 135.25,-49.85 190.72,-25.24 204.63,-15.76 264.5,-5.85 334,5.66 352.59,-3.78 423,-5.85 430.83,-6.08 439.07,-6.43 447.2,-6.83"/>
<polygon fill="#63b8ff" stroke="#63b8ff" points="446.9,-10.32 457.07,-7.37 447.27,-3.33 446.9,-10.32"/>
</a>
</g>
</g>
<!-- Node6 -->
<g id="Node000006" class="node">
<title>Node6</title>
<g id="a_Node000006"><a xlink:href="class_four___a_i.html#a2be9e32c580e8aa22c530ab4c9920317" target="_top" xlink:title="Minimax algorithm with alpha&#45;beta pruning.">
<polygon fill="white" stroke="#666666" points="228.5,-78.85 135.25,-78.85 135.25,-58.85 228.5,-58.85 228.5,-78.85"/>
<text xml:space="preserve" text-anchor="middle" x="181.88" y="-65.35" font-family="Helvetica,sans-Serif" font-size="10.00">Four_AI::minimax</text>
</a>
</g>
</g>
<!-- Node1&#45;&gt;Node6 -->
<g id="edge5_Node000001_Node000006" class="edge">
<title>Node1&#45;&gt;Node6</title>
<g id="a_edge5_Node000001_Node000006"><a xlink:title=" ">
<path fill="none" stroke="#63b8ff" d="M99.13,-86.42C107.18,-84.69 115.6,-82.88 123.84,-81.11"/>
<polygon fill="#63b8ff" stroke="#63b8ff" points="124.4,-84.57 133.45,-79.04 122.93,-77.72 124.4,-84.57"/>
</a>
</g>
</g>
<!-- Node4 -->
<g id="Node000004" class="node">
<title>Node4</title>
<g id="a_Node000004"><a xlink:href="class_board.html#a93558c58e60ca4291c6044828afd260b" target="_top" xlink:title="Return content of cell x, y in current board.">
<polygon fill="white" stroke="#666666" points="549.62,-96.85 468.38,-96.85 468.38,-76.85 549.62,-76.85 549.62,-96.85"/>
<text xml:space="preserve" text-anchor="middle" x="509" y="-83.35" font-family="Helvetica,sans-Serif" font-size="10.00">Board::get_cell</text>
</a>
</g>
</g>
<!-- Node3&#45;&gt;Node4 -->
<g id="edge3_Node000003_Node000004" class="edge">
<title>Node3&#45;&gt;Node4</title>
<g id="a_edge3_Node000003_Node000004"><a xlink:title=" ">
<path fill="none" stroke="#63b8ff" d="M389.79,-114.36C410.69,-109.5 435.62,-103.69 457.18,-98.67"/>
<polygon fill="#63b8ff" stroke="#63b8ff" points="457.69,-102.15 466.64,-96.47 456.11,-95.33 457.69,-102.15"/>
</a>
</g>
</g>
<!-- Node6&#45;&gt;Node2 -->
<g id="edge9_Node000006_Node000002" class="edge">
<title>Node6&#45;&gt;Node2</title>
<g id="a_edge9_Node000006_Node000002"><a xlink:title=" ">
<path fill="none" stroke="#63b8ff" d="M190.98,-79.08C204.45,-95.37 233.1,-127.07 264.5,-143.85 268.85,-146.17 273.48,-148.21 278.24,-150.01"/>
<polygon fill="#63b8ff" stroke="#63b8ff" points="276.78,-153.21 287.37,-153.08 279.01,-146.57 276.78,-153.21"/>
</a>
</g>
</g>
<!-- Node6&#45;&gt;Node3 -->
<g id="edge10_Node000006_Node000003" class="edge">
<title>Node6&#45;&gt;Node3</title>
<g id="a_edge10_Node000006_Node000003"><a xlink:title=" ">
<path fill="none" stroke="#63b8ff" d="M202.91,-79.2C219.17,-87.3 242.88,-98.39 264.5,-105.85 270.28,-107.84 276.37,-109.71 282.5,-111.43"/>
<polygon fill="#63b8ff" stroke="#63b8ff" points="281.48,-114.78 292.04,-113.99 283.29,-108.02 281.48,-114.78"/>
</a>
</g>
</g>
<!-- Node6&#45;&gt;Node5 -->
<g id="edge11_Node000006_Node000005" class="edge">
<title>Node6&#45;&gt;Node5</title>
<g id="a_edge11_Node000006_Node000005"><a xlink:title=" ">
<path fill="none" stroke="#63b8ff" d="M199.99,-58.37C216.02,-49.11 240.99,-36.15 264.5,-29.85 325.3,-13.56 397.46,-9.77 447.36,-9.46"/>
<polygon fill="#63b8ff" stroke="#63b8ff" points="447.09,-12.96 457.09,-9.45 447.08,-5.96 447.09,-12.96"/>
</a>
</g>
</g>
<!-- Node6&#45;&gt;Node6 -->
<g id="edge14_Node000006_Node000006" class="edge">
<title>Node6&#45;&gt;Node6</title>
<g id="a_edge14_Node000006_Node000006"><a xlink:title=" ">
<path fill="none" stroke="#63b8ff" d="M160.86,-79.18C151.88,-87.82 158.89,-96.85 181.88,-96.85 194.45,-96.85 202.24,-94.15 205.25,-90.29"/>
<polygon fill="#63b8ff" stroke="#63b8ff" points="208.71,-89.72 203.2,-80.66 201.86,-91.17 208.71,-89.72"/>
</a>
</g>
</g>
<!-- Node7 -->
<g id="Node000007" class="node">
<title>Node7</title>
<g id="a_Node000007"><a xlink:href="class_four___a_i.html#a5ebc2172189dad66489d15371d6f9c2f" target="_top" xlink:title="Evaluates the current board state from AI perspective.">
<polygon fill="white" stroke="#666666" points="390.38,-58.85 297.12,-58.85 297.12,-38.85 390.38,-38.85 390.38,-58.85"/>
<text xml:space="preserve" text-anchor="middle" x="343.75" y="-45.35" font-family="Helvetica,sans-Serif" font-size="10.00">Four_AI::evaluate</text>
</a>
</g>
</g>
<!-- Node6&#45;&gt;Node7 -->
<g id="edge6_Node000006_Node000007" class="edge">
<title>Node6&#45;&gt;Node7</title>
<g id="a_edge6_Node000006_Node000007"><a xlink:title=" ">
<path fill="none" stroke="#63b8ff" d="M228.69,-63.11C246.34,-60.91 266.72,-58.36 285.33,-56.03"/>
<polygon fill="#63b8ff" stroke="#63b8ff" points="285.66,-59.51 295.15,-54.8 284.79,-52.57 285.66,-59.51"/>
</a>
</g>
</g>
<!-- Node8 -->
<g id="Node000008" class="node">
<title>Node8</title>
<g id="a_Node000008"><a xlink:href="class_four___a_i.html#ae3dab4e81e6b102a9445d05b0c4d2aee" target="_top" xlink:title="Checks if any moves are still available.">
<polygon fill="white" stroke="#666666" points="398.62,-96.85 288.88,-96.85 288.88,-76.85 398.62,-76.85 398.62,-96.85"/>
<text xml:space="preserve" text-anchor="middle" x="343.75" y="-83.35" font-family="Helvetica,sans-Serif" font-size="10.00">Four_AI::isMovesLeft</text>
</a>
</g>
</g>
<!-- Node6&#45;&gt;Node8 -->
<g id="edge12_Node000006_Node000008" class="edge">
<title>Node6&#45;&gt;Node8</title>
<g id="a_edge12_Node000006_Node000008"><a xlink:title=" ">
<path fill="none" stroke="#63b8ff" d="M228.69,-74C243.83,-75.71 260.99,-77.64 277.31,-79.48"/>
<polygon fill="#63b8ff" stroke="#63b8ff" points="276.61,-82.92 286.94,-80.56 277.39,-75.96 276.61,-82.92"/>
</a>
</g>
</g>
<!-- Node7&#45;&gt;Node4 -->
<g id="edge7_Node000007_Node000004" class="edge">
<title>Node7&#45;&gt;Node4</title>
<g id="a_edge7_Node000007_Node000004"><a xlink:title=" ">
<path fill="none" stroke="#63b8ff" d="M389.79,-59.33C410.69,-64.19 435.62,-70 457.18,-75.02"/>
<polygon fill="#63b8ff" stroke="#63b8ff" points="456.11,-78.36 466.64,-77.22 457.69,-71.54 456.11,-78.36"/>
</a>
</g>
</g>
<!-- Node7&#45;&gt;Node5 -->
<g id="edge8_Node000007_Node000005" class="edge">
<title>Node7&#45;&gt;Node5</title>
<g id="a_edge8_Node000007_Node000005"><a xlink:title=" ">
<path fill="none" stroke="#63b8ff" d="M389.79,-38.36C409.06,-33.88 431.76,-28.59 452.09,-23.86"/>
<polygon fill="#63b8ff" stroke="#63b8ff" points="452.69,-27.32 461.63,-21.64 451.1,-20.5 452.69,-27.32"/>
</a>
</g>
</g>
<!-- Node8&#45;&gt;Node4 -->
<g id="edge13_Node000008_Node000004" class="edge">
<title>Node8&#45;&gt;Node4</title>
<g id="a_edge13_Node000008_Node000004"><a xlink:title=" ">
<path fill="none" stroke="#63b8ff" d="M399.11,-86.85C417.69,-86.85 438.39,-86.85 456.72,-86.85"/>
<polygon fill="#63b8ff" stroke="#63b8ff" points="456.56,-90.35 466.56,-86.85 456.56,-83.35 456.56,-90.35"/>
</a>
</g>
</g>
</g>
</svg>
