<?xml version="1.0" encoding="UTF-8" standalone="no"?>
<!DOCTYPE svg PUBLIC "-//W3C//DTD SVG 1.1//EN"
 "http://www.w3.org/Graphics/SVG/1.1/DTD/svg11.dtd">
<!-- Generated by graphviz version 14.0.2 (20251019.1705)
 -->
<!-- Title: Large_XO_AI::evaluate Pages: 1 -->
<svg width="438pt" height="46pt"
 viewBox="0.00 0.00 438.00 46.00" xmlns="http://www.w3.org/2000/svg" xmlns:xlink="http://www.w3.org/1999/xlink">
<g id="graph0" class="graph" transform="scale(1 1) rotate(0) translate(4 42)">
<title>Large_XO_AI::evaluate</title>
<!-- Node1 -->
<g id="Node000001" class="node">
<title>Node1</title>
<g id="a_Node000001"><a xlink:title="Evaluate a board using neural network + terminal heuristics.">
<polygon fill="#999999" stroke="#666666" points="429.75,-20 312.5,-20 312.5,0 429.75,0 429.75,-20"/>
<text xml:space="preserve" text-anchor="middle" x="371.12" y="-6.5" font-family="Helvetica,sans-Serif" font-size="10.00">Large_XO_AI::evaluate</text>
</a>
</g>
</g>
<!-- Node2 -->
<g id="Node000002" class="node">
<title>Node2</title>
<g id="a_Node000002"><a xlink:href="class_large___x_o___a_i.html#afdd4990cd58293668dc8ba9660beb31b" target="_top" xlink:title="Minimax algorithm with alpha&#45;beta pruning.">
<polygon fill="white" stroke="#666666" points="276.5,-20 159.25,-20 159.25,0 276.5,0 276.5,-20"/>
<text xml:space="preserve" text-anchor="middle" x="217.88" y="-6.5" font-family="Helvetica,sans-Serif" font-size="10.00">Large_XO_AI::minimax</text>
</a>
</g>
</g>
<!-- Node1&#45;&gt;Node2 -->
<g id="edge1_Node000001_Node000002" class="edge">
<title>Node1&#45;&gt;Node2</title>
<g id="a_edge1_Node000001_Node000002"><a xlink:title=" ">
<path fill="none" stroke="#63b8ff" d="M300.73,-10C292.63,-10 284.43,-10 276.51,-10"/>
<polygon fill="#63b8ff" stroke="#63b8ff" points="300.57,-13.5 310.57,-10 300.57,-6.5 300.57,-13.5"/>
</a>
</g>
</g>
<!-- Node2&#45;&gt;Node2 -->
<g id="edge3_Node000002_Node000002" class="edge">
<title>Node2&#45;&gt;Node2</title>
<g id="a_edge3_Node000002_Node000002"><a xlink:title=" ">
<path fill="none" stroke="#63b8ff" d="M244.96,-31.44C241.47,-35.3 232.44,-38 217.88,-38 191.24,-38 183.12,-28.98 193.53,-20.34"/>
<polygon fill="#63b8ff" stroke="#63b8ff" points="248.38,-30.68 242.59,-21.81 241.58,-32.36 248.38,-30.68"/>
</a>
</g>
</g>
<!-- Node3 -->
<g id="Node000003" class="node">
<title>Node3</title>
<g id="a_Node000003"><a xlink:href="class_large___x_o___a_i.html#a73ab0db41718aa760a8caa11dbfcf0c8" target="_top" xlink:title="Compute the best move for the player.">
<polygon fill="white" stroke="#666666" points="123.25,-20 0,-20 0,0 123.25,0 123.25,-20"/>
<text xml:space="preserve" text-anchor="middle" x="61.62" y="-6.5" font-family="Helvetica,sans-Serif" font-size="10.00">Large_XO_AI::bestMove</text>
</a>
</g>
</g>
<!-- Node2&#45;&gt;Node3 -->
<g id="edge2_Node000002_Node000003" class="edge">
<title>Node2&#45;&gt;Node3</title>
<g id="a_edge2_Node000002_Node000003"><a xlink:title=" ">
<path fill="none" stroke="#63b8ff" d="M147.76,-10C139.72,-10 131.57,-10 123.66,-10"/>
<polygon fill="#63b8ff" stroke="#63b8ff" points="147.49,-13.5 157.49,-10 147.49,-6.5 147.49,-13.5"/>
</a>
</g>
</g>
</g>
</svg>
