<?xml version="1.0" encoding="UTF-8" standalone="no"?>
<!DOCTYPE svg PUBLIC "-//W3C//DTD SVG 1.1//EN"
 "http://www.w3.org/Graphics/SVG/1.1/DTD/svg11.dtd">
<!-- Generated by graphviz version 14.0.2 (20251019.1705)
 -->
<!-- Title: Matrix::Matrix Pages: 1 -->
<svg width="340pt" height="294pt"
 viewBox="0.00 0.00 340.00 294.00" xmlns="http://www.w3.org/2000/svg" xmlns:xlink="http://www.w3.org/1999/xlink">
<g id="graph0" class="graph" transform="scale(1 1) rotate(0) translate(4 290)">
<title>Matrix::Matrix</title>
<!-- Node1 -->
<g id="Node000001" class="node">
<title>Node1</title>
<g id="a_Node000001"><a xlink:title="Construct a matrix of size (rows x cols).">
<polygon fill="#999999" stroke="#666666" points="332.25,-153 256.25,-153 256.25,-133 332.25,-133 332.25,-153"/>
<text xml:space="preserve" text-anchor="middle" x="294.25" y="-139.5" font-family="Helvetica,sans-Serif" font-size="10.00">Matrix::Matrix</text>
</a>
</g>
</g>
<!-- Node2 -->
<g id="Node000002" class="node">
<title>Node2</title>
<g id="a_Node000002"><a xlink:href="$class_matrix.html#a3055050ff4e15b30c072bbe26842f405" xlink:title="In&#45;place Hadamard (element&#45;wise) product: this = this ⊙ other.">
<polygon fill="white" stroke="#666666" points="218,-286 126.25,-286 126.25,-266 218,-266 218,-286"/>
<text xml:space="preserve" text-anchor="middle" x="172.12" y="-272.5" font-family="Helvetica,sans-Serif" font-size="10.00">Matrix::hadamard</text>
</a>
</g>
</g>
<!-- Node1&#45;&gt;Node2 -->
<g id="edge1_Node000001_Node000002" class="edge">
<title>Node1&#45;&gt;Node2</title>
<g id="a_edge1_Node000001_Node000002"><a xlink:title=" ">
<path fill="none" stroke="#63b8ff" d="M284.82,-163.56C273.55,-188.75 251.31,-231.24 220.25,-257 216.18,-260.38 211.42,-263.22 206.53,-265.58"/>
<polygon fill="#63b8ff" stroke="#63b8ff" points="287.89,-165.29 288.62,-154.72 281.46,-162.52 287.89,-165.29"/>
</a>
</g>
</g>
<!-- Node3 -->
<g id="Node000003" class="node">
<title>Node3</title>
<g id="a_Node000003"><a xlink:href="$class_matrix.html#a79fa5a3893939d8b399f86c6c1ff15a7" xlink:title="Optimized matrix multiplication into a preallocated matrix.">
<polygon fill="white" stroke="#666666" points="213.5,-248 130.75,-248 130.75,-228 213.5,-228 213.5,-248"/>
<text xml:space="preserve" text-anchor="middle" x="172.12" y="-234.5" font-family="Helvetica,sans-Serif" font-size="10.00">Matrix::multiply</text>
</a>
</g>
</g>
<!-- Node1&#45;&gt;Node3 -->
<g id="edge2_Node000001_Node000003" class="edge">
<title>Node1&#45;&gt;Node3</title>
<g id="a_edge2_Node000001_Node000003"><a xlink:title=" ">
<path fill="none" stroke="#63b8ff" d="M277.29,-161.35C263.3,-176.71 241.88,-198.52 220.25,-214 213.08,-219.13 204.66,-223.79 196.94,-227.61"/>
<polygon fill="#63b8ff" stroke="#63b8ff" points="279.55,-164.08 283.6,-154.29 274.33,-159.41 279.55,-164.08"/>
</a>
</g>
</g>
<!-- Node6 -->
<g id="Node000006" class="node">
<title>Node6</title>
<g id="a_Node000006"><a xlink:href="$class_matrix.html#a0d724ccde0d084d10f73366896c32c32" xlink:title="Right&#45;hand matrix multiplication: C = A * B.">
<polygon fill="white" stroke="#666666" points="88,-210 0,-210 0,-190 88,-190 88,-210"/>
<text xml:space="preserve" text-anchor="middle" x="44" y="-196.5" font-family="Helvetica,sans-Serif" font-size="10.00">Matrix::operator*</text>
</a>
</g>
</g>
<!-- Node1&#45;&gt;Node6 -->
<g id="edge6_Node000001_Node000006" class="edge">
<title>Node1&#45;&gt;Node6</title>
<g id="a_edge6_Node000001_Node000006"><a xlink:title=" ">
<path fill="none" stroke="#63b8ff" d="M267.87,-159.2C254.27,-167.09 236.92,-175.95 220.25,-181 176.61,-194.21 124.4,-198.48 88.38,-199.74"/>
<polygon fill="#63b8ff" stroke="#63b8ff" points="269.41,-162.36 276.17,-154.21 265.8,-156.36 269.41,-162.36"/>
</a>
</g>
</g>
<!-- Node7 -->
<g id="Node000007" class="node">
<title>Node7</title>
<g id="a_Node000007"><a xlink:href="$class_matrix.html#ad2a786f018631a09111b0ce0b3a97dbf" xlink:title="Scalar multiplication: each element multiplied by val.">
<polygon fill="white" stroke="#666666" points="216.12,-172 128.12,-172 128.12,-152 216.12,-152 216.12,-172"/>
<text xml:space="preserve" text-anchor="middle" x="172.12" y="-158.5" font-family="Helvetica,sans-Serif" font-size="10.00">Matrix::operator*</text>
</a>
</g>
</g>
<!-- Node1&#45;&gt;Node7 -->
<g id="edge7_Node000001_Node000007" class="edge">
<title>Node1&#45;&gt;Node7</title>
<g id="a_edge7_Node000001_Node000007"><a xlink:title=" ">
<path fill="none" stroke="#63b8ff" d="M244.71,-150.68C235.32,-152.16 225.54,-153.71 216.34,-155.17"/>
<polygon fill="#63b8ff" stroke="#63b8ff" points="245.07,-154.16 254.41,-149.14 243.98,-147.25 245.07,-154.16"/>
</a>
</g>
</g>
<!-- Node8 -->
<g id="Node000008" class="node">
<title>Node8</title>
<g id="a_Node000008"><a xlink:href="$class_matrix.html#a94950736fd85d672147d33bbe64e5d0d" xlink:title="Matrix addition. Dimensions must match.">
<polygon fill="white" stroke="#666666" points="217.25,-134 127,-134 127,-114 217.25,-114 217.25,-134"/>
<text xml:space="preserve" text-anchor="middle" x="172.12" y="-120.5" font-family="Helvetica,sans-Serif" font-size="10.00">Matrix::operator+</text>
</a>
</g>
</g>
<!-- Node1&#45;&gt;Node8 -->
<g id="edge8_Node000001_Node000008" class="edge">
<title>Node1&#45;&gt;Node8</title>
<g id="a_edge8_Node000001_Node000008"><a xlink:title=" ">
<path fill="none" stroke="#63b8ff" d="M244.79,-135.33C235.81,-133.91 226.47,-132.44 217.62,-131.04"/>
<polygon fill="#63b8ff" stroke="#63b8ff" points="243.98,-138.75 254.41,-136.86 245.07,-131.84 243.98,-138.75"/>
</a>
</g>
</g>
<!-- Node9 -->
<g id="Node000009" class="node">
<title>Node9</title>
<g id="a_Node000009"><a xlink:href="$class_matrix.html#ab7dc0cc55a49ddaa88bf4a6028ad76f0" xlink:title="Matrix subtraction. Dimensions must match.">
<polygon fill="white" stroke="#666666" points="215.75,-96 128.5,-96 128.5,-76 215.75,-76 215.75,-96"/>
<text xml:space="preserve" text-anchor="middle" x="172.12" y="-82.5" font-family="Helvetica,sans-Serif" font-size="10.00">Matrix::operator&#45;</text>
</a>
</g>
</g>
<!-- Node1&#45;&gt;Node9 -->
<g id="edge9_Node000001_Node000009" class="edge">
<title>Node1&#45;&gt;Node9</title>
<g id="a_edge9_Node000001_Node000009"><a xlink:title=" ">
<path fill="none" stroke="#63b8ff" d="M264.59,-127.26C251.26,-120.15 235.1,-111.84 220.25,-105 213.84,-102.05 206.83,-99.09 200.23,-96.41"/>
<polygon fill="#63b8ff" stroke="#63b8ff" points="262.8,-130.27 273.26,-131.93 266.12,-124.11 262.8,-130.27"/>
</a>
</g>
</g>
<!-- Node10 -->
<g id="Node000010" class="node">
<title>Node10</title>
<g id="a_Node000010"><a xlink:href="$class_matrix.html#a95102bd4b0960b1a4c282c2e7685c84c" xlink:title="Stream output operator for debugging.">
<polygon fill="white" stroke="#666666" points="220.25,-58 124,-58 124,-38 220.25,-38 220.25,-58"/>
<text xml:space="preserve" text-anchor="middle" x="172.12" y="-44.5" font-family="Helvetica,sans-Serif" font-size="10.00">Matrix::operator&lt;&lt;</text>
</a>
</g>
</g>
<!-- Node1&#45;&gt;Node10 -->
<g id="edge10_Node000001_Node000010" class="edge">
<title>Node1&#45;&gt;Node10</title>
<g id="a_edge10_Node000001_Node000010"><a xlink:title=" ">
<path fill="none" stroke="#63b8ff" d="M278.56,-123.6C264.98,-106.75 243.44,-82.67 220.25,-67 215.43,-63.74 209.96,-60.9 204.5,-58.47"/>
<polygon fill="#63b8ff" stroke="#63b8ff" points="275.73,-125.66 284.66,-131.37 281.24,-121.34 275.73,-125.66"/>
</a>
</g>
</g>
<!-- Node11 -->
<g id="Node000011" class="node">
<title>Node11</title>
<g id="a_Node000011"><a xlink:href="$class_matrix.html#a1bf314e696c1a7a1963aec05af5f5d13" xlink:title="Create a matrix filled with uniform random values in [min, max].">
<polygon fill="white" stroke="#666666" points="212.75,-20 131.5,-20 131.5,0 212.75,0 212.75,-20"/>
<text xml:space="preserve" text-anchor="middle" x="172.12" y="-6.5" font-family="Helvetica,sans-Serif" font-size="10.00">Matrix::random</text>
</a>
</g>
</g>
<!-- Node1&#45;&gt;Node11 -->
<g id="edge11_Node000001_Node000011" class="edge">
<title>Node1&#45;&gt;Node11</title>
<g id="a_edge11_Node000001_Node000011"><a xlink:title=" ">
<path fill="none" stroke="#63b8ff" d="M284.82,-122.44C273.55,-97.25 251.31,-54.76 220.25,-29 216.18,-25.62 211.42,-22.78 206.53,-20.42"/>
<polygon fill="#63b8ff" stroke="#63b8ff" points="281.46,-123.48 288.62,-131.28 287.89,-120.71 281.46,-123.48"/>
</a>
</g>
</g>
<!-- Node4 -->
<g id="Node000004" class="node">
<title>Node4</title>
<g id="a_Node000004"><a xlink:href="$class_layer.html#a54679a1ee804225a3d09a0685242070a" xlink:title="Backward propagation.">
<polygon fill="white" stroke="#666666" points="88,-286 0,-286 0,-266 88,-266 88,-286"/>
<text xml:space="preserve" text-anchor="middle" x="44" y="-272.5" font-family="Helvetica,sans-Serif" font-size="10.00">Layer::backward</text>
</a>
</g>
</g>
<!-- Node3&#45;&gt;Node4 -->
<g id="edge3_Node000003_Node000004" class="edge">
<title>Node3&#45;&gt;Node4</title>
<g id="a_edge3_Node000003_Node000004"><a xlink:title=" ">
<path fill="none" stroke="#63b8ff" d="M125.62,-251.71C110.48,-256.27 93.87,-261.28 79.68,-265.55"/>
<polygon fill="#63b8ff" stroke="#63b8ff" points="126.31,-255.16 134.88,-248.92 124.29,-248.45 126.31,-255.16"/>
</a>
</g>
</g>
<!-- Node5 -->
<g id="Node000005" class="node">
<title>Node5</title>
<g id="a_Node000005"><a xlink:href="$class_layer.html#aa1c9e50a099e7fad54c5681f83988d2a" xlink:title="Forward propagation.">
<polygon fill="white" stroke="#666666" points="83.12,-248 4.88,-248 4.88,-228 83.12,-228 83.12,-248"/>
<text xml:space="preserve" text-anchor="middle" x="44" y="-234.5" font-family="Helvetica,sans-Serif" font-size="10.00">Layer::forward</text>
</a>
</g>
</g>
<!-- Node3&#45;&gt;Node5 -->
<g id="edge4_Node000003_Node000005" class="edge">
<title>Node3&#45;&gt;Node5</title>
<g id="a_edge4_Node000003_Node000005"><a xlink:title=" ">
<path fill="none" stroke="#63b8ff" d="M119.25,-238C107.24,-238 94.68,-238 83.38,-238"/>
<polygon fill="#63b8ff" stroke="#63b8ff" points="119.01,-241.5 129.01,-238 119.01,-234.5 119.01,-241.5"/>
</a>
</g>
</g>
<!-- Node3&#45;&gt;Node6 -->
<g id="edge5_Node000003_Node000006" class="edge">
<title>Node3&#45;&gt;Node6</title>
<g id="a_edge5_Node000003_Node000006"><a xlink:title=" ">
<path fill="none" stroke="#63b8ff" d="M125.62,-224.29C110.48,-219.73 93.87,-214.72 79.68,-210.45"/>
<polygon fill="#63b8ff" stroke="#63b8ff" points="124.29,-227.55 134.88,-227.08 126.31,-220.84 124.29,-227.55"/>
</a>
</g>
</g>
</g>
</svg>
