<?xml version="1.0" encoding="UTF-8" standalone="no"?>
<!DOCTYPE svg PUBLIC "-//W3C//DTD SVG 1.1//EN"
 "http://www.w3.org/Graphics/SVG/1.1/DTD/svg11.dtd">
<!-- Generated by graphviz version 14.0.2 (20251019.1705)
 -->
<!-- Title: XO_NUM_Board::is_win Pages: 1 -->
<svg width="452pt" height="53pt"
 viewBox="0.00 0.00 452.00 53.00" xmlns="http://www.w3.org/2000/svg" xmlns:xlink="http://www.w3.org/1999/xlink">
<g id="graph0" class="graph" transform="scale(1 1) rotate(0) translate(4 49)">
<title>XO_NUM_Board::is_win</title>
<!-- Node1 -->
<g id="Node000001" class="node">
<title>Node1</title>
<g id="a_Node000001"><a xlink:title="Check if a player has won.">
<polygon fill="#999999" stroke="#666666" points="444,-39 320.75,-39 320.75,-19 444,-19 444,-39"/>
<text xml:space="preserve" text-anchor="middle" x="382.38" y="-25.5" font-family="Helvetica,sans-Serif" font-size="10.00">XO_NUM_Board::is_win</text>
</a>
</g>
</g>
<!-- Node2 -->
<g id="Node000002" class="node">
<title>Node2</title>
<g id="a_Node000002"><a xlink:href="class_x_o___n_u_m___board.html#a53484dc93fa6480fae74f3c9bd173cc5" target="_top" xlink:title="Check if the game is over.">
<polygon fill="white" stroke="#666666" points="119.5,-45 0,-45 0,-13 119.5,-13 119.5,-45"/>
<text xml:space="preserve" text-anchor="start" x="8" y="-31.5" font-family="Helvetica,sans-Serif" font-size="10.00">XO_NUM_Board::game</text>
<text xml:space="preserve" text-anchor="middle" x="59.75" y="-19.5" font-family="Helvetica,sans-Serif" font-size="10.00">_is_over</text>
</a>
</g>
</g>
<!-- Node1&#45;&gt;Node2 -->
<g id="edge1_Node000001_Node000002" class="edge">
<title>Node1&#45;&gt;Node2</title>
<g id="a_edge1_Node000001_Node000002"><a xlink:title=" ">
<path fill="none" stroke="#63b8ff" d="M308.84,-29C251.78,-29 173.27,-29 119.96,-29"/>
<polygon fill="#63b8ff" stroke="#63b8ff" points="308.8,-32.5 318.8,-29 308.8,-25.5 308.8,-32.5"/>
</a>
</g>
</g>
<!-- Node3 -->
<g id="Node000003" class="node">
<title>Node3</title>
<g id="a_Node000003"><a xlink:href="class_x_o___n_u_m___board.html#a65725a8978e903e07838140ae4bf8fd6" target="_top" xlink:title="Check if the game is a draw.">
<polygon fill="white" stroke="#666666" points="284.75,-20 155.5,-20 155.5,0 284.75,0 284.75,-20"/>
<text xml:space="preserve" text-anchor="middle" x="220.12" y="-6.5" font-family="Helvetica,sans-Serif" font-size="10.00">XO_NUM_Board::is_draw</text>
</a>
</g>
</g>
<!-- Node1&#45;&gt;Node3 -->
<g id="edge2_Node000001_Node000003" class="edge">
<title>Node1&#45;&gt;Node3</title>
<g id="a_edge2_Node000001_Node000003"><a xlink:title=" ">
<path fill="none" stroke="#63b8ff" d="M309.15,-20.44C301.16,-19.49 293.07,-18.53 285.19,-17.6"/>
<polygon fill="#63b8ff" stroke="#63b8ff" points="308.49,-23.88 318.83,-21.58 309.31,-16.93 308.49,-23.88"/>
</a>
</g>
</g>
<!-- Node3&#45;&gt;Node2 -->
<g id="edge3_Node000003_Node000002" class="edge">
<title>Node3&#45;&gt;Node2</title>
<g id="a_edge3_Node000003_Node000002"><a xlink:title=" ">
<path fill="none" stroke="#63b8ff" d="M143.84,-19.03C135.78,-20 127.66,-20.97 119.83,-21.91"/>
<polygon fill="#63b8ff" stroke="#63b8ff" points="144.15,-22.52 153.66,-17.85 143.32,-15.57 144.15,-22.52"/>
</a>
</g>
</g>
</g>
</svg>
