<?xml version="1.0" encoding="UTF-8" standalone="no"?>
<!DOCTYPE svg PUBLIC "-//W3C//DTD SVG 1.1//EN"
 "http://www.w3.org/Graphics/SVG/1.1/DTD/svg11.dtd">
<!-- Generated by graphviz version 14.0.2 (20251019.1705)
 -->
<!-- Title: Ultimate_Board::game_is_over Pages: 1 -->
<svg width="570pt" height="78pt"
 viewBox="0.00 0.00 570.00 78.00" xmlns="http://www.w3.org/2000/svg" xmlns:xlink="http://www.w3.org/1999/xlink">
<g id="graph0" class="graph" transform="scale(1 1) rotate(0) translate(4 74)">
<title>Ultimate_Board::game_is_over</title>
<!-- Node1 -->
<g id="Node000001" class="node">
<title>Node1</title>
<g id="a_Node000001"><a xlink:title="Determines whether the game has ended.">
<polygon fill="#999999" stroke="#666666" points="113.5,-45 0,-45 0,-13 113.5,-13 113.5,-45"/>
<text xml:space="preserve" text-anchor="start" x="8" y="-31.5" font-family="Helvetica,sans-Serif" font-size="10.00">Ultimate_Board::game</text>
<text xml:space="preserve" text-anchor="middle" x="56.75" y="-19.5" font-family="Helvetica,sans-Serif" font-size="10.00">_is_over</text>
</a>
</g>
</g>
<!-- Node2 -->
<g id="Node000002" class="node">
<title>Node2</title>
<g id="a_Node000002"><a xlink:href="class_ultimate___board.html#a5737c7a2126711b10d5996eb07644fb1" target="_top" xlink:title="Checks if the game ended in a draw.">
<polygon fill="white" stroke="#666666" points="272.75,-58 149.5,-58 149.5,-38 272.75,-38 272.75,-58"/>
<text xml:space="preserve" text-anchor="middle" x="211.12" y="-44.5" font-family="Helvetica,sans-Serif" font-size="10.00">Ultimate_Board::is_draw</text>
</a>
</g>
</g>
<!-- Node1&#45;&gt;Node2 -->
<g id="edge1_Node000001_Node000002" class="edge">
<title>Node1&#45;&gt;Node2</title>
<g id="a_edge1_Node000001_Node000002"><a xlink:title=" ">
<path fill="none" stroke="#63b8ff" d="M113.62,-35.97C121.47,-36.95 129.64,-37.96 137.74,-38.97"/>
<polygon fill="#63b8ff" stroke="#63b8ff" points="137.26,-42.44 147.62,-40.21 138.13,-35.5 137.26,-42.44"/>
</a>
</g>
</g>
<!-- Node4 -->
<g id="Node000004" class="node">
<title>Node4</title>
<g id="a_Node000004"><a xlink:href="class_ultimate___board.html#a34b9605914ffff40dde2acb0be08f857" target="_top" xlink:title="Checks if the player has won the game.">
<polygon fill="white" stroke="#666666" points="426,-20 308.75,-20 308.75,0 426,0 426,-20"/>
<text xml:space="preserve" text-anchor="middle" x="367.38" y="-6.5" font-family="Helvetica,sans-Serif" font-size="10.00">Ultimate_Board::is_win</text>
</a>
</g>
</g>
<!-- Node1&#45;&gt;Node4 -->
<g id="edge5_Node000001_Node000004" class="edge">
<title>Node1&#45;&gt;Node4</title>
<g id="a_edge5_Node000001_Node000004"><a xlink:title=" ">
<path fill="none" stroke="#63b8ff" d="M114,-25.54C165.45,-22.37 241.75,-17.67 296.97,-14.27"/>
<polygon fill="#63b8ff" stroke="#63b8ff" points="297.14,-17.77 306.91,-13.66 296.71,-10.78 297.14,-17.77"/>
</a>
</g>
</g>
<!-- Node3 -->
<g id="Node000003" class="node">
<title>Node3</title>
<g id="a_Node000003"><a xlink:href="class_ultimate___board.html#a891824859cdfd590dafb52250a27148c" target="_top" xlink:title="Checks if all small boards are completed.">
<polygon fill="white" stroke="#666666" points="420,-70 314.75,-70 314.75,-38 420,-38 420,-70"/>
<text xml:space="preserve" text-anchor="start" x="322.75" y="-56.5" font-family="Helvetica,sans-Serif" font-size="10.00">Ultimate_Board::all</text>
<text xml:space="preserve" text-anchor="middle" x="367.38" y="-44.5" font-family="Helvetica,sans-Serif" font-size="10.00">_small_boards_done</text>
</a>
</g>
</g>
<!-- Node2&#45;&gt;Node3 -->
<g id="edge2_Node000002_Node000003" class="edge">
<title>Node2&#45;&gt;Node3</title>
<g id="a_edge2_Node000002_Node000003"><a xlink:title=" ">
<path fill="none" stroke="#63b8ff" d="M273.09,-50.37C282.89,-50.75 293.06,-51.15 302.93,-51.53"/>
<polygon fill="#63b8ff" stroke="#63b8ff" points="302.68,-55.02 312.81,-51.92 302.95,-48.03 302.68,-55.02"/>
</a>
</g>
</g>
<!-- Node2&#45;&gt;Node4 -->
<g id="edge3_Node000002_Node000004" class="edge">
<title>Node2&#45;&gt;Node4</title>
<g id="a_edge3_Node000002_Node000004"><a xlink:title=" ">
<path fill="none" stroke="#63b8ff" d="M254.68,-37.52C272.72,-33.07 293.94,-27.84 313.02,-23.15"/>
<polygon fill="#63b8ff" stroke="#63b8ff" points="313.61,-26.6 322.49,-20.81 311.94,-19.81 313.61,-26.6"/>
</a>
</g>
</g>
<!-- Node5 -->
<g id="Node000005" class="node">
<title>Node5</title>
<g id="a_Node000005"><a xlink:href="class_player.html#af56f0bf98c0423a3a75b0848607d03a4" target="_top" xlink:title="Get the player&#39;s symbol.">
<polygon fill="white" stroke="#666666" points="562,-20 462,-20 462,0 562,0 562,-20"/>
<text xml:space="preserve" text-anchor="middle" x="512" y="-6.5" font-family="Helvetica,sans-Serif" font-size="10.00">Player::get_symbol</text>
</a>
</g>
</g>
<!-- Node4&#45;&gt;Node5 -->
<g id="edge4_Node000004_Node000005" class="edge">
<title>Node4&#45;&gt;Node5</title>
<g id="a_edge4_Node000004_Node000005"><a xlink:title=" ">
<path fill="none" stroke="#63b8ff" d="M426.39,-10C434.26,-10 442.36,-10 450.28,-10"/>
<polygon fill="#63b8ff" stroke="#63b8ff" points="450.2,-13.5 460.2,-10 450.2,-6.5 450.2,-13.5"/>
</a>
</g>
</g>
</g>
</svg>
