<?xml version="1.0" encoding="UTF-8" standalone="no"?>
<!DOCTYPE svg PUBLIC "-//W3C//DTD SVG 1.1//EN"
 "http://www.w3.org/Graphics/SVG/1.1/DTD/svg11.dtd">
<!-- Generated by graphviz version 14.0.2 (20251019.1705)
 -->
<!-- Title: Large_XO_Board::encode Pages: 1 -->
<svg width="299pt" height="66pt"
 viewBox="0.00 0.00 299.00 66.00" xmlns="http://www.w3.org/2000/svg" xmlns:xlink="http://www.w3.org/1999/xlink">
<g id="graph0" class="graph" transform="scale(1 1) rotate(0) translate(4 62)">
<title>Large_XO_Board::encode</title>
<!-- Node1 -->
<g id="Node000001" class="node">
<title>Node1</title>
<g id="a_Node000001"><a xlink:title="Encode board state into a matrix for the neural network. AI = +1, Opponent = &#45;1, Empty = 0.">
<polygon fill="#999999" stroke="#666666" points="127.75,-39 0,-39 0,-19 127.75,-19 127.75,-39"/>
<text xml:space="preserve" text-anchor="middle" x="63.88" y="-25.5" font-family="Helvetica,sans-Serif" font-size="10.00">Large_XO_Board::encode</text>
</a>
</g>
</g>
<!-- Node2 -->
<g id="Node000002" class="node">
<title>Node2</title>
<g id="a_Node000002"><a xlink:href="$class_large___x_o___board.html#aeae5940040d7676034082c34c531d6c3" xlink:title="Read the board state at a given cell.">
<polygon fill="white" stroke="#666666" points="290.75,-58 163.75,-58 163.75,-38 290.75,-38 290.75,-58"/>
<text xml:space="preserve" text-anchor="middle" x="227.25" y="-44.5" font-family="Helvetica,sans-Serif" font-size="10.00">Large_XO_Board::getCell</text>
</a>
</g>
</g>
<!-- Node1&#45;&gt;Node2 -->
<g id="edge1_Node000001_Node000002" class="edge">
<title>Node1&#45;&gt;Node2</title>
<g id="a_edge1_Node000001_Node000002"><a xlink:title=" ">
<path fill="none" stroke="#63b8ff" d="M128.19,-36.45C136.05,-37.38 144.15,-38.33 152.15,-39.28"/>
<polygon fill="#63b8ff" stroke="#63b8ff" points="151.54,-42.73 161.88,-40.42 152.36,-35.78 151.54,-42.73"/>
</a>
</g>
</g>
<!-- Node3 -->
<g id="Node000003" class="node">
<title>Node3</title>
<g id="a_Node000003"><a xlink:href="$class_matrix.html#afc76f95218a395ba7d12e2831d282acf" xlink:title="Resize matrix to (r x c) and reset all elements to zero.">
<polygon fill="white" stroke="#666666" points="264.88,-20 189.62,-20 189.62,0 264.88,0 264.88,-20"/>
<text xml:space="preserve" text-anchor="middle" x="227.25" y="-6.5" font-family="Helvetica,sans-Serif" font-size="10.00">Matrix::resize</text>
</a>
</g>
</g>
<!-- Node1&#45;&gt;Node3 -->
<g id="edge2_Node000001_Node000003" class="edge">
<title>Node1&#45;&gt;Node3</title>
<g id="a_edge2_Node000001_Node000003"><a xlink:title=" ">
<path fill="none" stroke="#63b8ff" d="M128.19,-21.55C144.82,-19.59 162.48,-17.51 178.16,-15.66"/>
<polygon fill="#63b8ff" stroke="#63b8ff" points="178.17,-19.19 187.69,-14.54 177.35,-12.23 178.17,-19.19"/>
</a>
</g>
</g>
</g>
</svg>
