<?xml version="1.0" encoding="UTF-8" standalone="no"?>
<!DOCTYPE svg PUBLIC "-//W3C//DTD SVG 1.1//EN"
 "http://www.w3.org/Graphics/SVG/1.1/DTD/svg11.dtd">
<!-- Generated by graphviz version 14.0.2 (20251019.1705)
 -->
<!-- Title: Anti_AI::bounded Pages: 1 -->
<svg width="385pt" height="28pt"
 viewBox="0.00 0.00 385.00 28.00" xmlns="http://www.w3.org/2000/svg" xmlns:xlink="http://www.w3.org/1999/xlink">
<g id="graph0" class="graph" transform="scale(1 1) rotate(0) translate(4 24)">
<title>Anti_AI::bounded</title>
<!-- Node1 -->
<g id="Node000001" class="node">
<title>Node1</title>
<g id="a_Node000001"><a xlink:title="Checks that coordinates are within board bounds.">
<polygon fill="#999999" stroke="#666666" points="377.25,-20 286.25,-20 286.25,0 377.25,0 377.25,-20"/>
<text xml:space="preserve" text-anchor="middle" x="331.75" y="-6.5" font-family="Helvetica,sans-Serif" font-size="10.00">Anti_AI::bounded</text>
</a>
</g>
</g>
<!-- Node2 -->
<g id="Node000002" class="node">
<title>Node2</title>
<g id="a_Node000002"><a xlink:href="class_anti___a_i.html#acec0e9ad7768c964434b67ae2e9d354a" target="_top" xlink:title="Computes the best move by selecting the least dangerous adjacent cell.">
<polygon fill="white" stroke="#666666" points="250.25,-20 153.25,-20 153.25,0 250.25,0 250.25,-20"/>
<text xml:space="preserve" text-anchor="middle" x="201.75" y="-6.5" font-family="Helvetica,sans-Serif" font-size="10.00">Anti_AI::bestMove</text>
</a>
</g>
</g>
<!-- Node1&#45;&gt;Node2 -->
<g id="edge1_Node000001_Node000002" class="edge">
<title>Node1&#45;&gt;Node2</title>
<g id="a_edge1_Node000001_Node000002"><a xlink:title=" ">
<path fill="none" stroke="#63b8ff" d="M274.67,-10C266.55,-10 258.25,-10 250.32,-10"/>
<polygon fill="#63b8ff" stroke="#63b8ff" points="274.47,-13.5 284.47,-10 274.47,-6.5 274.47,-13.5"/>
</a>
</g>
</g>
<!-- Node3 -->
<g id="Node000003" class="node">
<title>Node3</title>
<g id="a_Node000003"><a xlink:href="class_anti___x_o___u_i.html#a33e3fac8bd7d6e9e26eaa1a5df1ddd6f" target="_top" xlink:title="Retrieves the next move from human or AI.">
<polygon fill="white" stroke="#666666" points="117.25,-20 0,-20 0,0 117.25,0 117.25,-20"/>
<text xml:space="preserve" text-anchor="middle" x="58.62" y="-6.5" font-family="Helvetica,sans-Serif" font-size="10.00">Anti_XO_UI::get_move</text>
</a>
</g>
</g>
<!-- Node2&#45;&gt;Node3 -->
<g id="edge2_Node000002_Node000003" class="edge">
<title>Node2&#45;&gt;Node3</title>
<g id="a_edge2_Node000002_Node000003"><a xlink:title=" ">
<path fill="none" stroke="#63b8ff" d="M141.56,-10C133.64,-10 125.52,-10 117.62,-10"/>
<polygon fill="#63b8ff" stroke="#63b8ff" points="141.46,-13.5 151.46,-10 141.46,-6.5 141.46,-13.5"/>
</a>
</g>
</g>
</g>
</svg>
