<?xml version="1.0" encoding="UTF-8" standalone="no"?>
<!DOCTYPE svg PUBLIC "-//W3C//DTD SVG 1.1//EN"
 "http://www.w3.org/Graphics/SVG/1.1/DTD/svg11.dtd">
<!-- Generated by graphviz version 14.0.2 (20251019.1705)
 -->
<!-- Title: SUS_UI::get_move Pages: 1 -->
<svg width="660pt" height="294pt"
 viewBox="0.00 0.00 660.00 294.00" xmlns="http://www.w3.org/2000/svg" xmlns:xlink="http://www.w3.org/1999/xlink">
<g id="graph0" class="graph" transform="scale(1 1) rotate(0) translate(4 290)">
<title>SUS_UI::get_move</title>
<!-- Node1 -->
<g id="Node000001" class="node">
<title>Node1</title>
<g id="a_Node000001"><a xlink:title="Retrieves the next move.">
<polygon fill="#999999" stroke="#666666" points="101.5,-77 0,-77 0,-57 101.5,-57 101.5,-77"/>
<text xml:space="preserve" text-anchor="middle" x="50.75" y="-63.5" font-family="Helvetica,sans-Serif" font-size="10.00">SUS_UI::get_move</text>
</a>
</g>
</g>
<!-- Node2 -->
<g id="Node000002" class="node">
<title>Node2</title>
<g id="a_Node000002"><a xlink:href="class_s_u_s___a_i.html#ae27d5dea2808c253c2fe19574bb41038" target="_top" xlink:title="Computes the best move for the player.">
<polygon fill="white" stroke="#666666" points="238.25,-153 137.5,-153 137.5,-133 238.25,-133 238.25,-153"/>
<text xml:space="preserve" text-anchor="middle" x="187.88" y="-139.5" font-family="Helvetica,sans-Serif" font-size="10.00">SUS_AI::bestMove</text>
</a>
</g>
</g>
<!-- Node1&#45;&gt;Node2 -->
<g id="edge1_Node000001_Node000002" class="edge">
<title>Node1&#45;&gt;Node2</title>
<g id="a_edge1_Node000001_Node000002"><a xlink:title=" ">
<path fill="none" stroke="#63b8ff" d="M70.26,-77.41C93.1,-90.26 132.18,-112.24 158.74,-127.18"/>
<polygon fill="#63b8ff" stroke="#63b8ff" points="156.84,-130.12 167.27,-131.98 160.27,-124.02 156.84,-130.12"/>
</a>
</g>
</g>
<!-- Node4 -->
<g id="Node000004" class="node">
<title>Node4</title>
<g id="a_Node000004"><a xlink:href="class_player.html#af56f0bf98c0423a3a75b0848607d03a4" target="_top" xlink:title="Get the player&#39;s symbol.">
<polygon fill="white" stroke="#666666" points="652.25,-172 552.25,-172 552.25,-152 652.25,-152 652.25,-172"/>
<text xml:space="preserve" text-anchor="middle" x="602.25" y="-158.5" font-family="Helvetica,sans-Serif" font-size="10.00">Player::get_symbol</text>
</a>
</g>
</g>
<!-- Node1&#45;&gt;Node4 -->
<g id="edge14_Node000001_Node000004" class="edge">
<title>Node1&#45;&gt;Node4</title>
<g id="a_edge14_Node000001_Node000004"><a xlink:title=" ">
<path fill="none" stroke="#63b8ff" d="M101.86,-70.7C187.69,-77.78 367.92,-95.83 516.25,-132 532.77,-136.03 550.57,-142.04 565.6,-147.63"/>
<polygon fill="#63b8ff" stroke="#63b8ff" points="563.98,-150.76 574.57,-151.04 566.48,-144.21 563.98,-150.76"/>
</a>
</g>
</g>
<!-- Node9 -->
<g id="Node000009" class="node">
<title>Node9</title>
<g id="a_Node000009"><a xlink:href="class_player.html#aed2af19790ba73190e3ebeea589518e1" target="_top" xlink:title="Get the player&#39;s name.">
<polygon fill="white" stroke="#666666" points="234.12,-58 141.62,-58 141.62,-38 234.12,-38 234.12,-58"/>
<text xml:space="preserve" text-anchor="middle" x="187.88" y="-44.5" font-family="Helvetica,sans-Serif" font-size="10.00">Player::get_name</text>
</a>
</g>
</g>
<!-- Node1&#45;&gt;Node9 -->
<g id="edge13_Node000001_Node000009" class="edge">
<title>Node1&#45;&gt;Node9</title>
<g id="a_edge13_Node000001_Node000009"><a xlink:title=" ">
<path fill="none" stroke="#63b8ff" d="M101.68,-59.98C110.87,-58.69 120.54,-57.33 129.92,-56.01"/>
<polygon fill="#63b8ff" stroke="#63b8ff" points="130.26,-59.5 139.67,-54.64 129.28,-52.56 130.26,-59.5"/>
</a>
</g>
</g>
<!-- Node10 -->
<g id="Node000010" class="node">
<title>Node10</title>
<g id="a_Node000010"><a xlink:href="class_player.html#a2df3bd299bf7aecfa2275ec6902a60f8" target="_top" xlink:title="Get player type (e.g., &#39;H&#39; or &#39;C&#39;).">
<polygon fill="white" stroke="#666666" points="231.5,-20 144.25,-20 144.25,0 231.5,0 231.5,-20"/>
<text xml:space="preserve" text-anchor="middle" x="187.88" y="-6.5" font-family="Helvetica,sans-Serif" font-size="10.00">Player::get_type</text>
</a>
</g>
</g>
<!-- Node1&#45;&gt;Node10 -->
<g id="edge15_Node000001_Node000010" class="edge">
<title>Node1&#45;&gt;Node10</title>
<g id="a_edge15_Node000001_Node000010"><a xlink:title=" ">
<path fill="none" stroke="#63b8ff" d="M74.55,-56.53C91.75,-48.72 115.98,-37.9 137.5,-29 141.09,-27.52 144.84,-26 148.6,-24.51"/>
<polygon fill="#63b8ff" stroke="#63b8ff" points="149.65,-27.86 157.69,-20.96 147.1,-21.34 149.65,-27.86"/>
</a>
</g>
</g>
<!-- Node3 -->
<g id="Node000003" class="node">
<title>Node3</title>
<g id="a_Node000003"><a xlink:href="class_player.html#a508617eddfae8915d098102d480fc888" target="_top" xlink:title="Get a pointer to the game board.">
<polygon fill="white" stroke="#666666" points="515.12,-172 406.12,-172 406.12,-152 515.12,-152 515.12,-172"/>
<text xml:space="preserve" text-anchor="middle" x="460.62" y="-158.5" font-family="Helvetica,sans-Serif" font-size="10.00">Player::get_board_ptr</text>
</a>
</g>
</g>
<!-- Node2&#45;&gt;Node3 -->
<g id="edge2_Node000002_Node000003" class="edge">
<title>Node2&#45;&gt;Node3</title>
<g id="a_edge2_Node000002_Node000003"><a xlink:title=" ">
<path fill="none" stroke="#63b8ff" d="M238.53,-146.48C282.35,-149.56 346.51,-154.06 394.44,-157.43"/>
<polygon fill="#63b8ff" stroke="#63b8ff" points="393.91,-160.9 404.13,-158.11 394.4,-153.91 393.91,-160.9"/>
</a>
</g>
</g>
<!-- Node2&#45;&gt;Node4 -->
<g id="edge3_Node000002_Node000004" class="edge">
<title>Node2&#45;&gt;Node4</title>
<g id="a_edge3_Node000002_Node000004"><a xlink:title=" ">
<path fill="none" stroke="#63b8ff" d="M238.7,-139.61C303.04,-136.01 418.38,-132.19 516.25,-143 527.98,-144.3 540.46,-146.57 552.14,-149.1"/>
<polygon fill="#63b8ff" stroke="#63b8ff" points="551.04,-152.44 561.57,-151.25 552.6,-145.61 551.04,-152.44"/>
</a>
</g>
</g>
<!-- Node5 -->
<g id="Node000005" class="node">
<title>Node5</title>
<g id="a_Node000005"><a xlink:href="class_s_u_s___a_i.html#a9cd1ee590918406034aae1d0ebc43b46" target="_top" xlink:title="Minimax with alpha&#45;beta pruning.">
<polygon fill="white" stroke="#666666" points="369,-210 274.25,-210 274.25,-190 369,-190 369,-210"/>
<text xml:space="preserve" text-anchor="middle" x="321.62" y="-196.5" font-family="Helvetica,sans-Serif" font-size="10.00">SUS_AI::minimax</text>
</a>
</g>
</g>
<!-- Node2&#45;&gt;Node5 -->
<g id="edge4_Node000002_Node000005" class="edge">
<title>Node2&#45;&gt;Node5</title>
<g id="a_edge4_Node000002_Node000005"><a xlink:title=" ">
<path fill="none" stroke="#63b8ff" d="M213.04,-153.45C233.56,-162.33 263.26,-175.18 286.25,-185.13"/>
<polygon fill="#63b8ff" stroke="#63b8ff" points="284.66,-188.25 295.22,-189.01 287.44,-181.83 284.66,-188.25"/>
</a>
</g>
</g>
<!-- Node5&#45;&gt;Node3 -->
<g id="edge8_Node000005_Node000003" class="edge">
<title>Node5&#45;&gt;Node3</title>
<g id="a_edge8_Node000005_Node000003"><a xlink:title=" ">
<path fill="none" stroke="#63b8ff" d="M360.42,-189.52C376.15,-185.15 394.59,-180.04 411.28,-175.41"/>
<polygon fill="#63b8ff" stroke="#63b8ff" points="411.79,-178.9 420.49,-172.85 409.92,-172.15 411.79,-178.9"/>
</a>
</g>
</g>
<!-- Node5&#45;&gt;Node4 -->
<g id="edge9_Node000005_Node000004" class="edge">
<title>Node5&#45;&gt;Node4</title>
<g id="a_edge9_Node000005_Node000004"><a xlink:title=" ">
<path fill="none" stroke="#63b8ff" d="M369.39,-197.02C408.73,-194.13 466.39,-188.99 516.25,-181 526.56,-179.35 537.49,-177.21 547.95,-174.96"/>
<polygon fill="#63b8ff" stroke="#63b8ff" points="548.59,-178.4 557.6,-172.82 547.08,-171.57 548.59,-178.4"/>
</a>
</g>
</g>
<!-- Node5&#45;&gt;Node5 -->
<g id="edge12_Node000005_Node000005" class="edge">
<title>Node5&#45;&gt;Node5</title>
<g id="a_edge12_Node000005_Node000005"><a xlink:title=" ">
<path fill="none" stroke="#63b8ff" d="M300.37,-210.34C291.29,-218.98 298.38,-228 321.62,-228 334.34,-228 342.22,-225.3 345.26,-221.44"/>
<polygon fill="#63b8ff" stroke="#63b8ff" points="348.72,-220.86 343.19,-211.82 341.88,-222.33 348.72,-220.86"/>
</a>
</g>
</g>
<!-- Node6 -->
<g id="Node000006" class="node">
<title>Node6</title>
<g id="a_Node000006"><a xlink:href="class_s_u_s___a_i.html#a917f6a59b1707de463bfcaad41f0d560" target="_top" xlink:title="Evaluates the board state for the given player.">
<polygon fill="white" stroke="#666666" points="508,-248 413.25,-248 413.25,-228 508,-228 508,-248"/>
<text xml:space="preserve" text-anchor="middle" x="460.62" y="-234.5" font-family="Helvetica,sans-Serif" font-size="10.00">SUS_AI::evaluate</text>
</a>
</g>
</g>
<!-- Node5&#45;&gt;Node6 -->
<g id="edge5_Node000005_Node000006" class="edge">
<title>Node5&#45;&gt;Node6</title>
<g id="a_edge5_Node000005_Node000006"><a xlink:title=" ">
<path fill="none" stroke="#63b8ff" d="M360.42,-210.48C376.15,-214.85 394.59,-219.96 411.28,-224.59"/>
<polygon fill="#63b8ff" stroke="#63b8ff" points="409.92,-227.85 420.49,-227.15 411.79,-221.1 409.92,-227.85"/>
</a>
</g>
</g>
<!-- Node8 -->
<g id="Node000008" class="node">
<title>Node8</title>
<g id="a_Node000008"><a xlink:href="class_s_u_s___a_i.html#a223660856952277e2a8323ffb790bc53" target="_top" xlink:title="Checks if any empty cells remain.">
<polygon fill="white" stroke="#666666" points="516.25,-286 405,-286 405,-266 516.25,-266 516.25,-286"/>
<text xml:space="preserve" text-anchor="middle" x="460.62" y="-272.5" font-family="Helvetica,sans-Serif" font-size="10.00">SUS_AI::isMovesLeft</text>
</a>
</g>
</g>
<!-- Node5&#45;&gt;Node8 -->
<g id="edge10_Node000005_Node000008" class="edge">
<title>Node5&#45;&gt;Node8</title>
<g id="a_edge10_Node000005_Node000008"><a xlink:title=" ">
<path fill="none" stroke="#63b8ff" d="M335.34,-210.44C350.96,-222.87 378.64,-243.61 405,-257 408.04,-258.54 411.22,-260.01 414.47,-261.39"/>
<polygon fill="#63b8ff" stroke="#63b8ff" points="412.95,-264.55 423.54,-264.97 415.52,-258.04 412.95,-264.55"/>
</a>
</g>
</g>
<!-- Node6&#45;&gt;Node4 -->
<g id="edge7_Node000006_Node000004" class="edge">
<title>Node6&#45;&gt;Node4</title>
<g id="a_edge7_Node000006_Node000004"><a xlink:title=" ">
<path fill="none" stroke="#63b8ff" d="M487.25,-227.59C496.52,-223.6 506.98,-218.85 516.25,-214 536.95,-203.19 559.45,-189.32 576.1,-178.62"/>
<polygon fill="#63b8ff" stroke="#63b8ff" points="577.89,-181.64 584.37,-173.26 574.08,-175.76 577.89,-181.64"/>
</a>
</g>
</g>
<!-- Node7 -->
<g id="Node000007" class="node">
<title>Node7</title>
<g id="a_Node000007"><a xlink:href="class_board.html#a93558c58e60ca4291c6044828afd260b" target="_top" xlink:title="Return content of cell x, y in current board.">
<polygon fill="white" stroke="#666666" points="642.88,-267 561.62,-267 561.62,-247 642.88,-247 642.88,-267"/>
<text xml:space="preserve" text-anchor="middle" x="602.25" y="-253.5" font-family="Helvetica,sans-Serif" font-size="10.00">Board::get_cell</text>
</a>
</g>
</g>
<!-- Node6&#45;&gt;Node7 -->
<g id="edge6_Node000006_Node000007" class="edge">
<title>Node6&#45;&gt;Node7</title>
<g id="a_edge6_Node000006_Node000007"><a xlink:title=" ">
<path fill="none" stroke="#63b8ff" d="M508.12,-244.33C521.63,-246.17 536.46,-248.18 550.23,-250.06"/>
<polygon fill="#63b8ff" stroke="#63b8ff" points="549.62,-253.51 560,-251.39 550.56,-246.57 549.62,-253.51"/>
</a>
</g>
</g>
<!-- Node8&#45;&gt;Node7 -->
<g id="edge11_Node000008_Node000007" class="edge">
<title>Node8&#45;&gt;Node7</title>
<g id="a_edge11_Node000008_Node000007"><a xlink:title=" ">
<path fill="none" stroke="#63b8ff" d="M516.41,-268.55C527.52,-267.03 539.17,-265.45 550.15,-263.95"/>
<polygon fill="#63b8ff" stroke="#63b8ff" points="550.36,-267.46 559.8,-262.64 549.42,-260.52 550.36,-267.46"/>
</a>
</g>
</g>
</g>
</svg>
