<?xml version="1.0" encoding="UTF-8" standalone="no"?>
<!DOCTYPE svg PUBLIC "-//W3C//DTD SVG 1.1//EN"
 "http://www.w3.org/Graphics/SVG/1.1/DTD/svg11.dtd">
<!-- Generated by graphviz version 14.0.2 (20251019.1705)
 -->
<!-- Title: Obstacles_Board::game_is_over Pages: 1 -->
<svg width="596pt" height="66pt"
 viewBox="0.00 0.00 596.00 66.00" xmlns="http://www.w3.org/2000/svg" xmlns:xlink="http://www.w3.org/1999/xlink">
<g id="graph0" class="graph" transform="scale(1 1) rotate(0) translate(4 62)">
<title>Obstacles_Board::game_is_over</title>
<!-- Node1 -->
<g id="Node000001" class="node">
<title>Node1</title>
<g id="a_Node000001"><a xlink:title="Checks if the game is over for a player.">
<polygon fill="#999999" stroke="#666666" points="121,-45 0,-45 0,-13 121,-13 121,-45"/>
<text xml:space="preserve" text-anchor="start" x="8" y="-31.5" font-family="Helvetica,sans-Serif" font-size="10.00">Obstacles_Board::game</text>
<text xml:space="preserve" text-anchor="middle" x="60.5" y="-19.5" font-family="Helvetica,sans-Serif" font-size="10.00">_is_over</text>
</a>
</g>
</g>
<!-- Node2 -->
<g id="Node000002" class="node">
<title>Node2</title>
<g id="a_Node000002"><a xlink:href="class_obstacles___board.html#a727f0d88ad486a7fb74142f590f7eda0" target="_top" xlink:title="Checks for a draw condition.">
<polygon fill="white" stroke="#666666" points="287.75,-39 157,-39 157,-19 287.75,-19 287.75,-39"/>
<text xml:space="preserve" text-anchor="middle" x="222.38" y="-25.5" font-family="Helvetica,sans-Serif" font-size="10.00">Obstacles_Board::is_draw</text>
</a>
</g>
</g>
<!-- Node1&#45;&gt;Node2 -->
<g id="edge1_Node000001_Node000002" class="edge">
<title>Node1&#45;&gt;Node2</title>
<g id="a_edge1_Node000001_Node000002"><a xlink:title=" ">
<path fill="none" stroke="#63b8ff" d="M121.49,-29C129.17,-29 137.11,-29 145,-29"/>
<polygon fill="#63b8ff" stroke="#63b8ff" points="144.99,-32.5 154.99,-29 144.99,-25.5 144.99,-32.5"/>
</a>
</g>
</g>
<!-- Node3 -->
<g id="Node000003" class="node">
<title>Node3</title>
<g id="a_Node000003"><a xlink:href="class_obstacles___board.html#a8cfc2aeca16df3eed8c6fa739a7c1a4d" target="_top" xlink:title="Checks if a player has lost.">
<polygon fill="white" stroke="#666666" points="451.5,-58 323.75,-58 323.75,-38 451.5,-38 451.5,-58"/>
<text xml:space="preserve" text-anchor="middle" x="387.62" y="-44.5" font-family="Helvetica,sans-Serif" font-size="10.00">Obstacles_Board::is_lose</text>
</a>
</g>
</g>
<!-- Node1&#45;&gt;Node3 -->
<g id="edge6_Node000001_Node000003" class="edge">
<title>Node1&#45;&gt;Node3</title>
<g id="a_edge6_Node000001_Node000003"><a xlink:title=" ">
<path fill="none" stroke="#63b8ff" d="M121.34,-42.77C133.1,-44.95 145.39,-46.86 157,-48 208.64,-53.09 267.14,-53 312.16,-51.69"/>
<polygon fill="#63b8ff" stroke="#63b8ff" points="312.2,-55.19 322.09,-51.37 311.98,-48.19 312.2,-55.19"/>
</a>
</g>
</g>
<!-- Node5 -->
<g id="Node000005" class="node">
<title>Node5</title>
<g id="a_Node000005"><a xlink:href="class_obstacles___board.html#aac85c909cd7d0e59c4ba2dea35789c26" target="_top" xlink:title="Checks if a player has won.">
<polygon fill="white" stroke="#666666" points="450,-20 325.25,-20 325.25,0 450,0 450,-20"/>
<text xml:space="preserve" text-anchor="middle" x="387.62" y="-6.5" font-family="Helvetica,sans-Serif" font-size="10.00">Obstacles_Board::is_win</text>
</a>
</g>
</g>
<!-- Node1&#45;&gt;Node5 -->
<g id="edge7_Node000001_Node000005" class="edge">
<title>Node1&#45;&gt;Node5</title>
<g id="a_edge7_Node000001_Node000005"><a xlink:title=" ">
<path fill="none" stroke="#63b8ff" d="M121.34,-15.23C133.1,-13.05 145.39,-11.14 157,-10 209.19,-4.86 268.38,-5 313.59,-6.35"/>
<polygon fill="#63b8ff" stroke="#63b8ff" points="313.44,-9.85 323.55,-6.68 313.67,-2.86 313.44,-9.85"/>
</a>
</g>
</g>
<!-- Node2&#45;&gt;Node3 -->
<g id="edge2_Node000002_Node000003" class="edge">
<title>Node2&#45;&gt;Node3</title>
<g id="a_edge2_Node000002_Node000003"><a xlink:title=" ">
<path fill="none" stroke="#63b8ff" d="M287.9,-36.51C295.83,-37.43 303.99,-38.38 312.06,-39.32"/>
<polygon fill="#63b8ff" stroke="#63b8ff" points="311.53,-42.78 321.87,-40.46 312.34,-35.83 311.53,-42.78"/>
</a>
</g>
</g>
<!-- Node2&#45;&gt;Node5 -->
<g id="edge4_Node000002_Node000005" class="edge">
<title>Node2&#45;&gt;Node5</title>
<g id="a_edge4_Node000002_Node000005"><a xlink:title=" ">
<path fill="none" stroke="#63b8ff" d="M287.9,-21.49C296.39,-20.5 305.13,-19.48 313.75,-18.48"/>
<polygon fill="#63b8ff" stroke="#63b8ff" points="313.94,-21.98 323.47,-17.35 313.13,-15.03 313.94,-21.98"/>
</a>
</g>
</g>
<!-- Node4 -->
<g id="Node000004" class="node">
<title>Node4</title>
<g id="a_Node000004"><a xlink:href="class_player.html#af56f0bf98c0423a3a75b0848607d03a4" target="_top" xlink:title="Get the player&#39;s symbol.">
<polygon fill="white" stroke="#666666" points="587.5,-39 487.5,-39 487.5,-19 587.5,-19 587.5,-39"/>
<text xml:space="preserve" text-anchor="middle" x="537.5" y="-25.5" font-family="Helvetica,sans-Serif" font-size="10.00">Player::get_symbol</text>
</a>
</g>
</g>
<!-- Node3&#45;&gt;Node4 -->
<g id="edge3_Node000003_Node000004" class="edge">
<title>Node3&#45;&gt;Node4</title>
<g id="a_edge3_Node000003_Node000004"><a xlink:title=" ">
<path fill="none" stroke="#63b8ff" d="M451.77,-39.89C459.88,-38.85 468.16,-37.78 476.23,-36.74"/>
<polygon fill="#63b8ff" stroke="#63b8ff" points="476.46,-40.24 485.93,-35.5 475.57,-33.3 476.46,-40.24"/>
</a>
</g>
</g>
<!-- Node5&#45;&gt;Node4 -->
<g id="edge5_Node000005_Node000004" class="edge">
<title>Node5&#45;&gt;Node4</title>
<g id="a_edge5_Node000005_Node000004"><a xlink:title=" ">
<path fill="none" stroke="#63b8ff" d="M450.48,-17.95C458.86,-19.02 467.45,-20.13 475.81,-21.2"/>
<polygon fill="#63b8ff" stroke="#63b8ff" points="475.16,-24.65 485.52,-22.45 476.05,-17.7 475.16,-24.65"/>
</a>
</g>
</g>
</g>
</svg>
