<?xml version="1.0" encoding="UTF-8" standalone="no"?>
<!DOCTYPE svg PUBLIC "-//W3C//DTD SVG 1.1//EN"
 "http://www.w3.org/Graphics/SVG/1.1/DTD/svg11.dtd">
<!-- Generated by graphviz version 14.0.2 (20251019.1705)
 -->
<!-- Title: FOUR_Board::is_draw Pages: 1 -->
<svg width="404pt" height="28pt"
 viewBox="0.00 0.00 404.00 28.00" xmlns="http://www.w3.org/2000/svg" xmlns:xlink="http://www.w3.org/1999/xlink">
<g id="graph0" class="graph" transform="scale(1 1) rotate(0) translate(4 24)">
<title>FOUR_Board::is_draw</title>
<!-- Node1 -->
<g id="Node000001" class="node">
<title>Node1</title>
<g id="a_Node000001"><a xlink:title="Checks whether the game ended in a draw.">
<polygon fill="#999999" stroke="#666666" points="115,-20 0,-20 0,0 115,0 115,-20"/>
<text xml:space="preserve" text-anchor="middle" x="57.5" y="-6.5" font-family="Helvetica,sans-Serif" font-size="10.00">FOUR_Board::is_draw</text>
</a>
</g>
</g>
<!-- Node2 -->
<g id="Node000002" class="node">
<title>Node2</title>
<g id="a_Node000002"><a xlink:href="class_f_o_u_r___board.html#a3dac17aae77d0128b2a75fd002eed42b" target="_top" xlink:title="Checks whether the given player has won.">
<polygon fill="white" stroke="#666666" points="260,-20 151,-20 151,0 260,0 260,-20"/>
<text xml:space="preserve" text-anchor="middle" x="205.5" y="-6.5" font-family="Helvetica,sans-Serif" font-size="10.00">FOUR_Board::is_win</text>
</a>
</g>
</g>
<!-- Node1&#45;&gt;Node2 -->
<g id="edge1_Node000001_Node000002" class="edge">
<title>Node1&#45;&gt;Node2</title>
<g id="a_edge1_Node000001_Node000002"><a xlink:title=" ">
<path fill="none" stroke="#63b8ff" d="M115.37,-10C123.31,-10 131.52,-10 139.6,-10"/>
<polygon fill="#63b8ff" stroke="#63b8ff" points="139.38,-13.5 149.38,-10 139.38,-6.5 139.38,-13.5"/>
</a>
</g>
</g>
<!-- Node3 -->
<g id="Node000003" class="node">
<title>Node3</title>
<g id="a_Node000003"><a xlink:href="class_player.html#af56f0bf98c0423a3a75b0848607d03a4" target="_top" xlink:title="Get the player&#39;s symbol.">
<polygon fill="white" stroke="#666666" points="396,-20 296,-20 296,0 396,0 396,-20"/>
<text xml:space="preserve" text-anchor="middle" x="346" y="-6.5" font-family="Helvetica,sans-Serif" font-size="10.00">Player::get_symbol</text>
</a>
</g>
</g>
<!-- Node2&#45;&gt;Node3 -->
<g id="edge2_Node000002_Node000003" class="edge">
<title>Node2&#45;&gt;Node3</title>
<g id="a_edge2_Node000002_Node000003"><a xlink:title=" ">
<path fill="none" stroke="#63b8ff" d="M260.44,-10C268.39,-10 276.63,-10 284.7,-10"/>
<polygon fill="#63b8ff" stroke="#63b8ff" points="284.43,-13.5 294.43,-10 284.43,-6.5 284.43,-13.5"/>
</a>
</g>
</g>
</g>
</svg>
