<?xml version="1.0" encoding="UTF-8" standalone="no"?>
<!DOCTYPE svg PUBLIC "-//W3C//DTD SVG 1.1//EN"
 "http://www.w3.org/Graphics/SVG/1.1/DTD/svg11.dtd">
<!-- Generated by graphviz version 14.0.2 (20251019.1705)
 -->
<!-- Title: Large_XO_Board::is_draw Pages: 1 -->
<svg width="312pt" height="116pt"
 viewBox="0.00 0.00 312.00 116.00" xmlns="http://www.w3.org/2000/svg" xmlns:xlink="http://www.w3.org/1999/xlink">
<g id="graph0" class="graph" transform="scale(1 1) rotate(0) translate(4 112)">
<title>Large_XO_Board::is_draw</title>
<!-- Node1 -->
<g id="Node000001" class="node">
<title>Node1</title>
<g id="a_Node000001"><a xlink:title="Check if the game ended in a draw.">
<polygon fill="#999999" stroke="#666666" points="130,-64 0,-64 0,-44 130,-44 130,-64"/>
<text xml:space="preserve" text-anchor="middle" x="65" y="-50.5" font-family="Helvetica,sans-Serif" font-size="10.00">Large_XO_Board::is_draw</text>
</a>
</g>
</g>
<!-- Node2 -->
<g id="Node000002" class="node">
<title>Node2</title>
<g id="a_Node000002"><a xlink:href="class_large___x_o___board.html#a702183d127cd3db7920262aaf4d3106b" target="_top" xlink:title="Count all 3&#45;in&#45;a&#45;row patterns for a given symbol.">
<polygon fill="white" stroke="#666666" points="303.5,-108 166,-108 166,-88 303.5,-88 303.5,-108"/>
<text xml:space="preserve" text-anchor="middle" x="234.75" y="-94.5" font-family="Helvetica,sans-Serif" font-size="10.00">Large_XO_Board::countWin</text>
</a>
</g>
</g>
<!-- Node1&#45;&gt;Node2 -->
<g id="edge1_Node000001_Node000002" class="edge">
<title>Node1&#45;&gt;Node2</title>
<g id="a_edge1_Node000001_Node000002"><a xlink:title=" ">
<path fill="none" stroke="#63b8ff" d="M105.75,-64.43C128.86,-70.49 158.21,-78.19 182.97,-84.68"/>
<polygon fill="#63b8ff" stroke="#63b8ff" points="181.97,-88.04 192.53,-87.19 183.74,-81.26 181.97,-88.04"/>
</a>
</g>
</g>
<!-- Node3 -->
<g id="Node000003" class="node">
<title>Node3</title>
<g id="a_Node000003"><a xlink:href="class_large___x_o___board.html#ab0e7f4e0184eef658b5d8ebc303ffe09" target="_top" xlink:title="Check if the game is over (board full).">
<polygon fill="white" stroke="#666666" points="294.88,-70 174.62,-70 174.62,-38 294.88,-38 294.88,-70"/>
<text xml:space="preserve" text-anchor="start" x="182.62" y="-56.5" font-family="Helvetica,sans-Serif" font-size="10.00">Large_XO_Board::game</text>
<text xml:space="preserve" text-anchor="middle" x="234.75" y="-44.5" font-family="Helvetica,sans-Serif" font-size="10.00">_is_over</text>
</a>
</g>
</g>
<!-- Node1&#45;&gt;Node3 -->
<g id="edge2_Node000001_Node000003" class="edge">
<title>Node1&#45;&gt;Node3</title>
<g id="a_edge2_Node000001_Node000003"><a xlink:title=" ">
<path fill="none" stroke="#63b8ff" d="M130.38,-54C140.96,-54 151.99,-54 162.72,-54"/>
<polygon fill="#63b8ff" stroke="#63b8ff" points="162.71,-57.5 172.71,-54 162.71,-50.5 162.71,-57.5"/>
</a>
</g>
</g>
<!-- Node4 -->
<g id="Node000004" class="node">
<title>Node4</title>
<g id="a_Node000004"><a xlink:href="class_player.html#af56f0bf98c0423a3a75b0848607d03a4" target="_top" xlink:title="Get the player&#39;s symbol.">
<polygon fill="white" stroke="#666666" points="284.75,-20 184.75,-20 184.75,0 284.75,0 284.75,-20"/>
<text xml:space="preserve" text-anchor="middle" x="234.75" y="-6.5" font-family="Helvetica,sans-Serif" font-size="10.00">Player::get_symbol</text>
</a>
</g>
</g>
<!-- Node1&#45;&gt;Node4 -->
<g id="edge3_Node000001_Node000004" class="edge">
<title>Node1&#45;&gt;Node4</title>
<g id="a_edge3_Node000001_Node000004"><a xlink:title=" ">
<path fill="none" stroke="#63b8ff" d="M105.75,-43.57C128.86,-37.51 158.21,-29.81 182.97,-23.32"/>
<polygon fill="#63b8ff" stroke="#63b8ff" points="183.74,-26.74 192.53,-20.81 181.97,-19.96 183.74,-26.74"/>
</a>
</g>
</g>
</g>
</svg>
