<?xml version="1.0" encoding="UTF-8" standalone="no"?>
<!DOCTYPE svg PUBLIC "-//W3C//DTD SVG 1.1//EN"
 "http://www.w3.org/Graphics/SVG/1.1/DTD/svg11.dtd">
<!-- Generated by graphviz version 14.0.2 (20251019.1705)
 -->
<!-- Title: dia_XO_UI::get_move Pages: 1 -->
<svg width="414pt" height="142pt"
 viewBox="0.00 0.00 414.00 142.00" xmlns="http://www.w3.org/2000/svg" xmlns:xlink="http://www.w3.org/1999/xlink">
<g id="graph0" class="graph" transform="scale(1 1) rotate(0) translate(4 138)">
<title>dia_XO_UI::get_move</title>
<!-- Node1 -->
<g id="Node000001" class="node">
<title>Node1</title>
<g id="a_Node000001"><a xlink:title="Ask the user (or AI) to make a move.">
<polygon fill="#999999" stroke="#666666" points="112.75,-77 0,-77 0,-57 112.75,-57 112.75,-77"/>
<text xml:space="preserve" text-anchor="middle" x="56.38" y="-63.5" font-family="Helvetica,sans-Serif" font-size="10.00">dia_XO_UI::get_move</text>
</a>
</g>
</g>
<!-- Node2 -->
<g id="Node000002" class="node">
<title>Node2</title>
<g id="a_Node000002"><a xlink:href="$classdia___x_o___a_i.html#aac374ebe974ed55e608952762ad6d3ff" xlink:title="Determines the optimal move using minimax.">
<polygon fill="white" stroke="#666666" points="260.75,-134 148.75,-134 148.75,-114 260.75,-114 260.75,-134"/>
<text xml:space="preserve" text-anchor="middle" x="204.75" y="-120.5" font-family="Helvetica,sans-Serif" font-size="10.00">dia_XO_AI::bestMove</text>
</a>
</g>
</g>
<!-- Node1&#45;&gt;Node2 -->
<g id="edge1_Node000001_Node000002" class="edge">
<title>Node1&#45;&gt;Node2</title>
<g id="a_edge1_Node000001_Node000002"><a xlink:title=" ">
<path fill="none" stroke="#63b8ff" d="M84.22,-77.45C107.33,-86.45 140.91,-99.53 166.6,-109.53"/>
<polygon fill="#63b8ff" stroke="#63b8ff" points="165.07,-112.7 175.66,-113.06 167.61,-106.17 165.07,-112.7"/>
</a>
</g>
</g>
<!-- Node4 -->
<g id="Node000004" class="node">
<title>Node4</title>
<g id="a_Node000004"><a xlink:href="$class_player.html#af56f0bf98c0423a3a75b0848607d03a4" xlink:title="Get the player&#39;s symbol.">
<polygon fill="white" stroke="#666666" points="401.25,-96 301.25,-96 301.25,-76 401.25,-76 401.25,-96"/>
<text xml:space="preserve" text-anchor="middle" x="351.25" y="-82.5" font-family="Helvetica,sans-Serif" font-size="10.00">Player::get_symbol</text>
</a>
</g>
</g>
<!-- Node1&#45;&gt;Node4 -->
<g id="edge5_Node000001_Node000004" class="edge">
<title>Node1&#45;&gt;Node4</title>
<g id="a_edge5_Node000001_Node000004"><a xlink:title=" ">
<path fill="none" stroke="#63b8ff" d="M113.15,-70.62C163.61,-73.89 237.74,-78.7 289.64,-82.07"/>
<polygon fill="#63b8ff" stroke="#63b8ff" points="289.3,-85.55 299.5,-82.71 289.75,-78.57 289.3,-85.55"/>
</a>
</g>
</g>
<!-- Node5 -->
<g id="Node000005" class="node">
<title>Node5</title>
<g id="a_Node000005"><a xlink:href="$class_player.html#aed2af19790ba73190e3ebeea589518e1" xlink:title="Get the player&#39;s name.">
<polygon fill="white" stroke="#666666" points="251,-58 158.5,-58 158.5,-38 251,-38 251,-58"/>
<text xml:space="preserve" text-anchor="middle" x="204.75" y="-44.5" font-family="Helvetica,sans-Serif" font-size="10.00">Player::get_name</text>
</a>
</g>
</g>
<!-- Node1&#45;&gt;Node5 -->
<g id="edge4_Node000001_Node000005" class="edge">
<title>Node1&#45;&gt;Node5</title>
<g id="a_edge4_Node000001_Node000005"><a xlink:title=" ">
<path fill="none" stroke="#63b8ff" d="M113.13,-59.76C124.16,-58.33 135.76,-56.83 146.83,-55.39"/>
<polygon fill="#63b8ff" stroke="#63b8ff" points="147.16,-58.87 156.63,-54.12 146.26,-51.93 147.16,-58.87"/>
</a>
</g>
</g>
<!-- Node6 -->
<g id="Node000006" class="node">
<title>Node6</title>
<g id="a_Node000006"><a xlink:href="$class_player.html#a2df3bd299bf7aecfa2275ec6902a60f8" xlink:title="Get player type (e.g., &#39;H&#39; or &#39;C&#39;).">
<polygon fill="white" stroke="#666666" points="248.38,-20 161.12,-20 161.12,0 248.38,0 248.38,-20"/>
<text xml:space="preserve" text-anchor="middle" x="204.75" y="-6.5" font-family="Helvetica,sans-Serif" font-size="10.00">Player::get_type</text>
</a>
</g>
</g>
<!-- Node1&#45;&gt;Node6 -->
<g id="edge6_Node000001_Node000006" class="edge">
<title>Node1&#45;&gt;Node6</title>
<g id="a_edge6_Node000001_Node000006"><a xlink:title=" ">
<path fill="none" stroke="#63b8ff" d="M81.26,-56.59C99.6,-48.72 125.63,-37.79 148.75,-29 152.93,-27.41 157.31,-25.8 161.7,-24.23"/>
<polygon fill="#63b8ff" stroke="#63b8ff" points="162.81,-27.55 171.08,-20.92 160.48,-20.95 162.81,-27.55"/>
</a>
</g>
</g>
<!-- Node3 -->
<g id="Node000003" class="node">
<title>Node3</title>
<g id="a_Node000003"><a xlink:href="$class_player.html#a508617eddfae8915d098102d480fc888" xlink:title="Get a pointer to the game board.">
<polygon fill="white" stroke="#666666" points="405.75,-134 296.75,-134 296.75,-114 405.75,-114 405.75,-134"/>
<text xml:space="preserve" text-anchor="middle" x="351.25" y="-120.5" font-family="Helvetica,sans-Serif" font-size="10.00">Player::get_board_ptr</text>
</a>
</g>
</g>
<!-- Node2&#45;&gt;Node3 -->
<g id="edge2_Node000002_Node000003" class="edge">
<title>Node2&#45;&gt;Node3</title>
<g id="a_edge2_Node000002_Node000003"><a xlink:title=" ">
<path fill="none" stroke="#63b8ff" d="M261.2,-124C269.1,-124 277.28,-124 285.34,-124"/>
<polygon fill="#63b8ff" stroke="#63b8ff" points="285.1,-127.5 295.1,-124 285.1,-120.5 285.1,-127.5"/>
</a>
</g>
</g>
<!-- Node2&#45;&gt;Node4 -->
<g id="edge3_Node000002_Node000004" class="edge">
<title>Node2&#45;&gt;Node4</title>
<g id="a_edge3_Node000002_Node000004"><a xlink:title=" ">
<path fill="none" stroke="#63b8ff" d="M245.62,-113.52C262.28,-109.13 281.84,-103.99 299.51,-99.34"/>
<polygon fill="#63b8ff" stroke="#63b8ff" points="300.27,-102.76 309.05,-96.83 298.49,-95.99 300.27,-102.76"/>
</a>
</g>
</g>
</g>
</svg>
