<?xml version="1.0" encoding="UTF-8" standalone="no"?>
<!DOCTYPE svg PUBLIC "-//W3C//DTD SVG 1.1//EN"
 "http://www.w3.org/Graphics/SVG/1.1/DTD/svg11.dtd">
<!-- Generated by graphviz version 14.0.2 (20251019.1705)
 -->
<!-- Title: Obstacles_AI::bestMove Pages: 1 -->
<svg width="342pt" height="104pt"
 viewBox="0.00 0.00 342.00 104.00" xmlns="http://www.w3.org/2000/svg" xmlns:xlink="http://www.w3.org/1999/xlink">
<g id="graph0" class="graph" transform="scale(1 1) rotate(0) translate(4 100)">
<title>Obstacles_AI::bestMove</title>
<!-- Node1 -->
<g id="Node000001" class="node">
<title>Node1</title>
<g id="a_Node000001"><a xlink:title="Computes the best move for the player.">
<polygon fill="#999999" stroke="#666666" points="124,-58 0,-58 0,-38 124,-38 124,-58"/>
<text xml:space="preserve" text-anchor="middle" x="62" y="-44.5" font-family="Helvetica,sans-Serif" font-size="10.00">Obstacles_AI::bestMove</text>
</a>
</g>
</g>
<!-- Node2 -->
<g id="Node000002" class="node">
<title>Node2</title>
<g id="a_Node000002"><a xlink:href="class_player.html#a508617eddfae8915d098102d480fc888" target="_top" xlink:title="Get a pointer to the game board.">
<polygon fill="white" stroke="#666666" points="301.62,-96 192.62,-96 192.62,-76 301.62,-76 301.62,-96"/>
<text xml:space="preserve" text-anchor="middle" x="247.12" y="-82.5" font-family="Helvetica,sans-Serif" font-size="10.00">Player::get_board_ptr</text>
</a>
</g>
</g>
<!-- Node1&#45;&gt;Node2 -->
<g id="edge1_Node000001_Node000002" class="edge">
<title>Node1&#45;&gt;Node2</title>
<g id="a_edge1_Node000001_Node000002"><a xlink:title=" ">
<path fill="none" stroke="#63b8ff" d="M113.52,-58.48C135.54,-63.05 161.55,-68.45 184.67,-73.25"/>
<polygon fill="#63b8ff" stroke="#63b8ff" points="183.78,-76.64 194.28,-75.24 185.2,-69.78 183.78,-76.64"/>
</a>
</g>
</g>
<!-- Node3 -->
<g id="Node000003" class="node">
<title>Node3</title>
<g id="a_Node000003"><a xlink:href="class_player.html#af56f0bf98c0423a3a75b0848607d03a4" target="_top" xlink:title="Get the player&#39;s symbol.">
<polygon fill="white" stroke="#666666" points="297.12,-58 197.12,-58 197.12,-38 297.12,-38 297.12,-58"/>
<text xml:space="preserve" text-anchor="middle" x="247.12" y="-44.5" font-family="Helvetica,sans-Serif" font-size="10.00">Player::get_symbol</text>
</a>
</g>
</g>
<!-- Node1&#45;&gt;Node3 -->
<g id="edge2_Node000001_Node000003" class="edge">
<title>Node1&#45;&gt;Node3</title>
<g id="a_edge2_Node000001_Node000003"><a xlink:title=" ">
<path fill="none" stroke="#63b8ff" d="M124.49,-48C144.12,-48 165.82,-48 185.4,-48"/>
<polygon fill="#63b8ff" stroke="#63b8ff" points="185.13,-51.5 195.13,-48 185.13,-44.5 185.13,-51.5"/>
</a>
</g>
</g>
<!-- Node4 -->
<g id="Node000004" class="node">
<title>Node4</title>
<g id="a_Node000004"><a xlink:href="class_obstacles___board.html#adb1a8948e269860fabdae535c6418972" target="_top" xlink:title="Get all available moves.">
<polygon fill="white" stroke="#666666" points="334.25,-20 160,-20 160,0 334.25,0 334.25,-20"/>
<text xml:space="preserve" text-anchor="middle" x="247.12" y="-6.5" font-family="Helvetica,sans-Serif" font-size="10.00">Obstacles_Board::getAvailableMove</text>
</a>
</g>
</g>
<!-- Node1&#45;&gt;Node4 -->
<g id="edge3_Node000001_Node000004" class="edge">
<title>Node1&#45;&gt;Node4</title>
<g id="a_edge3_Node000001_Node000004"><a xlink:title=" ">
<path fill="none" stroke="#63b8ff" d="M113.52,-37.52C135.54,-32.95 161.55,-27.55 184.67,-22.75"/>
<polygon fill="#63b8ff" stroke="#63b8ff" points="185.2,-26.22 194.28,-20.76 183.78,-19.36 185.2,-26.22"/>
</a>
</g>
</g>
</g>
</svg>
