<?xml version="1.0" encoding="UTF-8" standalone="no"?>
<!DOCTYPE svg PUBLIC "-//W3C//DTD SVG 1.1//EN"
 "http://www.w3.org/Graphics/SVG/1.1/DTD/svg11.dtd">
<!-- Generated by graphviz version 14.0.2 (20251019.1705)
 -->
<!-- Title: Large_XO_AI::minimax Pages: 1 -->
<svg width="415pt" height="104pt"
 viewBox="0.00 0.00 415.00 104.00" xmlns="http://www.w3.org/2000/svg" xmlns:xlink="http://www.w3.org/1999/xlink">
<g id="graph0" class="graph" transform="scale(1 1) rotate(0) translate(4 100)">
<title>Large_XO_AI::minimax</title>
<!-- Node1 -->
<g id="Node000001" class="node">
<title>Node1</title>
<g id="a_Node000001"><a xlink:title="Minimax algorithm with alpha&#45;beta pruning.">
<polygon fill="#999999" stroke="#666666" points="117.25,-58 0,-58 0,-38 117.25,-38 117.25,-58"/>
<text xml:space="preserve" text-anchor="middle" x="58.62" y="-44.5" font-family="Helvetica,sans-Serif" font-size="10.00">Large_XO_AI::minimax</text>
</a>
</g>
</g>
<!-- Node1&#45;&gt;Node1 -->
<g id="edge5_Node000001_Node000001" class="edge">
<title>Node1&#45;&gt;Node1</title>
<g id="a_edge5_Node000001_Node000001"><a xlink:title=" ">
<path fill="none" stroke="#63b8ff" d="M34.28,-58.34C23.87,-66.98 31.99,-76 58.62,-76 73.19,-76 82.22,-73.3 85.71,-69.44"/>
<polygon fill="#63b8ff" stroke="#63b8ff" points="89.13,-68.68 83.34,-59.81 82.33,-70.36 89.13,-68.68"/>
</a>
</g>
</g>
<!-- Node2 -->
<g id="Node000002" class="node">
<title>Node2</title>
<g id="a_Node000002"><a xlink:href="class_large___x_o___a_i.html#a7369a7db6ac018c0480009ed8cec6d1b" target="_top" xlink:title="Evaluate a board using neural network + terminal heuristics.">
<polygon fill="white" stroke="#666666" points="270.5,-96 153.25,-96 153.25,-76 270.5,-76 270.5,-96"/>
<text xml:space="preserve" text-anchor="middle" x="211.88" y="-82.5" font-family="Helvetica,sans-Serif" font-size="10.00">Large_XO_AI::evaluate</text>
</a>
</g>
</g>
<!-- Node1&#45;&gt;Node2 -->
<g id="edge1_Node000001_Node000002" class="edge">
<title>Node1&#45;&gt;Node2</title>
<g id="a_edge1_Node000001_Node000002"><a xlink:title=" ">
<path fill="none" stroke="#63b8ff" d="M101.36,-58.48C118.96,-62.91 139.66,-68.11 158.29,-72.79"/>
<polygon fill="#63b8ff" stroke="#63b8ff" points="157.26,-76.14 167.81,-75.18 158.97,-69.35 157.26,-76.14"/>
</a>
</g>
</g>
<!-- Node3 -->
<g id="Node000003" class="node">
<title>Node3</title>
<g id="a_Node000003"><a xlink:href="class_player.html#af56f0bf98c0423a3a75b0848607d03a4" target="_top" xlink:title="Get the player&#39;s symbol.">
<polygon fill="white" stroke="#666666" points="406.5,-77 306.5,-77 306.5,-57 406.5,-57 406.5,-77"/>
<text xml:space="preserve" text-anchor="middle" x="356.5" y="-63.5" font-family="Helvetica,sans-Serif" font-size="10.00">Player::get_symbol</text>
</a>
</g>
</g>
<!-- Node1&#45;&gt;Node3 -->
<g id="edge4_Node000001_Node000003" class="edge">
<title>Node1&#45;&gt;Node3</title>
<g id="a_edge4_Node000001_Node000003"><a xlink:title=" ">
<path fill="none" stroke="#63b8ff" d="M117.73,-51.73C168.89,-55.02 243.12,-59.78 294.99,-63.11"/>
<polygon fill="#63b8ff" stroke="#63b8ff" points="294.64,-66.6 304.85,-63.75 295.09,-59.61 294.64,-66.6"/>
</a>
</g>
</g>
<!-- Node4 -->
<g id="Node000004" class="node">
<title>Node4</title>
<g id="a_Node000004"><a xlink:href="class_player.html#a508617eddfae8915d098102d480fc888" target="_top" xlink:title="Get a pointer to the game board.">
<polygon fill="white" stroke="#666666" points="266.38,-20 157.38,-20 157.38,0 266.38,0 266.38,-20"/>
<text xml:space="preserve" text-anchor="middle" x="211.88" y="-6.5" font-family="Helvetica,sans-Serif" font-size="10.00">Player::get_board_ptr</text>
</a>
</g>
</g>
<!-- Node1&#45;&gt;Node4 -->
<g id="edge3_Node000001_Node000004" class="edge">
<title>Node1&#45;&gt;Node4</title>
<g id="a_edge3_Node000001_Node000004"><a xlink:title=" ">
<path fill="none" stroke="#63b8ff" d="M101.36,-37.52C118.96,-33.09 139.66,-27.89 158.29,-23.21"/>
<polygon fill="#63b8ff" stroke="#63b8ff" points="158.97,-26.65 167.81,-20.82 157.26,-19.86 158.97,-26.65"/>
</a>
</g>
</g>
<!-- Node2&#45;&gt;Node3 -->
<g id="edge2_Node000002_Node000003" class="edge">
<title>Node2&#45;&gt;Node3</title>
<g id="a_edge2_Node000002_Node000003"><a xlink:title=" ">
<path fill="none" stroke="#63b8ff" d="M270.89,-78.27C278.85,-77.21 287.05,-76.12 295.06,-75.05"/>
<polygon fill="#63b8ff" stroke="#63b8ff" points="295.27,-78.56 304.72,-73.77 294.34,-71.62 295.27,-78.56"/>
</a>
</g>
</g>
</g>
</svg>
