<?xml version="1.0" encoding="UTF-8" standalone="no"?>
<!DOCTYPE svg PUBLIC "-//W3C//DTD SVG 1.1//EN"
 "http://www.w3.org/Graphics/SVG/1.1/DTD/svg11.dtd">
<!-- Generated by graphviz version 14.0.2 (20251019.1705)
 -->
<!-- Title: Four_AI::evaluate Pages: 1 -->
<svg width="511pt" height="46pt"
 viewBox="0.00 0.00 511.00 46.00" xmlns="http://www.w3.org/2000/svg" xmlns:xlink="http://www.w3.org/1999/xlink">
<g id="graph0" class="graph" transform="scale(1 1) rotate(0) translate(4 42)">
<title>Four_AI::evaluate</title>
<!-- Node1 -->
<g id="Node000001" class="node">
<title>Node1</title>
<g id="a_Node000001"><a xlink:title="Evaluates the current board state from AI perspective.">
<polygon fill="#999999" stroke="#666666" points="502.75,-20 409.5,-20 409.5,0 502.75,0 502.75,-20"/>
<text xml:space="preserve" text-anchor="middle" x="456.12" y="-6.5" font-family="Helvetica,sans-Serif" font-size="10.00">Four_AI::evaluate</text>
</a>
</g>
</g>
<!-- Node2 -->
<g id="Node000002" class="node">
<title>Node2</title>
<g id="a_Node000002"><a xlink:href="class_four___a_i.html#a2be9e32c580e8aa22c530ab4c9920317" target="_top" xlink:title="Minimax algorithm with alpha&#45;beta pruning.">
<polygon fill="white" stroke="#666666" points="373.5,-20 280.25,-20 280.25,0 373.5,0 373.5,-20"/>
<text xml:space="preserve" text-anchor="middle" x="326.88" y="-6.5" font-family="Helvetica,sans-Serif" font-size="10.00">Four_AI::minimax</text>
</a>
</g>
</g>
<!-- Node1&#45;&gt;Node2 -->
<g id="edge1_Node000001_Node000002" class="edge">
<title>Node1&#45;&gt;Node2</title>
<g id="a_edge1_Node000001_Node000002"><a xlink:title=" ">
<path fill="none" stroke="#63b8ff" d="M397.9,-10C389.81,-10 381.58,-10 373.75,-10"/>
<polygon fill="#63b8ff" stroke="#63b8ff" points="397.67,-13.5 407.67,-10 397.67,-6.5 397.67,-13.5"/>
</a>
</g>
</g>
<!-- Node2&#45;&gt;Node2 -->
<g id="edge4_Node000002_Node000002" class="edge">
<title>Node2&#45;&gt;Node2</title>
<g id="a_edge4_Node000002_Node000002"><a xlink:title=" ">
<path fill="none" stroke="#63b8ff" d="M349.72,-31.44C346.78,-35.3 339.16,-38 326.88,-38 304.41,-38 297.56,-28.98 306.34,-20.34"/>
<polygon fill="#63b8ff" stroke="#63b8ff" points="353.18,-30.9 347.72,-21.82 346.33,-32.32 353.18,-30.9"/>
</a>
</g>
</g>
<!-- Node3 -->
<g id="Node000003" class="node">
<title>Node3</title>
<g id="a_Node000003"><a xlink:href="class_four___a_i.html#a12661d165899365f9a5031ec04814e44" target="_top" xlink:title="Computes the best possible move for the AI.">
<polygon fill="white" stroke="#666666" points="244.25,-20 145,-20 145,0 244.25,0 244.25,-20"/>
<text xml:space="preserve" text-anchor="middle" x="194.62" y="-6.5" font-family="Helvetica,sans-Serif" font-size="10.00">Four_AI::bestMove</text>
</a>
</g>
</g>
<!-- Node2&#45;&gt;Node3 -->
<g id="edge2_Node000002_Node000003" class="edge">
<title>Node2&#45;&gt;Node3</title>
<g id="a_edge2_Node000002_Node000003"><a xlink:title=" ">
<path fill="none" stroke="#63b8ff" d="M268.48,-10C260.54,-10 252.44,-10 244.67,-10"/>
<polygon fill="#63b8ff" stroke="#63b8ff" points="268.44,-13.5 278.44,-10 268.44,-6.5 268.44,-13.5"/>
</a>
</g>
</g>
<!-- Node4 -->
<g id="Node000004" class="node">
<title>Node4</title>
<g id="a_Node000004"><a xlink:href="class_f_o_u_r___u_i.html#a5b8d7e6afd5b983620fd00bf954564d7" target="_top" xlink:title="Obtains the next move from a human, computer, or AI player.">
<polygon fill="white" stroke="#666666" points="109,-20 0,-20 0,0 109,0 109,-20"/>
<text xml:space="preserve" text-anchor="middle" x="54.5" y="-6.5" font-family="Helvetica,sans-Serif" font-size="10.00">FOUR_UI::get_move</text>
</a>
</g>
</g>
<!-- Node3&#45;&gt;Node4 -->
<g id="edge3_Node000003_Node000004" class="edge">
<title>Node3&#45;&gt;Node4</title>
<g id="a_edge3_Node000003_Node000004"><a xlink:title=" ">
<path fill="none" stroke="#63b8ff" d="M133.03,-10C125.07,-10 116.95,-10 109.12,-10"/>
<polygon fill="#63b8ff" stroke="#63b8ff" points="133.02,-13.5 143.02,-10 133.02,-6.5 133.02,-13.5"/>
</a>
</g>
</g>
</g>
</svg>
