<?xml version="1.0" encoding="UTF-8" standalone="no"?>
<!DOCTYPE svg PUBLIC "-//W3C//DTD SVG 1.1//EN"
 "http://www.w3.org/Graphics/SVG/1.1/DTD/svg11.dtd">
<!-- Generated by graphviz version 14.0.2 (20251019.1705)
 -->
<!-- Title: Anti_XO_UI Pages: 1 -->
<svg width="135pt" height="492pt"
 viewBox="0.00 0.00 135.00 492.00" xmlns="http://www.w3.org/2000/svg" xmlns:xlink="http://www.w3.org/1999/xlink">
<g id="graph0" class="graph" transform="scale(1 1) rotate(0) translate(4 488)">
<title>Anti_XO_UI</title>
<!-- Node1 -->
<g id="Node000001" class="node">
<title>Node1</title>
<g id="a_Node000001"><a xlink:title="User interface handler for Anti&#45;XO.">
<polygon fill="#999999" stroke="none" points="104.62,-100 22.12,-100 22.12,0 104.62,0 104.62,-100"/>
<text xml:space="preserve" text-anchor="start" x="37.12" y="-86.5" font-family="Helvetica,sans-Serif" font-size="10.00">Anti_XO_UI</text>
<text xml:space="preserve" text-anchor="start" x="61.88" y="-70.5" font-family="Helvetica,sans-Serif" font-size="10.00"> </text>
<text xml:space="preserve" text-anchor="start" x="26.12" y="-54.5" font-family="Helvetica,sans-Serif" font-size="10.00">+</text>
<text xml:space="preserve" text-anchor="start" x="36.12" y="-54.5" font-family="Helvetica,sans-Serif" font-size="10.00">Anti_XO_UI()</text>
<text xml:space="preserve" text-anchor="start" x="26.12" y="-38.5" font-family="Helvetica,sans-Serif" font-size="10.00">+</text>
<text xml:space="preserve" text-anchor="start" x="36.12" y="-38.5" font-family="Helvetica,sans-Serif" font-size="10.00">~Anti_XO_UI()</text>
<text xml:space="preserve" text-anchor="start" x="26.12" y="-22.5" font-family="Helvetica,sans-Serif" font-size="10.00">+</text>
<text xml:space="preserve" text-anchor="start" x="36.12" y="-22.5" font-family="Helvetica,sans-Serif" font-size="10.00">create_player()</text>
<text xml:space="preserve" text-anchor="start" x="26.12" y="-6.5" font-family="Helvetica,sans-Serif" font-size="10.00">+</text>
<text xml:space="preserve" text-anchor="start" x="36.12" y="-6.5" font-family="Helvetica,sans-Serif" font-size="10.00">get_move()</text>
<polygon fill="#666666" stroke="#666666" points="22.12,-82 22.12,-82 104.62,-82 104.62,-82 22.12,-82"/>
<polygon fill="#666666" stroke="#666666" points="22.12,-66 22.12,-66 104.62,-66 104.62,-66 22.12,-66"/>
<polygon fill="none" stroke="#666666" points="22.12,0 22.12,-100 104.62,-100 104.62,0 22.12,0"/>
</a>
</g>
</g>
<!-- Node2 -->
<g id="Node000002" class="node">
<title>Node2</title>
<g id="a_Node000002"><a xlink:href="$class_custom___u_i.html" xlink:title=" ">
<polygon fill="white" stroke="none" points="126.75,-268 0,-268 0,-136 126.75,-136 126.75,-268"/>
<text xml:space="preserve" text-anchor="start" x="19.88" y="-254.5" font-family="Helvetica,sans-Serif" font-size="10.00">Custom_UI&lt; char &gt;</text>
<text xml:space="preserve" text-anchor="start" x="61.88" y="-238.5" font-family="Helvetica,sans-Serif" font-size="10.00"> </text>
<text xml:space="preserve" text-anchor="start" x="4" y="-222.5" font-family="Helvetica,sans-Serif" font-size="10.00">+</text>
<text xml:space="preserve" text-anchor="start" x="14" y="-222.5" font-family="Helvetica,sans-Serif" font-size="10.00">Custom_UI()</text>
<text xml:space="preserve" text-anchor="start" x="4" y="-206.5" font-family="Helvetica,sans-Serif" font-size="10.00">+</text>
<text xml:space="preserve" text-anchor="start" x="14" y="-206.5" font-family="Helvetica,sans-Serif" font-size="10.00">display_message()</text>
<text xml:space="preserve" text-anchor="start" x="4" y="-190.5" font-family="Helvetica,sans-Serif" font-size="10.00">+</text>
<text xml:space="preserve" text-anchor="start" x="14" y="-190.5" font-family="Helvetica,sans-Serif" font-size="10.00">create_player()</text>
<text xml:space="preserve" text-anchor="start" x="4" y="-174.5" font-family="Helvetica,sans-Serif" font-size="10.00">+</text>
<text xml:space="preserve" text-anchor="start" x="14" y="-174.5" font-family="Helvetica,sans-Serif" font-size="10.00">setup_players()</text>
<text xml:space="preserve" text-anchor="start" x="4" y="-158.5" font-family="Helvetica,sans-Serif" font-size="10.00">+</text>
<text xml:space="preserve" text-anchor="start" x="14" y="-158.5" font-family="Helvetica,sans-Serif" font-size="10.00">display_board_matrix()</text>
<text xml:space="preserve" text-anchor="start" x="4.38" y="-142.5" font-family="Helvetica,sans-Serif" font-size="10.00">#</text>
<text xml:space="preserve" text-anchor="start" x="14" y="-142.5" font-family="Helvetica,sans-Serif" font-size="10.00">get_player_type_choice()</text>
<polygon fill="#666666" stroke="#666666" points="0,-250 0,-250 126.75,-250 126.75,-250 0,-250"/>
<polygon fill="#666666" stroke="#666666" points="0,-234 0,-234 126.75,-234 126.75,-234 0,-234"/>
<polygon fill="none" stroke="#666666" points="0,-136 0,-268 126.75,-268 126.75,-136 0,-136"/>
</a>
</g>
</g>
<!-- Node2&#45;&gt;Node1 -->
<g id="edge1_Node000001_Node000002" class="edge">
<title>Node2&#45;&gt;Node1</title>
<g id="a_edge1_Node000001_Node000002"><a xlink:title=" ">
<path fill="none" stroke="#63b8ff" d="M63.38,-124.58C63.38,-116.13 63.38,-107.71 63.38,-99.73"/>
<polygon fill="none" stroke="#63b8ff" points="59.88,-124.57 63.38,-134.57 66.88,-124.57 59.88,-124.57"/>
</a>
</g>
</g>
<!-- Node3 -->
<g id="Node000003" class="node">
<title>Node3</title>
<g id="a_Node000003"><a xlink:href="$class_u_i.html" xlink:title=" ">
<polygon fill="white" stroke="none" points="126.75,-484 0,-484 0,-304 126.75,-304 126.75,-484"/>
<text xml:space="preserve" text-anchor="start" x="39.75" y="-470.5" font-family="Helvetica,sans-Serif" font-size="10.00">UI&lt; char &gt;</text>
<text xml:space="preserve" text-anchor="start" x="4.38" y="-454.5" font-family="Helvetica,sans-Serif" font-size="10.00">#</text>
<text xml:space="preserve" text-anchor="start" x="14" y="-454.5" font-family="Helvetica,sans-Serif" font-size="10.00">cell_width</text>
<text xml:space="preserve" text-anchor="start" x="4" y="-438.5" font-family="Helvetica,sans-Serif" font-size="10.00">+</text>
<text xml:space="preserve" text-anchor="start" x="14" y="-438.5" font-family="Helvetica,sans-Serif" font-size="10.00">UI()</text>
<text xml:space="preserve" text-anchor="start" x="4" y="-422.5" font-family="Helvetica,sans-Serif" font-size="10.00">+</text>
<text xml:space="preserve" text-anchor="start" x="14" y="-422.5" font-family="Helvetica,sans-Serif" font-size="10.00">~UI()</text>
<text xml:space="preserve" text-anchor="start" x="4" y="-406.5" font-family="Helvetica,sans-Serif" font-size="10.00">+</text>
<text xml:space="preserve" text-anchor="start" x="14" y="-406.5" font-family="Helvetica,sans-Serif" font-size="10.00">display_message()</text>
<text xml:space="preserve" text-anchor="start" x="4" y="-390.5" font-family="Helvetica,sans-Serif" font-size="10.00">+</text>
<text xml:space="preserve" text-anchor="start" x="14" y="-390.5" font-family="Helvetica,sans-Serif" font-size="10.00">get_move()</text>
<text xml:space="preserve" text-anchor="start" x="4" y="-374.5" font-family="Helvetica,sans-Serif" font-size="10.00">+</text>
<text xml:space="preserve" text-anchor="start" x="14" y="-374.5" font-family="Helvetica,sans-Serif" font-size="10.00">setup_players()</text>
<text xml:space="preserve" text-anchor="start" x="4" y="-358.5" font-family="Helvetica,sans-Serif" font-size="10.00">+</text>
<text xml:space="preserve" text-anchor="start" x="14" y="-358.5" font-family="Helvetica,sans-Serif" font-size="10.00">create_player()</text>
<text xml:space="preserve" text-anchor="start" x="4" y="-342.5" font-family="Helvetica,sans-Serif" font-size="10.00">+</text>
<text xml:space="preserve" text-anchor="start" x="14" y="-342.5" font-family="Helvetica,sans-Serif" font-size="10.00">display_board_matrix()</text>
<text xml:space="preserve" text-anchor="start" x="4.38" y="-326.5" font-family="Helvetica,sans-Serif" font-size="10.00">#</text>
<text xml:space="preserve" text-anchor="start" x="14" y="-326.5" font-family="Helvetica,sans-Serif" font-size="10.00">get_player_name()</text>
<text xml:space="preserve" text-anchor="start" x="4.38" y="-310.5" font-family="Helvetica,sans-Serif" font-size="10.00">#</text>
<text xml:space="preserve" text-anchor="start" x="14" y="-310.5" font-family="Helvetica,sans-Serif" font-size="10.00">get_player_type_choice()</text>
<polygon fill="#666666" stroke="#666666" points="0,-466 0,-466 126.75,-466 126.75,-466 0,-466"/>
<polygon fill="#666666" stroke="#666666" points="0,-450 0,-450 12,-450 12,-450 0,-450"/>
<polygon fill="#666666" stroke="#666666" points="12,-450 12,-450 126.75,-450 126.75,-450 12,-450"/>
<polygon fill="none" stroke="#666666" points="0,-304 0,-484 126.75,-484 126.75,-304 0,-304"/>
</a>
</g>
</g>
<!-- Node3&#45;&gt;Node2 -->
<g id="edge2_Node000002_Node000003" class="edge">
<title>Node3&#45;&gt;Node2</title>
<g id="a_edge2_Node000002_Node000003"><a xlink:title=" ">
<path fill="none" stroke="#63b8ff" d="M63.38,-292.89C63.38,-284.36 63.38,-275.88 63.38,-267.73"/>
<polygon fill="none" stroke="#63b8ff" points="59.88,-292.61 63.38,-302.61 66.88,-292.61 59.88,-292.61"/>
</a>
</g>
</g>
</g>
</svg>
