<?xml version="1.0" encoding="UTF-8" standalone="no"?>
<!DOCTYPE svg PUBLIC "-//W3C//DTD SVG 1.1//EN"
 "http://www.w3.org/Graphics/SVG/1.1/DTD/svg11.dtd">
<!-- Generated by graphviz version 14.0.2 (20251019.1705)
 -->
<!-- Title: Obstacles_Board::is_draw Pages: 1 -->
<svg width="439pt" height="66pt"
 viewBox="0.00 0.00 439.00 66.00" xmlns="http://www.w3.org/2000/svg" xmlns:xlink="http://www.w3.org/1999/xlink">
<g id="graph0" class="graph" transform="scale(1 1) rotate(0) translate(4 62)">
<title>Obstacles_Board::is_draw</title>
<!-- Node1 -->
<g id="Node000001" class="node">
<title>Node1</title>
<g id="a_Node000001"><a xlink:title="Checks for draw condition (board full and no winner).">
<polygon fill="#999999" stroke="#666666" points="130.75,-39 0,-39 0,-19 130.75,-19 130.75,-39"/>
<text xml:space="preserve" text-anchor="middle" x="65.38" y="-25.5" font-family="Helvetica,sans-Serif" font-size="10.00">Obstacles_Board::is_draw</text>
</a>
</g>
</g>
<!-- Node2 -->
<g id="Node000002" class="node">
<title>Node2</title>
<g id="a_Node000002"><a xlink:href="$class_obstacles___board.html#a8cfc2aeca16df3eed8c6fa739a7c1a4d" xlink:title="Checks if the given player has lost (opponent has 4&#45;in&#45;a&#45;row).">
<polygon fill="white" stroke="#666666" points="294.5,-58 166.75,-58 166.75,-38 294.5,-38 294.5,-58"/>
<text xml:space="preserve" text-anchor="middle" x="230.62" y="-44.5" font-family="Helvetica,sans-Serif" font-size="10.00">Obstacles_Board::is_lose</text>
</a>
</g>
</g>
<!-- Node1&#45;&gt;Node2 -->
<g id="edge1_Node000001_Node000002" class="edge">
<title>Node1&#45;&gt;Node2</title>
<g id="a_edge1_Node000001_Node000002"><a xlink:title=" ">
<path fill="none" stroke="#63b8ff" d="M130.9,-36.51C138.83,-37.43 146.99,-38.38 155.06,-39.32"/>
<polygon fill="#63b8ff" stroke="#63b8ff" points="154.53,-42.78 164.87,-40.46 155.34,-35.83 154.53,-42.78"/>
</a>
</g>
</g>
<!-- Node4 -->
<g id="Node000004" class="node">
<title>Node4</title>
<g id="a_Node000004"><a xlink:href="$class_obstacles___board.html#aac85c909cd7d0e59c4ba2dea35789c26" xlink:title="Checks if the given player has a winning configuration.">
<polygon fill="white" stroke="#666666" points="293,-20 168.25,-20 168.25,0 293,0 293,-20"/>
<text xml:space="preserve" text-anchor="middle" x="230.62" y="-6.5" font-family="Helvetica,sans-Serif" font-size="10.00">Obstacles_Board::is_win</text>
</a>
</g>
</g>
<!-- Node1&#45;&gt;Node4 -->
<g id="edge3_Node000001_Node000004" class="edge">
<title>Node1&#45;&gt;Node4</title>
<g id="a_edge3_Node000001_Node000004"><a xlink:title=" ">
<path fill="none" stroke="#63b8ff" d="M130.9,-21.49C139.39,-20.5 148.13,-19.48 156.75,-18.48"/>
<polygon fill="#63b8ff" stroke="#63b8ff" points="156.94,-21.98 166.47,-17.35 156.13,-15.03 156.94,-21.98"/>
</a>
</g>
</g>
<!-- Node3 -->
<g id="Node000003" class="node">
<title>Node3</title>
<g id="a_Node000003"><a xlink:href="$class_player.html#af56f0bf98c0423a3a75b0848607d03a4" xlink:title="Get the player&#39;s symbol.">
<polygon fill="white" stroke="#666666" points="430.5,-39 330.5,-39 330.5,-19 430.5,-19 430.5,-39"/>
<text xml:space="preserve" text-anchor="middle" x="380.5" y="-25.5" font-family="Helvetica,sans-Serif" font-size="10.00">Player::get_symbol</text>
</a>
</g>
</g>
<!-- Node2&#45;&gt;Node3 -->
<g id="edge2_Node000002_Node000003" class="edge">
<title>Node2&#45;&gt;Node3</title>
<g id="a_edge2_Node000002_Node000003"><a xlink:title=" ">
<path fill="none" stroke="#63b8ff" d="M294.77,-39.89C302.88,-38.85 311.16,-37.78 319.23,-36.74"/>
<polygon fill="#63b8ff" stroke="#63b8ff" points="319.46,-40.24 328.93,-35.5 318.57,-33.3 319.46,-40.24"/>
</a>
</g>
</g>
<!-- Node4&#45;&gt;Node3 -->
<g id="edge4_Node000004_Node000003" class="edge">
<title>Node4&#45;&gt;Node3</title>
<g id="a_edge4_Node000004_Node000003"><a xlink:title=" ">
<path fill="none" stroke="#63b8ff" d="M293.48,-17.95C301.86,-19.02 310.45,-20.13 318.81,-21.2"/>
<polygon fill="#63b8ff" stroke="#63b8ff" points="318.16,-24.65 328.52,-22.45 319.05,-17.7 318.16,-24.65"/>
</a>
</g>
</g>
</g>
</svg>
