<?xml version="1.0" encoding="UTF-8" standalone="no"?>
<!DOCTYPE svg PUBLIC "-//W3C//DTD SVG 1.1//EN"
 "http://www.w3.org/Graphics/SVG/1.1/DTD/svg11.dtd">
<!-- Generated by graphviz version 14.0.2 (20251019.1705)
 -->
<!-- Title: PyramidXO_Board Pages: 1 -->
<svg width="113pt" height="436pt"
 viewBox="0.00 0.00 113.00 436.00" xmlns="http://www.w3.org/2000/svg" xmlns:xlink="http://www.w3.org/1999/xlink">
<g id="graph0" class="graph" transform="scale(1 1) rotate(0) translate(4 432)">
<title>PyramidXO_Board</title>
<!-- Node1 -->
<g id="Node000001" class="node">
<title>Node1</title>
<g id="a_Node000001"><a xlink:title="Represents the game board for the Pyramid XO variant.">
<polygon fill="#999999" stroke="none" points="105,-132 0,-132 0,0 105,0 105,-132"/>
<text xml:space="preserve" text-anchor="start" x="12" y="-118.5" font-family="Helvetica,sans-Serif" font-size="10.00">PyramidXO_Board</text>
<text xml:space="preserve" text-anchor="start" x="51" y="-102.5" font-family="Helvetica,sans-Serif" font-size="10.00"> </text>
<text xml:space="preserve" text-anchor="start" x="4" y="-86.5" font-family="Helvetica,sans-Serif" font-size="10.00">+</text>
<text xml:space="preserve" text-anchor="start" x="14" y="-86.5" font-family="Helvetica,sans-Serif" font-size="10.00">PyramidXO_Board()</text>
<text xml:space="preserve" text-anchor="start" x="4" y="-70.5" font-family="Helvetica,sans-Serif" font-size="10.00">+</text>
<text xml:space="preserve" text-anchor="start" x="14" y="-70.5" font-family="Helvetica,sans-Serif" font-size="10.00">update_board()</text>
<text xml:space="preserve" text-anchor="start" x="4" y="-54.5" font-family="Helvetica,sans-Serif" font-size="10.00">+</text>
<text xml:space="preserve" text-anchor="start" x="14" y="-54.5" font-family="Helvetica,sans-Serif" font-size="10.00">is_lose()</text>
<text xml:space="preserve" text-anchor="start" x="4" y="-38.5" font-family="Helvetica,sans-Serif" font-size="10.00">+</text>
<text xml:space="preserve" text-anchor="start" x="14" y="-38.5" font-family="Helvetica,sans-Serif" font-size="10.00">is_win()</text>
<text xml:space="preserve" text-anchor="start" x="4" y="-22.5" font-family="Helvetica,sans-Serif" font-size="10.00">+</text>
<text xml:space="preserve" text-anchor="start" x="14" y="-22.5" font-family="Helvetica,sans-Serif" font-size="10.00">is_draw()</text>
<text xml:space="preserve" text-anchor="start" x="4" y="-6.5" font-family="Helvetica,sans-Serif" font-size="10.00">+</text>
<text xml:space="preserve" text-anchor="start" x="14" y="-6.5" font-family="Helvetica,sans-Serif" font-size="10.00">game_is_over()</text>
<polygon fill="#666666" stroke="#666666" points="0,-114 0,-114 105,-114 105,-114 0,-114"/>
<polygon fill="#666666" stroke="#666666" points="0,-98 0,-98 105,-98 105,-98 0,-98"/>
<polygon fill="none" stroke="#666666" points="0,0 0,-132 105,-132 105,0 0,0"/>
</a>
</g>
</g>
<!-- Node2 -->
<g id="Node000002" class="node">
<title>Node2</title>
<g id="a_Node000002"><a xlink:href="class_board.html" target="_top" xlink:title=" ">
<polygon fill="white" stroke="none" points="102,-428 3,-428 3,-168 102,-168 102,-428"/>
<text xml:space="preserve" text-anchor="start" x="21.38" y="-414.5" font-family="Helvetica,sans-Serif" font-size="10.00">Board&lt; char &gt;</text>
<text xml:space="preserve" text-anchor="start" x="7.38" y="-398.5" font-family="Helvetica,sans-Serif" font-size="10.00">#</text>
<text xml:space="preserve" text-anchor="start" x="17" y="-398.5" font-family="Helvetica,sans-Serif" font-size="10.00">rows</text>
<text xml:space="preserve" text-anchor="start" x="7.38" y="-382.5" font-family="Helvetica,sans-Serif" font-size="10.00">#</text>
<text xml:space="preserve" text-anchor="start" x="17" y="-382.5" font-family="Helvetica,sans-Serif" font-size="10.00">columns</text>
<text xml:space="preserve" text-anchor="start" x="7.38" y="-366.5" font-family="Helvetica,sans-Serif" font-size="10.00">#</text>
<text xml:space="preserve" text-anchor="start" x="17" y="-366.5" font-family="Helvetica,sans-Serif" font-size="10.00">board</text>
<text xml:space="preserve" text-anchor="start" x="7.38" y="-350.5" font-family="Helvetica,sans-Serif" font-size="10.00">#</text>
<text xml:space="preserve" text-anchor="start" x="17" y="-350.5" font-family="Helvetica,sans-Serif" font-size="10.00">n_moves</text>
<text xml:space="preserve" text-anchor="start" x="7" y="-334.5" font-family="Helvetica,sans-Serif" font-size="10.00">+</text>
<text xml:space="preserve" text-anchor="start" x="17" y="-334.5" font-family="Helvetica,sans-Serif" font-size="10.00">Board()</text>
<text xml:space="preserve" text-anchor="start" x="7" y="-318.5" font-family="Helvetica,sans-Serif" font-size="10.00">+</text>
<text xml:space="preserve" text-anchor="start" x="17" y="-318.5" font-family="Helvetica,sans-Serif" font-size="10.00">~Board()</text>
<text xml:space="preserve" text-anchor="start" x="7" y="-302.5" font-family="Helvetica,sans-Serif" font-size="10.00">+</text>
<text xml:space="preserve" text-anchor="start" x="17" y="-302.5" font-family="Helvetica,sans-Serif" font-size="10.00">update_board()</text>
<text xml:space="preserve" text-anchor="start" x="7" y="-286.5" font-family="Helvetica,sans-Serif" font-size="10.00">+</text>
<text xml:space="preserve" text-anchor="start" x="17" y="-286.5" font-family="Helvetica,sans-Serif" font-size="10.00">is_win()</text>
<text xml:space="preserve" text-anchor="start" x="7" y="-270.5" font-family="Helvetica,sans-Serif" font-size="10.00">+</text>
<text xml:space="preserve" text-anchor="start" x="17" y="-270.5" font-family="Helvetica,sans-Serif" font-size="10.00">is_lose()</text>
<text xml:space="preserve" text-anchor="start" x="7" y="-254.5" font-family="Helvetica,sans-Serif" font-size="10.00">+</text>
<text xml:space="preserve" text-anchor="start" x="17" y="-254.5" font-family="Helvetica,sans-Serif" font-size="10.00">is_draw()</text>
<text xml:space="preserve" text-anchor="start" x="7" y="-238.5" font-family="Helvetica,sans-Serif" font-size="10.00">+</text>
<text xml:space="preserve" text-anchor="start" x="17" y="-238.5" font-family="Helvetica,sans-Serif" font-size="10.00">game_is_over()</text>
<text xml:space="preserve" text-anchor="start" x="7" y="-222.5" font-family="Helvetica,sans-Serif" font-size="10.00">+</text>
<text xml:space="preserve" text-anchor="start" x="17" y="-222.5" font-family="Helvetica,sans-Serif" font-size="10.00">get_board_matrix()</text>
<text xml:space="preserve" text-anchor="start" x="7" y="-206.5" font-family="Helvetica,sans-Serif" font-size="10.00">+</text>
<text xml:space="preserve" text-anchor="start" x="17" y="-206.5" font-family="Helvetica,sans-Serif" font-size="10.00">get_rows()</text>
<text xml:space="preserve" text-anchor="start" x="7" y="-190.5" font-family="Helvetica,sans-Serif" font-size="10.00">+</text>
<text xml:space="preserve" text-anchor="start" x="17" y="-190.5" font-family="Helvetica,sans-Serif" font-size="10.00">get_columns()</text>
<text xml:space="preserve" text-anchor="start" x="7" y="-174.5" font-family="Helvetica,sans-Serif" font-size="10.00">+</text>
<text xml:space="preserve" text-anchor="start" x="17" y="-174.5" font-family="Helvetica,sans-Serif" font-size="10.00">get_cell()</text>
<polygon fill="#666666" stroke="#666666" points="3,-410 3,-410 102,-410 102,-410 3,-410"/>
<polygon fill="#666666" stroke="#666666" points="3,-346 3,-346 15,-346 15,-346 3,-346"/>
<polygon fill="#666666" stroke="#666666" points="15,-346 15,-346 102,-346 102,-346 15,-346"/>
<polygon fill="none" stroke="#666666" points="3,-168 3,-428 102,-428 102,-168 3,-168"/>
</a>
</g>
</g>
<!-- Node2&#45;&gt;Node1 -->
<g id="edge1_Node000001_Node000002" class="edge">
<title>Node2&#45;&gt;Node1</title>
<g id="a_edge1_Node000001_Node000002"><a xlink:title=" ">
<path fill="none" stroke="#63b8ff" d="M52.5,-156.85C52.5,-148.27 52.5,-139.89 52.5,-131.92"/>
<polygon fill="none" stroke="#63b8ff" points="49,-156.7 52.5,-166.7 56,-156.7 49,-156.7"/>
</a>
</g>
</g>
</g>
</svg>
