<?xml version="1.0" encoding="UTF-8" standalone="no"?>
<!DOCTYPE svg PUBLIC "-//W3C//DTD SVG 1.1//EN"
 "http://www.w3.org/Graphics/SVG/1.1/DTD/svg11.dtd">
<!-- Generated by graphviz version 14.0.2 (20251019.1705)
 -->
<!-- Title: XO_NUM_Board::game_is_over Pages: 1 -->
<svg width="452pt" height="53pt"
 viewBox="0.00 0.00 452.00 53.00" xmlns="http://www.w3.org/2000/svg" xmlns:xlink="http://www.w3.org/1999/xlink">
<g id="graph0" class="graph" transform="scale(1 1) rotate(0) translate(4 49)">
<title>XO_NUM_Board::game_is_over</title>
<!-- Node1 -->
<g id="Node000001" class="node">
<title>Node1</title>
<g id="a_Node000001"><a xlink:title="Check if the game is over.">
<polygon fill="#999999" stroke="#666666" points="119.5,-32 0,-32 0,0 119.5,0 119.5,-32"/>
<text xml:space="preserve" text-anchor="start" x="8" y="-18.5" font-family="Helvetica,sans-Serif" font-size="10.00">XO_NUM_Board::game</text>
<text xml:space="preserve" text-anchor="middle" x="59.75" y="-6.5" font-family="Helvetica,sans-Serif" font-size="10.00">_is_over</text>
</a>
</g>
</g>
<!-- Node2 -->
<g id="Node000002" class="node">
<title>Node2</title>
<g id="a_Node000002"><a xlink:href="class_x_o___n_u_m___board.html#a65725a8978e903e07838140ae4bf8fd6" target="_top" xlink:title="Check if the game is a draw.">
<polygon fill="white" stroke="#666666" points="284.75,-45 155.5,-45 155.5,-25 284.75,-25 284.75,-45"/>
<text xml:space="preserve" text-anchor="middle" x="220.12" y="-31.5" font-family="Helvetica,sans-Serif" font-size="10.00">XO_NUM_Board::is_draw</text>
</a>
</g>
</g>
<!-- Node1&#45;&gt;Node2 -->
<g id="edge1_Node000001_Node000002" class="edge">
<title>Node1&#45;&gt;Node2</title>
<g id="a_edge1_Node000001_Node000002"><a xlink:title=" ">
<path fill="none" stroke="#63b8ff" d="M119.72,-23.07C127.55,-24.01 135.67,-24.99 143.73,-25.95"/>
<polygon fill="#63b8ff" stroke="#63b8ff" points="143.21,-29.42 153.55,-27.13 144.04,-22.47 143.21,-29.42"/>
</a>
</g>
</g>
<!-- Node3 -->
<g id="Node000003" class="node">
<title>Node3</title>
<g id="a_Node000003"><a xlink:href="class_x_o___n_u_m___board.html#a3c7b05e2d036c44813f5cabf24ea3215" target="_top" xlink:title="Check if a player has won.">
<polygon fill="white" stroke="#666666" points="444,-26 320.75,-26 320.75,-6 444,-6 444,-26"/>
<text xml:space="preserve" text-anchor="middle" x="382.38" y="-12.5" font-family="Helvetica,sans-Serif" font-size="10.00">XO_NUM_Board::is_win</text>
</a>
</g>
</g>
<!-- Node1&#45;&gt;Node3 -->
<g id="edge3_Node000001_Node000003" class="edge">
<title>Node1&#45;&gt;Node3</title>
<g id="a_edge3_Node000001_Node000003"><a xlink:title=" ">
<path fill="none" stroke="#63b8ff" d="M119.93,-16C173.25,-16 251.81,-16 308.88,-16"/>
<polygon fill="#63b8ff" stroke="#63b8ff" points="308.84,-19.5 318.84,-16 308.84,-12.5 308.84,-19.5"/>
</a>
</g>
</g>
<!-- Node2&#45;&gt;Node3 -->
<g id="edge2_Node000002_Node000003" class="edge">
<title>Node2&#45;&gt;Node3</title>
<g id="a_edge2_Node000002_Node000003"><a xlink:title=" ">
<path fill="none" stroke="#63b8ff" d="M284.92,-27.44C292.87,-26.49 301.04,-25.52 309.11,-24.57"/>
<polygon fill="#63b8ff" stroke="#63b8ff" points="309.39,-28.06 318.9,-23.41 308.56,-21.11 309.39,-28.06"/>
</a>
</g>
</g>
</g>
</svg>
