<?xml version="1.0" encoding="UTF-8" standalone="no"?>
<!DOCTYPE svg PUBLIC "-//W3C//DTD SVG 1.1//EN"
 "http://www.w3.org/Graphics/SVG/1.1/DTD/svg11.dtd">
<!-- Generated by graphviz version 14.0.2 (20251019.1705)
 -->
<!-- Title: UI::UI Pages: 1 -->
<svg width="210pt" height="66pt"
 viewBox="0.00 0.00 210.00 66.00" xmlns="http://www.w3.org/2000/svg" xmlns:xlink="http://www.w3.org/1999/xlink">
<g id="graph0" class="graph" transform="scale(1 1) rotate(0) translate(4 62)">
<title>UI::UI</title>
<!-- Node1 -->
<g id="Node000001" class="node">
<title>Node1</title>
<g id="a_Node000001"><a xlink:title="Construct the UI and display a welcome message.">
<polygon fill="#999999" stroke="#666666" points="201.5,-39 158.5,-39 158.5,-19 201.5,-19 201.5,-39"/>
<text xml:space="preserve" text-anchor="middle" x="180" y="-25.5" font-family="Helvetica,sans-Serif" font-size="10.00">UI::UI</text>
</a>
</g>
</g>
<!-- Node2 -->
<g id="Node000002" class="node">
<title>Node2</title>
<g id="a_Node000002"><a xlink:href="class_custom___u_i.html#a2c29c8de3af071eef76c43e972eca565" target="_top" xlink:title=" ">
<polygon fill="white" stroke="#666666" points="122.5,-58 0,-58 0,-38 122.5,-38 122.5,-58"/>
<text xml:space="preserve" text-anchor="middle" x="61.25" y="-44.5" font-family="Helvetica,sans-Serif" font-size="10.00">Custom_UI::Custom_UI</text>
</a>
</g>
</g>
<!-- Node1&#45;&gt;Node2 -->
<g id="edge1_Node000001_Node000002" class="edge">
<title>Node1&#45;&gt;Node2</title>
<g id="a_edge1_Node000001_Node000002"><a xlink:title=" ">
<path fill="none" stroke="#63b8ff" d="M146.89,-34.23C139.28,-35.46 130.92,-36.82 122.51,-38.19"/>
<polygon fill="#63b8ff" stroke="#63b8ff" points="147.33,-37.7 156.63,-32.64 146.2,-30.79 147.33,-37.7"/>
</a>
</g>
</g>
<!-- Node3 -->
<g id="Node000003" class="node">
<title>Node3</title>
<g id="a_Node000003"><a xlink:href="class_custom___u_i.html#a6a7b3c7599c074000069912ed6166b1c" target="_top" xlink:title=" ">
<polygon fill="white" stroke="#666666" points="122.5,-20 0,-20 0,0 122.5,0 122.5,-20"/>
<text xml:space="preserve" text-anchor="middle" x="61.25" y="-6.5" font-family="Helvetica,sans-Serif" font-size="10.00">Custom_UI::Custom_UI</text>
</a>
</g>
</g>
<!-- Node1&#45;&gt;Node3 -->
<g id="edge2_Node000001_Node000003" class="edge">
<title>Node1&#45;&gt;Node3</title>
<g id="a_edge2_Node000001_Node000003"><a xlink:title=" ">
<path fill="none" stroke="#63b8ff" d="M146.89,-23.77C139.28,-22.54 130.92,-21.18 122.51,-19.81"/>
<polygon fill="#63b8ff" stroke="#63b8ff" points="146.2,-27.21 156.63,-25.36 147.33,-20.3 146.2,-27.21"/>
</a>
</g>
</g>
</g>
</svg>
