<?xml version="1.0" encoding="UTF-8" standalone="no"?>
<!DOCTYPE svg PUBLIC "-//W3C//DTD SVG 1.1//EN"
 "http://www.w3.org/Graphics/SVG/1.1/DTD/svg11.dtd">
<!-- Generated by graphviz version 14.0.2 (20251019.1705)
 -->
<!-- Title: XO_inf_Board::game_is_over Pages: 1 -->
<svg width="550pt" height="53pt"
 viewBox="0.00 0.00 550.00 53.00" xmlns="http://www.w3.org/2000/svg" xmlns:xlink="http://www.w3.org/1999/xlink">
<g id="graph0" class="graph" transform="scale(1 1) rotate(0) translate(4 49)">
<title>XO_inf_Board::game_is_over</title>
<!-- Node1 -->
<g id="Node000001" class="node">
<title>Node1</title>
<g id="a_Node000001"><a xlink:title="Determine whether the game is over.">
<polygon fill="#999999" stroke="#666666" points="106.75,-32 0,-32 0,0 106.75,0 106.75,-32"/>
<text xml:space="preserve" text-anchor="start" x="8" y="-18.5" font-family="Helvetica,sans-Serif" font-size="10.00">XO_inf_Board::game</text>
<text xml:space="preserve" text-anchor="middle" x="53.38" y="-6.5" font-family="Helvetica,sans-Serif" font-size="10.00">_is_over</text>
</a>
</g>
</g>
<!-- Node2 -->
<g id="Node000002" class="node">
<title>Node2</title>
<g id="a_Node000002"><a xlink:href="class_x_o__inf___board.html#a39c1227c26b820836e8ff8bf8cbad1b0" target="_top" xlink:title="Check if the game is a draw.">
<polygon fill="white" stroke="#666666" points="259.25,-45 142.75,-45 142.75,-25 259.25,-25 259.25,-45"/>
<text xml:space="preserve" text-anchor="middle" x="201" y="-31.5" font-family="Helvetica,sans-Serif" font-size="10.00">XO_inf_Board::is_draw</text>
</a>
</g>
</g>
<!-- Node1&#45;&gt;Node2 -->
<g id="edge1_Node000001_Node000002" class="edge">
<title>Node1&#45;&gt;Node2</title>
<g id="a_edge1_Node000001_Node000002"><a xlink:title=" ">
<path fill="none" stroke="#63b8ff" d="M106.95,-22.86C114.9,-23.9 123.21,-24.98 131.44,-26.05"/>
<polygon fill="#63b8ff" stroke="#63b8ff" points="130.71,-29.49 141.07,-27.31 131.61,-22.55 130.71,-29.49"/>
</a>
</g>
</g>
<!-- Node3 -->
<g id="Node000003" class="node">
<title>Node3</title>
<g id="a_Node000003"><a xlink:href="class_x_o__inf___board.html#ac8fe1843e8cae7c832218a80421eaa13" target="_top" xlink:title="Check if a player has achieved a win condition.">
<polygon fill="white" stroke="#666666" points="405.75,-26 295.25,-26 295.25,-6 405.75,-6 405.75,-26"/>
<text xml:space="preserve" text-anchor="middle" x="350.5" y="-12.5" font-family="Helvetica,sans-Serif" font-size="10.00">XO_inf_Board::is_win</text>
</a>
</g>
</g>
<!-- Node1&#45;&gt;Node3 -->
<g id="edge4_Node000001_Node000003" class="edge">
<title>Node1&#45;&gt;Node3</title>
<g id="a_edge4_Node000001_Node000003"><a xlink:title=" ">
<path fill="none" stroke="#63b8ff" d="M107.14,-16C156.49,-16 230.37,-16 283.58,-16"/>
<polygon fill="#63b8ff" stroke="#63b8ff" points="283.43,-19.5 293.43,-16 283.43,-12.5 283.43,-19.5"/>
</a>
</g>
</g>
<!-- Node2&#45;&gt;Node3 -->
<g id="edge2_Node000002_Node000003" class="edge">
<title>Node2&#45;&gt;Node3</title>
<g id="a_edge2_Node000002_Node000003"><a xlink:title=" ">
<path fill="none" stroke="#63b8ff" d="M259.45,-27.6C267.37,-26.58 275.55,-25.53 283.6,-24.49"/>
<polygon fill="#63b8ff" stroke="#63b8ff" points="283.89,-27.98 293.36,-23.23 283,-21.04 283.89,-27.98"/>
</a>
</g>
</g>
<!-- Node4 -->
<g id="Node000004" class="node">
<title>Node4</title>
<g id="a_Node000004"><a xlink:href="class_player.html#af56f0bf98c0423a3a75b0848607d03a4" target="_top" xlink:title="Get the player&#39;s symbol.">
<polygon fill="white" stroke="#666666" points="541.75,-26 441.75,-26 441.75,-6 541.75,-6 541.75,-26"/>
<text xml:space="preserve" text-anchor="middle" x="491.75" y="-12.5" font-family="Helvetica,sans-Serif" font-size="10.00">Player::get_symbol</text>
</a>
</g>
</g>
<!-- Node3&#45;&gt;Node4 -->
<g id="edge3_Node000003_Node000004" class="edge">
<title>Node3&#45;&gt;Node4</title>
<g id="a_edge3_Node000003_Node000004"><a xlink:title=" ">
<path fill="none" stroke="#63b8ff" d="M406.14,-16C413.92,-16 421.96,-16 429.85,-16"/>
<polygon fill="#63b8ff" stroke="#63b8ff" points="429.74,-19.5 439.74,-16 429.74,-12.5 429.74,-19.5"/>
</a>
</g>
</g>
</g>
</svg>
