<?xml version="1.0" encoding="UTF-8" standalone="no"?>
<!DOCTYPE svg PUBLIC "-//W3C//DTD SVG 1.1//EN"
 "http://www.w3.org/Graphics/SVG/1.1/DTD/svg11.dtd">
<!-- Generated by graphviz version 14.0.2 (20251019.1705)
 -->
<!-- Title: Word_XO_UI Pages: 1 -->
<svg width="254pt" height="544pt"
 viewBox="0.00 0.00 254.00 544.00" xmlns="http://www.w3.org/2000/svg" xmlns:xlink="http://www.w3.org/1999/xlink">
<g id="graph0" class="graph" transform="scale(1 1) rotate(0) translate(4 540)">
<title>Word_XO_UI</title>
<!-- Node1 -->
<g id="Node000001" class="node">
<title>Node1</title>
<g id="a_Node000001"><a xlink:title="User Interface controller for the game.">
<polygon fill="#999999" stroke="none" points="169.25,-116 87.5,-116 87.5,0 169.25,0 169.25,-116"/>
<text xml:space="preserve" text-anchor="start" x="99.5" y="-102.5" font-family="Helvetica,sans-Serif" font-size="10.00">Word_XO_UI</text>
<text xml:space="preserve" text-anchor="start" x="126.88" y="-86.5" font-family="Helvetica,sans-Serif" font-size="10.00"> </text>
<text xml:space="preserve" text-anchor="start" x="91.5" y="-70.5" font-family="Helvetica,sans-Serif" font-size="10.00">+</text>
<text xml:space="preserve" text-anchor="start" x="101.5" y="-70.5" font-family="Helvetica,sans-Serif" font-size="10.00">Word_XO_UI()</text>
<text xml:space="preserve" text-anchor="start" x="91.5" y="-54.5" font-family="Helvetica,sans-Serif" font-size="10.00">+</text>
<text xml:space="preserve" text-anchor="start" x="101.5" y="-54.5" font-family="Helvetica,sans-Serif" font-size="10.00">get_move()</text>
<text xml:space="preserve" text-anchor="start" x="92.62" y="-38.5" font-family="Helvetica,sans-Serif" font-size="10.00">*</text>
<text xml:space="preserve" text-anchor="start" x="101.5" y="-38.5" font-family="Helvetica,sans-Serif" font-size="10.00">evaluate()</text>
<text xml:space="preserve" text-anchor="start" x="92.62" y="-22.5" font-family="Helvetica,sans-Serif" font-size="10.00">*</text>
<text xml:space="preserve" text-anchor="start" x="101.5" y="-22.5" font-family="Helvetica,sans-Serif" font-size="10.00">Word_XO_UI()</text>
<text xml:space="preserve" text-anchor="start" x="92.62" y="-6.5" font-family="Helvetica,sans-Serif" font-size="10.00">*</text>
<text xml:space="preserve" text-anchor="start" x="101.5" y="-6.5" font-family="Helvetica,sans-Serif" font-size="10.00">get_move()</text>
<polygon fill="#666666" stroke="#666666" points="87.5,-98 87.5,-98 169.25,-98 169.25,-98 87.5,-98"/>
<polygon fill="#666666" stroke="#666666" points="87.5,-82 87.5,-82 169.25,-82 169.25,-82 87.5,-82"/>
<polygon fill="none" stroke="#666666" points="87.5,0 87.5,-116 169.25,-116 169.25,0 87.5,0"/>
</a>
</g>
</g>
<!-- Node2 -->
<g id="Node000002" class="node">
<title>Node2</title>
<g id="a_Node000002"><a xlink:href="$class_custom___u_i.html" xlink:title=" ">
<polygon fill="white" stroke="none" points="126.75,-302 0,-302 0,-170 126.75,-170 126.75,-302"/>
<text xml:space="preserve" text-anchor="start" x="19.88" y="-288.5" font-family="Helvetica,sans-Serif" font-size="10.00">Custom_UI&lt; char &gt;</text>
<text xml:space="preserve" text-anchor="start" x="61.88" y="-272.5" font-family="Helvetica,sans-Serif" font-size="10.00"> </text>
<text xml:space="preserve" text-anchor="start" x="4" y="-256.5" font-family="Helvetica,sans-Serif" font-size="10.00">+</text>
<text xml:space="preserve" text-anchor="start" x="14" y="-256.5" font-family="Helvetica,sans-Serif" font-size="10.00">Custom_UI()</text>
<text xml:space="preserve" text-anchor="start" x="4" y="-240.5" font-family="Helvetica,sans-Serif" font-size="10.00">+</text>
<text xml:space="preserve" text-anchor="start" x="14" y="-240.5" font-family="Helvetica,sans-Serif" font-size="10.00">display_message()</text>
<text xml:space="preserve" text-anchor="start" x="4" y="-224.5" font-family="Helvetica,sans-Serif" font-size="10.00">+</text>
<text xml:space="preserve" text-anchor="start" x="14" y="-224.5" font-family="Helvetica,sans-Serif" font-size="10.00">create_player()</text>
<text xml:space="preserve" text-anchor="start" x="4" y="-208.5" font-family="Helvetica,sans-Serif" font-size="10.00">+</text>
<text xml:space="preserve" text-anchor="start" x="14" y="-208.5" font-family="Helvetica,sans-Serif" font-size="10.00">setup_players()</text>
<text xml:space="preserve" text-anchor="start" x="4" y="-192.5" font-family="Helvetica,sans-Serif" font-size="10.00">+</text>
<text xml:space="preserve" text-anchor="start" x="14" y="-192.5" font-family="Helvetica,sans-Serif" font-size="10.00">display_board_matrix()</text>
<text xml:space="preserve" text-anchor="start" x="4.38" y="-176.5" font-family="Helvetica,sans-Serif" font-size="10.00">#</text>
<text xml:space="preserve" text-anchor="start" x="14" y="-176.5" font-family="Helvetica,sans-Serif" font-size="10.00">get_player_type_choice()</text>
<polygon fill="#666666" stroke="#666666" points="0,-284 0,-284 126.75,-284 126.75,-284 0,-284"/>
<polygon fill="#666666" stroke="#666666" points="0,-268 0,-268 126.75,-268 126.75,-268 0,-268"/>
<polygon fill="none" stroke="#666666" points="0,-170 0,-302 126.75,-302 126.75,-170 0,-170"/>
</a>
</g>
</g>
<!-- Node2&#45;&gt;Node1 -->
<g id="edge1_Node000001_Node000002" class="edge">
<title>Node2&#45;&gt;Node1</title>
<g id="a_edge1_Node000001_Node000002"><a xlink:title=" ">
<path fill="none" stroke="#63b8ff" d="M91.12,-159.87C96.55,-145.16 102.17,-129.97 107.33,-115.97"/>
<polygon fill="none" stroke="#63b8ff" points="87.92,-158.45 87.73,-169.04 94.48,-160.88 87.92,-158.45"/>
</a>
</g>
</g>
<!-- Node3 -->
<g id="Node000003" class="node">
<title>Node3</title>
<g id="a_Node000003"><a xlink:href="$class_u_i.html" xlink:title=" ">
<polygon fill="white" stroke="none" points="126.75,-536 0,-536 0,-356 126.75,-356 126.75,-536"/>
<text xml:space="preserve" text-anchor="start" x="39.75" y="-522.5" font-family="Helvetica,sans-Serif" font-size="10.00">UI&lt; char &gt;</text>
<text xml:space="preserve" text-anchor="start" x="4.38" y="-506.5" font-family="Helvetica,sans-Serif" font-size="10.00">#</text>
<text xml:space="preserve" text-anchor="start" x="14" y="-506.5" font-family="Helvetica,sans-Serif" font-size="10.00">cell_width</text>
<text xml:space="preserve" text-anchor="start" x="4" y="-490.5" font-family="Helvetica,sans-Serif" font-size="10.00">+</text>
<text xml:space="preserve" text-anchor="start" x="14" y="-490.5" font-family="Helvetica,sans-Serif" font-size="10.00">UI()</text>
<text xml:space="preserve" text-anchor="start" x="4" y="-474.5" font-family="Helvetica,sans-Serif" font-size="10.00">+</text>
<text xml:space="preserve" text-anchor="start" x="14" y="-474.5" font-family="Helvetica,sans-Serif" font-size="10.00">~UI()</text>
<text xml:space="preserve" text-anchor="start" x="4" y="-458.5" font-family="Helvetica,sans-Serif" font-size="10.00">+</text>
<text xml:space="preserve" text-anchor="start" x="14" y="-458.5" font-family="Helvetica,sans-Serif" font-size="10.00">display_message()</text>
<text xml:space="preserve" text-anchor="start" x="4" y="-442.5" font-family="Helvetica,sans-Serif" font-size="10.00">+</text>
<text xml:space="preserve" text-anchor="start" x="14" y="-442.5" font-family="Helvetica,sans-Serif" font-size="10.00">get_move()</text>
<text xml:space="preserve" text-anchor="start" x="4" y="-426.5" font-family="Helvetica,sans-Serif" font-size="10.00">+</text>
<text xml:space="preserve" text-anchor="start" x="14" y="-426.5" font-family="Helvetica,sans-Serif" font-size="10.00">setup_players()</text>
<text xml:space="preserve" text-anchor="start" x="4" y="-410.5" font-family="Helvetica,sans-Serif" font-size="10.00">+</text>
<text xml:space="preserve" text-anchor="start" x="14" y="-410.5" font-family="Helvetica,sans-Serif" font-size="10.00">create_player()</text>
<text xml:space="preserve" text-anchor="start" x="4" y="-394.5" font-family="Helvetica,sans-Serif" font-size="10.00">+</text>
<text xml:space="preserve" text-anchor="start" x="14" y="-394.5" font-family="Helvetica,sans-Serif" font-size="10.00">display_board_matrix()</text>
<text xml:space="preserve" text-anchor="start" x="4.38" y="-378.5" font-family="Helvetica,sans-Serif" font-size="10.00">#</text>
<text xml:space="preserve" text-anchor="start" x="14" y="-378.5" font-family="Helvetica,sans-Serif" font-size="10.00">get_player_name()</text>
<text xml:space="preserve" text-anchor="start" x="4.38" y="-362.5" font-family="Helvetica,sans-Serif" font-size="10.00">#</text>
<text xml:space="preserve" text-anchor="start" x="14" y="-362.5" font-family="Helvetica,sans-Serif" font-size="10.00">get_player_type_choice()</text>
<polygon fill="#666666" stroke="#666666" points="0,-518 0,-518 126.75,-518 126.75,-518 0,-518"/>
<polygon fill="#666666" stroke="#666666" points="0,-502 0,-502 12,-502 12,-502 0,-502"/>
<polygon fill="#666666" stroke="#666666" points="12,-502 12,-502 126.75,-502 126.75,-502 12,-502"/>
<polygon fill="none" stroke="#666666" points="0,-356 0,-536 126.75,-536 126.75,-356 0,-356"/>
</a>
</g>
</g>
<!-- Node3&#45;&gt;Node2 -->
<g id="edge2_Node000002_Node000003" class="edge">
<title>Node3&#45;&gt;Node2</title>
<g id="a_edge2_Node000002_Node000003"><a xlink:title=" ">
<path fill="none" stroke="#63b8ff" d="M63.38,-345.02C63.38,-330.38 63.38,-315.62 63.38,-301.92"/>
<polygon fill="none" stroke="#63b8ff" points="59.88,-344.67 63.38,-354.67 66.88,-344.67 59.88,-344.67"/>
</a>
</g>
</g>
<!-- Node4 -->
<g id="Node000004" class="node">
<title>Node4</title>
<g id="a_Node000004"><a xlink:title=" ">
<polygon fill="white" stroke="none" points="243.75,-268 145,-268 145,-204 243.75,-204 243.75,-268"/>
<text xml:space="preserve" text-anchor="start" x="149" y="-254.5" font-family="Helvetica,sans-Serif" font-size="10.00">std::vector&lt; std::pair</text>
<text xml:space="preserve" text-anchor="start" x="163.25" y="-242.5" font-family="Helvetica,sans-Serif" font-size="10.00">&lt; int, char &gt; &gt;</text>
<text xml:space="preserve" text-anchor="start" x="192.88" y="-226.5" font-family="Helvetica,sans-Serif" font-size="10.00"> </text>
<text xml:space="preserve" text-anchor="start" x="192.88" y="-210.5" font-family="Helvetica,sans-Serif" font-size="10.00"> </text>
<polygon fill="#666666" stroke="#666666" points="145,-238 145,-238 243.75,-238 243.75,-238 145,-238"/>
<polygon fill="#666666" stroke="#666666" points="145,-222 145,-222 243.75,-222 243.75,-222 145,-222"/>
<polygon fill="none" stroke="#666666" points="145,-204 145,-268 243.75,-268 243.75,-204 145,-204"/>
</a>
</g>
</g>
<!-- Node4&#45;&gt;Node1 -->
<g id="edge3_Node000001_Node000004" class="edge">
<title>Node4&#45;&gt;Node1</title>
<g id="a_edge3_Node000001_Node000004"><a xlink:title=" ">
<path fill="none" stroke="#63b8ff" d="M182.88,-204.34C174.97,-183.25 164.14,-154.37 154.21,-127.9"/>
<polygon fill="none" stroke="#63b8ff" points="154.26,-128.03 148.41,-123.82 150.05,-116.8 155.9,-121.01 154.26,-128.03"/>
</a>
</g>
<text xml:space="preserve" text-anchor="start" x="164.38" y="-139.5" font-family="Helvetica,sans-Serif" font-size="10.00" fill="grey">+score</text>
</g>
<!-- Node5 -->
<g id="Node000005" class="node">
<title>Node5</title>
<g id="a_Node000005"><a xlink:title=" ">
<polygon fill="white" stroke="none" points="242.62,-480 146.12,-480 146.12,-412 242.62,-412 242.62,-480"/>
<text xml:space="preserve" text-anchor="start" x="150.12" y="-466.5" font-family="Helvetica,sans-Serif" font-size="10.00">std::pair&lt; int, char &gt;</text>
<text xml:space="preserve" text-anchor="start" x="155.88" y="-450.5" font-family="Helvetica,sans-Serif" font-size="10.00">+</text>
<text xml:space="preserve" text-anchor="start" x="171.62" y="-450.5" font-family="Helvetica,sans-Serif" font-size="10.00">first_type</text>
<text xml:space="preserve" text-anchor="start" x="155.88" y="-434.5" font-family="Helvetica,sans-Serif" font-size="10.00">+</text>
<text xml:space="preserve" text-anchor="start" x="171.62" y="-434.5" font-family="Helvetica,sans-Serif" font-size="10.00">second_type</text>
<text xml:space="preserve" text-anchor="start" x="192.88" y="-418.5" font-family="Helvetica,sans-Serif" font-size="10.00"> </text>
<polygon fill="#666666" stroke="#666666" points="146.12,-462 146.12,-462 242.62,-462 242.62,-462 146.12,-462"/>
<polygon fill="#666666" stroke="#666666" points="146.12,-430 146.12,-430 169.62,-430 169.62,-430 146.12,-430"/>
<polygon fill="#666666" stroke="#666666" points="169.62,-430 169.62,-430 242.62,-430 242.62,-430 169.62,-430"/>
<polygon fill="none" stroke="#666666" points="146.12,-412 146.12,-480 242.62,-480 242.62,-412 146.12,-412"/>
</a>
</g>
</g>
<!-- Node5&#45;&gt;Node4 -->
<g id="edge4_Node000004_Node000005" class="edge">
<title>Node5&#45;&gt;Node4</title>
<g id="a_edge4_Node000004_Node000005"><a xlink:title=" ">
<path fill="none" stroke="#63b8ff" d="M194.38,-412.04C194.38,-376.51 194.38,-319.79 194.38,-280.59"/>
<polygon fill="none" stroke="#63b8ff" points="194.38,-280.67 190.38,-274.67 194.38,-268.67 198.38,-274.67 194.38,-280.67"/>
</a>
</g>
<text xml:space="preserve" text-anchor="start" x="197.38" y="-325.5" font-family="Helvetica,sans-Serif" font-size="10.00" fill="grey">+elements</text>
</g>
</g>
</svg>
