<?xml version="1.0" encoding="UTF-8" standalone="no"?>
<!DOCTYPE svg PUBLIC "-//W3C//DTD SVG 1.1//EN"
 "http://www.w3.org/Graphics/SVG/1.1/DTD/svg11.dtd">
<!-- Generated by graphviz version 14.0.2 (20251019.1705)
 -->
<!-- Title: Player::get_board_ptr Pages: 1 -->
<svg width="602pt" height="954pt"
 viewBox="0.00 0.00 602.00 954.00" xmlns="http://www.w3.org/2000/svg" xmlns:xlink="http://www.w3.org/1999/xlink">
<g id="graph0" class="graph" transform="scale(1 1) rotate(0) translate(4 950.06)">
<title>Player::get_board_ptr</title>
<!-- Node1 -->
<g id="Node000001" class="node">
<title>Node1</title>
<g id="a_Node000001"><a xlink:title="Get a pointer to the game board.">
<polygon fill="#999999" stroke="#666666" points="593.5,-492.06 484.5,-492.06 484.5,-472.06 593.5,-472.06 593.5,-492.06"/>
<text xml:space="preserve" text-anchor="middle" x="539" y="-478.56" font-family="Helvetica,sans-Serif" font-size="10.00">Player::get_board_ptr</text>
</a>
</g>
</g>
<!-- Node2 -->
<g id="Node000002" class="node">
<title>Node2</title>
<g id="a_Node000002"><a xlink:href="class__4by4_x_o___a_i.html#aa13e6d3e4cdedc6ea7e813a16d4c0d68" target="_top" xlink:title="Computes the best move for AI.">
<polygon fill="white" stroke="#666666" points="443.62,-946.06 323.38,-946.06 323.38,-926.06 443.62,-926.06 443.62,-946.06"/>
<text xml:space="preserve" text-anchor="middle" x="383.5" y="-932.56" font-family="Helvetica,sans-Serif" font-size="10.00">_4by4XO_AI::bestMove</text>
</a>
</g>
</g>
<!-- Node1&#45;&gt;Node2 -->
<g id="edge1_Node000001_Node000002" class="edge">
<title>Node1&#45;&gt;Node2</title>
<g id="a_edge1_Node000001_Node000002"><a xlink:title=" ">
<path fill="none" stroke="#63b8ff" d="M536.45,-503.5C530.35,-582.37 505.42,-855.05 448.5,-917.06 445.37,-920.48 441.65,-923.29 437.61,-925.6"/>
<polygon fill="#63b8ff" stroke="#63b8ff" points="539.93,-503.94 537.19,-493.71 532.95,-503.42 539.93,-503.94"/>
</a>
</g>
</g>
<!-- Node4 -->
<g id="Node000004" class="node">
<title>Node4</title>
<g id="a_Node000004"><a xlink:href="class_anti___a_i.html#acec0e9ad7768c964434b67ae2e9d354a" target="_top" xlink:title="Computes the best move by selecting the least dangerous adjacent cell.">
<polygon fill="white" stroke="#666666" points="432,-908.06 335,-908.06 335,-888.06 432,-888.06 432,-908.06"/>
<text xml:space="preserve" text-anchor="middle" x="383.5" y="-894.56" font-family="Helvetica,sans-Serif" font-size="10.00">Anti_AI::bestMove</text>
</a>
</g>
</g>
<!-- Node1&#45;&gt;Node4 -->
<g id="edge3_Node000001_Node000004" class="edge">
<title>Node1&#45;&gt;Node4</title>
<g id="a_edge3_Node000001_Node000004"><a xlink:title=" ">
<path fill="none" stroke="#63b8ff" d="M535.99,-503.53C528.63,-577.94 500.74,-823.21 448.5,-879.06 443.99,-883.88 438.31,-887.5 432.21,-890.21"/>
<polygon fill="#63b8ff" stroke="#63b8ff" points="539.45,-504.2 536.92,-493.91 532.48,-503.53 539.45,-504.2"/>
</a>
</g>
</g>
<!-- Node6 -->
<g id="Node000006" class="node">
<title>Node6</title>
<g id="a_Node000006"><a xlink:href="classdia___x_o___a_i.html#aac374ebe974ed55e608952762ad6d3ff" target="_top" xlink:title="Picks a random free cell for AI.">
<polygon fill="white" stroke="#666666" points="439.5,-870.06 327.5,-870.06 327.5,-850.06 439.5,-850.06 439.5,-870.06"/>
<text xml:space="preserve" text-anchor="middle" x="383.5" y="-856.56" font-family="Helvetica,sans-Serif" font-size="10.00">dia_XO_AI::bestMove</text>
</a>
</g>
</g>
<!-- Node1&#45;&gt;Node6 -->
<g id="edge5_Node000001_Node000006" class="edge">
<title>Node1&#45;&gt;Node6</title>
<g id="a_edge5_Node000001_Node000006"><a xlink:title=" ">
<path fill="none" stroke="#63b8ff" d="M535.24,-503.27C525.93,-571.76 493.76,-785.47 448.5,-836.06 443.28,-841.9 436.49,-846.32 429.3,-849.67"/>
<polygon fill="#63b8ff" stroke="#63b8ff" points="538.66,-504.12 536.51,-493.75 531.72,-503.2 538.66,-504.12"/>
</a>
</g>
</g>
<!-- Node8 -->
<g id="Node000008" class="node">
<title>Node8</title>
<g id="a_Node000008"><a xlink:href="class_four___a_i.html#a12661d165899365f9a5031ec04814e44" target="_top" xlink:title="Computes the best possible move for the AI.">
<polygon fill="white" stroke="#666666" points="266.75,-643.06 167.5,-643.06 167.5,-623.06 266.75,-623.06 266.75,-643.06"/>
<text xml:space="preserve" text-anchor="middle" x="217.12" y="-629.56" font-family="Helvetica,sans-Serif" font-size="10.00">Four_AI::bestMove</text>
</a>
</g>
</g>
<!-- Node1&#45;&gt;Node8 -->
<g id="edge7_Node000001_Node000008" class="edge">
<title>Node1&#45;&gt;Node8</title>
<g id="a_edge7_Node000001_Node000008"><a xlink:title=" ">
<path fill="none" stroke="#63b8ff" d="M525.13,-501.67C509.61,-523.69 481.48,-558.85 448.5,-578.06 391.65,-611.17 315.87,-624.38 267.03,-629.63"/>
<polygon fill="#63b8ff" stroke="#63b8ff" points="527.91,-503.79 530.66,-493.56 522.13,-499.84 527.91,-503.79"/>
</a>
</g>
</g>
<!-- Node10 -->
<g id="Node000010" class="node">
<title>Node10</title>
<g id="a_Node000010"><a xlink:href="class_large___x_o___a_i.html#a73ab0db41718aa760a8caa11dbfcf0c8" target="_top" xlink:title="Compute the best move for the player.">
<polygon fill="white" stroke="#666666" points="278.75,-558.06 155.5,-558.06 155.5,-538.06 278.75,-538.06 278.75,-558.06"/>
<text xml:space="preserve" text-anchor="middle" x="217.12" y="-544.56" font-family="Helvetica,sans-Serif" font-size="10.00">Large_XO_AI::bestMove</text>
</a>
</g>
</g>
<!-- Node1&#45;&gt;Node10 -->
<g id="edge9_Node000001_Node000010" class="edge">
<title>Node1&#45;&gt;Node10</title>
<g id="a_edge9_Node000001_Node000010"><a xlink:title=" ">
<path fill="none" stroke="#63b8ff" d="M522.57,-501.08C506.36,-519.42 479,-545.97 448.5,-557.06 384.93,-580.17 304.89,-568.85 257.83,-558.48"/>
<polygon fill="#63b8ff" stroke="#63b8ff" points="525.19,-503.4 529.01,-493.52 519.86,-498.86 525.19,-503.4"/>
</a>
</g>
</g>
<!-- Node11 -->
<g id="Node000011" class="node">
<title>Node11</title>
<g id="a_Node000011"><a xlink:href="class_memory___a_i.html#a6bb44a40960586c692f1224bc15dc098" target="_top" xlink:title="Determines the optimal move for AI using minimax.">
<polygon fill="white" stroke="#666666" points="274.62,-417.06 159.62,-417.06 159.62,-397.06 274.62,-397.06 274.62,-417.06"/>
<text xml:space="preserve" text-anchor="middle" x="217.12" y="-403.56" font-family="Helvetica,sans-Serif" font-size="10.00">Memory_AI::bestMove</text>
</a>
</g>
</g>
<!-- Node1&#45;&gt;Node11 -->
<g id="edge10_Node000001_Node000011" class="edge">
<title>Node1&#45;&gt;Node11</title>
<g id="a_edge10_Node000001_Node000011"><a xlink:title=" ">
<path fill="none" stroke="#63b8ff" d="M522.57,-463.04C506.36,-444.7 479,-418.15 448.5,-407.06 391.93,-386.49 322.25,-390.11 274.43,-396.58"/>
<polygon fill="#63b8ff" stroke="#63b8ff" points="519.86,-465.26 529.01,-470.6 525.19,-460.72 519.86,-465.26"/>
</a>
</g>
</g>
<!-- Node13 -->
<g id="Node000013" class="node">
<title>Node13</title>
<g id="a_Node000013"><a xlink:href="class_obstacles___a_i.html#ac9b20f46edf15c73cdcc6fe7a79ee34d" target="_top" xlink:title="Computes the best move for the player.">
<polygon fill="white" stroke="#666666" points="445.5,-794.06 321.5,-794.06 321.5,-774.06 445.5,-774.06 445.5,-794.06"/>
<text xml:space="preserve" text-anchor="middle" x="383.5" y="-780.56" font-family="Helvetica,sans-Serif" font-size="10.00">Obstacles_AI::bestMove</text>
</a>
</g>
</g>
<!-- Node1&#45;&gt;Node13 -->
<g id="edge12_Node000001_Node000013" class="edge">
<title>Node1&#45;&gt;Node13</title>
<g id="a_edge12_Node000001_Node000013"><a xlink:title=" ">
<path fill="none" stroke="#63b8ff" d="M537.68,-503.79C535.71,-556.39 523.22,-691.65 448.5,-765.06 445.03,-768.47 440.97,-771.28 436.62,-773.58"/>
<polygon fill="#63b8ff" stroke="#63b8ff" points="541.18,-503.89 537.95,-493.8 534.18,-503.7 541.18,-503.89"/>
</a>
</g>
</g>
<!-- Node14 -->
<g id="Node000014" class="node">
<title>Node14</title>
<g id="a_Node000014"><a xlink:href="class_obstacles___u_i.html#aaf8a700063b544107b0ec92929b7242d" target="_top" xlink:title="Obtains a move from a human or AI player.">
<polygon fill="white" stroke="#666666" points="279.5,-813.06 154.75,-813.06 154.75,-793.06 279.5,-793.06 279.5,-813.06"/>
<text xml:space="preserve" text-anchor="middle" x="217.12" y="-799.56" font-family="Helvetica,sans-Serif" font-size="10.00">Obstacles_UI::get_move</text>
</a>
</g>
</g>
<!-- Node1&#45;&gt;Node14 -->
<g id="edge26_Node000001_Node000014" class="edge">
<title>Node1&#45;&gt;Node14</title>
<g id="a_edge26_Node000001_Node000014"><a xlink:title=" ">
<path fill="none" stroke="#63b8ff" d="M535.35,-503.64C526.76,-569.54 497.42,-765.91 448.5,-803.06 389.73,-847.69 296.01,-827.99 248.25,-813.5"/>
<polygon fill="#63b8ff" stroke="#63b8ff" points="538.81,-504.15 536.6,-493.79 531.87,-503.27 538.81,-504.15"/>
</a>
</g>
</g>
<!-- Node15 -->
<g id="Node000015" class="node">
<title>Node15</title>
<g id="a_Node000015"><a xlink:href="class_pyramid_x_o___a_i.html#a503de221d36f762812330be2aa1c0e5f" target="_top" xlink:title="Generates a random valid move within the pyramid.">
<polygon fill="white" stroke="#666666" points="448.5,-756.06 318.5,-756.06 318.5,-736.06 448.5,-736.06 448.5,-756.06"/>
<text xml:space="preserve" text-anchor="middle" x="383.5" y="-742.56" font-family="Helvetica,sans-Serif" font-size="10.00">PyramidXO_AI::bestMove</text>
</a>
</g>
</g>
<!-- Node1&#45;&gt;Node15 -->
<g id="edge14_Node000001_Node000015" class="edge">
<title>Node1&#45;&gt;Node15</title>
<g id="a_edge14_Node000001_Node000015"><a xlink:title=" ">
<path fill="none" stroke="#63b8ff" d="M536.45,-503.74C531.86,-551.26 514.23,-665.26 448.5,-727.06 444.87,-730.47 440.65,-733.28 436.15,-735.58"/>
<polygon fill="#63b8ff" stroke="#63b8ff" points="539.92,-504.21 537.28,-493.95 532.94,-503.62 539.92,-504.21"/>
</a>
</g>
</g>
<!-- Node17 -->
<g id="Node000017" class="node">
<title>Node17</title>
<g id="a_Node000017"><a xlink:href="class_s_u_s___a_i.html#ae27d5dea2808c253c2fe19574bb41038" target="_top" xlink:title="Computes the best move for the player.">
<polygon fill="white" stroke="#666666" points="267.5,-39.06 166.75,-39.06 166.75,-19.06 267.5,-19.06 267.5,-39.06"/>
<text xml:space="preserve" text-anchor="middle" x="217.12" y="-25.56" font-family="Helvetica,sans-Serif" font-size="10.00">SUS_AI::bestMove</text>
</a>
</g>
</g>
<!-- Node1&#45;&gt;Node17 -->
<g id="edge16_Node000001_Node000017" class="edge">
<title>Node1&#45;&gt;Node17</title>
<g id="a_edge16_Node000001_Node000017"><a xlink:title=" ">
<path fill="none" stroke="#63b8ff" d="M537.19,-460.21C533.65,-377.41 516.4,-84.86 448.5,-29.06 390.87,18.3 294.94,-3.35 247.1,-18.59"/>
<polygon fill="#63b8ff" stroke="#63b8ff" points="533.69,-460.26 537.59,-470.11 540.69,-459.98 533.69,-460.26"/>
</a>
</g>
</g>
<!-- Node19 -->
<g id="Node000019" class="node">
<title>Node19</title>
<g id="a_Node000019"><a xlink:href="class_ultimate___a_i.html#aab4c93eccf27f6e37c89dc41f70c9742" target="_top" xlink:title="Selects a random valid move for the AI.">
<polygon fill="white" stroke="#666666" points="441.75,-718.06 325.25,-718.06 325.25,-698.06 441.75,-698.06 441.75,-718.06"/>
<text xml:space="preserve" text-anchor="middle" x="383.5" y="-704.56" font-family="Helvetica,sans-Serif" font-size="10.00">Ultimate_AI::bestMove</text>
</a>
</g>
</g>
<!-- Node1&#45;&gt;Node19 -->
<g id="edge18_Node000001_Node000019" class="edge">
<title>Node1&#45;&gt;Node19</title>
<g id="a_edge18_Node000001_Node000019"><a xlink:title=" ">
<path fill="none" stroke="#63b8ff" d="M534.79,-503.77C527.41,-545.83 505.3,-638.67 448.5,-689.06 444.6,-692.52 440.09,-695.35 435.31,-697.67"/>
<polygon fill="#63b8ff" stroke="#63b8ff" points="538.23,-504.38 536.38,-493.95 531.32,-503.26 538.23,-504.38"/>
</a>
</g>
</g>
<!-- Node21 -->
<g id="Node000021" class="node">
<title>Node21</title>
<g id="a_Node000021"><a xlink:href="class_word___a_i.html#abadf0c9ca0a9e14ba6e21f463c11a11f" target="_top" xlink:title="Compute the best move for a player.">
<polygon fill="white" stroke="#666666" points="434.62,-492.06 332.38,-492.06 332.38,-472.06 434.62,-472.06 434.62,-492.06"/>
<text xml:space="preserve" text-anchor="middle" x="383.5" y="-478.56" font-family="Helvetica,sans-Serif" font-size="10.00">Word_AI::bestMove</text>
</a>
</g>
</g>
<!-- Node1&#45;&gt;Node21 -->
<g id="edge20_Node000001_Node000021" class="edge">
<title>Node1&#45;&gt;Node21</title>
<g id="a_edge20_Node000001_Node000021"><a xlink:title=" ">
<path fill="none" stroke="#63b8ff" d="M472.87,-482.06C460.22,-482.06 447.15,-482.06 435.06,-482.06"/>
<polygon fill="#63b8ff" stroke="#63b8ff" points="472.8,-485.56 482.8,-482.06 472.8,-478.56 472.8,-485.56"/>
</a>
</g>
</g>
<!-- Node22 -->
<g id="Node000022" class="node">
<title>Node22</title>
<g id="a_Node000022"><a xlink:href="class_x_o__inf___a_i.html#ae6b676d72164332dcc6683ab22b73564" target="_top" xlink:title="Determine the best move for the AI.">
<polygon fill="white" stroke="#666666" points="272,-304.06 162.25,-304.06 162.25,-284.06 272,-284.06 272,-304.06"/>
<text xml:space="preserve" text-anchor="middle" x="217.12" y="-290.56" font-family="Helvetica,sans-Serif" font-size="10.00">XO_inf_AI::bestMove</text>
</a>
</g>
</g>
<!-- Node1&#45;&gt;Node22 -->
<g id="edge21_Node000001_Node000022" class="edge">
<title>Node1&#45;&gt;Node22</title>
<g id="a_edge21_Node000001_Node000022"><a xlink:title=" ">
<path fill="none" stroke="#63b8ff" d="M524.03,-462.86C507.88,-441.82 479.51,-408.25 448.5,-387.06 430.92,-375.04 303.35,-326.22 245.96,-304.53"/>
<polygon fill="#63b8ff" stroke="#63b8ff" points="521.04,-464.71 529.84,-470.61 526.64,-460.51 521.04,-464.71"/>
</a>
</g>
</g>
<!-- Node23 -->
<g id="Node000023" class="node">
<title>Node23</title>
<g id="a_Node000023"><a xlink:href="class_x_o__inf___u_i.html#a58e2808d59a15ba3c05a07f3b3f25486" target="_top" xlink:title="Retrieve a player&#39;s move input.">
<polygon fill="white" stroke="#666666" points="113.12,-209.06 2.62,-209.06 2.62,-189.06 113.12,-189.06 113.12,-209.06"/>
<text xml:space="preserve" text-anchor="middle" x="57.88" y="-195.56" font-family="Helvetica,sans-Serif" font-size="10.00">XO_inf_UI::get_move</text>
</a>
</g>
</g>
<!-- Node1&#45;&gt;Node23 -->
<g id="edge28_Node000001_Node000023" class="edge">
<title>Node1&#45;&gt;Node23</title>
<g id="a_edge28_Node000001_Node000023"><a xlink:title=" ">
<path fill="none" stroke="#63b8ff" d="M535.94,-460.66C528.72,-390.68 502.05,-170.73 448.5,-129.06 424.26,-110.2 159.27,-139.62 151.75,-142.06 120.26,-152.29 88.42,-175.17 71.43,-188.62"/>
<polygon fill="#63b8ff" stroke="#63b8ff" points="532.44,-460.8 536.91,-470.4 539.4,-460.1 532.44,-460.8"/>
</a>
</g>
</g>
<!-- Node24 -->
<g id="Node000024" class="node">
<title>Node24</title>
<g id="a_Node000024"><a xlink:href="class_x_o___n_u_m___a_i.html#a199156c4313be371ad60e780e7f88834" target="_top" xlink:title="Compute the best move.">
<polygon fill="white" stroke="#666666" points="444.75,-190.06 322.25,-190.06 322.25,-170.06 444.75,-170.06 444.75,-190.06"/>
<text xml:space="preserve" text-anchor="middle" x="383.5" y="-176.56" font-family="Helvetica,sans-Serif" font-size="10.00">XO_NUM_AI::bestMove</text>
</a>
</g>
</g>
<!-- Node1&#45;&gt;Node24 -->
<g id="edge23_Node000001_Node000024" class="edge">
<title>Node1&#45;&gt;Node24</title>
<g id="a_edge23_Node000001_Node000024"><a xlink:title=" ">
<path fill="none" stroke="#63b8ff" d="M537.68,-460.33C535.71,-407.73 523.22,-272.47 448.5,-199.06 445.03,-195.65 440.97,-192.84 436.62,-190.54"/>
<polygon fill="#63b8ff" stroke="#63b8ff" points="534.18,-460.42 537.95,-470.32 541.18,-460.23 534.18,-460.42"/>
</a>
</g>
</g>
<!-- Node25 -->
<g id="Node000025" class="node">
<title>Node25</title>
<g id="a_Node000025"><a xlink:href="class_x_o___n_u_m___u_i.html#a6937463483d95c20fce215d4b9c6afa4" target="_top" xlink:title="Get the next move.">
<polygon fill="white" stroke="#666666" points="278.75,-171.06 155.5,-171.06 155.5,-151.06 278.75,-151.06 278.75,-171.06"/>
<text xml:space="preserve" text-anchor="middle" x="217.12" y="-157.56" font-family="Helvetica,sans-Serif" font-size="10.00">XO_NUM_UI::get_move</text>
</a>
</g>
</g>
<!-- Node1&#45;&gt;Node25 -->
<g id="edge29_Node000001_Node000025" class="edge">
<title>Node1&#45;&gt;Node25</title>
<g id="a_edge29_Node000001_Node000025"><a xlink:title=" ">
<path fill="none" stroke="#63b8ff" d="M535.35,-460.48C526.76,-394.58 497.42,-198.21 448.5,-161.06 389.73,-116.43 296.01,-136.13 248.25,-150.62"/>
<polygon fill="#63b8ff" stroke="#63b8ff" points="531.87,-460.85 536.6,-470.33 538.81,-459.97 531.87,-460.85"/>
</a>
</g>
</g>
<!-- Node26 -->
<g id="Node000026" class="node">
<title>Node26</title>
<g id="a_Node000026"><a xlink:href="class_large___x_o___u_i.html#ad2c0d9d3cec8c1e35d42b2342a08bc7f" target="_top" xlink:title="Request a move from human or AI player.">
<polygon fill="white" stroke="#666666" points="445.5,-266.06 321.5,-266.06 321.5,-246.06 445.5,-246.06 445.5,-266.06"/>
<text xml:space="preserve" text-anchor="middle" x="383.5" y="-252.56" font-family="Helvetica,sans-Serif" font-size="10.00">Large_XO_UI::get_move</text>
</a>
</g>
</g>
<!-- Node1&#45;&gt;Node26 -->
<g id="edge25_Node000001_Node000026" class="edge">
<title>Node1&#45;&gt;Node26</title>
<g id="a_edge25_Node000001_Node000026"><a xlink:title=" ">
<path fill="none" stroke="#63b8ff" d="M534.79,-460.35C527.41,-418.29 505.3,-325.45 448.5,-275.06 444.6,-271.6 440.09,-268.77 435.31,-266.45"/>
<polygon fill="#63b8ff" stroke="#63b8ff" points="531.32,-460.86 536.38,-470.17 538.23,-459.74 531.32,-460.86"/>
</a>
</g>
</g>
<!-- Node27 -->
<g id="Node000027" class="node">
<title>Node27</title>
<g id="a_Node000027"><a xlink:href="class_word___x_o___u_i.html#aea1d068753433755a0c7eb45b06add23" target="_top" xlink:title="Get the next move from a player.">
<polygon fill="white" stroke="#666666" points="444.75,-228.06 322.25,-228.06 322.25,-208.06 444.75,-208.06 444.75,-228.06"/>
<text xml:space="preserve" text-anchor="middle" x="383.5" y="-214.56" font-family="Helvetica,sans-Serif" font-size="10.00">Word_XO_UI::get_move</text>
</a>
</g>
</g>
<!-- Node1&#45;&gt;Node27 -->
<g id="edge27_Node000001_Node000027" class="edge">
<title>Node1&#45;&gt;Node27</title>
<g id="a_edge27_Node000001_Node000027"><a xlink:title=" ">
<path fill="none" stroke="#63b8ff" d="M536.45,-460.38C531.86,-412.86 514.23,-298.86 448.5,-237.06 444.87,-233.65 440.65,-230.84 436.15,-228.54"/>
<polygon fill="#63b8ff" stroke="#63b8ff" points="532.94,-460.5 537.28,-470.17 539.92,-459.91 532.94,-460.5"/>
</a>
</g>
</g>
<!-- Node28 -->
<g id="Node000028" class="node">
<title>Node28</title>
<g id="a_Node000028"><a xlink:href="class_four___a_i.html#a2be9e32c580e8aa22c530ab4c9920317" target="_top" xlink:title="Minimax algorithm with alpha&#45;beta pruning.">
<polygon fill="white" stroke="#666666" points="430.12,-662.06 336.88,-662.06 336.88,-642.06 430.12,-642.06 430.12,-662.06"/>
<text xml:space="preserve" text-anchor="middle" x="383.5" y="-648.56" font-family="Helvetica,sans-Serif" font-size="10.00">Four_AI::minimax</text>
</a>
</g>
</g>
<!-- Node1&#45;&gt;Node28 -->
<g id="edge30_Node000001_Node000028" class="edge">
<title>Node1&#45;&gt;Node28</title>
<g id="a_edge30_Node000001_Node000028"><a xlink:title=" ">
<path fill="none" stroke="#63b8ff" d="M530.31,-503.09C517.8,-534.5 490.19,-593.67 448.5,-628.06 441.54,-633.8 433.08,-638.25 424.61,-641.66"/>
<polygon fill="#63b8ff" stroke="#63b8ff" points="533.5,-504.52 533.81,-493.93 526.97,-502.02 533.5,-504.52"/>
</a>
</g>
</g>
<!-- Node29 -->
<g id="Node000029" class="node">
<title>Node29</title>
<g id="a_Node000029"><a xlink:href="class_large___x_o___a_i.html#afdd4990cd58293668dc8ba9660beb31b" target="_top" xlink:title="Minimax algorithm with alpha&#45;beta pruning.">
<polygon fill="white" stroke="#666666" points="442.12,-530.06 324.88,-530.06 324.88,-510.06 442.12,-510.06 442.12,-530.06"/>
<text xml:space="preserve" text-anchor="middle" x="383.5" y="-516.56" font-family="Helvetica,sans-Serif" font-size="10.00">Large_XO_AI::minimax</text>
</a>
</g>
</g>
<!-- Node1&#45;&gt;Node29 -->
<g id="edge33_Node000001_Node000029" class="edge">
<title>Node1&#45;&gt;Node29</title>
<g id="a_edge33_Node000001_Node000029"><a xlink:title=" ">
<path fill="none" stroke="#63b8ff" d="M484.49,-495.31C465.57,-499.99 444.56,-505.19 426.71,-509.61"/>
<polygon fill="#63b8ff" stroke="#63b8ff" points="485.31,-498.71 494.18,-492.91 483.63,-491.91 485.31,-498.71"/>
</a>
</g>
</g>
<!-- Node30 -->
<g id="Node000030" class="node">
<title>Node30</title>
<g id="a_Node000030"><a xlink:href="class_memory___a_i.html#a011257fcbc9862c365fc6ffa25624aa9" target="_top" xlink:title="Minimax algorithm with alpha&#45;beta pruning.">
<polygon fill="white" stroke="#666666" points="438,-436.06 329,-436.06 329,-416.06 438,-416.06 438,-436.06"/>
<text xml:space="preserve" text-anchor="middle" x="383.5" y="-422.56" font-family="Helvetica,sans-Serif" font-size="10.00">Memory_AI::minimax</text>
</a>
</g>
</g>
<!-- Node1&#45;&gt;Node30 -->
<g id="edge36_Node000001_Node000030" class="edge">
<title>Node1&#45;&gt;Node30</title>
<g id="a_edge36_Node000001_Node000030"><a xlink:title=" ">
<path fill="none" stroke="#63b8ff" d="M498.94,-467.81C472.19,-458.05 437.31,-445.33 413.12,-436.5"/>
<polygon fill="#63b8ff" stroke="#63b8ff" points="497.47,-471 508.07,-471.14 499.87,-464.42 497.47,-471"/>
</a>
</g>
</g>
<!-- Node31 -->
<g id="Node000031" class="node">
<title>Node31</title>
<g id="a_Node000031"><a xlink:href="class_s_u_s___a_i.html#a9cd1ee590918406034aae1d0ebc43b46" target="_top" xlink:title="Minimax with alpha&#45;beta pruning.">
<polygon fill="white" stroke="#666666" points="430.88,-58.06 336.12,-58.06 336.12,-38.06 430.88,-38.06 430.88,-58.06"/>
<text xml:space="preserve" text-anchor="middle" x="383.5" y="-44.56" font-family="Helvetica,sans-Serif" font-size="10.00">SUS_AI::minimax</text>
</a>
</g>
</g>
<!-- Node1&#45;&gt;Node31 -->
<g id="edge39_Node000001_Node000031" class="edge">
<title>Node1&#45;&gt;Node31</title>
<g id="a_edge39_Node000001_Node000031"><a xlink:title=" ">
<path fill="none" stroke="#63b8ff" d="M538.47,-460.33C538.79,-397.16 532.16,-210.46 448.5,-90.06 438.72,-75.98 422.54,-65.43 408.9,-58.42"/>
<polygon fill="#63b8ff" stroke="#63b8ff" points="534.98,-460 538.35,-470.05 541.97,-460.09 534.98,-460"/>
</a>
</g>
</g>
<!-- Node32 -->
<g id="Node000032" class="node">
<title>Node32</title>
<g id="a_Node000032"><a xlink:href="class_x_o__inf___a_i.html#aa88a72848990b6506c7f4d544937837b" target="_top" xlink:title="Minimax search algorithm with alpha&#45;beta pruning.">
<polygon fill="white" stroke="#666666" points="435.38,-304.06 331.62,-304.06 331.62,-284.06 435.38,-284.06 435.38,-304.06"/>
<text xml:space="preserve" text-anchor="middle" x="383.5" y="-290.56" font-family="Helvetica,sans-Serif" font-size="10.00">XO_inf_AI::minimax</text>
</a>
</g>
</g>
<!-- Node1&#45;&gt;Node32 -->
<g id="edge42_Node000001_Node000032" class="edge">
<title>Node1&#45;&gt;Node32</title>
<g id="a_edge42_Node000001_Node000032"><a xlink:title=" ">
<path fill="none" stroke="#63b8ff" d="M529.08,-461.7C515.15,-431.61 485.94,-374.67 448.5,-336.06 435.92,-323.08 418.64,-312.04 405.21,-304.54"/>
<polygon fill="#63b8ff" stroke="#63b8ff" points="525.72,-462.77 533.02,-470.45 532.1,-459.89 525.72,-462.77"/>
</a>
</g>
</g>
<!-- Node3 -->
<g id="Node000003" class="node">
<title>Node3</title>
<g id="a_Node000003"><a xlink:href="class__4by4_x_o___u_i.html#adac352a59d82ec4c84219a2ee25bda3a" target="_top" xlink:title="Gets a move from human or AI.">
<polygon fill="white" stroke="#666666" points="277.62,-946.06 156.62,-946.06 156.62,-926.06 277.62,-926.06 277.62,-946.06"/>
<text xml:space="preserve" text-anchor="middle" x="217.12" y="-932.56" font-family="Helvetica,sans-Serif" font-size="10.00">_4by4XO_UI::get_move</text>
</a>
</g>
</g>
<!-- Node2&#45;&gt;Node3 -->
<g id="edge2_Node000002_Node000003" class="edge">
<title>Node2&#45;&gt;Node3</title>
<g id="a_edge2_Node000002_Node000003"><a xlink:title=" ">
<path fill="none" stroke="#63b8ff" d="M311.96,-936.06C300.62,-936.06 288.98,-936.06 277.93,-936.06"/>
<polygon fill="#63b8ff" stroke="#63b8ff" points="311.64,-939.56 321.64,-936.06 311.64,-932.56 311.64,-939.56"/>
</a>
</g>
</g>
<!-- Node5 -->
<g id="Node000005" class="node">
<title>Node5</title>
<g id="a_Node000005"><a xlink:href="class_anti___x_o___u_i.html#a33e3fac8bd7d6e9e26eaa1a5df1ddd6f" target="_top" xlink:title="Retrieves the next move from human or AI.">
<polygon fill="white" stroke="#666666" points="275.75,-908.06 158.5,-908.06 158.5,-888.06 275.75,-888.06 275.75,-908.06"/>
<text xml:space="preserve" text-anchor="middle" x="217.12" y="-894.56" font-family="Helvetica,sans-Serif" font-size="10.00">Anti_XO_UI::get_move</text>
</a>
</g>
</g>
<!-- Node4&#45;&gt;Node5 -->
<g id="edge4_Node000004_Node000005" class="edge">
<title>Node4&#45;&gt;Node5</title>
<g id="a_edge4_Node000004_Node000005"><a xlink:title=" ">
<path fill="none" stroke="#63b8ff" d="M323.07,-898.06C307.76,-898.06 291.3,-898.06 276.07,-898.06"/>
<polygon fill="#63b8ff" stroke="#63b8ff" points="323,-901.56 333,-898.06 323,-894.56 323,-901.56"/>
</a>
</g>
</g>
<!-- Node7 -->
<g id="Node000007" class="node">
<title>Node7</title>
<g id="a_Node000007"><a xlink:href="classdia___x_o___u_i.html#ac93aba1a10bbb189d2bc2597ccb9d7b4" target="_top" xlink:title="Obtains the next move from human or AI.">
<polygon fill="white" stroke="#666666" points="273.5,-870.06 160.75,-870.06 160.75,-850.06 273.5,-850.06 273.5,-870.06"/>
<text xml:space="preserve" text-anchor="middle" x="217.12" y="-856.56" font-family="Helvetica,sans-Serif" font-size="10.00">dia_XO_UI::get_move</text>
</a>
</g>
</g>
<!-- Node6&#45;&gt;Node7 -->
<g id="edge6_Node000006_Node000007" class="edge">
<title>Node6&#45;&gt;Node7</title>
<g id="a_edge6_Node000006_Node000007"><a xlink:title=" ">
<path fill="none" stroke="#63b8ff" d="M316.18,-860.06C302.1,-860.06 287.37,-860.06 273.73,-860.06"/>
<polygon fill="#63b8ff" stroke="#63b8ff" points="315.79,-863.56 325.79,-860.06 315.79,-856.56 315.79,-863.56"/>
</a>
</g>
</g>
<!-- Node9 -->
<g id="Node000009" class="node">
<title>Node9</title>
<g id="a_Node000009"><a xlink:href="class_f_o_u_r___u_i.html#a5b8d7e6afd5b983620fd00bf954564d7" target="_top" xlink:title="Obtains the next move from a human, computer, or AI player.">
<polygon fill="white" stroke="#666666" points="112.38,-643.06 3.38,-643.06 3.38,-623.06 112.38,-623.06 112.38,-643.06"/>
<text xml:space="preserve" text-anchor="middle" x="57.88" y="-629.56" font-family="Helvetica,sans-Serif" font-size="10.00">FOUR_UI::get_move</text>
</a>
</g>
</g>
<!-- Node8&#45;&gt;Node9 -->
<g id="edge8_Node000008_Node000009" class="edge">
<title>Node8&#45;&gt;Node9</title>
<g id="a_edge8_Node000008_Node000009"><a xlink:title=" ">
<path fill="none" stroke="#63b8ff" d="M156.02,-633.06C141.75,-633.06 126.62,-633.06 112.66,-633.06"/>
<polygon fill="#63b8ff" stroke="#63b8ff" points="155.72,-636.56 165.72,-633.06 155.72,-629.56 155.72,-636.56"/>
</a>
</g>
</g>
<!-- Node12 -->
<g id="Node000012" class="node">
<title>Node12</title>
<g id="a_Node000012"><a xlink:href="class_memory___u_i.html#ac381faa654aeb92bdba8c7356289dea2" target="_top" xlink:title="Obtains the next move from a player.">
<polygon fill="white" stroke="#666666" points="115.75,-417.06 0,-417.06 0,-397.06 115.75,-397.06 115.75,-417.06"/>
<text xml:space="preserve" text-anchor="middle" x="57.88" y="-403.56" font-family="Helvetica,sans-Serif" font-size="10.00">Memory_UI::get_move</text>
</a>
</g>
</g>
<!-- Node11&#45;&gt;Node12 -->
<g id="edge11_Node000011_Node000012" class="edge">
<title>Node11&#45;&gt;Node12</title>
<g id="a_edge11_Node000011_Node000012"><a xlink:title=" ">
<path fill="none" stroke="#63b8ff" d="M147.96,-407.06C137.33,-407.06 126.44,-407.06 116.09,-407.06"/>
<polygon fill="#63b8ff" stroke="#63b8ff" points="147.84,-410.56 157.84,-407.06 147.84,-403.56 147.84,-410.56"/>
</a>
</g>
</g>
<!-- Node13&#45;&gt;Node14 -->
<g id="edge13_Node000013_Node000014" class="edge">
<title>Node13&#45;&gt;Node14</title>
<g id="a_edge13_Node000013_Node000014"><a xlink:title=" ">
<path fill="none" stroke="#63b8ff" d="M310.06,-792.43C300.01,-793.59 289.76,-794.78 279.93,-795.92"/>
<polygon fill="#63b8ff" stroke="#63b8ff" points="310.26,-795.93 319.79,-791.31 309.45,-788.98 310.26,-795.93"/>
</a>
</g>
</g>
<!-- Node16 -->
<g id="Node000016" class="node">
<title>Node16</title>
<g id="a_Node000016"><a xlink:href="class_pyramid_x_o___u_i.html#a936b1fdabe80776e212110be108f811f" target="_top" xlink:title="Reads human move or requests AI move.">
<polygon fill="white" stroke="#666666" points="282.5,-756.06 151.75,-756.06 151.75,-736.06 282.5,-736.06 282.5,-756.06"/>
<text xml:space="preserve" text-anchor="middle" x="217.12" y="-742.56" font-family="Helvetica,sans-Serif" font-size="10.00">PyramidXO_UI::get_move</text>
</a>
</g>
</g>
<!-- Node15&#45;&gt;Node16 -->
<g id="edge15_Node000015_Node000016" class="edge">
<title>Node15&#45;&gt;Node16</title>
<g id="a_edge15_Node000015_Node000016"><a xlink:title=" ">
<path fill="none" stroke="#63b8ff" d="M306.55,-746.06C298.67,-746.06 290.71,-746.06 282.97,-746.06"/>
<polygon fill="#63b8ff" stroke="#63b8ff" points="306.49,-749.56 316.49,-746.06 306.49,-742.56 306.49,-749.56"/>
</a>
</g>
</g>
<!-- Node18 -->
<g id="Node000018" class="node">
<title>Node18</title>
<g id="a_Node000018"><a xlink:href="class_s_u_s___u_i.html#a9c7a3c09a5e18a3d89f448ea93b6dea6" target="_top" xlink:title="Retrieves the next move.">
<polygon fill="white" stroke="#666666" points="108.62,-39.06 7.12,-39.06 7.12,-19.06 108.62,-19.06 108.62,-39.06"/>
<text xml:space="preserve" text-anchor="middle" x="57.88" y="-25.56" font-family="Helvetica,sans-Serif" font-size="10.00">SUS_UI::get_move</text>
</a>
</g>
</g>
<!-- Node17&#45;&gt;Node18 -->
<g id="edge17_Node000017_Node000018" class="edge">
<title>Node17&#45;&gt;Node18</title>
<g id="a_edge17_Node000017_Node000018"><a xlink:title=" ">
<path fill="none" stroke="#63b8ff" d="M154.98,-29.06C139.8,-29.06 123.71,-29.06 109.12,-29.06"/>
<polygon fill="#63b8ff" stroke="#63b8ff" points="154.86,-32.56 164.86,-29.06 154.86,-25.56 154.86,-32.56"/>
</a>
</g>
</g>
<!-- Node20 -->
<g id="Node000020" class="node">
<title>Node20</title>
<g id="a_Node000020"><a xlink:href="class_ultimate___u_i.html#a4c3e6b4f77e281d67a946df1620ef822" target="_top" xlink:title="Retrieve the next move from a player.">
<polygon fill="white" stroke="#666666" points="275.75,-718.06 158.5,-718.06 158.5,-698.06 275.75,-698.06 275.75,-718.06"/>
<text xml:space="preserve" text-anchor="middle" x="217.12" y="-704.56" font-family="Helvetica,sans-Serif" font-size="10.00">Ultimate_UI::get_move</text>
</a>
</g>
</g>
<!-- Node19&#45;&gt;Node20 -->
<g id="edge19_Node000019_Node000020" class="edge">
<title>Node19&#45;&gt;Node20</title>
<g id="a_edge19_Node000019_Node000020"><a xlink:title=" ">
<path fill="none" stroke="#63b8ff" d="M313.69,-708.06C301.2,-708.06 288.28,-708.06 276.14,-708.06"/>
<polygon fill="#63b8ff" stroke="#63b8ff" points="313.5,-711.56 323.5,-708.06 313.5,-704.56 313.5,-711.56"/>
</a>
</g>
</g>
<!-- Node22&#45;&gt;Node23 -->
<g id="edge22_Node000022_Node000023" class="edge">
<title>Node22&#45;&gt;Node23</title>
<g id="a_edge22_Node000022_Node000023"><a xlink:title=" ">
<path fill="none" stroke="#63b8ff" d="M189.27,-277.84C156.84,-258.25 103.26,-225.88 75.98,-209.39"/>
<polygon fill="#63b8ff" stroke="#63b8ff" points="187.33,-280.75 197.7,-282.93 190.95,-274.76 187.33,-280.75"/>
</a>
</g>
</g>
<!-- Node24&#45;&gt;Node25 -->
<g id="edge24_Node000024_Node000025" class="edge">
<title>Node24&#45;&gt;Node25</title>
<g id="a_edge24_Node000024_Node000025"><a xlink:title=" ">
<path fill="none" stroke="#63b8ff" d="M310.53,-171.74C300.07,-170.53 289.38,-169.3 279.16,-168.12"/>
<polygon fill="#63b8ff" stroke="#63b8ff" points="309.92,-175.19 320.26,-172.87 310.72,-168.24 309.92,-175.19"/>
</a>
</g>
</g>
<!-- Node28&#45;&gt;Node8 -->
<g id="edge31_Node000028_Node000008" class="edge">
<title>Node28&#45;&gt;Node8</title>
<g id="a_edge31_Node000028_Node000008"><a xlink:title=" ">
<path fill="none" stroke="#63b8ff" d="M325.48,-645.47C306.47,-643.27 285.46,-640.84 267.12,-638.72"/>
<polygon fill="#63b8ff" stroke="#63b8ff" points="324.87,-648.92 335.21,-646.59 325.68,-641.97 324.87,-648.92"/>
</a>
</g>
</g>
<!-- Node28&#45;&gt;Node28 -->
<g id="edge32_Node000028_Node000028" class="edge">
<title>Node28&#45;&gt;Node28</title>
<g id="a_edge32_Node000028_Node000028"><a xlink:title=" ">
<path fill="none" stroke="#63b8ff" d="M410.98,-673.5C407.44,-677.36 398.28,-680.06 383.5,-680.06 356.47,-680.06 348.23,-671.04 358.79,-662.4"/>
<polygon fill="#63b8ff" stroke="#63b8ff" points="414.4,-672.72 408.57,-663.87 407.6,-674.42 414.4,-672.72"/>
</a>
</g>
</g>
<!-- Node29&#45;&gt;Node10 -->
<g id="edge34_Node000029_Node000010" class="edge">
<title>Node29&#45;&gt;Node10</title>
<g id="a_edge34_Node000029_Node000010"><a xlink:title=" ">
<path fill="none" stroke="#63b8ff" d="M313.35,-531.84C302,-533.77 290.31,-535.76 279.17,-537.66"/>
<polygon fill="#63b8ff" stroke="#63b8ff" points="313.79,-535.32 323.06,-530.19 312.61,-528.41 313.79,-535.32"/>
</a>
</g>
</g>
<!-- Node29&#45;&gt;Node29 -->
<g id="edge35_Node000029_Node000029" class="edge">
<title>Node29&#45;&gt;Node29</title>
<g id="a_edge35_Node000029_Node000029"><a xlink:title=" ">
<path fill="none" stroke="#63b8ff" d="M410.98,-541.5C407.44,-545.36 398.28,-548.06 383.5,-548.06 356.47,-548.06 348.23,-539.04 358.79,-530.4"/>
<polygon fill="#63b8ff" stroke="#63b8ff" points="414.4,-540.72 408.57,-531.87 407.6,-542.42 414.4,-540.72"/>
</a>
</g>
</g>
<!-- Node30&#45;&gt;Node11 -->
<g id="edge37_Node000030_Node000011" class="edge">
<title>Node30&#45;&gt;Node11</title>
<g id="a_edge37_Node000030_Node000011"><a xlink:title=" ">
<path fill="none" stroke="#63b8ff" d="M317.56,-418.55C303.46,-416.92 288.65,-415.21 274.89,-413.62"/>
<polygon fill="#63b8ff" stroke="#63b8ff" points="316.84,-421.99 327.17,-419.66 317.64,-415.04 316.84,-421.99"/>
</a>
</g>
</g>
<!-- Node30&#45;&gt;Node30 -->
<g id="edge38_Node000030_Node000030" class="edge">
<title>Node30&#45;&gt;Node30</title>
<g id="a_edge38_Node000030_Node000030"><a xlink:title=" ">
<path fill="none" stroke="#63b8ff" d="M410.98,-447.5C407.44,-451.36 398.28,-454.06 383.5,-454.06 356.47,-454.06 348.23,-445.04 358.79,-436.4"/>
<polygon fill="#63b8ff" stroke="#63b8ff" points="414.4,-446.72 408.57,-437.87 407.6,-448.42 414.4,-446.72"/>
</a>
</g>
</g>
<!-- Node31&#45;&gt;Node17 -->
<g id="edge40_Node000031_Node000017" class="edge">
<title>Node31&#45;&gt;Node17</title>
<g id="a_edge40_Node000031_Node000017"><a xlink:title=" ">
<path fill="none" stroke="#63b8ff" d="M324.56,-41.36C306.02,-39.22 285.67,-36.87 267.78,-34.8"/>
<polygon fill="#63b8ff" stroke="#63b8ff" points="324,-44.82 334.33,-42.49 324.8,-37.87 324,-44.82"/>
</a>
</g>
</g>
<!-- Node31&#45;&gt;Node31 -->
<g id="edge41_Node000031_Node000031" class="edge">
<title>Node31&#45;&gt;Node31</title>
<g id="a_edge41_Node000031_Node000031"><a xlink:title=" ">
<path fill="none" stroke="#63b8ff" d="M410.98,-69.5C407.44,-73.36 398.28,-76.06 383.5,-76.06 356.47,-76.06 348.23,-67.04 358.79,-58.4"/>
<polygon fill="#63b8ff" stroke="#63b8ff" points="414.4,-68.72 408.57,-59.87 407.6,-70.42 414.4,-68.72"/>
</a>
</g>
</g>
<!-- Node32&#45;&gt;Node22 -->
<g id="edge43_Node000032_Node000022" class="edge">
<title>Node32&#45;&gt;Node22</title>
<g id="a_edge43_Node000032_Node000022"><a xlink:title=" ">
<path fill="none" stroke="#63b8ff" d="M320.15,-294.06C304.41,-294.06 287.64,-294.06 272.33,-294.06"/>
<polygon fill="#63b8ff" stroke="#63b8ff" points="319.88,-297.56 329.88,-294.06 319.88,-290.56 319.88,-297.56"/>
</a>
</g>
</g>
<!-- Node32&#45;&gt;Node32 -->
<g id="edge44_Node000032_Node000032" class="edge">
<title>Node32&#45;&gt;Node32</title>
<g id="a_edge44_Node000032_Node000032"><a xlink:title=" ">
<path fill="none" stroke="#63b8ff" d="M410.98,-315.5C407.44,-319.36 398.28,-322.06 383.5,-322.06 356.47,-322.06 348.23,-313.04 358.79,-304.4"/>
<polygon fill="#63b8ff" stroke="#63b8ff" points="414.4,-314.72 408.57,-305.87 407.6,-316.42 414.4,-314.72"/>
</a>
</g>
</g>
</g>
</svg>
