<?xml version="1.0" encoding="UTF-8" standalone="no"?>
<!DOCTYPE svg PUBLIC "-//W3C//DTD SVG 1.1//EN"
 "http://www.w3.org/Graphics/SVG/1.1/DTD/svg11.dtd">
<!-- Generated by graphviz version 14.0.2 (20251019.1705)
 -->
<!-- Title: FOUR_Board::is_win Pages: 1 -->
<svg width="446pt" height="47pt"
 viewBox="0.00 0.00 446.00 47.00" xmlns="http://www.w3.org/2000/svg" xmlns:xlink="http://www.w3.org/1999/xlink">
<g id="graph0" class="graph" transform="scale(1 1) rotate(0) translate(4 43)">
<title>FOUR_Board::is_win</title>
<!-- Node1 -->
<g id="Node000001" class="node">
<title>Node1</title>
<g id="a_Node000001"><a xlink:title="Checks whether the given player has won.">
<polygon fill="#999999" stroke="#666666" points="438,-39 329,-39 329,-19 438,-19 438,-39"/>
<text xml:space="preserve" text-anchor="middle" x="383.5" y="-25.5" font-family="Helvetica,sans-Serif" font-size="10.00">FOUR_Board::is_win</text>
</a>
</g>
</g>
<!-- Node2 -->
<g id="Node000002" class="node">
<title>Node2</title>
<g id="a_Node000002"><a xlink:href="class_f_o_u_r___board.html#abf54bfccabc104a9845e7f204285acf6" target="_top" xlink:title="Checks whether the game is over (win or draw).">
<polygon fill="white" stroke="#666666" points="142,-39 0,-39 0,-19 142,-19 142,-39"/>
<text xml:space="preserve" text-anchor="middle" x="71" y="-25.5" font-family="Helvetica,sans-Serif" font-size="10.00">FOUR_Board::game_is_over</text>
</a>
</g>
</g>
<!-- Node1&#45;&gt;Node2 -->
<g id="edge1_Node000001_Node000002" class="edge">
<title>Node1&#45;&gt;Node2</title>
<g id="a_edge1_Node000001_Node000002"><a xlink:title=" ">
<path fill="none" stroke="#63b8ff" d="M317.5,-29C266.23,-29 194.83,-29 142.25,-29"/>
<polygon fill="#63b8ff" stroke="#63b8ff" points="317.26,-32.5 327.26,-29 317.26,-25.5 317.26,-32.5"/>
</a>
</g>
</g>
<!-- Node3 -->
<g id="Node000003" class="node">
<title>Node3</title>
<g id="a_Node000003"><a xlink:href="class_f_o_u_r___board.html#a85921de4da3bb3dba9dae1a21fc4bc5f" target="_top" xlink:title="Checks whether the game ended in a draw.">
<polygon fill="white" stroke="#666666" points="293,-20 178,-20 178,0 293,0 293,-20"/>
<text xml:space="preserve" text-anchor="middle" x="235.5" y="-6.5" font-family="Helvetica,sans-Serif" font-size="10.00">FOUR_Board::is_draw</text>
</a>
</g>
</g>
<!-- Node1&#45;&gt;Node3 -->
<g id="edge2_Node000001_Node000003" class="edge">
<title>Node1&#45;&gt;Node3</title>
<g id="a_edge2_Node000001_Node000003"><a xlink:title=" ">
<path fill="none" stroke="#63b8ff" d="M317.3,-20.51C309.25,-19.47 301.07,-18.4 293.16,-17.37"/>
<polygon fill="#63b8ff" stroke="#63b8ff" points="316.68,-23.96 327.05,-21.78 317.58,-17.02 316.68,-23.96"/>
</a>
</g>
</g>
<!-- Node3&#45;&gt;Node2 -->
<g id="edge3_Node000003_Node000002" class="edge">
<title>Node3&#45;&gt;Node2</title>
<g id="a_edge3_Node000003_Node000002"><a xlink:title=" ">
<path fill="none" stroke="#63b8ff" d="M166.49,-17.95C158.47,-18.89 150.28,-19.85 142.24,-20.79"/>
<polygon fill="#63b8ff" stroke="#63b8ff" points="166.64,-21.46 176.16,-16.82 165.82,-14.51 166.64,-21.46"/>
</a>
</g>
</g>
</g>
</svg>
