<?xml version="1.0" encoding="UTF-8" standalone="no"?>
<!DOCTYPE svg PUBLIC "-//W3C//DTD SVG 1.1//EN"
 "http://www.w3.org/Graphics/SVG/1.1/DTD/svg11.dtd">
<!-- Generated by graphviz version 14.0.2 (20251019.1705)
 -->
<!-- Title: Matrix::operator* Pages: 1 -->
<svg width="327pt" height="66pt"
 viewBox="0.00 0.00 327.00 66.00" xmlns="http://www.w3.org/2000/svg" xmlns:xlink="http://www.w3.org/1999/xlink">
<g id="graph0" class="graph" transform="scale(1 1) rotate(0) translate(4 62)">
<title>Matrix::operator*</title>
<!-- Node1 -->
<g id="Node000001" class="node">
<title>Node1</title>
<g id="a_Node000001"><a xlink:title="Right&#45;hand matrix multiplication: C = A * B.">
<polygon fill="#999999" stroke="#666666" points="88,-39 0,-39 0,-19 88,-19 88,-39"/>
<text xml:space="preserve" text-anchor="middle" x="44" y="-25.5" font-family="Helvetica,sans-Serif" font-size="10.00">Matrix::operator*</text>
</a>
</g>
</g>
<!-- Node2 -->
<g id="Node000002" class="node">
<title>Node2</title>
<g id="a_Node000002"><a xlink:href="$class_matrix.html#a500ba010dab4b9ee8e0d1b6f73fcd926" xlink:title="Construct a matrix of size (rows x cols).">
<polygon fill="white" stroke="#666666" points="318.75,-58 242.75,-58 242.75,-38 318.75,-38 318.75,-58"/>
<text xml:space="preserve" text-anchor="middle" x="280.75" y="-44.5" font-family="Helvetica,sans-Serif" font-size="10.00">Matrix::Matrix</text>
</a>
</g>
</g>
<!-- Node1&#45;&gt;Node2 -->
<g id="edge1_Node000001_Node000002" class="edge">
<title>Node1&#45;&gt;Node2</title>
<g id="a_edge1_Node000001_Node000002"><a xlink:title=" ">
<path fill="none" stroke="#63b8ff" d="M88.33,-32.51C128.78,-35.78 189.05,-40.66 231.12,-44.06"/>
<polygon fill="#63b8ff" stroke="#63b8ff" points="230.71,-47.54 240.96,-44.86 231.28,-40.57 230.71,-47.54"/>
</a>
</g>
</g>
<!-- Node3 -->
<g id="Node000003" class="node">
<title>Node3</title>
<g id="a_Node000003"><a xlink:href="$class_matrix.html#a79fa5a3893939d8b399f86c6c1ff15a7" xlink:title="Optimized matrix multiplication into a preallocated matrix.">
<polygon fill="white" stroke="#666666" points="206.75,-20 124,-20 124,0 206.75,0 206.75,-20"/>
<text xml:space="preserve" text-anchor="middle" x="165.38" y="-6.5" font-family="Helvetica,sans-Serif" font-size="10.00">Matrix::multiply</text>
</a>
</g>
</g>
<!-- Node1&#45;&gt;Node3 -->
<g id="edge2_Node000001_Node000003" class="edge">
<title>Node1&#45;&gt;Node3</title>
<g id="a_edge2_Node000001_Node000003"><a xlink:title=" ">
<path fill="none" stroke="#63b8ff" d="M88.43,-22.09C96.23,-20.85 104.42,-19.54 112.43,-18.27"/>
<polygon fill="#63b8ff" stroke="#63b8ff" points="112.74,-21.76 122.06,-16.73 111.64,-14.85 112.74,-21.76"/>
</a>
</g>
</g>
<!-- Node3&#45;&gt;Node2 -->
<g id="edge3_Node000003_Node000002" class="edge">
<title>Node3&#45;&gt;Node2</title>
<g id="a_edge3_Node000003_Node000002"><a xlink:title=" ">
<path fill="none" stroke="#63b8ff" d="M197.66,-20.48C210.05,-24.64 224.48,-29.48 237.76,-33.93"/>
<polygon fill="#63b8ff" stroke="#63b8ff" points="236.54,-37.21 247.14,-37.07 238.77,-30.57 236.54,-37.21"/>
</a>
</g>
</g>
<!-- Node4 -->
<g id="Node000004" class="node">
<title>Node4</title>
<g id="a_Node000004"><a xlink:href="$class_matrix.html#afc76f95218a395ba7d12e2831d282acf" xlink:title="Resize matrix to (r x c) and reset all elements to zero.">
<polygon fill="white" stroke="#666666" points="318.38,-20 243.12,-20 243.12,0 318.38,0 318.38,-20"/>
<text xml:space="preserve" text-anchor="middle" x="280.75" y="-6.5" font-family="Helvetica,sans-Serif" font-size="10.00">Matrix::resize</text>
</a>
</g>
</g>
<!-- Node3&#45;&gt;Node4 -->
<g id="edge4_Node000003_Node000004" class="edge">
<title>Node3&#45;&gt;Node4</title>
<g id="a_edge4_Node000003_Node000004"><a xlink:title=" ">
<path fill="none" stroke="#63b8ff" d="M206.99,-10C214.93,-10 223.34,-10 231.5,-10"/>
<polygon fill="#63b8ff" stroke="#63b8ff" points="231.3,-13.5 241.3,-10 231.3,-6.5 231.3,-13.5"/>
</a>
</g>
</g>
</g>
</svg>
