<?xml version="1.0" encoding="UTF-8" standalone="no"?>
<!DOCTYPE svg PUBLIC "-//W3C//DTD SVG 1.1//EN"
 "http://www.w3.org/Graphics/SVG/1.1/DTD/svg11.dtd">
<!-- Generated by graphviz version 14.0.2 (20251019.1705)
 -->
<!-- Title: PyramidXO_AI::bestMove Pages: 1 -->
<svg width="283pt" height="66pt"
 viewBox="0.00 0.00 283.00 66.00" xmlns="http://www.w3.org/2000/svg" xmlns:xlink="http://www.w3.org/1999/xlink">
<g id="graph0" class="graph" transform="scale(1 1) rotate(0) translate(4 62)">
<title>PyramidXO_AI::bestMove</title>
<!-- Node1 -->
<g id="Node000001" class="node">
<title>Node1</title>
<g id="a_Node000001"><a xlink:title="Generates a random valid move within the pyramid.">
<polygon fill="#999999" stroke="#666666" points="130,-39 0,-39 0,-19 130,-19 130,-39"/>
<text xml:space="preserve" text-anchor="middle" x="65" y="-25.5" font-family="Helvetica,sans-Serif" font-size="10.00">PyramidXO_AI::bestMove</text>
</a>
</g>
</g>
<!-- Node2 -->
<g id="Node000002" class="node">
<title>Node2</title>
<g id="a_Node000002"><a xlink:href="$class_player.html#a508617eddfae8915d098102d480fc888" xlink:title="Get a pointer to the game board.">
<polygon fill="white" stroke="#666666" points="275,-58 166,-58 166,-38 275,-38 275,-58"/>
<text xml:space="preserve" text-anchor="middle" x="220.5" y="-44.5" font-family="Helvetica,sans-Serif" font-size="10.00">Player::get_board_ptr</text>
</a>
</g>
</g>
<!-- Node1&#45;&gt;Node2 -->
<g id="edge1_Node000001_Node000002" class="edge">
<title>Node1&#45;&gt;Node2</title>
<g id="a_edge1_Node000001_Node000002"><a xlink:title=" ">
<path fill="none" stroke="#63b8ff" d="M130.21,-36.95C138.25,-37.94 146.48,-38.96 154.53,-39.96"/>
<polygon fill="#63b8ff" stroke="#63b8ff" points="153.9,-43.41 164.26,-41.16 154.76,-36.46 153.9,-43.41"/>
</a>
</g>
</g>
<!-- Node3 -->
<g id="Node000003" class="node">
<title>Node3</title>
<g id="a_Node000003"><a xlink:href="$class_player.html#af56f0bf98c0423a3a75b0848607d03a4" xlink:title="Get the player&#39;s symbol.">
<polygon fill="white" stroke="#666666" points="270.5,-20 170.5,-20 170.5,0 270.5,0 270.5,-20"/>
<text xml:space="preserve" text-anchor="middle" x="220.5" y="-6.5" font-family="Helvetica,sans-Serif" font-size="10.00">Player::get_symbol</text>
</a>
</g>
</g>
<!-- Node1&#45;&gt;Node3 -->
<g id="edge2_Node000001_Node000003" class="edge">
<title>Node1&#45;&gt;Node3</title>
<g id="a_edge2_Node000001_Node000003"><a xlink:title=" ">
<path fill="none" stroke="#63b8ff" d="M130.21,-21.05C139.67,-19.88 149.39,-18.68 158.78,-17.52"/>
<polygon fill="#63b8ff" stroke="#63b8ff" points="159.03,-21.01 168.53,-16.31 158.17,-14.06 159.03,-21.01"/>
</a>
</g>
</g>
</g>
</svg>
