<?xml version="1.0" encoding="UTF-8" standalone="no"?>
<!DOCTYPE svg PUBLIC "-//W3C//DTD SVG 1.1//EN"
 "http://www.w3.org/Graphics/SVG/1.1/DTD/svg11.dtd">
<!-- Generated by graphviz version 14.0.2 (20251019.1705)
 -->
<!-- Title: Obstacles_Board::update_board Pages: 1 -->
<svg width="524pt" height="142pt"
 viewBox="0.00 0.00 524.00 142.00" xmlns="http://www.w3.org/2000/svg" xmlns:xlink="http://www.w3.org/1999/xlink">
<g id="graph0" class="graph" transform="scale(1 1) rotate(0) translate(4 138)">
<title>Obstacles_Board::update_board</title>
<!-- Node1 -->
<g id="Node000001" class="node">
<title>Node1</title>
<g id="a_Node000001"><a xlink:title="Applies a Move&lt;char&gt; object to the board.">
<polygon fill="#999999" stroke="#666666" points="126.25,-83 0,-83 0,-51 126.25,-51 126.25,-83"/>
<text xml:space="preserve" text-anchor="start" x="8" y="-69.5" font-family="Helvetica,sans-Serif" font-size="10.00">Obstacles_Board::update</text>
<text xml:space="preserve" text-anchor="middle" x="63.12" y="-57.5" font-family="Helvetica,sans-Serif" font-size="10.00">_board</text>
</a>
</g>
</g>
<!-- Node2 -->
<g id="Node000002" class="node">
<title>Node2</title>
<g id="a_Node000002"><a xlink:href="$class_move.html#a595bf740852c05a1cb425ef2640fd4ff" xlink:title="Get the move symbol.">
<polygon fill="white" stroke="#666666" points="282.12,-134 185.88,-134 185.88,-114 282.12,-114 282.12,-134"/>
<text xml:space="preserve" text-anchor="middle" x="234" y="-120.5" font-family="Helvetica,sans-Serif" font-size="10.00">Move::get_symbol</text>
</a>
</g>
</g>
<!-- Node1&#45;&gt;Node2 -->
<g id="edge1_Node000001_Node000002" class="edge">
<title>Node1&#45;&gt;Node2</title>
<g id="a_edge1_Node000001_Node000002"><a xlink:title=" ">
<path fill="none" stroke="#63b8ff" d="M103.4,-83.32C121.21,-90.43 142.63,-98.59 162.25,-105 168.07,-106.9 174.2,-108.76 180.32,-110.52"/>
<polygon fill="#63b8ff" stroke="#63b8ff" points="179.22,-113.85 189.8,-113.18 181.11,-107.11 179.22,-113.85"/>
</a>
</g>
</g>
<!-- Node3 -->
<g id="Node000003" class="node">
<title>Node3</title>
<g id="a_Node000003"><a xlink:href="$class_move.html#a9d4f543a81e361f872d37bcfb64d5b55" xlink:title="Get row index.">
<polygon fill="white" stroke="#666666" points="269,-96 199,-96 199,-76 269,-76 269,-96"/>
<text xml:space="preserve" text-anchor="middle" x="234" y="-82.5" font-family="Helvetica,sans-Serif" font-size="10.00">Move::get_x</text>
</a>
</g>
</g>
<!-- Node1&#45;&gt;Node3 -->
<g id="edge2_Node000001_Node000003" class="edge">
<title>Node1&#45;&gt;Node3</title>
<g id="a_edge2_Node000001_Node000003"><a xlink:title=" ">
<path fill="none" stroke="#63b8ff" d="M126.53,-74.02C146.76,-76.3 168.8,-78.78 187.56,-80.89"/>
<polygon fill="#63b8ff" stroke="#63b8ff" points="186.93,-84.34 197.26,-81.98 187.72,-77.38 186.93,-84.34"/>
</a>
</g>
</g>
<!-- Node4 -->
<g id="Node000004" class="node">
<title>Node4</title>
<g id="a_Node000004"><a xlink:href="$class_move.html#a96469802a55c9083a1e93c7edec8a00c" xlink:title="Get column index.">
<polygon fill="white" stroke="#666666" points="269,-58 199,-58 199,-38 269,-38 269,-58"/>
<text xml:space="preserve" text-anchor="middle" x="234" y="-44.5" font-family="Helvetica,sans-Serif" font-size="10.00">Move::get_y</text>
</a>
</g>
</g>
<!-- Node1&#45;&gt;Node4 -->
<g id="edge3_Node000001_Node000004" class="edge">
<title>Node1&#45;&gt;Node4</title>
<g id="a_edge3_Node000001_Node000004"><a xlink:title=" ">
<path fill="none" stroke="#63b8ff" d="M126.53,-59.98C146.76,-57.7 168.8,-55.22 187.56,-53.11"/>
<polygon fill="#63b8ff" stroke="#63b8ff" points="187.72,-56.62 197.26,-52.02 186.93,-49.66 187.72,-56.62"/>
</a>
</g>
</g>
<!-- Node5 -->
<g id="Node000005" class="node">
<title>Node5</title>
<g id="a_Node000005"><a xlink:href="$class_obstacles___board.html#a6ffa3be3e7a967293e98834c04e93955" xlink:title="Attempts to place symbol s at (r, c).">
<polygon fill="white" stroke="#666666" points="305.75,-20 162.25,-20 162.25,0 305.75,0 305.75,-20"/>
<text xml:space="preserve" text-anchor="middle" x="234" y="-6.5" font-family="Helvetica,sans-Serif" font-size="10.00">Obstacles_Board::updateCell</text>
</a>
</g>
</g>
<!-- Node1&#45;&gt;Node5 -->
<g id="edge4_Node000001_Node000005" class="edge">
<title>Node1&#45;&gt;Node5</title>
<g id="a_edge4_Node000001_Node000005"><a xlink:title=" ">
<path fill="none" stroke="#63b8ff" d="M103.4,-50.68C121.21,-43.57 142.63,-35.41 162.25,-29 168.07,-27.1 174.2,-25.24 180.32,-23.48"/>
<polygon fill="#63b8ff" stroke="#63b8ff" points="181.11,-26.89 189.8,-20.82 179.22,-20.15 181.11,-26.89"/>
</a>
</g>
</g>
<!-- Node6 -->
<g id="Node000006" class="node">
<title>Node6</title>
<g id="a_Node000006"><a xlink:href="$class_obstacles___board.html#adb1a8948e269860fabdae535c6418972" xlink:title="Returns a list of all legal moves.">
<polygon fill="white" stroke="#666666" points="516,-20 341.75,-20 341.75,0 516,0 516,-20"/>
<text xml:space="preserve" text-anchor="middle" x="428.88" y="-6.5" font-family="Helvetica,sans-Serif" font-size="10.00">Obstacles_Board::getAvailableMove</text>
</a>
</g>
</g>
<!-- Node5&#45;&gt;Node6 -->
<g id="edge5_Node000005_Node000006" class="edge">
<title>Node5&#45;&gt;Node6</title>
<g id="a_edge5_Node000005_Node000006"><a xlink:title=" ">
<path fill="none" stroke="#63b8ff" d="M306,-10C313.81,-10 321.86,-10 329.93,-10"/>
<polygon fill="#63b8ff" stroke="#63b8ff" points="329.8,-13.5 339.8,-10 329.8,-6.5 329.8,-13.5"/>
</a>
</g>
</g>
</g>
</svg>
