<?xml version="1.0" encoding="UTF-8" standalone="no"?>
<!DOCTYPE svg PUBLIC "-//W3C//DTD SVG 1.1//EN"
 "http://www.w3.org/Graphics/SVG/1.1/DTD/svg11.dtd">
<!-- Generated by graphviz version 14.0.2 (20251019.1705)
 -->
<!-- Title: XO_NUM_UI::get_move Pages: 1 -->
<svg width="435pt" height="123pt"
 viewBox="0.00 0.00 435.00 123.00" xmlns="http://www.w3.org/2000/svg" xmlns:xlink="http://www.w3.org/1999/xlink">
<g id="graph0" class="graph" transform="scale(1 1) rotate(0) translate(4 119)">
<title>XO_NUM_UI::get_move</title>
<!-- Node1 -->
<g id="Node000001" class="node">
<title>Node1</title>
<g id="a_Node000001"><a xlink:title="Get the next move.">
<polygon fill="#999999" stroke="#666666" points="123.25,-77 0,-77 0,-57 123.25,-57 123.25,-77"/>
<text xml:space="preserve" text-anchor="middle" x="61.62" y="-63.5" font-family="Helvetica,sans-Serif" font-size="10.00">XO_NUM_UI::get_move</text>
</a>
</g>
</g>
<!-- Node2 -->
<g id="Node000002" class="node">
<title>Node2</title>
<g id="a_Node000002"><a xlink:href="class_x_o___n_u_m___a_i.html#a199156c4313be371ad60e780e7f88834" target="_top" xlink:title="Compute the best move.">
<polygon fill="white" stroke="#666666" points="281.75,-96 159.25,-96 159.25,-76 281.75,-76 281.75,-96"/>
<text xml:space="preserve" text-anchor="middle" x="220.5" y="-82.5" font-family="Helvetica,sans-Serif" font-size="10.00">XO_NUM_AI::bestMove</text>
</a>
</g>
</g>
<!-- Node1&#45;&gt;Node2 -->
<g id="edge1_Node000001_Node000002" class="edge">
<title>Node1&#45;&gt;Node2</title>
<g id="a_edge1_Node000001_Node000002"><a xlink:title=" ">
<path fill="none" stroke="#63b8ff" d="M123.73,-74.4C131.56,-75.35 139.64,-76.33 147.63,-77.3"/>
<polygon fill="#63b8ff" stroke="#63b8ff" points="146.97,-80.74 157.32,-78.47 147.81,-73.79 146.97,-80.74"/>
</a>
</g>
</g>
<!-- Node3 -->
<g id="Node000003" class="node">
<title>Node3</title>
<g id="a_Node000003"><a xlink:href="class_player.html#a508617eddfae8915d098102d480fc888" target="_top" xlink:title="Get a pointer to the game board.">
<polygon fill="white" stroke="#666666" points="426.75,-115 317.75,-115 317.75,-95 426.75,-95 426.75,-115"/>
<text xml:space="preserve" text-anchor="middle" x="372.25" y="-101.5" font-family="Helvetica,sans-Serif" font-size="10.00">Player::get_board_ptr</text>
</a>
</g>
</g>
<!-- Node1&#45;&gt;Node3 -->
<g id="edge4_Node000001_Node000003" class="edge">
<title>Node1&#45;&gt;Node3</title>
<g id="a_edge4_Node000001_Node000003"><a xlink:title=" ">
<path fill="none" stroke="#63b8ff" d="M82.69,-77.47C101.78,-86.8 131.62,-99.76 159.25,-105 207.94,-114.23 264.07,-113.75 306.33,-111.22"/>
<polygon fill="#63b8ff" stroke="#63b8ff" points="306.33,-114.73 316.08,-110.58 305.87,-107.74 306.33,-114.73"/>
</a>
</g>
</g>
<!-- Node4 -->
<g id="Node000004" class="node">
<title>Node4</title>
<g id="a_Node000004"><a xlink:href="class_player.html#af56f0bf98c0423a3a75b0848607d03a4" target="_top" xlink:title="Get the player&#39;s symbol.">
<polygon fill="white" stroke="#666666" points="422.25,-77 322.25,-77 322.25,-57 422.25,-57 422.25,-77"/>
<text xml:space="preserve" text-anchor="middle" x="372.25" y="-63.5" font-family="Helvetica,sans-Serif" font-size="10.00">Player::get_symbol</text>
</a>
</g>
</g>
<!-- Node1&#45;&gt;Node4 -->
<g id="edge5_Node000001_Node000004" class="edge">
<title>Node1&#45;&gt;Node4</title>
<g id="a_edge5_Node000001_Node000004"><a xlink:title=" ">
<path fill="none" stroke="#63b8ff" d="M123.6,-67C177.77,-67 256.52,-67 310.6,-67"/>
<polygon fill="#63b8ff" stroke="#63b8ff" points="310.57,-70.5 320.57,-67 310.57,-63.5 310.57,-70.5"/>
</a>
</g>
</g>
<!-- Node5 -->
<g id="Node000005" class="node">
<title>Node5</title>
<g id="a_Node000005"><a xlink:href="class_player.html#a2df3bd299bf7aecfa2275ec6902a60f8" target="_top" xlink:title="Get player type (e.g., &#39;H&#39; or &#39;C&#39;).">
<polygon fill="white" stroke="#666666" points="264.12,-20 176.88,-20 176.88,0 264.12,0 264.12,-20"/>
<text xml:space="preserve" text-anchor="middle" x="220.5" y="-6.5" font-family="Helvetica,sans-Serif" font-size="10.00">Player::get_type</text>
</a>
</g>
</g>
<!-- Node1&#45;&gt;Node5 -->
<g id="edge6_Node000001_Node000005" class="edge">
<title>Node1&#45;&gt;Node5</title>
<g id="a_edge6_Node000001_Node000005"><a xlink:title=" ">
<path fill="none" stroke="#63b8ff" d="M91.4,-56.55C116.31,-47.49 152.57,-34.32 180.16,-24.29"/>
<polygon fill="#63b8ff" stroke="#63b8ff" points="181.02,-27.71 189.22,-21 178.63,-21.13 181.02,-27.71"/>
</a>
</g>
</g>
<!-- Node2&#45;&gt;Node3 -->
<g id="edge2_Node000002_Node000003" class="edge">
<title>Node2&#45;&gt;Node3</title>
<g id="a_edge2_Node000002_Node000003"><a xlink:title=" ">
<path fill="none" stroke="#63b8ff" d="M281.98,-93.67C289.92,-94.68 298.09,-95.72 306.11,-96.74"/>
<polygon fill="#63b8ff" stroke="#63b8ff" points="305.44,-100.18 315.8,-97.97 306.32,-93.23 305.44,-100.18"/>
</a>
</g>
</g>
<!-- Node2&#45;&gt;Node4 -->
<g id="edge3_Node000002_Node000004" class="edge">
<title>Node2&#45;&gt;Node4</title>
<g id="a_edge3_Node000002_Node000004"><a xlink:title=" ">
<path fill="none" stroke="#63b8ff" d="M281.98,-78.33C291.44,-77.13 301.23,-75.88 310.69,-74.68"/>
<polygon fill="#63b8ff" stroke="#63b8ff" points="311.06,-78.17 320.54,-73.43 310.18,-71.22 311.06,-78.17"/>
</a>
</g>
</g>
</g>
</svg>
