<?xml version="1.0" encoding="UTF-8" standalone="no"?>
<!DOCTYPE svg PUBLIC "-//W3C//DTD SVG 1.1//EN"
 "http://www.w3.org/Graphics/SVG/1.1/DTD/svg11.dtd">
<!-- Generated by graphviz version 14.0.2 (20251019.1705)
 -->
<!-- Title: dia_XO_AI::bestMove Pages: 1 -->
<svg width="265pt" height="66pt"
 viewBox="0.00 0.00 265.00 66.00" xmlns="http://www.w3.org/2000/svg" xmlns:xlink="http://www.w3.org/1999/xlink">
<g id="graph0" class="graph" transform="scale(1 1) rotate(0) translate(4 62)">
<title>dia_XO_AI::bestMove</title>
<!-- Node1 -->
<g id="Node000001" class="node">
<title>Node1</title>
<g id="a_Node000001"><a xlink:title="Picks a random free cell for AI.">
<polygon fill="#999999" stroke="#666666" points="112,-39 0,-39 0,-19 112,-19 112,-39"/>
<text xml:space="preserve" text-anchor="middle" x="56" y="-25.5" font-family="Helvetica,sans-Serif" font-size="10.00">dia_XO_AI::bestMove</text>
</a>
</g>
</g>
<!-- Node2 -->
<g id="Node000002" class="node">
<title>Node2</title>
<g id="a_Node000002"><a xlink:href="class_player.html#a508617eddfae8915d098102d480fc888" target="_top" xlink:title="Get a pointer to the game board.">
<polygon fill="white" stroke="#666666" points="257,-58 148,-58 148,-38 257,-38 257,-58"/>
<text xml:space="preserve" text-anchor="middle" x="202.5" y="-44.5" font-family="Helvetica,sans-Serif" font-size="10.00">Player::get_board_ptr</text>
</a>
</g>
</g>
<!-- Node1&#45;&gt;Node2 -->
<g id="edge1_Node000001_Node000002" class="edge">
<title>Node1&#45;&gt;Node2</title>
<g id="a_edge1_Node000001_Node000002"><a xlink:title=" ">
<path fill="none" stroke="#63b8ff" d="M112.45,-36.29C120.35,-37.33 128.53,-38.41 136.59,-39.47"/>
<polygon fill="#63b8ff" stroke="#63b8ff" points="135.99,-42.92 146.36,-40.75 136.9,-35.98 135.99,-42.92"/>
</a>
</g>
</g>
<!-- Node3 -->
<g id="Node000003" class="node">
<title>Node3</title>
<g id="a_Node000003"><a xlink:href="class_player.html#af56f0bf98c0423a3a75b0848607d03a4" target="_top" xlink:title="Get the player&#39;s symbol.">
<polygon fill="white" stroke="#666666" points="252.5,-20 152.5,-20 152.5,0 252.5,0 252.5,-20"/>
<text xml:space="preserve" text-anchor="middle" x="202.5" y="-6.5" font-family="Helvetica,sans-Serif" font-size="10.00">Player::get_symbol</text>
</a>
</g>
</g>
<!-- Node1&#45;&gt;Node3 -->
<g id="edge2_Node000001_Node000003" class="edge">
<title>Node1&#45;&gt;Node3</title>
<g id="a_edge2_Node000001_Node000003"><a xlink:title=" ">
<path fill="none" stroke="#63b8ff" d="M112.45,-21.71C121.73,-20.49 131.4,-19.22 140.81,-17.98"/>
<polygon fill="#63b8ff" stroke="#63b8ff" points="141.14,-21.47 150.6,-16.69 140.23,-14.53 141.14,-21.47"/>
</a>
</g>
</g>
</g>
</svg>
