<?xml version="1.0" encoding="UTF-8" standalone="no"?>
<!DOCTYPE svg PUBLIC "-//W3C//DTD SVG 1.1//EN"
 "http://www.w3.org/Graphics/SVG/1.1/DTD/svg11.dtd">
<!-- Generated by graphviz version 14.0.2 (20251019.1705)
 -->
<!-- Title: SUS_AI::isMovesLeft Pages: 1 -->
<svg width="524pt" height="46pt"
 viewBox="0.00 0.00 524.00 46.00" xmlns="http://www.w3.org/2000/svg" xmlns:xlink="http://www.w3.org/1999/xlink">
<g id="graph0" class="graph" transform="scale(1 1) rotate(0) translate(4 42)">
<title>SUS_AI::isMovesLeft</title>
<!-- Node1 -->
<g id="Node000001" class="node">
<title>Node1</title>
<g id="a_Node000001"><a xlink:title="Checks if any empty cells remain.">
<polygon fill="#999999" stroke="#666666" points="516.25,-20 405,-20 405,0 516.25,0 516.25,-20"/>
<text xml:space="preserve" text-anchor="middle" x="460.62" y="-6.5" font-family="Helvetica,sans-Serif" font-size="10.00">SUS_AI::isMovesLeft</text>
</a>
</g>
</g>
<!-- Node2 -->
<g id="Node000002" class="node">
<title>Node2</title>
<g id="a_Node000002"><a xlink:href="class_s_u_s___a_i.html#a9cd1ee590918406034aae1d0ebc43b46" target="_top" xlink:title="Minimax with alpha&#45;beta pruning.">
<polygon fill="white" stroke="#666666" points="369,-20 274.25,-20 274.25,0 369,0 369,-20"/>
<text xml:space="preserve" text-anchor="middle" x="321.62" y="-6.5" font-family="Helvetica,sans-Serif" font-size="10.00">SUS_AI::minimax</text>
</a>
</g>
</g>
<!-- Node1&#45;&gt;Node2 -->
<g id="edge1_Node000001_Node000002" class="edge">
<title>Node1&#45;&gt;Node2</title>
<g id="a_edge1_Node000001_Node000002"><a xlink:title=" ">
<path fill="none" stroke="#63b8ff" d="M393.27,-10C385.13,-10 376.96,-10 369.2,-10"/>
<polygon fill="#63b8ff" stroke="#63b8ff" points="393.18,-13.5 403.18,-10 393.18,-6.5 393.18,-13.5"/>
</a>
</g>
</g>
<!-- Node2&#45;&gt;Node2 -->
<g id="edge4_Node000002_Node000002" class="edge">
<title>Node2&#45;&gt;Node2</title>
<g id="a_edge4_Node000002_Node000002"><a xlink:title=" ">
<path fill="none" stroke="#63b8ff" d="M345.26,-31.44C342.22,-35.3 334.34,-38 321.62,-38 298.38,-38 291.29,-28.98 300.37,-20.34"/>
<polygon fill="#63b8ff" stroke="#63b8ff" points="348.72,-30.86 343.19,-21.82 341.88,-32.33 348.72,-30.86"/>
</a>
</g>
</g>
<!-- Node3 -->
<g id="Node000003" class="node">
<title>Node3</title>
<g id="a_Node000003"><a xlink:href="class_s_u_s___a_i.html#ae27d5dea2808c253c2fe19574bb41038" target="_top" xlink:title="Computes the best move for the player.">
<polygon fill="white" stroke="#666666" points="238.25,-20 137.5,-20 137.5,0 238.25,0 238.25,-20"/>
<text xml:space="preserve" text-anchor="middle" x="187.88" y="-6.5" font-family="Helvetica,sans-Serif" font-size="10.00">SUS_AI::bestMove</text>
</a>
</g>
</g>
<!-- Node2&#45;&gt;Node3 -->
<g id="edge2_Node000002_Node000003" class="edge">
<title>Node2&#45;&gt;Node3</title>
<g id="a_edge2_Node000002_Node000003"><a xlink:title=" ">
<path fill="none" stroke="#63b8ff" d="M262.38,-10C254.47,-10 246.41,-10 238.67,-10"/>
<polygon fill="#63b8ff" stroke="#63b8ff" points="262.29,-13.5 272.29,-10 262.29,-6.5 262.29,-13.5"/>
</a>
</g>
</g>
<!-- Node4 -->
<g id="Node000004" class="node">
<title>Node4</title>
<g id="a_Node000004"><a xlink:href="class_s_u_s___u_i.html#a9c7a3c09a5e18a3d89f448ea93b6dea6" target="_top" xlink:title="Retrieves the next move.">
<polygon fill="white" stroke="#666666" points="101.5,-20 0,-20 0,0 101.5,0 101.5,-20"/>
<text xml:space="preserve" text-anchor="middle" x="50.75" y="-6.5" font-family="Helvetica,sans-Serif" font-size="10.00">SUS_UI::get_move</text>
</a>
</g>
</g>
<!-- Node3&#45;&gt;Node4 -->
<g id="edge3_Node000003_Node000004" class="edge">
<title>Node3&#45;&gt;Node4</title>
<g id="a_edge3_Node000003_Node000004"><a xlink:title=" ">
<path fill="none" stroke="#63b8ff" d="M125.99,-10C117.88,-10 109.64,-10 101.74,-10"/>
<polygon fill="#63b8ff" stroke="#63b8ff" points="125.81,-13.5 135.81,-10 125.81,-6.5 125.81,-13.5"/>
</a>
</g>
</g>
</g>
</svg>
