<?xml version="1.0" encoding="UTF-8" standalone="no"?>
<!DOCTYPE svg PUBLIC "-//W3C//DTD SVG 1.1//EN"
 "http://www.w3.org/Graphics/SVG/1.1/DTD/svg11.dtd">
<!-- Generated by graphviz version 14.0.2 (20251019.1705)
 -->
<!-- Title: XO_NUM_UI::setup_players Pages: 1 -->
<svg width="329pt" height="116pt"
 viewBox="0.00 0.00 329.00 116.00" xmlns="http://www.w3.org/2000/svg" xmlns:xlink="http://www.w3.org/1999/xlink">
<g id="graph0" class="graph" transform="scale(1 1) rotate(0) translate(4 112)">
<title>XO_NUM_UI::setup_players</title>
<!-- Node1 -->
<g id="Node000001" class="node">
<title>Node1</title>
<g id="a_Node000001"><a xlink:title="Set up two players.">
<polygon fill="#999999" stroke="#666666" points="141.25,-70 0,-70 0,-50 141.25,-50 141.25,-70"/>
<text xml:space="preserve" text-anchor="middle" x="70.62" y="-56.5" font-family="Helvetica,sans-Serif" font-size="10.00">XO_NUM_UI::setup_players</text>
</a>
</g>
</g>
<!-- Node2 -->
<g id="Node000002" class="node">
<title>Node2</title>
<g id="a_Node000002"><a xlink:href="class_x_o___n_u_m___u_i.html#a9d58ffe5cb29093d31b20f47e22dad1c" target="_top" xlink:title="Create a player instance.">
<polygon fill="white" stroke="#666666" points="318.5,-108 179.5,-108 179.5,-88 318.5,-88 318.5,-108"/>
<text xml:space="preserve" text-anchor="middle" x="249" y="-94.5" font-family="Helvetica,sans-Serif" font-size="10.00">XO_NUM_UI::create_player</text>
</a>
</g>
</g>
<!-- Node1&#45;&gt;Node2 -->
<g id="edge1_Node000001_Node000002" class="edge">
<title>Node1&#45;&gt;Node2</title>
<g id="a_edge1_Node000001_Node000002"><a xlink:title=" ">
<path fill="none" stroke="#63b8ff" d="M120.29,-70.48C141.4,-75.03 166.31,-80.4 188.51,-85.18"/>
<polygon fill="#63b8ff" stroke="#63b8ff" points="187.5,-88.55 198.02,-87.23 188.98,-81.7 187.5,-88.55"/>
</a>
</g>
</g>
<!-- Node3 -->
<g id="Node000003" class="node">
<title>Node3</title>
<g id="a_Node000003"><a xlink:href="class_u_i.html#a7b1603de1f73fbb4006e4f00a27c44da" target="_top" xlink:title=" ">
<polygon fill="white" stroke="#666666" points="320.75,-70 177.25,-70 177.25,-50 320.75,-50 320.75,-70"/>
<text xml:space="preserve" text-anchor="middle" x="249" y="-56.5" font-family="Helvetica,sans-Serif" font-size="10.00">UI&lt; char &gt;::get_player_name</text>
</a>
</g>
</g>
<!-- Node1&#45;&gt;Node3 -->
<g id="edge2_Node000001_Node000003" class="edge">
<title>Node1&#45;&gt;Node3</title>
<g id="a_edge2_Node000001_Node000003"><a xlink:title=" ">
<path fill="none" stroke="#63b8ff" d="M141.59,-60C149.5,-60 157.61,-60 165.66,-60"/>
<polygon fill="#63b8ff" stroke="#63b8ff" points="165.45,-63.5 175.45,-60 165.45,-56.5 165.45,-63.5"/>
</a>
</g>
</g>
<!-- Node4 -->
<g id="Node000004" class="node">
<title>Node4</title>
<g id="a_Node000004"><a xlink:href="class_u_i.html#ac3d45fea2bbcaa0372d8e5101e116ca1" target="_top" xlink:title=" ">
<polygon fill="white" stroke="#666666" points="306.12,-32 191.88,-32 191.88,0 306.12,0 306.12,-32"/>
<text xml:space="preserve" text-anchor="start" x="199.88" y="-18.5" font-family="Helvetica,sans-Serif" font-size="10.00">UI&lt; char &gt;::get_player</text>
<text xml:space="preserve" text-anchor="middle" x="249" y="-6.5" font-family="Helvetica,sans-Serif" font-size="10.00">_type_choice</text>
</a>
</g>
</g>
<!-- Node1&#45;&gt;Node4 -->
<g id="edge3_Node000001_Node000004" class="edge">
<title>Node1&#45;&gt;Node4</title>
<g id="a_edge3_Node000001_Node000004"><a xlink:title=" ">
<path fill="none" stroke="#63b8ff" d="M113.42,-49.57C133.47,-44.57 157.99,-38.45 180.58,-32.82"/>
<polygon fill="#63b8ff" stroke="#63b8ff" points="181.16,-36.28 190.02,-30.46 179.47,-29.49 181.16,-36.28"/>
</a>
</g>
</g>
</g>
</svg>
