<?xml version="1.0" encoding="UTF-8" standalone="no"?>
<!DOCTYPE svg PUBLIC "-//W3C//DTD SVG 1.1//EN"
 "http://www.w3.org/Graphics/SVG/1.1/DTD/svg11.dtd">
<!-- Generated by graphviz version 14.0.2 (20251019.1705)
 -->
<!-- Title: Memory_Board::is_lose Pages: 1 -->
<svg width="433pt" height="53pt"
 viewBox="0.00 0.00 433.00 53.00" xmlns="http://www.w3.org/2000/svg" xmlns:xlink="http://www.w3.org/1999/xlink">
<g id="graph0" class="graph" transform="scale(1 1) rotate(0) translate(4 49)">
<title>Memory_Board::is_lose</title>
<!-- Node1 -->
<g id="Node000001" class="node">
<title>Node1</title>
<g id="a_Node000001"><a xlink:title="Check if a player has lost.">
<polygon fill="#999999" stroke="#666666" points="424.5,-39 305.75,-39 305.75,-19 424.5,-19 424.5,-39"/>
<text xml:space="preserve" text-anchor="middle" x="365.12" y="-25.5" font-family="Helvetica,sans-Serif" font-size="10.00">Memory_Board::is_lose</text>
</a>
</g>
</g>
<!-- Node2 -->
<g id="Node000002" class="node">
<title>Node2</title>
<g id="a_Node000002"><a xlink:href="$class_memory___board.html#ad806fdf49150705c3f4892e74e8dedc4" xlink:title="Check if the game is over.">
<polygon fill="white" stroke="#666666" points="112,-45 0,-45 0,-13 112,-13 112,-45"/>
<text xml:space="preserve" text-anchor="start" x="8" y="-31.5" font-family="Helvetica,sans-Serif" font-size="10.00">Memory_Board::game</text>
<text xml:space="preserve" text-anchor="middle" x="56" y="-19.5" font-family="Helvetica,sans-Serif" font-size="10.00">_is_over</text>
</a>
</g>
</g>
<!-- Node1&#45;&gt;Node2 -->
<g id="edge1_Node000001_Node000002" class="edge">
<title>Node1&#45;&gt;Node2</title>
<g id="a_edge1_Node000001_Node000002"><a xlink:title=" ">
<path fill="none" stroke="#63b8ff" d="M293.84,-29C238.74,-29 163.13,-29 112.3,-29"/>
<polygon fill="#63b8ff" stroke="#63b8ff" points="293.76,-32.5 303.76,-29 293.76,-25.5 293.76,-32.5"/>
</a>
</g>
</g>
<!-- Node3 -->
<g id="Node000003" class="node">
<title>Node3</title>
<g id="a_Node000003"><a xlink:href="$class_memory___board.html#ad80149de055f8902191f1124d23619df" xlink:title="Check if the game ended in a draw.">
<polygon fill="white" stroke="#666666" points="269.75,-20 148,-20 148,0 269.75,0 269.75,-20"/>
<text xml:space="preserve" text-anchor="middle" x="208.88" y="-6.5" font-family="Helvetica,sans-Serif" font-size="10.00">Memory_Board::is_draw</text>
</a>
</g>
</g>
<!-- Node1&#45;&gt;Node3 -->
<g id="edge2_Node000001_Node000003" class="edge">
<title>Node1&#45;&gt;Node3</title>
<g id="a_edge2_Node000001_Node000003"><a xlink:title=" ">
<path fill="none" stroke="#63b8ff" d="M294.1,-20.37C286.05,-19.38 277.9,-18.38 270,-17.41"/>
<polygon fill="#63b8ff" stroke="#63b8ff" points="293.51,-23.83 303.87,-21.58 294.37,-16.88 293.51,-23.83"/>
</a>
</g>
</g>
<!-- Node3&#45;&gt;Node2 -->
<g id="edge3_Node000003_Node000002" class="edge">
<title>Node3&#45;&gt;Node2</title>
<g id="a_edge3_Node000003_Node000002"><a xlink:title=" ">
<path fill="none" stroke="#63b8ff" d="M136.48,-18.99C128.41,-20.01 120.27,-21.03 112.45,-22.02"/>
<polygon fill="#63b8ff" stroke="#63b8ff" points="136.83,-22.48 146.31,-17.75 135.95,-15.53 136.83,-22.48"/>
</a>
</g>
</g>
</g>
</svg>
