<?xml version="1.0" encoding="UTF-8" standalone="no"?>
<!DOCTYPE svg PUBLIC "-//W3C//DTD SVG 1.1//EN"
 "http://www.w3.org/Graphics/SVG/1.1/DTD/svg11.dtd">
<!-- Generated by graphviz version 14.0.2 (20251019.1705)
 -->
<!-- Title: XO_inf_Board::is_win Pages: 1 -->
<svg width="414pt" height="53pt"
 viewBox="0.00 0.00 414.00 53.00" xmlns="http://www.w3.org/2000/svg" xmlns:xlink="http://www.w3.org/1999/xlink">
<g id="graph0" class="graph" transform="scale(1 1) rotate(0) translate(4 49)">
<title>XO_inf_Board::is_win</title>
<!-- Node1 -->
<g id="Node000001" class="node">
<title>Node1</title>
<g id="a_Node000001"><a xlink:title="Checks if the given player has won.">
<polygon fill="#999999" stroke="#666666" points="405.75,-39 295.25,-39 295.25,-19 405.75,-19 405.75,-39"/>
<text xml:space="preserve" text-anchor="middle" x="350.5" y="-25.5" font-family="Helvetica,sans-Serif" font-size="10.00">XO_inf_Board::is_win</text>
</a>
</g>
</g>
<!-- Node2 -->
<g id="Node000002" class="node">
<title>Node2</title>
<g id="a_Node000002"><a xlink:href="$class_x_o__inf___board.html#a72916ca0cb69231fbb42d796b96eec3c" xlink:title="Checks if the game is over.">
<polygon fill="white" stroke="#666666" points="106.75,-45 0,-45 0,-13 106.75,-13 106.75,-45"/>
<text xml:space="preserve" text-anchor="start" x="8" y="-31.5" font-family="Helvetica,sans-Serif" font-size="10.00">XO_inf_Board::game</text>
<text xml:space="preserve" text-anchor="middle" x="53.38" y="-19.5" font-family="Helvetica,sans-Serif" font-size="10.00">_is_over</text>
</a>
</g>
</g>
<!-- Node1&#45;&gt;Node2 -->
<g id="edge1_Node000001_Node000002" class="edge">
<title>Node1&#45;&gt;Node2</title>
<g id="a_edge1_Node000001_Node000002"><a xlink:title=" ">
<path fill="none" stroke="#63b8ff" d="M283.66,-29C230.41,-29 156.42,-29 107.04,-29"/>
<polygon fill="#63b8ff" stroke="#63b8ff" points="283.51,-32.5 293.51,-29 283.51,-25.5 283.51,-32.5"/>
</a>
</g>
</g>
<!-- Node3 -->
<g id="Node000003" class="node">
<title>Node3</title>
<g id="a_Node000003"><a xlink:href="$class_x_o__inf___board.html#a39c1227c26b820836e8ff8bf8cbad1b0" xlink:title="Checks if the game is a draw.">
<polygon fill="white" stroke="#666666" points="259.25,-20 142.75,-20 142.75,0 259.25,0 259.25,-20"/>
<text xml:space="preserve" text-anchor="middle" x="201" y="-6.5" font-family="Helvetica,sans-Serif" font-size="10.00">XO_inf_Board::is_draw</text>
</a>
</g>
</g>
<!-- Node1&#45;&gt;Node3 -->
<g id="edge2_Node000001_Node000003" class="edge">
<title>Node1&#45;&gt;Node3</title>
<g id="a_edge2_Node000001_Node000003"><a xlink:title=" ">
<path fill="none" stroke="#63b8ff" d="M283.79,-20.54C275.77,-19.5 267.63,-18.45 259.74,-17.44"/>
<polygon fill="#63b8ff" stroke="#63b8ff" points="283.13,-23.98 293.49,-21.79 284.02,-17.04 283.13,-23.98"/>
</a>
</g>
</g>
<!-- Node3&#45;&gt;Node2 -->
<g id="edge3_Node000003_Node000002" class="edge">
<title>Node3&#45;&gt;Node2</title>
<g id="a_edge3_Node000003_Node000002"><a xlink:title=" ">
<path fill="none" stroke="#63b8ff" d="M131.29,-18.96C123.05,-20.04 114.74,-21.12 106.78,-22.16"/>
<polygon fill="#63b8ff" stroke="#63b8ff" points="131.48,-22.47 140.94,-17.71 130.58,-15.53 131.48,-22.47"/>
</a>
</g>
</g>
</g>
</svg>
