<?xml version="1.0" encoding="UTF-8" standalone="no"?>
<!DOCTYPE svg PUBLIC "-//W3C//DTD SVG 1.1//EN"
 "http://www.w3.org/Graphics/SVG/1.1/DTD/svg11.dtd">
<!-- Generated by graphviz version 14.0.2 (20251019.1705)
 -->
<!-- Title: _4by4XO_AI Pages: 1 -->
<svg width="88pt" height="244pt"
 viewBox="0.00 0.00 88.00 244.00" xmlns="http://www.w3.org/2000/svg" xmlns:xlink="http://www.w3.org/1999/xlink">
<g id="graph0" class="graph" transform="scale(1 1) rotate(0) translate(4 240)">
<title>_4by4XO_AI</title>
<!-- Node1 -->
<g id="Node000001" class="node">
<title>Node1</title>
<g id="a_Node000001"><a xlink:title="Simple AI for sliding 4x4 Tic&#45;Tac&#45;Toe.">
<polygon fill="#999999" stroke="none" points="79.5,-100 0,-100 0,0 79.5,0 79.5,-100"/>
<text xml:space="preserve" text-anchor="start" x="12" y="-86.5" font-family="Helvetica,sans-Serif" font-size="10.00">_4by4XO_AI</text>
<text xml:space="preserve" text-anchor="start" x="38.25" y="-70.5" font-family="Helvetica,sans-Serif" font-size="10.00"> </text>
<text xml:space="preserve" text-anchor="start" x="4" y="-54.5" font-family="Helvetica,sans-Serif" font-size="10.00">+</text>
<text xml:space="preserve" text-anchor="start" x="14" y="-54.5" font-family="Helvetica,sans-Serif" font-size="10.00">_4by4XO_AI()</text>
<text xml:space="preserve" text-anchor="start" x="4" y="-38.5" font-family="Helvetica,sans-Serif" font-size="10.00">+</text>
<text xml:space="preserve" text-anchor="start" x="14" y="-38.5" font-family="Helvetica,sans-Serif" font-size="10.00">evaluate()</text>
<text xml:space="preserve" text-anchor="start" x="4" y="-22.5" font-family="Helvetica,sans-Serif" font-size="10.00">+</text>
<text xml:space="preserve" text-anchor="start" x="14" y="-22.5" font-family="Helvetica,sans-Serif" font-size="10.00">minimax()</text>
<text xml:space="preserve" text-anchor="start" x="4" y="-6.5" font-family="Helvetica,sans-Serif" font-size="10.00">+</text>
<text xml:space="preserve" text-anchor="start" x="14" y="-6.5" font-family="Helvetica,sans-Serif" font-size="10.00">bestMove()</text>
<polygon fill="#666666" stroke="#666666" points="0,-82 0,-82 79.5,-82 79.5,-82 0,-82"/>
<polygon fill="#666666" stroke="#666666" points="0,-66 0,-66 79.5,-66 79.5,-66 0,-66"/>
<polygon fill="none" stroke="#666666" points="0,0 0,-100 79.5,-100 79.5,0 0,0"/>
</a>
</g>
</g>
<!-- Node2 -->
<g id="Node000002" class="node">
<title>Node2</title>
<g id="a_Node000002"><a xlink:href="class_a_i.html" target="_top" xlink:title="AI Interface for all implementations in games.">
<polygon fill="white" stroke="none" points="73.12,-236 6.38,-236 6.38,-136 73.12,-136 73.12,-236"/>
<text xml:space="preserve" text-anchor="start" x="34.88" y="-222.5" font-family="Helvetica,sans-Serif" font-size="10.00">AI</text>
<text xml:space="preserve" text-anchor="start" x="38.25" y="-206.5" font-family="Helvetica,sans-Serif" font-size="10.00"> </text>
<text xml:space="preserve" text-anchor="start" x="10.38" y="-190.5" font-family="Helvetica,sans-Serif" font-size="10.00">+</text>
<text xml:space="preserve" text-anchor="start" x="20.38" y="-190.5" font-family="Helvetica,sans-Serif" font-size="10.00">evaluate()</text>
<text xml:space="preserve" text-anchor="start" x="10.38" y="-174.5" font-family="Helvetica,sans-Serif" font-size="10.00">+</text>
<text xml:space="preserve" text-anchor="start" x="20.38" y="-174.5" font-family="Helvetica,sans-Serif" font-size="10.00">minimax()</text>
<text xml:space="preserve" text-anchor="start" x="10.38" y="-158.5" font-family="Helvetica,sans-Serif" font-size="10.00">+</text>
<text xml:space="preserve" text-anchor="start" x="20.38" y="-158.5" font-family="Helvetica,sans-Serif" font-size="10.00">bestMove()</text>
<text xml:space="preserve" text-anchor="start" x="10.38" y="-142.5" font-family="Helvetica,sans-Serif" font-size="10.00">+</text>
<text xml:space="preserve" text-anchor="start" x="20.38" y="-142.5" font-family="Helvetica,sans-Serif" font-size="10.00">~AI()</text>
<polygon fill="#666666" stroke="#666666" points="6.38,-218 6.38,-218 73.12,-218 73.12,-218 6.38,-218"/>
<polygon fill="#666666" stroke="#666666" points="6.38,-202 6.38,-202 73.12,-202 73.12,-202 6.38,-202"/>
<polygon fill="none" stroke="#666666" points="6.38,-136 6.38,-236 73.12,-236 73.12,-136 6.38,-136"/>
</a>
</g>
</g>
<!-- Node2&#45;&gt;Node1 -->
<g id="edge1_Node000001_Node000002" class="edge">
<title>Node2&#45;&gt;Node1</title>
<g id="a_edge1_Node000001_Node000002"><a xlink:title=" ">
<path fill="none" stroke="#63b8ff" d="M39.75,-124.97C39.75,-116.6 39.75,-108.08 39.75,-99.94"/>
<polygon fill="none" stroke="#63b8ff" points="36.25,-124.73 39.75,-134.73 43.25,-124.73 36.25,-124.73"/>
</a>
</g>
</g>
</g>
</svg>
