<?xml version="1.0" encoding="UTF-8" standalone="no"?>
<!DOCTYPE svg PUBLIC "-//W3C//DTD SVG 1.1//EN"
 "http://www.w3.org/Graphics/SVG/1.1/DTD/svg11.dtd">
<!-- Generated by graphviz version 14.0.2 (20251019.1705)
 -->
<!-- Title: Ultimate_Board::all_small_boards_done Pages: 1 -->
<svg width="422pt" height="40pt"
 viewBox="0.00 0.00 422.00 40.00" xmlns="http://www.w3.org/2000/svg" xmlns:xlink="http://www.w3.org/1999/xlink">
<g id="graph0" class="graph" transform="scale(1 1) rotate(0) translate(4 36)">
<title>Ultimate_Board::all_small_boards_done</title>
<!-- Node1 -->
<g id="Node000001" class="node">
<title>Node1</title>
<g id="a_Node000001"><a xlink:title="Checks if all small boards are completed.">
<polygon fill="#999999" stroke="#666666" points="414,-32 308.75,-32 308.75,0 414,0 414,-32"/>
<text xml:space="preserve" text-anchor="start" x="316.75" y="-18.5" font-family="Helvetica,sans-Serif" font-size="10.00">Ultimate_Board::all</text>
<text xml:space="preserve" text-anchor="middle" x="361.38" y="-6.5" font-family="Helvetica,sans-Serif" font-size="10.00">_small_boards_done</text>
</a>
</g>
</g>
<!-- Node2 -->
<g id="Node000002" class="node">
<title>Node2</title>
<g id="a_Node000002"><a xlink:href="class_ultimate___board.html#a5737c7a2126711b10d5996eb07644fb1" target="_top" xlink:title="Checks if the game ended in a draw.">
<polygon fill="white" stroke="#666666" points="272.75,-26 149.5,-26 149.5,-6 272.75,-6 272.75,-26"/>
<text xml:space="preserve" text-anchor="middle" x="211.12" y="-12.5" font-family="Helvetica,sans-Serif" font-size="10.00">Ultimate_Board::is_draw</text>
</a>
</g>
</g>
<!-- Node1&#45;&gt;Node2 -->
<g id="edge1_Node000001_Node000002" class="edge">
<title>Node1&#45;&gt;Node2</title>
<g id="a_edge1_Node000001_Node000002"><a xlink:title=" ">
<path fill="none" stroke="#63b8ff" d="M297.06,-16C289.12,-16 281.01,-16 273.1,-16"/>
<polygon fill="#63b8ff" stroke="#63b8ff" points="297.01,-19.5 307.01,-16 297.01,-12.5 297.01,-19.5"/>
</a>
</g>
</g>
<!-- Node3 -->
<g id="Node000003" class="node">
<title>Node3</title>
<g id="a_Node000003"><a xlink:href="class_ultimate___board.html#adb5f3ecf194dae9f85a680f384422151" target="_top" xlink:title="Determines whether the game has ended.">
<polygon fill="white" stroke="#666666" points="113.5,-32 0,-32 0,0 113.5,0 113.5,-32"/>
<text xml:space="preserve" text-anchor="start" x="8" y="-18.5" font-family="Helvetica,sans-Serif" font-size="10.00">Ultimate_Board::game</text>
<text xml:space="preserve" text-anchor="middle" x="56.75" y="-6.5" font-family="Helvetica,sans-Serif" font-size="10.00">_is_over</text>
</a>
</g>
</g>
<!-- Node2&#45;&gt;Node3 -->
<g id="edge2_Node000002_Node000003" class="edge">
<title>Node2&#45;&gt;Node3</title>
<g id="a_edge2_Node000002_Node000003"><a xlink:title=" ">
<path fill="none" stroke="#63b8ff" d="M137.78,-16C129.76,-16 121.7,-16 113.93,-16"/>
<polygon fill="#63b8ff" stroke="#63b8ff" points="137.51,-19.5 147.51,-16 137.51,-12.5 137.51,-19.5"/>
</a>
</g>
</g>
</g>
</svg>
