<?xml version="1.0" encoding="UTF-8" standalone="no"?>
<!DOCTYPE svg PUBLIC "-//W3C//DTD SVG 1.1//EN"
 "http://www.w3.org/Graphics/SVG/1.1/DTD/svg11.dtd">
<!-- Generated by graphviz version 14.0.2 (20251019.1705)
 -->
<!-- Title: UI::get_player_type_choice Pages: 1 -->
<svg width="312pt" height="40pt"
 viewBox="0.00 0.00 312.00 40.00" xmlns="http://www.w3.org/2000/svg" xmlns:xlink="http://www.w3.org/1999/xlink">
<g id="graph0" class="graph" transform="scale(1 1) rotate(0) translate(4 36)">
<title>UI::get_player_type_choice</title>
<!-- Node1 -->
<g id="Node000001" class="node">
<title>Node1</title>
<g id="a_Node000001"><a xlink:title="Ask the user to choose the player type from a list.">
<polygon fill="#999999" stroke="#666666" points="303.75,-32 202.25,-32 202.25,0 303.75,0 303.75,-32"/>
<text xml:space="preserve" text-anchor="start" x="210.25" y="-18.5" font-family="Helvetica,sans-Serif" font-size="10.00">UI::get_player_type</text>
<text xml:space="preserve" text-anchor="middle" x="253" y="-6.5" font-family="Helvetica,sans-Serif" font-size="10.00">_choice</text>
</a>
</g>
</g>
<!-- Node2 -->
<g id="Node000002" class="node">
<title>Node2</title>
<g id="a_Node000002"><a xlink:href="class_u_i.html#a6966a040c995b2292e5edddaa94f889a" target="_top" xlink:title="Set up players for the game.">
<polygon fill="white" stroke="#666666" points="166.25,-26 73,-26 73,-6 166.25,-6 166.25,-26"/>
<text xml:space="preserve" text-anchor="middle" x="119.62" y="-12.5" font-family="Helvetica,sans-Serif" font-size="10.00">UI::setup_players</text>
</a>
</g>
</g>
<!-- Node1&#45;&gt;Node2 -->
<g id="edge1_Node000001_Node000002" class="edge">
<title>Node1&#45;&gt;Node2</title>
<g id="a_edge1_Node000001_Node000002"><a xlink:title=" ">
<path fill="none" stroke="#63b8ff" d="M190.65,-16C182.57,-16 174.4,-16 166.64,-16"/>
<polygon fill="#63b8ff" stroke="#63b8ff" points="190.44,-19.5 200.44,-16 190.44,-12.5 190.44,-19.5"/>
</a>
</g>
</g>
<!-- Node3 -->
<g id="Node000003" class="node">
<title>Node3</title>
<g id="a_Node000003"><a xlink:href="_the_game_8cpp.html#ae66f6b31b5ad750f1fe042a706a4e3d4" target="_top" xlink:title="Main function to run the X&#45;O game.">
<polygon fill="white" stroke="#666666" points="37,-26 0,-26 0,-6 37,-6 37,-26"/>
<text xml:space="preserve" text-anchor="middle" x="18.5" y="-12.5" font-family="Helvetica,sans-Serif" font-size="10.00">main</text>
</a>
</g>
</g>
<!-- Node2&#45;&gt;Node3 -->
<g id="edge2_Node000002_Node000003" class="edge">
<title>Node2&#45;&gt;Node3</title>
<g id="a_edge2_Node000002_Node000003"><a xlink:title=" ">
<path fill="none" stroke="#63b8ff" d="M61.09,-16C52.46,-16 44.15,-16 37.26,-16"/>
<polygon fill="#63b8ff" stroke="#63b8ff" points="61.03,-19.5 71.03,-16 61.03,-12.5 61.03,-19.5"/>
</a>
</g>
</g>
</g>
</svg>
