<?xml version="1.0" encoding="UTF-8" standalone="no"?>
<!DOCTYPE svg PUBLIC "-//W3C//DTD SVG 1.1//EN"
 "http://www.w3.org/Graphics/SVG/1.1/DTD/svg11.dtd">
<!-- Generated by graphviz version 14.0.2 (20251019.1705)
 -->
<!-- Title: string Pages: 1 -->
<svg width="94pt" height="160pt"
 viewBox="0.00 0.00 94.00 160.00" xmlns="http://www.w3.org/2000/svg" xmlns:xlink="http://www.w3.org/1999/xlink">
<g id="graph0" class="graph" transform="scale(1 1) rotate(0) translate(4 156)">
<title>string</title>
<!-- Node1 -->
<g id="Node000001" class="node">
<title>Node1</title>
<g id="a_Node000001"><a xlink:title="STL class.">
<polygon fill="#999999" stroke="none" points="59,-52 27,-52 27,0 59,0 59,-52"/>
<text xml:space="preserve" text-anchor="start" x="31" y="-38.5" font-family="Helvetica,sans-Serif" font-size="10.00">string</text>
<text xml:space="preserve" text-anchor="start" x="41.5" y="-22.5" font-family="Helvetica,sans-Serif" font-size="10.00"> </text>
<text xml:space="preserve" text-anchor="start" x="41.5" y="-6.5" font-family="Helvetica,sans-Serif" font-size="10.00"> </text>
<polygon fill="#666666" stroke="#666666" points="27,-34 27,-34 59,-34 59,-34 27,-34"/>
<polygon fill="#666666" stroke="#666666" points="27,-18 27,-18 59,-18 59,-18 27,-18"/>
<polygon fill="none" stroke="#666666" points="27,0 27,-52 59,-52 59,0 27,0"/>
</a>
</g>
</g>
<!-- Node2 -->
<g id="Node000002" class="node">
<title>Node2</title>
<g id="a_Node000002"><a xlink:title=" ">
<polygon fill="white" stroke="none" points="86,-152 0,-152 0,-88 86,-88 86,-152"/>
<text xml:space="preserve" text-anchor="start" x="4" y="-138.5" font-family="Helvetica,sans-Serif" font-size="10.00">std::basic_string&lt;</text>
<text xml:space="preserve" text-anchor="start" x="26.5" y="-126.5" font-family="Helvetica,sans-Serif" font-size="10.00"> Char &gt;</text>
<text xml:space="preserve" text-anchor="start" x="41.5" y="-110.5" font-family="Helvetica,sans-Serif" font-size="10.00"> </text>
<text xml:space="preserve" text-anchor="start" x="41.5" y="-94.5" font-family="Helvetica,sans-Serif" font-size="10.00"> </text>
<polygon fill="#666666" stroke="#666666" points="0,-122 0,-122 86,-122 86,-122 0,-122"/>
<polygon fill="#666666" stroke="#666666" points="0,-106 0,-106 86,-106 86,-106 0,-106"/>
<polygon fill="none" stroke="#666666" points="0,-88 0,-152 86,-152 86,-88 0,-88"/>
</a>
</g>
</g>
<!-- Node2&#45;&gt;Node1 -->
<g id="edge1_Node000001_Node000002" class="edge">
<title>Node2&#45;&gt;Node1</title>
<g id="a_edge1_Node000001_Node000002"><a xlink:title=" ">
<path fill="none" stroke="#63b8ff" d="M43,-76.72C43,-68.21 43,-59.53 43,-51.86"/>
<polygon fill="none" stroke="#63b8ff" points="39.5,-76.6 43,-86.6 46.5,-76.6 39.5,-76.6"/>
</a>
</g>
</g>
</g>
</svg>
