<?xml version="1.0" encoding="UTF-8" standalone="no"?>
<!DOCTYPE svg PUBLIC "-//W3C//DTD SVG 1.1//EN"
 "http://www.w3.org/Graphics/SVG/1.1/DTD/svg11.dtd">
<!-- Generated by graphviz version 14.0.2 (20251019.1705)
 -->
<!-- Title: SUS_Board::game_is_over Pages: 1 -->
<svg width="422pt" height="66pt"
 viewBox="0.00 0.00 422.00 66.00" xmlns="http://www.w3.org/2000/svg" xmlns:xlink="http://www.w3.org/1999/xlink">
<g id="graph0" class="graph" transform="scale(1 1) rotate(0) translate(4 62)">
<title>SUS_Board::game_is_over</title>
<!-- Node1 -->
<g id="Node000001" class="node">
<title>Node1</title>
<g id="a_Node000001"><a xlink:title="Determines whether the game is over.">
<polygon fill="#999999" stroke="#666666" points="134.5,-39 0,-39 0,-19 134.5,-19 134.5,-39"/>
<text xml:space="preserve" text-anchor="middle" x="67.25" y="-25.5" font-family="Helvetica,sans-Serif" font-size="10.00">SUS_Board::game_is_over</text>
</a>
</g>
</g>
<!-- Node2 -->
<g id="Node000002" class="node">
<title>Node2</title>
<g id="a_Node000002"><a xlink:href="class_s_u_s___board.html#aeb2ad5ce9bdd10ecf2d3cf06be14e6ca" target="_top" xlink:title="Checks if the game ended in a draw.">
<polygon fill="white" stroke="#666666" points="278,-58 170.5,-58 170.5,-38 278,-38 278,-58"/>
<text xml:space="preserve" text-anchor="middle" x="224.25" y="-44.5" font-family="Helvetica,sans-Serif" font-size="10.00">SUS_Board::is_draw</text>
</a>
</g>
</g>
<!-- Node1&#45;&gt;Node2 -->
<g id="edge1_Node000001_Node000002" class="edge">
<title>Node1&#45;&gt;Node2</title>
<g id="a_edge1_Node000001_Node000002"><a xlink:title=" ">
<path fill="none" stroke="#63b8ff" d="M134.88,-37.17C142.82,-38.14 150.92,-39.13 158.82,-40.1"/>
<polygon fill="#63b8ff" stroke="#63b8ff" points="158.38,-43.57 168.73,-41.32 159.23,-36.63 158.38,-43.57"/>
</a>
</g>
</g>
<!-- Node3 -->
<g id="Node000003" class="node">
<title>Node3</title>
<g id="a_Node000003"><a xlink:href="class_s_u_s___board.html#a2230a0e70a119a14e7e7380ba9b2cb90" target="_top" xlink:title="Checks if the given player has won.">
<polygon fill="white" stroke="#666666" points="275,-20 173.5,-20 173.5,0 275,0 275,-20"/>
<text xml:space="preserve" text-anchor="middle" x="224.25" y="-6.5" font-family="Helvetica,sans-Serif" font-size="10.00">SUS_Board::is_win</text>
</a>
</g>
</g>
<!-- Node1&#45;&gt;Node3 -->
<g id="edge2_Node000001_Node000003" class="edge">
<title>Node1&#45;&gt;Node3</title>
<g id="a_edge2_Node000001_Node000003"><a xlink:title=" ">
<path fill="none" stroke="#63b8ff" d="M134.88,-20.83C143.78,-19.74 152.88,-18.63 161.69,-17.55"/>
<polygon fill="#63b8ff" stroke="#63b8ff" points="162.06,-21.03 171.56,-16.34 161.21,-14.08 162.06,-21.03"/>
</a>
</g>
</g>
<!-- Node4 -->
<g id="Node000004" class="node">
<title>Node4</title>
<g id="a_Node000004"><a xlink:href="class_player.html#af56f0bf98c0423a3a75b0848607d03a4" target="_top" xlink:title="Get the player&#39;s symbol.">
<polygon fill="white" stroke="#666666" points="414,-20 314,-20 314,0 414,0 414,-20"/>
<text xml:space="preserve" text-anchor="middle" x="364" y="-6.5" font-family="Helvetica,sans-Serif" font-size="10.00">Player::get_symbol</text>
</a>
</g>
</g>
<!-- Node3&#45;&gt;Node4 -->
<g id="edge3_Node000003_Node000004" class="edge">
<title>Node3&#45;&gt;Node4</title>
<g id="a_edge3_Node000003_Node000004"><a xlink:title=" ">
<path fill="none" stroke="#63b8ff" d="M275.37,-10C284.13,-10 293.33,-10 302.34,-10"/>
<polygon fill="#63b8ff" stroke="#63b8ff" points="302.09,-13.5 312.09,-10 302.09,-6.5 302.09,-13.5"/>
</a>
</g>
</g>
</g>
</svg>
