<?xml version="1.0" encoding="UTF-8" standalone="no"?>
<!DOCTYPE svg PUBLIC "-//W3C//DTD SVG 1.1//EN"
 "http://www.w3.org/Graphics/SVG/1.1/DTD/svg11.dtd">
<!-- Generated by graphviz version 14.0.2 (20251019.1705)
 -->
<!-- Title: Games/diamond_XO/dia_XO.cpp Pages: 1 -->
<svg width="530pt" height="276pt"
 viewBox="0.00 0.00 530.00 276.00" xmlns="http://www.w3.org/2000/svg" xmlns:xlink="http://www.w3.org/1999/xlink">
<g id="graph0" class="graph" transform="scale(1 1) rotate(0) translate(4 272)">
<title>Games/diamond_XO/dia_XO.cpp</title>
<!-- Node1 -->
<g id="Node000001" class="node">
<title>Node1</title>
<g id="a_Node000001"><a xlink:title=" ">
<polygon fill="#999999" stroke="#666666" points="369.25,-268 246.75,-268 246.75,-236 369.25,-236 369.25,-268"/>
<text xml:space="preserve" text-anchor="start" x="254.75" y="-254.5" font-family="Helvetica,sans-Serif" font-size="10.00">Games/diamond_XO/dia</text>
<text xml:space="preserve" text-anchor="middle" x="308" y="-242.5" font-family="Helvetica,sans-Serif" font-size="10.00">_XO.cpp</text>
</a>
</g>
</g>
<!-- Node2 -->
<g id="Node000002" class="node">
<title>Node2</title>
<g id="a_Node000002"><a xlink:href="$dia___x_o_8h.html" xlink:title=" ">
<polygon fill="white" stroke="#666666" points="177.25,-200 120.75,-200 120.75,-180 177.25,-180 177.25,-200"/>
<text xml:space="preserve" text-anchor="middle" x="149" y="-186.5" font-family="Helvetica,sans-Serif" font-size="10.00">dia_XO.h</text>
</a>
</g>
</g>
<!-- Node1&#45;&gt;Node2 -->
<g id="edge1_Node000001_Node000002" class="edge">
<title>Node1&#45;&gt;Node2</title>
<g id="a_edge1_Node000001_Node000002"><a xlink:title=" ">
<path fill="none" stroke="#63b8ff" d="M267.05,-235.55C241.52,-225.91 208.99,-213.64 184.54,-204.41"/>
<polygon fill="#63b8ff" stroke="#63b8ff" points="185.94,-201.2 175.35,-200.94 183.47,-207.75 185.94,-201.2"/>
</a>
</g>
</g>
<!-- Node5 -->
<g id="Node000005" class="node">
<title>Node5</title>
<g id="a_Node000005"><a xlink:title=" ">
<polygon fill="#e0e0e0" stroke="#999999" points="240.5,-20 197.5,-20 197.5,0 240.5,0 240.5,-20"/>
<text xml:space="preserve" text-anchor="middle" x="219" y="-6.5" font-family="Helvetica,sans-Serif" font-size="10.00">vector</text>
</a>
</g>
</g>
<!-- Node1&#45;&gt;Node5 -->
<g id="edge10_Node000001_Node000005" class="edge">
<title>Node1&#45;&gt;Node5</title>
<g id="a_edge10_Node000001_Node000005"><a xlink:title=" ">
<path fill="none" stroke="#63b8ff" d="M275.88,-235.5C261.86,-227.02 246.68,-215.13 238,-200 206.89,-145.75 211.44,-68.16 215.9,-31.58"/>
<polygon fill="#63b8ff" stroke="#63b8ff" points="219.33,-32.34 217.2,-21.96 212.39,-31.39 219.33,-32.34"/>
</a>
</g>
</g>
<!-- Node9 -->
<g id="Node000009" class="node">
<title>Node9</title>
<g id="a_Node000009"><a xlink:title=" ">
<polygon fill="#e0e0e0" stroke="#999999" points="302.88,-200 247.12,-200 247.12,-180 302.88,-180 302.88,-200"/>
<text xml:space="preserve" text-anchor="middle" x="275" y="-186.5" font-family="Helvetica,sans-Serif" font-size="10.00">algorithm</text>
</a>
</g>
</g>
<!-- Node1&#45;&gt;Node9 -->
<g id="edge9_Node000001_Node000009" class="edge">
<title>Node1&#45;&gt;Node9</title>
<g id="a_edge9_Node000001_Node000009"><a xlink:title=" ">
<path fill="none" stroke="#63b8ff" d="M299.5,-235.55C295.3,-227.91 290.19,-218.61 285.72,-210.49"/>
<polygon fill="#63b8ff" stroke="#63b8ff" points="288.79,-208.81 280.9,-201.73 282.66,-212.18 288.79,-208.81"/>
</a>
</g>
</g>
<!-- Node10 -->
<g id="Node000010" class="node">
<title>Node10</title>
<g id="a_Node000010"><a xlink:title=" ">
<polygon fill="#e0e0e0" stroke="#999999" points="360.62,-200 321.38,-200 321.38,-180 360.62,-180 360.62,-200"/>
<text xml:space="preserve" text-anchor="middle" x="341" y="-186.5" font-family="Helvetica,sans-Serif" font-size="10.00">utility</text>
</a>
</g>
</g>
<!-- Node1&#45;&gt;Node10 -->
<g id="edge11_Node000001_Node000010" class="edge">
<title>Node1&#45;&gt;Node10</title>
<g id="a_edge11_Node000001_Node000010"><a xlink:title=" ">
<path fill="none" stroke="#63b8ff" d="M316.5,-235.55C320.7,-227.91 325.81,-218.61 330.28,-210.49"/>
<polygon fill="#63b8ff" stroke="#63b8ff" points="333.34,-212.18 335.1,-201.73 327.21,-208.81 333.34,-212.18"/>
</a>
</g>
</g>
<!-- Node11 -->
<g id="Node000011" class="node">
<title>Node11</title>
<g id="a_Node000011"><a xlink:title=" ">
<polygon fill="#e0e0e0" stroke="#999999" points="455.75,-200 378.25,-200 378.25,-180 455.75,-180 455.75,-200"/>
<text xml:space="preserve" text-anchor="middle" x="417" y="-186.5" font-family="Helvetica,sans-Serif" font-size="10.00">unordered_set</text>
</a>
</g>
</g>
<!-- Node1&#45;&gt;Node11 -->
<g id="edge12_Node000001_Node000011" class="edge">
<title>Node1&#45;&gt;Node11</title>
<g id="a_edge12_Node000001_Node000011"><a xlink:title=" ">
<path fill="none" stroke="#63b8ff" d="M336.07,-235.55C352.63,-226.43 373.48,-214.96 389.87,-205.93"/>
<polygon fill="#63b8ff" stroke="#63b8ff" points="391.51,-209.03 398.58,-201.14 388.13,-202.89 391.51,-209.03"/>
</a>
</g>
</g>
<!-- Node12 -->
<g id="Node000012" class="node">
<title>Node12</title>
<g id="a_Node000012"><a xlink:title=" ">
<polygon fill="#e0e0e0" stroke="#999999" points="522.12,-200 473.88,-200 473.88,-180 522.12,-180 522.12,-200"/>
<text xml:space="preserve" text-anchor="middle" x="498" y="-186.5" font-family="Helvetica,sans-Serif" font-size="10.00">random</text>
</a>
</g>
</g>
<!-- Node1&#45;&gt;Node12 -->
<g id="edge13_Node000001_Node000012" class="edge">
<title>Node1&#45;&gt;Node12</title>
<g id="a_edge13_Node000001_Node000012"><a xlink:title=" ">
<path fill="none" stroke="#63b8ff" d="M356.93,-235.55C390.08,-225.08 433.1,-211.49 462.88,-202.09"/>
<polygon fill="#63b8ff" stroke="#63b8ff" points="463.67,-205.51 472.15,-199.16 461.56,-198.84 463.67,-205.51"/>
</a>
</g>
</g>
<!-- Node3 -->
<g id="Node000003" class="node">
<title>Node3</title>
<g id="a_Node000003"><a xlink:href="$_board_game___classes_8h.html" xlink:title=" ">
<polygon fill="white" stroke="#666666" points="167,-88 49,-88 49,-56 167,-56 167,-88"/>
<text xml:space="preserve" text-anchor="start" x="57" y="-74.5" font-family="Helvetica,sans-Serif" font-size="10.00">../../header/BoardGame</text>
<text xml:space="preserve" text-anchor="middle" x="108" y="-62.5" font-family="Helvetica,sans-Serif" font-size="10.00">_Classes.h</text>
</a>
</g>
</g>
<!-- Node2&#45;&gt;Node3 -->
<g id="edge2_Node000002_Node000003" class="edge">
<title>Node2&#45;&gt;Node3</title>
<g id="a_edge2_Node000002_Node000003"><a xlink:title=" ">
<path fill="none" stroke="#63b8ff" d="M132.27,-179.6C120.26,-171.8 104.99,-159.5 98,-144 91.68,-129.99 93.78,-112.99 97.65,-99.13"/>
<polygon fill="#63b8ff" stroke="#63b8ff" points="100.92,-100.4 100.7,-89.81 94.26,-98.22 100.92,-100.4"/>
</a>
</g>
</g>
<!-- Node8 -->
<g id="Node000008" class="node">
<title>Node8</title>
<g id="a_Node000008"><a xlink:href="$_a_i_8h.html" xlink:title=" ">
<polygon fill="white" stroke="#666666" points="191.12,-144 106.88,-144 106.88,-124 191.12,-124 191.12,-144"/>
<text xml:space="preserve" text-anchor="middle" x="149" y="-130.5" font-family="Helvetica,sans-Serif" font-size="10.00">../../header/AI.h</text>
</a>
</g>
</g>
<!-- Node2&#45;&gt;Node8 -->
<g id="edge7_Node000002_Node000008" class="edge">
<title>Node2&#45;&gt;Node8</title>
<g id="a_edge7_Node000002_Node000008"><a xlink:title=" ">
<path fill="none" stroke="#63b8ff" d="M149,-179.59C149,-173.01 149,-163.96 149,-155.73"/>
<polygon fill="#63b8ff" stroke="#63b8ff" points="152.5,-155.81 149,-145.81 145.5,-155.81 152.5,-155.81"/>
</a>
</g>
</g>
<!-- Node4 -->
<g id="Node000004" class="node">
<title>Node4</title>
<g id="a_Node000004"><a xlink:title=" ">
<polygon fill="#e0e0e0" stroke="#999999" points="40,-20 0,-20 0,0 40,0 40,-20"/>
<text xml:space="preserve" text-anchor="middle" x="20" y="-6.5" font-family="Helvetica,sans-Serif" font-size="10.00">string</text>
</a>
</g>
</g>
<!-- Node3&#45;&gt;Node4 -->
<g id="edge3_Node000003_Node000004" class="edge">
<title>Node3&#45;&gt;Node4</title>
<g id="a_edge3_Node000003_Node000004"><a xlink:title=" ">
<path fill="none" stroke="#63b8ff" d="M85.34,-55.55C72.35,-46.69 56.09,-35.61 43.04,-26.71"/>
<polygon fill="#63b8ff" stroke="#63b8ff" points="45.28,-24 35.05,-21.26 41.34,-29.79 45.28,-24"/>
</a>
</g>
</g>
<!-- Node3&#45;&gt;Node5 -->
<g id="edge4_Node000003_Node000005" class="edge">
<title>Node3&#45;&gt;Node5</title>
<g id="a_edge4_Node000003_Node000005"><a xlink:title=" ">
<path fill="none" stroke="#63b8ff" d="M136.59,-55.55C153.61,-46.35 175.09,-34.74 191.85,-25.68"/>
<polygon fill="#63b8ff" stroke="#63b8ff" points="193.13,-28.96 200.26,-21.13 189.8,-22.8 193.13,-28.96"/>
</a>
</g>
</g>
<!-- Node6 -->
<g id="Node000006" class="node">
<title>Node6</title>
<g id="a_Node000006"><a xlink:title=" ">
<polygon fill="#e0e0e0" stroke="#999999" points="111.75,-20 58.25,-20 58.25,0 111.75,0 111.75,-20"/>
<text xml:space="preserve" text-anchor="middle" x="85" y="-6.5" font-family="Helvetica,sans-Serif" font-size="10.00">iostream</text>
</a>
</g>
</g>
<!-- Node3&#45;&gt;Node6 -->
<g id="edge5_Node000003_Node000006" class="edge">
<title>Node3&#45;&gt;Node6</title>
<g id="a_edge5_Node000003_Node000006"><a xlink:title=" ">
<path fill="none" stroke="#63b8ff" d="M102.08,-55.55C99.22,-48.08 95.75,-39.03 92.68,-31.04"/>
<polygon fill="#63b8ff" stroke="#63b8ff" points="96,-29.91 89.15,-21.82 89.46,-32.41 96,-29.91"/>
</a>
</g>
</g>
<!-- Node7 -->
<g id="Node000007" class="node">
<title>Node7</title>
<g id="a_Node000007"><a xlink:title=" ">
<polygon fill="#e0e0e0" stroke="#999999" points="179.88,-20 130.12,-20 130.12,0 179.88,0 179.88,-20"/>
<text xml:space="preserve" text-anchor="middle" x="155" y="-6.5" font-family="Helvetica,sans-Serif" font-size="10.00">iomanip</text>
</a>
</g>
</g>
<!-- Node3&#45;&gt;Node7 -->
<g id="edge6_Node000003_Node000007" class="edge">
<title>Node3&#45;&gt;Node7</title>
<g id="a_edge6_Node000003_Node000007"><a xlink:title=" ">
<path fill="none" stroke="#63b8ff" d="M120.1,-55.55C126.36,-47.56 134.04,-37.76 140.6,-29.39"/>
<polygon fill="#63b8ff" stroke="#63b8ff" points="143.29,-31.63 146.7,-21.6 137.78,-27.31 143.29,-31.63"/>
</a>
</g>
</g>
<!-- Node8&#45;&gt;Node3 -->
<g id="edge8_Node000008_Node000003" class="edge">
<title>Node8&#45;&gt;Node3</title>
<g id="a_edge8_Node000008_Node000003"><a xlink:title=" ">
<path fill="none" stroke="#63b8ff" d="M142.59,-123.62C137.83,-116.65 131.1,-106.8 124.84,-97.64"/>
<polygon fill="#63b8ff" stroke="#63b8ff" points="127.73,-95.67 119.2,-89.39 121.95,-99.62 127.73,-95.67"/>
</a>
</g>
</g>
</g>
</svg>
