<?xml version="1.0" encoding="UTF-8" standalone="no"?>
<!DOCTYPE svg PUBLIC "-//W3C//DTD SVG 1.1//EN"
 "http://www.w3.org/Graphics/SVG/1.1/DTD/svg11.dtd">
<!-- Generated by graphviz version 14.0.2 (20251019.1705)
 -->
<!-- Title: Games/diamond_XO/dia_XO.h Pages: 1 -->
<svg width="226pt" height="96pt"
 viewBox="0.00 0.00 226.00 96.00" xmlns="http://www.w3.org/2000/svg" xmlns:xlink="http://www.w3.org/1999/xlink">
<g id="graph0" class="graph" transform="scale(1 1) rotate(0) translate(4 92)">
<title>Games/diamond_XO/dia_XO.h</title>
<!-- Node1 -->
<g id="Node000001" class="node">
<title>Node1</title>
<g id="a_Node000001"><a xlink:title=" ">
<polygon fill="#999999" stroke="#666666" points="195.38,-88 45.12,-88 45.12,-68 195.38,-68 195.38,-88"/>
<text xml:space="preserve" text-anchor="middle" x="120.25" y="-74.5" font-family="Helvetica,sans-Serif" font-size="10.00">Games/diamond_XO/dia_XO.h</text>
</a>
</g>
</g>
<!-- Node2 -->
<g id="Node000002" class="node">
<title>Node2</title>
<g id="a_Node000002"><a xlink:href="dia___x_o_8cpp.html" target="_top" xlink:title=" ">
<polygon fill="white" stroke="#666666" points="122.5,-32 0,-32 0,0 122.5,0 122.5,-32"/>
<text xml:space="preserve" text-anchor="start" x="8" y="-18.5" font-family="Helvetica,sans-Serif" font-size="10.00">Games/diamond_XO/dia</text>
<text xml:space="preserve" text-anchor="middle" x="61.25" y="-6.5" font-family="Helvetica,sans-Serif" font-size="10.00">_XO.cpp</text>
</a>
</g>
</g>
<!-- Node1&#45;&gt;Node2 -->
<g id="edge1_Node000001_Node000002" class="edge">
<title>Node1&#45;&gt;Node2</title>
<g id="a_edge1_Node000001_Node000002"><a xlink:title=" ">
<path fill="none" stroke="#63b8ff" d="M103.18,-59.65C94.63,-50.95 84.37,-40.51 76.14,-32.14"/>
<polygon fill="#63b8ff" stroke="#63b8ff" points="100.46,-61.87 109.97,-66.55 105.45,-56.96 100.46,-61.87"/>
</a>
</g>
</g>
<!-- Node3 -->
<g id="Node000003" class="node">
<title>Node3</title>
<g id="a_Node000003"><a xlink:href="_the_game_8cpp.html" target="_top" xlink:title=" ">
<polygon fill="white" stroke="#666666" points="218,-26 140.5,-26 140.5,-6 218,-6 218,-26"/>
<text xml:space="preserve" text-anchor="middle" x="179.25" y="-12.5" font-family="Helvetica,sans-Serif" font-size="10.00">TheGame.cpp</text>
</a>
</g>
</g>
<!-- Node1&#45;&gt;Node3 -->
<g id="edge2_Node000001_Node000003" class="edge">
<title>Node1&#45;&gt;Node3</title>
<g id="a_edge2_Node000001_Node000003"><a xlink:title=" ">
<path fill="none" stroke="#63b8ff" d="M137.38,-59.58C148.14,-48.63 161.58,-34.97 170.29,-26.11"/>
<polygon fill="#63b8ff" stroke="#63b8ff" points="135.05,-56.96 130.53,-66.55 140.04,-61.87 135.05,-56.96"/>
</a>
</g>
</g>
</g>
</svg>
