<?xml version="1.0" encoding="UTF-8" standalone="no"?>
<!DOCTYPE svg PUBLIC "-//W3C//DTD SVG 1.1//EN"
 "http://www.w3.org/Graphics/SVG/1.1/DTD/svg11.dtd">
<!-- Generated by graphviz version 14.0.2 (20251019.1705)
 -->
<!-- Title: Games Pages: 1 -->
<svg width="1368pt" height="101pt"
 viewBox="0.00 0.00 1368.00 101.00" xmlns="http://www.w3.org/2000/svg" xmlns:xlink="http://www.w3.org/1999/xlink">
<g id="graph0" class="graph" transform="scale(1 1) rotate(0) translate(4 97.32)">
<title>Games</title>
<g id="clust1" class="cluster">
<title>clusterdir_41c1ba1c5109b2e194aac80925c9ef0b</title>
<g id="a_clust1"><a xlink:href="dir_41c1ba1c5109b2e194aac80925c9ef0b.html" target="_top">
<polygon fill="#edf0f7" stroke="#404040" stroke-width="2" points="8,-49.32 8,-85.32 1352,-85.32 1352,-49.32 8,-49.32"/>
</a>
</g>
</g>
<!-- dir_41c1ba1c5109b2e194aac80925c9ef0b -->
<g id="node1" class="node">
<title>dir_41c1ba1c5109b2e194aac80925c9ef0b</title>
<text xml:space="preserve" text-anchor="middle" x="40" y="-63.82" font-family="Helvetica,sans-Serif" font-size="10.00">Games</text>
</g>
<!-- dir_17100f4db70d3fd9cf735a7a5e1d64a2 -->
<g id="node2" class="node">
<title>dir_17100f4db70d3fd9cf735a7a5e1d64a2</title>
<g id="a_node2"><a xlink:href="dir_17100f4db70d3fd9cf735a7a5e1d64a2.html" target="_top" xlink:title="4x4_Tic_Tac_Toe">
<polygon fill="#a2b4d6" stroke="#404040" points="362.25,-77.32 269.75,-77.32 269.75,-57.32 362.25,-57.32 362.25,-77.32"/>
<text xml:space="preserve" text-anchor="middle" x="316" y="-63.82" font-family="Helvetica,sans-Serif" font-size="10.00">4x4_Tic_Tac_Toe</text>
</a>
</g>
</g>
<!-- dir_1ec98ce50fa6ec55b40b8ffb1df38c3c -->
<g id="node15" class="node">
<title>dir_1ec98ce50fa6ec55b40b8ffb1df38c3c</title>
<g id="a_node15"><a xlink:href="dir_1ec98ce50fa6ec55b40b8ffb1df38c3c.html" target="_top" xlink:title="header">
<polygon fill="#edf0f7" stroke="#404040" points="775.62,-21.32 730.38,-21.32 730.38,-1.32 775.62,-1.32 775.62,-21.32"/>
<text xml:space="preserve" text-anchor="middle" x="753" y="-7.82" font-family="Helvetica,sans-Serif" font-size="10.00">header</text>
</a>
</g>
</g>
<!-- dir_17100f4db70d3fd9cf735a7a5e1d64a2&#45;&gt;dir_1ec98ce50fa6ec55b40b8ffb1df38c3c -->
<g id="edge1" class="edge">
<title>dir_17100f4db70d3fd9cf735a7a5e1d64a2&#45;&gt;dir_1ec98ce50fa6ec55b40b8ffb1df38c3c</title>
<g id="a_edge1"><a xlink:href="dir_000000_000005.html" target="_top">
<path fill="none" stroke="#63b8ff" d="M342.85,-56.82C351.72,-54.01 361.69,-51.19 371,-49.32 497.64,-23.89 651.54,-15.75 718.79,-13.3"/>
<polygon fill="#63b8ff" stroke="#63b8ff" points="718.55,-16.81 728.43,-12.97 718.31,-9.82 718.55,-16.81"/>
</a>
</g>
<g id="a_edge1&#45;headlabel"><a xlink:href="dir_000000_000005.html" target="_top" xlink:title="2">
<text xml:space="preserve" text-anchor="middle" x="716.57" y="-16.22" font-family="Helvetica,sans-Serif" font-size="10.00" fill="#63b8ff">2</text>
</a>
</g>
</g>
<!-- dir_a69170f9a78bc2e5a027e7d7bbe870b9 -->
<g id="node3" class="node">
<title>dir_a69170f9a78bc2e5a027e7d7bbe870b9</title>
<g id="a_node3"><a xlink:href="dir_a69170f9a78bc2e5a027e7d7bbe870b9.html" target="_top" xlink:title="anti_XO">
<polygon fill="#a2b4d6" stroke="#404040" points="1225.62,-77.32 1174.38,-77.32 1174.38,-57.32 1225.62,-57.32 1225.62,-77.32"/>
<text xml:space="preserve" text-anchor="middle" x="1200" y="-63.82" font-family="Helvetica,sans-Serif" font-size="10.00">anti_XO</text>
</a>
</g>
</g>
<!-- dir_a69170f9a78bc2e5a027e7d7bbe870b9&#45;&gt;dir_1ec98ce50fa6ec55b40b8ffb1df38c3c -->
<g id="edge2" class="edge">
<title>dir_a69170f9a78bc2e5a027e7d7bbe870b9&#45;&gt;dir_1ec98ce50fa6ec55b40b8ffb1df38c3c</title>
<g id="a_edge2"><a xlink:href="dir_000001_000005.html" target="_top">
<path fill="none" stroke="#63b8ff" d="M1183.75,-56.91C1178,-53.99 1171.38,-51.09 1165,-49.32 1094.19,-29.65 873.29,-17.78 787.53,-13.81"/>
<polygon fill="#63b8ff" stroke="#63b8ff" points="787.78,-10.32 777.63,-13.36 787.46,-17.31 787.78,-10.32"/>
</a>
</g>
<g id="a_edge2&#45;headlabel"><a xlink:href="dir_000001_000005.html" target="_top" xlink:title="3">
<text xml:space="preserve" text-anchor="middle" x="789.99" y="-4.08" font-family="Helvetica,sans-Serif" font-size="10.00" fill="#63b8ff">3</text>
</a>
</g>
</g>
<!-- dir_e27a06f8eec6b18ef870d1355a13f07d -->
<g id="node4" class="node">
<title>dir_e27a06f8eec6b18ef870d1355a13f07d</title>
<g id="a_node4"><a xlink:href="dir_e27a06f8eec6b18ef870d1355a13f07d.html" target="_top" xlink:title="diamond_XO">
<polygon fill="#a2b4d6" stroke="#404040" points="154.12,-77.32 81.88,-77.32 81.88,-57.32 154.12,-57.32 154.12,-77.32"/>
<text xml:space="preserve" text-anchor="middle" x="118" y="-63.82" font-family="Helvetica,sans-Serif" font-size="10.00">diamond_XO</text>
</a>
</g>
</g>
<!-- dir_e27a06f8eec6b18ef870d1355a13f07d&#45;&gt;dir_1ec98ce50fa6ec55b40b8ffb1df38c3c -->
<g id="edge3" class="edge">
<title>dir_e27a06f8eec6b18ef870d1355a13f07d&#45;&gt;dir_1ec98ce50fa6ec55b40b8ffb1df38c3c</title>
<g id="a_edge3"><a xlink:href="dir_000002_000005.html" target="_top">
<path fill="none" stroke="#63b8ff" d="M139.12,-56.85C146.53,-53.93 155,-51.04 163,-49.32 270.23,-26.25 609.68,-15.91 718.84,-13.12"/>
<polygon fill="#63b8ff" stroke="#63b8ff" points="718.69,-16.63 728.6,-12.88 718.52,-9.63 718.69,-16.63"/>
</a>
</g>
<g id="a_edge3&#45;headlabel"><a xlink:href="dir_000002_000005.html" target="_top" xlink:title="2">
<text xml:space="preserve" text-anchor="middle" x="716.69" y="-16.02" font-family="Helvetica,sans-Serif" font-size="10.00" fill="#63b8ff">2</text>
</a>
</g>
</g>
<!-- dir_b360c550f13f85037ea44d4fb5fbd80d -->
<g id="node5" class="node">
<title>dir_b360c550f13f85037ea44d4fb5fbd80d</title>
<g id="a_node5"><a xlink:href="dir_b360c550f13f85037ea44d4fb5fbd80d.html" target="_top" xlink:title="Four_in_a_row">
<polygon fill="#a2b4d6" stroke="#404040" points="251.88,-77.32 172.12,-77.32 172.12,-57.32 251.88,-57.32 251.88,-77.32"/>
<text xml:space="preserve" text-anchor="middle" x="212" y="-63.82" font-family="Helvetica,sans-Serif" font-size="10.00">Four_in_a_row</text>
</a>
</g>
</g>
<!-- dir_b360c550f13f85037ea44d4fb5fbd80d&#45;&gt;dir_1ec98ce50fa6ec55b40b8ffb1df38c3c -->
<g id="edge4" class="edge">
<title>dir_b360c550f13f85037ea44d4fb5fbd80d&#45;&gt;dir_1ec98ce50fa6ec55b40b8ffb1df38c3c</title>
<g id="a_edge4"><a xlink:href="dir_000003_000005.html" target="_top">
<path fill="none" stroke="#63b8ff" d="M235.08,-56.93C243.15,-54.02 252.36,-51.11 261,-49.32 429.93,-14.28 637.59,-11.47 718.47,-11.87"/>
<polygon fill="#63b8ff" stroke="#63b8ff" points="718.36,-15.37 728.39,-11.94 718.41,-8.37 718.36,-15.37"/>
</a>
</g>
<g id="a_edge4&#45;headlabel"><a xlink:href="dir_000003_000005.html" target="_top" xlink:title="3">
<text xml:space="preserve" text-anchor="middle" x="716.26" y="-14.69" font-family="Helvetica,sans-Serif" font-size="10.00" fill="#63b8ff">3</text>
</a>
</g>
</g>
<!-- dir_d6b3f67dcb22dca632cb1514cc9e79fd -->
<g id="node6" class="node">
<title>dir_d6b3f67dcb22dca632cb1514cc9e79fd</title>
<g id="a_node6"><a xlink:href="dir_d6b3f67dcb22dca632cb1514cc9e79fd.html" target="_top" xlink:title="Large_Tic_Tac_Toe">
<polygon fill="#a2b4d6" stroke="#404040" points="1344.38,-77.32 1243.62,-77.32 1243.62,-57.32 1344.38,-57.32 1344.38,-77.32"/>
<text xml:space="preserve" text-anchor="middle" x="1294" y="-63.82" font-family="Helvetica,sans-Serif" font-size="10.00">Large_Tic_Tac_Toe</text>
</a>
</g>
</g>
<!-- dir_d6b3f67dcb22dca632cb1514cc9e79fd&#45;&gt;dir_1ec98ce50fa6ec55b40b8ffb1df38c3c -->
<g id="edge5" class="edge">
<title>dir_d6b3f67dcb22dca632cb1514cc9e79fd&#45;&gt;dir_1ec98ce50fa6ec55b40b8ffb1df38c3c</title>
<g id="a_edge5"><a xlink:href="dir_000007_000005.html" target="_top">
<path fill="none" stroke="#63b8ff" d="M1265.47,-56.83C1255.89,-53.98 1245.07,-51.13 1235,-49.32 1068.85,-19.33 866.18,-13.62 786.99,-12.55"/>
<polygon fill="#63b8ff" stroke="#63b8ff" points="787.35,-9.06 777.31,-12.44 787.27,-16.06 787.35,-9.06"/>
</a>
</g>
<g id="a_edge5&#45;headlabel"><a xlink:href="dir_000007_000005.html" target="_top" xlink:title="3">
<text xml:space="preserve" text-anchor="middle" x="789.46" y="-2.74" font-family="Helvetica,sans-Serif" font-size="10.00" fill="#63b8ff">3</text>
</a>
</g>
</g>
<!-- dir_7b51fa46c6ccc50e22c818162cd52ebf -->
<g id="node16" class="node">
<title>dir_7b51fa46c6ccc50e22c818162cd52ebf</title>
<g id="a_node16"><a xlink:href="dir_7b51fa46c6ccc50e22c818162cd52ebf.html" target="_top" xlink:title="Neural_Network">
<polygon fill="#edf0f7" stroke="red" points="1337.25,-21.32 1250.75,-21.32 1250.75,-1.32 1337.25,-1.32 1337.25,-21.32"/>
<text xml:space="preserve" text-anchor="middle" x="1294" y="-7.82" font-family="Helvetica,sans-Serif" font-size="10.00">Neural_Network</text>
</a>
</g>
</g>
<!-- dir_d6b3f67dcb22dca632cb1514cc9e79fd&#45;&gt;dir_7b51fa46c6ccc50e22c818162cd52ebf -->
<g id="edge6" class="edge">
<title>dir_d6b3f67dcb22dca632cb1514cc9e79fd&#45;&gt;dir_7b51fa46c6ccc50e22c818162cd52ebf</title>
<g id="a_edge6"><a xlink:href="dir_000007_000009.html" target="_top">
<path fill="none" stroke="#63b8ff" d="M1294,-56.91C1294,-50.33 1294,-41.28 1294,-33.05"/>
<polygon fill="#63b8ff" stroke="#63b8ff" points="1297.5,-33.13 1294,-23.13 1290.5,-33.13 1297.5,-33.13"/>
</a>
</g>
<g id="a_edge6&#45;headlabel"><a xlink:href="dir_000007_000009.html" target="_top" xlink:title="1">
<text xml:space="preserve" text-anchor="middle" x="1300.34" y="-31.71" font-family="Helvetica,sans-Serif" font-size="10.00" fill="#63b8ff">1</text>
</a>
</g>
</g>
<!-- dir_cc453429f11de22ed265da7e49cd8d97 -->
<g id="node7" class="node">
<title>dir_cc453429f11de22ed265da7e49cd8d97</title>
<g id="a_node7"><a xlink:href="dir_cc453429f11de22ed265da7e49cd8d97.html" target="_top" xlink:title="Memory_Tic_Tac_Toe">
<polygon fill="#a2b4d6" stroke="#404040" points="492,-77.32 380,-77.32 380,-57.32 492,-57.32 492,-77.32"/>
<text xml:space="preserve" text-anchor="middle" x="436" y="-63.82" font-family="Helvetica,sans-Serif" font-size="10.00">Memory_Tic_Tac_Toe</text>
</a>
</g>
</g>
<!-- dir_cc453429f11de22ed265da7e49cd8d97&#45;&gt;dir_1ec98ce50fa6ec55b40b8ffb1df38c3c -->
<g id="edge7" class="edge">
<title>dir_cc453429f11de22ed265da7e49cd8d97&#45;&gt;dir_1ec98ce50fa6ec55b40b8ffb1df38c3c</title>
<g id="a_edge7"><a xlink:href="dir_000008_000005.html" target="_top">
<path fill="none" stroke="#63b8ff" d="M469.76,-56.89C480.06,-54.21 491.45,-51.45 502,-49.32 578.82,-33.81 670.1,-21.98 718.63,-16.21"/>
<polygon fill="#63b8ff" stroke="#63b8ff" points="718.99,-19.7 728.52,-15.06 718.18,-12.74 718.99,-19.7"/>
</a>
</g>
<g id="a_edge7&#45;headlabel"><a xlink:href="dir_000008_000005.html" target="_top" xlink:title="3">
<text xml:space="preserve" text-anchor="middle" x="717.25" y="-19.26" font-family="Helvetica,sans-Serif" font-size="10.00" fill="#63b8ff">3</text>
</a>
</g>
</g>
<!-- dir_040ab2d36275d0c87ed7fa8ac62e76ff -->
<g id="node8" class="node">
<title>dir_040ab2d36275d0c87ed7fa8ac62e76ff</title>
<g id="a_node8"><a xlink:href="dir_040ab2d36275d0c87ed7fa8ac62e76ff.html" target="_top" xlink:title="Obstacles_Tic_Tac_Toe">
<polygon fill="#a2b4d6" stroke="#404040" points="631.5,-77.32 510.5,-77.32 510.5,-57.32 631.5,-57.32 631.5,-77.32"/>
<text xml:space="preserve" text-anchor="middle" x="571" y="-63.82" font-family="Helvetica,sans-Serif" font-size="10.00">Obstacles_Tic_Tac_Toe</text>
</a>
</g>
</g>
<!-- dir_040ab2d36275d0c87ed7fa8ac62e76ff&#45;&gt;dir_1ec98ce50fa6ec55b40b8ffb1df38c3c -->
<g id="edge8" class="edge">
<title>dir_040ab2d36275d0c87ed7fa8ac62e76ff&#45;&gt;dir_1ec98ce50fa6ec55b40b8ffb1df38c3c</title>
<g id="a_edge8"><a xlink:href="dir_000010_000005.html" target="_top">
<path fill="none" stroke="#63b8ff" d="M602.7,-56.91C635.23,-47.26 685.65,-32.3 718.99,-22.41"/>
<polygon fill="#63b8ff" stroke="#63b8ff" points="719.97,-25.77 728.56,-19.57 717.98,-19.06 719.97,-25.77"/>
</a>
</g>
<g id="a_edge8&#45;headlabel"><a xlink:href="dir_000010_000005.html" target="_top" xlink:title="3">
<text xml:space="preserve" text-anchor="middle" x="718.78" y="-25.58" font-family="Helvetica,sans-Serif" font-size="10.00" fill="#63b8ff">3</text>
</a>
</g>
</g>
<!-- dir_0ba735d6ee0b26f41a8536c3653ed77a -->
<g id="node9" class="node">
<title>dir_0ba735d6ee0b26f41a8536c3653ed77a</title>
<g id="a_node9"><a xlink:href="dir_0ba735d6ee0b26f41a8536c3653ed77a.html" target="_top" xlink:title="PyramidXO">
<polygon fill="#a2b4d6" stroke="#404040" points="716.12,-77.32 649.88,-77.32 649.88,-57.32 716.12,-57.32 716.12,-77.32"/>
<text xml:space="preserve" text-anchor="middle" x="683" y="-63.82" font-family="Helvetica,sans-Serif" font-size="10.00">PyramidXO</text>
</a>
</g>
</g>
<!-- dir_0ba735d6ee0b26f41a8536c3653ed77a&#45;&gt;dir_1ec98ce50fa6ec55b40b8ffb1df38c3c -->
<g id="edge9" class="edge">
<title>dir_0ba735d6ee0b26f41a8536c3653ed77a&#45;&gt;dir_1ec98ce50fa6ec55b40b8ffb1df38c3c</title>
<g id="a_edge9"><a xlink:href="dir_000011_000005.html" target="_top">
<path fill="none" stroke="#63b8ff" d="M695.19,-56.91C705.33,-49.09 719.99,-37.78 732.01,-28.51"/>
<polygon fill="#63b8ff" stroke="#63b8ff" points="733.97,-31.42 739.75,-22.54 729.69,-25.88 733.97,-31.42"/>
</a>
</g>
<g id="a_edge9&#45;headlabel"><a xlink:href="dir_000011_000005.html" target="_top" xlink:title="2">
<text xml:space="preserve" text-anchor="middle" x="734.05" y="-31.44" font-family="Helvetica,sans-Serif" font-size="10.00" fill="#63b8ff">2</text>
</a>
</g>
</g>
<!-- dir_b876234b272247fc5b38d671e50912dc -->
<g id="node10" class="node">
<title>dir_b876234b272247fc5b38d671e50912dc</title>
<g id="a_node10"><a xlink:href="dir_b876234b272247fc5b38d671e50912dc.html" target="_top" xlink:title="SUS">
<polygon fill="#a2b4d6" stroke="#404040" points="771.5,-77.32 734.5,-77.32 734.5,-57.32 771.5,-57.32 771.5,-77.32"/>
<text xml:space="preserve" text-anchor="middle" x="753" y="-63.82" font-family="Helvetica,sans-Serif" font-size="10.00">SUS</text>
</a>
</g>
</g>
<!-- dir_b876234b272247fc5b38d671e50912dc&#45;&gt;dir_1ec98ce50fa6ec55b40b8ffb1df38c3c -->
<g id="edge10" class="edge">
<title>dir_b876234b272247fc5b38d671e50912dc&#45;&gt;dir_1ec98ce50fa6ec55b40b8ffb1df38c3c</title>
<g id="a_edge10"><a xlink:href="dir_000013_000005.html" target="_top">
<path fill="none" stroke="#63b8ff" d="M753,-56.91C753,-50.33 753,-41.28 753,-33.05"/>
<polygon fill="#63b8ff" stroke="#63b8ff" points="756.5,-33.13 753,-23.13 749.5,-33.13 756.5,-33.13"/>
</a>
</g>
<g id="a_edge10&#45;headlabel"><a xlink:href="dir_000013_000005.html" target="_top" xlink:title="3">
<text xml:space="preserve" text-anchor="middle" x="759.34" y="-31.71" font-family="Helvetica,sans-Serif" font-size="10.00" fill="#63b8ff">3</text>
</a>
</g>
</g>
<!-- dir_eadadc9a68e328892d948f53896e43cd -->
<g id="node11" class="node">
<title>dir_eadadc9a68e328892d948f53896e43cd</title>
<g id="a_node11"><a xlink:href="dir_eadadc9a68e328892d948f53896e43cd.html" target="_top" xlink:title="Ultimate_Tic_Tac_Toe">
<polygon fill="#a2b4d6" stroke="#404040" points="902.75,-77.32 789.25,-77.32 789.25,-57.32 902.75,-57.32 902.75,-77.32"/>
<text xml:space="preserve" text-anchor="middle" x="846" y="-63.82" font-family="Helvetica,sans-Serif" font-size="10.00">Ultimate_Tic_Tac_Toe</text>
</a>
</g>
</g>
<!-- dir_eadadc9a68e328892d948f53896e43cd&#45;&gt;dir_1ec98ce50fa6ec55b40b8ffb1df38c3c -->
<g id="edge11" class="edge">
<title>dir_eadadc9a68e328892d948f53896e43cd&#45;&gt;dir_1ec98ce50fa6ec55b40b8ffb1df38c3c</title>
<g id="a_edge11"><a xlink:href="dir_000014_000005.html" target="_top">
<path fill="none" stroke="#63b8ff" d="M829.8,-56.91C815.75,-48.75 795.17,-36.8 778.84,-27.32"/>
<polygon fill="#63b8ff" stroke="#63b8ff" points="781.04,-24.55 770.63,-22.56 777.53,-30.6 781.04,-24.55"/>
</a>
</g>
<g id="a_edge11&#45;headlabel"><a xlink:href="dir_000014_000005.html" target="_top" xlink:title="2">
<text xml:space="preserve" text-anchor="middle" x="784.27" y="-19.64" font-family="Helvetica,sans-Serif" font-size="10.00" fill="#63b8ff">2</text>
</a>
</g>
</g>
<!-- dir_45dc0d5bf02c34492ea46a865f11b3db -->
<g id="node12" class="node">
<title>dir_45dc0d5bf02c34492ea46a865f11b3db</title>
<g id="a_node12"><a xlink:href="dir_45dc0d5bf02c34492ea46a865f11b3db.html" target="_top" xlink:title="Word_Tic_Tac_Toe">
<polygon fill="#a2b4d6" stroke="#404040" points="1019.62,-77.32 920.38,-77.32 920.38,-57.32 1019.62,-57.32 1019.62,-77.32"/>
<text xml:space="preserve" text-anchor="middle" x="970" y="-63.82" font-family="Helvetica,sans-Serif" font-size="10.00">Word_Tic_Tac_Toe</text>
</a>
</g>
</g>
<!-- dir_45dc0d5bf02c34492ea46a865f11b3db&#45;&gt;dir_1ec98ce50fa6ec55b40b8ffb1df38c3c -->
<g id="edge12" class="edge">
<title>dir_45dc0d5bf02c34492ea46a865f11b3db&#45;&gt;dir_1ec98ce50fa6ec55b40b8ffb1df38c3c</title>
<g id="a_edge12"><a xlink:href="dir_000015_000005.html" target="_top">
<path fill="none" stroke="#63b8ff" d="M939.09,-56.91C930.36,-54.34 920.83,-51.64 912,-49.32 869.15,-38.06 819.36,-26.76 787.07,-19.66"/>
<polygon fill="#63b8ff" stroke="#63b8ff" points="788,-16.28 777.49,-17.57 786.51,-23.12 788,-16.28"/>
</a>
</g>
<g id="a_edge12&#45;headlabel"><a xlink:href="dir_000015_000005.html" target="_top" xlink:title="3">
<text xml:space="preserve" text-anchor="middle" x="790.64" y="-10.45" font-family="Helvetica,sans-Serif" font-size="10.00" fill="#63b8ff">3</text>
</a>
</g>
</g>
<!-- dir_7554aea533a7a51f7475e7b2b1f9067a -->
<g id="node13" class="node">
<title>dir_7554aea533a7a51f7475e7b2b1f9067a</title>
<g id="a_node13"><a xlink:href="dir_7554aea533a7a51f7475e7b2b1f9067a.html" target="_top" xlink:title="XO_inf">
<polygon fill="#a2b4d6" stroke="#404040" points="1084,-77.32 1038,-77.32 1038,-57.32 1084,-57.32 1084,-77.32"/>
<text xml:space="preserve" text-anchor="middle" x="1061" y="-63.82" font-family="Helvetica,sans-Serif" font-size="10.00">XO_inf</text>
</a>
</g>
</g>
<!-- dir_7554aea533a7a51f7475e7b2b1f9067a&#45;&gt;dir_1ec98ce50fa6ec55b40b8ffb1df38c3c -->
<g id="edge13" class="edge">
<title>dir_7554aea533a7a51f7475e7b2b1f9067a&#45;&gt;dir_1ec98ce50fa6ec55b40b8ffb1df38c3c</title>
<g id="a_edge13"><a xlink:href="dir_000016_000005.html" target="_top">
<path fill="none" stroke="#63b8ff" d="M1045.86,-56.86C1040.69,-54.02 1034.75,-51.16 1029,-49.32 944.88,-22.3 840.2,-15 787.19,-13.03"/>
<polygon fill="#63b8ff" stroke="#63b8ff" points="787.39,-9.54 777.29,-12.71 787.17,-16.54 787.39,-9.54"/>
</a>
</g>
<g id="a_edge13&#45;headlabel"><a xlink:href="dir_000016_000005.html" target="_top" xlink:title="3">
<text xml:space="preserve" text-anchor="middle" x="789.57" y="-3.27" font-family="Helvetica,sans-Serif" font-size="10.00" fill="#63b8ff">3</text>
</a>
</g>
</g>
<!-- dir_400149a460a43bb56342da1b67078906 -->
<g id="node14" class="node">
<title>dir_400149a460a43bb56342da1b67078906</title>
<g id="a_node14"><a xlink:href="dir_400149a460a43bb56342da1b67078906.html" target="_top" xlink:title="XO_num">
<polygon fill="#a2b4d6" stroke="#404040" points="1156.12,-77.32 1101.88,-77.32 1101.88,-57.32 1156.12,-57.32 1156.12,-77.32"/>
<text xml:space="preserve" text-anchor="middle" x="1129" y="-63.82" font-family="Helvetica,sans-Serif" font-size="10.00">XO_num</text>
</a>
</g>
</g>
<!-- dir_400149a460a43bb56342da1b67078906&#45;&gt;dir_1ec98ce50fa6ec55b40b8ffb1df38c3c -->
<g id="edge14" class="edge">
<title>dir_400149a460a43bb56342da1b67078906&#45;&gt;dir_1ec98ce50fa6ec55b40b8ffb1df38c3c</title>
<g id="a_edge14"><a xlink:href="dir_000017_000005.html" target="_top">
<path fill="none" stroke="#63b8ff" d="M1112.24,-56.98C1106.32,-54.08 1099.52,-51.15 1093,-49.32 984.24,-18.66 849.28,-13.13 787.19,-12.32"/>
<polygon fill="#63b8ff" stroke="#63b8ff" points="787.31,-8.82 777.28,-12.23 787.25,-15.82 787.31,-8.82"/>
</a>
</g>
<g id="a_edge14&#45;headlabel"><a xlink:href="dir_000017_000005.html" target="_top" xlink:title="2">
<text xml:space="preserve" text-anchor="middle" x="789.42" y="-2.5" font-family="Helvetica,sans-Serif" font-size="10.00" fill="#63b8ff">2</text>
</a>
</g>
</g>
</g>
</svg>
