<?xml version="1.0" encoding="UTF-8" standalone="no"?>
<!DOCTYPE svg PUBLIC "-//W3C//DTD SVG 1.1//EN"
 "http://www.w3.org/Graphics/SVG/1.1/DTD/svg11.dtd">
<!-- Generated by graphviz version 14.0.2 (20251019.1705)
 -->
<!-- Title: Games/Four_in_a_row/four.cpp Pages: 1 -->
<svg width="524pt" height="276pt"
 viewBox="0.00 0.00 524.00 276.00" xmlns="http://www.w3.org/2000/svg" xmlns:xlink="http://www.w3.org/1999/xlink">
<g id="graph0" class="graph" transform="scale(1 1) rotate(0) translate(4 272)">
<title>Games/Four_in_a_row/four.cpp</title>
<!-- Node1 -->
<g id="Node000001" class="node">
<title>Node1</title>
<g id="a_Node000001"><a xlink:title=" ">
<polygon fill="#999999" stroke="#666666" points="417.98,-268 303.73,-268 303.73,-236 417.98,-236 417.98,-268"/>
<text xml:space="preserve" text-anchor="start" x="311.73" y="-254.5" font-family="Helvetica,sans-Serif" font-size="10.00">Games/Four_in_a_row</text>
<text xml:space="preserve" text-anchor="middle" x="360.85" y="-242.5" font-family="Helvetica,sans-Serif" font-size="10.00">/four.cpp</text>
</a>
</g>
</g>
<!-- Node2 -->
<g id="Node000002" class="node">
<title>Node2</title>
<g id="a_Node000002"><a xlink:title=" ">
<polygon fill="#e0e0e0" stroke="#999999" points="56.6,-20 3.1,-20 3.1,0 56.6,0 56.6,-20"/>
<text xml:space="preserve" text-anchor="middle" x="29.85" y="-6.5" font-family="Helvetica,sans-Serif" font-size="10.00">iostream</text>
</a>
</g>
</g>
<!-- Node1&#45;&gt;Node2 -->
<g id="edge1_Node000001_Node000002" class="edge">
<title>Node1&#45;&gt;Node2</title>
<g id="a_edge1_Node000001_Node000002"><a xlink:title=" ">
<path fill="none" stroke="#63b8ff" d="M303.42,-241.73C213.86,-225.96 47.6,-191.03 12.85,-144 -12.07,-110.27 6.51,-58.13 19.71,-30.21"/>
<polygon fill="#63b8ff" stroke="#63b8ff" points="22.71,-32.03 24.05,-21.52 16.45,-28.9 22.71,-32.03"/>
</a>
</g>
</g>
<!-- Node3 -->
<g id="Node000003" class="node">
<title>Node3</title>
<g id="a_Node000003"><a xlink:title=" ">
<polygon fill="#e0e0e0" stroke="#999999" points="361.73,-20 311.98,-20 311.98,0 361.73,0 361.73,-20"/>
<text xml:space="preserve" text-anchor="middle" x="336.85" y="-6.5" font-family="Helvetica,sans-Serif" font-size="10.00">iomanip</text>
</a>
</g>
</g>
<!-- Node1&#45;&gt;Node3 -->
<g id="edge2_Node000001_Node000003" class="edge">
<title>Node1&#45;&gt;Node3</title>
<g id="a_edge2_Node000001_Node000003"><a xlink:title=" ">
<path fill="none" stroke="#63b8ff" d="M361.88,-235.7C363.26,-211.78 365.07,-164.13 360.85,-124 357.41,-91.17 348.47,-53.84 342.53,-31.37"/>
<polygon fill="#63b8ff" stroke="#63b8ff" points="345.91,-30.46 339.91,-21.73 339.15,-32.3 345.91,-30.46"/>
</a>
</g>
</g>
<!-- Node4 -->
<g id="Node000004" class="node">
<title>Node4</title>
<g id="a_Node000004"><a xlink:title=" ">
<polygon fill="#e0e0e0" stroke="#999999" points="453.48,-200 408.23,-200 408.23,-180 453.48,-180 453.48,-200"/>
<text xml:space="preserve" text-anchor="middle" x="430.85" y="-186.5" font-family="Helvetica,sans-Serif" font-size="10.00">cctype</text>
</a>
</g>
</g>
<!-- Node1&#45;&gt;Node4 -->
<g id="edge3_Node000001_Node000004" class="edge">
<title>Node1&#45;&gt;Node4</title>
<g id="a_edge3_Node000001_Node000004"><a xlink:title=" ">
<path fill="none" stroke="#63b8ff" d="M378.88,-235.55C388.81,-227.04 401.13,-216.48 411.29,-207.77"/>
<polygon fill="#63b8ff" stroke="#63b8ff" points="413.41,-210.56 418.73,-201.39 408.86,-205.24 413.41,-210.56"/>
</a>
</g>
</g>
<!-- Node5 -->
<g id="Node000005" class="node">
<title>Node5</title>
<g id="a_Node000005"><a xlink:title=" ">
<polygon fill="#e0e0e0" stroke="#999999" points="516.1,-200 471.6,-200 471.6,-180 516.1,-180 516.1,-200"/>
<text xml:space="preserve" text-anchor="middle" x="493.85" y="-186.5" font-family="Helvetica,sans-Serif" font-size="10.00">climits</text>
</a>
</g>
</g>
<!-- Node1&#45;&gt;Node5 -->
<g id="edge4_Node000001_Node000005" class="edge">
<title>Node1&#45;&gt;Node5</title>
<g id="a_edge4_Node000001_Node000005"><a xlink:title=" ">
<path fill="none" stroke="#63b8ff" d="M395.11,-235.55C415.98,-226.13 442.46,-214.19 462.73,-205.04"/>
<polygon fill="#63b8ff" stroke="#63b8ff" points="463.94,-208.33 471.62,-201.03 461.07,-201.95 463.94,-208.33"/>
</a>
</g>
</g>
<!-- Node6 -->
<g id="Node000006" class="node">
<title>Node6</title>
<g id="a_Node000006"><a xlink:title=" ">
<polygon fill="#e0e0e0" stroke="#999999" points="351.98,-144 303.73,-144 303.73,-124 351.98,-124 351.98,-144"/>
<text xml:space="preserve" text-anchor="middle" x="327.85" y="-130.5" font-family="Helvetica,sans-Serif" font-size="10.00">random</text>
</a>
</g>
</g>
<!-- Node1&#45;&gt;Node6 -->
<g id="edge5_Node000001_Node000006" class="edge">
<title>Node1&#45;&gt;Node6</title>
<g id="a_edge5_Node000001_Node000006"><a xlink:title=" ">
<path fill="none" stroke="#63b8ff" d="M356.54,-235.84C350.68,-215.22 340.17,-178.29 333.63,-155.31"/>
<polygon fill="#63b8ff" stroke="#63b8ff" points="337.06,-154.55 330.95,-145.89 330.32,-156.47 337.06,-154.55"/>
</a>
</g>
</g>
<!-- Node7 -->
<g id="Node000007" class="node">
<title>Node7</title>
<g id="a_Node000007"><a xlink:href="$four_8h.html" xlink:title=" ">
<polygon fill="white" stroke="#666666" points="264.23,-200 223.48,-200 223.48,-180 264.23,-180 264.23,-200"/>
<text xml:space="preserve" text-anchor="middle" x="243.85" y="-186.5" font-family="Helvetica,sans-Serif" font-size="10.00">four.h</text>
</a>
</g>
</g>
<!-- Node1&#45;&gt;Node7 -->
<g id="edge6_Node000001_Node000007" class="edge">
<title>Node1&#45;&gt;Node7</title>
<g id="a_edge6_Node000001_Node000007"><a xlink:title=" ">
<path fill="none" stroke="#63b8ff" d="M330.72,-235.55C312.61,-226.26 289.71,-214.52 271.97,-205.42"/>
<polygon fill="#63b8ff" stroke="#63b8ff" points="274.04,-202.55 263.55,-201.1 270.85,-208.78 274.04,-202.55"/>
</a>
</g>
</g>
<!-- Node7&#45;&gt;Node6 -->
<g id="edge19_Node000007_Node000006" class="edge">
<title>Node7&#45;&gt;Node6</title>
<g id="a_edge19_Node000007_Node000006"><a xlink:title=" ">
<path fill="none" stroke="#63b8ff" d="M258.49,-179.59C270.94,-171.59 289.07,-159.93 303.68,-150.54"/>
<polygon fill="#63b8ff" stroke="#63b8ff" points="305.32,-153.65 311.84,-145.3 301.53,-147.76 305.32,-153.65"/>
</a>
</g>
</g>
<!-- Node8 -->
<g id="Node000008" class="node">
<title>Node8</title>
<g id="a_Node000008"><a xlink:href="$_board_game___classes_8h.html" xlink:title=" ">
<polygon fill="white" stroke="#666666" points="289.85,-88 171.85,-88 171.85,-56 289.85,-56 289.85,-88"/>
<text xml:space="preserve" text-anchor="start" x="179.85" y="-74.5" font-family="Helvetica,sans-Serif" font-size="10.00">../../header/BoardGame</text>
<text xml:space="preserve" text-anchor="middle" x="230.85" y="-62.5" font-family="Helvetica,sans-Serif" font-size="10.00">_Classes.h</text>
</a>
</g>
</g>
<!-- Node7&#45;&gt;Node8 -->
<g id="edge7_Node000007_Node000008" class="edge">
<title>Node7&#45;&gt;Node8</title>
<g id="a_edge7_Node000007_Node000008"><a xlink:title=" ">
<path fill="none" stroke="#63b8ff" d="M227.13,-179.6C215.11,-171.8 199.85,-159.5 192.85,-144 185.59,-127.9 194.75,-110.4 205.89,-96.8"/>
<polygon fill="#63b8ff" stroke="#63b8ff" points="208.27,-99.4 212.34,-89.61 203.06,-94.72 208.27,-99.4"/>
</a>
</g>
</g>
<!-- Node11 -->
<g id="Node000011" class="node">
<title>Node11</title>
<g id="a_Node000011"><a xlink:href="$_a_i_8h.html" xlink:title=" ">
<polygon fill="white" stroke="#666666" points="285.98,-144 201.73,-144 201.73,-124 285.98,-124 285.98,-144"/>
<text xml:space="preserve" text-anchor="middle" x="243.85" y="-130.5" font-family="Helvetica,sans-Serif" font-size="10.00">../../header/AI.h</text>
</a>
</g>
</g>
<!-- Node7&#45;&gt;Node11 -->
<g id="edge12_Node000007_Node000011" class="edge">
<title>Node7&#45;&gt;Node11</title>
<g id="a_edge12_Node000007_Node000011"><a xlink:title=" ">
<path fill="none" stroke="#63b8ff" d="M243.85,-179.59C243.85,-173.01 243.85,-163.96 243.85,-155.73"/>
<polygon fill="#63b8ff" stroke="#63b8ff" points="247.35,-155.81 243.85,-145.81 240.35,-155.81 247.35,-155.81"/>
</a>
</g>
</g>
<!-- Node12 -->
<g id="Node000012" class="node">
<title>Node12</title>
<g id="a_Node000012"><a xlink:href="$_custom___u_i_8h.html" xlink:title="Defines a customizable user interface for board games.">
<polygon fill="white" stroke="#666666" points="146.23,-144 21.48,-144 21.48,-124 146.23,-124 146.23,-144"/>
<text xml:space="preserve" text-anchor="middle" x="83.85" y="-130.5" font-family="Helvetica,sans-Serif" font-size="10.00">../../header/Custom_UI.h</text>
</a>
</g>
</g>
<!-- Node7&#45;&gt;Node12 -->
<g id="edge14_Node000007_Node000012" class="edge">
<title>Node7&#45;&gt;Node12</title>
<g id="a_edge14_Node000007_Node000012"><a xlink:title=" ">
<path fill="none" stroke="#63b8ff" d="M223.27,-182.05C197.9,-173.49 154.27,-158.77 122.56,-148.06"/>
<polygon fill="#63b8ff" stroke="#63b8ff" points="123.92,-144.83 113.33,-144.95 121.69,-151.46 123.92,-144.83"/>
</a>
</g>
</g>
<!-- Node8&#45;&gt;Node2 -->
<g id="edge10_Node000008_Node000002" class="edge">
<title>Node8&#45;&gt;Node2</title>
<g id="a_edge10_Node000008_Node000002"><a xlink:title=" ">
<path fill="none" stroke="#63b8ff" d="M179.09,-55.55C144.39,-45.19 99.45,-31.78 67.99,-22.39"/>
<polygon fill="#63b8ff" stroke="#63b8ff" points="69.09,-19.06 58.51,-19.55 67.09,-25.77 69.09,-19.06"/>
</a>
</g>
</g>
<!-- Node8&#45;&gt;Node3 -->
<g id="edge11_Node000008_Node000003" class="edge">
<title>Node8&#45;&gt;Node3</title>
<g id="a_edge11_Node000008_Node000003"><a xlink:title=" ">
<path fill="none" stroke="#63b8ff" d="M258.15,-55.55C274.25,-46.43 294.53,-34.96 310.47,-25.93"/>
<polygon fill="#63b8ff" stroke="#63b8ff" points="311.94,-29.13 318.92,-21.15 308.49,-23.03 311.94,-29.13"/>
</a>
</g>
</g>
<!-- Node9 -->
<g id="Node000009" class="node">
<title>Node9</title>
<g id="a_Node000009"><a xlink:title=" ">
<polygon fill="#e0e0e0" stroke="#999999" points="250.85,-20 210.85,-20 210.85,0 250.85,0 250.85,-20"/>
<text xml:space="preserve" text-anchor="middle" x="230.85" y="-6.5" font-family="Helvetica,sans-Serif" font-size="10.00">string</text>
</a>
</g>
</g>
<!-- Node8&#45;&gt;Node9 -->
<g id="edge8_Node000008_Node000009" class="edge">
<title>Node8&#45;&gt;Node9</title>
<g id="a_edge8_Node000008_Node000009"><a xlink:title=" ">
<path fill="none" stroke="#63b8ff" d="M230.85,-55.55C230.85,-48.34 230.85,-39.66 230.85,-31.88"/>
<polygon fill="#63b8ff" stroke="#63b8ff" points="234.35,-31.92 230.85,-21.92 227.35,-31.92 234.35,-31.92"/>
</a>
</g>
</g>
<!-- Node10 -->
<g id="Node000010" class="node">
<title>Node10</title>
<g id="a_Node000010"><a xlink:title=" ">
<polygon fill="#e0e0e0" stroke="#999999" points="178.35,-20 135.35,-20 135.35,0 178.35,0 178.35,-20"/>
<text xml:space="preserve" text-anchor="middle" x="156.85" y="-6.5" font-family="Helvetica,sans-Serif" font-size="10.00">vector</text>
</a>
</g>
</g>
<!-- Node8&#45;&gt;Node10 -->
<g id="edge9_Node000008_Node000010" class="edge">
<title>Node8&#45;&gt;Node10</title>
<g id="a_edge9_Node000008_Node000010"><a xlink:title=" ">
<path fill="none" stroke="#63b8ff" d="M211.8,-55.55C201.2,-46.95 188.01,-36.26 177.21,-27.5"/>
<polygon fill="#63b8ff" stroke="#63b8ff" points="179.61,-24.94 169.63,-21.36 175.2,-30.38 179.61,-24.94"/>
</a>
</g>
</g>
<!-- Node11&#45;&gt;Node8 -->
<g id="edge13_Node000011_Node000008" class="edge">
<title>Node11&#45;&gt;Node8</title>
<g id="a_edge13_Node000011_Node000008"><a xlink:title=" ">
<path fill="none" stroke="#63b8ff" d="M241.82,-123.62C240.39,-117.02 238.4,-107.84 236.51,-99.11"/>
<polygon fill="#63b8ff" stroke="#63b8ff" points="239.99,-98.65 234.46,-89.62 233.15,-100.13 239.99,-98.65"/>
</a>
</g>
</g>
<!-- Node12&#45;&gt;Node2 -->
<g id="edge16_Node000012_Node000002" class="edge">
<title>Node12&#45;&gt;Node2</title>
<g id="a_edge16_Node000012_Node000002"><a xlink:title=" ">
<path fill="none" stroke="#63b8ff" d="M74.78,-123.79C66.82,-115.21 55.5,-101.71 48.85,-88 40.13,-70.01 35.19,-47.66 32.55,-31.68"/>
<polygon fill="#63b8ff" stroke="#63b8ff" points="36.03,-31.32 31.12,-21.93 29.11,-32.34 36.03,-31.32"/>
</a>
</g>
</g>
<!-- Node12&#45;&gt;Node8 -->
<g id="edge15_Node000012_Node000008" class="edge">
<title>Node12&#45;&gt;Node8</title>
<g id="a_edge15_Node000012_Node000008"><a xlink:title=" ">
<path fill="none" stroke="#63b8ff" d="M106.82,-123.62C126.96,-115.41 156.91,-103.18 182.33,-92.81"/>
<polygon fill="#63b8ff" stroke="#63b8ff" points="183.57,-96.08 191.5,-89.06 180.92,-89.6 183.57,-96.08"/>
</a>
</g>
</g>
<!-- Node12&#45;&gt;Node10 -->
<g id="edge17_Node000012_Node000010" class="edge">
<title>Node12&#45;&gt;Node10</title>
<g id="a_edge17_Node000012_Node000010"><a xlink:title=" ">
<path fill="none" stroke="#63b8ff" d="M94.04,-123.8C103.06,-115.23 116.12,-101.73 124.85,-88 136.37,-69.89 145.28,-46.94 150.74,-30.83"/>
<polygon fill="#63b8ff" stroke="#63b8ff" points="154.02,-32.06 153.76,-21.47 147.36,-29.91 154.02,-32.06"/>
</a>
</g>
</g>
<!-- Node13 -->
<g id="Node000013" class="node">
<title>Node13</title>
<g id="a_Node000013"><a xlink:title=" ">
<polygon fill="#e0e0e0" stroke="#999999" points="116.23,-82 57.48,-82 57.48,-62 116.23,-62 116.23,-82"/>
<text xml:space="preserve" text-anchor="middle" x="86.85" y="-68.5" font-family="Helvetica,sans-Serif" font-size="10.00">stdexcept</text>
</a>
</g>
</g>
<!-- Node12&#45;&gt;Node13 -->
<g id="edge18_Node000012_Node000013" class="edge">
<title>Node12&#45;&gt;Node13</title>
<g id="a_edge18_Node000012_Node000013"><a xlink:title=" ">
<path fill="none" stroke="#63b8ff" d="M84.32,-123.62C84.73,-115.56 85.32,-103.65 85.83,-93.41"/>
<polygon fill="#63b8ff" stroke="#63b8ff" points="89.32,-93.79 86.32,-83.62 82.33,-93.44 89.32,-93.79"/>
</a>
</g>
</g>
</g>
</svg>
