<?xml version="1.0" encoding="UTF-8" standalone="no"?>
<!DOCTYPE svg PUBLIC "-//W3C//DTD SVG 1.1//EN"
 "http://www.w3.org/Graphics/SVG/1.1/DTD/svg11.dtd">
<!-- Generated by graphviz version 14.0.2 (20251019.1705)
 -->
<!-- Title: Games/Four_in_a_row/four.cpp Pages: 1 -->
<svg width="525pt" height="276pt"
 viewBox="0.00 0.00 525.00 276.00" xmlns="http://www.w3.org/2000/svg" xmlns:xlink="http://www.w3.org/1999/xlink">
<g id="graph0" class="graph" transform="scale(1 1) rotate(0) translate(4 272)">
<title>Games/Four_in_a_row/four.cpp</title>
<!-- Node1 -->
<g id="Node000001" class="node">
<title>Node1</title>
<g id="a_Node000001"><a xlink:title=" ">
<polygon fill="#999999" stroke="#666666" points="397.14,-268 282.89,-268 282.89,-236 397.14,-236 397.14,-268"/>
<text xml:space="preserve" text-anchor="start" x="290.89" y="-254.5" font-family="Helvetica,sans-Serif" font-size="10.00">Games/Four_in_a_row</text>
<text xml:space="preserve" text-anchor="middle" x="340.02" y="-242.5" font-family="Helvetica,sans-Serif" font-size="10.00">/four.cpp</text>
</a>
</g>
</g>
<!-- Node2 -->
<g id="Node000002" class="node">
<title>Node2</title>
<g id="a_Node000002"><a xlink:title=" ">
<polygon fill="#e0e0e0" stroke="#999999" points="53.77,-20 0.27,-20 0.27,0 53.77,0 53.77,-20"/>
<text xml:space="preserve" text-anchor="middle" x="27.02" y="-6.5" font-family="Helvetica,sans-Serif" font-size="10.00">iostream</text>
</a>
</g>
</g>
<!-- Node1&#45;&gt;Node2 -->
<g id="edge1_Node000001_Node000002" class="edge">
<title>Node1&#45;&gt;Node2</title>
<g id="a_edge1_Node000001_Node000002"><a xlink:title=" ">
<path fill="none" stroke="#63b8ff" d="M282.58,-251.13C206.51,-247.82 74.81,-229.24 13.02,-144 -11.42,-110.3 5.24,-58.56 17.42,-30.59"/>
<polygon fill="#63b8ff" stroke="#63b8ff" points="20.43,-32.41 21.44,-21.86 14.08,-29.48 20.43,-32.41"/>
</a>
</g>
</g>
<!-- Node3 -->
<g id="Node000003" class="node">
<title>Node3</title>
<g id="a_Node000003"><a xlink:title=" ">
<polygon fill="#e0e0e0" stroke="#999999" points="327.89,-20 278.14,-20 278.14,0 327.89,0 327.89,-20"/>
<text xml:space="preserve" text-anchor="middle" x="303.02" y="-6.5" font-family="Helvetica,sans-Serif" font-size="10.00">iomanip</text>
</a>
</g>
</g>
<!-- Node1&#45;&gt;Node3 -->
<g id="edge2_Node000001_Node000003" class="edge">
<title>Node1&#45;&gt;Node3</title>
<g id="a_edge2_Node000001_Node000003"><a xlink:title=" ">
<path fill="none" stroke="#63b8ff" d="M337.65,-235.62C331.22,-193.92 313.45,-78.68 306.18,-31.52"/>
<polygon fill="#63b8ff" stroke="#63b8ff" points="309.68,-31.22 304.69,-21.87 302.76,-32.29 309.68,-31.22"/>
</a>
</g>
</g>
<!-- Node4 -->
<g id="Node000004" class="node">
<title>Node4</title>
<g id="a_Node000004"><a xlink:title=" ">
<polygon fill="#e0e0e0" stroke="#999999" points="388.64,-200 343.39,-200 343.39,-180 388.64,-180 388.64,-200"/>
<text xml:space="preserve" text-anchor="middle" x="366.02" y="-186.5" font-family="Helvetica,sans-Serif" font-size="10.00">cctype</text>
</a>
</g>
</g>
<!-- Node1&#45;&gt;Node4 -->
<g id="edge3_Node000001_Node000004" class="edge">
<title>Node1&#45;&gt;Node4</title>
<g id="a_edge3_Node000001_Node000004"><a xlink:title=" ">
<path fill="none" stroke="#63b8ff" d="M346.71,-235.55C349.98,-228 353.96,-218.82 357.45,-210.77"/>
<polygon fill="#63b8ff" stroke="#63b8ff" points="360.57,-212.36 361.34,-201.8 354.15,-209.58 360.57,-212.36"/>
</a>
</g>
</g>
<!-- Node5 -->
<g id="Node000005" class="node">
<title>Node5</title>
<g id="a_Node000005"><a xlink:title=" ">
<polygon fill="#e0e0e0" stroke="#999999" points="451.27,-200 406.77,-200 406.77,-180 451.27,-180 451.27,-200"/>
<text xml:space="preserve" text-anchor="middle" x="429.02" y="-186.5" font-family="Helvetica,sans-Serif" font-size="10.00">climits</text>
</a>
</g>
</g>
<!-- Node1&#45;&gt;Node5 -->
<g id="edge4_Node000001_Node000005" class="edge">
<title>Node1&#45;&gt;Node5</title>
<g id="a_edge4_Node000001_Node000005"><a xlink:title=" ">
<path fill="none" stroke="#63b8ff" d="M362.94,-235.55C376.07,-226.69 392.51,-215.61 405.71,-206.71"/>
<polygon fill="#63b8ff" stroke="#63b8ff" points="407.47,-209.75 413.81,-201.25 403.56,-203.94 407.47,-209.75"/>
</a>
</g>
</g>
<!-- Node6 -->
<g id="Node000006" class="node">
<title>Node6</title>
<g id="a_Node000006"><a xlink:title=" ">
<polygon fill="#e0e0e0" stroke="#999999" points="517.14,-200 468.89,-200 468.89,-180 517.14,-180 517.14,-200"/>
<text xml:space="preserve" text-anchor="middle" x="493.02" y="-186.5" font-family="Helvetica,sans-Serif" font-size="10.00">random</text>
</a>
</g>
</g>
<!-- Node1&#45;&gt;Node6 -->
<g id="edge5_Node000001_Node000006" class="edge">
<title>Node1&#45;&gt;Node6</title>
<g id="a_edge5_Node000001_Node000006"><a xlink:title=" ">
<path fill="none" stroke="#63b8ff" d="M379.42,-235.55C403.88,-225.96 435.01,-213.75 458.5,-204.54"/>
<polygon fill="#63b8ff" stroke="#63b8ff" points="459.59,-207.87 467.62,-200.96 457.03,-201.35 459.59,-207.87"/>
</a>
</g>
</g>
<!-- Node7 -->
<g id="Node000007" class="node">
<title>Node7</title>
<g id="a_Node000007"><a xlink:href="four_8h.html" target="_top" xlink:title="Defines the 6x7 Connect&#45;Four game variant with AI and UI support.">
<polygon fill="white" stroke="#666666" points="257.39,-200 216.64,-200 216.64,-180 257.39,-180 257.39,-200"/>
<text xml:space="preserve" text-anchor="middle" x="237.02" y="-186.5" font-family="Helvetica,sans-Serif" font-size="10.00">four.h</text>
</a>
</g>
</g>
<!-- Node1&#45;&gt;Node7 -->
<g id="edge6_Node000001_Node000007" class="edge">
<title>Node1&#45;&gt;Node7</title>
<g id="a_edge6_Node000001_Node000007"><a xlink:title=" ">
<path fill="none" stroke="#63b8ff" d="M313.49,-235.55C297.99,-226.52 278.52,-215.17 263.1,-206.19"/>
<polygon fill="#63b8ff" stroke="#63b8ff" points="264.88,-203.18 254.47,-201.17 261.35,-209.23 264.88,-203.18"/>
</a>
</g>
</g>
<!-- Node8 -->
<g id="Node000008" class="node">
<title>Node8</title>
<g id="a_Node000008"><a xlink:href="_board_game___classes_8h.html" target="_top" xlink:title=" ">
<polygon fill="white" stroke="#666666" points="287.02,-88 169.02,-88 169.02,-56 287.02,-56 287.02,-88"/>
<text xml:space="preserve" text-anchor="start" x="177.02" y="-74.5" font-family="Helvetica,sans-Serif" font-size="10.00">../../header/BoardGame</text>
<text xml:space="preserve" text-anchor="middle" x="228.02" y="-62.5" font-family="Helvetica,sans-Serif" font-size="10.00">_Classes.h</text>
</a>
</g>
</g>
<!-- Node7&#45;&gt;Node8 -->
<g id="edge7_Node000007_Node000008" class="edge">
<title>Node7&#45;&gt;Node8</title>
<g id="a_edge7_Node000007_Node000008"><a xlink:title=" ">
<path fill="none" stroke="#63b8ff" d="M243.49,-179.82C251.52,-167.31 263.5,-144.14 258.02,-124 255.51,-114.8 250.88,-105.57 245.99,-97.54"/>
<polygon fill="#63b8ff" stroke="#63b8ff" points="249.04,-95.81 240.64,-89.36 243.19,-99.64 249.04,-95.81"/>
</a>
</g>
</g>
<!-- Node11 -->
<g id="Node000011" class="node">
<title>Node11</title>
<g id="a_Node000011"><a xlink:href="_a_i_8h.html" target="_top" xlink:title=" ">
<polygon fill="white" stroke="#666666" points="249.14,-144 164.89,-144 164.89,-124 249.14,-124 249.14,-144"/>
<text xml:space="preserve" text-anchor="middle" x="207.02" y="-130.5" font-family="Helvetica,sans-Serif" font-size="10.00">../../header/AI.h</text>
</a>
</g>
</g>
<!-- Node7&#45;&gt;Node11 -->
<g id="edge12_Node000007_Node000011" class="edge">
<title>Node7&#45;&gt;Node11</title>
<g id="a_edge12_Node000007_Node000011"><a xlink:title=" ">
<path fill="none" stroke="#63b8ff" d="M231.79,-179.59C227.92,-172.63 222.51,-162.89 217.73,-154.29"/>
<polygon fill="#63b8ff" stroke="#63b8ff" points="220.83,-152.66 212.92,-145.62 214.71,-156.06 220.83,-152.66"/>
</a>
</g>
</g>
<!-- Node12 -->
<g id="Node000012" class="node">
<title>Node12</title>
<g id="a_Node000012"><a xlink:href="_custom___u_i_8h.html" target="_top" xlink:title="Defines a customizable user interface for board games.">
<polygon fill="white" stroke="#666666" points="146.39,-144 21.64,-144 21.64,-124 146.39,-124 146.39,-144"/>
<text xml:space="preserve" text-anchor="middle" x="84.02" y="-130.5" font-family="Helvetica,sans-Serif" font-size="10.00">../../header/Custom_UI.h</text>
</a>
</g>
</g>
<!-- Node7&#45;&gt;Node12 -->
<g id="edge14_Node000007_Node000012" class="edge">
<title>Node7&#45;&gt;Node12</title>
<g id="a_edge14_Node000007_Node000012"><a xlink:title=" ">
<path fill="none" stroke="#63b8ff" d="M216.38,-181.72C192.05,-173.13 151.12,-158.69 121.21,-148.13"/>
<polygon fill="#63b8ff" stroke="#63b8ff" points="122.76,-144.96 112.17,-144.94 120.43,-151.56 122.76,-144.96"/>
</a>
</g>
</g>
<!-- Node8&#45;&gt;Node2 -->
<g id="edge10_Node000008_Node000002" class="edge">
<title>Node8&#45;&gt;Node2</title>
<g id="a_edge10_Node000008_Node000002"><a xlink:title=" ">
<path fill="none" stroke="#63b8ff" d="M176.25,-55.55C141.55,-45.19 96.61,-31.78 65.16,-22.39"/>
<polygon fill="#63b8ff" stroke="#63b8ff" points="66.25,-19.06 55.67,-19.55 64.25,-25.77 66.25,-19.06"/>
</a>
</g>
</g>
<!-- Node8&#45;&gt;Node3 -->
<g id="edge11_Node000008_Node000003" class="edge">
<title>Node8&#45;&gt;Node3</title>
<g id="a_edge11_Node000008_Node000003"><a xlink:title=" ">
<path fill="none" stroke="#63b8ff" d="M247.33,-55.55C258.07,-46.95 271.44,-36.26 282.39,-27.5"/>
<polygon fill="#63b8ff" stroke="#63b8ff" points="284.45,-30.33 290.07,-21.35 280.08,-24.87 284.45,-30.33"/>
</a>
</g>
</g>
<!-- Node9 -->
<g id="Node000009" class="node">
<title>Node9</title>
<g id="a_Node000009"><a xlink:title=" ">
<polygon fill="#e0e0e0" stroke="#999999" points="248.02,-20 208.02,-20 208.02,0 248.02,0 248.02,-20"/>
<text xml:space="preserve" text-anchor="middle" x="228.02" y="-6.5" font-family="Helvetica,sans-Serif" font-size="10.00">string</text>
</a>
</g>
</g>
<!-- Node8&#45;&gt;Node9 -->
<g id="edge8_Node000008_Node000009" class="edge">
<title>Node8&#45;&gt;Node9</title>
<g id="a_edge8_Node000008_Node000009"><a xlink:title=" ">
<path fill="none" stroke="#63b8ff" d="M228.02,-55.55C228.02,-48.34 228.02,-39.66 228.02,-31.88"/>
<polygon fill="#63b8ff" stroke="#63b8ff" points="231.52,-31.92 228.02,-21.92 224.52,-31.92 231.52,-31.92"/>
</a>
</g>
</g>
<!-- Node10 -->
<g id="Node000010" class="node">
<title>Node10</title>
<g id="a_Node000010"><a xlink:title=" ">
<polygon fill="#e0e0e0" stroke="#999999" points="175.52,-20 132.52,-20 132.52,0 175.52,0 175.52,-20"/>
<text xml:space="preserve" text-anchor="middle" x="154.02" y="-6.5" font-family="Helvetica,sans-Serif" font-size="10.00">vector</text>
</a>
</g>
</g>
<!-- Node8&#45;&gt;Node10 -->
<g id="edge9_Node000008_Node000010" class="edge">
<title>Node8&#45;&gt;Node10</title>
<g id="a_edge9_Node000008_Node000010"><a xlink:title=" ">
<path fill="none" stroke="#63b8ff" d="M208.96,-55.55C198.36,-46.95 185.17,-36.26 174.37,-27.5"/>
<polygon fill="#63b8ff" stroke="#63b8ff" points="176.77,-24.94 166.8,-21.36 172.36,-30.38 176.77,-24.94"/>
</a>
</g>
</g>
<!-- Node11&#45;&gt;Node8 -->
<g id="edge13_Node000011_Node000008" class="edge">
<title>Node11&#45;&gt;Node8</title>
<g id="a_edge13_Node000011_Node000008"><a xlink:title=" ">
<path fill="none" stroke="#63b8ff" d="M210.3,-123.62C212.63,-116.95 215.89,-107.64 218.98,-98.82"/>
<polygon fill="#63b8ff" stroke="#63b8ff" points="222.22,-100.16 222.22,-89.57 215.61,-97.85 222.22,-100.16"/>
</a>
</g>
</g>
<!-- Node12&#45;&gt;Node2 -->
<g id="edge16_Node000012_Node000002" class="edge">
<title>Node12&#45;&gt;Node2</title>
<g id="a_edge16_Node000012_Node000002"><a xlink:title=" ">
<path fill="none" stroke="#63b8ff" d="M73.79,-123.61C65.15,-115.11 53.08,-101.85 46.02,-88 36.93,-70.19 32.04,-47.82 29.51,-31.78"/>
<polygon fill="#63b8ff" stroke="#63b8ff" points="32.99,-31.42 28.16,-21.99 26.06,-32.37 32.99,-31.42"/>
</a>
</g>
</g>
<!-- Node12&#45;&gt;Node8 -->
<g id="edge15_Node000012_Node000008" class="edge">
<title>Node12&#45;&gt;Node8</title>
<g id="a_edge15_Node000012_Node000008"><a xlink:title=" ">
<path fill="none" stroke="#63b8ff" d="M106.52,-123.62C126.24,-115.41 155.58,-103.18 180.48,-92.81"/>
<polygon fill="#63b8ff" stroke="#63b8ff" points="181.56,-96.15 189.44,-89.07 178.87,-89.69 181.56,-96.15"/>
</a>
</g>
</g>
<!-- Node12&#45;&gt;Node10 -->
<g id="edge17_Node000012_Node000010" class="edge">
<title>Node12&#45;&gt;Node10</title>
<g id="a_edge17_Node000012_Node000010"><a xlink:title=" ">
<path fill="none" stroke="#63b8ff" d="M93.4,-123.66C101.73,-115 113.82,-101.44 122.02,-88 133.07,-69.88 141.96,-47.25 147.54,-31.23"/>
<polygon fill="#63b8ff" stroke="#63b8ff" points="150.81,-32.48 150.66,-21.89 144.17,-30.26 150.81,-32.48"/>
</a>
</g>
</g>
<!-- Node13 -->
<g id="Node000013" class="node">
<title>Node13</title>
<g id="a_Node000013"><a xlink:title=" ">
<polygon fill="#e0e0e0" stroke="#999999" points="113.39,-82 54.64,-82 54.64,-62 113.39,-62 113.39,-82"/>
<text xml:space="preserve" text-anchor="middle" x="84.02" y="-68.5" font-family="Helvetica,sans-Serif" font-size="10.00">stdexcept</text>
</a>
</g>
</g>
<!-- Node12&#45;&gt;Node13 -->
<g id="edge18_Node000012_Node000013" class="edge">
<title>Node12&#45;&gt;Node13</title>
<g id="a_edge18_Node000012_Node000013"><a xlink:title=" ">
<path fill="none" stroke="#63b8ff" d="M84.02,-123.62C84.02,-115.56 84.02,-103.65 84.02,-93.41"/>
<polygon fill="#63b8ff" stroke="#63b8ff" points="87.52,-93.63 84.02,-83.63 80.52,-93.63 87.52,-93.63"/>
</a>
</g>
</g>
</g>
</svg>
