<?xml version="1.0" encoding="UTF-8" standalone="no"?>
<!DOCTYPE svg PUBLIC "-//W3C//DTD SVG 1.1//EN"
 "http://www.w3.org/Graphics/SVG/1.1/DTD/svg11.dtd">
<!-- Generated by graphviz version 14.0.2 (20251019.1705)
 -->
<!-- Title: Graphical Class Hierarchy Pages: 1 -->
<svg width="322pt" height="389pt"
 viewBox="0.00 0.00 322.00 389.00" xmlns="http://www.w3.org/2000/svg" xmlns:xlink="http://www.w3.org/1999/xlink">
<g id="graph0" class="graph" transform="scale(1 1) rotate(0) translate(4 385)">
<title>Graphical Class Hierarchy</title>
<!-- Node0 -->
<g id="Node000000" class="node">
<title>Node0</title>
<g id="a_Node000000"><a xlink:href="class_u_i.html" target="_top" xlink:title=" ">
<polygon fill="white" stroke="#666666" points="63.25,-134 0,-134 0,-114 63.25,-114 63.25,-134"/>
<text xml:space="preserve" text-anchor="middle" x="31.62" y="-120.5" font-family="Helvetica,sans-Serif" font-size="10.00">UI&lt; char &gt;</text>
</a>
</g>
</g>
<!-- Node1 -->
<g id="Node000001" class="node">
<title>Node1</title>
<g id="a_Node000001"><a xlink:href="class_custom___u_i.html" target="_top" xlink:title=" ">
<polygon fill="white" stroke="#666666" points="202.25,-248 99.25,-248 99.25,-228 202.25,-228 202.25,-248"/>
<text xml:space="preserve" text-anchor="middle" x="150.75" y="-234.5" font-family="Helvetica,sans-Serif" font-size="10.00">Custom_UI&lt; char &gt;</text>
</a>
</g>
</g>
<!-- Node0&#45;&gt;Node1 -->
<g id="edge30_Node000000_Node000001" class="edge">
<title>Node0&#45;&gt;Node1</title>
<g id="a_edge30_Node000000_Node000001"><a xlink:title=" ">
<path fill="none" stroke="#63b8ff" d="M42.39,-144.64C53.45,-165.97 73.34,-198.91 99.25,-219 103.62,-222.39 108.65,-225.22 113.82,-227.58"/>
<polygon fill="#63b8ff" stroke="#63b8ff" points="45.56,-143.15 37.98,-135.76 39.29,-146.27 45.56,-143.15"/>
</a>
</g>
</g>
<!-- Node10 -->
<g id="Node000010" class="node">
<title>Node10</title>
<g id="a_Node000010"><a xlink:href="class_obstacles___u_i.html" target="_top" xlink:title="User interface handler for Obstacles Tic&#45;Tac&#45;Toe.">
<polygon fill="white" stroke="#666666" points="188.75,-210 112.75,-210 112.75,-190 188.75,-190 188.75,-210"/>
<text xml:space="preserve" text-anchor="middle" x="150.75" y="-196.5" font-family="Helvetica,sans-Serif" font-size="10.00">Obstacles_UI</text>
</a>
</g>
</g>
<!-- Node0&#45;&gt;Node10 -->
<g id="edge39_Node000000_Node000010" class="edge">
<title>Node0&#45;&gt;Node10</title>
<g id="a_edge39_Node000000_Node000010"><a xlink:title=" ">
<path fill="none" stroke="#63b8ff" d="M50.03,-141.89C62.76,-154.18 80.94,-170.18 99.25,-181 104.73,-184.24 110.87,-187.1 116.92,-189.55"/>
<polygon fill="#63b8ff" stroke="#63b8ff" points="52.8,-139.7 43.23,-135.15 47.87,-144.67 52.8,-139.7"/>
</a>
</g>
</g>
<!-- Node11 -->
<g id="Node000011" class="node">
<title>Node11</title>
<g id="a_Node000011"><a xlink:href="class_pyramid_x_o___u_i.html" target="_top" xlink:title="Handles user interaction and drawing of the pyramid board.">
<polygon fill="white" stroke="#666666" points="191.75,-172 109.75,-172 109.75,-152 191.75,-152 191.75,-172"/>
<text xml:space="preserve" text-anchor="middle" x="150.75" y="-158.5" font-family="Helvetica,sans-Serif" font-size="10.00">PyramidXO_UI</text>
</a>
</g>
</g>
<!-- Node0&#45;&gt;Node11 -->
<g id="edge40_Node000000_Node000011" class="edge">
<title>Node0&#45;&gt;Node11</title>
<g id="a_edge40_Node000000_Node000011"><a xlink:title=" ">
<path fill="none" stroke="#63b8ff" d="M74.28,-137.51C88.56,-142.15 104.31,-147.26 117.71,-151.6"/>
<polygon fill="#63b8ff" stroke="#63b8ff" points="75.74,-134.31 65.14,-134.55 73.58,-140.97 75.74,-134.31"/>
</a>
</g>
</g>
<!-- Node12 -->
<g id="Node000012" class="node">
<title>Node12</title>
<g id="a_Node000012"><a xlink:href="class_ultimate___u_i.html" target="_top" xlink:title="User interface for Ultimate Tic&#45;Tac&#45;Toe.">
<polygon fill="white" stroke="#666666" points="185,-134 116.5,-134 116.5,-114 185,-114 185,-134"/>
<text xml:space="preserve" text-anchor="middle" x="150.75" y="-120.5" font-family="Helvetica,sans-Serif" font-size="10.00">Ultimate_UI</text>
</a>
</g>
</g>
<!-- Node0&#45;&gt;Node12 -->
<g id="edge41_Node000000_Node000012" class="edge">
<title>Node0&#45;&gt;Node12</title>
<g id="a_edge41_Node000000_Node000012"><a xlink:title=" ">
<path fill="none" stroke="#63b8ff" d="M75.14,-124C88.61,-124 103.3,-124 116.06,-124"/>
<polygon fill="#63b8ff" stroke="#63b8ff" points="75.22,-120.5 65.22,-124 75.22,-127.5 75.22,-120.5"/>
</a>
</g>
</g>
<!-- Node13 -->
<g id="Node000013" class="node">
<title>Node13</title>
<g id="a_Node000013"><a xlink:href="class_x_o___n_u_m___u_i.html" target="_top" xlink:title="User interface for Numerical Tic&#45;Tac&#45;Toe.">
<polygon fill="white" stroke="#666666" points="188,-96 113.5,-96 113.5,-76 188,-76 188,-96"/>
<text xml:space="preserve" text-anchor="middle" x="150.75" y="-82.5" font-family="Helvetica,sans-Serif" font-size="10.00">XO_NUM_UI</text>
</a>
</g>
</g>
<!-- Node0&#45;&gt;Node13 -->
<g id="edge42_Node000000_Node000013" class="edge">
<title>Node0&#45;&gt;Node13</title>
<g id="a_edge42_Node000000_Node000013"><a xlink:title=" ">
<path fill="none" stroke="#63b8ff" d="M74.28,-110.49C88.56,-105.85 104.31,-100.74 117.71,-96.4"/>
<polygon fill="#63b8ff" stroke="#63b8ff" points="73.58,-107.03 65.14,-113.45 75.74,-113.69 73.58,-107.03"/>
</a>
</g>
</g>
<!-- Node14 -->
<g id="Node000014" class="node">
<title>Node14</title>
<g id="a_Node000014"><a xlink:href="class__4by4_x_o___u_i.html" target="_top" xlink:title="Handles user interaction for sliding 4x4 XO.">
<polygon fill="white" stroke="#666666" points="186.88,-58 114.62,-58 114.62,-38 186.88,-38 186.88,-58"/>
<text xml:space="preserve" text-anchor="middle" x="150.75" y="-44.5" font-family="Helvetica,sans-Serif" font-size="10.00">_4by4XO_UI</text>
</a>
</g>
</g>
<!-- Node0&#45;&gt;Node14 -->
<g id="edge43_Node000000_Node000014" class="edge">
<title>Node0&#45;&gt;Node14</title>
<g id="a_edge43_Node000000_Node000014"><a xlink:title=" ">
<path fill="none" stroke="#63b8ff" d="M50.03,-106.11C62.76,-93.82 80.94,-77.82 99.25,-67 104.73,-63.76 110.87,-60.9 116.92,-58.45"/>
<polygon fill="#63b8ff" stroke="#63b8ff" points="47.87,-103.33 43.23,-112.85 52.8,-108.3 47.87,-103.33"/>
</a>
</g>
</g>
<!-- Node15 -->
<g id="Node000015" class="node">
<title>Node15</title>
<g id="a_Node000015"><a xlink:href="classdia___x_o___u_i.html" target="_top" xlink:title="User interface for diamond&#45;shaped Tic&#45;Tac&#45;Toe.">
<polygon fill="white" stroke="#666666" points="182.75,-20 118.75,-20 118.75,0 182.75,0 182.75,-20"/>
<text xml:space="preserve" text-anchor="middle" x="150.75" y="-6.5" font-family="Helvetica,sans-Serif" font-size="10.00">dia_XO_UI</text>
</a>
</g>
</g>
<!-- Node0&#45;&gt;Node15 -->
<g id="edge44_Node000000_Node000015" class="edge">
<title>Node0&#45;&gt;Node15</title>
<g id="a_edge44_Node000000_Node000015"><a xlink:title=" ">
<path fill="none" stroke="#63b8ff" d="M42.39,-103.36C53.45,-82.03 73.34,-49.09 99.25,-29 104.88,-24.64 111.61,-21.19 118.3,-18.5"/>
<polygon fill="#63b8ff" stroke="#63b8ff" points="39.29,-101.73 37.98,-112.24 45.56,-104.85 39.29,-101.73"/>
</a>
</g>
</g>
<!-- Node2 -->
<g id="Node000002" class="node">
<title>Node2</title>
<g id="a_Node000002"><a xlink:href="class_anti___x_o___u_i.html" target="_top" xlink:title="User interface for Anti Tic&#45;Tac&#45;Toe.">
<polygon fill="white" stroke="#666666" points="310.12,-381 241.62,-381 241.62,-361 310.12,-361 310.12,-381"/>
<text xml:space="preserve" text-anchor="middle" x="275.88" y="-367.5" font-family="Helvetica,sans-Serif" font-size="10.00">Anti_XO_UI</text>
</a>
</g>
</g>
<!-- Node1&#45;&gt;Node2 -->
<g id="edge31_Node000001_Node000002" class="edge">
<title>Node1&#45;&gt;Node2</title>
<g id="a_edge31_Node000001_Node000002"><a xlink:title=" ">
<path fill="none" stroke="#63b8ff" d="M163.12,-258.04C177.88,-282.66 205.65,-324.53 238.25,-352 242.08,-355.23 246.56,-358.12 251.04,-360.6"/>
<polygon fill="#63b8ff" stroke="#63b8ff" points="166.29,-256.52 158.22,-249.66 160.25,-260.05 166.29,-256.52"/>
</a>
</g>
</g>
<!-- Node3 -->
<g id="Node000003" class="node">
<title>Node3</title>
<g id="a_Node000003"><a xlink:href="class_f_o_u_r___u_i.html" target="_top" xlink:title="Handles user interaction and UI for Connect&#45;Four.">
<polygon fill="white" stroke="#666666" points="306,-343 245.75,-343 245.75,-323 306,-323 306,-343"/>
<text xml:space="preserve" text-anchor="middle" x="275.88" y="-329.5" font-family="Helvetica,sans-Serif" font-size="10.00">FOUR_UI</text>
</a>
</g>
</g>
<!-- Node1&#45;&gt;Node3 -->
<g id="edge32_Node000001_Node000003" class="edge">
<title>Node1&#45;&gt;Node3</title>
<g id="a_edge32_Node000001_Node000003"><a xlink:title=" ">
<path fill="none" stroke="#63b8ff" d="M169.86,-256.26C186.65,-272.61 212.81,-296.61 238.25,-314 242.74,-317.07 247.8,-320 252.68,-322.59"/>
<polygon fill="#63b8ff" stroke="#63b8ff" points="172.63,-254.09 163.06,-249.55 167.72,-259.07 172.63,-254.09"/>
</a>
</g>
</g>
<!-- Node4 -->
<g id="Node000004" class="node">
<title>Node4</title>
<g id="a_Node000004"><a xlink:href="class_large___x_o___u_i.html" target="_top" xlink:title="User interface for 5x5 Tic&#45;Tac&#45;Toe (human and AI interaction).">
<polygon fill="white" stroke="#666666" points="313.5,-305 238.25,-305 238.25,-285 313.5,-285 313.5,-305"/>
<text xml:space="preserve" text-anchor="middle" x="275.88" y="-291.5" font-family="Helvetica,sans-Serif" font-size="10.00">Large_XO_UI</text>
</a>
</g>
</g>
<!-- Node1&#45;&gt;Node4 -->
<g id="edge33_Node000001_Node000004" class="edge">
<title>Node1&#45;&gt;Node4</title>
<g id="a_edge33_Node000001_Node000004"><a xlink:title=" ">
<path fill="none" stroke="#63b8ff" d="M184.62,-253.22C206.05,-263.14 233.47,-275.83 252.44,-284.61"/>
<polygon fill="#63b8ff" stroke="#63b8ff" points="186.25,-250.12 175.71,-249.09 183.31,-256.47 186.25,-250.12"/>
</a>
</g>
</g>
<!-- Node5 -->
<g id="Node000005" class="node">
<title>Node5</title>
<g id="a_Node000005"><a xlink:href="class_memory___u_i.html" target="_top" xlink:title="User interface for Memory Tic&#45;Tac&#45;Toe.">
<polygon fill="white" stroke="#666666" points="309.38,-267 242.38,-267 242.38,-247 309.38,-247 309.38,-267"/>
<text xml:space="preserve" text-anchor="middle" x="275.88" y="-253.5" font-family="Helvetica,sans-Serif" font-size="10.00">Memory_UI</text>
</a>
</g>
</g>
<!-- Node1&#45;&gt;Node5 -->
<g id="edge34_Node000001_Node000005" class="edge">
<title>Node1&#45;&gt;Node5</title>
<g id="a_edge34_Node000001_Node000005"><a xlink:title=" ">
<path fill="none" stroke="#63b8ff" d="M213.62,-247.55C223.48,-249.07 233.32,-250.59 242.15,-251.95"/>
<polygon fill="#63b8ff" stroke="#63b8ff" points="214.45,-244.13 204.04,-246.07 213.39,-251.05 214.45,-244.13"/>
</a>
</g>
</g>
<!-- Node6 -->
<g id="Node000006" class="node">
<title>Node6</title>
<g id="a_Node000006"><a xlink:href="class_s_u_s___u_i.html" target="_top" xlink:title="User interface for the SUS game.">
<polygon fill="white" stroke="#666666" points="302.25,-229 249.5,-229 249.5,-209 302.25,-209 302.25,-229"/>
<text xml:space="preserve" text-anchor="middle" x="275.88" y="-215.5" font-family="Helvetica,sans-Serif" font-size="10.00">SUS_UI</text>
</a>
</g>
</g>
<!-- Node1&#45;&gt;Node6 -->
<g id="edge35_Node000001_Node000006" class="edge">
<title>Node1&#45;&gt;Node6</title>
<g id="a_edge35_Node000001_Node000006"><a xlink:title=" ">
<path fill="none" stroke="#63b8ff" d="M213.54,-228.47C226.11,-226.53 238.67,-224.59 249.12,-222.97"/>
<polygon fill="#63b8ff" stroke="#63b8ff" points="213.39,-224.95 204.04,-229.93 214.45,-231.87 213.39,-224.95"/>
</a>
</g>
</g>
<!-- Node7 -->
<g id="Node000007" class="node">
<title>Node7</title>
<g id="a_Node000007"><a xlink:href="class_word___x_o___u_i.html" target="_top" xlink:title="User interface for Word Tic&#45;Tac&#45;Toe.">
<polygon fill="white" stroke="#666666" points="312.75,-191 239,-191 239,-171 312.75,-171 312.75,-191"/>
<text xml:space="preserve" text-anchor="middle" x="275.88" y="-177.5" font-family="Helvetica,sans-Serif" font-size="10.00">Word_XO_UI</text>
</a>
</g>
</g>
<!-- Node1&#45;&gt;Node7 -->
<g id="edge36_Node000001_Node000007" class="edge">
<title>Node1&#45;&gt;Node7</title>
<g id="a_edge36_Node000001_Node000007"><a xlink:title=" ">
<path fill="none" stroke="#63b8ff" d="M191.91,-223.42C195.43,-221.98 198.92,-220.5 202.25,-219 218.75,-211.58 222.22,-208.39 238.25,-200 243.58,-197.21 249.36,-194.21 254.71,-191.43"/>
<polygon fill="#63b8ff" stroke="#63b8ff" points="190.81,-220.09 182.79,-227.01 193.37,-226.6 190.81,-220.09"/>
</a>
</g>
</g>
<!-- Node8 -->
<g id="Node000008" class="node">
<title>Node8</title>
<g id="a_Node000008"><a xlink:href="class_x_o___u_i.html" target="_top" xlink:title="User interface for Tic&#45;Tac&#45;Toe.">
<polygon fill="white" stroke="#666666" points="298.88,-153 252.88,-153 252.88,-133 298.88,-133 298.88,-153"/>
<text xml:space="preserve" text-anchor="middle" x="275.88" y="-139.5" font-family="Helvetica,sans-Serif" font-size="10.00">XO_UI</text>
</a>
</g>
</g>
<!-- Node1&#45;&gt;Node8 -->
<g id="edge37_Node000001_Node000008" class="edge">
<title>Node1&#45;&gt;Node8</title>
<g id="a_edge37_Node000001_Node000008"><a xlink:title=" ">
<path fill="none" stroke="#63b8ff" d="M198.19,-222C199.6,-221.05 200.96,-220.05 202.25,-219 225.48,-200.07 216.18,-182.27 238.25,-162 242.47,-158.12 247.63,-154.81 252.73,-152.1"/>
<polygon fill="#63b8ff" stroke="#63b8ff" points="196.68,-218.83 189.67,-226.78 200.1,-224.94 196.68,-218.83"/>
</a>
</g>
</g>
<!-- Node9 -->
<g id="Node000009" class="node">
<title>Node9</title>
<g id="a_Node000009"><a xlink:href="class_x_o__inf___u_i.html" target="_top" xlink:title="User interface controller for infinite Tic&#45;Tac&#45;Toe.">
<polygon fill="white" stroke="#666666" points="306.75,-115 245,-115 245,-95 306.75,-95 306.75,-115"/>
<text xml:space="preserve" text-anchor="middle" x="275.88" y="-101.5" font-family="Helvetica,sans-Serif" font-size="10.00">XO_inf_UI</text>
</a>
</g>
</g>
<!-- Node1&#45;&gt;Node9 -->
<g id="edge38_Node000001_Node000009" class="edge">
<title>Node1&#45;&gt;Node9</title>
<g id="a_edge38_Node000001_Node000009"><a xlink:title=" ">
<path fill="none" stroke="#63b8ff" d="M199.54,-221.47C200.48,-220.68 201.39,-219.86 202.25,-219 234.22,-187.11 208.23,-157.73 238.25,-124 241.2,-120.68 244.87,-117.86 248.74,-115.48"/>
<polygon fill="#63b8ff" stroke="#63b8ff" points="197.95,-218.32 191.54,-226.75 201.81,-224.16 197.95,-218.32"/>
</a>
</g>
</g>
</g>
</svg>
