<?xml version="1.0" encoding="UTF-8" standalone="no"?>
<!DOCTYPE svg PUBLIC "-//W3C//DTD SVG 1.1//EN"
 "http://www.w3.org/Graphics/SVG/1.1/DTD/svg11.dtd">
<!-- Generated by graphviz version 14.0.2 (20251019.1705)
 -->
<!-- Title: Graphical Class Hierarchy Pages: 1 -->
<svg width="219pt" height="522pt"
 viewBox="0.00 0.00 219.00 522.00" xmlns="http://www.w3.org/2000/svg" xmlns:xlink="http://www.w3.org/1999/xlink">
<g id="graph0" class="graph" transform="scale(1 1) rotate(0) translate(4 518)">
<title>Graphical Class Hierarchy</title>
<!-- Node0 -->
<g id="Node000000" class="node">
<title>Node0</title>
<g id="a_Node000000"><a xlink:href="class_board.html" target="_top" xlink:title=" ">
<polygon fill="white" stroke="#666666" points="78.25,-267 0,-267 0,-247 78.25,-247 78.25,-267"/>
<text xml:space="preserve" text-anchor="middle" x="39.12" y="-253.5" font-family="Helvetica,sans-Serif" font-size="10.00">Board&lt; char &gt;</text>
</a>
</g>
</g>
<!-- Node1 -->
<g id="Node000001" class="node">
<title>Node1</title>
<g id="a_Node000001"><a xlink:href="class_anti___x_o___board.html" target="_top" xlink:title="Board implementation for Anti Tic&#45;Tac&#45;Toe.">
<polygon fill="white" stroke="#666666" points="204.5,-514 121,-514 121,-494 204.5,-494 204.5,-514"/>
<text xml:space="preserve" text-anchor="middle" x="162.75" y="-500.5" font-family="Helvetica,sans-Serif" font-size="10.00">Anti_XO_Board</text>
</a>
</g>
</g>
<!-- Node0&#45;&gt;Node1 -->
<g id="edge15_Node000000_Node000001" class="edge">
<title>Node0&#45;&gt;Node1</title>
<g id="a_edge15_Node000000_Node000001"><a xlink:title=" ">
<path fill="none" stroke="#63b8ff" d="M41.24,-278.79C44.65,-323.29 58.46,-425.39 114.25,-485 117.53,-488.5 121.54,-491.37 125.82,-493.72"/>
<polygon fill="#63b8ff" stroke="#63b8ff" points="44.74,-278.66 40.6,-268.91 37.75,-279.11 44.74,-278.66"/>
</a>
</g>
</g>
<!-- Node2 -->
<g id="Node000002" class="node">
<title>Node2</title>
<g id="a_Node000002"><a xlink:href="class_f_o_u_r___board.html" target="_top" xlink:title="Represents a 6x7 Connect&#45;Four board.">
<polygon fill="white" stroke="#666666" points="200.38,-476 125.12,-476 125.12,-456 200.38,-456 200.38,-476"/>
<text xml:space="preserve" text-anchor="middle" x="162.75" y="-462.5" font-family="Helvetica,sans-Serif" font-size="10.00">FOUR_Board</text>
</a>
</g>
</g>
<!-- Node0&#45;&gt;Node2 -->
<g id="edge16_Node000000_Node000002" class="edge">
<title>Node0&#45;&gt;Node2</title>
<g id="a_edge16_Node000000_Node000002"><a xlink:title=" ">
<path fill="none" stroke="#63b8ff" d="M42.88,-278.56C48.91,-317.3 66.77,-399.11 114.25,-447 117.63,-450.41 121.69,-453.22 126.01,-455.54"/>
<polygon fill="#63b8ff" stroke="#63b8ff" points="46.34,-278.09 41.47,-268.68 39.41,-279.08 46.34,-278.09"/>
</a>
</g>
</g>
<!-- Node3 -->
<g id="Node000003" class="node">
<title>Node3</title>
<g id="a_Node000003"><a xlink:href="class_large___x_o___board.html" target="_top" xlink:title="5x5 Tic&#45;Tac&#45;Toe board implementation using a bitboard for fast evaluation.">
<polygon fill="white" stroke="#666666" points="207.88,-438 117.62,-438 117.62,-418 207.88,-418 207.88,-438"/>
<text xml:space="preserve" text-anchor="middle" x="162.75" y="-424.5" font-family="Helvetica,sans-Serif" font-size="10.00">Large_XO_Board</text>
</a>
</g>
</g>
<!-- Node0&#45;&gt;Node3 -->
<g id="edge17_Node000000_Node000003" class="edge">
<title>Node0&#45;&gt;Node3</title>
<g id="a_edge17_Node000000_Node000003"><a xlink:title=" ">
<path fill="none" stroke="#63b8ff" d="M45.22,-278.29C54,-310.7 74.97,-372.49 114.25,-409 117.89,-412.39 122.22,-415.2 126.75,-417.53"/>
<polygon fill="#63b8ff" stroke="#63b8ff" points="48.68,-277.7 42.81,-268.88 41.9,-279.44 48.68,-277.7"/>
</a>
</g>
</g>
<!-- Node4 -->
<g id="Node000004" class="node">
<title>Node4</title>
<g id="a_Node000004"><a xlink:href="class_memory___board.html" target="_top" xlink:title="Specialized board class for Memory Tic&#45;Tac&#45;Toe.">
<polygon fill="white" stroke="#666666" points="203.75,-400 121.75,-400 121.75,-380 203.75,-380 203.75,-400"/>
<text xml:space="preserve" text-anchor="middle" x="162.75" y="-386.5" font-family="Helvetica,sans-Serif" font-size="10.00">Memory_Board</text>
</a>
</g>
</g>
<!-- Node0&#45;&gt;Node4 -->
<g id="edge18_Node000000_Node000004" class="edge">
<title>Node0&#45;&gt;Node4</title>
<g id="a_edge18_Node000000_Node000004"><a xlink:title=" ">
<path fill="none" stroke="#63b8ff" d="M48.75,-277.58C60.27,-302.78 82.92,-345.28 114.25,-371 118.37,-374.38 123.17,-377.22 128.1,-379.59"/>
<polygon fill="#63b8ff" stroke="#63b8ff" points="52.09,-276.47 44.86,-268.72 45.68,-279.28 52.09,-276.47"/>
</a>
</g>
</g>
<!-- Node5 -->
<g id="Node000005" class="node">
<title>Node5</title>
<g id="a_Node000005"><a xlink:href="class_obstacles___board.html" target="_top" xlink:title="Modified Tic&#45;Tac&#45;Toe board supporting traps and 64&#45;bit bitboard logic.">
<polygon fill="white" stroke="#666666" points="208.25,-362 117.25,-362 117.25,-342 208.25,-342 208.25,-362"/>
<text xml:space="preserve" text-anchor="middle" x="162.75" y="-348.5" font-family="Helvetica,sans-Serif" font-size="10.00">Obstacles_Board</text>
</a>
</g>
</g>
<!-- Node0&#45;&gt;Node5 -->
<g id="edge19_Node000000_Node000005" class="edge">
<title>Node0&#45;&gt;Node5</title>
<g id="a_edge19_Node000000_Node000005"><a xlink:title=" ">
<path fill="none" stroke="#63b8ff" d="M55.09,-276.41C68.91,-293.25 90.81,-317.33 114.25,-333 119.12,-336.26 124.64,-339.1 130.15,-341.52"/>
<polygon fill="#63b8ff" stroke="#63b8ff" points="57.85,-274.26 48.87,-268.63 52.38,-278.62 57.85,-274.26"/>
</a>
</g>
</g>
<!-- Node6 -->
<g id="Node000006" class="node">
<title>Node6</title>
<g id="a_Node000006"><a xlink:href="class_pyramid_x_o___board.html" target="_top" xlink:title="Represents the game board for the Pyramid XO variant.">
<polygon fill="white" stroke="#666666" points="211.25,-324 114.25,-324 114.25,-304 211.25,-304 211.25,-324"/>
<text xml:space="preserve" text-anchor="middle" x="162.75" y="-310.5" font-family="Helvetica,sans-Serif" font-size="10.00">PyramidXO_Board</text>
</a>
</g>
</g>
<!-- Node0&#45;&gt;Node6 -->
<g id="edge20_Node000000_Node000006" class="edge">
<title>Node0&#45;&gt;Node6</title>
<g id="a_edge20_Node000000_Node000006"><a xlink:title=" ">
<path fill="none" stroke="#63b8ff" d="M69.25,-272.72C82.79,-279.83 99.19,-288.15 114.25,-295 120.72,-297.94 127.78,-300.9 134.44,-303.58"/>
<polygon fill="#63b8ff" stroke="#63b8ff" points="70.9,-269.64 60.42,-268.05 67.62,-275.82 70.9,-269.64"/>
</a>
</g>
</g>
<!-- Node7 -->
<g id="Node000007" class="node">
<title>Node7</title>
<g id="a_Node000007"><a xlink:href="class_s_u_s___board.html" target="_top" xlink:title="Represents the 3x3 SUS game board.">
<polygon fill="white" stroke="#666666" points="196.62,-286 128.88,-286 128.88,-266 196.62,-266 196.62,-286"/>
<text xml:space="preserve" text-anchor="middle" x="162.75" y="-272.5" font-family="Helvetica,sans-Serif" font-size="10.00">SUS_Board</text>
</a>
</g>
</g>
<!-- Node0&#45;&gt;Node7 -->
<g id="edge21_Node000000_Node000007" class="edge">
<title>Node0&#45;&gt;Node7</title>
<g id="a_edge21_Node000000_Node000007"><a xlink:title=" ">
<path fill="none" stroke="#63b8ff" d="M89.79,-264.76C102.8,-266.79 116.51,-268.93 128.44,-270.8"/>
<polygon fill="#63b8ff" stroke="#63b8ff" points="90.52,-261.33 80.1,-263.25 89.44,-268.25 90.52,-261.33"/>
</a>
</g>
</g>
<!-- Node8 -->
<g id="Node000008" class="node">
<title>Node8</title>
<g id="a_Node000008"><a xlink:href="class_ultimate___board.html" target="_top" xlink:title="Represents a 9x9 Ultimate Tic&#45;Tac&#45;Toe board.">
<polygon fill="white" stroke="#666666" points="204.5,-248 121,-248 121,-228 204.5,-228 204.5,-248"/>
<text xml:space="preserve" text-anchor="middle" x="162.75" y="-234.5" font-family="Helvetica,sans-Serif" font-size="10.00">Ultimate_Board</text>
</a>
</g>
</g>
<!-- Node0&#45;&gt;Node8 -->
<g id="edge22_Node000000_Node000008" class="edge">
<title>Node0&#45;&gt;Node8</title>
<g id="a_edge22_Node000000_Node000008"><a xlink:title=" ">
<path fill="none" stroke="#63b8ff" d="M89.88,-249.23C100.08,-247.63 110.71,-245.97 120.57,-244.43"/>
<polygon fill="#63b8ff" stroke="#63b8ff" points="89.44,-245.75 80.1,-250.75 90.52,-252.67 89.44,-245.75"/>
</a>
</g>
</g>
<!-- Node9 -->
<g id="Node000009" class="node">
<title>Node9</title>
<g id="a_Node000009"><a xlink:href="class_word___x_o___board.html" target="_top" xlink:title="Game board for Word Tic&#45;Tac&#45;Toe.">
<polygon fill="white" stroke="#666666" points="207.12,-210 118.38,-210 118.38,-190 207.12,-190 207.12,-210"/>
<text xml:space="preserve" text-anchor="middle" x="162.75" y="-196.5" font-family="Helvetica,sans-Serif" font-size="10.00">Word_XO_Board</text>
</a>
</g>
</g>
<!-- Node0&#45;&gt;Node9 -->
<g id="edge23_Node000000_Node000009" class="edge">
<title>Node0&#45;&gt;Node9</title>
<g id="a_edge23_Node000000_Node000009"><a xlink:title=" ">
<path fill="none" stroke="#63b8ff" d="M69.25,-241.28C82.79,-234.17 99.19,-225.85 114.25,-219 120.72,-216.06 127.78,-213.1 134.44,-210.42"/>
<polygon fill="#63b8ff" stroke="#63b8ff" points="67.62,-238.18 60.42,-245.95 70.9,-244.36 67.62,-238.18"/>
</a>
</g>
</g>
<!-- Node10 -->
<g id="Node000010" class="node">
<title>Node10</title>
<g id="a_Node000010"><a xlink:href="class_x_o___n_u_m___board.html" target="_top" xlink:title="Numerical Tic&#45;Tac&#45;Toe board.">
<polygon fill="white" stroke="#666666" points="207.5,-172 118,-172 118,-152 207.5,-152 207.5,-172"/>
<text xml:space="preserve" text-anchor="middle" x="162.75" y="-158.5" font-family="Helvetica,sans-Serif" font-size="10.00">XO_NUM_Board</text>
</a>
</g>
</g>
<!-- Node0&#45;&gt;Node10 -->
<g id="edge24_Node000000_Node000010" class="edge">
<title>Node0&#45;&gt;Node10</title>
<g id="a_edge24_Node000000_Node000010"><a xlink:title=" ">
<path fill="none" stroke="#63b8ff" d="M55.09,-237.59C68.91,-220.75 90.81,-196.67 114.25,-181 119.12,-177.74 124.64,-174.9 130.15,-172.48"/>
<polygon fill="#63b8ff" stroke="#63b8ff" points="52.38,-235.38 48.87,-245.37 57.85,-239.74 52.38,-235.38"/>
</a>
</g>
</g>
<!-- Node11 -->
<g id="Node000011" class="node">
<title>Node11</title>
<g id="a_Node000011"><a xlink:href="class_x_o__inf___board.html" target="_top" xlink:title="Board class for infinite Tic&#45;Tac&#45;Toe.">
<polygon fill="white" stroke="#666666" points="201.12,-134 124.38,-134 124.38,-114 201.12,-114 201.12,-134"/>
<text xml:space="preserve" text-anchor="middle" x="162.75" y="-120.5" font-family="Helvetica,sans-Serif" font-size="10.00">XO_inf_Board</text>
</a>
</g>
</g>
<!-- Node0&#45;&gt;Node11 -->
<g id="edge25_Node000000_Node000011" class="edge">
<title>Node0&#45;&gt;Node11</title>
<g id="a_edge25_Node000000_Node000011"><a xlink:title=" ">
<path fill="none" stroke="#63b8ff" d="M48.75,-236.42C60.27,-211.22 82.92,-168.72 114.25,-143 118.37,-139.62 123.17,-136.78 128.1,-134.41"/>
<polygon fill="#63b8ff" stroke="#63b8ff" points="45.68,-234.72 44.86,-245.28 52.09,-237.53 45.68,-234.72"/>
</a>
</g>
</g>
<!-- Node12 -->
<g id="Node000012" class="node">
<title>Node12</title>
<g id="a_Node000012"><a xlink:href="class_x___o___board.html" target="_top" xlink:title="Represents a Tic&#45;Tac&#45;Toe (X&#45;O) board.">
<polygon fill="white" stroke="#666666" points="195.88,-96 129.62,-96 129.62,-76 195.88,-76 195.88,-96"/>
<text xml:space="preserve" text-anchor="middle" x="162.75" y="-82.5" font-family="Helvetica,sans-Serif" font-size="10.00">X_O_Board</text>
</a>
</g>
</g>
<!-- Node0&#45;&gt;Node12 -->
<g id="edge26_Node000000_Node000012" class="edge">
<title>Node0&#45;&gt;Node12</title>
<g id="a_edge26_Node000000_Node000012"><a xlink:title=" ">
<path fill="none" stroke="#63b8ff" d="M45.22,-235.71C54,-203.3 74.97,-141.51 114.25,-105 118.54,-101.01 123.78,-97.81 129.19,-95.27"/>
<polygon fill="#63b8ff" stroke="#63b8ff" points="41.9,-234.56 42.81,-245.12 48.68,-236.3 41.9,-234.56"/>
</a>
</g>
</g>
<!-- Node13 -->
<g id="Node000013" class="node">
<title>Node13</title>
<g id="a_Node000013"><a xlink:href="class__4by4_x_o___board.html" target="_top" xlink:title="4x4 board for sliding Tic&#45;Tac&#45;Toe.">
<polygon fill="white" stroke="#666666" points="206.38,-58 119.12,-58 119.12,-38 206.38,-38 206.38,-58"/>
<text xml:space="preserve" text-anchor="middle" x="162.75" y="-44.5" font-family="Helvetica,sans-Serif" font-size="10.00">_4by4XO_Board</text>
</a>
</g>
</g>
<!-- Node0&#45;&gt;Node13 -->
<g id="edge27_Node000000_Node000013" class="edge">
<title>Node0&#45;&gt;Node13</title>
<g id="a_edge27_Node000000_Node000013"><a xlink:title=" ">
<path fill="none" stroke="#63b8ff" d="M42.88,-235.44C48.91,-196.7 66.77,-114.89 114.25,-67 117.63,-63.59 121.69,-60.78 126.01,-58.46"/>
<polygon fill="#63b8ff" stroke="#63b8ff" points="39.41,-234.92 41.47,-245.32 46.34,-235.91 39.41,-234.92"/>
</a>
</g>
</g>
<!-- Node14 -->
<g id="Node000014" class="node">
<title>Node14</title>
<g id="a_Node000014"><a xlink:href="classdia___x_o___board.html" target="_top" xlink:title="Represents the 7x7 diamond&#45;shaped Tic&#45;Tac&#45;Toe board.">
<polygon fill="white" stroke="#666666" points="202.25,-20 123.25,-20 123.25,0 202.25,0 202.25,-20"/>
<text xml:space="preserve" text-anchor="middle" x="162.75" y="-6.5" font-family="Helvetica,sans-Serif" font-size="10.00">dia_XO_Board</text>
</a>
</g>
</g>
<!-- Node0&#45;&gt;Node14 -->
<g id="edge28_Node000000_Node000014" class="edge">
<title>Node0&#45;&gt;Node14</title>
<g id="a_edge28_Node000000_Node000014"><a xlink:title=" ">
<path fill="none" stroke="#63b8ff" d="M41.24,-235.21C44.65,-190.71 58.46,-88.61 114.25,-29 117.53,-25.5 121.54,-22.63 125.82,-20.28"/>
<polygon fill="#63b8ff" stroke="#63b8ff" points="37.75,-234.89 40.6,-245.09 44.74,-235.34 37.75,-234.89"/>
</a>
</g>
</g>
</g>
</svg>
