<?xml version="1.0" encoding="UTF-8" standalone="no"?>
<!DOCTYPE svg PUBLIC "-//W3C//DTD SVG 1.1//EN"
 "http://www.w3.org/Graphics/SVG/1.1/DTD/svg11.dtd">
<!-- Generated by graphviz version 14.0.2 (20251019.1705)
 -->
<!-- Title: Graphical Class Hierarchy Pages: 1 -->
<svg width="154pt" height="522pt"
 viewBox="0.00 0.00 154.00 522.00" xmlns="http://www.w3.org/2000/svg" xmlns:xlink="http://www.w3.org/1999/xlink">
<g id="graph0" class="graph" transform="scale(1 1) rotate(0) translate(4 518)">
<title>Graphical Class Hierarchy</title>
<!-- Node0 -->
<g id="Node000000" class="node">
<title>Node0</title>
<g id="a_Node000000"><a xlink:href="$class_a_i.html" xlink:title="AI Interface for all implementations in games.">
<polygon fill="white" stroke="#666666" points="28.8,-267 0,-267 0,-247 28.8,-247 28.8,-267"/>
<text xml:space="preserve" text-anchor="middle" x="14.4" y="-253.5" font-family="Helvetica,sans-Serif" font-size="10.00">AI</text>
</a>
</g>
</g>
<!-- Node1 -->
<g id="Node000001" class="node">
<title>Node1</title>
<g id="a_Node000001"><a xlink:href="$class_anti___a_i.html" xlink:title="Simple AI for Anti&#45;XO that tries to avoid dangerous positions.">
<polygon fill="white" stroke="#666666" points="129.55,-514 81.3,-514 81.3,-494 129.55,-494 129.55,-514"/>
<text xml:space="preserve" text-anchor="middle" x="105.43" y="-500.5" font-family="Helvetica,sans-Serif" font-size="10.00">Anti_AI</text>
</a>
</g>
</g>
<!-- Node0&#45;&gt;Node1 -->
<g id="edge1_Node000000_Node000001" class="edge">
<title>Node0&#45;&gt;Node1</title>
<g id="a_edge1_Node000000_Node000001"><a xlink:title=" ">
<path fill="none" stroke="#63b8ff" d="M17.65,-278.61C23.29,-329.07 39.4,-452.84 64.8,-485 68.96,-490.27 74.94,-494.16 81,-497"/>
<polygon fill="#63b8ff" stroke="#63b8ff" points="21.16,-278.53 16.61,-268.96 14.21,-279.28 21.16,-278.53"/>
</a>
</g>
</g>
<!-- Node2 -->
<g id="Node000002" class="node">
<title>Node2</title>
<g id="a_Node000002"><a xlink:href="$class_four___a_i.html" xlink:title="Implements a minimax&#45;based AI for Connect&#45;Four.">
<polygon fill="white" stroke="#666666" points="130.68,-476 80.18,-476 80.18,-456 130.68,-456 130.68,-476"/>
<text xml:space="preserve" text-anchor="middle" x="105.43" y="-462.5" font-family="Helvetica,sans-Serif" font-size="10.00">Four_AI</text>
</a>
</g>
</g>
<!-- Node0&#45;&gt;Node2 -->
<g id="edge2_Node000000_Node000002" class="edge">
<title>Node0&#45;&gt;Node2</title>
<g id="a_edge2_Node000000_Node000002"><a xlink:title=" ">
<path fill="none" stroke="#63b8ff" d="M15.35,-278.67C16.39,-316.93 23.72,-397.13 64.8,-447 68.78,-451.83 74.27,-455.51 79.9,-458.29"/>
<polygon fill="#63b8ff" stroke="#63b8ff" points="18.86,-278.87 15.22,-268.92 11.86,-278.96 18.86,-278.87"/>
</a>
</g>
</g>
<!-- Node3 -->
<g id="Node000003" class="node">
<title>Node3</title>
<g id="a_Node000003"><a xlink:href="$class_large___x_o___a_i.html" xlink:title="AI for 5x5 Tic&#45;Tac&#45;Toe using Minimax + Neural Network heuristic.">
<polygon fill="white" stroke="#666666" points="142.68,-438 68.18,-438 68.18,-418 142.68,-418 142.68,-438"/>
<text xml:space="preserve" text-anchor="middle" x="105.43" y="-424.5" font-family="Helvetica,sans-Serif" font-size="10.00">Large_XO_AI</text>
</a>
</g>
</g>
<!-- Node0&#45;&gt;Node3 -->
<g id="edge3_Node000000_Node000003" class="edge">
<title>Node0&#45;&gt;Node3</title>
<g id="a_edge3_Node000000_Node000003"><a xlink:title=" ">
<path fill="none" stroke="#63b8ff" d="M17.07,-278.31C20.62,-310.3 31.57,-371.03 64.8,-409 67.81,-412.44 71.59,-415.32 75.61,-417.7"/>
<polygon fill="#63b8ff" stroke="#63b8ff" points="20.59,-278.34 16.15,-268.71 13.62,-279 20.59,-278.34"/>
</a>
</g>
</g>
<!-- Node4 -->
<g id="Node000004" class="node">
<title>Node4</title>
<g id="a_Node000004"><a xlink:href="$class_memory___a_i.html" xlink:title="AI controller for Memory Tic&#45;Tac&#45;Toe implementing the AI interface.">
<polygon fill="white" stroke="#666666" points="138.55,-400 72.3,-400 72.3,-380 138.55,-380 138.55,-400"/>
<text xml:space="preserve" text-anchor="middle" x="105.43" y="-386.5" font-family="Helvetica,sans-Serif" font-size="10.00">Memory_AI</text>
</a>
</g>
</g>
<!-- Node0&#45;&gt;Node4 -->
<g id="edge4_Node000000_Node000004" class="edge">
<title>Node0&#45;&gt;Node4</title>
<g id="a_edge4_Node000000_Node000004"><a xlink:title=" ">
<path fill="none" stroke="#63b8ff" d="M19.93,-278.66C26.16,-303.7 39.59,-344.81 64.8,-371 68.08,-374.41 72.1,-377.28 76.3,-379.67"/>
<polygon fill="#63b8ff" stroke="#63b8ff" points="23.36,-277.93 17.71,-268.97 16.53,-279.5 23.36,-277.93"/>
</a>
</g>
</g>
<!-- Node5 -->
<g id="Node000005" class="node">
<title>Node5</title>
<g id="a_Node000005"><a xlink:href="$class_obstacles___a_i.html" xlink:title=" ">
<polygon fill="white" stroke="#666666" points="143.05,-362 67.8,-362 67.8,-342 143.05,-342 143.05,-362"/>
<text xml:space="preserve" text-anchor="middle" x="105.43" y="-348.5" font-family="Helvetica,sans-Serif" font-size="10.00">Obstacles_AI</text>
</a>
</g>
</g>
<!-- Node0&#45;&gt;Node5 -->
<g id="edge5_Node000000_Node000005" class="edge">
<title>Node0&#45;&gt;Node5</title>
<g id="a_edge5_Node000000_Node000005"><a xlink:title=" ">
<path fill="none" stroke="#63b8ff" d="M24.9,-277.73C33.4,-294.42 47.22,-317.56 64.8,-333 68.58,-336.32 73.05,-339.2 77.59,-341.63"/>
<polygon fill="#63b8ff" stroke="#63b8ff" points="28.05,-276.21 20.54,-268.74 21.75,-279.27 28.05,-276.21"/>
</a>
</g>
</g>
<!-- Node6 -->
<g id="Node000006" class="node">
<title>Node6</title>
<g id="a_Node000006"><a xlink:href="$class_pyramid_x_o___a_i.html" xlink:title="Simple AI choosing a random valid empty pyramid cell.">
<polygon fill="white" stroke="#666666" points="146.05,-324 64.8,-324 64.8,-304 146.05,-304 146.05,-324"/>
<text xml:space="preserve" text-anchor="middle" x="105.43" y="-310.5" font-family="Helvetica,sans-Serif" font-size="10.00">PyramidXO_AI</text>
</a>
</g>
</g>
<!-- Node0&#45;&gt;Node6 -->
<g id="edge6_Node000000_Node000006" class="edge">
<title>Node0&#45;&gt;Node6</title>
<g id="a_edge6_Node000000_Node000006"><a xlink:title=" ">
<path fill="none" stroke="#63b8ff" d="M36.32,-274.65C44.87,-281.43 55.02,-288.99 64.8,-295 69.74,-298.04 75.24,-300.95 80.53,-303.53"/>
<polygon fill="#63b8ff" stroke="#63b8ff" points="38.61,-271.99 28.64,-268.39 34.19,-277.42 38.61,-271.99"/>
</a>
</g>
</g>
<!-- Node7 -->
<g id="Node000007" class="node">
<title>Node7</title>
<g id="a_Node000007"><a xlink:href="$class_s_u_s___a_i.html" xlink:title="Implements AI for the SUS game using Minimax with alpha&#45;beta pruning.">
<polygon fill="white" stroke="#666666" points="131.43,-286 79.43,-286 79.43,-266 131.43,-266 131.43,-286"/>
<text xml:space="preserve" text-anchor="middle" x="105.43" y="-272.5" font-family="Helvetica,sans-Serif" font-size="10.00">SUS_AI</text>
</a>
</g>
</g>
<!-- Node0&#45;&gt;Node7 -->
<g id="edge7_Node000000_Node000007" class="edge">
<title>Node0&#45;&gt;Node7</title>
<g id="a_edge7_Node000000_Node000007"><a xlink:title=" ">
<path fill="none" stroke="#63b8ff" d="M40.02,-262.26C52.13,-264.84 66.71,-267.95 78.93,-270.56"/>
<polygon fill="#63b8ff" stroke="#63b8ff" points="40.91,-258.87 30.4,-260.2 39.45,-265.71 40.91,-258.87"/>
</a>
</g>
</g>
<!-- Node8 -->
<g id="Node000008" class="node">
<title>Node8</title>
<g id="a_Node000008"><a xlink:href="$class_ultimate___a_i.html" xlink:title="AI for Ultimate Tic&#45;Tac&#45;Toe. Currently chooses random empty cell.">
<polygon fill="white" stroke="#666666" points="139.3,-248 71.55,-248 71.55,-228 139.3,-228 139.3,-248"/>
<text xml:space="preserve" text-anchor="middle" x="105.43" y="-234.5" font-family="Helvetica,sans-Serif" font-size="10.00">Ultimate_AI</text>
</a>
</g>
</g>
<!-- Node0&#45;&gt;Node8 -->
<g id="edge8_Node000000_Node000008" class="edge">
<title>Node0&#45;&gt;Node8</title>
<g id="a_edge8_Node000000_Node000008"><a xlink:title=" ">
<path fill="none" stroke="#63b8ff" d="M40.07,-251.73C49.68,-249.68 60.83,-247.3 71.12,-245.11"/>
<polygon fill="#63b8ff" stroke="#63b8ff" points="39.45,-248.29 30.4,-253.8 40.91,-255.13 39.45,-248.29"/>
</a>
</g>
</g>
<!-- Node9 -->
<g id="Node000009" class="node">
<title>Node9</title>
<g id="a_Node000009"><a xlink:href="$class_word___a_i.html" xlink:title="AI engine for the Word Tic&#45;Tac&#45;Toe game.">
<polygon fill="white" stroke="#666666" points="132.18,-210 78.68,-210 78.68,-190 132.18,-190 132.18,-210"/>
<text xml:space="preserve" text-anchor="middle" x="105.43" y="-196.5" font-family="Helvetica,sans-Serif" font-size="10.00">Word_AI</text>
</a>
</g>
</g>
<!-- Node0&#45;&gt;Node9 -->
<g id="edge9_Node000000_Node000009" class="edge">
<title>Node0&#45;&gt;Node9</title>
<g id="a_edge9_Node000000_Node000009"><a xlink:title=" ">
<path fill="none" stroke="#63b8ff" d="M36.32,-239.35C44.87,-232.57 55.02,-225.01 64.8,-219 69.74,-215.96 75.24,-213.05 80.53,-210.47"/>
<polygon fill="#63b8ff" stroke="#63b8ff" points="34.19,-236.58 28.64,-245.61 38.61,-242.01 34.19,-236.58"/>
</a>
</g>
</g>
<!-- Node10 -->
<g id="Node000010" class="node">
<title>Node10</title>
<g id="a_Node000010"><a xlink:href="$class_x_o___n_u_m___a_i.html" xlink:title="Random&#45;move AI for Numerical Tic&#45;Tac&#45;Toe.">
<polygon fill="white" stroke="#666666" points="142.3,-172 68.55,-172 68.55,-152 142.3,-152 142.3,-172"/>
<text xml:space="preserve" text-anchor="middle" x="105.43" y="-158.5" font-family="Helvetica,sans-Serif" font-size="10.00">XO_NUM_AI</text>
</a>
</g>
</g>
<!-- Node0&#45;&gt;Node10 -->
<g id="edge10_Node000000_Node000010" class="edge">
<title>Node0&#45;&gt;Node10</title>
<g id="a_edge10_Node000000_Node000010"><a xlink:title=" ">
<path fill="none" stroke="#63b8ff" d="M24.9,-236.27C33.4,-219.58 47.22,-196.44 64.8,-181 68.58,-177.68 73.05,-174.8 77.59,-172.37"/>
<polygon fill="#63b8ff" stroke="#63b8ff" points="21.75,-234.73 20.54,-245.26 28.05,-237.79 21.75,-234.73"/>
</a>
</g>
</g>
<!-- Node11 -->
<g id="Node000011" class="node">
<title>Node11</title>
<g id="a_Node000011"><a xlink:href="$class_x_o__inf___a_i.html" xlink:title=" ">
<polygon fill="white" stroke="#666666" points="135.93,-134 74.93,-134 74.93,-114 135.93,-114 135.93,-134"/>
<text xml:space="preserve" text-anchor="middle" x="105.43" y="-120.5" font-family="Helvetica,sans-Serif" font-size="10.00">XO_inf_AI</text>
</a>
</g>
</g>
<!-- Node0&#45;&gt;Node11 -->
<g id="edge11_Node000000_Node000011" class="edge">
<title>Node0&#45;&gt;Node11</title>
<g id="a_edge11_Node000000_Node000011"><a xlink:title=" ">
<path fill="none" stroke="#63b8ff" d="M19.93,-235.34C26.16,-210.3 39.59,-169.19 64.8,-143 68.08,-139.59 72.1,-136.72 76.3,-134.33"/>
<polygon fill="#63b8ff" stroke="#63b8ff" points="16.53,-234.5 17.71,-245.03 23.36,-236.07 16.53,-234.5"/>
</a>
</g>
</g>
<!-- Node12 -->
<g id="Node000012" class="node">
<title>Node12</title>
<g id="a_Node000012"><a xlink:href="$class_x___o___a_i.html" xlink:title="AI controller for Tic&#45;Tac&#45;Toe.">
<polygon fill="white" stroke="#666666" points="130.68,-96 80.18,-96 80.18,-76 130.68,-76 130.68,-96"/>
<text xml:space="preserve" text-anchor="middle" x="105.43" y="-82.5" font-family="Helvetica,sans-Serif" font-size="10.00">X_O_AI</text>
</a>
</g>
</g>
<!-- Node0&#45;&gt;Node12 -->
<g id="edge12_Node000000_Node000012" class="edge">
<title>Node0&#45;&gt;Node12</title>
<g id="a_edge12_Node000000_Node000012"><a xlink:title=" ">
<path fill="none" stroke="#63b8ff" d="M17.07,-235.69C20.62,-203.7 31.57,-142.97 64.8,-105 68.82,-100.41 74.2,-96.83 79.69,-94.08"/>
<polygon fill="#63b8ff" stroke="#63b8ff" points="13.62,-235 16.15,-245.29 20.59,-235.66 13.62,-235"/>
</a>
</g>
</g>
<!-- Node13 -->
<g id="Node000013" class="node">
<title>Node13</title>
<g id="a_Node000013"><a xlink:href="$class__4by4_x_o___a_i.html" xlink:title="Basic AI for 4x4 sliding Tic&#45;Tac&#45;Toe.">
<polygon fill="white" stroke="#666666" points="141.18,-58 69.68,-58 69.68,-38 141.18,-38 141.18,-58"/>
<text xml:space="preserve" text-anchor="middle" x="105.43" y="-44.5" font-family="Helvetica,sans-Serif" font-size="10.00">_4by4XO_AI</text>
</a>
</g>
</g>
<!-- Node0&#45;&gt;Node13 -->
<g id="edge13_Node000000_Node000013" class="edge">
<title>Node0&#45;&gt;Node13</title>
<g id="a_edge13_Node000000_Node000013"><a xlink:title=" ">
<path fill="none" stroke="#63b8ff" d="M15.35,-235.33C16.39,-197.07 23.72,-116.87 64.8,-67 67.61,-63.58 71.19,-60.74 75.03,-58.39"/>
<polygon fill="#63b8ff" stroke="#63b8ff" points="11.86,-235.04 15.22,-245.08 18.86,-235.13 11.86,-235.04"/>
</a>
</g>
</g>
<!-- Node14 -->
<g id="Node000014" class="node">
<title>Node14</title>
<g id="a_Node000014"><a xlink:href="$classdia___x_o___a_i.html" xlink:title=" ">
<polygon fill="white" stroke="#666666" points="137.05,-20 73.8,-20 73.8,0 137.05,0 137.05,-20"/>
<text xml:space="preserve" text-anchor="middle" x="105.43" y="-6.5" font-family="Helvetica,sans-Serif" font-size="10.00">dia_XO_AI</text>
</a>
</g>
</g>
<!-- Node0&#45;&gt;Node14 -->
<g id="edge14_Node000000_Node000014" class="edge">
<title>Node0&#45;&gt;Node14</title>
<g id="a_edge14_Node000000_Node000014"><a xlink:title=" ">
<path fill="none" stroke="#63b8ff" d="M17.65,-235.39C23.29,-184.93 39.4,-61.16 64.8,-29 67.54,-25.53 71.08,-22.65 74.9,-20.28"/>
<polygon fill="#63b8ff" stroke="#63b8ff" points="14.21,-234.72 16.61,-245.04 21.16,-235.47 14.21,-234.72"/>
</a>
</g>
</g>
</g>
</svg>
