<?xml version="1.0" encoding="UTF-8" standalone="no"?>
<!DOCTYPE svg PUBLIC "-//W3C//DTD SVG 1.1//EN"
 "http://www.w3.org/Graphics/SVG/1.1/DTD/svg11.dtd">
<!-- Generated by graphviz version 14.0.2 (20251019.1705)
 -->
<!-- Title: Games/XO_num/xo_num.cpp Pages: 1 -->
<svg width="375pt" height="264pt"
 viewBox="0.00 0.00 375.00 264.00" xmlns="http://www.w3.org/2000/svg" xmlns:xlink="http://www.w3.org/1999/xlink">
<g id="graph0" class="graph" transform="scale(1 1) rotate(0) translate(4 260)">
<title>Games/XO_num/xo_num.cpp</title>
<!-- Node1 -->
<g id="Node000001" class="node">
<title>Node1</title>
<g id="a_Node000001"><a xlink:title=" ">
<polygon fill="#999999" stroke="#666666" points="284.25,-256 139.25,-256 139.25,-236 284.25,-236 284.25,-256"/>
<text xml:space="preserve" text-anchor="middle" x="211.75" y="-242.5" font-family="Helvetica,sans-Serif" font-size="10.00">Games/XO_num/xo_num.cpp</text>
</a>
</g>
</g>
<!-- Node2 -->
<g id="Node000002" class="node">
<title>Node2</title>
<g id="a_Node000002"><a xlink:title=" ">
<polygon fill="#e0e0e0" stroke="#999999" points="53.5,-20 0,-20 0,0 53.5,0 53.5,-20"/>
<text xml:space="preserve" text-anchor="middle" x="26.75" y="-6.5" font-family="Helvetica,sans-Serif" font-size="10.00">iostream</text>
</a>
</g>
</g>
<!-- Node1&#45;&gt;Node2 -->
<g id="edge1_Node000001_Node000002" class="edge">
<title>Node1&#45;&gt;Node2</title>
<g id="a_edge1_Node000001_Node000002"><a xlink:title=" ">
<path fill="none" stroke="#63b8ff" d="M155.51,-235.57C131.28,-229.06 104.12,-218.16 84.75,-200 36.39,-154.65 27.99,-70.13 26.78,-31.37"/>
<polygon fill="#63b8ff" stroke="#63b8ff" points="30.28,-31.56 26.62,-21.62 23.28,-31.68 30.28,-31.56"/>
</a>
</g>
</g>
<!-- Node3 -->
<g id="Node000003" class="node">
<title>Node3</title>
<g id="a_Node000003"><a xlink:title=" ">
<polygon fill="#e0e0e0" stroke="#999999" points="191.62,-20 141.88,-20 141.88,0 191.62,0 191.62,-20"/>
<text xml:space="preserve" text-anchor="middle" x="166.75" y="-6.5" font-family="Helvetica,sans-Serif" font-size="10.00">iomanip</text>
</a>
</g>
</g>
<!-- Node1&#45;&gt;Node3 -->
<g id="edge2_Node000001_Node000003" class="edge">
<title>Node1&#45;&gt;Node3</title>
<g id="a_edge2_Node000001_Node000003"><a xlink:title=" ">
<path fill="none" stroke="#63b8ff" d="M209.93,-235.54C203.26,-200.84 180.04,-80.13 170.7,-31.52"/>
<polygon fill="#63b8ff" stroke="#63b8ff" points="174.15,-30.97 168.83,-21.81 167.28,-32.29 174.15,-30.97"/>
</a>
</g>
</g>
<!-- Node4 -->
<g id="Node000004" class="node">
<title>Node4</title>
<g id="a_Node000004"><a xlink:title=" ">
<polygon fill="#e0e0e0" stroke="#999999" points="304.38,-200 259.12,-200 259.12,-180 304.38,-180 304.38,-200"/>
<text xml:space="preserve" text-anchor="middle" x="281.75" y="-186.5" font-family="Helvetica,sans-Serif" font-size="10.00">cctype</text>
</a>
</g>
</g>
<!-- Node1&#45;&gt;Node4 -->
<g id="edge3_Node000001_Node000004" class="edge">
<title>Node1&#45;&gt;Node4</title>
<g id="a_edge3_Node000001_Node000004"><a xlink:title=" ">
<path fill="none" stroke="#63b8ff" d="M223.94,-235.59C234.08,-227.77 248.74,-216.46 260.76,-207.19"/>
<polygon fill="#63b8ff" stroke="#63b8ff" points="262.72,-210.1 268.5,-201.22 258.44,-204.56 262.72,-210.1"/>
</a>
</g>
</g>
<!-- Node5 -->
<g id="Node000005" class="node">
<title>Node5</title>
<g id="a_Node000005"><a xlink:title=" ">
<polygon fill="#e0e0e0" stroke="#999999" points="252.25,-20 209.25,-20 209.25,0 252.25,0 252.25,-20"/>
<text xml:space="preserve" text-anchor="middle" x="230.75" y="-6.5" font-family="Helvetica,sans-Serif" font-size="10.00">vector</text>
</a>
</g>
</g>
<!-- Node1&#45;&gt;Node5 -->
<g id="edge4_Node000001_Node000005" class="edge">
<title>Node1&#45;&gt;Node5</title>
<g id="a_edge4_Node000001_Node000005"><a xlink:title=" ">
<path fill="none" stroke="#63b8ff" d="M212.52,-235.54C215.34,-200.84 225.14,-80.13 229.08,-31.52"/>
<polygon fill="#63b8ff" stroke="#63b8ff" points="232.55,-32.08 229.87,-21.83 225.57,-31.52 232.55,-32.08"/>
</a>
</g>
</g>
<!-- Node6 -->
<g id="Node000006" class="node">
<title>Node6</title>
<g id="a_Node000006"><a xlink:title=" ">
<polygon fill="#e0e0e0" stroke="#999999" points="367,-200 322.5,-200 322.5,-180 367,-180 367,-200"/>
<text xml:space="preserve" text-anchor="middle" x="344.75" y="-186.5" font-family="Helvetica,sans-Serif" font-size="10.00">cstdlib</text>
</a>
</g>
</g>
<!-- Node1&#45;&gt;Node6 -->
<g id="edge5_Node000001_Node000006" class="edge">
<title>Node1&#45;&gt;Node6</title>
<g id="a_edge5_Node000001_Node000006"><a xlink:title=" ">
<path fill="none" stroke="#63b8ff" d="M234.92,-235.59C256.22,-226.95 288.02,-214.03 311.93,-204.33"/>
<polygon fill="#63b8ff" stroke="#63b8ff" points="312.94,-207.69 320.89,-200.69 310.31,-201.21 312.94,-207.69"/>
</a>
</g>
</g>
<!-- Node7 -->
<g id="Node000007" class="node">
<title>Node7</title>
<g id="a_Node000007"><a xlink:href="xo__num_8h.html" target="_top" xlink:title="Numerical Tic&#45;Tac&#45;Toe (Magic Square XO) game classes.">
<polygon fill="white" stroke="#666666" points="152.12,-200 93.38,-200 93.38,-180 152.12,-180 152.12,-200"/>
<text xml:space="preserve" text-anchor="middle" x="122.75" y="-186.5" font-family="Helvetica,sans-Serif" font-size="10.00">xo_num.h</text>
</a>
</g>
</g>
<!-- Node1&#45;&gt;Node7 -->
<g id="edge6_Node000001_Node000007" class="edge">
<title>Node1&#45;&gt;Node7</title>
<g id="a_edge6_Node000001_Node000007"><a xlink:title=" ">
<path fill="none" stroke="#63b8ff" d="M196.25,-235.59C182.93,-227.51 163.47,-215.71 147.92,-206.27"/>
<polygon fill="#63b8ff" stroke="#63b8ff" points="150.03,-203.46 139.67,-201.26 146.4,-209.44 150.03,-203.46"/>
</a>
</g>
</g>
<!-- Node8 -->
<g id="Node000008" class="node">
<title>Node8</title>
<g id="a_Node000008"><a xlink:href="_board_game___classes_8h.html" target="_top" xlink:title=" ">
<polygon fill="white" stroke="#666666" points="163.75,-88 45.75,-88 45.75,-56 163.75,-56 163.75,-88"/>
<text xml:space="preserve" text-anchor="start" x="53.75" y="-74.5" font-family="Helvetica,sans-Serif" font-size="10.00">../../header/BoardGame</text>
<text xml:space="preserve" text-anchor="middle" x="104.75" y="-62.5" font-family="Helvetica,sans-Serif" font-size="10.00">_Classes.h</text>
</a>
</g>
</g>
<!-- Node7&#45;&gt;Node8 -->
<g id="edge7_Node000007_Node000008" class="edge">
<title>Node7&#45;&gt;Node8</title>
<g id="a_edge7_Node000007_Node000008"><a xlink:title=" ">
<path fill="none" stroke="#63b8ff" d="M106.02,-179.6C94.01,-171.8 78.74,-159.5 71.75,-144 64.71,-128.4 72.58,-110.96 82.4,-97.28"/>
<polygon fill="#63b8ff" stroke="#63b8ff" points="84.96,-99.67 88.41,-89.65 79.47,-95.34 84.96,-99.67"/>
</a>
</g>
</g>
<!-- Node10 -->
<g id="Node000010" class="node">
<title>Node10</title>
<g id="a_Node000010"><a xlink:href="_a_i_8h.html" target="_top" xlink:title=" ">
<polygon fill="white" stroke="#666666" points="164.88,-144 80.62,-144 80.62,-124 164.88,-124 164.88,-144"/>
<text xml:space="preserve" text-anchor="middle" x="122.75" y="-130.5" font-family="Helvetica,sans-Serif" font-size="10.00">../../header/AI.h</text>
</a>
</g>
</g>
<!-- Node7&#45;&gt;Node10 -->
<g id="edge12_Node000007_Node000010" class="edge">
<title>Node7&#45;&gt;Node10</title>
<g id="a_edge12_Node000007_Node000010"><a xlink:title=" ">
<path fill="none" stroke="#63b8ff" d="M122.75,-179.59C122.75,-173.01 122.75,-163.96 122.75,-155.73"/>
<polygon fill="#63b8ff" stroke="#63b8ff" points="126.25,-155.81 122.75,-145.81 119.25,-155.81 126.25,-155.81"/>
</a>
</g>
</g>
<!-- Node8&#45;&gt;Node2 -->
<g id="edge10_Node000008_Node000002" class="edge">
<title>Node8&#45;&gt;Node2</title>
<g id="a_edge10_Node000008_Node000002"><a xlink:title=" ">
<path fill="none" stroke="#63b8ff" d="M84.66,-55.55C73.38,-46.87 59.31,-36.04 47.86,-27.24"/>
<polygon fill="#63b8ff" stroke="#63b8ff" points="50.24,-24.65 40.18,-21.33 45.97,-30.2 50.24,-24.65"/>
</a>
</g>
</g>
<!-- Node8&#45;&gt;Node3 -->
<g id="edge11_Node000008_Node000003" class="edge">
<title>Node8&#45;&gt;Node3</title>
<g id="a_edge11_Node000008_Node000003"><a xlink:title=" ">
<path fill="none" stroke="#63b8ff" d="M120.72,-55.55C129.33,-47.22 139.98,-36.91 148.87,-28.3"/>
<polygon fill="#63b8ff" stroke="#63b8ff" points="151.19,-30.93 155.94,-21.46 146.32,-25.9 151.19,-30.93"/>
</a>
</g>
</g>
<!-- Node8&#45;&gt;Node5 -->
<g id="edge9_Node000008_Node000005" class="edge">
<title>Node8&#45;&gt;Node5</title>
<g id="a_edge9_Node000008_Node000005"><a xlink:title=" ">
<path fill="none" stroke="#63b8ff" d="M137.2,-55.55C156.79,-46.22 181.59,-34.41 200.74,-25.29"/>
<polygon fill="#63b8ff" stroke="#63b8ff" points="202.1,-28.52 209.63,-21.06 199.09,-22.2 202.1,-28.52"/>
</a>
</g>
</g>
<!-- Node9 -->
<g id="Node000009" class="node">
<title>Node9</title>
<g id="a_Node000009"><a xlink:title=" ">
<polygon fill="#e0e0e0" stroke="#999999" points="123.75,-20 83.75,-20 83.75,0 123.75,0 123.75,-20"/>
<text xml:space="preserve" text-anchor="middle" x="103.75" y="-6.5" font-family="Helvetica,sans-Serif" font-size="10.00">string</text>
</a>
</g>
</g>
<!-- Node8&#45;&gt;Node9 -->
<g id="edge8_Node000008_Node000009" class="edge">
<title>Node8&#45;&gt;Node9</title>
<g id="a_edge8_Node000008_Node000009"><a xlink:title=" ">
<path fill="none" stroke="#63b8ff" d="M104.49,-55.55C104.37,-48.34 104.23,-39.66 104.1,-31.88"/>
<polygon fill="#63b8ff" stroke="#63b8ff" points="107.6,-31.86 103.93,-21.92 100.6,-31.98 107.6,-31.86"/>
</a>
</g>
</g>
<!-- Node10&#45;&gt;Node8 -->
<g id="edge13_Node000010_Node000008" class="edge">
<title>Node10&#45;&gt;Node8</title>
<g id="a_edge13_Node000010_Node000008"><a xlink:title=" ">
<path fill="none" stroke="#63b8ff" d="M119.94,-123.62C117.96,-117.02 115.2,-107.84 112.58,-99.11"/>
<polygon fill="#63b8ff" stroke="#63b8ff" points="115.95,-98.16 109.73,-89.59 109.25,-100.17 115.95,-98.16"/>
</a>
</g>
</g>
</g>
</svg>
